<svg width="150" height="150" viewBox="0 0 150 150" fill="none" xmlns="http://www.w3.org/2000/svg">
<g clip-path="url(#clip0_47_9172)">
<path d="M126.312 3.9248H23.6877C11.8189 3.9248 2.19727 13.5465 2.19727 25.4152V90.0781C2.19727 101.947 11.8189 111.569 23.6877 111.569H89.3455C91.4648 111.569 93.489 112.448 94.9351 113.998L124.466 145.638C125.314 146.546 126.836 145.936 126.821 144.693L126.506 118.235C126.465 114.785 128.733 111.712 132.058 110.792C141.137 108.279 147.803 99.957 147.803 90.0784V25.4152C147.803 13.5465 138.181 3.9248 126.312 3.9248Z" fill="#FF3C26"/>
<path d="M126.312 3.9248H124.518C132.214 7.20049 137.953 14.9272 137.953 23.8109V83.1954C137.953 93.3359 130.929 101.836 121.482 104.096C118.635 104.777 116.608 107.288 116.643 110.214L116.897 137.529L124.466 145.638C125.314 146.546 126.836 145.936 126.821 144.693L126.506 118.235C126.465 114.785 128.733 111.712 132.058 110.792C141.137 108.279 147.802 99.957 147.802 90.0784V25.4155C147.802 13.5465 138.181 3.9248 126.312 3.9248Z" fill="#FF3C26"/>
<path d="M120.091 28.2129H29.9102C29.3764 28.2129 28.9434 28.6456 28.9434 29.1797V89.5064C28.9434 90.0404 29.3761 90.4732 29.9102 90.4732H55.6659C57.7211 90.4732 59.7628 90.8022 61.714 91.4476C63.6651 92.093 65.7068 92.422 67.762 92.422H82.2382C84.2934 92.422 86.3351 92.093 88.2862 91.4476C90.2374 90.8022 92.2791 90.4732 94.3343 90.4732H120.09C120.624 90.4732 121.057 90.0404 121.057 89.5064V29.1797C121.057 28.6459 120.624 28.2129 120.091 28.2129Z" fill="#FFAB0D"/>
<path d="M120.09 28.2139H75V92.4229H82.2381C84.2933 92.4229 86.335 92.0939 88.2861 91.4485C90.2373 90.8031 92.279 90.4741 94.3342 90.4741H120.09C120.624 90.4741 121.057 90.0414 121.057 89.5073V29.1804C121.057 28.6466 120.624 28.2139 120.09 28.2139Z" fill="#FFAB0D"/>
<path d="M39.751 20.6633V81.0383C39.751 82.5655 41.0685 83.7512 42.589 83.61C63.2301 81.6942 74.7549 92.2004 74.9939 92.4207C74.996 92.4213 75.0001 92.4227 75.0001 92.4227V26.8531C75.0001 26.8531 63.2629 15.9315 42.0886 18.0875C40.7638 18.2225 39.751 19.3317 39.751 20.6633Z" fill="#FFF5F5"/>
<path d="M65.2734 21.1504V86.7215C71.5146 89.2483 74.8658 92.3025 74.9936 92.4203C74.9956 92.4209 74.9997 92.4224 74.9997 92.4224V26.8527C74.9997 26.8527 71.6394 23.7273 65.2734 21.1504Z" fill="#EFE2DD"/>
<path d="M110.249 20.6633V81.0383C110.249 82.5655 108.932 83.7512 107.411 83.61C86.77 81.6942 75.2452 92.2004 75.0062 92.4207C75.0041 92.4213 75 92.4227 75 92.4227V26.8531C75 26.8531 86.7372 15.9315 107.912 18.0875C109.236 18.2225 110.249 19.3317 110.249 20.6633Z" fill="#FFF5F5"/>
<path d="M107.912 18.0877C104.184 17.7083 100.751 17.7353 97.6211 18.0353C97.8136 18.0529 98.0049 18.0693 98.1988 18.0892C99.5184 18.224 100.523 19.3372 100.523 20.6635V83.4142C102.692 83.3333 104.988 83.3852 107.412 83.6102C108.932 83.7514 110.25 82.5658 110.25 81.0385V20.6635C110.25 19.332 109.237 18.2225 107.912 18.0877Z" fill="#EFE2DD"/>
<path d="M100.938 31.0385C94.3727 31.199 87.9778 32.8742 82.4448 35.8827C81.3787 36.4625 80.9846 37.7967 81.5641 38.8628C82.1469 39.9345 83.484 40.3203 84.5442 39.7434C87.9775 37.8766 93.6271 35.6129 101.046 35.4318C102.259 35.4019 103.218 34.3947 103.188 33.1812C103.159 31.9683 102.143 31.0165 100.938 31.0385Z" fill="black"/>
<path d="M100.939 46.5481C94.3737 46.7083 87.9788 48.3835 82.4449 51.392C81.3788 51.9718 80.9845 53.3057 81.5643 54.3718C82.1476 55.4452 83.4856 55.8287 84.544 55.2528C87.9779 53.386 93.6281 51.1222 101.046 50.9414C102.259 50.9115 103.218 49.9043 103.189 48.6911C103.159 47.478 102.158 46.5314 100.939 46.5481Z" fill="black"/>
<path d="M100.938 62.058C94.3727 62.2186 87.9778 63.8938 82.4448 66.9022C81.3787 67.482 80.9846 68.8162 81.5641 69.8823C82.1469 70.954 83.484 71.3398 84.5442 70.763C87.9775 68.8962 93.6271 66.6324 101.046 66.4514C102.259 66.4215 103.218 65.4143 103.188 64.2008C103.159 62.9879 102.143 62.0355 100.938 62.058Z" fill="black"/>
<path d="M48.9543 35.4319C56.3728 35.613 62.0224 37.8768 65.4557 39.7436C66.5195 40.3219 67.8549 39.9311 68.4358 38.8629C69.0156 37.7968 68.6213 36.4626 67.5552 35.8828C62.0222 32.874 55.6272 31.1991 49.0615 31.0386C47.8439 31.0134 46.8408 31.9685 46.8112 33.1813C46.7816 34.3948 47.7411 35.4021 48.9543 35.4319Z" fill="black"/>
<path d="M48.9543 50.9418C56.372 51.1226 62.0222 53.3863 65.456 55.2531C66.5178 55.8306 67.8543 55.4424 68.4358 54.3722C69.0156 53.306 68.6213 51.9722 67.5552 51.3924C62.0213 48.3836 55.6264 46.7087 49.0615 46.5484C47.8439 46.5209 46.8408 47.4783 46.8112 48.6915C46.7816 49.9047 47.7411 50.9122 48.9543 50.9418Z" fill="black"/>
<path d="M48.9543 66.4516C56.3728 66.6327 62.0224 68.8965 65.4557 70.7633C66.5195 71.3416 67.8549 70.9508 68.4358 69.8826C69.0156 68.8165 68.6213 67.4823 67.5552 66.9025C62.0222 63.8937 55.6272 62.2188 49.0615 62.0583C47.8439 62.0287 46.8408 62.9882 46.8112 64.2011C46.7816 65.4145 47.7411 66.4218 48.9543 66.4516Z" fill="black"/>
<path d="M81.5125 20.1621C78.5119 21.5859 76.3305 23.0399 75.0062 24.0275C71.101 21.0967 59.6963 14.0859 41.8656 15.9015C39.4073 16.152 37.5537 18.1992 37.5537 20.6631V26.0159H29.9102C28.1655 26.0159 26.7461 27.4354 26.7461 29.18V89.5066C26.7461 91.2513 28.1655 92.6707 29.9102 92.6707H55.6662C60.666 92.6707 61.9381 94.6195 67.7623 94.6195H82.2385C88.0814 94.6195 89.3081 92.6707 94.3346 92.6707H120.091C121.835 92.6707 123.255 91.2513 123.255 89.5066V29.18C123.255 27.4354 121.835 26.0159 120.091 26.0159H112.447V20.6631C112.447 18.1992 110.593 16.1522 108.135 15.9012C101.979 15.2748 95.9992 15.656 90.3602 17.0344C89.1812 17.3224 88.4594 18.5115 88.7474 19.6904C89.0356 20.869 90.2257 21.5924 91.4034 21.3029C96.5547 20.0438 102.034 19.6972 107.689 20.2729C107.896 20.2939 108.053 20.4618 108.053 20.6628V81.0378C108.053 81.2716 107.85 81.4421 107.615 81.4219C92.7288 80.0394 82.3401 84.8584 77.1977 88.1004V27.8827C78.2143 27.0876 80.314 25.5946 83.3966 24.1318C84.4929 23.6118 84.9599 22.3011 84.4398 21.2048C83.9192 20.1088 82.6085 19.6421 81.5125 20.1621ZM41.9482 20.6631C41.9482 20.4618 42.1044 20.2942 42.3112 20.2734C59.3562 18.5367 70.0601 25.7578 72.8031 27.8865V88.1001C68.28 85.2489 59.7007 81.179 47.5709 81.179C45.9098 81.179 44.1792 81.2555 42.3862 81.4219C42.1618 81.4459 41.9485 81.2774 41.9485 81.0378V20.6631H41.9482ZM55.6659 88.2762H31.1406V30.4105H37.5537V81.0381C37.5537 83.8485 39.9763 86.0572 42.792 85.7976C54.0133 84.757 62.4396 87.5968 67.6015 90.2218C62.6717 90.1758 61.4427 88.2762 55.6659 88.2762ZM107.208 85.7976C110.02 86.0558 112.447 83.8544 112.447 81.0381V30.4105H118.86V88.2762H94.3346C88.5566 88.2762 87.3341 90.1764 82.3964 90.2221C87.5573 87.5959 95.9843 84.7547 107.208 85.7976Z" fill="black"/>
<path d="M126.312 1.72754H23.6877C10.6263 1.72754 0 12.3541 0 25.4155V55.9194C0 57.1332 0.983789 58.1167 2.19727 58.1167C3.41074 58.1167 4.39453 57.1332 4.39453 55.9194V25.4155C4.39453 14.777 13.0494 6.12236 23.6877 6.12236H126.312C136.951 6.12236 145.605 14.7772 145.605 25.4155V55.9188C145.605 57.1326 146.589 58.1161 147.803 58.1161C149.016 58.1161 150 57.1326 150 55.9188V25.4155C150 12.3541 139.374 1.72754 126.312 1.72754Z" fill="black"/>
<path d="M147.803 62.5195C146.589 62.5195 145.605 63.503 145.605 64.7168V90.0782C145.605 98.724 139.794 106.371 131.472 108.674C127.201 109.856 124.256 113.798 124.309 118.261L124.598 142.559L96.5408 112.499C94.686 110.512 92.0631 109.372 89.3449 109.372H23.6877C13.0494 109.371 4.39453 100.717 4.39453 90.0782V64.7177C4.39453 63.5039 3.41074 62.5204 2.19727 62.5204C0.983789 62.5204 0 63.5039 0 64.7177V90.0782C0 103.14 10.6263 113.766 23.6877 113.766H89.3452C90.8499 113.766 92.3016 114.397 93.3284 115.497L122.86 147.137C125.072 149.507 129.057 147.919 129.018 144.667L128.703 118.209C128.674 115.738 130.295 113.559 132.644 112.909C142.863 110.081 150 100.692 150 90.0779V64.7165C150 63.503 149.016 62.5195 147.803 62.5195Z" fill="black"/>
</g>
<defs>
<clipPath id="clip0_47_9172">
<rect width="150" height="150" fill="white"/>
</clipPath>
</defs>
</svg>
