<svg width="150" height="150" viewBox="0 0 150 150" fill="none" xmlns="http://www.w3.org/2000/svg">
<g clip-path="url(#clip0_47_9159)">
<path d="M100.368 147.803H91.3663C89.9914 147.803 88.877 146.688 88.877 145.314V30.916H102.857V145.314C102.857 146.688 101.743 147.803 100.368 147.803Z" fill="#E1D3CE"/>
<path d="M116.101 88.9497H88.8742L88.8771 88.9436V78.8379C83.4426 78.8379 78.308 81.3299 74.9459 85.5996L71.5208 89.9493C69.4363 92.5963 66.2535 94.1411 62.8844 94.1411H57.7979V132.654H67.3905C68.7839 132.654 70.1644 132.919 71.4587 133.434L80.5316 137.049C85.3293 138.684 90.3634 139.519 95.432 139.519H108.92C111.565 139.519 113.71 137.374 113.71 134.729V131.666C113.71 129.021 111.565 126.877 108.92 126.877H111.99C114.635 126.877 116.78 124.732 116.78 122.087V119.024C116.78 116.379 114.635 114.234 111.99 114.234H114.43C117.075 114.234 119.22 112.09 119.22 109.445V106.382C119.22 103.737 117.075 101.592 114.43 101.592H116.101C118.746 101.592 120.891 99.4477 120.891 96.8024V93.7397C120.89 91.0939 118.746 88.9497 116.101 88.9497Z" fill="#FFF3DE"/>
<path d="M116.101 88.9492H106.403C109.048 88.9492 111.192 91.0937 111.192 93.739V96.8017C111.192 99.4469 109.048 101.591 106.403 101.591H104.732C107.377 101.591 109.521 103.736 109.521 106.381V109.444C109.521 112.089 107.377 114.234 104.732 114.234H102.292C104.937 114.234 107.081 116.378 107.081 119.023V122.086C107.081 124.731 104.937 126.876 102.292 126.876H99.2217C101.867 126.876 104.011 129.02 104.011 131.666V134.728C104.011 137.373 101.867 139.518 99.2217 139.518H108.92C111.565 139.518 113.71 137.373 113.71 134.728V131.666C113.71 129.02 111.565 126.876 108.92 126.876H111.99C114.635 126.876 116.78 124.731 116.78 122.086V119.023C116.78 116.378 114.635 114.234 111.99 114.234H114.43C117.075 114.234 119.219 112.089 119.219 109.444V106.381C119.219 103.736 117.075 101.591 114.43 101.591H116.101C118.746 101.591 120.891 99.4469 120.891 96.8017V93.739C120.891 91.0935 118.746 88.9492 116.101 88.9492Z" fill="#FFE5C2"/>
<path d="M79.1797 81.7313C79.1779 85.7174 82.4088 88.9497 86.3949 88.9497H88.8746L88.8775 88.9436V78.8379C85.3909 78.8379 82.0306 79.8683 79.1797 81.7313Z" fill="#FFE5C2"/>
<path d="M138.044 70.9107H56.394C51.0116 70.9107 46.6484 66.5476 46.6484 61.1651V11.9429C46.6484 6.56045 51.0116 2.19727 56.394 2.19727H138.044C143.426 2.19727 147.789 6.56045 147.789 11.9429V61.1651C147.789 66.5476 143.426 70.9107 138.044 70.9107Z" fill="#FFF5F5"/>
<path d="M60.0243 62.0338C57.5402 62.0338 55.5264 60.0199 55.5264 57.5358V15.5722C55.5264 13.0881 57.5402 11.0742 60.0243 11.0742H134.415C136.899 11.0742 138.913 13.0881 138.913 15.5722V57.5355C138.913 60.0196 136.899 62.0335 134.415 62.0335L60.0243 62.0338Z" fill="#299900"/>
<path d="M134.415 11.0742H124.698C127.182 11.0742 129.196 13.0881 129.196 15.5722V57.5355C129.196 60.0196 127.182 62.0335 124.698 62.0335H134.415C136.899 62.0335 138.912 60.0196 138.912 57.5355V15.5722C138.912 13.0881 136.899 11.0742 134.415 11.0742Z" fill="#299900"/>
<path d="M59.2803 89.6885H5.23633C3.56494 89.6885 2.20996 91.0435 2.20996 92.7148V134.194C2.20996 135.865 3.56494 137.22 5.23633 137.22H59.2803C61.7474 137.22 63.7475 135.22 63.7475 132.753V94.1557C63.7475 91.6883 61.7474 89.6885 59.2803 89.6885Z" fill="#0C73FE"/>
<path d="M59.2812 89.6885H53.9594V132.753C53.9594 135.22 51.9593 137.22 49.4922 137.22H59.2814C61.7485 137.22 63.7486 135.22 63.7486 132.753V94.1557C63.7483 91.6883 61.7482 89.6885 59.2812 89.6885Z" fill="#0C73FE"/>
<path d="M95.4394 53.4073C95.5267 53.4073 95.6146 53.402 95.7019 53.3915C96.4012 53.3074 97.0173 52.8934 97.3595 52.2779L114.96 20.6387C115.55 19.5785 115.168 18.2405 114.108 17.6508C113.047 17.0604 111.709 17.4422 111.12 18.5027L94.9923 47.4937L83.0125 34.5603C82.1884 33.67 80.7979 33.6167 79.9073 34.4417C79.017 35.2661 78.9637 36.6565 79.7887 37.5469L93.8274 52.7033C94.2458 53.1551 94.8314 53.4073 95.4394 53.4073Z" fill="black"/>
<path d="M138.044 0H56.3945C49.8092 0 44.4517 5.35752 44.4517 11.9429V61.1654C44.4517 67.7508 49.8092 73.1083 56.3945 73.1083H86.6796V76.7622C72.9892 78.2549 72.2811 89.494 65.4203 91.5642C64.4072 89.173 62.0362 87.4913 59.2803 87.4913H5.23633C2.35615 87.4913 0.0126953 89.8345 0.0126953 92.7149V134.194C0.0126953 137.074 2.35615 139.417 5.23633 139.417H10.7957C12.0095 139.417 12.993 138.434 12.993 137.22C12.993 136.006 12.0095 135.023 10.7957 135.023H5.23633C4.779 135.023 4.40723 134.651 4.40723 134.194V92.7147C4.40723 92.2573 4.7793 91.8855 5.23633 91.8855H59.2803C60.5192 91.8855 61.5282 92.8837 61.5484 94.118C61.5484 94.125 61.5476 94.1317 61.5478 94.1388C61.5481 94.1593 61.5496 94.1795 61.5505 94.1997V132.753C61.5505 134.004 60.5318 135.023 59.2803 135.023H19.6258C18.412 135.023 17.4285 136.006 17.4285 137.22C17.4285 138.434 18.412 139.417 19.6258 139.417H59.2803C62.2223 139.417 64.723 137.501 65.6046 134.851H67.3899C70.1641 134.851 71.0805 135.824 79.7181 139.09C79.7523 139.104 79.7869 139.117 79.8221 139.129C82.0694 139.895 84.3596 140.491 86.6793 140.918V145.314C86.6793 147.898 88.7819 150 91.3662 150H100.368C102.952 150 105.054 147.898 105.054 145.314V141.716H108.919C112.772 141.716 115.906 138.582 115.906 134.729C115.78 132.482 116.309 130.646 115.071 128.357C120.179 125.835 118.754 120.165 118.976 119.024C118.976 117.72 118.617 116.499 117.993 115.453C122.547 112.741 121.176 107.751 121.416 106.382C121.416 104.927 120.969 103.574 120.205 102.454C124.103 99.6149 122.856 95.2553 123.087 93.74C123.087 89.8875 119.953 86.7527 116.1 86.7527H105.054V73.1086H138.044C144.629 73.1086 149.987 67.7511 149.987 61.1657V11.9429C149.987 5.35752 144.629 0 138.044 0V0ZM100.66 145.313C100.66 145.475 100.529 145.605 100.368 145.605H91.3665C91.2051 145.605 91.0741 145.475 91.0741 145.313V141.518C92.5196 141.648 93.973 141.716 95.4317 141.716H100.66V145.313ZM116.1 91.1467C117.53 91.1467 118.693 92.3098 118.693 93.7394V96.8021C118.693 98.2315 117.53 99.3946 116.1 99.3946C113.138 99.3946 107.532 99.3946 104.582 99.3946C103.369 99.3946 102.385 100.378 102.385 101.592C102.385 102.806 103.369 103.789 104.582 103.789H114.429C115.859 103.789 117.022 104.952 117.022 106.382V109.445C117.022 110.874 115.859 112.037 114.429 112.037C112.232 112.037 106.679 112.037 104.582 112.037C103.369 112.037 102.385 113.021 102.385 114.234C102.385 115.448 103.369 116.432 104.582 116.432C104.733 116.432 112.339 116.432 111.99 116.432C113.419 116.432 114.582 117.595 114.582 119.024V122.087C114.582 123.517 113.419 124.68 111.99 124.68C109.317 124.68 107.066 124.68 104.582 124.68C103.369 124.68 102.385 125.663 102.385 126.877C102.385 128.091 103.369 129.074 104.582 129.074H108.92C110.349 129.074 111.512 130.237 111.512 131.667V134.73C111.512 136.159 110.349 137.322 108.92 137.322H95.432C90.613 137.322 85.8558 136.537 81.2925 134.987C73.3199 132.033 71.4314 130.457 67.3902 130.457H65.945V95.9695C76.0129 93.5599 74.7358 82.8768 86.6796 81.1948V88.9497C86.6796 88.9585 86.6808 88.967 86.6808 88.9758C86.6951 90.2021 87.7056 91.147 88.8739 91.147H116.1V91.1467ZM91.0741 86.7522V73.108H100.66V86.7522H91.0741ZM145.592 61.1651C145.592 65.3273 142.206 68.7135 138.044 68.7135H56.3945C52.2323 68.7135 48.8462 65.3273 48.8462 61.1651V11.9429C48.8462 7.78066 52.2323 4.39453 56.3945 4.39453H138.044C142.206 4.39453 145.592 7.78066 145.592 11.9429V61.1651Z" fill="black"/>
<path d="M134.415 8.87695H60.0243C56.3326 8.87695 53.3291 11.8805 53.3291 15.5725V32.2559C53.3291 33.4696 54.3126 34.4531 55.5264 34.4531C56.7401 34.4531 57.7236 33.4696 57.7236 32.2559V15.5722C57.7236 14.3036 58.7555 13.2712 60.0243 13.2712H134.415C135.684 13.2712 136.716 14.3033 136.716 15.5722V57.5355C136.716 58.8041 135.684 59.8362 134.415 59.8362H60.0243C58.7558 59.8362 57.7236 58.8044 57.7236 57.5355V41.0449C57.7236 39.8312 56.7401 38.8477 55.5264 38.8477C54.3126 38.8477 53.3291 39.8312 53.3291 41.0449V57.5358C53.3291 61.2275 56.3326 64.231 60.0243 64.231H134.415C138.107 64.231 141.11 61.2275 141.11 57.5358V15.5722C141.11 11.8805 138.107 8.87695 134.415 8.87695Z" fill="black"/>
</g>
<defs>
<clipPath id="clip0_47_9159">
<rect width="150" height="150" fill="white"/>
</clipPath>
</defs>
</svg>
