<svg width="150" height="150" viewBox="0 0 150 150" fill="none" xmlns="http://www.w3.org/2000/svg">
	<g clip-path="url(#clip0_47_9145)">
		<path d="M16.5243 46.6123H84.9407C92.8532 46.6123 99.2678 53.0266 99.2678 60.9394V104.048C99.2678 111.96 92.8535 118.375 84.9407 118.375H43.0377C40.4001 118.375 37.8472 119.306 35.8289 121.004L14.7905 138.705C12.9536 140.25 10.2346 138.446 10.9444 136.153L16.4479 118.374C8.57051 118.333 2.19727 111.935 2.19727 104.048V60.9391C2.19727 53.0266 8.61152 46.6123 16.5243 46.6123Z" fill="#FFAB0D" />
		<path d="M43.0367 118.375H32.576C30.4148 118.375 28.323 119.138 26.6692 120.529L11.9466 132.916L10.9446 136.154C10.2348 138.447 12.9535 140.251 14.7907 138.705L35.8291 121.004C37.8468 119.306 40.3994 118.375 43.0367 118.375Z" fill="#FFAB0D" />
		<path d="M84.941 46.6123H75.2168C83.1293 46.6123 89.5435 53.0266 89.5435 60.9391V104.048C89.5435 111.96 83.1293 118.375 75.2168 118.375H84.941C92.8535 118.375 99.2681 111.96 99.2681 104.048V60.9391C99.2678 53.0266 92.8535 46.6123 84.941 46.6123Z" fill="#FFAB0D" />
		<path d="M133.476 10.7227H65.0595C57.147 10.7227 50.7324 17.1369 50.7324 25.0497V68.1583C50.7324 76.0708 57.1467 82.4854 65.0595 82.4854H108.328C110.084 82.4854 111.783 83.1053 113.127 84.2355L135.21 102.816C137.047 104.361 139.766 102.557 139.056 100.264L134.132 84.3565C133.845 83.4311 134.468 82.4845 135.428 82.3535C142.417 81.4017 147.803 75.4093 147.803 68.1586V25.0494C147.803 17.1369 141.389 10.7227 133.476 10.7227Z" fill="#FF3C26" />
		<path d="M133.476 10.7227H133.262C136.185 12.8953 138.079 16.374 138.079 20.2957V65.8096C138.079 72.3434 133.705 77.8553 127.726 79.5779C125.669 80.1706 124.515 82.3553 125.148 84.4002L129.313 97.8536L135.21 102.815C137.047 104.36 139.766 102.557 139.056 100.264L134.132 84.356C133.845 83.4305 134.467 82.4839 135.427 82.3529C142.417 81.4011 147.803 75.4087 147.803 68.158V25.0494C147.803 17.1369 141.389 10.7227 133.476 10.7227Z" fill="#FF4755" />
		<path d="M38.8833 66.8066H16.625C15.4115 66.8066 14.4277 65.8228 14.4277 64.6094C14.4277 63.3959 15.4115 62.4121 16.625 62.4121H38.8833C40.0968 62.4121 41.0806 63.3959 41.0806 64.6094C41.0806 65.8228 40.0968 66.8066 38.8833 66.8066Z" fill="black" />
		<path d="M38.8833 84.6914H16.625C15.4115 84.6914 14.4277 83.7076 14.4277 82.4941C14.4277 81.2807 15.4115 80.2969 16.625 80.2969H38.8833C40.0968 80.2969 41.0806 81.2807 41.0806 82.4941C41.0806 83.7076 40.0968 84.6914 38.8833 84.6914Z" fill="black" />
		<path d="M84.8401 102.575H16.625C15.4115 102.575 14.4277 101.591 14.4277 100.378C14.4277 99.1645 15.4115 98.1807 16.625 98.1807H84.8401C86.0536 98.1807 87.0374 99.1645 87.0374 100.378C87.0374 101.591 86.0536 102.575 84.8401 102.575Z" fill="black" />
		<path d="M133.375 30.916H65.1602C63.9467 30.916 62.9629 29.9322 62.9629 28.7188C62.9629 27.5053 63.9467 26.5215 65.1602 26.5215H133.375C134.589 26.5215 135.573 27.5053 135.573 28.7188C135.573 29.9322 134.589 30.916 133.375 30.916Z" fill="black" />
		<path d="M133.375 48.8008H65.1602C63.9467 48.8008 62.9629 47.817 62.9629 46.6035C62.9629 45.39 63.9467 44.4062 65.1602 44.4062H133.375C134.589 44.4062 135.573 45.39 135.573 46.6035C135.573 47.817 134.589 48.8008 133.375 48.8008Z" fill="black" />
		<path d="M99.2676 66.6856H65.1602C63.9467 66.6856 62.9629 65.7018 62.9629 64.4883C62.9629 63.2748 63.9467 62.291 65.1602 62.291H99.2676C100.481 62.291 101.465 63.2748 101.465 64.4883C101.465 65.7018 100.481 66.6856 99.2676 66.6856Z" fill="black" />
		<path d="M136.754 105.585C135.701 105.585 134.654 105.219 133.795 104.496L111.712 85.9163C110.766 85.1206 109.564 84.6823 108.328 84.6823H65.0595C55.9479 84.6823 48.5352 77.2696 48.5352 68.1583V25.0494C48.5352 15.9378 55.9479 8.52539 65.0595 8.52539H133.476C142.587 8.52539 150 15.9378 150 25.0494V68.1583C150 76.137 144.225 82.9992 136.45 84.4148L141.155 99.6141C141.764 101.583 141.02 103.671 139.302 104.81C138.52 105.329 137.635 105.585 136.754 105.585ZM65.0595 12.9199C58.371 12.9199 52.9297 18.3612 52.9297 25.0494V68.1583C52.9297 74.8465 58.371 80.2878 65.0595 80.2878H108.328C110.598 80.2878 112.804 81.0926 114.541 82.5539L136.624 101.134C136.686 101.185 136.743 101.234 136.873 101.148C137.002 101.062 136.98 100.99 136.957 100.913L132.032 85.0055C131.706 83.9522 131.859 82.8155 132.452 81.8865C133.049 80.9496 134.025 80.3262 135.131 80.1756C141.102 79.3626 145.606 74.1961 145.606 68.1583V25.0494C145.606 18.3612 140.164 12.9199 133.476 12.9199H65.0595Z" fill="black" />
		<path d="M13.246 141.475C12.365 141.475 11.48 141.219 10.6978 140.7C8.98066 139.56 8.23623 137.472 8.84561 135.504L13.551 120.303C5.85879 118.895 0 112.128 0 104.048V60.9394C0 51.8277 7.4127 44.415 16.524 44.415H41.9367C43.1502 44.415 44.134 45.3988 44.134 46.6123C44.134 47.8258 43.1502 48.8096 41.9367 48.8096H16.524C9.83555 48.8096 4.39453 54.2509 4.39453 60.9394V104.048C4.39453 110.701 9.80684 116.143 16.4596 116.177C17.1554 116.181 17.8084 116.514 18.22 117.075C18.6316 117.636 18.7529 118.359 18.547 119.024L13.0436 136.803C13.0198 136.88 12.9976 136.952 13.1273 137.038C13.2568 137.124 13.3148 137.075 13.3761 137.024L34.4147 119.323C36.8253 117.295 39.8877 116.178 43.038 116.178H84.941C91.6295 116.178 97.0708 110.736 97.0708 104.048V91.3592C97.0708 90.1457 98.0546 89.1619 99.2681 89.1619C100.482 89.1619 101.465 90.1457 101.465 91.3592V104.048C101.465 113.16 94.0526 120.572 84.941 120.572H43.0377C40.921 120.572 38.8632 121.323 37.2437 122.685L16.205 140.386C15.3466 141.109 14.2992 141.475 13.246 141.475Z" fill="black" />
	</g>
	<defs>
		<clipPath id="clip0_47_9145">
			<rect width="150" height="150" fill="white" />
		</clipPath>
	</defs>
</svg>