<svg width="39" height="39" viewBox="0 0 39 39" fill="none" xmlns="http://www.w3.org/2000/svg">
<path d="M19.24 38.48C29.8659 38.48 38.48 29.8659 38.48 19.24C38.48 8.61403 29.8659 0 19.24 0C8.61403 0 0 8.61403 0 19.24C0 29.8659 8.61403 38.48 19.24 38.48Z" fill="#AD1581"/>
<path d="M20.2496 20.13C22.6696 21.38 23.6496 23.5401 23.2596 26.7101C20.5796 26.7101 17.8795 26.7101 15.1895 26.7101C14.5695 24.0501 15.7096 21.44 17.8796 20.25C17.3296 19.49 16.6296 18.77 16.2596 17.91C16.0196 17.36 16.1395 16.5701 16.3295 15.9501C16.7395 14.6201 18.0395 13.9 19.5495 14.02C20.8595 14.12 21.9796 15.1 22.2596 16.38C22.5796 17.87 21.9396 19.12 20.2596 20.12L20.2496 20.13Z" fill="white"/>
<path d="M27.3503 17.9701C30.3903 19.1901 30.1703 21.91 30.4103 24.52H24.4103C23.8303 23.22 23.0903 21.98 22.7703 20.64C22.6403 20.1 23.3603 19.2901 23.8203 18.7101C24.1003 18.3501 24.6303 18.19 25.0603 17.94C23.2703 16.63 22.7503 15.44 23.2703 13.9C23.6903 12.63 24.8502 11.79 26.1802 11.77C27.4802 11.75 28.7303 12.6201 29.1403 13.8401C29.6703 15.4101 29.1603 16.5901 27.3403 17.9701H27.3503Z" fill="white"/>
<path d="M13.38 17.9301C13.89 18.2901 14.47 18.58 14.9 19.02C15.6 19.72 16.02 20.42 15.25 21.49C14.66 22.32 14.49 23.4501 14.11 24.5401H8.19995C7.66995 21.5901 8.66002 19.2801 11.02 17.9301C9.27002 16.6501 8.72996 15.4601 9.20996 13.9201C9.59996 12.6901 10.8 11.8 12.12 11.77C13.42 11.73 14.66 12.5801 15.1 13.8101C15.66 15.3501 15.15 16.5601 13.38 17.9301V17.9301Z" fill="white"/>
</svg>
