<svg width="554" height="277" viewBox="0 0 554 277" fill="none" xmlns="http://www.w3.org/2000/svg">
<path d="M38.7997 235.4C38.1797 213.53 39.4497 187.76 57.6197 175.57C67.7697 168.76 80.7696 168.19 92.2296 163.94C110.47 157.19 123.9 141.53 134.64 125.31C145.38 109.09 154.43 91.5101 167.99 77.5601C181.54 63.6101 201.12 53.54 220.17 57.47C227.36 58.95 234.01 62.32 241.07 64.35C250.39 67.03 260.2 67.34 269.9 67.46C284.13 67.64 298.53 67.43 312.3 63.84C351.8 53.52 379.89 17.2701 418.59 4.26008C433.37 -0.709916 451.17 -1.51992 463.11 8.51008C468.49 13.0201 472.12 19.33 474.47 25.95C481.89 46.9 477 70.4101 482.73 91.8901C490.46 120.85 516.03 141.63 527.87 169.16C534.7 185.04 536.68 202.96 533.5 219.94C532.28 226.45 530.18 233.07 525.62 237.87C520.8 242.94 513.84 245.36 507.03 246.99C486.36 251.96 464.83 251.37 443.58 250.95C323.36 248.57 203.11 252.42 82.9097 255.75C74.3297 255.99 65.5497 256.19 57.3997 253.49C49.2497 250.79 41.7296 244.55 39.9596 236.15" fill="#EEF4FB"/>
<path d="M347.75 195.53C339.45 189.81 331.2 186.64 325.13 192.59C314.58 202.93 331.6 218.67 344.18 228.93C344.57 229.24 353.69 237.42 363.9 239.17C379.85 241.91 403.06 248.19 406.96 235.09C409.19 227.59 401.64 222.91 391.77 219.77C405.47 211.42 424.61 201.04 419.66 190.16C416.58 183.38 407.46 185.5 397.67 190.13C398.41 189.7 399.18 189.24 399.99 188.74C413.73 180.19 435.15 169.3 429.95 157.86C426.7 150.73 416.78 153.44 406.43 158.58C415.35 145.63 426.82 129.57 418.26 122.08C409.94 114.81 397.62 130.83 388.62 144C389.07 132.39 387.86 121.84 379.88 120.21C367.37 117.65 365.57 144.81 364.4 160.95C364.38 161.21 364.37 161.46 364.35 161.71C361.09 156.23 356.84 152.79 350.85 153.84C336.89 156.27 343.19 179.86 347.74 195.54L347.75 195.53Z" fill="url(#paint0_linear_115_153)"/>
<path d="M359.36 216.09C359.86 214.8 360.36 213.51 360.89 212.23C361.94 209.67 363.05 207.14 364.23 204.63C364.82 203.37 365.43 202.12 366.05 200.87C364.89 199.97 363.91 198.88 363.08 197.74C362.08 196.35 361.27 194.87 360.6 193.34C359.93 191.81 359.37 190.25 358.91 188.67C358.68 187.88 358.47 187.09 358.27 186.29C358.08 185.49 357.91 184.69 357.75 183.89C357.13 180.68 356.75 177.44 356.55 174.2C356.38 170.96 356.32 167.72 356.55 164.49C356.82 167.71 357.17 170.91 357.65 174.09C358.12 177.26 358.7 180.42 359.47 183.51C360.25 186.59 361.19 189.63 362.53 192.45C363.19 193.86 363.96 195.21 364.86 196.43C365.52 197.32 366.26 198.14 367.08 198.83C367.36 198.29 367.64 197.74 367.92 197.2C369.21 194.76 370.52 192.33 371.89 189.93C375.13 184.23 378.58 178.66 382.19 173.2C381.98 173.01 381.78 172.81 381.58 172.6C380.39 171.34 379.43 169.88 378.69 168.34C377.96 166.8 377.41 165.18 377.04 163.54C376.28 160.26 376.04 156.92 376.12 153.61C376.18 150.3 376.55 147.01 377.09 143.76C377.37 142.14 377.69 140.53 378.07 138.93C378.45 137.33 378.87 135.74 379.38 134.18C378.73 137.39 378.23 140.63 377.89 143.87C377.54 147.11 377.36 150.37 377.41 153.6C377.49 156.83 377.77 160.07 378.57 163.16C378.97 164.7 379.48 166.21 380.18 167.61C380.87 169.01 381.74 170.32 382.8 171.44C382.91 171.55 383.02 171.66 383.13 171.77C385.31 168.52 387.54 165.3 389.82 162.12C391.43 159.89 393.05 157.65 394.71 155.46C396.37 153.26 398.05 151.08 399.76 148.92C403.19 144.61 406.67 140.34 410.35 136.24C407.05 140.65 403.81 145.09 400.63 149.57C399.04 151.81 397.45 154.05 395.89 156.31C394.33 158.57 392.77 160.83 391.24 163.11C390.47 164.25 389.71 165.39 388.96 166.54L386.69 169.98C386.02 171.01 385.35 172.05 384.69 173.08C385.23 173.45 385.82 173.73 386.46 173.94C387.87 174.4 389.44 174.47 391 174.35C392.57 174.24 394.14 173.92 395.69 173.51C396.47 173.3 397.24 173.07 398 172.82C398.77 172.57 399.53 172.3 400.29 172.02C401.81 171.45 403.3 170.81 404.78 170.14C406.26 169.47 407.73 168.76 409.18 168.01C412.09 166.53 414.94 164.93 417.75 163.24C415.15 165.25 412.4 167.05 409.58 168.74C408.16 169.58 406.73 170.38 405.26 171.14C403.79 171.9 402.3 172.6 400.77 173.25C400.01 173.57 399.24 173.88 398.46 174.17C397.68 174.45 396.89 174.71 396.08 174.95C394.48 175.42 392.83 175.79 391.13 175.96C390.28 176.04 389.42 176.06 388.55 176C387.68 175.94 386.8 175.8 385.95 175.53C385.52 175.39 385.1 175.23 384.69 175.02C384.38 174.87 384.07 174.69 383.79 174.49C383.28 175.3 382.77 176.1 382.26 176.91C380.81 179.24 379.37 181.57 377.96 183.92C376.54 186.27 375.17 188.64 373.81 191.02C372.45 193.4 371.14 195.8 369.85 198.22C369.52 198.83 369.2 199.44 368.88 200.06C368.9 200.06 368.91 200.08 368.93 200.09L369.43 200.35L369.94 200.58C370.63 200.88 371.34 201.13 372.07 201.35C373.53 201.77 375.05 202 376.59 202.09C379.68 202.26 382.82 201.86 385.91 201.17C389 200.48 392.04 199.48 395.02 198.31C396.52 197.73 397.99 197.09 399.45 196.42C400.18 196.09 400.91 195.74 401.63 195.38C402.36 195.03 403.07 194.66 403.78 194.28C402.48 195.25 401.12 196.12 399.73 196.96C398.34 197.8 396.91 198.56 395.45 199.29C392.54 200.73 389.49 201.96 386.33 202.85C384.75 203.29 383.13 203.65 381.49 203.88C380.67 204 379.84 204.09 379.01 204.14C378.18 204.19 377.34 204.2 376.5 204.18C375.66 204.16 374.82 204.09 373.98 203.96C373.14 203.84 372.3 203.68 371.48 203.45C370.66 203.23 369.84 202.94 369.05 202.6L368.46 202.34L367.88 202.05C367.88 202.05 367.86 202.04 367.85 202.03C367.26 203.19 366.68 204.36 366.11 205.52C364.9 207.97 363.75 210.46 362.66 212.96C361.63 215.33 360.65 217.73 359.75 220.15L360.56 220.49C360.89 220.62 361.24 220.73 361.58 220.85C362.26 221.09 362.94 221.34 363.64 221.54L364.69 221.85C365.04 221.95 365.39 222.06 365.75 222.15L367.88 222.7C368.59 222.88 369.32 223.03 370.03 223.2C370.39 223.28 370.75 223.37 371.11 223.45L372.19 223.68C372.91 223.82 373.63 223.99 374.36 224.13C375.81 224.41 377.26 224.7 378.72 224.96C381.64 225.49 384.56 225.99 387.5 226.46C390.43 226.95 393.37 227.4 396.32 227.88C393.33 227.89 390.35 227.74 387.38 227.55C384.4 227.35 381.43 227.06 378.46 226.7C375.49 226.34 372.54 225.87 369.59 225.29C368.85 225.14 368.12 224.99 367.38 224.83L365.18 224.3C364.81 224.22 364.45 224.1 364.09 224L363 223.68C362.27 223.49 361.55 223.22 360.83 222.97C360.47 222.84 360.11 222.72 359.75 222.58L359 222.26C357.38 226.84 356.02 231.52 355.2 236.31C354.73 238.99 354.58 243.57 354.52 250.01C354.46 251.62 354.55 253.23 354.6 254.84L354.64 256.05C354.64 256.29 354.67 256.53 354.69 256.76C354.72 257.03 354.52 257.27 354.25 257.3C353.99 257.33 353.74 257.15 353.7 256.88C353.66 256.63 353.62 256.39 353.59 256.14L353.46 254.92C353.3 253.29 353.35 251.75 353.31 250.12C352.93 243.58 353.36 239.37 353.68 236.61C354.02 233.85 354.96 230.65 355.61 227.95C356.14 225.77 356.77 223.62 357.45 221.49C357.33 221.43 357.21 221.36 357.09 221.29L356.59 221C355.26 220.2 354 219.31 352.82 218.35C350.46 216.41 348.32 214.25 346.37 211.96C344.41 209.67 342.62 207.26 340.95 204.77C340.13 203.52 339.32 202.26 338.57 200.97C338.19 200.32 337.82 199.68 337.46 199.02C337.11 198.36 336.75 197.71 336.43 197.03C338.17 199.45 339.96 201.82 341.83 204.12C343.7 206.42 345.63 208.66 347.66 210.78C347.91 211.05 348.17 211.31 348.43 211.57C348.69 211.83 348.94 212.09 349.21 212.35L350 213.12L350.8 213.87C351.88 214.85 352.98 215.81 354.13 216.69C355.28 217.56 356.47 218.39 357.7 219.09C357.85 219.17 358 219.26 358.16 219.35C358.31 218.9 358.46 218.45 358.62 218.01L359.33 216.06L359.36 216.09Z" fill="#FCFDFF"/>
<path d="M338.35 163.48C333.23 161.05 328.55 163.07 324.26 167.18C324.31 166.95 324.36 166.72 324.41 166.48C327.39 151.7 332.55 126.85 320.67 126.03C313.09 125.51 309.37 134.68 306.89 145.22C302.1 131.15 295.02 113.69 285.74 118.15C276.19 122.74 282.48 140.02 287.26 153.88C279.24 146.68 271.01 141.77 266.31 147.37C258.78 156.35 275.31 171.47 285.51 182.57C286.11 183.23 286.69 183.83 287.25 184.4C279.62 177.79 271.96 173.62 267.5 178.94C260.34 187.48 274.94 201.58 285.16 212.49C275.51 212.85 267.56 215.17 267.69 222.46C267.93 235.2 290.34 235.35 305.34 236.87C314.94 237.84 325.18 232.78 325.6 232.59C339.46 226.51 358.66 216.62 351.77 204.7C347.8 197.84 339.6 198.63 330.72 201.7C338.72 188.76 350.26 169.15 338.33 163.48H338.35Z" fill="url(#paint1_linear_115_153)"/>
<path d="M315.18 217.26C315.06 215.98 314.93 214.69 314.77 213.41C314.46 210.85 314.1 208.3 313.66 205.76C313.44 204.48 313.21 203.2 312.96 201.93C314.22 201.41 315.37 200.68 316.41 199.86C317.65 198.86 318.75 197.73 319.74 196.53C320.72 195.33 321.62 194.07 322.42 192.76C322.83 192.11 323.21 191.45 323.58 190.78C323.95 190.11 324.3 189.44 324.64 188.75C326 186.02 327.15 183.21 328.13 180.35C329.09 177.48 329.95 174.58 330.55 171.63C329.5 174.46 328.39 177.24 327.17 179.98C325.95 182.71 324.65 185.4 323.19 187.98C321.72 190.55 320.12 193.05 318.22 195.25C317.27 196.35 316.25 197.37 315.13 198.24C314.32 198.88 313.45 199.43 312.54 199.84C312.43 199.28 312.31 198.73 312.19 198.17C311.64 195.65 311.07 193.14 310.44 190.65C308.95 184.72 307.24 178.86 305.36 173.06C305.59 172.94 305.83 172.81 306.05 172.68C307.44 171.84 308.66 170.77 309.71 169.57C310.75 168.37 311.64 167.05 312.39 165.68C313.89 162.92 314.94 159.98 315.7 156.99C316.47 154 316.96 150.96 317.28 147.91C317.43 146.38 317.55 144.85 317.6 143.32C317.66 141.79 317.68 140.26 317.61 138.73C317.39 141.78 317.03 144.81 316.53 147.8C316.04 150.8 315.39 153.77 314.53 156.66C313.65 159.54 312.59 162.38 311.11 164.95C310.36 166.23 309.53 167.46 308.55 168.55C307.58 169.64 306.48 170.6 305.24 171.33C305.11 171.4 304.99 171.48 304.86 171.55C303.72 168.08 302.51 164.64 301.26 161.21C300.37 158.8 299.47 156.39 298.53 154.01C297.58 151.62 296.62 149.24 295.63 146.87C293.62 142.14 291.56 137.44 289.28 132.84C291.14 137.62 292.95 142.42 294.68 147.24C295.55 149.65 296.42 152.06 297.25 154.48C298.09 156.9 298.93 159.32 299.73 161.75C300.13 162.96 300.53 164.18 300.92 165.4L302.1 169.05C302.45 170.14 302.79 171.24 303.12 172.33C302.54 172.53 301.94 172.64 301.31 172.66C299.93 172.72 298.5 172.4 297.13 171.9C295.75 171.41 294.42 170.74 293.13 169.98C292.49 169.6 291.85 169.2 291.23 168.78C290.6 168.36 289.99 167.93 289.38 167.49C288.16 166.6 286.98 165.65 285.82 164.68C284.65 163.71 283.52 162.7 282.4 161.67C280.16 159.62 278 157.46 275.89 155.25C277.72 157.7 279.74 160 281.85 162.23C282.91 163.33 284 164.41 285.13 165.46C286.26 166.51 287.43 167.51 288.63 168.47C289.24 168.95 289.85 169.42 290.48 169.87C291.11 170.32 291.76 170.75 292.42 171.16C293.74 171.98 295.13 172.72 296.61 173.3C297.35 173.58 298.12 173.82 298.92 173.98C299.71 174.14 300.54 174.24 301.37 174.21C301.79 174.19 302.21 174.15 302.62 174.07C302.94 174.01 303.26 173.92 303.56 173.82C303.82 174.67 304.08 175.52 304.33 176.38C305.05 178.83 305.77 181.29 306.44 183.75C307.13 186.21 307.77 188.68 308.39 191.16C309.02 193.63 309.6 196.12 310.15 198.61C310.29 199.24 310.43 199.87 310.56 200.5C310.54 200.5 310.53 200.5 310.51 200.51L309.99 200.61L309.47 200.69C308.77 200.79 308.07 200.84 307.36 200.85C305.95 200.86 304.52 200.69 303.12 200.39C300.3 199.78 297.58 198.63 294.98 197.24C292.38 195.85 289.9 194.19 287.51 192.4C286.31 191.51 285.15 190.57 284 189.6C283.43 189.12 282.86 188.62 282.3 188.12C281.74 187.62 281.18 187.11 280.64 186.59C281.56 187.78 282.57 188.91 283.61 190.01C284.65 191.11 285.74 192.15 286.87 193.17C289.13 195.19 291.55 197.05 294.17 198.64C295.48 199.43 296.84 200.16 298.26 200.78C298.97 201.09 299.69 201.38 300.42 201.63C301.16 201.88 301.91 202.1 302.67 202.29C303.43 202.48 304.2 202.63 304.99 202.73C305.77 202.83 306.56 202.89 307.36 202.9C308.16 202.9 308.96 202.85 309.75 202.74L310.34 202.65L310.93 202.53C310.93 202.53 310.95 202.53 310.96 202.53C311.2 203.72 311.43 204.91 311.65 206.1C312.13 208.6 312.54 211.12 312.89 213.64C313.22 216.03 313.5 218.42 313.71 220.82L312.9 220.93C312.57 220.96 312.23 220.98 311.89 221C311.22 221.04 310.55 221.11 309.87 221.1L308.85 221.12C308.51 221.12 308.17 221.14 307.83 221.12L305.78 221.09C305.1 221.07 304.41 221.03 303.72 221C303.38 220.98 303.03 220.98 302.69 220.95L301.66 220.88C300.97 220.83 300.29 220.8 299.6 220.74C298.23 220.63 296.85 220.53 295.48 220.39C292.73 220.14 289.98 219.86 287.22 219.55C284.46 219.26 281.71 218.93 278.95 218.62C281.63 219.38 284.34 219.98 287.06 220.56C289.78 221.13 292.53 221.61 295.28 222.02C298.03 222.44 300.81 222.75 303.6 222.96C304.3 223.01 305 223.06 305.7 223.09L307.81 223.16C308.16 223.18 308.51 223.16 308.87 223.16H309.93C310.63 223.16 311.35 223.1 312.06 223.05C312.42 223.02 312.77 223.01 313.13 222.97L313.88 222.87C314.19 227.39 314.25 231.93 313.78 236.44C313.53 238.97 312.53 243.12 310.98 248.92C310.63 250.38 310.15 251.8 309.7 253.24L309.36 254.32C309.29 254.53 309.21 254.74 309.13 254.95C309.04 255.19 309.16 255.45 309.39 255.55C309.62 255.64 309.88 255.54 309.99 255.31C310.09 255.1 310.19 254.89 310.27 254.67L310.69 253.61C311.24 252.19 311.58 250.79 312.03 249.34C314 243.56 314.66 239.67 315.07 237.11C315.46 234.55 315.4 231.44 315.5 228.85C315.57 226.76 315.54 224.67 315.46 222.59C315.58 222.56 315.71 222.53 315.83 222.5L316.36 222.36C317.75 221.98 319.1 221.49 320.41 220.92C323.02 219.77 325.47 218.36 327.8 216.79C330.13 215.22 332.34 213.51 334.46 211.68C335.51 210.76 336.55 209.83 337.55 208.86C338.05 208.37 338.54 207.88 339.03 207.39C339.51 206.89 339.99 206.39 340.45 205.86C338.28 207.6 336.08 209.28 333.83 210.88C331.58 212.48 329.29 214.01 326.93 215.41C326.64 215.59 326.34 215.76 326.04 215.93C325.74 216.1 325.45 216.27 325.15 216.43L324.25 216.92L323.34 217.39C322.12 218 320.9 218.58 319.65 219.09C318.4 219.59 317.13 220.03 315.84 220.36C315.68 220.4 315.52 220.44 315.37 220.48C315.35 220.04 315.32 219.6 315.29 219.16L315.14 217.23L315.18 217.26Z" fill="#FCFDFF"/>
<path d="M57.1 184.65C52.61 184.75 50.01 187.84 48.44 192.28C48.39 192.1 48.3501 191.92 48.3001 191.73C45.1501 180.2 39.9801 160.77 31.2701 164.41C25.7201 166.73 26.34 174.55 28.33 182.9C19.93 174.64 8.72005 164.79 3.73005 171.24C-1.39995 177.89 9.20008 187.89 17.5101 196C9.27008 193.75 1.69005 193.2 0.360054 198.83C-1.77995 207.87 15.3 212.7 26.47 216.94C27.13 217.19 27.76 217.42 28.35 217.62C20.6 215.65 13.6901 215.42 12.4201 220.77C10.3801 229.37 25.7401 234.16 36.8601 238.25C30.1501 241.94 25.3501 246.4 28.0401 251.52C32.7401 260.46 48.66 252.6 59.83 248.34C66.98 245.61 72.4301 238.39 72.6601 238.11C80.3201 228.88 90.4001 215.04 81.2801 209.05C76.0301 205.6 70.5101 209.08 65.3101 214.41C66.3701 202.4 67.5801 184.41 57.1101 184.64L57.1 184.65Z" fill="url(#paint2_linear_115_153)"/>
<path d="M59.8199 230.98C59.2799 230.11 58.73 229.25 58.16 228.4C57.03 226.7 55.87 225.02 54.66 223.37C54.05 222.54 53.4301 221.72 52.8101 220.9C53.5201 220.08 54.07 219.16 54.52 218.21C55.05 217.06 55.4199 215.87 55.6899 214.67C55.9599 213.47 56.14 212.26 56.25 211.05C56.31 210.44 56.34 209.84 56.37 209.23C56.39 208.62 56.4 208.02 56.4 207.42C56.4 205.01 56.21 202.61 55.88 200.23C55.54 197.86 55.12 195.5 54.49 193.19C54.75 195.56 54.9601 197.93 55.0601 200.3C55.1701 202.67 55.2 205.04 55.08 207.38C54.96 209.73 54.71 212.06 54.14 214.3C53.86 215.42 53.5 216.5 53.02 217.51C52.67 218.25 52.25 218.95 51.76 219.57C51.48 219.22 51.2 218.86 50.92 218.51C49.64 216.92 48.34 215.35 47.01 213.81C43.85 210.14 40.55 206.6 37.16 203.16C37.28 202.99 37.4 202.82 37.51 202.64C38.19 201.55 38.68 200.36 39 199.14C39.31 197.92 39.47 196.67 39.51 195.43C39.59 192.94 39.29 190.49 38.76 188.1C38.24 185.71 37.51 183.38 36.65 181.1C36.21 179.97 35.75 178.84 35.25 177.74C34.75 176.64 34.22 175.54 33.63 174.49C34.56 176.73 35.38 179 36.09 181.3C36.81 183.6 37.4 185.93 37.83 188.29C38.24 190.64 38.49 193.03 38.35 195.38C38.28 196.55 38.1199 197.72 37.8199 198.84C37.5199 199.96 37.08 201.03 36.47 201.99C36.41 202.09 36.34 202.18 36.28 202.28C34.24 200.23 32.16 198.22 30.05 196.24C28.56 194.85 27.07 193.46 25.55 192.11C24.03 190.76 22.5 189.41 20.96 188.09C17.86 185.46 14.73 182.86 11.48 180.41C14.5 183.13 17.48 185.89 20.42 188.69C21.89 190.08 23.3601 191.49 24.8101 192.9C26.2601 194.32 27.72 195.73 29.15 197.16C29.87 197.88 30.58 198.6 31.29 199.32L33.42 201.49C34.05 202.14 34.6901 202.8 35.3101 203.45C34.9701 203.8 34.58 204.09 34.15 204.33C33.19 204.86 32.06 205.14 30.92 205.28C29.77 205.42 28.59 205.42 27.4 205.34C26.81 205.3 26.22 205.24 25.63 205.17C25.04 205.1 24.45 205.01 23.86 204.92C22.68 204.73 21.51 204.47 20.34 204.2C19.17 203.93 18.01 203.62 16.85 203.28C14.53 202.62 12.24 201.87 9.95996 201.04C12.13 202.12 14.38 203.04 16.66 203.86C17.81 204.26 18.96 204.64 20.13 204.98C21.3 205.32 22.4801 205.61 23.6801 205.87C24.2801 205.99 24.88 206.11 25.49 206.2C26.1 206.29 26.7099 206.37 27.3199 206.42C28.5499 206.53 29.8 206.56 31.05 206.44C31.68 206.38 32.3101 206.27 32.9301 206.1C33.5501 205.93 34.17 205.71 34.75 205.39C35.04 205.23 35.32 205.05 35.59 204.84C35.79 204.69 35.99 204.51 36.17 204.33C36.66 204.84 37.14 205.35 37.63 205.87C39.01 207.35 40.39 208.83 41.75 210.34C43.11 211.84 44.45 213.36 45.77 214.89C47.1 216.42 48.39 217.97 49.67 219.54C49.99 219.94 50.32 220.33 50.64 220.73C50.63 220.73 50.62 220.75 50.61 220.76L50.28 221.02L49.9399 221.26C49.4799 221.58 49 221.86 48.5 222.12C47.5 222.63 46.43 223.01 45.33 223.3C43.12 223.87 40.78 224.03 38.45 223.97C36.11 223.91 33.7699 223.62 31.4399 223.2C30.2699 223 29.12 222.74 27.96 222.47C27.38 222.33 26.81 222.18 26.23 222.03C25.65 221.88 25.08 221.71 24.51 221.54C25.59 222.06 26.7 222.5 27.83 222.9C28.96 223.31 30.1 223.66 31.26 223.98C33.58 224.61 35.96 225.06 38.38 225.26C39.59 225.35 40.81 225.38 42.04 225.32C42.65 225.29 43.26 225.24 43.88 225.15C44.49 225.07 45.1 224.96 45.71 224.82C46.32 224.69 46.92 224.51 47.51 224.3C48.1 224.09 48.68 223.86 49.25 223.57C49.82 223.29 50.36 222.97 50.89 222.61L51.28 222.33L51.66 222.04C51.66 222.04 51.6701 222.03 51.6801 222.02C52.2701 222.78 52.8599 223.54 53.4399 224.3C54.6699 225.9 55.85 227.54 57 229.2C58.08 230.77 59.13 232.37 60.14 233.99L59.6 234.35C59.38 234.49 59.14 234.62 58.91 234.76C58.45 235.03 58 235.31 57.51 235.55L56.79 235.92C56.55 236.04 56.3099 236.17 56.0699 236.29L54.6 237C54.11 237.23 53.61 237.44 53.11 237.67C52.86 237.78 52.62 237.9 52.36 238L51.61 238.32C51.11 238.53 50.61 238.75 50.1 238.96C49.09 239.37 48.0801 239.79 47.0601 240.18C45.0201 240.98 42.97 241.76 40.91 242.52C38.85 243.29 36.79 244.04 34.72 244.81C36.89 244.39 39.02 243.86 41.16 243.3C43.29 242.73 45.4 242.1 47.5 241.41C49.6 240.73 51.68 239.96 53.73 239.12C54.24 238.91 54.75 238.69 55.26 238.47L56.78 237.77C57.03 237.66 57.28 237.52 57.53 237.4L58.28 237.02C58.78 236.77 59.27 236.48 59.75 236.2C59.99 236.05 60.24 235.92 60.48 235.76L60.98 235.42C62.81 238.51 64.46 241.71 65.74 245.06C66.46 246.94 67.2299 250.23 68.1899 254.89C68.4699 256.05 68.6299 257.23 68.8199 258.4L68.96 259.28C68.99 259.45 69.01 259.63 69.02 259.81C69.04 260.01 69.22 260.16 69.42 260.14C69.62 260.12 69.76 259.96 69.76 259.76C69.76 259.58 69.75 259.39 69.73 259.21L69.65 258.31C69.54 257.11 69.28 256 69.08 254.81C68.42 250.02 67.51 247.02 66.88 245.07C66.24 243.12 65.1 240.93 64.25 239.07C63.56 237.57 62.79 236.1 61.99 234.65C62.07 234.59 62.14 234.52 62.22 234.45L62.54 234.17C63.39 233.4 64.17 232.58 64.9 231.71C66.34 229.97 67.57 228.1 68.66 226.16C69.75 224.22 70.7101 222.22 71.5601 220.18C71.9801 219.16 72.38 218.13 72.74 217.08C72.92 216.56 73.1 216.04 73.27 215.51C73.43 214.98 73.6 214.46 73.73 213.92C72.81 215.92 71.86 217.9 70.83 219.83C69.8 221.76 68.73 223.66 67.55 225.49C67.41 225.72 67.26 225.95 67.11 226.17C66.96 226.4 66.81 226.62 66.66 226.84L66.2 227.51L65.73 228.17C65.09 229.04 64.42 229.88 63.72 230.69C63.01 231.49 62.27 232.25 61.47 232.94C61.37 233.02 61.2701 233.11 61.1801 233.19C61.0101 232.89 60.83 232.58 60.65 232.28L59.86 230.96L59.8199 230.98Z" fill="#FCFDFF"/>
<path d="M78.51 216.47C71.64 215.52 65.5799 216.11 63.6899 221.65C60.3999 231.27 75.72 235.7 86.64 238.13C86.97 238.2 95.1099 240.41 101.94 238.34C112.6 235.1 128.82 231.8 127.17 222.53C126.23 217.23 120.14 216.68 113.09 217.8C118.94 208.43 127.51 196.14 121.1 190.97C117.11 187.75 112.15 191.87 107.56 197.75C107.88 197.26 108.21 196.74 108.56 196.17C114.37 186.67 124.19 173.35 117.45 167.92C113.25 164.53 107.98 169.27 103.2 175.63C104.69 164.91 106.79 151.49 99.2099 149.52C91.8499 147.61 89.21 161.28 87.75 172.16C84.44 164.88 80.44 158.76 75.02 160.22C66.53 162.51 73.8199 179.78 78.0799 190.06C78.1499 190.23 78.22 190.38 78.29 190.54C74.59 188.17 70.91 187.37 67.55 189.87C59.71 195.68 70.87 208.24 78.52 216.48L78.51 216.47Z" fill="url(#paint3_linear_115_153)"/>
<path d="M92 225.53C91.91 224.58 91.81 223.63 91.75 222.68C91.61 220.78 91.51 218.88 91.46 216.98C91.44 216.02 91.42 215.06 91.42 214.1C90.43 213.9 89.49 213.54 88.62 213.09C87.58 212.54 86.62 211.88 85.73 211.15C84.85 210.42 84.02 209.63 83.25 208.8C82.86 208.39 82.49 207.96 82.12 207.53C81.76 207.1 81.4001 206.66 81.0601 206.21C79.6901 204.43 78.45 202.55 77.33 200.62C76.22 198.68 75.19 196.7 74.33 194.64C75.49 196.54 76.69 198.4 77.97 200.21C79.24 202.02 80.57 203.78 82 205.44C83.43 207.1 84.95 208.68 86.64 210C87.48 210.66 88.37 211.26 89.3 211.73C89.98 212.08 90.69 212.35 91.41 212.52C91.41 212.1 91.41 211.68 91.42 211.26C91.46 209.36 91.52 207.46 91.62 205.56C91.85 201.05 92.26 196.56 92.79 192.09C92.6 192.03 92.42 191.98 92.23 191.91C91.11 191.5 90.06 190.9 89.14 190.18C88.21 189.46 87.38 188.63 86.64 187.74C85.16 185.96 83.98 183.97 83 181.91C82.01 179.85 81.2201 177.72 80.5601 175.55C80.2301 174.46 79.93 173.37 79.67 172.27C79.41 171.17 79.18 170.06 79.01 168.95C79.6 171.13 80.3 173.27 81.09 175.37C81.88 177.47 82.77 179.53 83.8 181.51C84.85 183.48 86.02 185.38 87.46 187.03C88.18 187.85 88.9599 188.62 89.8199 189.27C90.6799 189.92 91.62 190.46 92.61 190.82C92.71 190.86 92.82 190.89 92.92 190.92C93.25 188.24 93.6401 185.58 94.0601 182.92C94.3601 181.05 94.67 179.18 95.01 177.31C95.36 175.45 95.71 173.58 96.09 171.73C96.87 168.02 97.6899 164.32 98.6899 160.66C98.0199 164.39 97.4 168.12 96.83 171.86C96.54 173.73 96.26 175.6 96 177.47C95.74 179.34 95.48 181.21 95.24 183.09C95.12 184.03 95 184.96 94.9 185.9L94.5699 188.71C94.4699 189.55 94.38 190.39 94.3 191.24C94.75 191.3 95.2 191.29 95.66 191.22C96.67 191.07 97.66 190.63 98.58 190.07C99.51 189.52 100.38 188.84 101.2 188.11C101.61 187.74 102.02 187.36 102.41 186.97C102.8 186.58 103.19 186.18 103.57 185.77C104.33 184.95 105.05 184.1 105.75 183.23C106.46 182.36 107.14 181.47 107.8 180.56C109.13 178.75 110.39 176.88 111.6 174.98C110.62 177.02 109.48 178.97 108.28 180.89C107.67 181.84 107.03 182.78 106.36 183.7C105.69 184.62 104.99 185.51 104.25 186.38C103.88 186.81 103.5 187.24 103.11 187.66C102.72 188.07 102.31 188.48 101.89 188.87C101.05 189.65 100.15 190.39 99.16 191.02C98.66 191.33 98.14 191.61 97.59 191.84C97.04 192.07 96.45 192.26 95.84 192.35C95.54 192.4 95.22 192.43 94.91 192.43C94.67 192.43 94.4299 192.42 94.1899 192.39C94.1199 193.04 94.06 193.7 94 194.35C93.82 196.23 93.66 198.11 93.52 199.99C93.37 201.87 93.26 203.75 93.16 205.64C93.06 207.52 92.99 209.41 92.95 211.29C92.94 211.77 92.93 212.24 92.92 212.72C92.93 212.72 92.94 212.72 92.96 212.72H93.35L93.74 212.71C94.26 212.68 94.77 212.62 95.29 212.52C96.32 212.33 97.32 212 98.3 211.58C100.25 210.73 102.06 209.52 103.75 208.14C105.44 206.76 107 205.21 108.47 203.57C109.21 202.75 109.92 201.9 110.61 201.04C110.96 200.61 111.3 200.17 111.63 199.73C111.97 199.29 112.29 198.84 112.62 198.39C112.12 199.39 111.55 200.35 110.95 201.29C110.35 202.23 109.71 203.15 109.04 204.05C107.69 205.84 106.2 207.53 104.53 209.06C103.69 209.82 102.81 210.54 101.87 211.19C101.4 211.51 100.92 211.83 100.42 212.12C99.92 212.41 99.41 212.67 98.89 212.92C98.37 213.17 97.83 213.38 97.27 213.57C96.72 213.75 96.15 213.91 95.58 214.03C95 214.15 94.42 214.22 93.83 214.26L93.39 214.28H92.95H92.9301C92.9301 215.18 92.9301 216.07 92.9301 216.97C92.9401 218.85 93 220.73 93.11 222.61C93.21 224.39 93.35 226.16 93.54 227.93L94.14 227.89C94.38 227.87 94.63 227.83 94.88 227.8C95.37 227.74 95.87 227.69 96.36 227.59L97.1 227.46C97.35 227.41 97.59 227.38 97.84 227.32L99.3199 227C99.8099 226.89 100.3 226.76 100.8 226.64C101.05 226.58 101.29 226.52 101.54 226.46L102.28 226.26C102.77 226.13 103.26 226.01 103.75 225.87C104.73 225.59 105.71 225.32 106.69 225.03C108.65 224.46 110.6 223.86 112.55 223.24C114.51 222.64 116.45 222 118.41 221.39C116.58 222.32 114.7 223.15 112.81 223.95C110.92 224.75 109 225.49 107.06 226.18C105.12 226.88 103.16 227.5 101.17 228.05C100.67 228.18 100.17 228.32 99.67 228.45L98.15 228.8C97.9 228.86 97.64 228.9 97.38 228.95L96.61 229.09C96.1 229.2 95.58 229.26 95.05 229.32C94.79 229.35 94.53 229.39 94.26 229.41L93.7 229.44C94.12 232.76 94.73 236.06 95.71 239.26C96.25 241.06 97.57 243.92 99.52 247.9C99.98 248.91 100.53 249.87 101.06 250.85L101.46 251.58C101.54 251.72 101.63 251.86 101.71 252C101.81 252.16 101.76 252.37 101.61 252.47C101.46 252.57 101.25 252.53 101.14 252.38C101.04 252.24 100.94 252.1 100.84 251.96L100.39 251.25C99.79 250.3 99.3501 249.33 98.8101 248.34C96.5601 244.44 95.52 241.71 94.87 239.91C94.23 238.11 93.82 235.85 93.38 233.99C93.03 232.49 92.76 230.97 92.52 229.45C92.43 229.45 92.33 229.45 92.24 229.44L91.84 229.42C90.78 229.34 89.73 229.18 88.7 228.96C86.65 228.5 84.67 227.83 82.76 227.02C80.85 226.22 79 225.29 77.21 224.27C76.32 223.75 75.4299 223.23 74.5699 222.67C74.1399 222.39 73.71 222.11 73.29 221.81C72.87 221.51 72.45 221.22 72.04 220.91C73.86 221.86 75.69 222.77 77.55 223.6C79.41 224.44 81.29 225.22 83.2 225.9C83.44 225.99 83.68 226.07 83.92 226.15C84.16 226.23 84.4 226.31 84.64 226.39L85.36 226.62L86.08 226.83C87.05 227.1 88.02 227.35 89 227.54C89.98 227.72 90.9599 227.86 91.9399 227.91C92.0599 227.91 92.18 227.92 92.3 227.93C92.25 227.61 92.21 227.29 92.17 226.96L92 225.54V225.53Z" fill="#FCFDFF"/>
<path d="M165.999 177.43C161.749 175.97 158.249 177.99 155.239 181.61C155.259 181.42 155.28 181.24 155.29 181.05C156.31 169.14 158.139 149.12 148.719 149.54C142.709 149.81 140.599 157.36 139.589 165.88C134.549 155.23 127.419 142.12 120.509 146.46C113.399 150.93 119.91 163.97 124.91 174.45C117.95 169.5 111.029 166.37 107.829 171.2C102.709 178.95 117.079 189.37 126.109 197.2C126.639 197.66 127.149 198.09 127.639 198.49C121.039 193.97 114.629 191.37 111.599 195.96C106.729 203.33 119.489 213.12 128.519 220.79C120.949 221.94 114.9 224.48 115.66 230.21C116.99 240.22 134.649 238.32 146.599 238.17C154.249 238.07 161.85 233.17 162.17 232.98C172.54 226.95 186.77 217.44 180.28 208.67C176.54 203.62 170.159 204.99 163.439 208.2C168.569 197.29 175.899 180.82 165.999 177.43V177.43Z" fill="url(#paint4_linear_115_153)"/>
<path d="M152.579 221.85C152.369 220.85 152.149 219.85 151.909 218.86C151.439 216.87 150.919 214.89 150.349 212.93C150.059 211.94 149.769 210.96 149.459 209.97C150.409 209.45 151.249 208.77 151.989 208.03C152.879 207.13 153.639 206.14 154.309 205.11C154.979 204.07 155.569 203 156.079 201.9C156.339 201.35 156.589 200.8 156.819 200.24C157.049 199.68 157.269 199.12 157.479 198.55C158.309 196.28 158.959 193.96 159.469 191.62C159.969 189.28 160.389 186.92 160.589 184.53C160.019 186.85 159.399 189.14 158.679 191.4C157.969 193.66 157.179 195.89 156.259 198.06C155.339 200.22 154.289 202.33 152.999 204.23C152.349 205.18 151.639 206.08 150.839 206.86C150.259 207.43 149.619 207.94 148.939 208.35C148.799 207.92 148.659 207.49 148.519 207.07C147.859 205.14 147.189 203.21 146.469 201.31C144.769 196.78 142.889 192.32 140.889 187.91C141.059 187.79 141.229 187.67 141.399 187.55C142.419 186.77 143.289 185.81 143.999 184.78C144.709 183.74 145.299 182.62 145.759 181.47C146.689 179.16 147.249 176.75 147.579 174.33C147.919 171.91 148.029 169.47 148.009 167.04C147.989 165.82 147.949 164.61 147.849 163.4C147.759 162.19 147.639 160.98 147.449 159.79C147.549 162.21 147.539 164.63 147.409 167.03C147.289 169.44 147.039 171.83 146.629 174.19C146.199 176.54 145.619 178.87 144.679 181.03C144.209 182.11 143.659 183.15 142.989 184.09C142.319 185.03 141.539 185.89 140.639 186.58C140.549 186.65 140.449 186.72 140.359 186.78C139.149 184.15 137.889 181.55 136.589 178.97C135.669 177.15 134.749 175.34 133.789 173.54C132.829 171.75 131.859 169.96 130.869 168.18C128.869 164.64 126.819 161.12 124.609 157.71C126.499 161.31 128.359 164.92 130.159 168.56C131.059 170.38 131.959 172.2 132.829 174.03C133.699 175.86 134.579 177.69 135.429 179.53C135.859 180.45 136.279 181.37 136.699 182.29L137.959 185.06C138.329 185.89 138.699 186.72 139.059 187.55C138.619 187.76 138.159 187.9 137.669 187.97C136.589 188.14 135.429 188.01 134.309 187.75C133.179 187.49 132.069 187.08 130.989 186.6C130.449 186.36 129.909 186.1 129.379 185.83C128.849 185.56 128.319 185.28 127.799 184.98C126.759 184.39 125.739 183.75 124.739 183.09C123.739 182.43 122.749 181.74 121.779 181.03C119.829 179.61 117.929 178.11 116.079 176.56C117.739 178.32 119.539 179.96 121.399 181.52C122.339 182.29 123.289 183.05 124.269 183.77C125.249 184.49 126.259 185.18 127.299 185.83C127.819 186.15 128.349 186.47 128.879 186.77C129.419 187.07 129.969 187.35 130.519 187.61C131.639 188.14 132.789 188.6 134.009 188.92C134.619 189.08 135.249 189.19 135.889 189.25C136.529 189.31 137.189 189.31 137.839 189.21C138.169 189.16 138.489 189.09 138.819 188.99C139.059 188.91 139.309 188.82 139.539 188.71C139.819 189.36 140.099 190.01 140.379 190.65C141.169 192.51 141.949 194.38 142.699 196.26C143.459 198.14 144.189 200.02 144.899 201.92C145.619 203.81 146.299 205.72 146.949 207.63C147.119 208.11 147.279 208.6 147.449 209.08C147.439 209.08 147.429 209.08 147.409 209.09L147.009 209.22L146.609 209.33C146.069 209.47 145.519 209.57 144.969 209.64C143.859 209.78 142.719 209.77 141.589 209.66C139.319 209.43 137.069 208.77 134.899 207.91C132.729 207.05 130.629 205.97 128.589 204.77C127.569 204.18 126.569 203.54 125.579 202.88C125.079 202.55 124.599 202.21 124.109 201.87C123.619 201.53 123.139 201.18 122.669 200.82C123.499 201.68 124.399 202.47 125.319 203.24C126.239 204.01 127.189 204.74 128.169 205.44C130.129 206.83 132.209 208.08 134.409 209.09C135.509 209.59 136.649 210.04 137.819 210.4C138.409 210.58 138.999 210.74 139.599 210.88C140.199 211.01 140.809 211.12 141.429 211.2C142.049 211.28 142.669 211.33 143.289 211.34C143.919 211.34 144.539 211.33 145.169 211.26C145.799 211.19 146.419 211.08 147.039 210.92L147.499 210.8L147.949 210.66H147.969C148.259 211.57 148.549 212.49 148.839 213.41C149.439 215.34 149.989 217.28 150.489 219.24C150.959 221.09 151.399 222.95 151.779 224.82L151.149 224.98C150.889 225.03 150.629 225.08 150.359 225.12C149.829 225.22 149.309 225.32 148.769 225.38L147.969 225.49C147.699 225.52 147.439 225.56 147.169 225.59L145.549 225.75C145.009 225.8 144.469 225.82 143.919 225.87C143.649 225.89 143.379 225.91 143.109 225.93L142.289 225.97C141.749 225.99 141.199 226.03 140.659 226.05C139.569 226.09 138.479 226.13 137.379 226.15C135.189 226.2 132.999 226.22 130.799 226.23C128.599 226.25 126.409 226.23 124.199 226.24C126.379 226.6 128.569 226.83 130.759 227.04C132.959 227.24 135.159 227.37 137.359 227.45C139.569 227.53 141.779 227.53 143.989 227.45C144.539 227.43 145.099 227.4 145.649 227.37L147.309 227.24C147.589 227.22 147.869 227.18 148.139 227.15L148.969 227.05C149.529 226.99 150.079 226.88 150.639 226.78C150.919 226.73 151.189 226.68 151.469 226.62L152.049 226.47C152.699 230 153.149 233.57 153.189 237.16C153.219 239.17 152.799 242.53 152.099 247.24C151.959 248.42 151.699 249.59 151.479 250.76L151.309 251.64C151.279 251.81 151.229 251.98 151.189 252.16C151.139 252.36 151.259 252.55 151.449 252.61C151.639 252.66 151.839 252.56 151.899 252.37C151.959 252.19 152.019 252.02 152.059 251.84L152.289 250.97C152.599 249.8 152.729 248.67 152.959 247.49C153.989 242.77 154.169 239.64 154.249 237.59C154.319 235.54 153.999 233.09 153.839 231.05C153.709 229.4 153.499 227.76 153.249 226.12C153.349 226.09 153.439 226.05 153.529 226.02L153.929 225.87C154.989 225.44 156.009 224.94 156.989 224.38C158.939 223.24 160.739 221.91 162.439 220.47C164.129 219.03 165.719 217.48 167.219 215.85C167.959 215.03 168.699 214.21 169.399 213.35C169.749 212.92 170.099 212.49 170.429 212.06C170.759 211.62 171.099 211.18 171.409 210.73C169.859 212.29 168.279 213.82 166.649 215.28C165.019 216.74 163.359 218.15 161.619 219.46C161.409 219.63 161.189 219.79 160.969 219.95C160.749 220.11 160.529 220.27 160.309 220.43L159.649 220.9L158.979 221.35C158.079 221.94 157.159 222.51 156.219 223.02C155.279 223.52 154.319 223.99 153.329 224.36C153.209 224.4 153.089 224.45 152.969 224.49C152.909 224.15 152.849 223.8 152.789 223.46L152.499 221.95L152.579 221.85Z" fill="#FCFDFF"/>
<path d="M175.129 214.67C169.009 211.41 163.119 209.88 159.429 214.42C153.019 222.32 165.889 231.76 175.289 237.79C175.579 237.98 182.459 242.85 189.579 243.26C200.699 243.89 217.069 246.38 218.709 237.11C219.649 231.81 214.119 229.2 207.119 227.81C215.839 221.03 228.119 212.44 223.889 205.38C221.249 200.98 215.179 203.14 208.849 207.08C209.319 206.73 209.809 206.35 210.329 205.95C219.059 199.03 232.859 189.92 228.409 182.49C225.629 177.86 219.059 180.49 212.379 184.82C217.469 175.26 224.059 163.39 217.629 158.94C211.379 154.61 204.189 166.53 199.069 176.24C198.479 168.26 196.819 161.14 191.239 160.65C182.479 159.87 183.369 178.59 183.829 189.72C183.829 189.9 183.849 190.07 183.859 190.25C181.209 186.75 178.029 184.74 174.009 185.92C164.649 188.67 170.799 204.31 175.139 214.68L175.129 214.67Z" fill="url(#paint5_linear_115_153)"/>
<path d="M184.669 227.82C184.909 226.9 185.149 225.98 185.409 225.06C185.929 223.23 186.489 221.41 187.099 219.6C187.409 218.69 187.719 217.79 188.049 216.88C187.189 216.35 186.429 215.69 185.769 214.97C184.979 214.1 184.309 213.15 183.729 212.16C183.149 211.17 182.649 210.15 182.209 209.1C181.989 208.58 181.779 208.05 181.589 207.52C181.399 206.99 181.219 206.46 181.049 205.92C180.369 203.77 179.859 201.59 179.479 199.39C179.109 197.19 178.819 194.97 178.729 192.75C179.169 194.93 179.649 197.09 180.229 199.23C180.799 201.36 181.439 203.48 182.209 205.53C182.979 207.58 183.869 209.58 184.999 211.41C185.559 212.32 186.189 213.18 186.909 213.95C187.429 214.51 187.999 215.01 188.609 215.42C188.759 215.03 188.909 214.63 189.059 214.24C189.749 212.47 190.459 210.7 191.209 208.96C192.979 204.81 194.909 200.73 196.949 196.71C196.789 196.59 196.639 196.47 196.489 196.35C195.579 195.58 194.799 194.66 194.179 193.66C193.559 192.66 193.059 191.6 192.669 190.51C191.899 188.33 191.469 186.06 191.259 183.79C191.039 181.52 191.039 179.24 191.159 176.98C191.229 175.85 191.319 174.72 191.459 173.6C191.599 172.48 191.759 171.36 191.979 170.25C191.789 172.5 191.699 174.75 191.719 176.99C191.729 179.23 191.859 181.47 192.149 183.69C192.449 185.9 192.899 188.09 193.689 190.14C194.089 191.16 194.549 192.15 195.139 193.06C195.719 193.97 196.419 194.79 197.229 195.47C197.309 195.54 197.399 195.61 197.479 195.67C198.719 193.27 199.989 190.9 201.309 188.55C202.239 186.9 203.169 185.24 204.139 183.61C205.109 181.98 206.079 180.35 207.079 178.74C209.089 175.52 211.139 172.33 213.339 169.24C211.429 172.51 209.559 175.8 207.729 179.12C206.809 180.77 205.909 182.43 205.019 184.1C204.129 185.77 203.239 187.43 202.369 189.11C201.929 189.95 201.499 190.79 201.079 191.63L199.799 194.16C199.419 194.92 199.049 195.68 198.669 196.44C199.069 196.65 199.499 196.8 199.949 196.89C200.949 197.09 202.029 197.02 203.089 196.82C204.149 196.62 205.199 196.28 206.229 195.88C206.739 195.68 207.249 195.46 207.759 195.23C208.259 195 208.769 194.76 209.259 194.5C210.249 193.99 211.219 193.44 212.189 192.86C213.149 192.29 214.099 191.69 215.029 191.06C216.899 189.82 218.729 188.5 220.519 187.13C218.899 188.7 217.159 190.15 215.359 191.53C214.459 192.21 213.539 192.87 212.589 193.51C211.649 194.14 210.679 194.74 209.689 195.3C209.189 195.58 208.689 195.85 208.179 196.11C207.669 196.36 207.149 196.6 206.619 196.83C205.559 197.27 204.459 197.66 203.309 197.9C202.739 198.02 202.149 198.1 201.549 198.13C200.949 198.16 200.339 198.13 199.729 198.01C199.429 197.95 199.129 197.87 198.829 197.76C198.609 197.68 198.379 197.58 198.169 197.47C197.879 198.06 197.589 198.65 197.309 199.25C196.499 200.95 195.689 202.66 194.919 204.38C194.129 206.1 193.379 207.82 192.639 209.56C191.889 211.29 191.179 213.04 190.489 214.79C190.309 215.23 190.139 215.68 189.969 216.12C189.979 216.12 189.989 216.12 189.999 216.13L190.359 216.27L190.729 216.39C191.229 216.54 191.729 216.66 192.249 216.75C193.279 216.92 194.339 216.96 195.399 216.9C197.519 216.78 199.649 216.26 201.699 215.55C203.759 214.84 205.759 213.92 207.709 212.89C208.689 212.38 209.639 211.82 210.589 211.26C211.059 210.98 211.529 210.68 211.999 210.38C212.469 210.08 212.929 209.77 213.389 209.46C212.579 210.22 211.709 210.93 210.829 211.61C209.939 212.29 209.019 212.93 208.089 213.54C206.209 214.75 204.219 215.83 202.129 216.68C201.079 217.1 200.009 217.48 198.899 217.76C198.349 217.9 197.789 218.03 197.219 218.13C196.649 218.23 196.079 218.3 195.509 218.35C194.929 218.4 194.349 218.42 193.769 218.4C193.189 218.38 192.599 218.34 192.019 218.25C191.439 218.16 190.859 218.03 190.299 217.86L189.879 217.73L189.459 217.58C189.459 217.58 189.449 217.58 189.439 217.58C189.129 218.42 188.819 219.26 188.519 220.11C187.879 221.88 187.289 223.67 186.739 225.47C186.219 227.17 185.739 228.89 185.309 230.61L185.889 230.78C186.129 230.84 186.369 230.89 186.619 230.95C187.109 231.06 187.589 231.18 188.089 231.26L188.829 231.39C189.079 231.43 189.319 231.48 189.569 231.51L191.069 231.72C191.569 231.79 192.079 231.83 192.579 231.89C192.829 231.92 193.079 231.95 193.339 231.98L194.099 232.05C194.609 232.09 195.109 232.15 195.619 232.19C196.629 232.27 197.649 232.35 198.669 232.41C200.709 232.55 202.749 232.66 204.789 232.75C206.829 232.86 208.879 232.93 210.929 233.03C208.889 233.27 206.839 233.4 204.789 233.5C202.739 233.6 200.679 233.63 198.619 233.61C196.559 233.6 194.499 233.5 192.439 233.34C191.919 233.29 191.409 233.25 190.889 233.19L189.349 233C189.089 232.97 188.839 232.92 188.579 232.88L187.809 232.75C187.299 232.67 186.779 232.55 186.269 232.43C186.009 232.37 185.759 232.32 185.499 232.25L184.959 232.09C184.209 235.35 183.639 238.66 183.459 242C183.349 243.87 183.599 247.01 184.059 251.43C184.139 252.54 184.329 253.63 184.489 254.73L184.609 255.55C184.629 255.71 184.669 255.87 184.699 256.03C184.739 256.21 184.619 256.39 184.439 256.44C184.259 256.48 184.079 256.37 184.029 256.2C183.979 256.03 183.939 255.87 183.899 255.7L183.719 254.88C183.479 253.78 183.399 252.72 183.239 251.61C182.469 247.17 182.439 244.25 182.439 242.34C182.449 240.43 182.849 238.16 183.089 236.27C183.279 234.74 183.539 233.22 183.849 231.71C183.759 231.68 183.679 231.64 183.589 231.6L183.219 231.44C182.249 231 181.319 230.49 180.429 229.92C178.659 228.78 177.039 227.47 175.519 226.05C173.999 224.64 172.589 223.13 171.259 221.55C170.599 220.76 169.949 219.96 169.339 219.13C169.029 218.72 168.729 218.3 168.429 217.88C168.139 217.46 167.839 217.04 167.569 216.6C168.949 218.12 170.359 219.6 171.819 221.03C173.279 222.46 174.769 223.84 176.329 225.13C176.519 225.29 176.719 225.45 176.919 225.61C177.119 225.77 177.309 225.93 177.509 226.08L178.109 226.54L178.719 226.99C179.539 227.58 180.359 228.14 181.219 228.66C182.079 229.17 182.949 229.64 183.849 230.03C183.959 230.07 184.069 230.12 184.179 230.17C184.249 229.85 184.319 229.53 184.389 229.22L184.719 227.83L184.669 227.82Z" fill="#FCFDFF"/>
<path d="M515.35 235.06H49.1605C38.8905 235.06 30.5605 244.41 30.5605 255.95C30.5605 267.49 38.8905 276.84 49.1605 276.84H515.35C525.62 276.84 533.95 267.49 533.95 255.95C533.95 244.41 525.62 235.06 515.35 235.06Z" fill="#E2E7F0"/>
<path d="M528.97 224.98H361.92C360.59 224.98 359.51 223.9 359.51 222.57C359.51 221.24 360.59 220.16 361.92 220.16H533.29C544.37 220.16 553.34 229.14 553.34 240.21C553.34 251.29 544.36 260.26 533.29 260.26H361.92C360.59 260.26 359.51 259.18 359.51 257.85C359.51 256.52 360.59 255.44 361.92 255.44H528.97C539.42 255.44 547.9 248.62 547.9 240.2C547.9 231.78 539.43 224.96 528.97 224.96V224.98Z" fill="#4F5A79"/>
<path d="M528.969 224.98C539.419 224.98 547.899 231.8 547.899 240.22C547.899 248.64 539.429 255.46 528.969 255.46H364.949V224.98H528.969Z" fill="#FCFDFF"/>
<path d="M519.399 191.1H374.439C369.391 191.1 365.299 195.192 365.299 200.24V211.58C365.299 216.628 369.391 220.72 374.439 220.72H519.399C524.447 220.72 528.539 216.628 528.539 211.58V200.24C528.539 195.192 524.447 191.1 519.399 191.1Z" fill="#E2E7F0"/>
<path d="M418.159 194.47H411.399V217.35H418.159V194.47Z" fill="#FCFDFF"/>
<path d="M409.339 194.47H405.959V217.35H409.339V194.47Z" fill="#FCFDFF"/>
<path d="M403.749 194.47H400.369V217.35H403.749V194.47Z" fill="#FCFDFF"/>
<path d="M371.36 166.11H489.85C490.79 166.11 491.561 165.35 491.561 164.4C491.561 163.46 490.8 162.69 489.85 162.69H368.291C360.431 162.69 354.061 169.06 354.061 176.92C354.061 184.78 360.431 191.15 368.291 191.15H489.85C490.79 191.15 491.561 190.39 491.561 189.44C491.561 188.5 490.8 187.73 489.85 187.73H371.36C363.95 187.73 357.931 182.89 357.931 176.92C357.931 170.95 363.94 166.11 371.36 166.11Z" fill="#364058"/>
<path d="M371.361 166.11C363.951 166.11 357.931 170.95 357.931 176.92C357.931 182.89 363.941 187.73 371.361 187.73H487.701V166.11H371.361Z" fill="#FCFDFF"/>
<path d="M478.321 142.08H380.811C375.763 142.08 371.671 146.172 371.671 151.22V153.95C371.671 158.998 375.763 163.09 380.811 163.09H478.321C483.369 163.09 487.461 158.998 487.461 153.95V151.22C487.461 146.172 483.369 142.08 478.321 142.08Z" fill="#E2E7F0"/>
<path d="M454.761 144.47H449.961V160.7H454.761V144.47Z" fill="#FCFDFF"/>
<path d="M458.621 144.47H456.221V160.7H458.621V144.47Z" fill="#FCFDFF"/>
<path d="M462.581 144.47H460.181V160.7H462.581V144.47Z" fill="#FCFDFF"/>
<path d="M322.22 212.58C322.22 208.57 319.25 205.32 315.6 205.32H280.77C277.11 205.32 274.15 208.57 274.15 212.58H295.66V256.6H288.52C287.32 256.6 286.35 257.66 286.35 258.98C286.35 260.29 287.32 261.36 288.52 261.36H307.84C309.04 261.36 310.01 260.3 310.01 258.98C310.01 257.67 309.04 256.6 307.84 256.6H300.7V212.58H322.21H322.22Z" fill="#9DABBC"/>
<path d="M282.65 141.16C282.65 141.16 282.69 141.12 282.71 141.05C283.5 138.37 285.42 136.94 288.02 136.28C289.94 135.79 291.77 136.06 293.54 136.88C294.81 137.46 296.01 138.16 297.06 139.08C298.1 139.99 299.14 140.92 300.1 141.92C302.08 144 304.45 145.47 307.07 146.57C308.37 147.11 309.71 147.42 311.13 147.16C311.55 147.09 311.97 147.08 312.4 147.03C317.09 146.49 320.86 149.13 321.94 153.69C322.36 155.46 322.35 157.2 321.65 158.91C321.22 159.96 321.03 161.05 320.87 162.16C320.73 163.08 320.76 163.99 321.18 164.87C321.38 165.28 321.49 165.74 321.58 166.19C321.9 167.76 321.17 169.45 319.79 170.26C319.47 170.45 319.08 170.6 318.72 170.62C318.26 170.64 317.91 170.82 317.55 171.05C316.6 171.68 315.56 172.07 314.42 172.14C312.28 172.27 310.28 171.91 308.54 170.54C307.91 170.04 307.21 169.62 306.52 169.21C305.16 168.41 303.78 167.64 302.4 166.86C301.04 166.09 299.56 165.71 298 165.55C295.69 165.31 293.38 165.3 291.07 165.31C290.37 165.31 289.68 165.27 289.03 165.01C288.21 164.68 287.39 164.36 286.57 164.03C285.61 163.64 285.15 162.89 285.02 161.9C284.94 161.25 284.9 160.6 284.81 159.95C284.77 159.61 284.68 159.27 284.59 158.94C284.37 158.12 283.91 157.47 283.19 157.03C281.05 155.73 279.74 153.75 278.83 151.5C278.18 149.91 277.93 148.23 278.27 146.52C278.63 144.67 279.57 143.15 281.06 142C281.51 141.66 282.07 141.46 282.65 141.16V141.16Z" fill="url(#paint6_linear_115_153)"/>
<path d="M278.25 180.65C278.39 179.78 278.46 178.89 278.69 178.05C279.8 174 281.28 170.08 283.37 166.36C284.97 163.51 287.28 161.27 290.3 159.67C291.01 159.29 291.79 159.03 292.54 158.71C293.07 158.49 293.63 158.45 294.2 158.48C295.03 158.52 295.4 158.83 295.4 159.59C295.4 160.35 295.3 161.12 294.88 161.8C294.24 162.84 293.58 163.88 292.89 164.9C292.04 166.16 291.1 167.36 290.28 168.64C288.65 171.2 287.68 173.96 287.57 176.95C287.51 178.47 287.49 179.99 287.44 181.51C287.42 182.39 287.38 183.27 287.36 184.15C287.34 184.88 287.17 185.59 286.85 186.25C286.67 186.61 286.43 186.95 286.16 187.25C285.54 187.94 284.76 188.09 283.81 187.86C281.65 187.32 280.11 186.14 279.21 184.26C278.66 183.11 278.24 181.94 278.24 180.65H278.25Z" fill="#E2E7F0"/>
<path d="M246.2 247.98C247.61 247.67 249.03 247.67 250.45 247.83C251.53 247.95 252.55 248.28 253.5 248.83C254.2 249.24 254.66 249.79 254.88 250.59C255.15 251.57 255.2 251.58 254.71 252.42C254.3 253.11 253.88 253.81 253.38 254.44C251.68 256.56 249.48 257.73 246.74 257.91C245.78 257.97 244.82 257.97 243.86 257.89C242.21 257.74 240.65 258.03 239.13 258.67C237.48 259.36 235.77 259.42 234.04 259.03C233.46 258.9 232.95 258.65 232.49 258.3C231.57 257.6 231.6 256.44 232.55 255.78C232.86 255.56 233.19 255.36 233.59 255.3C234.69 255.12 235.59 254.53 236.42 253.82C236.83 253.47 237.23 253.11 237.62 252.74C239.7 250.8 242.15 249.45 244.77 248.39C245.23 248.2 245.73 248.12 246.22 247.99L246.2 247.98Z" fill="#312D78"/>
<path d="M260.14 271.78C259.68 271.85 259.23 271.95 258.77 271.97C258.22 272 257.9 271.7 257.85 271.16C257.81 270.73 257.88 270.32 257.98 269.9C258.22 268.92 258.6 268 259.08 267.11C259.7 265.95 260.27 264.77 260.61 263.5C260.78 262.87 260.91 262.23 261.07 261.59C261.58 259.52 262.39 257.57 263.55 255.77C264.01 255.05 264.56 254.41 265.22 253.87C266.16 253.09 267.26 252.81 268.45 252.89C268.96 252.92 269.44 253.09 269.83 253.42C270.19 253.72 270.57 253.97 270.98 254.19C271.57 254.52 271.98 255.04 272.27 255.63C273.25 257.57 273.17 259.49 272.07 261.36C271.28 262.7 270.25 263.83 269 264.77C268.26 265.32 267.52 265.88 266.81 266.47C266.13 267.04 265.52 267.68 264.96 268.38C264.48 268.98 263.93 269.53 263.36 270.04C262.42 270.87 261.41 271.55 260.14 271.78V271.78Z" fill="#312D78"/>
<path d="M252.01 254.08C251.17 254.18 250.33 254.31 249.49 254.36C247.83 254.44 246.29 253.95 244.84 253.18C244.5 253 244.18 252.77 243.91 252.5C242.15 250.81 241.05 248.78 240.93 246.31C240.9 245.74 241 245.16 241.13 244.6C241.37 243.58 241.78 242.62 242.36 241.74C243.27 240.35 244.18 238.97 245.17 237.64C247.5 234.53 249.84 231.41 251.98 228.16C253.96 225.17 255.98 222.21 257.71 219.07C258.81 217.08 259.85 215.06 260.93 213.06C261.84 211.36 262.75 209.66 263.68 207.98C264.78 205.99 266.29 204.4 268.2 203.13C271.42 200.99 274.74 199.07 278.24 197.45C280.48 196.42 282.71 195.38 284.94 194.33C285.57 194.04 286.19 193.73 286.79 193.38C287.15 193.17 287.5 192.92 287.8 192.62C288.56 191.87 289.47 191.39 290.44 191C292.09 190.33 293.56 190.84 294.89 191.81C298 194.07 298.57 198.4 296.21 201.45C295.5 202.37 294.65 203.16 293.68 203.8C292.27 204.74 290.87 205.71 289.4 206.53C284.8 209.08 281.02 212.54 277.94 216.77C276.03 219.4 274.56 222.29 273.65 225.43C273.02 227.61 272.45 229.81 271.82 231.99C271.34 233.65 270.87 235.33 270.28 236.95C268.76 241.09 266.45 244.74 263.3 247.86C261.64 249.5 259.9 251.02 257.77 251.97C255.91 252.8 254.01 253.58 252 254.07L252.01 254.08Z" fill="url(#paint7_linear_115_153)"/>
<path d="M297.05 215.75C295.62 216.06 294.18 216.36 292.76 216.7C291.79 216.94 290.83 217.24 289.88 217.54C289.63 217.62 289.39 217.78 289.21 217.96C287.86 219.28 286.55 220.64 285.47 222.2C285.09 222.75 284.84 223.33 284.69 223.98C284.06 226.65 283.74 229.36 283.47 232.08C283.02 236.64 282.63 241.2 282.18 245.76C282.05 247.14 281.87 248.52 281.62 249.88C281.12 252.58 280.2 255.16 278.98 257.62C277.88 259.86 276.02 261.32 273.86 262.45C272.68 263.06 271.38 263.29 270.09 263.5C269.64 263.57 269.17 263.54 268.71 263.5C267.55 263.41 266.43 263.16 265.32 262.83C264.25 262.51 263.36 261.9 262.77 260.95C262.3 260.2 261.87 259.42 261.5 258.62C261.21 257.99 261.08 257.3 261.17 256.59C261.27 255.79 261.34 254.98 261.51 254.19C262.56 249.1 263.62 244.01 264.31 238.86C264.69 236 264.9 233.12 265.15 230.24C265.51 226.02 265.79 221.8 266.17 217.58C266.34 215.7 266.67 213.84 266.94 211.98C267.17 210.38 267.95 209.08 269.19 208.06C269.93 207.45 270.69 206.86 271.49 206.31C274.41 204.31 277.52 202.6 280.56 200.78C283.04 199.3 285.5 197.8 287.96 196.28C288.45 195.98 288.9 195.6 289.33 195.23C290.94 193.85 292.53 192.45 294.14 191.07C295.51 189.88 297.02 188.87 298.54 187.9C299.06 187.57 299.61 187.27 300.18 187.05C301.12 186.68 302.08 186.48 303.11 186.54C305.25 186.66 307.3 187.12 309.24 188.04C310.05 188.42 310.79 188.89 311.48 189.46C312.87 190.63 314.2 191.84 315.14 193.44C315.6 194.21 315.97 195 316.15 195.88C316.79 198.9 316.61 201.86 315.32 204.69C314.83 205.77 314.25 206.83 313.63 207.84C312.41 209.84 310.68 211.27 308.55 212.23C306.97 212.95 305.34 213.52 303.69 214.06C301.52 214.76 299.28 215.19 297.08 215.72L297.05 215.75Z" fill="url(#paint8_linear_115_153)"/>
<path d="M301.86 156.83C303.95 156.78 306.02 156.94 308.04 157.52C308.81 157.74 309.58 158.04 310.29 158.4C312.02 159.28 312.89 160.73 312.94 162.68C312.98 164.19 312.77 165.68 312.59 167.17C312.43 168.51 312.19 169.84 312.08 171.18C311.92 173.1 311.92 175.03 312.13 176.95C312.43 179.59 312.79 182.22 313.14 184.85C313.39 186.7 313.31 188.53 312.88 190.35C312.21 193.2 310.62 194.22 308.23 194.66C307.67 194.76 307.08 194.78 306.5 194.8C304.25 194.86 302.04 194.56 299.83 194.19C298.01 193.89 296.19 193.58 294.36 193.28C292.28 192.94 290.33 192.25 288.62 190.99C288.31 190.76 288.01 190.52 287.72 190.27C287.18 189.8 286.85 189.21 286.75 188.49C286.48 186.44 285.77 184.54 284.76 182.74C284.04 181.45 283.59 180.06 283.24 178.64C282.78 176.81 283.04 175.04 283.73 173.33C284 172.65 284.35 172.01 284.71 171.37C285.66 169.65 286.53 167.89 287.16 166.02C287.7 164.43 288.56 163.01 289.75 161.83C290.68 160.91 291.68 160.07 292.67 159.2C292.99 158.92 293.37 158.77 293.79 158.66C294.21 158.55 294.66 158.29 294.95 157.96C295.28 157.58 295.65 157.39 296.12 157.3C297.41 157.05 298.71 156.89 300.02 156.84C300.64 156.82 301.25 156.84 301.87 156.84L301.86 156.83Z" fill="#FCFDFF"/>
<path d="M315.32 190.45C315.75 188.67 315.83 186.89 315.58 185.08C315.23 182.51 314.87 179.94 314.57 177.37C314.35 175.5 314.35 173.61 314.52 171.74C314.63 170.43 314.87 169.13 315.03 167.83C315.21 166.38 315.42 164.92 315.38 163.45C315.33 161.55 314.46 160.13 312.73 159.27C312.01 158.91 311.25 158.62 310.48 158.41C310.11 158.31 309.73 158.21 309.35 158.14C309.22 158.18 309.09 158.21 308.96 158.25C307.61 158.65 306.25 159.04 305.05 159.77C303.31 160.82 302.61 161.7 302.01 162.63C301.26 163.79 300.42 164.89 299.72 166.08C298.81 167.6 298.32 169.27 298.2 171.02C298.06 173.08 297.65 175.09 297.14 177.09C296.95 177.83 296.77 178.58 296.67 179.34C296.43 181.26 296.67 183.12 297.64 184.85C298.4 186.2 299.25 187.48 300.36 188.59C301.9 190.14 303.17 191.87 304.01 193.87C304.12 194.12 304.25 194.34 304.4 194.54C305.91 194.74 307.42 194.86 308.95 194.82C309.53 194.8 310.11 194.79 310.68 194.68C313.08 194.25 314.66 193.26 315.33 190.47L315.32 190.45Z" fill="#E2E7F0"/>
<path d="M308.62 183.37C308.38 181.93 308.09 180.61 307.6 179.36C306.45 176.41 305.58 173.38 305.06 170.26C304.56 167.28 304.99 164.43 306.66 161.84C307.34 160.78 308.25 159.97 309.35 159.36C310.25 158.86 311.17 158.78 312.13 159.16C313.11 159.55 313.98 160.1 314.76 160.81C316.73 162.59 317.98 164.82 318.82 167.3C318.98 167.77 319.04 168.27 319.12 168.77C319.44 170.98 319.76 173.18 320.06 175.39C320.15 176.08 320.2 176.77 320.25 177.46C320.39 179.34 320.53 181.22 320.64 183.1C320.69 183.94 320.65 184.79 320.4 185.62C320.05 186.76 319.45 187.71 318.55 188.49C317.67 189.24 316.7 189.88 315.67 190.4C312.74 191.89 309.68 193.04 306.44 193.62C304.38 193.99 302.31 194.12 300.23 193.85C298.69 193.65 297.15 193.6 295.64 194.04C294.88 194.27 294.12 194.26 293.35 194.24C292.96 194.24 292.58 194.21 292.2 194.18C291.57 194.14 290.97 194.25 290.41 194.54C290.21 194.64 289.99 194.72 289.77 194.8C289.35 194.96 288.95 194.92 288.53 194.77C287.71 194.46 287.1 193.88 286.56 193.21C286.24 192.82 286.23 192.38 286.42 191.91C286.91 190.69 287.72 189.72 288.82 189.02C289.63 188.5 290.5 188.08 291.36 187.66C291.97 187.36 292.6 187.3 293.26 187.57C294.22 187.96 295.23 187.88 296.23 187.8C298.81 187.59 301.33 187.03 303.76 186.12C305.5 185.46 307.04 184.44 308.65 183.38L308.62 183.37Z" fill="#FCFDFF"/>
<path d="M293.23 187.56C292.57 187.29 291.94 187.36 291.33 187.65C290.47 188.08 289.6 188.5 288.79 189.01C287.7 189.71 286.88 190.67 286.39 191.9C286.2 192.37 286.21 192.81 286.53 193.2C287.07 193.86 287.68 194.44 288.5 194.76C288.92 194.92 289.32 194.95 289.74 194.79C289.96 194.71 290.18 194.63 290.38 194.53C290.94 194.24 291.54 194.13 292.17 194.17C292.55 194.19 292.94 194.22 293.32 194.23C294.09 194.25 294.85 194.25 295.61 194.03C296.38 193.8 297.17 193.7 297.96 193.69C298.43 193 298.69 192.21 298.69 191.39C298.69 189.98 297.92 188.69 296.66 187.75C296.5 187.77 296.35 187.78 296.19 187.79C295.19 187.87 294.18 187.94 293.22 187.56H293.23Z" fill="#F7CEC3"/>
<path d="M296.58 158.23C296.58 159.24 296.18 160.1 295.52 160.84C295.37 161.01 295.18 161.16 294.97 161.26C294.4 161.53 293.64 161.6 293.16 160.8C292.97 160.47 292.8 160.11 292.71 159.75C292.49 158.86 292.09 158.14 291.36 157.54C290.48 156.83 290.18 155.77 290.41 154.72C290.64 153.66 291.45 152.95 292.5 152.6C292.66 152.55 292.89 152.58 293.05 152.66C293.32 152.8 293.6 152.97 293.78 153.2C294.46 154.03 295.14 154.87 295.76 155.75C296.28 156.48 296.58 157.31 296.57 158.24L296.58 158.23Z" fill="#F1C2B6"/>
<path d="M286.04 147.94C286.52 148.26 286.85 148.45 287.15 148.68C288.16 149.43 289.24 149.6 290.48 149.05C290.56 148.76 290.65 148.43 290.74 148.11C290.94 147.41 291.26 147.09 291.8 147.06C292.43 147.02 292.8 147.38 293.05 147.9C293.32 148.47 293.44 149.06 293.41 149.69C293.4 149.96 293.37 150.23 293.33 150.49C293.24 151.11 293.28 151.7 293.45 152.31C293.8 153.58 293.66 154.83 293.08 156.01C292.31 157.58 290.74 158.43 289 158.2C287.66 158.02 286.5 157.44 285.55 156.49C284.75 155.7 284.15 154.76 283.6 153.79C283.32 153.3 283.32 152.85 283.7 152.41C283.93 152.15 284.12 151.86 284.32 151.58C284.93 150.73 285.4 149.81 285.68 148.8C285.75 148.56 285.88 148.33 286.05 147.94H286.04Z" fill="#F7CEC3"/>
<path d="M344.4 193.48H215.86C212.71 193.48 210.16 196.03 210.16 199.18H220.55L234.19 229.14L218.88 262.76C218.55 263.48 218.87 264.33 219.59 264.66C220.31 264.99 221.16 264.67 221.49 263.95L235.77 232.6L250.33 264.58C252.07 265.36 253.17 263.9 252.65 262.77L237.34 229.15L250.98 199.19H311.27L324.91 229.15L309.31 263.4C309.86 265.23 311.68 265.1 312.2 263.96L326.48 232.61L340.76 263.96C341.09 264.68 341.94 265 342.66 264.67C343.38 264.34 343.7 263.49 343.37 262.77L328.06 229.15L341.7 199.19H350.1C350.1 196.04 347.55 193.49 344.4 193.49V193.48ZM235.77 225.69L223.7 199.18H247.84L235.77 225.69V225.69ZM326.49 225.69L314.42 199.18H338.56L326.49 225.69V225.69Z" fill="#7A7EBB"/>
<path d="M290.3 190.64L280.69 170.69C280.28 169.85 279.22 169.29 278.02 169.29H245.41C244.69 169.29 244.19 169.82 244.43 170.33L255.33 192.97C255.48 193.28 255.87 193.48 256.31 193.48H287.62C289.59 193.48 290.96 192.03 290.29 190.65L290.3 190.64Z" fill="#312D78"/>
<path d="M290.24 192.2C290.52 191.73 290.57 191.18 290.31 190.64L280.7 170.69C280.46 170.2 280 169.81 279.43 169.56L290.25 192.2H290.24Z" fill="#272557"/>
<path d="M302.26 193.48H255.15C254.67 193.48 254.29 193.09 254.29 192.62C254.29 192.14 254.68 191.76 255.15 191.76H302.26C302.74 191.76 303.12 192.15 303.12 192.62C303.12 193.1 302.73 193.48 302.26 193.48Z" fill="#272557"/>
<path d="M93.0203 189.92C103.646 189.92 112.26 181.306 112.26 170.68C112.26 160.054 103.646 151.44 93.0203 151.44C82.3943 151.44 73.7803 160.054 73.7803 170.68C73.7803 181.306 82.3943 189.92 93.0203 189.92Z" fill="#AD1581"/>
<path d="M98.6904 183.2H89.9105V178.99C88.5305 179.21 87.3304 179.38 86.1404 179.59C85.2104 179.75 84.7204 179.47 84.7504 178.46C84.7804 177.32 84.7504 176.17 84.7504 174.82C84.1904 174.82 83.7204 174.84 83.2504 174.82C82.1604 174.75 81.9704 174.44 82.3704 173.4C82.9704 171.85 83.5904 170.31 84.2604 168.62H102.1C102.45 171.44 101.76 173.96 99.7304 175.99C98.9304 176.79 98.6005 177.57 98.6705 178.67C98.7505 180.14 98.6904 181.62 98.6904 183.21V183.2Z" fill="white"/>
<path d="M95.8502 164.15C96.0502 163.83 96.2903 163.52 96.4303 163.17C96.9903 161.75 98.0103 161.1 99.3803 161.34C100.58 161.55 101.48 162.74 101.5 164.15C101.52 165.56 100.69 166.94 99.4802 167.01C97.2102 167.14 94.9302 167.05 92.7102 167.05C93.3002 166.16 93.8702 165.31 94.4402 164.47C94.3302 164.35 94.2202 164.22 94.1102 164.1C93.8502 164.25 93.4503 164.35 93.3703 164.57C92.8603 165.91 91.7903 166.67 90.5203 166.87C88.8803 167.12 87.1803 167.09 85.5103 167.02C85.1703 167 84.6602 166.27 84.5702 165.81C84.3402 164.55 85.3903 162.56 87.5203 162.73C86.9903 163.29 86.5902 163.71 85.9802 164.36H88.5203C88.4403 164.03 88.3702 163.71 88.2102 163.03C88.3102 162.92 88.6503 162.54 89.0403 162.21C89.3603 161.94 89.7302 161.75 90.0802 161.53C90.0002 161.37 89.9202 161.21 89.8402 161.05C89.1902 161.28 88.5403 161.51 87.8903 161.74C87.3903 160.76 87.6403 159.73 88.5603 158.99C89.4003 158.31 90.9103 158.2 91.5403 158.83C91.7203 159.01 91.7403 159.4 91.7503 159.7C91.7603 160.2 91.7103 160.71 91.6803 161.21C91.8503 161.25 92.0203 161.29 92.1803 161.33C92.2903 160.97 92.4403 160.62 92.5003 160.25C92.6903 159.03 93.5502 158.21 94.7202 158.18C95.7902 158.15 96.8303 158.89 96.9203 159.92C96.9703 160.41 96.7002 160.97 96.4802 161.45C96.1102 162.26 95.6602 163.02 95.2402 163.81C95.4402 163.93 95.6402 164.05 95.8402 164.17L95.8502 164.15Z" fill="white"/>
<path d="M143.5 156.91C163.774 156.91 180.21 140.474 180.21 120.2C180.21 99.9256 163.774 83.49 143.5 83.49C123.226 83.49 106.79 99.9256 106.79 120.2C106.79 140.474 123.226 156.91 143.5 156.91Z" fill="#662482"/>
<path d="M143.5 68.05C154.126 68.05 162.74 59.436 162.74 48.8101C162.74 38.1841 154.126 29.5699 143.5 29.5699C132.874 29.5699 124.26 38.1841 124.26 48.8101C124.26 59.436 132.874 68.05 143.5 68.05Z" fill="#AD1581"/>
<path d="M193.98 88.96C204.606 88.96 213.22 80.3459 213.22 69.72C213.22 59.094 204.606 50.48 193.98 50.48C183.354 50.48 174.74 59.094 174.74 69.72C174.74 80.3459 183.354 88.96 193.98 88.96Z" fill="#AD1581"/>
<path d="M214.89 139.44C225.516 139.44 234.13 130.826 234.13 120.2C234.13 109.574 225.516 100.96 214.89 100.96C204.264 100.96 195.65 109.574 195.65 120.2C195.65 130.826 204.264 139.44 214.89 139.44Z" fill="#AD1581"/>
<path d="M193.98 189.92C204.606 189.92 213.22 181.306 213.22 170.68C213.22 160.054 204.606 151.44 193.98 151.44C183.354 151.44 174.74 160.054 174.74 170.68C174.74 181.306 183.354 189.92 193.98 189.92Z" fill="#AD1581"/>
<path d="M143.5 210.83C154.126 210.83 162.74 202.216 162.74 191.59C162.74 180.964 154.126 172.35 143.5 172.35C132.874 172.35 124.26 180.964 124.26 191.59C124.26 202.216 132.874 210.83 143.5 210.83Z" fill="#AD1581"/>
<path d="M72.1101 139.44C82.7361 139.44 91.3501 130.826 91.3501 120.2C91.3501 109.574 82.7361 100.96 72.1101 100.96C61.4841 100.96 52.8701 109.574 52.8701 120.2C52.8701 130.826 61.4841 139.44 72.1101 139.44Z" fill="#AD1581"/>
<path d="M93.0203 88.96C103.646 88.96 112.26 80.3459 112.26 69.72C112.26 59.094 103.646 50.48 93.0203 50.48C82.3943 50.48 73.7803 59.094 73.7803 69.72C73.7803 80.3459 82.3943 88.96 93.0203 88.96Z" fill="#AD1581"/>
<path d="M143.25 135.19C141.87 135.19 140.49 135.23 139.12 135.18C137.63 135.12 136.61 134.4 136.34 132.85C135.74 129.39 134.39 126.25 132.72 123.17C130.17 118.46 130.48 113.75 133.74 109.54C136.88 105.49 141.24 103.97 146.27 105.14C151.3 106.31 154.44 109.57 155.56 114.61C156.19 117.47 155.9 120.33 154.41 122.92C152.64 125.99 151.27 129.19 150.67 132.71C150.36 134.51 149.42 135.16 147.55 135.19C146.12 135.21 144.69 135.19 143.26 135.19H143.25ZM143.42 133.39C144.8 133.38 146.19 133.49 147.55 133.32C148.06 133.26 148.82 132.61 148.92 132.12C149.6 128.62 151.09 125.47 152.63 122.29C153.49 120.52 154.05 118.4 154.02 116.46C153.95 112.08 150.74 108.29 146.56 107C142.46 105.73 138.05 107.13 135.16 110.62C132.52 113.81 132.12 118.62 134.29 122.39C136.04 125.42 137.39 128.59 137.95 132.05C138.11 133.04 138.61 133.44 139.6 133.4C140.87 133.35 142.15 133.39 143.43 133.39H143.42Z" fill="white"/>
<path d="M143.74 136.37C145.32 136.37 146.9 136.32 148.48 136.4C148.85 136.42 149.2 136.89 149.56 137.15C149.22 137.45 148.89 138 148.55 138.01C145.14 138.08 141.73 138.09 138.31 138.04C138 138.04 137.69 137.53 137.38 137.25C137.72 136.96 138.04 136.42 138.39 136.41C140.17 136.32 141.95 136.37 143.74 136.37V136.37Z" fill="white"/>
<path d="M143.35 141.02C142.03 141.02 140.71 141.09 139.4 140.98C138.99 140.95 138.61 140.45 138.22 140.17C138.59 139.85 138.95 139.26 139.33 139.25C142.12 139.17 144.91 139.17 147.7 139.24C148.05 139.24 148.38 139.8 148.72 140.1C148.35 140.41 148 140.95 147.61 140.98C146.2 141.09 144.77 141.02 143.35 141.02V141.02Z" fill="white"/>
<path d="M132.649 129.15C132.349 129.59 132.169 129.94 131.909 130.22C130.709 131.46 129.539 132.74 128.229 133.85C127.829 134.19 127.019 134.05 126.399 134.13C126.509 133.54 126.419 132.79 126.759 132.4C127.919 131.06 129.209 129.82 130.509 128.62C130.819 128.34 131.419 128.23 131.859 128.29C132.129 128.32 132.349 128.8 132.649 129.15V129.15Z" fill="white"/>
<path d="M155.34 106.19C155.12 106.04 154.66 105.9 154.6 105.66C154.5 105.27 154.5 104.66 154.73 104.41C156.08 102.95 157.48 101.53 158.96 100.21C159.26 99.9399 160.04 99.98 160.46 100.18C160.66 100.27 160.76 101.25 160.54 101.5C159.15 103.04 157.66 104.49 156.18 105.95C156.02 106.1 155.71 106.1 155.33 106.2L155.34 106.19Z" fill="white"/>
<path d="M163.55 116.13C164.46 116.13 165.4 116.02 166.28 116.18C166.74 116.26 167.11 116.82 167.52 117.17C167.16 117.52 166.82 118.16 166.44 118.18C164.47 118.28 162.48 118.28 160.51 118.18C160.12 118.16 159.76 117.53 159.39 117.19C159.81 116.85 160.2 116.29 160.66 116.21C161.6 116.06 162.58 116.16 163.55 116.16V116.13Z" fill="white"/>
<path d="M123.41 118.24C122.5 118.24 121.56 118.36 120.68 118.19C120.23 118.1 119.87 117.51 119.47 117.14C119.87 116.81 120.26 116.21 120.68 116.18C122.55 116.07 124.43 116.07 126.3 116.18C126.72 116.2 127.1 116.83 127.5 117.17C127.15 117.52 126.84 118.12 126.44 118.18C125.45 118.33 124.42 118.23 123.41 118.23C123.41 118.23 123.41 118.23 123.41 118.24Z" fill="white"/>
<path d="M142.46 97.0699C142.46 96.1599 142.35 95.23 142.51 94.34C142.59 93.89 143.14 93.53 143.48 93.13C143.82 93.49 144.44 93.83 144.46 94.21C144.56 96.18 144.57 98.16 144.47 100.13C144.45 100.49 143.82 100.82 143.47 101.17C143.14 100.82 142.57 100.49 142.52 100.1C142.38 99.11 142.47 98.0799 142.47 97.0699H142.46Z" fill="white"/>
<path d="M127.479 99.48C129.199 101.41 130.839 103.21 132.409 105.07C132.499 105.18 132.159 105.92 131.899 106C131.539 106.12 130.919 106.05 130.659 105.8C129.239 104.48 127.869 103.1 126.549 101.69C126.299 101.42 126.219 100.83 126.319 100.45C126.389 100.16 126.859 99.98 127.479 99.48V99.48Z" fill="white"/>
<path d="M160.87 133.55C160.69 133.79 160.54 134.24 160.29 134.3C159.9 134.4 159.3 134.4 159.05 134.17C157.56 132.78 156.11 131.33 154.74 129.83C154.51 129.58 154.55 128.77 154.78 128.52C155.02 128.26 155.86 128.14 156.08 128.35C157.65 129.81 159.12 131.36 160.62 132.89C160.75 133.02 160.76 133.26 160.87 133.55Z" fill="white"/>
<path d="M147.1 142.3C145.01 144.86 141.74 144.83 140.12 142.3H147.1Z" fill="white"/>
<path d="M215.9 121.09C218.32 122.34 219.3 124.5 218.91 127.67C216.23 127.67 213.53 127.67 210.84 127.67C210.22 125.01 211.36 122.4 213.53 121.21C212.98 120.45 212.28 119.73 211.91 118.87C211.67 118.32 211.79 117.53 211.98 116.91C212.39 115.58 213.69 114.86 215.2 114.98C216.51 115.08 217.63 116.06 217.91 117.34C218.23 118.83 217.59 120.08 215.91 121.08L215.9 121.09Z" fill="white"/>
<path d="M223.001 118.93C226.041 120.15 225.821 122.87 226.061 125.48H220.061C219.481 124.18 218.741 122.94 218.421 121.6C218.291 121.06 219.011 120.25 219.471 119.67C219.751 119.31 220.281 119.15 220.711 118.9C218.921 117.59 218.401 116.4 218.921 114.86C219.341 113.59 220.501 112.75 221.831 112.73C223.131 112.71 224.381 113.58 224.791 114.8C225.321 116.37 224.811 117.55 222.991 118.93H223.001Z" fill="white"/>
<path d="M209.03 118.89C209.54 119.25 210.12 119.54 210.55 119.98C211.25 120.68 211.67 121.38 210.9 122.45C210.31 123.28 210.14 124.41 209.76 125.5H203.85C203.32 122.55 204.31 120.24 206.67 118.89C204.92 117.61 204.38 116.42 204.86 114.88C205.25 113.65 206.45 112.76 207.77 112.73C209.07 112.69 210.31 113.54 210.75 114.77C211.31 116.31 210.8 117.52 209.03 118.89V118.89Z" fill="white"/>
<path d="M153.26 191.44C149.96 193.02 146.99 194.45 144 195.85C143.72 195.98 143.26 196 142.99 195.86C138.75 193.86 134.52 191.82 130.3 189.78C130.2 189.73 130.15 189.61 130 189.43C130.28 189.24 130.52 189.04 130.79 188.91C134.76 187 138.73 185.08 142.72 183.21C143.1 183.03 143.71 182.97 144.07 183.14C148.21 185.08 152.32 187.07 156.44 189.05C156.58 189.12 156.7 189.23 156.9 189.37C156.77 189.55 156.69 189.75 156.54 189.84C155.06 190.75 154.82 191.62 155.61 193.31C155.69 193.49 155.79 193.7 155.77 193.88C155.67 194.95 155.55 196.01 155.42 197.15H153.98C154.69 195.71 153.56 194.28 154.34 192.76C154.97 191.53 154.39 190.73 153.05 190.44C150.18 189.83 147.31 189.21 144.44 188.59C144.36 188.57 144.28 188.51 144.21 188.53C143.85 188.59 143.49 188.66 143.14 188.73C143.42 188.95 143.67 189.3 143.98 189.38C145.92 189.84 147.88 190.23 149.83 190.65C150.86 190.87 151.89 191.11 153.27 191.43L153.26 191.44Z" fill="white"/>
<path d="M152.04 193C152.04 193.88 151.98 194.54 152.05 195.18C152.27 197.23 151.29 198.56 149.52 199.33C145.3 201.14 141.05 201.15 136.83 199.28C135.14 198.53 134.2 197.3 134.41 195.34C134.49 194.58 134.42 193.79 134.42 192.8C135.29 193.2 136.05 193.53 136.79 193.89C138.67 194.78 140.56 195.64 142.41 196.59C143.19 196.99 143.83 196.96 144.59 196.59C146.99 195.4 149.42 194.26 152.03 193.02L152.04 193Z" fill="white"/>
<path d="M184.23 172.2C183.77 171.83 183.38 171.51 182.9 171.13C183.57 170.25 184.22 169.39 184.88 168.54C185.55 167.68 186.23 166.83 186.92 165.95C189.52 167.69 192.05 169.39 194.7 171.16C196.46 168.3 198.16 165.53 199.91 162.68C199.25 162.23 198.68 161.84 197.94 161.34C199.87 160.29 201.68 159.31 203.55 158.29V164.79C202.76 164.36 202.12 164.01 201.4 163.62C199.35 166.94 197.32 170.22 195.22 173.62C192.57 171.85 189.98 170.11 187.3 168.33C186.26 169.63 185.28 170.88 184.21 172.22L184.23 172.2Z" fill="white"/>
<path d="M200.24 177.83C200.24 174.56 200.13 171.32 200.31 168.11C200.36 167.13 201.22 166.19 201.69 165.27C201.92 165.32 201.99 165.32 202.06 165.35C203.94 166.03 204.49 167.33 204.36 169.31C204.17 172.11 204.31 174.93 204.31 177.83H200.25H200.24Z" fill="white"/>
<path d="M187.66 170.04C188.65 170.35 189.12 171.04 189.06 172.25C188.96 174.08 189.03 175.93 189.03 177.84H185.16C184.57 174.82 184.9 172.07 187.65 170.04H187.66Z" fill="white"/>
<path d="M205.061 178.94V180.06H184.281C184.261 179.74 184.23 179.39 184.19 178.94H205.061Z" fill="white"/>
<path d="M199.14 177.87H195.21C195.23 176.68 195.02 175.65 195.96 174.55C197.18 173.14 198.01 171.38 199.14 169.55V177.87Z" fill="white"/>
<path d="M190.151 171.66C191.441 172.52 192.591 173.27 193.701 174.07C193.921 174.23 194.091 174.6 194.101 174.89C194.151 175.85 194.121 176.81 194.121 177.85H190.141V171.67L190.151 171.66Z" fill="white"/>
<path d="M193.95 71.2801C189.49 71.2601 186.051 67.7901 186.061 63.3101C186.081 58.9001 189.65 55.39 194.07 55.44C198.49 55.49 201.921 59.02 201.891 63.5C201.861 67.85 198.34 71.2901 193.94 71.2801H193.95ZM198.22 63.7901C198.09 64.4801 198.08 65.1 197.85 65.62C197.31 66.84 197.85 67.36 199.23 67.7C199.73 66.48 200.25 65.2301 200.84 63.7901H198.22V63.7901ZM187.07 63.7901C187.73 65.3001 188.27 66.5301 188.82 67.7701C188.99 67.7801 189.17 67.7901 189.34 67.8001C189.67 67.3201 190.261 66.85 190.261 66.37C190.261 65.53 189.91 64.6901 189.69 63.7901H187.07V63.7901ZM193.561 63.83H190.44C190.69 64.87 190.901 65.7701 191.121 66.6701C192.081 66.4901 192.831 66.34 193.561 66.21V63.83V63.83ZM194.421 63.7801V66.25C195.241 66.38 195.991 66.5001 196.901 66.6401C197.101 65.6701 197.28 64.7701 197.48 63.7801H194.421V63.7801ZM200.83 62.94C200.31 61.63 199.861 60.4901 199.371 59.2701C198.621 59.7201 198.13 60.0101 197.69 60.2801C197.9 61.2501 198.081 62.1 198.261 62.95H200.84L200.83 62.94ZM187.181 62.88C190.301 63.08 189.61 63.59 190.22 60.2C189.73 59.94 189.231 59.68 188.551 59.33C188.081 60.55 187.651 61.6501 187.181 62.8901V62.88ZM193.551 62.96V61.0301C192.661 60.8701 191.87 60.7301 190.94 60.5601C190.8 61.3901 190.671 62.13 190.531 62.96H193.561H193.551ZM197.501 62.96C197.331 62.07 197.191 61.3601 197.031 60.5501C196.081 60.7401 195.24 60.9001 194.46 61.0501V62.96H197.501ZM193.511 60.2801V57.26C193.421 57.22 193.331 57.1901 193.241 57.1501C192.591 58.0001 191.951 58.85 191.171 59.88C192.131 60.04 192.771 60.1501 193.511 60.2801V60.2801ZM194.431 60.2801C195.211 60.1401 195.901 60.01 196.881 59.83C196.021 58.79 195.351 57.9801 194.681 57.1701C194.591 57.2301 194.511 57.29 194.421 57.35V60.2801H194.431ZM191.421 67.33C192.151 68.19 192.751 68.9001 193.531 69.8101V66.94C192.851 67.06 192.281 67.17 191.421 67.32V67.33ZM194.46 66.97V69.85C195.27 68.87 195.85 68.18 196.57 67.32C195.7 67.18 195.11 67.08 194.46 66.98V66.97ZM198.921 58.7C197.791 58.03 196.861 57.4801 195.931 56.9301C195.881 57.0101 195.821 57.1001 195.771 57.1801C196.311 57.9401 196.85 58.7001 197.46 59.5401C197.86 59.3101 198.241 59.09 198.931 58.71L198.921 58.7ZM192.23 57.1401C192.18 57.0601 192.13 56.9901 192.07 56.9101C191.14 57.4701 190.21 58.03 189.07 58.71C189.76 59.1 190.141 59.3101 190.521 59.5201C191.141 58.6601 191.68 57.9001 192.22 57.1401H192.23ZM195.801 69.5401C195.851 69.6301 195.89 69.7101 195.94 69.8001C196.75 69.3501 197.56 68.9 198.59 68.32C197.95 67.99 197.61 67.81 197.21 67.61C196.7 68.3 196.251 68.9201 195.791 69.5401H195.801ZM190.771 67.6C190.381 67.81 190.021 68.01 189.391 68.35C190.471 68.91 191.28 69.33 192.1 69.76C192.14 69.69 192.18 69.6101 192.22 69.5401C191.76 68.9201 191.301 68.31 190.771 67.6V67.6Z" fill="white"/>
<path d="M197.59 83.9999H190.37C190.37 82.4899 190.43 81.0399 190.34 79.6099C190.3 79.0599 190.03 78.42 189.66 78.01C188.51 76.75 187.27 75.5699 186.06 74.3699C185.45 73.7599 185.19 73.05 185.85 72.42C186.51 71.79 187.19 72.0599 187.8 72.6999C188.89 73.8499 189.98 75.01 191.17 76.04C191.68 76.48 192.43 76.7399 193.11 76.8699C195.11 77.2499 196.72 76.62 197.96 74.93C198.54 74.14 199.39 73.54 200.06 72.81C200.67 72.15 201.38 71.74 202.1 72.43C202.9 73.19 202.39 73.92 201.74 74.56C200.64 75.64 199.61 76.79 198.46 77.81C197.76 78.43 197.54 79.0999 197.58 79.9899C197.64 81.2699 197.59 82.56 197.59 84.01V83.9999Z" fill="white"/>
<path d="M193.93 76.08C192.77 76.05 191.99 75.26 191.99 74.1C191.99 72.91 192.87 72.04 194.03 72.07C195.19 72.1 196.05 73.03 195.99 74.19C195.93 75.3 195.06 76.1 193.94 76.07L193.93 76.08Z" fill="white"/>
<path d="M151.31 58.8C148.75 57.95 146.35 58.08 143.98 59.16C143.68 59.3 143.2 59.2299 142.88 59.0899C140.54 58.0699 138.18 57.95 135.58 58.88C135.7 58.17 135.8 57.58 135.9 57C137.24 56.76 138.34 56.26 138.5 54.81C138.67 53.3 137.72 52.6799 136.52 51.9599C135.79 51.5199 135.58 50.23 135.03 49.12C137.91 48.95 140.46 48.75 142.9 49.86C143.24 50.01 143.76 50.07 144.07 49.91C146.51 48.67 149.08 48.9999 151.81 49.0699C151.27 50.3999 151.49 51.8699 149.74 52.4599C149.15 52.6599 148.5 53.86 148.57 54.54C148.64 55.3 149.34 56.32 150.03 56.62C151.07 57.06 151.48 57.5699 151.31 58.8199V58.8Z" fill="white"/>
<path d="M145.3 46.76C146.17 47.18 146.93 47.55 147.69 47.92C144.9 49.18 142.17 49.29 139.38 47.9C140.1 47.55 140.85 47.19 141.38 46.92C140.51 45.88 139.46 44.8899 138.75 43.6999C138 42.4399 138.16 40.9799 138.75 39.6199C139.61 37.6099 141.76 36.33 143.9 36.52C146.31 36.73 148.15 38.37 148.65 40.76C149.14 43.1 148.02 45.16 145.3 46.76V46.76Z" fill="white"/>
<path d="M136.15 56.1899C135.06 56.0699 134.371 55.49 134.421 54.41C134.461 53.36 135.1 52.71 136.22 52.76C137.26 52.81 137.86 53.4301 137.86 54.4301C137.86 55.5001 137.22 56.1 136.14 56.2L136.15 56.1899Z" fill="white"/>
<path d="M150.95 52.75C151.95 52.8 152.57 53.32 152.58 54.46C152.58 55.61 151.94 56.14 150.85 56.14C149.8 56.14 149.21 55.54 149.19 54.52C149.17 53.45 149.72 52.79 150.95 52.75V52.75Z" fill="white"/>
<path d="M77.4205 109.49C76.3105 110.58 75.2405 111.65 74.1705 112.71C74.4405 112.77 74.7805 112.84 75.1005 112.91V114.66H71.0704V118.8H66.9305V122.85H62.9805V127H79.4805V112.87C79.9205 112.83 80.2605 112.8 80.4305 112.78C79.4105 111.67 78.3605 110.54 77.4105 109.5L77.4205 109.49Z" fill="white"/>
<path d="M87.3905 65.39C86.5905 66.63 85.9205 67.67 85.1605 68.84C86.0405 68.84 86.7604 68.79 87.4804 68.84C89.5204 69.02 91.3305 69.61 92.1805 71.75C92.4105 72.32 93.5405 72.38 93.7805 71.82C94.9205 69.2 97.1504 68.8 99.6304 68.83C99.9804 68.83 100.33 68.83 100.85 68.83C100.12 67.69 99.4405 66.64 98.6405 65.39C98.4105 65.9 98.3204 66.2901 98.0804 66.5401C97.8504 66.7801 97.4705 66.8801 97.1605 67.0401C97.0505 66.7101 96.7804 66.35 96.8504 66.07C97.0604 65.28 97.3804 64.51 97.7204 63.76C98.0604 63 98.6704 62.91 99.1204 63.59C100.82 66.13 102.51 68.67 104.14 71.26C104.79 72.29 104.48 73.68 103.6 74.62C101.26 77.1 95.4305 76.72 94.0205 73.83C93.6405 73.05 92.3504 73.05 91.9604 73.84C90.5604 76.75 84.5905 77.06 82.3905 74.59C81.3805 73.47 81.2504 72.1001 82.1004 70.8101C83.6304 68.4901 85.1504 66.16 86.7104 63.85C86.9204 63.54 87.3405 63.23 87.6805 63.21C87.9005 63.2 88.2204 63.67 88.3804 63.99C88.6804 64.62 88.9704 65.28 89.1304 65.96C89.2004 66.28 88.9504 66.6701 88.8404 67.0301C88.5204 66.8201 88.1505 66.66 87.8905 66.39C87.6905 66.19 87.6305 65.85 87.3905 65.34V65.39ZM99.0405 75.26C100.25 74.74 101.43 74.41 102.41 73.77C103.36 73.15 103.3 72.16 102.5 71.36C100.94 69.79 97.2105 69.79 95.6805 71.37C94.9305 72.14 94.8404 73.11 95.7204 73.7C96.6904 74.35 97.8505 74.72 99.0405 75.26V75.26ZM86.8604 75.19C87.9904 74.77 89.0804 74.53 89.9904 73.99C91.2104 73.26 91.2004 72.1 90.1204 71.19C88.5204 69.83 85.2305 69.86 83.6405 71.24C82.6805 72.08 82.6304 73.23 83.7204 73.9C84.6604 74.48 85.7704 74.76 86.8604 75.2V75.19Z" fill="white"/>
<path d="M99.0403 75.26C97.8503 74.72 96.6902 74.3599 95.7202 73.6999C94.8402 73.1099 94.9303 72.14 95.6803 71.37C97.2103 69.79 100.94 69.79 102.5 71.36C103.29 72.16 103.36 73.15 102.41 73.77C101.43 74.41 100.25 74.74 99.0403 75.26V75.26Z" fill="white"/>
<path d="M86.8608 75.19C85.7808 74.76 84.6608 74.4701 83.7208 73.8901C82.6308 73.2101 82.6708 72.06 83.6408 71.23C85.2308 69.85 88.5308 69.8301 90.1208 71.1801C91.2008 72.0901 91.2108 73.26 89.9908 73.98C89.0808 74.52 87.9808 74.7601 86.8608 75.1801V75.19Z" fill="white"/>
<defs>
<linearGradient id="paint0_linear_115_153" x1="416.261" y1="125.804" x2="338.364" y2="262.051" gradientUnits="userSpaceOnUse">
<stop stop-color="#B1DBF6"/>
<stop offset="1" stop-color="#ABCDE1"/>
</linearGradient>
<linearGradient id="paint1_linear_115_153" x1="334" y1="137.299" x2="265.219" y2="257.593" gradientUnits="userSpaceOnUse">
<stop stop-color="#D3E9F9"/>
<stop offset="1" stop-color="#FAFCFF"/>
</linearGradient>
<linearGradient id="paint2_linear_115_153" x1="5.63878" y1="173.59" x2="81.5145" y2="261.224" gradientUnits="userSpaceOnUse">
<stop stop-color="#B1DBF6"/>
<stop offset="1" stop-color="#ABCDE1"/>
</linearGradient>
<linearGradient id="paint3_linear_115_153" x1="66.8849" y1="170.196" x2="133.882" y2="247.559" gradientUnits="userSpaceOnUse">
<stop stop-color="#D3E9F9"/>
<stop offset="1" stop-color="#FAFCFF"/>
</linearGradient>
<linearGradient id="paint4_linear_115_153" x1="121.546" y1="149.069" x2="162.59" y2="257.467" gradientUnits="userSpaceOnUse">
<stop stop-color="#B1DBF6"/>
<stop offset="1" stop-color="#ABCDE1"/>
</linearGradient>
<linearGradient id="paint5_linear_115_153" x1="180.223" y1="166.981" x2="216.46" y2="262.689" gradientUnits="userSpaceOnUse">
<stop stop-color="#D3E9F9"/>
<stop offset="1" stop-color="#FAFCFF"/>
</linearGradient>
<linearGradient id="paint6_linear_115_153" x1="326.98" y1="176.74" x2="282.52" y2="139.55" gradientUnits="userSpaceOnUse">
<stop stop-color="#2B2550"/>
<stop offset="1" stop-color="#3C3677"/>
</linearGradient>
<linearGradient id="paint7_linear_115_153" x1="237.178" y1="230.031" x2="301.865" y2="215.82" gradientUnits="userSpaceOnUse">
<stop stop-color="#2B2550"/>
<stop offset="1" stop-color="#251E47"/>
</linearGradient>
<linearGradient id="paint8_linear_115_153" x1="255.447" y1="231.823" x2="320.808" y2="217.464" gradientUnits="userSpaceOnUse">
<stop stop-color="#2B2550"/>
<stop offset="1" stop-color="#3C3677"/>
</linearGradient>
</defs>
</svg>
