<svg width="39" height="39" viewBox="0 0 39 39" fill="none" xmlns="http://www.w3.org/2000/svg">
	<path d="M19.24 38.48C29.8659 38.48 38.48 29.8659 38.48 19.24C38.48 8.61403 29.8659 0 19.24 0C8.61403 0 0 8.61403 0 19.24C0 29.8659 8.61403 38.48 19.24 38.48Z" fill="#AD1581" />
	<path d="M19.2102 20.8001C14.7502 20.7801 11.3103 17.3101 11.3203 12.8301C11.3403 8.42012 14.9102 4.91 19.3302 4.96C23.7502 5.01 27.1803 8.54006 27.1503 13.0201C27.1203 17.3701 23.6002 20.8101 19.2002 20.8001H19.2102ZM23.4802 13.3101C23.3502 14.0001 23.3403 14.6201 23.1103 15.1401C22.5703 16.3601 23.1103 16.88 24.4903 17.22C24.9903 16 25.5102 14.7501 26.1002 13.3101H23.4802V13.3101ZM12.3302 13.3101C12.9902 14.8201 13.5302 16.0501 14.0802 17.2901C14.2502 17.3001 14.4302 17.3101 14.6002 17.3201C14.9302 16.8401 15.5203 16.3701 15.5203 15.8901C15.5203 15.0501 15.1702 14.2101 14.9502 13.3101H12.3302V13.3101ZM18.8203 13.35H15.7002C15.9502 14.39 16.1603 15.2901 16.3803 16.1901C17.3403 16.0101 18.0903 15.86 18.8203 15.73V13.35V13.35ZM19.6803 13.3001V15.7701C20.5003 15.9001 21.2503 16.0201 22.1603 16.1601C22.3603 15.1901 22.5403 14.2901 22.7403 13.3001H19.6803V13.3001ZM26.0902 12.46C25.5702 11.15 25.1203 10.0101 24.6303 8.79008C23.8803 9.24008 23.3902 9.53009 22.9502 9.80009C23.1602 10.7701 23.3403 11.62 23.5203 12.47H26.1002L26.0902 12.46ZM12.4403 12.4001C15.5603 12.6001 14.8702 13.11 15.4802 9.72001C14.9902 9.46001 14.4903 9.20001 13.8103 8.85001C13.3403 10.07 12.9103 11.1701 12.4403 12.4101V12.4001ZM18.8103 12.48V10.5501C17.9203 10.3901 17.1302 10.2501 16.2002 10.0801C16.0602 10.9101 15.9303 11.65 15.7903 12.48H18.8203H18.8103ZM22.7603 12.48C22.5903 11.59 22.4503 10.8801 22.2903 10.0701C21.3403 10.2601 20.5002 10.4201 19.7202 10.5701V12.48H22.7603ZM18.7703 9.80009V6.78007C18.6803 6.74007 18.5903 6.71008 18.5003 6.67008C17.8503 7.52008 17.2103 8.37006 16.4303 9.40006C17.3903 9.56006 18.0303 9.67009 18.7703 9.80009V9.80009ZM19.6903 9.80009C20.4703 9.66009 21.1603 9.53001 22.1403 9.35001C21.2803 8.31001 20.6103 7.5001 19.9403 6.6901C19.8503 6.7501 19.7703 6.81003 19.6803 6.87003V9.80009H19.6903ZM16.6803 16.85C17.4103 17.71 18.0103 18.4201 18.7903 19.3301V16.46C18.1103 16.58 17.5403 16.69 16.6803 16.84V16.85ZM19.7202 16.49V19.37C20.5302 18.39 21.1102 17.7 21.8302 16.84C20.9602 16.7 20.3702 16.6 19.7202 16.5V16.49ZM24.1803 8.22001C23.0503 7.55001 22.1203 7.00011 21.1903 6.45011C21.1403 6.53011 21.0803 6.62011 21.0303 6.70011C21.5703 7.46011 22.1102 8.2201 22.7202 9.0601C23.1202 8.8301 23.5003 8.61002 24.1903 8.23002L24.1803 8.22001ZM17.4903 6.66007C17.4403 6.58007 17.3902 6.51009 17.3302 6.43009C16.4002 6.99009 15.4702 7.55002 14.3302 8.23002C15.0202 8.62002 15.4003 8.83008 15.7803 9.04008C16.4003 8.18008 16.9402 7.42007 17.4802 6.66007H17.4903ZM21.0603 19.0601C21.1103 19.1501 21.1502 19.2301 21.2002 19.3201C22.0102 18.8701 22.8202 18.42 23.8502 17.84C23.2102 17.51 22.8702 17.33 22.4702 17.13C21.9602 17.82 21.5103 18.4401 21.0503 19.0601H21.0603ZM16.0303 17.12C15.6403 17.33 15.2803 17.53 14.6503 17.87C15.7303 18.43 16.5403 18.8501 17.3603 19.2801C17.4003 19.2101 17.4402 19.1301 17.4802 19.0601C17.0202 18.4401 16.5603 17.83 16.0303 17.12V17.12Z" fill="white" />
	<path d="M22.8497 33.52H15.6298C15.6298 32.01 15.6897 30.56 15.5997 29.13C15.5597 28.58 15.2898 27.94 14.9198 27.53C13.7698 26.27 12.5298 25.09 11.3198 23.89C10.7098 23.28 10.4498 22.57 11.1098 21.94C11.7698 21.31 12.4498 21.5799 13.0598 22.2199C14.1498 23.3699 15.2398 24.53 16.4298 25.56C16.9398 26 17.6898 26.26 18.3698 26.39C20.3698 26.77 21.9797 26.14 23.2197 24.45C23.7997 23.66 24.6498 23.06 25.3198 22.33C25.9298 21.67 26.6398 21.26 27.3598 21.95C28.1598 22.71 27.6498 23.44 26.9998 24.08C25.8998 25.16 24.8697 26.31 23.7197 27.33C23.0197 27.95 22.7997 28.62 22.8397 29.51C22.8997 30.79 22.8497 32.08 22.8497 33.53V33.52Z" fill="white" />
	<path d="M19.1901 25.6C18.0301 25.57 17.25 24.78 17.25 23.62C17.25 22.43 18.13 21.56 19.29 21.59C20.45 21.62 21.31 22.55 21.25 23.71C21.19 24.82 20.32 25.62 19.2 25.59L19.1901 25.6Z" fill="white" />
</svg>