<svg width="39" height="39" viewBox="0 0 39 39" fill="none" xmlns="http://www.w3.org/2000/svg">
<path d="M19.24 38.4801C29.8659 38.4801 38.48 29.8661 38.48 19.2401C38.48 8.61415 29.8659 0 19.24 0C8.61403 0 0 8.61415 0 19.2401C0 29.8661 8.61403 38.4801 19.24 38.4801Z" fill="#AD1581"/>
<path d="M24.9101 31.76H16.1302V27.55C14.7502 27.77 13.5502 27.94 12.3602 28.15C11.4302 28.31 10.9402 28.03 10.9702 27.02C11.0002 25.88 10.9702 24.73 10.9702 23.38C10.4102 23.38 9.94015 23.4 9.47015 23.38C8.38015 23.31 8.19015 23.0001 8.59015 21.9601C9.19015 20.4101 9.81016 18.8701 10.4802 17.1801H28.3201C28.6701 20.0001 27.9801 22.52 25.9501 24.55C25.1501 25.35 24.8202 26.1301 24.8902 27.2301C24.9702 28.7001 24.9101 30.18 24.9101 31.77V31.76Z" fill="white"/>
<path d="M22.07 12.7101C22.27 12.3901 22.51 12.0801 22.65 11.7301C23.21 10.3101 24.23 9.66005 25.6 9.90005C26.8 10.1101 27.7 11.3001 27.72 12.7101C27.74 14.1201 26.91 15.5001 25.7 15.5701C23.43 15.7001 21.1499 15.6101 18.9299 15.6101C19.5199 14.7201 20.0899 13.8701 20.6599 13.0301C20.5499 12.9101 20.44 12.7801 20.33 12.6601C20.07 12.8101 19.67 12.91 19.59 13.13C19.08 14.47 18.01 15.2301 16.74 15.4301C15.1 15.6801 13.4 15.6501 11.73 15.5801C11.39 15.5601 10.8799 14.8301 10.7899 14.3701C10.5599 13.1101 11.61 11.1201 13.74 11.2901C13.21 11.8501 12.81 12.2701 12.2 12.9201H14.74C14.66 12.5901 14.5899 12.2701 14.4299 11.5901C14.5299 11.4801 14.87 11.1 15.26 10.77C15.58 10.5 15.9499 10.3101 16.2999 10.0901C16.2199 9.93011 16.1399 9.77013 16.0599 9.61013C15.4099 9.84013 14.76 10.0701 14.11 10.3001C13.61 9.32007 13.86 8.29007 14.78 7.55007C15.62 6.87007 17.13 6.76004 17.76 7.39004C17.94 7.57004 17.96 7.96004 17.97 8.26004C17.98 8.76004 17.93 9.27005 17.9 9.77005C18.07 9.81005 18.24 9.85004 18.4 9.89004C18.51 9.53004 18.66 9.18008 18.72 8.81008C18.91 7.59008 19.77 6.77014 20.94 6.74014C22.01 6.71014 23.05 7.45013 23.14 8.48013C23.19 8.97013 22.92 9.53004 22.7 10.01C22.33 10.82 21.88 11.5801 21.46 12.3701C21.66 12.4901 21.8599 12.6101 22.0599 12.7301L22.07 12.7101Z" fill="white"/>
</svg>
