<svg width="88" height="51" viewBox="0 0 88 51" fill="none" xmlns="http://www.w3.org/2000/svg">
<path d="M1.84806 50.7327H79.778C80.858 47.5927 84.4281 44.6327 85.8481 41.6227C87.2581 38.6127 87.9881 34.9327 86.3481 32.0427C84.2981 28.4127 79.2281 27.4827 75.2981 28.8527C71.3681 30.2227 68.3181 33.3027 65.4081 36.2927C70.1281 28.6227 69.4481 17.6527 64.6081 10.0627C59.7681 2.47275 49.618 -1.54725 41.118 1.39275C34.368 3.73275 29.458 9.82275 26.828 16.4727C24.198 23.1127 23.528 30.3428 22.878 37.4628C22.378 34.1728 18.298 31.9427 15.258 30.5827C12.218 29.2227 8.49804 29.5127 5.70804 31.3327C2.72804 33.2727 0.95806 36.7327 0.47806 40.2627C-0.00193955 43.7927 0.778065 47.3528 1.85807 50.7428L1.84806 50.7327Z" fill="white"/>
</svg>
