<svg width="188" height="185" viewBox="0 0 188 185" fill="none" xmlns="http://www.w3.org/2000/svg">
<g clip-path="url(#clip0_47_6114)">
<path d="M164.52 64.2433L146.249 57.643C152.855 52.2252 155.676 43.6317 153.654 35.4657C149.68 19.4217 129.97 13.3311 117.518 24.2566L104.903 35.3248L102.408 18.7254C99.9403 2.38289 80.8777 -5.47961 67.4672 4.25818C60.7618 9.12708 57.1948 17.5204 58.7766 26.0427L41.5506 19.8199C33.0755 16.7576 23.6689 21.1109 20.5836 29.5237L13.1242 49.8654C12.0943 52.674 13.5534 55.78 16.3835 56.8018C17.5314 57.2162 100.385 87.1472 101.601 87.5866C98.1532 87.5866 22.6383 87.5866 19.316 87.5866C16.3045 87.5866 13.8632 90.0096 13.8632 92.9986V168.765C13.8632 177.717 21.2014 185 30.221 185H73.8421H95.6526H139.274C148.293 185 155.631 177.717 155.631 168.765V107.105L159.85 108.629C162.666 109.647 165.804 108.215 166.838 105.395L174.298 85.053C177.382 76.6402 172.996 67.3052 164.52 64.2433ZM68.389 174.177H30.2207C27.214 174.177 24.7679 171.749 24.7679 168.765V98.4105H68.389V174.177ZM90.1995 174.177H79.2944V98.4105H90.1995V174.177ZM124.741 32.3663C131.066 26.8159 141.052 29.9295 143.064 38.0503C145.209 46.7088 136.777 54.2165 128.338 51.1727C121.159 48.5794 117.795 47.3643 110.607 44.7674L124.741 32.3663ZM73.9058 12.9944C80.7207 8.04635 90.3742 12.0614 91.6233 20.3304L94.4192 38.9189C92.4067 38.1919 78.6697 33.2291 76.6904 32.5144C68.2503 29.4637 66.6561 18.2575 73.9058 12.9944ZM76.4745 66.9912L25.2368 48.4815L30.8315 33.2255C31.86 30.4212 34.9955 28.9709 37.8205 29.9909C43.5543 32.062 82.1657 46.0104 83.9338 46.6492L76.4745 66.9912ZM96.9697 74.3956L86.7221 70.6934L94.1818 50.3517L104.429 54.0539L96.9697 74.3956ZM144.726 168.765C144.726 171.749 142.28 174.177 139.273 174.177H101.105V98.4105H131.563L144.726 103.166V168.765H144.726ZM164.049 81.3504L158.455 96.6068L107.217 78.097L114.677 57.7553L160.791 74.4136C163.616 75.4344 165.078 78.5465 164.049 81.3504Z" fill="black" fill-opacity="0.8"/>
</g>
<defs>
<clipPath id="clip0_47_6114">
<rect width="186.393" height="185" fill="white" transform="translate(0.843262)"/>
</clipPath>
</defs>
</svg>
