<svg width="120" height="224" viewBox="0 0 120 224" fill="none" xmlns="http://www.w3.org/2000/svg">
<path d="M120 83.9883V211.988C120 215.171 118.736 218.223 116.485 220.474C114.235 222.724 111.183 223.988 108 223.988C104.818 223.988 101.765 222.724 99.5148 220.474C97.2644 218.223 96.0001 215.171 96.0001 211.988V160H12.0001C10.0809 160 8.18978 159.539 6.48531 158.657C4.78085 157.775 3.31278 156.497 2.20428 154.931C1.09578 153.364 0.379175 151.554 0.114594 149.654C-0.149988 147.753 0.0451713 145.816 0.683693 144.006L48.6808 8.00636C49.7399 5.00506 51.948 2.54744 54.8192 1.17416C56.2409 0.494177 57.7825 0.100873 59.3562 0.0167024C60.9299 -0.0674685 62.5047 0.159142 63.9908 0.683595C65.4769 1.20805 66.8451 2.02007 68.0174 3.07331C69.1897 4.12654 70.143 5.40036 70.823 6.82203C71.503 8.2437 71.8963 9.78538 71.9805 11.3591C72.0646 12.9327 71.838 14.5076 71.3136 15.9937L28.9601 136H96.0001V83.9883C96.0001 80.8057 97.2644 77.7534 99.5148 75.503C101.765 73.2526 104.818 71.9883 108 71.9883C111.183 71.9883 114.235 73.2526 116.485 75.503C118.736 77.7534 120 80.8057 120 83.9883Z" fill="#AD1581"/>
</svg>
