<?xml version="1.0" encoding="UTF-8"?>
<svg xmlns="http://www.w3.org/2000/svg" xmlns:xlink="http://www.w3.org/1999/xlink" viewBox="0 0 1631.78 1110.49">
  <defs>
    <style>
      .cls-1 {
        fill: none;
      }

      .cls-2 {
        clip-path: url(#clippath);
      }

      .cls-3 {
        fill: #f4a856;
      }

      .cls-4 {
        fill: #ebf4ff;
      }

      .cls-5 {
        fill: #e9f3ff;
      }

      .cls-6 {
        fill: #e9f0ff;
      }

      .cls-7 {
        fill: #e3eeff;
      }

      .cls-8 {
        fill: #eabc54;
      }

      .cls-9 {
        fill: #e5994c;
      }

      .cls-10 {
        fill: #fff;
      }

      .cls-11 {
        fill: #ffda81;
      }

      .cls-12 {
        fill: #ffe7b0;
      }

      .cls-13 {
        fill: #e5b855;
      }

      .cls-14 {
        fill: #ffb25f;
      }

      .cls-15 {
        fill: #658ec1;
      }

      .cls-16 {
        fill: #8243c5;
      }

      .cls-17 {
        fill: #7474ce;
      }

      .cls-18 {
        fill: #685814;
      }

      .cls-19 {
        fill: #804344;
      }

      .cls-20 {
        fill: #9e882a;
      }

      .cls-21 {
        fill: #84a8f8;
      }

      .cls-22 {
        fill: #934331;
      }

      .cls-23 {
        fill: #b5b535;
      }

      .cls-24 {
        fill: #9e452d;
      }

      .cls-25 {
        fill: #8dbbff;
      }

      .cls-26 {
        fill: #bc5835;
      }

      .cls-27 {
        fill: #9393e5;
      }

      .cls-28 {
        fill: #ce6849;
      }

      .cls-29 {
        fill: #b0ede1;
      }

      .cls-30 {
        fill: #a9a9ff;
      }

      .cls-31 {
        fill: #afccff;
      }

      .cls-32 {
        fill: #a4c1ea;
      }

      .cls-33 {
        fill: #d6e6ff;
      }

      .cls-34 {
        fill: #ce5f3c;
      }

      .cls-35 {
        fill: #ccc952;
      }

      .cls-36 {
        fill: #c93;
      }

      .cls-37 {
        fill: #d16543;
      }

      .cls-38 {
        fill: #c99b3f;
      }

      .cls-39, .cls-40 {
        fill: #d1dfff;
      }

      .cls-41 {
        fill: #c62914;
      }

      .cls-42 {
        fill: #ad553a;
      }

      .cls-43 {
        fill: #d4e6ff;
      }

      .cls-44 {
        fill: #d2e9ff;
      }

      .cls-45 {
        fill: #442723;
      }

      .cls-46 {
        fill: #1c100f;
      }

      .cls-47 {
        fill: #965ae2;
      }

      .cls-48 {
        fill: #541e22;
      }

      .cls-49 {
        fill: #9b452a;
      }

      .cls-50 {
        fill: #5b93d6;
      }

      .cls-51 {
        fill: #58997b;
      }

      .cls-52 {
        fill: #351e1a;
      }

      .cls-53 {
        fill: #84701e;
      }

      .cls-54 {
        fill: #6330a5;
      }

      .cls-55 {
        fill: #5f95f8;
      }

      .cls-56 {
        fill: #843523;
      }

      .cls-57 {
        fill: #79e0cd;
      }

      .cls-40 {
        mix-blend-mode: multiply;
      }

      .cls-58 {
        clip-path: url(#clippath-1);
      }

      .cls-59 {
        clip-path: url(#clippath-4);
      }

      .cls-60 {
        clip-path: url(#clippath-3);
      }

      .cls-61 {
        clip-path: url(#clippath-2);
      }

      .cls-62 {
        clip-path: url(#clippath-7);
      }

      .cls-63 {
        clip-path: url(#clippath-8);
      }

      .cls-64 {
        clip-path: url(#clippath-6);
      }

      .cls-65 {
        clip-path: url(#clippath-5);
      }

      .cls-66 {
        clip-path: url(#clippath-9);
      }

      .cls-67 {
        clip-path: url(#clippath-20);
      }

      .cls-68 {
        clip-path: url(#clippath-21);
      }

      .cls-69 {
        clip-path: url(#clippath-24);
      }

      .cls-70 {
        clip-path: url(#clippath-23);
      }

      .cls-71 {
        clip-path: url(#clippath-22);
      }

      .cls-72 {
        clip-path: url(#clippath-14);
      }

      .cls-73 {
        clip-path: url(#clippath-13);
      }

      .cls-74 {
        clip-path: url(#clippath-12);
      }

      .cls-75 {
        clip-path: url(#clippath-10);
      }

      .cls-76 {
        clip-path: url(#clippath-15);
      }

      .cls-77 {
        clip-path: url(#clippath-17);
      }

      .cls-78 {
        clip-path: url(#clippath-16);
      }

      .cls-79 {
        clip-path: url(#clippath-19);
      }

      .cls-80 {
        clip-path: url(#clippath-11);
      }

      .cls-81 {
        clip-path: url(#clippath-18);
      }

      .cls-82 {
        isolation: isolate;
      }
    </style>
    <clipPath id="clippath">
      <polygon class="cls-1" points="430.01 580.65 885.55 580.65 907.98 326.84 644.33 0 438.57 61.34 379.09 414.25 430.01 580.65"/>
    </clipPath>
    <clipPath id="clippath-1">
      <path class="cls-1" d="M619.02,58.04s-8.14-25.45-29.69-20.19c-21.55,5.26-13.03,10.01-37.22,12.22-24.19,2.2-48.45,23.07-41.33,64.3,7.13,41.23,3.73,45.3,.51,53.95-3.22,8.65-12.37,25.01,1.11,41.01,0,0,84.49-27.33,149.08,14.1,0,0,22.52-21.18,12.85-49.17-9.67-27.99-15.44-15.61-19.68-38.85-4.24-23.24,6.11-46.66-11.03-64.47-17.13-17.81-24.6-12.89-24.6-12.89Z"/>
    </clipPath>
    <clipPath id="clippath-2">
      <path class="cls-1" d="M517.21,446.16s-38.92-4.68-44.77-3.92c0,0,23.41-57.26,26.98-88.56,0,0,13.49,48.35,16.29,58.28,0,0,93.9,16.29,145.56-2.04,21.41-47.2,14.19-72.14,9.16,5.85,49.79,94.27,17.85,58.54,49.12,83.22,0,0,.51-80.16,14.76-97.72,0,0,12.72-104.34-36.9-155.49,0,0-68.71-73.8-180.94-37.41,0,0-84.74,15.27-98.99,148.11,0,0-10.18,84.49-7.13,110.95,0,0,53.4,73.8,106.86,74.56v-95.84Z"/>
    </clipPath>
    <clipPath id="clippath-3">
      <path class="cls-1" d="M860.36,351.04s-2.8-2.54-10.94-2.54-16.29-4.07-22.4-2.04c-6.11,2.04-31.55,24.18-36.39,26.72-4.84,2.54-64.64,31.81-69.98,33.85-5.34,2.04-14.84,35.11-7.38,60.31,0,0,89.83-70.24,91.87-71.25,0,0,27.99,11.96,30.29,12.72,2.29,.76,30.03-25.19,30.03-25.96s-18.32-4.84-22.9-8.14c-4.58-3.31-15.01-7.63-15.01-7.63l6.11-8.4s22.9,3.56,26.72-7.63Z"/>
    </clipPath>
    <clipPath id="clippath-4">
      <path class="cls-28" d="M659.25,456.24s-10.58-10.85-12.31-11.51c-1.73-.66-21.09-7.39-29.9-8.89-8.81-1.51-51.15,19.2-61.24,20.66-10.08,1.45-47.55-5.52-47.55-5.52,0,0-6.78,29.06-5.37,42.71,0,0,58.38-7.87,68.46-9.33,0,0,14.81,6.09,27.79,.54,35.69,15.82,39.72,8.87,28.04,.56l-5.13-2.73c21.32,7.58,28.68,3.15,22.97-2.93,17.03-.91-4.72-11.17-7.71-14.69-1.63-1.92-21.78-14.34-21.78-14.34l23.84,2s12.19,9.96,19.88,3.46Z"/>
    </clipPath>
    <clipPath id="clippath-5">
      <rect class="cls-10" x="426.44" y="547.85" width="504.08" height="6.17"/>
    </clipPath>
    <clipPath id="clippath-6">
      <path class="cls-1" d="M1100.99,213.39s6.81-26.62,29.25-22.54c22.44,4.08,13.99,9.48,38.96,10.27,24.97,.79,51.15,20.73,46.35,63.48-4.8,42.76-1.06,46.73,2.77,55.42,3.84,8.69,14.22,24.91,1.36,42.16,0,0-88.4-22.9-152.17,23.57,0,0-24.41-20.36-16.19-49.69,8.22-29.33,14.9-16.96,17.83-41.08,2.93-24.12-9.12-47.52,7.38-66.86,16.5-19.33,24.46-14.73,24.46-14.73Z"/>
    </clipPath>
    <clipPath id="clippath-7">
      <path class="cls-1" d="M1021.65,390.61c-8.56-1.65-16.75,3.6-16.75,3.6-21.08,27.97,2.47,51.64,28.3,50.96l.73,3.44c7.88,1.7,23.91,.63,31.66-2.23l4.25-62.29c-53.95,5.37-49.46,.58-48.19,6.53Zm-4.54,9.54c0,.11,3.4-2.18,7.04,2.25l7.05,33.31c-37.39-11.21-23.31-27.98-14.09-35.57Z"/>
    </clipPath>
    <clipPath id="clippath-8">
      <path class="cls-19" d="M744.14,1005.22c-6.98,4.03-52.34,54.22-73.81,50.73-36.49-9.88-41.19,30.09,33.55,32.48,33.55,1.07,85.62-7.78,94.2-5.1,12.98,4.06,11.98-52.52-1.34-57.97-37.35-15.28-40.26-27.25-52.6-20.13Z"/>
    </clipPath>
    <clipPath id="clippath-9">
      <path class="cls-53" d="M879.64,684.75c-72.51,14.15-58.87,40.86-66.42,74.28-4.23,18.72-49.51,208.32-56.16,221.01,0,0,7.25,24.76,53.74,12.07,0,0,25.37-53.74,35.02-65.82,9.66-12.08,39.19-87.04,39.85-140.7,0,0,3.62-19.93,47.7-22.34,0,0-39.85-77.29-53.74-78.5Z"/>
    </clipPath>
    <clipPath id="clippath-10">
      <path class="cls-20" d="M1060.04,616.41s3.21,30.86-5.15,36c0,0-149.79-10.93-164.58,0-14.79,10.93-46.29,43.72-13.5,82.29,32.79,38.58,149.79,197.37,154.94,214.73,0,0,36.64-.64,48.22-31.5,0,0-48.86-135.65-60.43-153.01,0,0,181.94,16.72,211.51-13.5,0,0,32.79-27.64,9.64-112.51,0,0-133.08-36-180.65-22.5Z"/>
    </clipPath>
    <clipPath id="clippath-11">
      <path class="cls-19" d="M1042.07,993.29c4.57,9.14,29.43,57.72,30.57,68,1.14,10.29-2,32.57,0,39.72,2,7.15,14.86,11.43,22.57,8.57,57.22-21.2,29.19-79.51,32.86-141.16,1.14-19.14,.29-28.86-5.43-36.86-5.72-8-32.29-14.58-47.15-3.14-36.6,58.33-37.53,56.66-33.43,64.87Z"/>
    </clipPath>
    <clipPath id="clippath-12">
      <path class="cls-23" d="M1531.22,639.06s43.23,15.29,78.47-65.05c0,0-75.02,2.17-78.47,65.05Z"/>
    </clipPath>
    <clipPath id="clippath-13">
      <path class="cls-23" d="M1477.46,682.04s15.83,71.41,154.32,51.24c0,0-66.32-99.68-154.32-51.24Z"/>
    </clipPath>
    <clipPath id="clippath-14">
      <path class="cls-1" d="M1427.31,756.36s55.8-47.29-26.62-160.41c0,0-57.27,105.15,26.62,160.41Z"/>
    </clipPath>
    <clipPath id="clippath-15">
      <path class="cls-23" d="M1411.57,803.25s30.05,35.1,101.26-17.33c0,0-66.61-35.85-101.26,17.33Z"/>
    </clipPath>
    <clipPath id="clippath-16">
      <path class="cls-23" d="M1479.51,683.05s41.37-20.58,7.9-102.42c0,0-51.01,55.85-7.9,102.42Z"/>
    </clipPath>
    <clipPath id="clippath-17">
      <path class="cls-23" d="M1278.73,743.39s-30.69,10.86-55.72-46.19c0,0,53.27,1.54,55.72,46.19Z"/>
    </clipPath>
    <clipPath id="clippath-18">
      <path class="cls-23" d="M1316.91,773.91s-11.24,50.7-109.58,36.38c0,0,47.09-70.78,109.58-36.38Z"/>
    </clipPath>
    <clipPath id="clippath-19">
      <path class="cls-23" d="M1352.52,826.68s-39.62-33.58,18.9-113.9c0,0,40.66,74.66-18.9,113.9Z"/>
    </clipPath>
    <clipPath id="clippath-20">
      <path class="cls-1" d="M1363.69,859.97s-21.34,24.92-71.9-12.3c0,0,47.29-25.45,71.9,12.3Z"/>
    </clipPath>
    <clipPath id="clippath-21">
      <path class="cls-1" d="M1315.46,774.62s-29.38-14.62-5.61-72.72c0,0,36.22,39.66,5.61,72.72Z"/>
    </clipPath>
    <clipPath id="clippath-22">
      <path class="cls-23" d="M1365.69,865.08s6.23-43.52,90.16-37.74c0,0-35.21,62.77-90.16,37.74Z"/>
    </clipPath>
    <clipPath id="clippath-23">
      <path class="cls-23" d="M1352.77,827.52s-20.28,25.47-71.73-9.65c0,0,45.99-26.92,71.73,9.65Z"/>
    </clipPath>
    <clipPath id="clippath-24">
      <path class="cls-11" d="M1291.27,919.02l32.5,165.91h122.19l32.5-165.91h-187.18Z"/>
    </clipPath>
  </defs>
  <g class="cls-82">
    <g id="_Слой_2" data-name="Слой 2">
      <g id="_лой_1" data-name="—лой_1">
        <g>
          <g>
            <g>
              <g>
                <rect class="cls-43" x="72.13" y="1000.08" width="447.43" height="66.09"/>
                <rect class="cls-5" x="72.13" y="1002.79" width="203.04" height="60.97"/>
                <g>
                  <path class="cls-27" d="M527.4,999.18c0,9.7,16.7,6.31-454.74,6.31-6.77,0-8.34-6.31-7.73-6.31,0-9.68-16.7-6.3,454.73-6.3,7.72,0,7.64,6.3,7.73,6.3Z"/>
                  <path class="cls-30" d="M271.65,1005.49H68.45c-4.75,0-4.59-12.62,0-12.62h203.2c4.63,0,4.6,12.62,0,12.62Z"/>
                </g>
                <g>
                  <path class="cls-27" d="M527.4,1067.2c0,9.69,16.7,6.31-454.74,6.31-6.77,0-8.34-6.31-7.73-6.31,0-9.68-16.7-6.31,454.73-6.31,7.72,0,7.64,6.31,7.73,6.31Z"/>
                  <path class="cls-30" d="M271.65,1073.5H68.45c-4.75,0-4.59-12.61,0-12.61h203.2c4.63,0,4.6,12.61,0,12.61Z"/>
                </g>
                <g>
                  <g>
                    <path class="cls-40" d="M519.56,1014.99c-481.55,0-447.43,1.65-447.43-2.98,481.55,0,447.43-1.64,447.43,2.98Z"/>
                    <path class="cls-40" d="M519.88,1019.93c-481.55,0-447.43,1.64-447.43-2.98,481.54,0,447.43-1.65,447.43,2.98Z"/>
                  </g>
                  <g>
                    <path class="cls-40" d="M519.39,1025.15c-481.54,0-447.43,1.64-447.43-2.98,481.55,0,447.43-1.65,447.43,2.98Z"/>
                    <path class="cls-40" d="M519.72,1030.09c-481.55,0-447.43,1.65-447.43-2.98,481.55,0,447.43-1.64,447.43,2.98Z"/>
                  </g>
                </g>
                <g>
                  <g>
                    <path class="cls-40" d="M519.8,1035.41c-481.54,0-447.43,1.64-447.43-2.98,481.55,0,447.43-1.65,447.43,2.98Z"/>
                    <path class="cls-40" d="M520.12,1040.35c-481.55,0-447.43,1.64-447.43-2.98,481.54,0,447.43-1.64,447.43,2.98Z"/>
                  </g>
                  <g>
                    <path class="cls-40" d="M519.64,1045.56c-481.55,0-447.43,1.64-447.43-2.98,481.55,0,447.43-1.65,447.43,2.98Z"/>
                    <path class="cls-40" d="M519.96,1050.5c-481.54,0-447.43,1.65-447.43-2.98,481.54,0,447.43-1.64,447.43,2.98Z"/>
                  </g>
                </g>
              </g>
              <path class="cls-51" d="M435.68,1030.09s13.88,17.5,16.9,66.71c22.04-6.96,13.75-6.07,36.2-2.82,0,0,.6-39.29-15.69-63.89h-37.41Z"/>
            </g>
            <g>
              <path class="cls-43" d="M61.2,851.78s18.78,37.86,0,76.8l239.66,2.79v-79.59H61.2Z"/>
              <path class="cls-5" d="M300.86,851.78v79.59h179.95s-24.28-47.37,0-79.59h-179.95Z"/>
              <g>
                <g>
                  <g>
                    <path class="cls-40" d="M468.63,876.43c-429.06,0-398.12,1.54-398.12-2.77,429.06,0,398.12-1.54,398.12,2.77Z"/>
                    <path class="cls-40" d="M468.91,881.04c-429.06,0-398.11,1.54-398.11-2.78,429.06,0,398.11-1.54,398.11,2.78Z"/>
                  </g>
                  <g>
                    <path class="cls-40" d="M468.48,885.89c-429.06,0-398.12,1.54-398.12-2.77,429.07,0,398.12-1.54,398.12,2.77Z"/>
                    <path class="cls-40" d="M468.77,890.49c-429.06,0-398.12,1.54-398.12-2.78,429.06,0,398.12-1.53,398.12,2.78Z"/>
                  </g>
                </g>
                <g>
                  <g>
                    <path class="cls-40" d="M468.63,895.43c-429.06,0-398.12,1.54-398.12-2.78,429.06,0,398.12-1.54,398.12,2.78Z"/>
                    <path class="cls-40" d="M468.91,900.04c-429.06,0-398.11,1.54-398.11-2.78,429.06,0,398.11-1.53,398.11,2.78Z"/>
                  </g>
                  <g>
                    <path class="cls-40" d="M468.48,904.89c-429.06,0-398.12,1.54-398.12-2.78,429.07,0,398.12-1.54,398.12,2.78Z"/>
                    <path class="cls-40" d="M468.77,909.49c-429.06,0-398.12,1.54-398.12-2.78,429.06,0,398.12-1.54,398.12,2.78Z"/>
                  </g>
                </g>
              </g>
              <g>
                <rect class="cls-25" x="55.46" y="846.73" width="429.77" height="10.09"/>
                <rect class="cls-50" x="54.94" y="846.73" width="245.66" height="10.09"/>
              </g>
              <g>
                <rect class="cls-25" x="55.72" y="926.33" width="429.78" height="10.09"/>
                <rect class="cls-50" x="55.2" y="926.33" width="245.66" height="10.09"/>
              </g>
            </g>
            <g>
              <g>
                <path class="cls-43" d="M15.06,939.83s18.84,24.34,0,48.48H255.48v-48.48H15.06Z"/>
                <path class="cls-5" d="M255.48,939.83v48.48h180.51s-24.36-28.5,0-48.48H255.48Z"/>
                <g>
                  <g>
                    <g>
                      <path class="cls-40" d="M423.78,955.12c-429.51,0-399.38,.95-399.38-1.72,429.5,0,399.38-.95,399.38,1.72Z"/>
                      <path class="cls-40" d="M424.07,957.97c-429.5,0-399.38,.95-399.38-1.72,429.5,0,399.38-.95,399.38,1.72Z"/>
                    </g>
                    <g>
                      <path class="cls-40" d="M423.63,960.98c-429.5,0-399.38,.95-399.38-1.72,429.5,0,399.38-.95,399.38,1.72Z"/>
                      <path class="cls-40" d="M423.92,963.83c-429.5,0-399.38,.95-399.38-1.71,429.5,0,399.38-.95,399.38,1.71Z"/>
                    </g>
                  </g>
                  <g>
                    <g>
                      <path class="cls-40" d="M423.78,966.9c-429.51,0-399.38,.95-399.38-1.72,429.5,0,399.38-.95,399.38,1.72Z"/>
                      <path class="cls-40" d="M424.07,969.76c-429.5,0-399.38,.95-399.38-1.73,429.5,0,399.38-.95,399.38,1.73Z"/>
                    </g>
                    <g>
                      <path class="cls-40" d="M423.63,972.76c-429.5,0-399.38,.95-399.38-1.72,429.5,0,399.38-.95,399.38,1.72Z"/>
                      <path class="cls-40" d="M423.92,975.61c-429.5,0-399.38,.95-399.38-1.72,429.5,0,399.38-.95,399.38,1.72Z"/>
                    </g>
                  </g>
                </g>
                <g>
                  <path class="cls-25" d="M440.44,942.96c-478.84,0-431.14,2.8-431.14-6.26,478.84,0,431.14-2.8,431.14,6.26Z"/>
                  <path class="cls-50" d="M255.22,942.96c-273.83,0-246.44,2.8-246.44-6.26,273.82,0,246.44-2.8,246.44,6.26Z"/>
                </g>
                <g>
                  <path class="cls-25" d="M440.7,992.31c-478.84,0-431.14,2.8-431.14-6.26,478.84,0,431.14-2.8,431.14,6.26Z"/>
                  <path class="cls-50" d="M255.48,992.31c-273.83,0-246.44,2.8-246.44-6.26,273.83,0,246.44-2.8,246.44,6.26Z"/>
                </g>
              </g>
              <path class="cls-17" d="M125.52,960.98s-32.18,28-33.5,57.11c0,0,18.39-4.59,24.63,1.39,0,0,6.56-42.74,45.64-58.5h-36.78Z"/>
            </g>
          </g>
          <g>
            <polygon class="cls-32" points="112.41 123.44 356.29 726.83 1419.56 726.83 1186.41 123.44 112.41 123.44"/>
            <polygon class="cls-7" points="364.09 715.26 129.57 135.01 1178.47 135.01 1402.68 715.26 364.09 715.26"/>
            <polygon class="cls-15" points="264.2 210.67 419.6 581.52 985.9 581.52 835.87 216.84 264.2 210.67"/>
            <polygon class="cls-32" points="427.3 569.94 281.68 222.44 828.08 228.33 968.63 569.94 427.3 569.94"/>
            <g class="cls-2">
              <g>
                <path class="cls-52" d="M510.85,91.64s-6.95,17.49-7.21,47.58c-.26,30.09-18,34.72-16.97,45.52,1.03,10.8,1.42,26.06,19.87,29.49,0,0,26.46-10.35,27.08-10.49,.62-.15-22.77-112.1-22.77-112.1Z"/>
                <path class="cls-52" d="M619.53,58.55s-8.14-25.45-29.69-20.19c-21.55,5.26-13.03,10.01-37.22,12.22-24.19,2.21-48.45,23.07-41.33,64.3,7.13,41.23,3.73,45.3,.51,53.95-3.22,8.65-12.37,25.01,1.11,41,0,0,84.49-27.33,149.08,14.1,0,0,22.52-21.18,12.85-49.17-9.67-27.99-15.44-15.61-19.68-38.85-4.24-23.24,6.11-46.66-11.03-64.47-17.13-17.81-24.6-12.89-24.6-12.89Z"/>
                <g class="cls-58">
                  <g>
                    <path class="cls-45" d="M611.9,60.21s-.84-5.48-4.57-6.5c-3.73-1.02-7.46,24.26-26.64,23.07-19.17-1.19-23.34-3.73-23.34-3.73,0,0,1.62,8.31,13.16,11.37,0,0-16.96,14.25-30.71,10.01,0,0,10.35,6.62,22.4,5.09,0,0-.17,17.13-14.25,21.55,0,0,11.88,13.74,22.39,7.46,10.52-6.28,40.35-64.2,41.55-68.32Z"/>
                    <path d="M611.02,57.37s13.95,3.31,25.06,22.99c11.11,19.68,6.7,58.7,3.98,80.08-2.72,21.38,9.5,25.11,10.86,38,1.36,12.89-3.73,21.04-3.73,21.04l-49.62-12.56c-6.03-45.24-7.44-15.17,13.45-149.55Z"/>
                  </g>
                </g>
                <path class="cls-28" d="M602.74,175.45l7,28.29s-33.14,16.06-55.7-2.72l-1.42-55.42,18.39-.85,31.72,30.71Z"/>
                <path class="cls-22" d="M604.75,183.59s-31.34-.18-52.13-24.78v-13.23l17.54-.85c38.54,35.87,32.69,28.22,34.59,38.85Z"/>
                <path class="cls-16" d="M661.08,406.61s83.47,123.08,69.55,268.98c0,0-231.75,19.34-274.5-6.45,0,0,14.25-161.85,58.53-258.56,0,0,119.62,15.47,146.42-3.98Z"/>
                <path class="cls-28" d="M604.86,56.09s33.85,11.71,29.27,64.89c1.28,74.7-60.23,75.66-76.6,3.56,0,0,21.38-15.27,26.21-36.9,0,0,19.09-11.45,21.12-31.56Z"/>
                <path class="cls-52" d="M596.04,101.88s.55,3.05-.98,4.96c0,0-8.4-4.07-12.09-3.56-9.55,1.32-11.6,7.29-4.12-4.48,0,0,5.82-.61,6.37-.48,.55,.13,8.74,1.65,10.81,3.56Z"/>
                <path class="cls-49" d="M595.06,115.48s2.04-7.64,0-10.18c-11.47-4.76-10.51-4.17-20.75-.9,0,0-4.64,5.76-4.83,5.98-.19,.21,2.63,3.36,5.47,3.49,2.84,.13,8.14-6.53,11.71-4.24,3.56,2.29,8.4,5.85,8.4,5.85Z"/>
                <path class="cls-49" d="M614.02,106.66c2.54-4.25,5.39-8.1,20.38-.71,0,0,.28,3.9-.01,6.77-4.52-.15-3.63-1.01-5.66-.73-2.67-2.14-5.84-4.28-7.07-3.6-2.29,1.27-8.02,4.52-8.78,7.29,0,0-1.4-4.76,1.15-9.01Z"/>
                <g>
                  <path d="M595.06,115.48c-14.65-14.44-14.7,1.3-22.29-2.24,0,0,5.38,3.3,9.95-.92,0,0,3.81-2.18,12.34,3.16Z"/>
                  <path d="M582.72,116.95c0,8.32,4.7,8.42,4.7,0s-4.7-8.41-4.7,0Z"/>
                </g>
                <g>
                  <path d="M612.94,114.25c14.66-14.44,14.7,1.3,22.29-2.24,0,0-5.38,3.3-9.96-.92,0,0-3.81-2.18-12.34,3.16Z"/>
                  <path d="M625.28,115.72c0,8.33-4.7,8.42-4.7,0s4.7-8.41,4.7,0Z"/>
                </g>
                <g>
                  <path class="cls-11" d="M417.47,356.48c14.25-132.84,98.99-148.11,98.99-148.11,112.23-36.39,180.94,37.41,180.94,37.41,49.62,51.15,36.9,155.49,36.9,155.49-14.25,17.56-14.76,97.72-14.76,97.72-31.25-24.67,.6,10.93-49.12-83.22,5.03-78.02,12.24-53.04-9.16-5.85-51.66,18.32-145.56,2.04-145.56,2.04-2.8-9.92-16.29-58.28-16.29-58.28-3.56,31.3-26.98,88.56-26.98,88.56,5.09-.66,35.13,2.78,42.92,3.7,.09,1.35,.7,2.63,1.85,3.36,0,120.85,1.05,80.41-4,92.49-52.09-4.21-102.86-74.36-102.86-74.36-3.05-26.47,7.13-110.95,7.13-110.95Z"/>
                  <g class="cls-61">
                    <path class="cls-13" d="M479.56,282.17s5.09,15.78,16.29,23.92c0,0-3.28,35.35,6.51,58.14l-29.92,78.01s-14.25-7.89-28.5,0c0,0,35.12-78.63,35.63-160.07Z"/>
                    <path class="cls-28" d="M670.43,213.97s-69.73,47.33-203.08-3.56c0,0,140.98-43.77,203.08,3.56Z"/>
                  </g>
                </g>
                <path class="cls-13" d="M502.92,493.68c0,63.98,21.72,64.55,21.72,0s-21.72-64.55-21.72,0Z"/>
                <path class="cls-36" d="M524.62,490.75l-20.51,24.86s-1.32-16.69-1.22-21.92c.1-5.23,21.74-2.94,21.74-2.94Z"/>
                <path class="cls-11" d="M726.31,509.55s-18.46-10.03-21.35-12.89c-42.68-107.47-36.72-60.39-33.61-91.87l54.96,104.76Z"/>
                <path class="cls-13" d="M710.62,455.75c1.81,72.13,33.18,71.31,31.38-.79-1.8-71.68-33.2-71.69-31.38,.79Z"/>
                <g>
                  <g>
                    <path class="cls-28" d="M860.36,351.04s-2.8-2.54-10.94-2.54-16.29-4.07-22.4-2.04c-6.11,2.04-31.55,24.18-36.39,26.72-4.84,2.54-64.64,31.81-69.98,33.85-5.34,2.04-14.84,35.11-7.38,60.31,0,0,89.83-70.24,91.87-71.25,0,0,27.99,11.96,30.29,12.72,2.29,.76,30.03-25.19,30.03-25.96s-18.32-4.84-22.9-8.14c-4.58-3.31-15.01-7.63-15.01-7.63l6.11-8.4s22.9,3.56,26.72-7.63Z"/>
                    <path class="cls-24" d="M870.92,387.68s8.27-14,14.63-8.78c0,0-2.93,15.27-15.52,25.07,0,0-2.8,3.05-9.8,1.53-4.72,.34-9.21,2.52-12.47,1.11,0,0-4.58,3.47-8.91,1.3,0,0-6.74,5.04-15.21-3.97,0,0,10.24-22.62,14.82-19.57,0,0,3.43,1.02,1.65,7.76,0,0,6.11-15.38,12.21-12.52,0,0,1.52,6.34-2.93,18.47,0,0,15.66-21.85,18.33-22.23,2.67-.38,5.6-.51,3.18,11.83Z"/>
                    <g class="cls-60">
                      <path class="cls-24" d="M810.23,401.94c-2.09-4.97-12.36-10.34-17.3-12.47,0,0-57.14,49.14-85.25,51.41,0,0-.17,27.99,6.62,34.35,6.78,6.37,95.94-73.29,95.94-73.29Z"/>
                    </g>
                  </g>
                  <g>
                    <path class="cls-56" d="M795.48,383.63c14.5-12.37,30.34-2.86,30.99-4.24-.17-.08-17.49-7.95-31.32,3.86l.33,.39Z"/>
                    <path class="cls-56" d="M859.53,406.22c11.88-19.79,10.88-17.7,10.25-18.08-11.88,19.8-10.88,17.7-10.25,18.08Z"/>
                    <path class="cls-56" d="M847.09,407.28c4.2-13.73,4.9-11.89,3.82-12.34-2.04,4.81-4.29,12.12-4.31,12.2l.49,.15Z"/>
                    <path class="cls-56" d="M837.33,408.21c1.84-3.61,2.24-15.27,2.26-15.76l-.51-.02c-.65,17.28-3.19,15.04-1.75,15.78Z"/>
                  </g>
                </g>
                <path class="cls-36" d="M742.05,445.37s-20.16,39.04-25.87,44.89c0,0-3.68-6.12-2.91-22.92l28.79-21.97Z"/>
                <path class="cls-13" d="M733.43,401.1s-21.95-7.15-47.39-3.92c0,0,32.93-18.95,49.67-19.95,0,0,.84,21.01-2.28,23.87Z"/>
                <path class="cls-13" d="M690.45,279.27s-1.36,12.89-9.16,21.04c0,0,11.7,29.88-5.52,65.33,0,0-12.91,40.65-13.71,42.47-.8,1.81,6.11,9.37,14.19,22.89,0,0-1.56-21.27,15.82-37.13,0,0,9.57-16.87-1.62-114.59Z"/>
                <path class="cls-13" d="M687.06,397.35s24.5-50.35,29.52-33.59c5.02,16.76-29.52,33.59-29.52,33.59Z"/>
                <path class="cls-13" d="M472.44,442.24s-31.38-.48-33.76,13.12c-2.38,13.6,33.76-13.12,33.76-13.12Z"/>
                <path class="cls-13" d="M472.44,442.24s-8.31,9.84-6.27,25.57c2.04,15.73,6.27-25.57,6.27-25.57Z"/>
                <path class="cls-47" d="M661.26,409.92s9.84,10.51,11.88,16.62c0,0-87.52,19.42-165.91,1.57l7.89-18.19s79.99,10.41,146.14,0Z"/>
                <path class="cls-54" d="M659.25,456.24s-15.62,12.54-16.3,14.49c-.68,1.95,2.88,14.84,2.88,14.84,0,0-12.93,9.19-16.61,9.01-3.67-.18-11.38,1.85-21.22,3.21-9.84,1.36-16.39-1.7-27.03,0-10.63,1.7-21.49,.04-25.9,.36-4.41,.32-51.58,8.83-51.58,8.83l.37-32.85,113.31-30.29,42.09,12.4Z"/>
                <g>
                  <g>
                    <path class="cls-28" d="M659.25,456.24s-10.58-10.85-12.31-11.51c-1.73-.66-21.09-7.39-29.9-8.89-8.81-1.51-51.15,19.2-61.24,20.66-10.08,1.45-47.55-5.52-47.55-5.52,0,0-6.78,29.06-5.37,42.71,0,0,58.38-7.87,68.46-9.33,0,0,14.81,6.09,27.79,.54,35.69,15.82,39.72,8.87,28.04,.56l-5.13-2.73c21.32,7.58,28.68,3.15,22.97-2.93,17.03-.91-4.72-11.17-7.71-14.69-1.63-1.92-21.78-14.34-21.78-14.34l23.84,2s12.19,9.96,19.88,3.46Z"/>
                    <g class="cls-59">
                      <path class="cls-24" d="M577.54,489.59s2.57-.15-17.97-11.06c0,0-47.24,6-67.82-4.41,0,0,.51,30.43,.91,31.74,.4,1.31,84.87-16.27,84.87-16.27Z"/>
                    </g>
                  </g>
                  <path class="cls-24" d="M622.53,483.28c.28-.68,2.55,.49-21.04-9.15-.28,.68-2.56-.5,21.04,9.15Z"/>
                  <path class="cls-24" d="M645.38,480.24c2.04-1.18-16.59-10.07-20.11-11.8-9.65-4.77-8.59-5.22-19.18-7.21l-.09,.5c.09,.02,9.51,1.83,11.37,3.21,1.9,1.42,26.43,12.58,28.01,15.3Z"/>
                </g>
                <path class="cls-52" d="M634.4,106.46c-7.57-4.4-18.91-6.2-19.95,0,0,0-2.6-5.84,1.73-8.64,0,0,9.62-1.43,17.66,2.53,0,0,.96,5.07,.55,6.11Z"/>
                <path class="cls-10" d="M619.24,116.1c0,2.44,3.69,2.45,3.69,0s-3.69-2.44-3.69,0Z"/>
                <path class="cls-10" d="M580.55,117.21c0,2.61,3.95,2.61,3.95,0s-3.95-2.61-3.95,0Z"/>
                <path class="cls-28" d="M608.64,198.49l.88,4.38s-35.12,6.3-55.82-1.35l.23-5.96,54.7,2.93Z"/>
                <path class="cls-52" d="M666.59,222.58c27.7-18.71,11.79-61.38,0-68.92-12.96-8.29-9.03-35.57-8.54-38.65,7.95-49.9-29.03-63.71-38.82-57.42-.41-3.03-3.45-21.01-17.33-23.12-15.22-2.31-29.4,10.6-40.32,11.66-15.81,1.55-33.8,3.15-45.88,17.91-7.99,9.77-10.96,23.5-8.81,40.8,.12,.45,11.34,41.21,3.85,54.45-10.04,17.73-18.02,38.38-2.15,51.49,2.18-2.64-21.92-7.94,2.59-51.24,7.6-13.42-3.32-53.12-3.79-54.8-2.12-17.12,.8-30.72,8.71-40.37,12.11-14.8,31.06-16.32,45.53-17.73,11-1.07,25.24-13.94,40.2-11.66,10.43,1.59,15.98,13.42,17,23.57,8.67-7.23,46.75,5.96,38.72,56.38-.5,3.12-4.47,30.7,8.77,39.16,11.48,7.34,27.45,49.53,0,68.07l.29,.42Z"/>
                <path class="cls-46" d="M516.27,208.53l.39-.32c-10.78-13.03-6.01-32.18,.61-41.02,5.83-7.79,5.48-26.36-1.23-66.24-5.68-33.78,23.37-38.99,42.59-42.44,9.81-1.76,14.59-2.62,20.96-7.88,11.22-9.27,33.8-8.52,35.64,8.58,.07,.67,17.46,2.62,24.5,21.92,6.77,18.56,5.16,35.64,5.14,35.81,1.25,.13,3.86-51.07-29.17-57.97-.28-1.83-3.03-16.24-20.68-14.57-18.78,1.79-11.96,8.68-30.44,12.47-19.26,3.95-55.42,6.34-49.06,44.16,6.68,39.73,7.05,58.19,1.32,65.85-6.71,8.97-11.54,28.41-.59,41.65Z"/>
                <path class="cls-46" d="M652.06,187.19c-11.46-6.1-10.43-25.14-8.78-31.02,1.43-5.1,1.68-23.36,.53-23.31,0,.17,.73,16.92-1.02,23.17-1.67,5.98-2.7,25.36,9.03,31.6,11.1,5.91,.82,27.18,.72,27.4,1.02,.5,11-21.73-.48-27.85Z"/>
                <path class="cls-46" d="M523.36,206.26l.48-.16c-10.88-33.03,17.49-26.7,8.96-71.98-3.45-18.33,3.61-7.26-1.23-26.65-1.61-6.44-3.43-13.73-.78-21.53,5.21-15.37,22.72-14.09,22.9-14.08,3.06,.26,18.51,6.37,31.57,4.93,21.66-2.4,18.1-39.22,28.19-15.44l.47-.2c-.14-.32-3.36-7.84-6.37-7.99-1.8-.06-2.57,2.19-3.89,5.05-7.68,16.68-13.48,23.22-45.33,14.27-11.59-3.26-24.08,1.66-28.02,13.29-4.86,14.32,5.05,26.83,1.78,35.62-3.35,9.02,4.82,17.88,.5,39.36-4.3,21.36-17.99,18.9-9.23,45.5Z"/>
                <path class="cls-46" d="M584.96,86.1c-8.89,8.66-25.2,13.59-45.09,8.08-.48,1.71,25.85,7.64,42.74-5.27-17.19,25.47-31.5,18.92-31.74,20.76,13.82,1.83,26.94-11.64,34.08-23.57Z"/>
                <path class="cls-52" d="M636.54,208.56c5.83-5.24-11.04-24.06-3.71-41.82,3.91-9.48,2.82-23.07,1.47-22.77,.03,.11,2.55,11.68-1.94,22.57-4.17,10.11-2.01,16.23,3.12,31.36,3.87,11.41-.11,9.35,1.06,10.66Z"/>
                <g>
                  <line class="cls-54" x1="687.06" y1="500.67" x2="676.37" y2="515.61"/>
                  <path class="cls-54" d="M676.99,516.06c12.31-17.2,11.18-14.58,9.45-15.83-12.31,17.2-11.18,14.58-9.45,15.83Z"/>
                </g>
                <g>
                  <line class="cls-54" x1="693.62" y1="520.85" x2="698.15" y2="538.65"/>
                  <path class="cls-54" d="M698.89,538.47c-5.21-20.5-3.93-17.95-6-17.43,5.21,20.5,3.93,17.95,6,17.43Z"/>
                </g>
                <g>
                  <line class="cls-54" x1="673.48" y1="533.09" x2="678.01" y2="550.9"/>
                  <path class="cls-54" d="M678.75,550.71c-5.21-20.5-3.93-17.95-6-17.43,5.21,20.5,3.93,17.95,6,17.43Z"/>
                </g>
                <g>
                  <line class="cls-54" x1="651.62" y1="531.44" x2="656.15" y2="549.25"/>
                  <path class="cls-54" d="M656.89,549.06c-5.21-20.5-3.93-17.95-6-17.42,5.21,20.5,3.93,17.95,6,17.42Z"/>
                </g>
                <g>
                  <line class="cls-54" x1="698.96" y1="572.09" x2="686.8" y2="585.86"/>
                  <path class="cls-54" d="M687.38,586.36c13.99-15.85,12.61-13.37,11.01-14.78-13.99,15.85-12.61,13.37-11.01,14.78Z"/>
                </g>
                <g>
                  <line class="cls-54" x1="710.16" y1="626.61" x2="716.16" y2="643.97"/>
                  <path class="cls-54" d="M716.89,643.72c-6.91-19.99-5.42-17.56-7.44-16.86,6.91,19.99,5.42,17.56,7.44,16.86Z"/>
                </g>
                <g>
                  <line class="cls-54" x1="689.88" y1="600.01" x2="695.88" y2="617.37"/>
                  <path class="cls-54" d="M696.6,617.12c-6.91-19.99-5.42-17.56-7.44-16.86,6.91,19.99,5.42,17.56,7.44,16.86Z"/>
                </g>
                <g>
                  <line class="cls-54" x1="675.75" y1="617.93" x2="681.75" y2="635.29"/>
                  <path class="cls-54" d="M682.47,635.04c-6.91-19.99-5.42-17.56-7.44-16.86,6.91,19.99,5.42,17.56,7.44,16.86Z"/>
                </g>
                <g>
                  <line class="cls-54" x1="669.72" y1="569.85" x2="657.57" y2="583.62"/>
                  <path class="cls-54" d="M658.14,584.12c14-15.85,12.61-13.36,11.01-14.78-13.99,15.85-12.61,13.37-11.01,14.78Z"/>
                </g>
                <g>
                  <line class="cls-54" x1="662.22" y1="601.81" x2="650.07" y2="615.57"/>
                  <path class="cls-54" d="M650.64,616.08c14-15.85,12.61-13.37,11.01-14.78-13.99,15.85-12.61,13.37-11.01,14.78Z"/>
                </g>
                <g>
                  <line class="cls-54" x1="668.3" y1="626.7" x2="656.15" y2="640.47"/>
                  <path class="cls-54" d="M656.72,640.98c14-15.85,12.61-13.37,11.01-14.78-13.99,15.85-12.61,13.37-11.01,14.78Z"/>
                </g>
                <g>
                  <line class="cls-54" x1="701.96" y1="644.72" x2="689.81" y2="658.49"/>
                  <path class="cls-54" d="M690.38,659c14-15.85,12.61-13.37,11.01-14.78-14,15.85-12.61,13.37-11.01,14.78Z"/>
                </g>
                <g>
                  <line class="cls-54" x1="676.37" y1="652.11" x2="664.22" y2="665.88"/>
                  <path class="cls-54" d="M664.79,666.39c13.99-15.85,12.61-13.36,11.01-14.78-13.99,15.85-12.61,13.37-11.01,14.78Z"/>
                </g>
                <g>
                  <line class="cls-54" x1="625.17" y1="599.96" x2="630.88" y2="617.42"/>
                  <path class="cls-54" d="M631.6,617.18c-6.58-20.1-5.13-17.65-7.16-16.98,6.58,20.1,5.13,17.65,7.16,16.98Z"/>
                </g>
                <g>
                  <line class="cls-54" x1="637.89" y1="629.18" x2="643.61" y2="646.64"/>
                  <path class="cls-54" d="M644.33,646.4c-6.58-20.1-5.13-17.65-7.16-16.98,6.58,20.1,5.13,17.64,7.16,16.98Z"/>
                </g>
                <g>
                  <line class="cls-54" x1="603.15" y1="633.83" x2="608.86" y2="651.28"/>
                  <path class="cls-54" d="M609.58,651.04c-6.58-20.1-5.13-17.65-7.16-16.98,6.58,20.1,5.13,17.65,7.16,16.98Z"/>
                </g>
                <g>
                  <line class="cls-54" x1="552.33" y1="647.11" x2="558.04" y2="664.57"/>
                  <path class="cls-54" d="M558.76,664.33c-6.58-20.1-5.13-17.65-7.16-16.98,6.58,20.1,5.13,17.65,7.16,16.98Z"/>
                </g>
                <g>
                  <line class="cls-54" x1="519.15" y1="640.8" x2="524.87" y2="658.25"/>
                  <path class="cls-54" d="M525.59,658.02c-6.58-20.1-5.13-17.64-7.16-16.98,6.58,20.1,5.13,17.64,7.16,16.98Z"/>
                </g>
                <g>
                  <line class="cls-54" x1="490.69" y1="642.55" x2="496.4" y2="660.01"/>
                  <path class="cls-54" d="M497.13,659.77c-6.58-20.1-5.13-17.65-7.16-16.98,6.58,20.1,5.13,17.65,7.16,16.98Z"/>
                </g>
                <g>
                  <line class="cls-54" x1="597.3" y1="596.01" x2="603.01" y2="613.47"/>
                  <path class="cls-54" d="M603.74,613.23c-6.58-20.1-5.13-17.65-7.16-16.98,6.58,20.1,5.13,17.64,7.16,16.98Z"/>
                </g>
                <g>
                  <line class="cls-54" x1="578.21" y1="606.31" x2="567.33" y2="621.11"/>
                  <path class="cls-54" d="M567.94,621.56c12.53-17.04,11.37-14.44,9.65-15.7-12.53,17.04-11.37,14.44-9.65,15.7Z"/>
                </g>
                <g>
                  <line class="cls-54" x1="581.23" y1="637.32" x2="570.35" y2="652.12"/>
                  <path class="cls-54" d="M570.97,652.57c12.53-17.04,11.37-14.44,9.65-15.7-12.53,17.04-11.37,14.44-9.65,15.7Z"/>
                </g>
                <g>
                  <line class="cls-54" x1="634.03" y1="639.71" x2="623.15" y2="654.51"/>
                  <path class="cls-54" d="M623.77,654.96c12.53-17.04,11.37-14.44,9.65-15.7-12.53,17.04-11.37,14.44-9.65,15.7Z"/>
                </g>
                <g>
                  <line class="cls-54" x1="642.61" y1="658.48" x2="631.73" y2="673.28"/>
                  <path class="cls-54" d="M632.34,673.73c12.52-17.03,11.37-14.43,9.65-15.7-12.53,17.04-11.37,14.44-9.65,15.7Z"/>
                </g>
                <g>
                  <line class="cls-54" x1="593.55" y1="657.17" x2="582.67" y2="671.97"/>
                  <path class="cls-54" d="M583.29,672.42c12.53-17.04,11.37-14.44,9.65-15.7-12.53,17.04-11.37,14.44-9.65,15.7Z"/>
                </g>
                <g>
                  <line class="cls-54" x1="480.63" y1="631.86" x2="469.76" y2="646.66"/>
                  <path class="cls-54" d="M470.37,647.11c12.53-17.04,11.37-14.44,9.65-15.7-12.53,17.04-11.37,14.44-9.65,15.7Z"/>
                </g>
                <g>
                  <line class="cls-54" x1="549.04" y1="606.31" x2="538.16" y2="621.11"/>
                  <path class="cls-54" d="M538.78,621.56c12.53-17.04,11.37-14.44,9.65-15.7-12.52,17.04-11.37,14.44-9.65,15.7Z"/>
                </g>
                <g>
                  <line class="cls-54" x1="509.75" y1="607.3" x2="517.74" y2="623.84"/>
                  <path class="cls-54" d="M518.43,623.51c-9.19-19.04-7.44-16.8-9.36-15.88,9.2,19.04,7.44,16.8,9.36,15.88Z"/>
                </g>
                <g>
                  <line class="cls-54" x1="485.56" y1="609.66" x2="493.55" y2="626.2"/>
                  <path class="cls-54" d="M494.23,625.87c-9.2-19.04-7.44-16.8-9.36-15.88,9.2,19.04,7.44,16.8,9.36,15.88Z"/>
                </g>
                <g>
                  <line class="cls-54" x1="634.82" y1="569.81" x2="636" y2="588.14"/>
                  <path class="cls-54" d="M636.76,588.09c-1.36-21.1-.57-18.37-2.7-18.23,1.36,21.1,.57,18.37,2.7,18.23Z"/>
                </g>
                <g>
                  <line class="cls-54" x1="612.77" y1="565.68" x2="613.95" y2="584.01"/>
                  <path class="cls-54" d="M614.71,583.96c-1.36-21.1-.57-18.37-2.7-18.23,1.36,21.1,.57,18.37,2.7,18.23Z"/>
                </g>
                <g>
                  <line class="cls-54" x1="589.79" y1="564.87" x2="578.44" y2="579.31"/>
                  <path class="cls-54" d="M579.04,579.78c13.07-16.62,11.83-14.06,10.15-15.38-13.07,16.63-11.83,14.06-10.15,15.38Z"/>
                </g>
                <g>
                  <line class="cls-54" x1="560.86" y1="578.64" x2="549.51" y2="593.08"/>
                  <path class="cls-54" d="M550.11,593.55c13.07-16.62,11.83-14.06,10.15-15.38-13.07,16.62-11.83,14.06-10.15,15.38Z"/>
                </g>
                <g>
                  <line class="cls-54" x1="572.88" y1="537.7" x2="560.73" y2="551.47"/>
                  <path class="cls-54" d="M561.3,551.97c13.99-15.85,12.61-13.37,11.01-14.78-14,15.85-12.61,13.37-11.01,14.78Z"/>
                </g>
                <g>
                  <line class="cls-54" x1="597.53" y1="535.03" x2="609.95" y2="548.55"/>
                  <path class="cls-54" d="M610.52,548.04c-14.31-15.57-11.98-13.94-13.55-12.49,14.31,15.57,11.98,13.93,13.55,12.49Z"/>
                </g>
                <g>
                  <line class="cls-54" x1="640.75" y1="539.35" x2="628.59" y2="553.12"/>
                  <path class="cls-54" d="M629.17,553.62c14-15.85,12.61-13.37,11.01-14.78-13.99,15.85-12.61,13.37-11.01,14.78Z"/>
                </g>
                <g>
                  <line class="cls-54" x1="630.15" y1="503.12" x2="634.67" y2="520.92"/>
                  <path class="cls-54" d="M635.41,520.73c-5.21-20.5-3.93-17.95-6-17.43,5.21,20.5,3.93,17.95,6,17.43Z"/>
                </g>
                <g>
                  <line class="cls-54" x1="603.74" y1="505.54" x2="608.26" y2="523.34"/>
                  <path class="cls-54" d="M609,523.15c-5.21-20.5-3.93-17.95-6-17.43,5.21,20.5,3.93,17.95,6,17.43Z"/>
                </g>
                <g>
                  <line class="cls-54" x1="484.29" y1="575.22" x2="488.81" y2="593.02"/>
                  <path class="cls-54" d="M489.55,592.83c-5.21-20.5-3.93-17.95-6-17.43,5.21,20.5,3.93,17.95,6,17.43Z"/>
                </g>
                <g>
                  <line class="cls-54" x1="511.52" y1="570.41" x2="516.04" y2="588.21"/>
                  <path class="cls-54" d="M516.78,588.02c-5.21-20.5-3.93-17.95-6-17.42,5.21,20.49,3.93,17.95,6,17.42Z"/>
                </g>
                <g>
                  <line class="cls-54" x1="535.14" y1="544.72" x2="539.66" y2="562.52"/>
                  <path class="cls-54" d="M540.4,562.33c-5.21-20.5-3.93-17.95-6-17.42,5.21,20.49,3.93,17.95,6,17.42Z"/>
                </g>
                <g>
                  <line class="cls-54" x1="705.3" y1="557.04" x2="709.82" y2="574.85"/>
                  <path class="cls-54" d="M710.56,574.66c-5.21-20.5-3.93-17.95-6-17.43,5.21,20.5,3.93,17.95,6,17.43Z"/>
                </g>
                <g>
                  <line class="cls-54" x1="575.17" y1="507.01" x2="564.36" y2="521.86"/>
                  <path class="cls-54" d="M564.98,522.31c12.45-17.09,11.31-14.49,9.58-15.74-12.45,17.09-11.31,14.48-9.58,15.74Z"/>
                </g>
                <g>
                  <line class="cls-54" x1="718.57" y1="595.77" x2="707.75" y2="610.62"/>
                  <path class="cls-54" d="M708.37,611.07c12.45-17.09,11.31-14.49,9.58-15.74-12.45,17.09-11.31,14.49-9.58,15.74Z"/>
                </g>
                <g>
                  <line class="cls-54" x1="499.77" y1="549.43" x2="488.95" y2="564.28"/>
                  <path class="cls-54" d="M489.57,564.73c12.45-17.09,11.31-14.49,9.58-15.74-12.45,17.09-11.31,14.48-9.58,15.74Z"/>
                </g>
                <g>
                  <line class="cls-54" x1="665.19" y1="493.21" x2="654.51" y2="508.14"/>
                  <path class="cls-54" d="M655.13,508.59c12.31-17.2,11.18-14.58,9.45-15.83-12.31,17.2-11.18,14.58-9.45,15.83Z"/>
                </g>
                <g>
                  <line class="cls-54" x1="543.6" y1="508.59" x2="532.92" y2="523.52"/>
                  <path class="cls-54" d="M533.54,523.97c12.31-17.2,11.18-14.58,9.45-15.83-12.31,17.2-11.18,14.58-9.45,15.83Z"/>
                </g>
                <g>
                  <line class="cls-54" x1="572.15" y1="431.44" x2="561.46" y2="446.38"/>
                  <path class="cls-54" d="M562.08,446.82c12.3-17.2,11.18-14.58,9.44-15.82-12.3,17.2-11.18,14.58-9.44,15.82Z"/>
                </g>
                <g>
                  <line class="cls-54" x1="599.51" y1="418.19" x2="588.82" y2="433.13"/>
                  <path class="cls-54" d="M589.44,433.58c12.31-17.2,11.18-14.58,9.45-15.83-12.3,17.2-11.18,14.58-9.45,15.83Z"/>
                </g>
                <g>
                  <line class="cls-54" x1="670.29" y1="467.24" x2="682.44" y2="481.02"/>
                  <path class="cls-54" d="M683.02,480.51c-13.99-15.86-11.69-14.18-13.29-12.76,13.99,15.86,11.69,14.18,13.29,12.76Z"/>
                </g>
                <g>
                  <line class="cls-54" x1="528.25" y1="436.95" x2="540.4" y2="450.73"/>
                  <path class="cls-54" d="M540.97,450.22c-13.99-15.86-11.69-14.18-13.29-12.76,13.99,15.86,11.69,14.18,13.29,12.76Z"/>
                </g>
                <g>
                  <line class="cls-54" x1="660.42" y1="436.95" x2="672.57" y2="450.73"/>
                  <path class="cls-54" d="M673.14,450.22c-13.99-15.86-11.69-14.18-13.29-12.76,13.99,15.86,11.69,14.18,13.29,12.76Z"/>
                </g>
                <g>
                  <line class="cls-54" x1="658.59" y1="417.09" x2="646.61" y2="431"/>
                  <path class="cls-54" d="M647.19,431.5c13.8-16.02,12.45-13.52,10.83-14.91-13.8,16.02-12.45,13.52-10.83,14.91Z"/>
                </g>
                <g>
                  <line class="cls-54" x1="624.32" y1="418.56" x2="635.97" y2="432.76"/>
                  <path class="cls-54" d="M636.56,432.28c-13.41-16.35-11.18-14.59-12.83-13.23,13.41,16.35,11.18,14.59,12.83,13.23Z"/>
                </g>
                <g>
                  <line class="cls-54" x1="532.44" y1="420.97" x2="544.08" y2="435.17"/>
                  <path class="cls-54" d="M544.68,434.68c-13.41-16.35-11.18-14.59-12.83-13.23,13.41,16.35,11.17,14.59,12.83,13.23Z"/>
                </g>
                <path class="cls-12" d="M660.69,219.14s-56.69,31.72-169.38-.39l-7.41,4.73s96.27,43.17,184.33-.06l-7.54-4.28Z"/>
                <path class="cls-38" d="M494.48,305.2s-17.22-34.28-20.81-24c-3.59,10.28,20.81,24,20.81,24Z"/>
                <path class="cls-38" d="M496.1,305.49s-24.57-7.17-30.97-.34c-6.4,6.84,30.97,.34,30.97,.34Z"/>
                <path class="cls-38" d="M681.29,300.31s10.53-35.29,14.6-29.18c4.07,6.11-14.6,29.18-14.6,29.18Z"/>
                <path class="cls-38" d="M681.29,300.31s18.32-12.76,23.75-8.08-23.75,8.08-23.75,8.08Z"/>
                <path class="cls-28" d="M660.69,219.14s-63.26,27.01-158.28-6.06l-11.09,5.66s94.65,33.91,169.38,.39Z"/>
                <path class="cls-52" d="M560.71,122.02s15.02,50.79-7.01,77.85l-11.75,1.9,5.67-73.38,13.09-6.37Z"/>
                <path d="M632.37,108.6s-1.26,2.14-2.96,3.11c-4.06-4.23-.08,.85,2.96-3.11Z"/>
                <path d="M593.38,109.09s-1.26,2.14-2.96,3.1c-4.06-4.23-.08,.85,2.96-3.1Z"/>
                <path class="cls-49" d="M612.94,114.25s.27,15.71,4,19.18c0,0,.13,4.24-7.97,7.72l-.64-1.8s6.82-3.99,6.69-5.02c-.13-1.03-6.06-11.36-2.07-20.08Z"/>
                <path class="cls-49" d="M599.52,133.95s-4.44,4.89,2.54,7.2c0,0-4.21-2.83-2.54-7.2Z"/>
                <path class="cls-37" d="M613.68,167.65c0,5.27-17.55,5.27-17.55,0s17.55-5.27,17.55,0Z"/>
                <path class="cls-37" d="M607.31,133.54c.97,2.33-4.85,4.74-5.82,2.41-.96-2.32,4.85-4.75,5.82-2.41Z"/>
                <path class="cls-10" d="M595.97,149.64s10.04,6.75,20.07,0c0,0-8.32,14.66-20.07,0Z"/>
              </g>
            </g>
            <g>
              <rect class="cls-10" x="426.44" y="547.85" width="504.08" height="6.17"/>
              <g class="cls-65">
                <rect class="cls-41" x="413.89" y="531.16" width="290.32" height="41.26"/>
              </g>
            </g>
            <rect class="cls-32" x="698.89" y="538.47" width="8.45" height="23.51"/>
            <path class="cls-32" d="M426.44,599.51H975.81l8.61,26.23H437.24l-10.8-26.23Z"/>
            <path class="cls-32" d="M439.56,632.82H988.92l8.61,26.23H450.36l-10.8-26.23Z"/>
            <g>
              <polygon class="cls-10" points="867.19 216.41 941.31 393.3 1211.44 393.3 1139.87 219.35 867.19 216.41"/>
              <polygon class="cls-32" points="902.64 232.96 962.25 375.21 1179.47 375.21 1121.92 235.33 902.64 232.96"/>
            </g>
          </g>
          <g>
            <g>
              <g>
                <g>
                  <g>
                    <g>
                      <rect class="cls-43" x="852.67" y="1014.67" width="374.15" height="55.26"/>
                      <rect class="cls-5" x="1057.03" y="1016.93" width="169.79" height="50.98"/>
                      <g>
                        <path class="cls-27" d="M846.1,1013.91c0,8.11-13.96,5.28,380.27,5.28,5.66,0,6.97-5.28,6.46-5.28,0-8.1,13.97-5.27-380.26-5.27-6.46,0-6.39,5.27-6.47,5.27Z"/>
                        <path class="cls-30" d="M1059.97,1019.19h169.93c3.97,0,3.84-10.55,0-10.55h-169.93c-3.87,0-3.84,10.55,0,10.55Z"/>
                      </g>
                      <g>
                        <path class="cls-27" d="M846.1,1070.79c0,8.1-13.96,5.27,380.27,5.27,5.66,0,6.97-5.27,6.46-5.27,0-8.1,13.97-5.27-380.26-5.27-6.46,0-6.39,5.27-6.47,5.27Z"/>
                        <path class="cls-30" d="M1059.97,1076.06h169.93c3.97,0,3.84-10.55,0-10.55h-169.93c-3.87,0-3.84,10.55,0,10.55Z"/>
                      </g>
                      <g>
                        <g>
                          <path class="cls-40" d="M852.67,1027.13c402.68,0,374.15,1.37,374.15-2.5-402.69,0-374.15-1.37-374.15,2.5Z"/>
                          <path class="cls-40" d="M852.4,1031.26c402.69,0,374.16,1.38,374.16-2.49-402.69,0-374.16-1.37-374.16,2.49Z"/>
                        </g>
                        <g>
                          <path class="cls-40" d="M852.8,1035.62c402.69,0,374.16,1.38,374.16-2.49-402.69,0-374.16-1.38-374.16,2.49Z"/>
                          <path class="cls-40" d="M852.53,1039.76c402.69,0,374.15,1.37,374.15-2.5-402.69,0-374.15-1.37-374.15,2.5Z"/>
                        </g>
                      </g>
                      <g>
                        <g>
                          <path class="cls-40" d="M852.47,1044.2c402.68,0,374.15,1.37,374.15-2.49-402.69,0-374.15-1.37-374.15,2.49Z"/>
                          <path class="cls-40" d="M852.19,1048.33c402.69,0,374.16,1.38,374.16-2.48-402.69,0-374.16-1.38-374.16,2.48Z"/>
                        </g>
                        <g>
                          <path class="cls-40" d="M852.6,1052.69c402.69,0,374.16,1.37,374.16-2.49-402.69,0-374.16-1.38-374.16,2.49Z"/>
                          <path class="cls-40" d="M852.33,1056.83c402.68,0,374.15,1.38,374.15-2.49-402.69,0-374.15-1.37-374.15,2.49Z"/>
                        </g>
                      </g>
                    </g>
                    <path class="cls-51" d="M922.81,1039.76s-11.61,14.62-14.13,55.78c-18.42-5.82-11.5-5.07-30.27-2.36,0,0-.5-32.85,13.12-53.42h31.29Z"/>
                  </g>
                  <g>
                    <path class="cls-43" d="M1235.95,890.64s-15.7,31.67,0,64.23l-200.41,2.33v-66.56h200.41Z"/>
                    <path class="cls-5" d="M1035.54,890.64v66.56h-150.48s20.31-39.61,0-66.56h150.48Z"/>
                    <g>
                      <g>
                        <g>
                          <path class="cls-40" d="M895.25,911.27c358.8,0,332.92,1.29,332.92-2.32-358.79,0-332.92-1.29-332.92,2.32Z"/>
                          <path class="cls-40" d="M895.02,915.11c358.79,0,332.92,1.29,332.92-2.32-358.8,0-332.92-1.29-332.92,2.32Z"/>
                        </g>
                        <g>
                          <path class="cls-40" d="M895.38,919.17c358.8,0,332.92,1.28,332.92-2.32-358.8,0-332.92-1.29-332.92,2.32Z"/>
                          <path class="cls-40" d="M895.13,923.02c358.8,0,332.92,1.28,332.92-2.32-358.8,0-332.92-1.29-332.92,2.32Z"/>
                        </g>
                      </g>
                      <g>
                        <g>
                          <path class="cls-40" d="M895.25,927.15c358.8,0,332.92,1.29,332.92-2.32-358.79,0-332.92-1.29-332.92,2.32Z"/>
                          <path class="cls-40" d="M895.02,931c358.79,0,332.92,1.29,332.92-2.32-358.8,0-332.92-1.29-332.92,2.32Z"/>
                        </g>
                        <g>
                          <path class="cls-40" d="M895.38,935.06c358.8,0,332.92,1.29,332.92-2.32-358.8,0-332.92-1.28-332.92,2.32Z"/>
                          <path class="cls-40" d="M895.13,938.91c358.8,0,332.92,1.29,332.92-2.32-358.8,0-332.92-1.29-332.92,2.32Z"/>
                        </g>
                      </g>
                    </g>
                    <g>
                      <rect class="cls-25" x="881.36" y="886.42" width="359.39" height="8.45"/>
                      <rect class="cls-50" x="1035.76" y="886.42" width="205.43" height="8.45"/>
                    </g>
                    <g>
                      <rect class="cls-25" x="881.15" y="952.98" width="359.4" height="8.44"/>
                      <rect class="cls-50" x="1035.54" y="952.98" width="205.43" height="8.44"/>
                    </g>
                  </g>
                  <g>
                    <g>
                      <path class="cls-43" d="M1274.54,964.28s-15.76,20.36,0,40.54h-201.05v-40.54h201.05Z"/>
                      <path class="cls-5" d="M1073.49,964.28v40.54h-150.95s20.37-23.84,0-40.54h150.95Z"/>
                      <g>
                        <g>
                          <g>
                            <path class="cls-40" d="M932.76,977.07c359.16,0,333.97,.79,333.97-1.44-359.16,0-333.97-.79-333.97,1.44Z"/>
                            <path class="cls-40" d="M932.52,979.45c359.16,0,333.97,.8,333.97-1.44-359.16,0-333.97-.79-333.97,1.44Z"/>
                          </g>
                          <g>
                            <path class="cls-40" d="M932.88,981.96c359.16,0,333.98,.8,333.98-1.44-359.17,0-333.98-.79-333.98,1.44Z"/>
                            <path class="cls-40" d="M932.64,984.35c359.17,0,333.98,.79,333.98-1.43-359.17,0-333.98-.8-333.98,1.43Z"/>
                          </g>
                        </g>
                        <g>
                          <g>
                            <path class="cls-40" d="M932.76,986.91c359.16,0,333.97,.79,333.97-1.44-359.16,0-333.97-.79-333.97,1.44Z"/>
                            <path class="cls-40" d="M932.52,989.3c359.16,0,333.97,.79,333.97-1.44-359.16,0-333.97-.79-333.97,1.44Z"/>
                          </g>
                          <g>
                            <path class="cls-40" d="M932.88,991.81c359.16,0,333.98,.79,333.98-1.44-359.17,0-333.98-.79-333.98,1.44Z"/>
                            <path class="cls-40" d="M932.64,994.2c359.17,0,333.98,.79,333.98-1.44-359.17,0-333.98-.79-333.98,1.44Z"/>
                          </g>
                        </g>
                      </g>
                      <g>
                        <path class="cls-25" d="M918.83,966.9c400.56,0,360.53,2.34,360.53-5.23-400.56,0-360.53-2.34-360.53,5.23Z"/>
                        <path class="cls-50" d="M1073.71,966.9c228.97,0,206.08,2.34,206.08-5.23-228.97,0-206.08-2.34-206.08,5.23Z"/>
                      </g>
                      <g>
                        <path class="cls-25" d="M918.61,1008.16c400.58,0,360.54,2.35,360.54-5.23-400.58,0-360.54-2.35-360.54,5.23Z"/>
                        <path class="cls-50" d="M1073.49,1008.16c229.04,0,206.08,2.34,206.08-5.23-229.03,0-206.08-2.34-206.08,5.23Z"/>
                      </g>
                    </g>
                    <path class="cls-17" d="M1182.18,981.96s26.91,23.41,28.01,47.76c0,0-15.38-3.84-20.59,1.16,0,0-5.49-35.74-38.17-48.92h30.76Z"/>
                  </g>
                </g>
                <g>
                  <g>
                    <path class="cls-57" d="M924.69,891.58h301.43c11.88,0,21.52-9.64,21.52-21.54,0-5.06,3.32-33.62-21.52-33.62h-301.43c-11.89,0-21.53,9.64-21.53,21.53,0,5.06-3.33,33.63,21.53,33.63Z"/>
                    <rect class="cls-29" x="1167.62" y="836.42" width="16.15" height="55.16"/>
                    <rect class="cls-29" x="1154.35" y="836.42" width="10.05" height="55.16"/>
                    <rect class="cls-29" x="954.83" y="836.42" width="34.81" height="55.16"/>
                  </g>
                  <g>
                    <path class="cls-6" d="M1229.52,777.09s-22.64,25.69-2.69,50.26h-307.34l-14-21.79,10.76-33.37,313.26,4.9Z"/>
                    <path class="cls-51" d="M914.11,769.5c353.15,0,333.54-2.83,333.54,6.45s20.31,6.46-327.08,6.46c0,0-22.07,30.49,10.22,41.08h310.39c8.55,0,8.56,12.92,0,12.92-344.17,0-324.05,2.02-326.57-3.96-10.49-8.2-28.61-29.16-.51-62.96Z"/>
                    <path class="cls-39" d="M1219.52,795.33c1.61,0,1.61-2.43,0-2.43-392.07,0-413.75,2.43,0,2.43Z"/>
                    <path class="cls-39" d="M1219.52,800.99c1.6,0,1.61-2.43,0-2.43-392.07,0-413.74,2.43,0,2.43Z"/>
                    <path class="cls-39" d="M1219.52,809.07c1.6,0,1.61-2.43,0-2.43-396.49,0-409.32,2.43,0,2.43Z"/>
                    <path class="cls-39" d="M1219.52,817.14c1.61,0,1.61-2.43,0-2.43-392.07,0-413.75,2.43,0,2.43Z"/>
                    <path class="cls-39" d="M1221.66,789.83c1.61,0,1.61-2.43,0-2.43-398.36,0-407.45,2.43,0,2.43Z"/>
                  </g>
                </g>
              </g>
              <path class="cls-11" d="M1258.85,555.93c.42-2.97,15.33-132.79-31.85-181.08-10.44-.08-13.85-2.04-22.11-4.36-18.37,13.53-50.35,7.78-46.54-13.67-156.48,8.93-186.71,176.77-114.49,244.66,0,0-3.79,12.73,5.84,24.77,0,0,131.24-8.16,188.12,23.4,3-10.82,12.64-11.37,20.08-20.61,2.89-4.95,3.72-8.35,5.29-14.95-3.48-19.07-4.82-54.84-4.34-58.16Z"/>
              <g>
                <path class="cls-3" d="M1072.22,618.51s-12.44-32.41-2.59-27.58c9.84,4.83,2.59,27.58,2.59,27.58Z"/>
                <path class="cls-3" d="M1225.61,634.76s27.08-23.61,16.97-23.37c-10.12,.24-16.97,23.37-16.97,23.37Z"/>
                <path class="cls-3" d="M1204.45,629.02s16.93-24.92,9.2-22.41c-7.72,2.52-9.2,22.41-9.2,22.41Z"/>
                <path class="cls-3" d="M1093.63,618.01s-9.74-33.25-3.49-32.23c6.25,1.02,3.49,32.23,3.49,32.23Z"/>
                <path class="cls-3" d="M1118.53,617.42s-8.89-30.54-.61-26.07c8.28,4.48,.61,26.07,.61,26.07Z"/>
                <path class="cls-3" d="M1147.03,621.03s-3.68-24.01,4.15-22.07c7.83,1.94-4.15,22.07-4.15,22.07Z"/>
                <path class="cls-3" d="M1176.7,624.42s-2.96-26.63,6.04-24.68c9,1.94-6.04,24.68-6.04,24.68Z"/>
              </g>
              <g>
                <path class="cls-52" d="M1068.65,295.54c-2.85,23.41-9.22,12.46-17.11,38.6,25.81-3.45,66.48,8.73,71.73,9.43,56.1,1.88,63.58-12.97,96.28-19.29-6.53-13.66-9.13-17.91-4.51-59.12,4.79-42.75-21.38-62.69-46.35-63.48-24.97-.79-16.52-6.18-38.96-10.27-22.44-4.08-29.24,22.54-29.24,22.54,0,0-7.96-4.6-24.46,14.73-16.5,19.33-4.45,42.74-7.38,66.86Z"/>
                <g class="cls-64">
                  <g>
                    <path class="cls-45" d="M1108.44,215.18s.53-5.67,4.29-6.94c3.77-1.27,9.14,24.45,28.75,22.06,19.61-2.39,23.73-5.26,23.73-5.26,0,0-1.16,8.63-12.82,12.47,0,0,18.29,13.59,32.13,8.4,0,0-10.22,7.42-22.67,6.59,0,0,1.22,17.58,15.94,21.25,0,0-11.35,14.83-22.53,9.03-11.18-5.8-45.35-63.44-46.83-67.6Z"/>
                    <path d="M1085.62,335.59c61.39,7.64,59.96,44.43,23.55-123.38,0,0-14.12,4.25-24.33,25.13-14.52,29.72,4.84,81.25,.78,98.25Z"/>
                  </g>
                </g>
                <path class="cls-42" d="M1124.88,332.92l-5.46,29.46s35,14.47,57.01-6.19l-1.92-56.98-18.93,.25-30.69,33.46Z"/>
                <path class="cls-22" d="M1123.31,341.4s32.16-2.09,52-28.62l-.81-13.58-18.06,.2c-37.38,39.19-31.84,30.96-33.13,42Z"/>
                <path class="cls-42" d="M1166.4,278.71c25.94-32.8,26.93,34.56-4.23,21.4l4.23-21.4Z"/>
                <path class="cls-22" d="M1164.24,283.56s9.44-8.78,14.67-6.12c5.23,2.66-1.88,17.43-8.68,18.69-6.79,1.26-9.89-1.69-9.89-1.69l3.89-10.89Z"/>
                <path class="cls-42" d="M1096.29,278.73c-29.64-29.49-22.64,37.5,6.74,20.75l-6.74-20.75Z"/>
                <path class="cls-22" d="M1099.01,283.29s-10.41-7.59-15.29-4.33c-4.87,3.26,3.94,17.09,10.83,17.53,6.89,.44,9.62-2.85,9.62-2.85l-5.16-10.35Z"/>
                <path class="cls-26" d="M1115.42,210.53s-34.03,14.08-26.08,68.4c3.25,76.76,66.45,73.99,78.85-1.02,0,0-22.88-14.37-29.16-36.28,0,0-20.29-10.59-23.61-31.1Z"/>
                <path class="cls-52" d="M1127.36,258.58s-.38,3.17,1.3,5.03c0,0,8.37-4.69,12.19-4.4,9.88,.77,12.35,6.77,3.96-4.85,0,0-6.01-.27-6.57-.11-.55,.16-8.87,2.23-10.88,4.32Z"/>
                <path class="cls-49" d="M1129.29,274.06s-2.55-7.71-.62-10.45c11.49-5.59,10.53-4.92,21.24-2.19,0,0,5.11,5.63,5.32,5.84,.21,.21-2.49,3.6-5.4,3.91-2.91,.31-8.76-6.2-12.28-3.63-3.52,2.57-8.26,6.52-8.26,6.52Z"/>
                <path class="cls-49" d="M1109.1,265.01c-2.87-4.21-6.03-7.99-20.97,.52,0,0-.05,4.02,.43,6.95,8.74-.84,10.22-6.47,12.81-5.23,2.43,1.17,8.5,4.15,9.46,6.94,0,0,1.15-4.97-1.72-9.18Z"/>
                <path class="cls-49" d="M1110.48,271.46s-4.8,19.86-3.8,21.38c1.01,1.51,2.35,3.66,5.27,3.35,0,0-4.69-2.53-3.83-5.7,.86-3.16,4.21-15.78,2.36-19.03Z"/>
                <path class="cls-49" d="M1121.02,289.27s4.5,5.21-5.02,5.9c0,0,12.58,2.2,5.02-5.9Z"/>
                <g>
                  <path d="M1129.29,274.06c14.16-15.72,15.17,.44,22.75-3.66-8.2,5.73-8.32-6.62-22.75,3.66Z"/>
                  <path d="M1142.04,274.81c.51,8.64-4.32,8.85-4.83,.29-.51-8.57,4.32-8.92,4.83-.29Z"/>
                </g>
                <g>
                  <path d="M1110.67,272.73c-15.93-13.93-15.01,2.23-23.02-.94,9.09,4.86,7.27-7.68,23.02,.94Z"/>
                  <path d="M1098.09,274.99c.51,8.55,5.35,8.36,4.83-.29-.51-8.56-5.34-8.34-4.83,.29Z"/>
                </g>
                <path class="cls-49" d="M1115.21,325.23c-.19-1.1,7.01-1.31,8.6-1.03-.27,1.53,.47-.75-8.6,1.03Z"/>
                <path class="cls-52" d="M1088.17,266.05c7.28-4.83,19-7.62,20.48-1.22,0,0,2.31-6.15-2.31-8.76,0,0-9.97-.89-17.98,3.67,0,0-.68,5.27-.2,6.3Z"/>
                <path class="cls-10" d="M1104.32,275.01c.15,2.5-3.64,2.74-3.79,.23-.15-2.51,3.65-2.74,3.79-.23Z"/>
                <path class="cls-10" d="M1144.24,274.15c.16,2.68-3.89,2.92-4.05,.24-.16-2.68,3.89-2.92,4.05-.24Z"/>
                <path class="cls-10" d="M1107.88,305.79s9.43,9.01,22.74-2.6c-9.2,21.32-20.64,17.68-22.74,2.6Z"/>
                <path class="cls-52" d="M1047.28,334.85c2.69-9.59,7.24-17.22,11.04-19.98,13.07-9.5,7.31-37.56,6.61-40.73-11.58-52.43,27.98-66.37,35.91-60.53,1.07,.79,.45-21.54,16.41-24.94,15.79-3.37,29.27,9.32,44.42,9.57,38.89,.63,59.25,17.62,56.78,56.28-10.91,50.76,.21,56.03,6.7,68.92,1.3-.13-6.1-11.62-6.81-12.72-18.07-27.92,38.95-109.37-59.09-113.06-11.69-.43-55.01-30.1-58.48,15.29-10.43-5.86-47.56,10.52-36.34,61.31,.69,3.14,6.39,30.89-6.41,40.2-6.52,4.74-12.19,20.7-10.74,20.41Z"/>
                <path class="cls-46" d="M1078.05,275.42c-3.33-19.8,1.58-54.95,26.7-60.83,.24-.06,.19,0,.21-.24,.8-17.47,23.86-19.9,36.06-10.98,18.55,13.54,73.54-.79,68.31,47.78-4.46,41.35-3.67,60.43,2.79,68.07,4.58,5.41,2.97,6.05,4.38,5.71-5.72-11-13.84-6.88-6.64-73.72,4.13-38.4-31.03-39.15-53.06-42.34-19.21-2.77-12.61-10.25-32-10.95-18.22-.64-20.17,14.33-20.34,16.22-33.99,9.22-27.39,61.44-26.4,61.29Z"/>
                <path class="cls-46" d="M1082.99,335.25c1.56,.22,1.96-12.95-.41-19.81-2.77-8.03-1.76-23.73-2.99-23.72,.28,25.78,6.41,29.16,3.4,43.53Z"/>
                <path class="cls-46" d="M1112.53,208.23c1.39-.14,2.25,1.8,3.78,4.67,9.02,16.87,15.54,23.37,48.03,12.13,11.52-3.98,24.29,.25,28.92,11.63,5.81,14.28-3.65,27.6,.35,36.69,3.89,8.83-3.9,18.51,1.87,40.36,1.75,6.62,6.34,15.48,7.7,15.04-9.01-12.84-10.5-26.87-8.51-42.44,2.47-19.45-4.17-7.18-.37-27.4,1.27-6.78,2.71-14.46-.54-22.44-6.44-15.83-24.74-13.4-24.92-13.38-3.23,.46-18.58,7.66-32,6.98-13.2-.67-18.32-15-21.94-20.8-3.6-5.79-9.08,6.8-7.97,7.2,.79-2.21,3.33-7.99,5.61-8.24Z"/>
                <path class="cls-46" d="M1137.68,240.12c9.65,8.35,26.69,12.42,46.77,5.54,.56,1.61-25.98,9.48-44.2-2.81,19.59,25.61,33.44,17.25,33.85,19.38-14.1,2.7-28.36-10.29-36.43-22.11Z"/>
                <path class="cls-52" d="M1096.33,337.01c1.8,.27-.9-8.32-2.4-11.43-6.08-12.57-2.43-22.9-3.89-23.13-2.8,18.32,6.08,22.86,6.29,34.56Z"/>
                <path class="cls-52" d="M1100.8,213.57c-6.32-7.16-21.63-20.9-28.28-13.41-1.08-.96,6.21-9.82,26.38,10.64-17.72-26.98-4.2-30.78-3.77-29.22-14.3,3.96,6.4,31.38,5.66,31.98Z"/>
              </g>
              <path class="cls-42" d="M1079.64,378.13c63.38-34.99,121.86-25.15,155.99,3.4,0,0-178.81,62.13-155.99-3.4Z"/>
              <path class="cls-14" d="M1070.43,409.19s-33.02,46.27-22.8,68.8c10.21,22.54,10.02,41.51,3.48,97.29l-62.99-35.15s21.21-129.8,91.53-161.99c0,0-9.77,25.87-9.21,31.06Z"/>
              <path class="cls-26" d="M1030.63,503.41s11.64-6.38,13.27-6.48c1.62-.11,19.56-.79,27.33,.21,7.77,1,37.94,29.19,46.02,32.99,8.07,3.8,41.25,7.55,41.25,7.55,0,0-1.76,26.08-6.44,37.16,0,0-46.89-21.55-54.97-25.35,0,0-13.97,1.31-23.42-6.66-33.95,4.11-35.55-2.75-23.64-6.71l5-.97c-20.29,.91-24.6-4.84-18.5-8.34-10.6-3.87-5.19-7.02,32.14-16.77l-20.49-4.43s-12.76,5.22-17.54-2.2Z"/>
              <g>
                <path class="cls-22" d="M994.79,397.54s10.68-12.07,11.85-15.13c1.09-2.86,16.78-8.72,7.89,16.47l-19.75-1.34Z"/>
                <path class="cls-7" d="M1021.65,390.61c-8.56-1.65-16.75,3.6-16.75,3.6-21.09,27.99,2.5,51.65,28.3,50.96l.73,3.44c7.88,1.7,23.91,.63,31.66-2.23l4.25-62.29c-53.95,5.38-49.46,.56-48.19,6.53Zm-4.54,9.54c0,.11,3.4-2.18,7.04,2.25l7.05,33.31c-37.39-11.21-23.31-27.98-14.09-35.57Z"/>
                <path class="cls-34" d="M1023.39,435.2l-33.53,2.6c3.98,25.32-3.75,5.84-12.16,92.76,1.79,13.41,16.03,21.14,17.59,23.5,1.13,1.71,8.43,1.47,12.41-3.21,3.97-4.68,18.5-.2,13.23-95.62,0,0,5.2-13.43,2.46-20.03Z"/>
                <g>
                  <path class="cls-22" d="M1011.38,458.1c-9.12,1.23-18.46-14.54-20.99-19.16,1.93,8.78-5.58,27.56-12.7,93.27,1.19-1.46,26.56-8.19,26.56-8.19-.94-5.16,7.13-65.92,7.13-65.92Z"/>
                  <path class="cls-22" d="M989.72,437.69s.24,.46,.66,1.25c-.14-.65-.36-1.08-.66-1.25Z"/>
                </g>
                <path class="cls-26" d="M1028.93,426.63c-5.26-6.52-2.36-14.38-7.79-14.99-26.42,1.47-23.23,1.97-23.18,1.96,0,0,5.11-5.65,6.83-5.94,0,0,10.74,.24,11.89-2.98,1.15-3.22-1.79-8.64-3.4-9.02,0,0-12.32-3.27-15.91-.37-3.6,2.9-14.91,13.94-15.29,15.79-.39,1.85,2.49,5.94,1.95,8.13-.54,2.19-3.1,7-.7,10.63,3.54,5.36,2.28,9.15,6.17,10.04,5.32,1.21,8.47,11.73,17.98,8.26,6.74-2.46,21.12-14.05,21.88-15.43,.77-1.38,1.46-3.74-.42-6.09Z"/>
                <g class="cls-62">
                  <path class="cls-4" d="M1044.67,382.81l-1.06,69.71s23.5,3.12,28.37-6.77c4.87-9.89,.08-66.65,.08-66.65l-27.39,3.72Z"/>
                  <path class="cls-44" d="M1059.43,378.59l-.69,74.06s25.14-4.36,25.08-13.9c-.07-9.55-7.99-59.92-7.99-59.92l-16.39-.24Z"/>
                </g>
                <path class="cls-10" d="M1069.83,384.05c.35,4.97-48.42,8.41-48.76,3.43-.35-4.97,48.42-8.4,48.76-3.43Z"/>
                <path class="cls-44" d="M1067.22,384.24c.3,4.17-43.25,7.23-43.54,3.06-.3-4.16,43.25-7.23,43.54-3.06Z"/>
              </g>
              <path class="cls-14" d="M1154.92,538.44c7.16-13.58,68.17,12.31,70.94,14.61,0,0-48.18-137.79-25.96-162.76,22.23-24.97,35.26-20.28,47.17-9.98,11.91,10.3,77.15,145.06,53.38,205.48-23.78,60.42-117.7,37.21-158.12-8.23,0,0-1.72-20.78,12.59-39.11Z"/>
              <path class="cls-22" d="M999.2,394.6c-.03,.24-.53,5.93,5.13,9.11-1.72,3.05-8.53-9.45-5.13-9.11Z"/>
              <path class="cls-22" d="M1003.65,423.46c-.23-1.1-2.55-.26,21.23-5.28,.23,1.11,2.54,.26-21.23,5.28Z"/>
              <path class="cls-22" d="M1007.13,433.54c-.42-1.05-2.59,.2,20.45-9,.42,1.05,2.59-.2-20.45,9Z"/>
              <g>
                <path class="cls-24" d="M1055.62,535.87c-.06-.64-2.25-.24,19.97-2.27,.06,.64,2.28,.24-19.97,2.27Z"/>
                <path class="cls-24" d="M1037.25,527.47c-1.45-1.56,27.61-7,37.79-5.87-.11,1.01-7.67-.76-10.4,.22-2.02,.73-25.36,3.77-27.39,5.65Z"/>
              </g>
              <g>
                <g>
                  <g>
                    <path class="cls-19" d="M744.14,1005.22c-6.98,4.03-52.34,54.22-73.81,50.73-36.49-9.88-41.19,30.09,33.55,32.48,33.55,1.07,85.62-7.78,94.2-5.1,12.98,4.06,11.98-52.52-1.34-57.97-37.35-15.28-40.26-27.25-52.6-20.13Z"/>
                    <g class="cls-63">
                      <path class="cls-48" d="M646.48,1055.36s23.35,12.07,44.02,15.56c20.66,3.49,104.22,.25,111.65-1.61,7.43-1.87,10.73-2.14,10.73-2.14,0,0-1.61,14.76-5.1,19.05-3.49,4.3-81.32,11.81-102.79,9.66-56.48-5.65-58.9-3.45-66.29-28.99l7.78-11.53Z"/>
                    </g>
                  </g>
                  <path class="cls-11" d="M763.45,980.7s-8.59,26.57-12.88,30.87c0,0,22.27,38.65,49.38,25.76,0,0,6.44-37.04,6.98-49.92l-43.48-6.71Z"/>
                  <g>
                    <path class="cls-53" d="M879.64,684.75c-72.51,14.15-58.87,40.86-66.42,74.28-4.23,18.72-49.51,208.32-56.16,221.01,0,0,7.25,24.76,53.74,12.07,0,0,25.37-53.74,35.02-65.82,9.66-12.08,39.19-87.04,39.85-140.7,0,0,3.62-19.93,47.7-22.34,0,0-39.85-77.29-53.74-78.5Z"/>
                    <g class="cls-66">
                      <path class="cls-18" d="M927.95,731.54s-48.91,6.36-59.78,28.1c-10.87,21.74-23.55,115.34-43.48,156.39-19.93,41.06-41.06,88.16-41.06,88.16,0,0,22.95,3.63,40.45-13.89,17.51-17.51,83.94-170.28,79.71-191.41-4.23-21.13,42.87-32,42.87-32l-18.72-35.34Z"/>
                    </g>
                  </g>
                </g>
                <g>
                  <path class="cls-20" d="M1060.04,616.41s3.21,30.86-5.15,36c0,0-149.79-10.93-164.58,0-14.79,10.93-46.29,43.72-13.5,82.29,32.79,38.58,149.79,197.37,154.94,214.73,0,0,36.64-.64,48.22-31.5,0,0-48.86-135.65-60.43-153.01,0,0,181.94,16.72,211.51-13.5,0,0,32.79-27.64,9.64-112.51,0,0-133.08-36-180.65-22.5Z"/>
                  <g class="cls-75">
                    <path class="cls-53" d="M1205.97,620.26s29.57,86.15-4.5,98.36c-34.07,12.22-261.01-35.36-268.73-18-7.71,17.36,39.86,30.86,63.65,68.15,23.79,37.29,76.64,154.94,78.5,177.44,0,0,51.41-47.92,10.86-144.01,0,0,147.22,25.72,167.16-24.43,19.92-50.14,0-145.94,0-145.94l-46.94-11.57Z"/>
                    <path class="cls-53" d="M1016.32,645.98s121.57,17.99,172.94,54.65c0,0-17.89-24.5-73.29-50.14,0,0-5.15-18.65,5.79-18.65s22.5-22.5-27.64-32.79c0,0-51.43,1.93-77.79,46.93Z"/>
                    <path class="cls-18" d="M953.96,725.7s67.5,23.14,84.22,65.58l40.5-12.86s-77.79-66.86-124.72-52.72Z"/>
                  </g>
                </g>
                <g>
                  <path class="cls-19" d="M1042.07,993.29c4.57,9.14,29.43,57.72,30.57,68,1.14,10.29-2,32.57,0,39.72,2,7.15,14.86,11.43,22.57,8.57,57.22-21.2,29.19-79.51,32.86-141.16,1.14-19.14,.29-28.86-5.43-36.86-5.72-8-32.29-14.58-47.15-3.14-36.6,58.33-37.53,56.66-33.43,64.87Z"/>
                  <g class="cls-80">
                    <path class="cls-48" d="M1104.65,918.71s13.72,20.58,11.14,65.15c-2.57,44.58,1.14,73.72-2.29,87.15-3.43,13.43-22.58,36-47.43,29.43,23.78,38.63,71.15,2.75,71.15-21.72,0-13.43,7.43-59.43,3.43-78.58-4-19.15-5.29-69.44-8.5-73.15-3.21-3.72-23.5-12.08-27.5-8.29Z"/>
                  </g>
                </g>
                <path class="cls-11" d="M1037.15,943.49s8,22.57,10.86,32c0,0,36-2.86,41.72-18,0,0,6.86-6.57-11.71-38.29l-40.86,24.29Z"/>
              </g>
              <g>
                <path class="cls-21" d="M814.04,494.74l-4.79,7.27h52.13c-8.45-8.89,.32-7.53-47.34-7.27Z"/>
                <g>
                  <path class="cls-21" d="M814.04,494.74h252.79c65,178.68,58.85,152.95,52.1,162.41-3.62-9.96,24.39-6.29-244.43-12.12l-60.47-150.29Z"/>
                  <polygon class="cls-31" points="1118.93 657.16 869.71 651.76 809.25 502.01 1062.03 502.01 1118.93 657.16"/>
                  <polygon class="cls-33" points="982.69 566.1 942.3 565.23 932.5 540.87 973.47 540.87 982.69 566.1"/>
                  <path class="cls-55" d="M865.74,654.78c.03,5.45-17.43,3.85,313.82,2.05,4.01-.03,4.92-3.79,4.56-3.78-.03-5.43,18.19-3.85-313.82-2.04-4.57,.02-4.46,3.78-4.56,3.77Z"/>
                  <path class="cls-21" d="M864.45,654.79c.03,5.45-14.58,3.84,257.83,2.35,3.23-.02,4.08-3.78,3.75-3.78-.03-5.48,14.17-3.83-257.84-2.35-3.75,.02-3.64,3.77-3.74,3.77Z"/>
                </g>
              </g>
            </g>
            <g>
              <path class="cls-9" d="M1229.07,552.82s42.62,17.63,31.16,26.85c-11.46,9.22-31.16-26.85-31.16-26.85Z"/>
              <path class="cls-9" d="M1229.03,550.81s34.72-17.38,33.88-6.25c-.85,11.13-33.88,6.25-33.88,6.25Z"/>
              <path class="cls-9" d="M1226.9,552.87s-1.8,39.01,7.46,35.82c9.27-3.18-7.46-35.82-7.46-35.82Z"/>
            </g>
          </g>
          <g>
            <g>
              <g>
                <path class="cls-23" d="M1531.22,639.06s43.23,15.29,78.47-65.05c0,0-75.02,2.17-78.47,65.05Z"/>
                <g class="cls-74">
                  <path class="cls-35" d="M1531.22,639.06s-3.07,9.28,24.96,4.08c28.03-5.19,78.39-51.55,55.36-68.97-2.63-.23,6.88-7.39-80.31,64.89Z"/>
                </g>
              </g>
              <g>
                <path class="cls-23" d="M1477.46,682.04s15.83,71.41,154.32,51.24c0,0-66.32-99.68-154.32-51.24Z"/>
                <g class="cls-73">
                  <path class="cls-35" d="M1477.46,682.04s-15.15,3.68,15.56,37.22c30.71,33.54,135.98,62.53,140.09,16.65-1.9-3.76,15.82,3.06-155.65-53.87Z"/>
                </g>
              </g>
              <path class="cls-23" d="M1427.31,756.36s55.8-47.29-26.62-160.41c0,0-57.26,105.15,26.62,160.41Z"/>
              <g class="cls-72">
                <path class="cls-35" d="M1427.31,756.36s10.32,11.68,25.68-31.12c15.36-42.8-8.08-149.45-50.59-131.69-2.44,3.44-4.67-15.42,24.91,162.82Z"/>
              </g>
              <g>
                <path class="cls-23" d="M1411.57,803.25s30.05,35.1,101.26-17.33c0,0-66.61-35.85-101.26,17.33Z"/>
                <g class="cls-76">
                  <path class="cls-35" d="M1411.57,803.25s-7.35,6.55,19.74,16.12c27.09,9.57,94.39-5.58,83.04-32.38-2.18-1.53,9.71-2.99-102.78,16.25Z"/>
                </g>
              </g>
              <g>
                <path class="cls-23" d="M1479.51,683.05s41.37-20.58,7.9-102.42c0,0-51.01,55.85-7.9,102.42Z"/>
                <g class="cls-78">
                  <path class="cls-35" d="M1479.51,683.05s4.56,8.73,20.45-15.21c15.89-23.94,17.62-92.9-11.14-88.43-2.02,1.74-.53-10.16-9.31,103.64Z"/>
                </g>
              </g>
              <path class="cls-23" d="M1533.35,636.6c3.03,4.97-96.24,42.05-130.89,206.92-14.96,71.19-10.03,131.02-9.98,131.62-4.83,.42-19.29-240.71,140.88-338.53Z"/>
            </g>
            <g>
              <g>
                <g>
                  <path class="cls-23" d="M1278.73,743.39s-30.69,10.86-55.72-46.19c0,0,53.27,1.54,55.72,46.19Z"/>
                  <g class="cls-77">
                    <path class="cls-35" d="M1278.73,743.39s2.18,6.59-17.72,2.9-55.66-36.6-39.3-48.97c1.87-.17-4.88-5.25,57.03,46.07Z"/>
                  </g>
                </g>
                <g>
                  <path class="cls-23" d="M1316.91,773.91s-11.24,50.7-109.58,36.38c0,0,47.09-70.78,109.58-36.38Z"/>
                  <g class="cls-81">
                    <path class="cls-35" d="M1316.91,773.91s10.75,2.62-11.05,26.43c-21.8,23.81-96.55,44.4-99.47,11.82,1.35-2.67-11.22,2.17,110.52-38.25Z"/>
                  </g>
                </g>
                <g>
                  <path class="cls-23" d="M1352.52,826.68s-39.62-33.58,18.9-113.9c0,0,40.66,74.66-18.9,113.9Z"/>
                  <g class="cls-79">
                    <path class="cls-35" d="M1352.52,826.68s-7.33,8.3-18.23-22.1c-10.91-30.39,5.74-106.12,35.92-93.51,1.73,2.44,3.31-10.94-17.69,115.61Z"/>
                  </g>
                </g>
                <path class="cls-23" d="M1363.69,859.97s-21.34,24.92-71.9-12.3c0,0,47.29-25.45,71.9,12.3Z"/>
                <g class="cls-67">
                  <path class="cls-35" d="M1363.69,859.97s5.22,4.66-14.02,11.45c-19.23,6.79-67.02-3.96-58.96-22.99,1.55-1.09-6.91-2.13,72.98,11.54Z"/>
                </g>
                <path class="cls-23" d="M1315.46,774.62s-29.38-14.62-5.61-72.72c0,0,36.22,39.66,5.61,72.72Z"/>
                <g class="cls-68">
                  <path class="cls-35" d="M1315.46,774.62s-3.24,6.2-14.52-10.8c-11.28-17-12.51-65.96,7.91-62.79,1.43,1.24,.38-7.21,6.61,73.59Z"/>
                </g>
                <path class="cls-23" d="M1378.16,982.09c4.53-51.47-7.69-123.22-36.37-173.06-16.46-28.6-38.19-51.28-64.57-67.39-2.16,3.53,68.34,29.86,92.94,146.92,12.58,59.88,5.07,93.28,8,93.53Z"/>
              </g>
              <g>
                <path class="cls-23" d="M1365.69,865.08s6.23-43.52,90.16-37.74c0,0-35.21,62.77-90.16,37.74Z"/>
                <g class="cls-71">
                  <path class="cls-35" d="M1365.69,865.08s-9.24-1.52,7.63-23.02c16.88-21.5,78.66-43.67,83.21-16.36-.97,2.34,9.34-2.56-90.84,39.38Z"/>
                </g>
              </g>
              <g>
                <path class="cls-23" d="M1352.77,827.52s-20.28,25.47-71.73-9.65c0,0,45.99-26.92,71.73,9.65Z"/>
                <g class="cls-70">
                  <path class="cls-35" d="M1352.77,827.52s5.34,4.43-13.5,11.85c-18.83,7.42-66.6-1.55-59.28-20.71,1.49-1.13-6.92-1.86,72.77,8.86Z"/>
                </g>
              </g>
            </g>
            <g>
              <path class="cls-11" d="M1291.27,919.02l32.5,165.91h122.19l32.5-165.91h-187.18Z"/>
              <g class="cls-69">
                <polygon class="cls-8" points="1410.66 896.24 1391.6 1105.64 1478.46 1101.95 1514.66 904.1 1410.66 896.24"/>
              </g>
            </g>
          </g>
          <g>
            <g>
              <g>
                <rect class="cls-43" x="6.35" y="785.99" width="358.94" height="53.01"/>
                <rect class="cls-5" x="202.41" y="788.15" width="162.89" height="48.91"/>
                <g>
                  <path class="cls-27" d="M.06,785.26c0,7.77-13.4,5.06,364.81,5.06,5.43,0,6.69-5.06,6.2-5.06,0-7.77,13.4-5.06-364.8-5.06-6.2,0-6.13,5.06-6.2,5.06Z"/>
                  <path class="cls-30" d="M205.23,790.33h163.02c3.81,0,3.68-10.12,0-10.12H205.23c-3.72,0-3.69,10.12,0,10.12Z"/>
                </g>
                <g>
                  <path class="cls-27" d="M.06,839.83c0,7.77-13.4,5.06,364.81,5.06,5.43,0,6.69-5.06,6.2-5.06,0-7.77,13.4-5.06-364.8-5.06-6.2,0-6.13,5.06-6.2,5.06Z"/>
                  <path class="cls-30" d="M205.23,844.88h163.02c3.81,0,3.68-10.12,0-10.12H205.23c-3.72,0-3.69,10.12,0,10.12Z"/>
                </g>
                <g>
                  <g>
                    <path class="cls-40" d="M6.35,797.94c386.31,0,358.94,1.32,358.94-2.39-386.32,0-358.94-1.31-358.94,2.39Z"/>
                    <path class="cls-40" d="M6.09,801.91c386.31,0,358.94,1.32,358.94-2.39-386.31,0-358.94-1.32-358.94,2.39Z"/>
                  </g>
                  <g>
                    <path class="cls-40" d="M6.48,806.09c386.32,0,358.95,1.32,358.95-2.39-386.32,0-358.95-1.32-358.95,2.39Z"/>
                    <path class="cls-40" d="M6.22,810.06c386.32,0,358.95,1.32,358.95-2.39-386.32,0-358.95-1.32-358.95,2.39Z"/>
                  </g>
                </g>
                <g>
                  <g>
                    <path class="cls-40" d="M6.16,814.32c386.31,0,358.94,1.32,358.94-2.39-386.32,0-358.94-1.32-358.94,2.39Z"/>
                    <path class="cls-40" d="M5.9,818.28c386.31,0,358.94,1.32,358.94-2.38-386.31,0-358.94-1.32-358.94,2.38Z"/>
                  </g>
                  <g>
                    <path class="cls-40" d="M6.29,822.47c386.32,0,358.95,1.31,358.95-2.39-386.32,0-358.95-1.32-358.95,2.39Z"/>
                    <path class="cls-40" d="M6.03,826.43c386.31,0,358.94,1.32,358.94-2.39-386.31,0-358.94-1.32-358.94,2.39Z"/>
                  </g>
                </g>
              </g>
              <g>
                <path class="cls-43" d="M374.06,667.01s-15.07,30.37,0,61.61l-192.27,2.24v-63.85h192.27Z"/>
                <path class="cls-5" d="M181.79,667.01v63.85H37.43s19.48-38,0-63.85H181.79Z"/>
                <g>
                  <g>
                    <g>
                      <path class="cls-40" d="M47.21,686.79c344.22,0,319.39,1.23,319.39-2.23-344.21,0-319.39-1.23-319.39,2.23Z"/>
                      <path class="cls-40" d="M46.98,690.48c344.21,0,319.38,1.23,319.38-2.23-344.21,0-319.38-1.23-319.38,2.23Z"/>
                    </g>
                    <g>
                      <path class="cls-40" d="M47.33,694.37c344.21,0,319.39,1.23,319.39-2.22-344.21,0-319.39-1.24-319.39,2.22Z"/>
                      <path class="cls-40" d="M47.09,698.06c344.21,0,319.39,1.23,319.39-2.23-344.21,0-319.39-1.23-319.39,2.23Z"/>
                    </g>
                  </g>
                  <g>
                    <g>
                      <path class="cls-40" d="M47.21,702.03c344.22,0,319.39,1.23,319.39-2.23-344.21,0-319.39-1.24-319.39,2.23Z"/>
                      <path class="cls-40" d="M46.98,705.72c344.21,0,319.38,1.23,319.38-2.22-344.21,0-319.38-1.24-319.38,2.22Z"/>
                    </g>
                    <g>
                      <path class="cls-40" d="M47.33,709.61c344.21,0,319.39,1.24,319.39-2.22-344.21,0-319.39-1.23-319.39,2.22Z"/>
                      <path class="cls-40" d="M47.09,713.31c344.21,0,319.39,1.23,319.39-2.23-344.21,0-319.39-1.24-319.39,2.23Z"/>
                    </g>
                  </g>
                </g>
                <g>
                  <rect class="cls-25" x="33.88" y="662.96" width="344.78" height="8.1"/>
                  <rect class="cls-50" x="182" y="662.96" width="197.08" height="8.1"/>
                </g>
                <g>
                  <rect class="cls-25" x="33.67" y="726.81" width="344.79" height="8.1"/>
                  <rect class="cls-50" x="181.79" y="726.81" width="197.08" height="8.1"/>
                </g>
              </g>
              <g>
                <g>
                  <path class="cls-43" d="M411.08,737.65s-15.12,19.53,0,38.89H218.2v-38.89h192.88Z"/>
                  <path class="cls-5" d="M218.2,737.65v38.89H73.39s19.54-22.87,0-38.89H218.2Z"/>
                  <g>
                    <g>
                      <g>
                        <path class="cls-40" d="M83.19,749.91c344.56,0,320.4,.76,320.4-1.38-344.56,0-320.4-.76-320.4,1.38Z"/>
                        <path class="cls-40" d="M82.96,752.2c344.56,0,320.39,.77,320.39-1.38-344.56,0-320.39-.76-320.39,1.38Z"/>
                      </g>
                      <g>
                        <path class="cls-40" d="M83.31,754.61c344.56,0,320.4,.76,320.4-1.38-344.57,0-320.4-.76-320.4,1.38Z"/>
                        <path class="cls-40" d="M83.07,756.9c344.56,0,320.4,.76,320.4-1.38-344.56,0-320.4-.76-320.4,1.38Z"/>
                      </g>
                    </g>
                    <g>
                      <g>
                        <path class="cls-40" d="M83.19,759.36c344.56,0,320.4,.76,320.4-1.38-344.56,0-320.4-.76-320.4,1.38Z"/>
                        <path class="cls-40" d="M82.96,761.65c344.56,0,320.39,.76,320.39-1.38-344.56,0-320.39-.76-320.39,1.38Z"/>
                      </g>
                      <g>
                        <path class="cls-40" d="M83.31,764.06c344.56,0,320.4,.76,320.4-1.38-344.57,0-320.4-.76-320.4,1.38Z"/>
                        <path class="cls-40" d="M83.07,766.35c344.56,0,320.4,.76,320.4-1.38-344.56,0-320.4-.76-320.4,1.38Z"/>
                      </g>
                    </g>
                  </g>
                  <g>
                    <path class="cls-25" d="M69.82,740.16c384.28,0,345.87,2.25,345.87-5.02-384.28,0-345.87-2.25-345.87,5.02Z"/>
                    <path class="cls-50" d="M218.41,740.16c219.66,0,197.7,2.25,197.7-5.02-219.66,0-197.7-2.25-197.7,5.02Z"/>
                  </g>
                  <g>
                    <path class="cls-25" d="M69.61,779.75c384.3,0,345.88,2.25,345.88-5.02-384.3,0-345.88-2.25-345.88,5.02Z"/>
                    <path class="cls-50" d="M218.2,779.75c219.72,0,197.7,2.24,197.7-5.02-219.72,0-197.7-2.24-197.7,5.02Z"/>
                  </g>
                </g>
                <path class="cls-17" d="M322.47,754.61s25.82,22.46,26.87,45.82c0,0-14.75-3.69-19.76,1.11,0,0-5.26-34.28-36.62-46.93h29.51Z"/>
              </g>
            </g>
            <g>
              <g>
                <path class="cls-57" d="M75.45,667.9H364.62c11.4,0,20.65-9.25,20.65-20.66,0-4.86,3.19-32.26-20.65-32.26H75.45c-11.41,0-20.65,9.25-20.65,20.65,0,4.86-3.19,32.26,20.65,32.26Z"/>
                <rect class="cls-29" x="308.5" y="614.99" width="15.49" height="52.92"/>
                <rect class="cls-29" x="295.77" y="614.99" width="9.64" height="52.92"/>
                <rect class="cls-29" x="104.36" y="614.99" width="33.39" height="52.92"/>
              </g>
              <g>
                <path class="cls-6" d="M367.88,558.07s-21.72,24.65-2.58,48.21H70.46l-13.42-20.9,10.33-32.02,300.52,4.7Z"/>
                <path class="cls-51" d="M65.29,550.79c338.79,0,319.98-2.72,319.98,6.19s19.49,6.2-313.78,6.2c0,0-21.17,29.26,9.81,39.41H379.07c8.2,0,8.21,12.4,0,12.4-330.17,0-310.88,1.94-313.29-3.79-10.06-7.87-27.44-27.98-.49-60.4Z"/>
                <path class="cls-39" d="M358.29,575.57c1.55,0,1.55-2.33,0-2.33-376.13,0-396.93,2.33,0,2.33Z"/>
                <path class="cls-39" d="M358.29,580.99c1.54,0,1.55-2.33,0-2.33-376.13,0-396.92,2.33,0,2.33Z"/>
                <path class="cls-39" d="M358.29,588.75c1.54,0,1.55-2.34,0-2.34-380.37,0-392.68,2.34,0,2.34Z"/>
                <path class="cls-39" d="M358.29,596.5c1.55,0,1.55-2.34,0-2.34-376.13,0-396.93,2.34,0,2.34Z"/>
                <path class="cls-39" d="M360.35,570.29c1.55,0,1.55-2.33,0-2.33-382.16,0-390.88,2.33,0,2.33Z"/>
              </g>
            </g>
          </g>
        </g>
      </g>
    </g>
  </g>
</svg>