<svg width="256" height="256" viewBox="0 0 256 256" fill="none" xmlns="http://www.w3.org/2000/svg">
<path d="M144 32V224C144 227.183 142.736 230.235 140.485 232.485C138.235 234.736 135.182 236 132 236C128.817 236 125.765 234.736 123.515 232.485C121.264 230.235 120 227.183 120 224V54.417L90.6542 73.9717C89.3428 74.8456 87.8722 75.4526 86.3262 75.7581C84.7803 76.0636 83.1893 76.0616 81.6441 75.7522C80.0989 75.4429 78.6298 74.8322 77.3206 73.955C76.0115 73.0779 74.8879 71.9515 74.014 70.6402C73.1402 69.3288 72.5332 67.8582 72.2277 66.3122C71.9222 64.7663 71.9241 63.1753 72.2335 61.6301C72.5429 60.0849 73.1535 58.6158 74.0307 57.3066C74.9078 55.9975 76.0342 54.8739 77.3456 54L125.346 22.0142C127.153 20.8099 129.253 20.1186 131.422 20.014C133.592 19.9095 135.749 20.3956 137.663 21.4206C139.578 22.4455 141.179 23.9709 142.295 25.834C143.41 27.6972 144 29.8282 144 32Z" fill="#AD1581"/>
</svg>
