<svg width="120" height="216" viewBox="0 0 120 216" fill="none" xmlns="http://www.w3.org/2000/svg">
<path d="M120 203.988C120 207.171 118.736 210.223 116.485 212.474C114.235 214.724 111.183 215.988 108 215.988H12.5391C12.3594 215.997 12.1787 216.001 11.9981 216.001C9.74642 216 7.5405 215.365 5.63226 214.17C3.72402 212.975 2.1904 211.267 1.20656 209.242C0.222727 207.217 -0.171654 204.955 0.0684576 202.717C0.30857 200.478 1.1735 198.352 2.56445 196.581L90.0107 79.8926C92.7771 75.7164 94.6416 71.009 95.4851 66.0712C96.3286 61.1334 96.1326 56.074 94.9095 51.2163C93.6865 46.3586 91.4633 41.8095 88.3822 37.8599C85.301 33.9102 81.4297 30.6469 77.0156 28.2786C72.6015 25.9103 67.7419 24.489 62.7472 24.1056C57.7526 23.7222 52.733 24.3852 48.0092 26.0522C43.2854 27.7191 38.9613 30.3533 35.3135 33.7865C31.6657 37.2196 28.7743 41.3761 26.8242 45.9902C26.2104 47.4416 25.3167 48.7578 24.1943 49.8638C23.0718 50.9697 21.7424 51.8438 20.2822 52.436C18.8219 53.0282 17.2593 53.327 15.6835 53.3154C14.1077 53.3037 12.5497 52.9817 11.0984 52.3679C9.64704 51.7541 8.33081 50.8605 7.22484 49.738C6.11888 48.6155 5.24483 47.2862 4.65261 45.8259C4.06039 44.3656 3.76159 42.803 3.77327 41.2272C3.78495 39.6515 4.10689 38.0934 4.72069 36.6421C7.97919 28.934 12.8139 21.9927 18.9143 16.264C25.0147 10.5353 32.2458 6.14595 40.1433 3.37783C48.0408 0.609711 56.4299 -0.475951 64.7719 0.190583C73.1138 0.857117 81.2241 3.26111 88.5819 7.24814C95.9396 11.2352 102.382 16.7171 107.495 23.3418C112.609 29.9664 116.28 37.5874 118.273 45.7151C120.266 53.8428 120.537 62.2976 119.069 70.5363C117.601 78.775 114.425 86.6155 109.747 93.5542C109.637 93.7168 109.523 93.877 109.405 94.0337L35.9971 191.988H108C111.183 191.988 114.235 193.253 116.485 195.503C118.736 197.754 120 200.806 120 203.988V203.988Z" fill="#AD1581"/>
</svg>
