<?xml version="1.0" encoding="UTF-8"?>
<svg id="_Слой_1" data-name="Слой 1" xmlns="http://www.w3.org/2000/svg" viewBox="0 0 200 200">
  <defs>
    <style>
      .cls-1 {
        fill: #fff;
      }

      .cls-2 {
        fill: #ffe165;
      }

      .cls-3 {
        fill: #414959;
      }
    </style>
  </defs>
  <circle class="cls-2" cx="84.37" cy="100" r="84.19"/>
  <g>
    <path class="cls-1" d="M48.93,95.44l1.51-.06c-2.36,.09-4.38-1.76-4.47-4.13l-.12-3.08c-.09-2.36,1.76-4.38,4.13-4.47l17.64-.71c.17,0,.34,0,.51,.01,3.12-.11,7.41-.3,8.34-.55,1.1-.29,1.82-2.99,1.41-4.1,0,0-3.68-8.34-4.34-11.78-1.43-7.42,.21-12.8,2.96-13.9,4.12-1.65,5.27-.91,5.88,2.46,.51,2.77,.44,6.92,2.55,10.98,1.44,2.77,5.65,4.7,11.71,16.03,.7,1.31,3.2,6.24,5.31,7.54,4.91,3.03,22.48,2.17,22.48,2.17l-1.03,29.31s-13.73,.44-17.99,.94c-2.36,.28-9.92,3.8-13.71,3.95-4.97,.2-14.05,.56-20.34,.81-3.97,.16-6.82,.27-6.82,.27l-8.17,.33c-1.81,.07-3.35-1.35-3.42-3.15l-.09-2.35c-.07-1.81,1.35-3.35,3.15-3.42l-4.19,.17c-2.36,.09-4.38-1.76-4.47-4.13l-.12-3.08c-.09-2.36,1.76-4.38,4.13-4.47l-1.96,.08c-2.36,.09-4.38-1.76-4.47-4.13l-.12-3.08c-.09-2.36,1.76-4.38,4.13-4.47Z"/>
    <rect class="cls-3" x="107.9" y="89.27" width="18.52" height="34.58" transform="translate(-3.22 3.65) rotate(-1.76)"/>
  </g>
  <polygon class="cls-2" points="152.97 77.27 199.85 109.99 144.97 129.45 152.97 77.27"/>
</svg>