<svg width="643" height="331" viewBox="0 0 643 331" fill="none" xmlns="http://www.w3.org/2000/svg">
<path d="M394.31 330.22C531.404 330.22 642.54 327.332 642.54 323.77C642.54 320.208 531.404 317.32 394.31 317.32C257.217 317.32 146.08 320.208 146.08 323.77C146.08 327.332 257.217 330.22 394.31 330.22Z" fill="#5CBEC6"/>
<path d="M108.75 306.77C168.402 306.77 216.76 303.694 216.76 299.9C216.76 296.106 168.402 293.03 108.75 293.03C49.0977 293.03 0.73999 296.106 0.73999 299.9C0.73999 303.694 49.0977 306.77 108.75 306.77Z" fill="#A1D5E2"/>
<path d="M196.89 169.92L55.8999 169.96L56.2399 289.74C56.2399 289.74 182.56 297.98 187.84 297.76C193.13 297.54 195.72 295.2 197.23 290.72L196.89 169.92V169.92Z" fill="#FFAE43"/>
<path d="M144.21 120.72C144.02 120.08 143.83 119.44 143.63 118.8H150.69C151.92 118.78 153.2 119.27 154.34 119.9C156.51 121.11 158.46 123.18 159.43 125.39C164.14 136.56 167.3 147.9 169.52 159.21C176.57 195.09 175.11 231.07 192.42 266.83C183.82 266.83 175.23 266.83 166.63 266.83C139.51 266.83 112.38 266.83 85.2599 266.83C67.3899 229.92 69.5399 192.85 61.6599 155.79C59.1599 144.02 55.5399 132.25 50.1799 120.72H144.23H144.21Z" fill="#FFE9D4"/>
<path d="M83.2899 162.94H150.05C149.76 161.2 149.46 159.47 149.14 157.73H82.3799C82.6999 159.47 82.9999 161.2 83.2899 162.94Z" fill="#F2C3A7"/>
<path d="M84.5498 171.15H151.31C151.19 170.35 151.08 169.55 150.96 168.75H84.1997C84.3197 169.55 84.4398 170.35 84.5498 171.15Z" fill="#F2C3A7"/>
<path d="M85.5398 178.37H152.3C152.2 177.57 152.09 176.77 151.98 175.97H85.2197C85.3297 176.77 85.4298 177.57 85.5398 178.37Z" fill="#F2C3A7"/>
<path d="M86.4398 185.58C108.69 185.58 130.94 185.58 153.2 185.58C153.1 184.78 153 183.98 152.9 183.18H86.1399C86.2399 183.98 86.3398 184.78 86.4398 185.58Z" fill="#F2C3A7"/>
<path d="M87.3101 192.8H154.07C153.97 192 153.88 191.2 153.78 190.4C131.53 190.4 109.28 190.4 87.02 190.4C87.12 191.2 87.2101 192 87.3101 192.8Z" fill="#F2C3A7"/>
<path d="M143.86 122.57C139.1 126.2 134.27 129.75 129.39 133.24C105.59 135.93 81.7798 138.61 57.9698 141.28C56.8998 137.74 55.7099 134.21 54.3899 130.69C84.2199 127.99 114.04 125.29 143.87 122.57H143.86Z" fill="#CE9D84"/>
<path d="M42.7399 118.81H150.66C146.54 118.74 144.96 122.32 146.5 126.03C147.51 128.42 148.84 130.82 148.87 133.25H123C95.7899 133.25 68.5899 133.25 41.3799 133.25C40.5099 130.84 39.5798 128.43 38.5698 126.03C37.0298 122.32 38.6099 118.74 42.7299 118.81H42.7399Z" fill="#F2C3A7"/>
<path d="M24.97 190.62L93.98 190.46C95.69 190.46 96.86 189.28 96.6 187.84L95.7 182.93C95.44 181.49 96.61 180.32 98.32 180.31L139.28 180.22C140.99 180.22 142.59 181.38 142.86 182.82L143.76 187.73C144.02 189.17 145.63 190.34 147.34 190.33L161.76 190.3C161.45 190.54 160.4 191.18 160.47 191.59L178.6 290.27C179.37 294.44 184.02 297.83 188.98 297.82L52.94 298.13H52.5601H52.1801C47.2201 298.14 42.5701 294.76 41.8001 290.58L23.6701 191.9C23.5401 191.19 24.12 190.61 24.96 190.61L24.97 190.62Z" fill="#FFAE43"/>
<path d="M160.86 190.58C161.09 190.41 161.39 190.3 161.75 190.3C162.1 190.3 162.43 190.4 162.72 190.56C163.13 190.79 163.44 191.16 163.51 191.58L181.64 290.26C182.15 293.02 184.91 294.72 188.19 294.71H189.4L189.78 297.76L188.97 297.82C184.02 297.83 179.36 294.44 178.59 290.27L160.46 191.59C160.38 191.18 160.55 190.82 160.86 190.58V190.58Z" fill="#FFE164"/>
<path d="M105.83 280.59C105.83 280.59 105.77 280.59 105.73 280.58C100.18 279.93 94.3599 276.04 89.8499 272C84.4899 267.2 80.2 261 77 254.45C72.03 244.29 69.6899 233.02 69.3299 222.53C69.2899 221.25 69.78 219.99 70.66 219.26C71.5 218.56 72.71 218.18 73.89 218.52C81.06 220.56 89.08 220 93.89 214.73C94.6 214 95.63 213.44 96.68 213.55C97.67 213.66 98.64 214 99.43 214.95C104.68 221.28 113.41 221.64 119.4 220.38C120.44 220.16 121.7 220.54 122.65 221.39C123.6 222.24 124.09 223.6 124.11 224.77C124.32 235.3 124.39 246.17 122.91 256.33C122.04 262.36 120.59 268.46 117.44 273.13C114.86 276.97 110.85 280.4 105.94 280.59C105.9 280.59 105.88 280.59 105.84 280.59H105.83Z" fill="#53619B"/>
<path d="M99.1702 259.15C99.1702 259.15 99.1101 259.15 99.0801 259.15C98.0801 259.12 97.0501 258.69 96.2501 257.94L83.3501 245.9L87.8901 241.07L97.7101 250.24L110.08 234.97L116.14 240.06L101.55 258.07C100.99 258.76 100.13 259.15 99.1602 259.15H99.1702Z" fill="#FFAE43"/>
<path d="M435.76 315.93V207.78L374.27 212.04V315.8L336.57 315.72V322.78L478.72 323.77V316.03L435.76 315.93Z" fill="#313744"/>
<path d="M426.15 315.91V208.45L365.39 212.66V315.78L328.13 315.7V322.72L468.59 323.7V316.01L426.15 315.91Z" fill="#434A59"/>
<path d="M365.39 258.01L426.15 265.58V248.99L365.39 246.29V258.01Z" fill="#313744"/>
<path d="M577.45 33.18L255 47.52C252.34 47.64 250.18 50.3 250.18 53.47V235.43C250.18 238.6 252.34 241.26 255 241.38L577.45 255.72C580.97 255.88 583.83 253.04 583.83 249.39V39.51C583.83 35.86 580.97 33.02 577.45 33.18V33.18Z" fill="#313744"/>
<path d="M567.41 33.63L247.37 47.86C244.72 47.98 242.58 50.63 242.58 53.79V235.11C242.58 238.27 244.72 240.92 247.37 241.04L567.41 255.27C570.9 255.43 573.74 252.6 573.74 248.96V39.93C573.74 36.29 570.9 33.47 567.41 33.62V33.63Z" fill="#5CBEC6"/>
<path d="M571.71 56.52L557.11 56.9L496.97 58.48L492.74 58.59C487.62 58.72 483.64 62.96 483.85 68L484.26 77.9C484.47 82.88 488.76 86.95 493.84 86.95H571.04L571.71 56.52V56.52Z" fill="#4488B2"/>
<path d="M446.2 67.4401L440.01 104.97L385.28 96.4701L391.58 58.2801C392.48 52.9301 394.96 47.9501 398.65 43.9801C399.66 42.8901 400.77 41.8901 401.94 40.9901L384.65 41.7601C381.95 46.1301 380.1 51.0101 379.22 56.2101L372.9 94.5501L364.45 93.2401C359.19 92.4201 354.27 96.0201 353.46 101.28L343.53 165.24C342.98 168.76 344.09 172.18 346.26 174.7L346.29 174.73C346.51 174.99 346.75 175.23 346.99 175.47L358.74 187.87C360.45 190.88 363.47 193.12 367.14 193.69L440.24 205.04C446.62 206.03 452.64 201.62 453.63 195.25L463.56 131.29C464.09 127.87 462.75 124.6 460.31 122.5L451.44 112.76L457.03 78.8901L458.57 69.5201C458.96 67.2101 459.14 64.9001 459.13 62.6001C459.13 62.2701 459.13 61.9401 459.11 61.6201C459.08 60.6401 459.01 59.6601 458.91 58.6801C458.84 58.0301 458.76 57.3801 458.66 56.7401C458.11 53.2001 457.08 49.7401 455.59 46.4401C455.18 45.5401 454.74 44.6501 454.27 43.7801C454.11 43.4901 453.95 43.2001 453.78 42.9101C453.12 41.7601 452.4 40.6301 451.61 39.5401C451.43 39.2901 451.25 39.0501 451.07 38.8101L433.86 39.5801C442.88 45.4001 448.08 56.2101 446.2 67.4501V67.4401Z" fill="#4488B2"/>
<path d="M567.41 38.27C567.92 38.25 568.67 38.97 568.67 40.14V225.99C568.67 227.17 567.92 227.89 567.41 227.87L247.37 217.16C246.98 217.15 246.41 216.47 246.41 215.45V53.63C246.41 52.61 246.98 51.93 247.37 51.91L567.41 38.28V38.27ZM567.41 33.62L247.37 47.85C244.72 47.97 242.58 50.62 242.58 53.78V235.1C242.58 238.26 244.72 240.91 247.37 241.03L567.41 255.26C570.9 255.42 573.74 252.59 573.74 248.95V39.93C573.74 36.29 570.9 33.47 567.41 33.62Z" fill="#434A59"/>
<g style="mix-blend-mode:color-dodge">
<path d="M318.77 48.8699C318.77 48.8699 334.4 69.8599 344.72 90.4499C351.28 103.54 362.42 112.66 365 124.15C366.48 130.73 365.4 156.39 368.43 175.55C371.62 195.66 382.93 221.7 382.93 221.7L448.58 223.9C448.58 223.9 409.69 165.96 407.54 155.29C405.39 144.62 413.28 126.92 402.12 99.4899C398.87 91.4899 381.26 82.6099 381.59 76.2599C382.54 57.9499 376.82 46.3899 376.82 46.3899L318.77 48.8599V48.8699Z" fill="#141516"/>
</g>
<path d="M535.9 214.74L532.78 211.62L537.16 207.24H520.47V202.82H542.49C543.38 202.82 544.19 203.36 544.53 204.18C544.87 205.01 544.68 205.96 544.05 206.59L535.9 214.74Z" fill="white"/>
<path d="M535.894 195.325L532.769 198.45L540.922 206.603L544.047 203.478L535.894 195.325Z" fill="white"/>
<path d="M386.66 208.78C388.306 208.78 389.64 207.446 389.64 205.8C389.64 204.154 388.306 202.82 386.66 202.82C385.014 202.82 383.68 204.154 383.68 205.8C383.68 207.446 385.014 208.78 386.66 208.78Z" fill="white"/>
<path d="M400.54 208.78C402.186 208.78 403.52 207.446 403.52 205.8C403.52 204.154 402.186 202.82 400.54 202.82C398.894 202.82 397.56 204.154 397.56 205.8C397.56 207.446 398.894 208.78 400.54 208.78Z" fill="white"/>
<path d="M414.43 208.78C416.076 208.78 417.41 207.446 417.41 205.8C417.41 204.154 416.076 202.82 414.43 202.82C412.784 202.82 411.45 204.154 411.45 205.8C411.45 207.446 412.784 208.78 414.43 208.78Z" fill="white"/>
<path d="M425.38 113.9L413.02 111.83L423.93 45.65C426.46 30.59 416.26 16.29 401.2 13.76C386.14 11.23 371.84 21.43 369.31 36.49L358.4 102.67L346.04 100.6L356.95 34.42C358.72 23.86 364.53 14.6 373.3 8.34997C382.07 2.09997 392.72 -0.370023 403.28 1.39998C413.84 3.16998 423.1 8.97997 429.35 17.75C435.6 26.52 438.07 37.17 436.3 47.73L425.39 113.91L425.38 113.9Z" fill="#E7F2F2"/>
<path d="M425.11 17.0301C419.28 8.85009 410.83 3.25009 401.15 1.09009C401.86 1.17009 402.57 1.27009 403.28 1.39009C413.84 3.16009 423.1 8.97009 429.35 17.7401C435.6 26.5101 438.07 37.1601 436.3 47.7201L425.39 113.9L421.15 113.19L432.06 47.0101C433.83 36.4501 431.36 25.8001 425.11 17.0301V17.0301Z" fill="#89C9F4"/>
<path d="M396.96 13.04C397.67 13.16 398.38 13.31 399.07 13.48C384.82 12.2 371.72 22.14 369.31 36.48L358.4 102.66L354.16 101.95L365.07 35.77C367.6 20.71 381.9 10.52 396.96 13.04Z" fill="#89C9F4"/>
<path d="M438.04 100.7L425 86.3799L420.65 105.94L438.04 100.7Z" fill="#F2A25C"/>
<path d="M433.24 98.49L355.99 86.4999C350.73 85.6799 345.81 89.2799 345 94.5399L336.07 152.06L323.99 152.9L336.47 166.07C338.18 169.08 341.2 171.32 344.87 171.89L417.97 183.24C424.35 184.23 430.37 179.82 431.36 173.45L441.29 109.49C442.11 104.23 438.51 99.3099 433.25 98.4999L433.24 98.49Z" fill="#F2A25C"/>
<path d="M331.19 79.4799L321.26 143.44C320.27 149.82 324.68 155.84 331.05 156.83L404.15 168.18C410.53 169.17 416.55 164.76 417.54 158.39L427.47 94.4299C428.29 89.1699 424.69 84.2499 419.43 83.4399L342.18 71.4499C336.92 70.6299 332 74.2299 331.19 79.4899V79.4799Z" fill="#FFE164"/>
<path d="M379.73 113.28C381.23 112.23 382.29 110.55 382.45 108.54C382.72 105.39 380.59 102.47 377.5 101.77C373.83 100.93 370.28 103.38 369.71 107.03C369.43 108.83 369.93 110.58 370.96 111.92C371.5 112.63 371.62 113.58 371.31 114.42L365.2 130.71C364.79 131.81 365.49 133.02 366.65 133.2L372 134.03L377.35 134.86C378.51 135.04 379.55 134.11 379.49 132.93L378.61 115.56C378.56 114.66 378.97 113.8 379.7 113.28H379.73Z" fill="#3F434C"/>
<path d="M332.12 131.74C331.98 131.74 331.84 131.73 331.7 131.71C330.32 131.48 329.39 130.18 329.62 128.81L337.53 81.03C337.76 79.65 339.06 78.72 340.43 78.95C341.81 79.18 342.74 80.48 342.51 81.85L334.6 129.63C334.4 130.87 333.33 131.74 332.11 131.74H332.12Z" fill="white"/>
<path d="M579.27 75.3899H493.67C488.55 75.3899 484.24 71.3099 484.03 66.2999L483.63 56.3599C483.43 51.3099 487.44 47.0499 492.6 46.9199L579.15 44.1799C585.41 44.0199 590.59 48.5099 590.59 54.1599V65.2499C590.59 70.8299 585.47 75.3899 579.27 75.3899Z" fill="#F2C3A7"/>
<path d="M574.24 75.3898H489.48C484.4 75.3898 480.11 71.3198 479.9 66.3398L479.49 56.4398C479.28 51.4098 483.26 47.1698 488.38 47.0298L574.08 44.3098C580.29 44.1498 585.43 48.6298 585.44 54.2498L585.46 65.2998C585.46 70.8598 580.4 75.3898 574.25 75.3898H574.24Z" fill="#FFE9D4"/>
<path d="M504.91 55.97L501.54 60.54V60.61L507.12 59.81L507.2 62.2701L501.58 61.69V61.76L505.28 66.04L502.99 67.3501L500.6 62.34H500.53L498.32 67.42L496.19 66.15L499.51 61.75V61.68L494.12 62.43L494.03 60L499.43 60.61V60.54L495.82 56.2101L498.01 54.91L500.47 59.8801H500.54L502.62 54.79L504.89 55.98L504.91 55.97Z" fill="#50456D"/>
<path d="M525.63 55.5999L522.1 60.2599V60.3299L527.9 59.5099L527.97 62.0199L522.14 61.4299V61.4999L525.95 65.8599L523.57 67.1999L521.13 62.0999H521.05L518.72 67.2699L516.52 65.9799L520 61.4899V61.4199L514.4 62.1799L514.32 59.6999L519.92 60.3199V60.2499L516.21 55.8399L518.49 54.5099L521.01 59.5699H521.09L523.29 54.3799L525.64 55.5899L525.63 55.5999Z" fill="#50456D"/>
<path d="M546.04 55.24L542.35 59.98V60.05L548.37 59.22L548.42 61.77L542.38 61.17V61.24L546.3 65.68L543.82 67.04L541.33 61.85H541.25L538.8 67.12L536.53 65.8L540.17 61.23V61.16L534.36 61.94L534.3 59.42L540.1 60.05V59.98L536.29 55.49L538.67 54.14L541.24 59.29H541.32L543.63 54.01L546.05 55.24H546.04Z" fill="#50456D"/>
<path d="M565.93 54.8899L562.08 59.7199V59.7999L568.31 58.9499L568.34 61.5499L562.09 60.9399V61.0199L566.11 65.5399L563.53 66.9299L560.99 61.6499H560.91L558.34 67.0099L556 65.6699L559.8 61.0199V60.9399L553.79 61.7299L553.74 59.1699L559.74 59.8099V59.7299L555.82 55.1599L558.29 53.7899L560.91 59.0299H560.99L563.42 53.6499L565.92 54.8999L565.93 54.8899Z" fill="#50456D"/>
<path d="M535.77 98.6202L475.48 100.74C474.28 100.78 473.31 101.79 473.31 102.98V179.41C473.31 180.6 474.29 181.64 475.48 181.71L535.77 185.52C537.15 185.61 538.29 184.63 538.29 183.34V100.86C538.29 99.5702 537.16 98.5602 535.77 98.6102V98.6202Z" fill="#4488B2"/>
<path d="M529.42 177.17L469.13 173.36C467.93 173.28 466.96 172.25 466.96 171.06V94.6301C466.96 93.4401 467.94 92.4301 469.13 92.3901L529.42 90.2601C530.8 90.2101 531.94 91.2201 531.94 92.5101V174.99C531.94 176.28 530.81 177.26 529.42 177.17Z" fill="white"/>
<path d="M498.21 126.18C497.87 126.18 497.52 126.16 497.14 126.13C495.21 125.97 493.4 125.41 491.76 124.48C487.81 122.26 485.38 118.15 485.38 113.74C485.38 110.33 486.84 107.02 489.39 104.65C490.08 104 490.86 103.42 491.7 102.92C493.65 101.77 495.9 101.12 498.21 101.07C505.46 100.9 511.44 106.47 511.44 113.5C511.44 118.05 508.87 122.28 504.75 124.52C503.3 125.32 501.72 125.84 500.07 126.05C499.47 126.13 498.84 126.17 498.2 126.17L498.21 126.18Z" fill="#50456D"/>
<path d="M504.36 119.78V123.87C503.03 124.61 501.54 125.1 499.97 125.31C499.4 125.39 498.81 125.43 498.21 125.42C497.87 125.42 497.54 125.4 497.21 125.37C495.38 125.22 493.66 124.68 492.16 123.83V119.8C492.16 118.27 492.77 116.88 493.77 115.83C494.38 115.18 495.14 114.67 496.01 114.34C496.18 114.27 496.36 114.21 496.54 114.16C496.27 114.04 496.02 113.89 495.79 113.71C494.89 113.03 494.3 111.96 494.3 110.76C494.3 110.46 494.34 110.17 494.4 109.9C494.8 108.22 496.36 106.94 498.23 106.91C500.41 106.87 502.2 108.55 502.2 110.66C502.2 112.18 501.27 113.51 499.93 114.13C502.5 114.82 504.38 117.08 504.38 119.78H504.36Z" fill="white"/>
<path d="M504.36 119.78V123.87C503.03 124.61 501.54 125.1 499.97 125.31C499.4 125.39 498.81 125.43 498.21 125.42C497.87 125.42 497.54 125.4 497.21 125.37C495.38 125.22 493.66 124.68 492.16 123.83V119.8C492.16 118.27 492.77 116.88 493.77 115.83C494.38 115.18 495.14 114.67 496.01 114.34C496.18 114.27 496.36 114.21 496.54 114.16C496.27 114.04 496.02 113.89 495.79 113.71C494.89 113.03 494.3 111.96 494.3 110.76C494.3 110.46 494.34 110.17 494.4 109.9C494.8 108.22 496.36 106.94 498.23 106.91C500.41 106.87 502.2 108.55 502.2 110.66C502.2 112.18 501.27 113.51 499.93 114.13C502.5 114.82 504.38 117.08 504.38 119.78H504.36Z" fill="#FFE9D4"/>
<path d="M517.19 133.94L480.04 133.4C478.24 133.37 476.77 134.8 476.77 136.57C476.77 138.34 478.24 139.82 480.04 139.86L517.19 140.68C519.16 140.72 520.79 139.24 520.79 137.37C520.79 135.51 519.17 133.96 517.19 133.93V133.94Z" fill="#FFE9D4"/>
<path d="M517.19 145.03L480.04 144.02C478.24 143.97 476.77 145.38 476.77 147.15C476.77 148.92 478.24 150.42 480.04 150.48L517.19 151.78C519.16 151.85 520.79 150.38 520.79 148.52C520.79 146.66 519.17 145.09 517.19 145.03V145.03Z" fill="#FFE9D4"/>
<path d="M491.09 135.53V137.35C491.09 137.62 491.17 137.9 491.51 137.91C491.85 137.91 491.93 137.69 491.93 137.37V135.55H492.26V137.38C492.26 137.85 492.08 138.2 491.5 138.19C490.94 138.18 490.75 137.85 490.75 137.37V135.53H491.08H491.09Z" fill="#50456D"/>
<path d="M492.92 137.47C492.94 137.73 493.07 137.94 493.35 137.95C493.62 137.95 493.76 137.81 493.76 137.53C493.76 137.27 493.65 137.12 493.28 136.95C492.85 136.74 492.67 136.56 492.67 136.18C492.67 135.8 492.91 135.53 493.36 135.54C493.9 135.54 494.04 135.92 494.05 136.23H493.72C493.71 136.09 493.67 135.81 493.35 135.8C493.1 135.8 493 135.96 493 136.16C493 136.4 493.11 136.51 493.44 136.67C493.91 136.9 494.1 137.12 494.1 137.51C494.1 137.9 493.86 138.23 493.34 138.22C492.78 138.21 492.61 137.86 492.59 137.47H492.92V137.47Z" fill="#50456D"/>
<path d="M495.7 136.99L494.8 136.97V137.93L495.8 137.95L495.76 138.23L494.48 138.2V135.58L495.75 135.6V135.89L494.81 135.87V136.68L495.71 136.7V136.98L495.7 136.99Z" fill="#50456D"/>
<path d="M496.46 137.05V138.24H496.13V135.61H496.86C497.32 135.63 497.57 135.88 497.57 136.32C497.57 136.71 497.37 136.87 497.21 136.92C497.45 137.01 497.54 137.22 497.54 137.59V137.69C497.54 137.94 497.54 138.11 497.58 138.25H497.25C497.21 138.12 497.21 137.89 497.21 137.68V137.59C497.21 137.22 497.13 137.05 496.77 137.04H496.46V137.05ZM496.46 136.77H496.78C497.1 136.78 497.23 136.61 497.23 136.32C497.23 136.06 497.11 135.89 496.82 135.89H496.46V136.77Z" fill="#50456D"/>
<path d="M498 138.27V135.64H498.4C499.12 137.41 499.23 137.67 499.26 137.78C499.24 137.43 499.24 137.04 499.24 136.61V135.66H499.55V138.3H499.16C498.41 136.44 498.32 136.19 498.28 136.08C498.3 136.41 498.3 136.83 498.3 137.3V138.27H497.99H498Z" fill="#50456D"/>
<path d="M500.38 137.51L500.19 138.31H499.85L500.51 135.68H500.95L501.63 138.34H501.27L501.08 137.53H500.38V137.51ZM501.01 137.22C500.86 136.6 500.76 136.19 500.72 135.97C500.68 136.2 500.58 136.66 500.45 137.21H501.02L501.01 137.22Z" fill="#50456D"/>
<path d="M503.57 137.28C503.57 136.8 503.57 136.3 503.59 136.01C503.49 136.47 503.26 137.53 503.04 138.36H502.72C502.56 137.61 502.32 136.47 502.22 135.98H502.21C502.23 136.29 502.24 136.86 502.24 137.32V138.35H501.92V135.71H502.42C502.63 136.53 502.83 137.49 502.89 137.85C502.94 137.55 503.19 136.52 503.4 135.74H503.9V138.39H503.57V137.28V137.28Z" fill="#50456D"/>
<path d="M505.69 137.17L504.77 137.15V138.12L505.79 138.14L505.74 138.42L504.43 138.39V135.74L505.73 135.76V136.05L504.77 136.03V136.85L505.69 136.87V137.16V137.17Z" fill="#50456D"/>
<path d="M489.01 147.53C489.01 148.28 488.38 148.87 487.61 148.85C486.84 148.82 486.21 148.2 486.21 147.44C486.21 146.68 486.83 146.1 487.61 146.12C488.38 146.14 489.01 146.77 489.01 147.53Z" fill="#50456D"/>
<path d="M494.29 147.7C494.29 148.46 493.65 149.05 492.87 149.03C492.09 149 491.46 148.37 491.46 147.61C491.46 146.85 492.09 146.26 492.87 146.28C493.65 146.3 494.29 146.94 494.29 147.7Z" fill="#50456D"/>
<path d="M499.65 147.86C499.65 148.62 499.01 149.22 498.21 149.2C497.42 149.17 496.78 148.54 496.78 147.78C496.78 147.02 497.42 146.42 498.21 146.44C499 146.46 499.65 147.1 499.65 147.86Z" fill="#50456D"/>
<path d="M505.07 148.03C505.07 148.8 504.42 149.4 503.62 149.37C502.82 149.34 502.17 148.7 502.17 147.94C502.17 147.18 502.82 146.57 503.62 146.6C504.42 146.62 505.07 147.27 505.07 148.03Z" fill="#50456D"/>
<path d="M510.56 148.2C510.56 148.97 509.9 149.58 509.09 149.55C508.28 149.52 507.62 148.88 507.62 148.11C507.62 147.34 508.28 146.73 509.09 146.76C509.9 146.78 510.56 147.43 510.56 148.2Z" fill="#50456D"/>
<path d="M194.529 77.7496C197.25 67.0783 190.804 56.2223 180.132 53.5022C169.461 50.7822 158.605 57.228 155.885 67.8993C153.165 78.5707 159.611 89.4265 170.282 92.1466C180.953 94.8667 191.809 88.421 194.529 77.7496Z" fill="#FF5F4A"/>
<path d="M163.37 83.5598L162.55 104.98L179.51 87.1298L163.37 83.5598Z" fill="#FF5F4A"/>
<path d="M168.92 64.6198L172.62 62.5898L176.19 69.1299L182.72 65.5598L184.75 69.2498L178.21 72.8298L181.79 79.3598L178.09 81.3799L174.51 74.8499L167.98 78.4198L165.96 74.7198L172.49 71.1498L168.92 64.6198Z" fill="white"/>
<path d="M318.31 9.58997L315.1 11.38L312.35 8.97998L300.66 19.45L286.78 27.2C286.78 27.2 285.99 27.03 284.78 26.77L275.45 17.53L269.95 21.88C267.7 20.1 264.68 17.77 264.68 17.77L266.89 24.3L283.95 41.19C285.01 42.24 286.5 42.85 288.09 42.88C288.14 42.88 288.19 42.88 288.23 42.88C289.76 42.88 291.23 42.34 292.31 41.37L320.52 16.11L318.31 9.57998V9.58997Z" fill="#2F6C70"/>
<path d="M286.02 36.36C286.02 36.36 285.92 36.36 285.88 36.36C284.3 36.32 282.8 35.71 281.74 34.67L264.68 17.78L273.24 11.01L286.23 23.87L310.14 2.45996L318.31 9.59996L290.1 34.86C289.02 35.83 287.55 36.37 286.02 36.37V36.36Z" fill="#36995E"/>
</svg>
