<?xml version="1.0" encoding="UTF-8" standalone="no"?>
<!DOCTYPE svg PUBLIC "-//W3C//DTD SVG 1.1//EN" "http://www.w3.org/Graphics/SVG/1.1/DTD/svg11.dtd">
<svg width="100%" height="100%" viewBox="0 0 1600 1200" version="1.1" xmlns="http://www.w3.org/2000/svg" xmlns:xlink="http://www.w3.org/1999/xlink" xml:space="preserve" xmlns:serif="http://www.serif.com/" style="fill-rule:evenodd;clip-rule:evenodd;stroke-linejoin:round;stroke-miterlimit:2;">
    <g id="background">
        <g>
            <g>
                <path d="M110.3,972.7C133.6,942.6 174.9,941.6 209,948.7C228.7,952.8 248,958.7 267.4,964.1C287.5,969.6 307.6,975.2 327.7,980.7C350.4,987 373,993.2 395.7,999.5C397.6,1000 398.4,997.1 396.5,996.6C354.4,985 312.2,973.3 270.1,961.7C232.8,951.4 192.1,935.7 153,944C135.6,947.7 119.1,956.3 108.1,970.5C107,972.1 109.1,974.2 110.3,972.7Z" style="fill:rgb(255,251,251);fill-rule:nonzero;"/>
            </g>
        </g>
        <g>
            <g>
                <path d="M256.1,958.8C266.7,953.6 271.2,939.8 282.7,936.2C294.5,932.5 307.6,939.8 318.4,931.8C323.1,928.3 326.6,922.5 332.3,920.4C337.3,918.6 342.5,920.6 347.3,922.1C351.4,923.4 355.5,924.6 359.6,925.9C376.1,931 392.5,936 409,941.1C427.7,946.8 446.3,952.6 465,958.3C466.8,958.9 467.6,956 465.8,955.4C431.6,944.9 397.5,934.4 363.3,923.9C355.3,921.5 347,917.8 338.7,916.8C332.9,916.1 328.3,918.4 324.2,922.2C318.5,927.5 314.2,932.4 305.9,932.8C299,933.2 292.2,931.4 285.3,932.5C271.1,934.7 266.7,950.2 254.7,956.1C252.9,957.1 254.4,959.7 256.1,958.8Z" style="fill:rgb(255,251,251);fill-rule:nonzero;"/>
            </g>
        </g>
        <g>
            <g>
                <path d="M435.8,946.2C442.9,948 448.5,940.9 454.9,938.8C463.5,935.9 472.7,937.1 480.5,941.6C482.2,942.6 483.7,940 482,939C475.4,935.1 467.9,933.5 460.3,934.5C457,934.9 453.9,935.8 450.9,937.1C446.6,939 441.6,944.5 436.6,943.3C434.7,942.8 433.9,945.7 435.8,946.2Z" style="fill:rgb(255,251,251);fill-rule:nonzero;"/>
            </g>
        </g>
        <g>
            <g>
                <path d="M512.9,938.7C506.2,933.2 499.8,927.3 493.8,921C491,918.1 488.3,915 485.7,911.9C484.2,910.1 482.7,908.3 481.3,906.5C480.3,905.2 479.3,903.9 478.4,902.6C476.8,901 476.8,899 478.5,896.8C479.7,897.3 481.6,896.1 480.6,894.7C474.5,886.5 470,877.5 467.1,867.7C466.5,868.3 465.9,868.9 465.3,869.5C468.6,870.4 471,872.1 472.8,874.9C473.8,876.5 476.4,875.1 475.4,873.4C460.5,847.6 448.3,820.4 439.1,792.1C438.3,792.6 437.4,793.1 436.6,793.6C478.5,834.8 497.5,892.1 532.8,938.2C534,939.7 536.6,938.2 535.4,936.7C500,890.4 480.8,832.9 438.7,791.5C437.7,790.5 435.7,791.5 436.2,793C445.5,821.6 457.7,849 472.8,875C473.7,874.5 474.5,874 475.4,873.5C473.1,870 470.1,867.7 466.1,866.7C465,866.4 463.9,867.4 464.3,868.5C467.3,878.5 471.9,887.8 478.1,896.2C478.8,895.5 479.5,894.8 480.2,894.1C477.4,892.8 474.3,894.1 473.6,897.4C472.7,902.1 478.4,907.3 481,910.6C489.9,921.7 500,931.8 511,940.8C512.3,942 514.4,939.9 512.9,938.7Z" style="fill:rgb(255,251,251);fill-rule:nonzero;"/>
            </g>
        </g>
        <g>
            <g>
                <path d="M502.4,876.2C484,848.7 469.1,819.2 458.1,788C457.8,788.6 457.4,789.2 457.1,789.8C460.5,789 463.4,790.3 465.3,793.3C466.3,795 468.7,793.5 467.9,791.8C452.4,758.3 436.6,723.4 437.7,685.7C436.8,686 435.8,686.2 434.9,686.5C461.6,741.5 487,797.2 511,853.4C511.7,855 514.3,853.8 513.7,852.2C509.7,840.2 505.8,828.1 501.8,816.1C499.9,810.2 497.9,804.4 496,798.5C494.7,794.6 491.9,786.1 497.5,784C496.9,783.8 496.4,783.5 495.8,783.3C503,797.4 510.1,811.5 517.3,825.6C518.2,827.3 520.8,825.8 519.9,824.1C512.1,808.8 508.5,791.9 509.2,774.7C508.2,774.8 507.2,775 506.3,775.1C527.1,826.8 551.2,877.2 578.3,925.9C579.2,927.6 581.8,926.1 580.9,924.4C553.9,875.9 529.9,825.8 509.2,774.3C508.6,772.8 506.3,772.9 506.3,774.7C505.6,792.4 509.4,809.7 517.4,825.6C518.3,825.1 519.1,824.6 520,824.1C512.8,810 505.7,795.9 498.5,781.8C498.2,781.3 497.4,780.9 496.8,781.1C486.8,784.8 493.2,799.1 495.4,805.8C500.6,821.5 505.7,837.3 510.9,853C511.8,852.6 512.7,852.2 513.6,851.8C489.6,795.6 464.2,739.9 437.5,684.9C436.8,683.5 434.7,684.3 434.7,685.7C433.5,723.9 449.6,759.4 465.3,793.3C466.2,792.8 467,792.3 467.9,791.8C465.3,787.7 461.1,785.9 456.3,786.9C455.5,787.1 455,788 455.3,788.7C466.4,820.1 481.4,849.9 499.9,877.6C500.9,879.3 503.5,877.8 502.4,876.2Z" style="fill:rgb(255,251,251);fill-rule:nonzero;"/>
            </g>
        </g>
        <g>
            <g>
                <path d="M304.8,1069.5C339.4,1052.8 375.9,1035.8 415.4,1039.8C434.1,1041.7 452.2,1047.1 470.8,1049.5C480.2,1050.7 489.7,1051.2 499.1,1050.1C507.9,1049 516.2,1045.8 524.8,1043.9C535.9,1041.4 546,1044 556.7,1047C565.5,1049.4 574.2,1051.4 583.3,1049.3C585.2,1048.9 584.4,1046 582.5,1046.4C564.3,1050.7 547.2,1037.6 528.8,1040.2C519.7,1041.5 511.2,1045.1 502.2,1046.7C492.7,1048.3 483,1048.1 473.4,1046.9C454.5,1044.7 436.1,1039.1 417.1,1037C398.4,1034.9 379.9,1037.3 362,1042.5C341.6,1048.5 322.3,1057.7 303.3,1066.9C301.5,1067.7 303.1,1070.3 304.8,1069.5Z" style="fill:rgb(255,251,251);fill-rule:nonzero;"/>
            </g>
        </g>
        <g>
            <g>
                <path d="M507.8,1152.4C519.5,1147.4 531,1141.9 542.1,1135.7C547.9,1132.4 553.6,1129 559.3,1125.4C564.4,1122.1 569.5,1117.4 575.1,1115C581.4,1112.4 590.9,1117.3 597.2,1119.2C603.9,1121.3 610.6,1123.3 617.2,1125.4C630.9,1129.6 644.6,1133.8 658.2,1138C660,1138.6 660.8,1135.7 659,1135.1C644.4,1130.6 629.7,1126.1 615.1,1121.6C608.1,1119.4 601.1,1117.3 594.1,1115.1C588.7,1113.4 581.9,1109.9 576.2,1111.3C570.9,1112.6 566.1,1117.2 561.6,1120.2C555.8,1124 549.8,1127.7 543.8,1131.2C531.7,1138.1 519.2,1144.3 506.3,1149.7C504.5,1150.5 506.1,1153.1 507.8,1152.4Z" style="fill:rgb(255,251,251);fill-rule:nonzero;"/>
            </g>
        </g>
        <g>
            <g>
                <path d="M632.2,1155.5C639.8,1151.7 647.4,1147.8 655,1144C662,1140.4 669.5,1135.6 677.5,1134.9C685.6,1134.1 691.9,1139.4 698.9,1142.5C704.8,1145.1 711.2,1146.6 717.6,1147C732.6,1147.8 746.6,1140.3 761.5,1141.1C773.4,1141.8 785.4,1151.6 797.1,1145.4C798.8,1144.5 797.3,1141.9 795.6,1142.8C788.3,1146.7 780.4,1142.9 773.2,1140.6C767,1138.6 761,1137.7 754.5,1138.4C739.1,1140 725,1146.5 709.2,1142.8C696.1,1139.8 686.1,1128.9 672,1133C665.5,1134.9 659.4,1138.5 653.4,1141.5C645.8,1145.3 638.2,1149.2 630.6,1153C629,1153.8 630.5,1156.4 632.2,1155.5Z" style="fill:rgb(255,251,251);fill-rule:nonzero;"/>
            </g>
        </g>
        <g>
            <g>
                <path d="M690.6,1133.8C684.4,1128.4 678.8,1122.4 674.2,1115.5C672.1,1112.4 670.2,1109.1 668.4,1105.8C667.5,1104.1 666.7,1102.4 666,1100.7C665.4,1099.3 664.8,1098 664.3,1096.6C663.4,1095.1 663.8,1093.7 665.5,1092.4C666.4,1092 667.3,1091.6 668.2,1091.2C657.2,1075 650.3,1056.6 648,1037.2C647.1,1037.6 646.3,1037.9 645.4,1038.3C647.2,1040.6 649,1042.9 650.9,1045.3C652,1046.7 654.1,1044.9 653.3,1043.5C635.9,1012.4 626.6,977.4 626.4,941.8C625.5,942.2 624.7,942.5 623.8,942.9C630.6,948.4 635.8,955.2 639,963.3C639.9,962.9 640.8,962.5 641.7,962.1C633.9,945.6 632.3,927 636.9,909.4L634,909.4C654.5,968.1 674.9,1026.7 695.4,1085.4C696,1087.2 698.9,1086.4 698.3,1084.6C688,1054.5 682.9,1022.9 683.2,991C682.3,991.4 681.5,991.7 680.6,992.1C686.7,997.6 690.5,1004.5 691.9,1012.6C692.2,1014.3 694.9,1013.9 694.8,1012.2C694.5,1006.1 694.1,999.9 693.8,993.8C693,994.2 692.3,994.7 691.5,995.1C696.8,998.5 697.8,1007.5 699.5,1013.1C701.3,1019.1 703.1,1025.1 705,1031.2C708.7,1043.6 712.5,1055.9 716.2,1068.3C723.7,1093 731.2,1117.8 738.7,1142.5C739.3,1144.3 742.2,1143.6 741.6,1141.7C733.5,1115.1 725.5,1088.4 717.4,1061.8C713.5,1048.8 709.5,1035.8 705.6,1022.8C703.6,1016.1 701.6,1009.5 699.6,1002.8C698.3,998.7 696.8,995 693.1,992.6C692.2,992 690.8,992.8 690.8,993.9C691.1,1000 691.5,1006.2 691.8,1012.3C692.8,1012.2 693.8,1012 694.7,1011.9C693.3,1003.3 689.1,995.8 682.6,990C681.6,989.1 680.1,989.7 680,991.1C679.7,1023.2 684.8,1055.1 695.2,1085.5C696.2,1085.2 697.1,1085 698.1,1084.7C677.6,1026 657.2,967.4 636.7,908.7C636.2,907.4 634.2,907.2 633.8,908.7C629,927.2 630.8,946.5 638.9,963.7C639.6,965.2 642.3,964.1 641.6,962.5C638.2,953.9 632.9,946.6 625.6,940.8C624.6,940 623,940.5 623,941.9C623.2,978 632.6,1013.6 650.3,1045.1C651.1,1044.5 651.9,1043.9 652.7,1043.3C650.9,1041 649.1,1038.7 647.2,1036.3C646.4,1035.3 644.5,1036.1 644.6,1037.4C646.9,1057.4 653.9,1076.3 665.2,1092.9C666.2,1094.3 668.2,1093.4 667.9,1091.7C667.4,1088.9 664.1,1087.9 661.8,1089.6C657.6,1092.6 661.7,1099.7 663.2,1103.1C668.9,1115.8 677.4,1126.9 687.9,1136C690,1137.1 692.1,1135 690.6,1133.8Z" style="fill:rgb(255,251,251);fill-rule:nonzero;"/>
            </g>
        </g>
        <g>
            <g>
                <path d="M586,909.5C584.7,890.7 618.8,901.5 628.3,903.3C643.9,906.2 659.4,909.1 675,912C706.1,917.8 737.3,923.6 768.4,929.4C770.3,929.8 771.1,926.9 769.2,926.5C733.5,919.8 697.9,913.2 662.2,906.5C644.7,903.2 627.2,899.9 609.7,896.7C603.4,895.5 596.1,894.2 590.2,897.5C585.7,899.9 582.7,904.3 583.1,909.5C583.1,911.4 586.2,911.4 586,909.5Z" style="fill:rgb(255,251,251);fill-rule:nonzero;"/>
            </g>
        </g>
        <g>
            <g>
                <path d="M747.7,926.1C758.1,927.2 764.5,917.3 772.6,912.5C779.5,908.5 785.5,911.6 792.6,913C800.5,914.6 808.6,914.8 816.6,913.8C818.5,913.6 818.5,910.6 816.6,910.8C807.6,911.9 798.6,911.5 789.8,909.3C784.5,907.9 779.7,906.2 774.4,908.3C765,911.9 758.6,924.3 747.7,923.1C745.8,922.9 745.8,925.9 747.7,926.1Z" style="fill:rgb(255,251,251);fill-rule:nonzero;"/>
            </g>
        </g>
        <g>
            <g>
                <path d="M938.4,1118.4C962.4,1110 986.6,1101.6 1011.4,1095.6C1037.3,1089.4 1063.4,1086.9 1090,1087.7C1116.3,1088.5 1142.4,1091.5 1168.6,1093.9C1194.9,1096.4 1221.2,1098.8 1247.5,1101.3C1277.7,1104.1 1308,1106.9 1338.2,1109.8C1340.1,1110 1340.1,1107 1338.2,1106.8C1284.3,1101.8 1230.4,1096.8 1176.4,1091.7C1124.5,1086.9 1072.3,1079.8 1020.6,1090.5C992.2,1096.4 964.8,1106 937.5,1115.5C935.8,1116.1 936.6,1119 938.4,1118.4Z" style="fill:rgb(255,251,251);fill-rule:nonzero;"/>
            </g>
        </g>
        <g>
            <g>
                <path d="M1044.1,1020C1062,1016.2 1078.8,1008.7 1095.7,1001.9C1113.8,994.7 1132.1,989.7 1151.5,988C1171.1,986.3 1190.8,987.3 1210.3,988.5C1229.9,989.7 1249.5,991.1 1269.2,992.5C1292.1,994.2 1315.1,996.1 1338,998.1C1339.9,998.3 1339.9,995.3 1338,995.1C1297.4,991.5 1256.8,988.4 1216.1,985.8C1177.4,983.3 1139.3,982.3 1102.4,996C1082.8,1003.3 1063.8,1012.6 1043.2,1017C1041.5,1017.5 1042.2,1020.4 1044.1,1020Z" style="fill:rgb(255,251,251);fill-rule:nonzero;"/>
            </g>
        </g>
        <g>
            <g>
                <path d="M1274.6,904.7C1288.9,893.8 1304,883.1 1320,874.9C1327.8,870.9 1336.2,867.7 1345,867C1354.5,866.2 1364,868.1 1373.3,869.3C1392.2,871.6 1411.2,873 1430.2,874.2C1442.8,875 1458.8,876.8 1467.7,865.8C1468.9,864.3 1466.8,862.2 1465.6,863.7C1455.5,876.2 1434.2,871.5 1420.4,870.6C1401.4,869.3 1382.6,867.5 1363.7,865.1C1355.6,864.1 1347.6,863.3 1339.5,864.8C1331.5,866.2 1324,869.4 1316.9,873.2C1301.5,881.4 1286.9,891.6 1273,902.2C1271.6,903.3 1273.1,905.9 1274.6,904.7Z" style="fill:rgb(255,251,251);fill-rule:nonzero;"/>
            </g>
        </g>
        <g>
            <g>
                <path d="M724.1,888.2C738.3,877.5 752.6,866.9 766.8,856.2C780.4,846 793.1,835.3 810.9,834.4C827.7,833.6 844.9,835.5 861.6,836.9C879.6,838.4 897.5,840.4 915.3,842.9C930.3,845 948.2,850.6 962.4,842.8C964.1,841.9 962.6,839.3 960.9,840.2C953.6,844.2 945.5,844.2 937.4,843.2C928.7,842.1 920,840.6 911.3,839.4C894.5,837.1 877.6,835.2 860.6,833.8C843.9,832.4 826.6,830.4 809.9,831.4C794.4,832.3 782.9,840.3 770.8,849.4C754.7,861.4 738.7,873.5 722.6,885.5C721.1,886.8 722.6,889.4 724.1,888.2Z" style="fill:rgb(255,251,251);fill-rule:nonzero;"/>
            </g>
        </g>
        <g>
            <g>
                <path d="M1286.7,993.9C1287.6,987.3 1288.9,980.9 1290.8,974.5C1291.7,971.5 1292.6,968.5 1293.8,965.5C1294.5,963.7 1296.4,960.7 1299,961.4C1300.3,961.8 1300.9,966.3 1301,967.2C1301.2,968.8 1303.4,969.3 1303.9,967.6C1308.6,952.3 1314,935.5 1328.4,926.6C1327.6,926.2 1326.9,925.7 1326.1,925.3C1326.1,927.8 1326,930.4 1326,932.9C1326,934.3 1328.1,935 1328.8,933.7C1337.7,915.2 1347.4,895.8 1365.4,884.6C1364.7,884 1363.9,883.5 1363.2,882.9C1354.2,906.2 1343.7,928.9 1331.8,950.9C1331,952.3 1333,954.1 1334.2,952.7C1340.9,944.7 1347.7,936.7 1356.5,930.9C1355.8,930.2 1355.1,929.5 1354.4,928.8C1343.3,952.2 1331.2,975 1317.9,997.2C1316.9,998.9 1319.5,1000.4 1320.5,998.7C1333.7,976.5 1345.9,953.7 1357,930.3C1357.6,929.1 1356.3,927.3 1354.9,928.2C1345.9,934.2 1338.9,942.3 1332,950.5C1332.8,951.1 1333.6,951.7 1334.4,952.3C1346.4,930.1 1357,907.2 1366.1,883.6C1366.6,882.4 1364.9,881.3 1363.9,881.9C1345.4,893.4 1335.4,913.1 1326.2,932.1C1327.1,932.4 1328.1,932.6 1329,932.9C1329,930.4 1329.1,927.8 1329.1,925.3C1329.1,924.2 1327.8,923.4 1326.8,924C1311.8,933.3 1305.9,950.7 1301,966.8C1302,966.9 1303,967.1 1303.9,967.2C1303.4,962.1 1298.8,953.4 1293.2,959.9C1290.4,963.2 1289.3,968.6 1288.1,972.7C1286.1,979.3 1284.7,986.1 1283.7,993C1283.6,995 1286.4,995.8 1286.7,993.9Z" style="fill:rgb(255,251,251);fill-rule:nonzero;"/>
            </g>
        </g>
        <g>
            <g>
                <path d="M588,825.1C595.8,820.9 603.7,816.7 612.3,814.4C621.4,812 630.4,812.8 639.5,814C657.6,816.4 675.7,818.8 693.7,821.2C695.6,821.5 695.6,818.5 693.7,818.2C674.4,815.6 655,812.8 635.7,810.5C626.8,809.4 618.3,809.4 609.7,811.9C601.5,814.3 593.9,818.4 586.4,822.4C584.7,823.5 586.3,826 588,825.1Z" style="fill:rgb(255,251,251);fill-rule:nonzero;"/>
            </g>
        </g>
        <g>
            <g>
                <path d="M157.8,480.8C164.5,470.5 178.9,475.9 187.8,479.5C198.1,483.7 208.5,486.8 218.1,479.4C223,475.6 227,471 233.1,469.2C239.4,467.2 246.4,468.1 252.8,469.6C264.8,472.5 275.9,478.4 288.5,478.6C290.4,478.6 290.4,475.6 288.5,475.6C274,475.3 261.4,467.4 247.2,465.5C241.7,464.8 236.1,464.9 230.8,466.8C225.5,468.7 221.7,472.6 217.5,476.1C204.3,487.1 191.5,475.8 177.8,472.8C169.6,471 160.2,471.6 155.2,479.3C154.2,480.9 156.8,482.4 157.8,480.8Z" style="fill:rgb(255,251,251);fill-rule:nonzero;"/>
            </g>
        </g>
        <g>
            <g>
                <path d="M1196.3,146.8C1203.5,140.7 1213.6,141.9 1221.5,145.8C1227.5,148.7 1232.4,154.6 1239.4,154.9C1245.9,155.1 1251.3,150.7 1256.8,147.8C1260.5,145.9 1264.3,144.6 1268.5,145.5C1273,146.4 1276.9,149 1281,150.8C1294.5,156.7 1303.5,148.5 1314.9,142C1318.1,140.2 1321.5,138.6 1325.2,138.3C1329.9,137.9 1334.1,140 1338.3,141.8C1344.9,144.6 1349.9,145.7 1356.6,143C1363.5,140.3 1369.1,140.7 1376,143.2C1380.4,144.8 1384.6,146.8 1389.2,147.8C1396.1,149.4 1403.5,149 1408.7,143.7C1410.1,142.3 1407.9,140.2 1406.6,141.6C1399.9,148.4 1389.7,145.2 1382,142.2C1374.2,139.2 1366.2,136 1357.9,139.1C1352.7,141.1 1349.2,142.5 1343.6,140.6C1339.8,139.3 1336.3,137.2 1332.4,136.1C1326.5,134.3 1321,135.3 1315.6,138C1309.4,141.1 1304,146 1297.5,148.6C1288.9,152 1282.2,147.5 1274.4,144.2C1268.7,141.8 1263.3,141.4 1257.6,143.9C1250.7,147 1244,153.8 1235.9,150.9C1231.6,149.4 1228.2,145.9 1224.3,143.7C1221,141.9 1217.4,140.6 1213.7,139.9C1206.6,138.6 1199.7,139.8 1194.1,144.5C1192.7,146 1194.9,148.1 1196.3,146.8Z" style="fill:rgb(255,251,251);fill-rule:nonzero;"/>
            </g>
        </g>
        <g>
            <g>
                <path d="M1252.3,226C1257,217.5 1268.1,221.6 1275,224.4C1281.9,227.2 1288.1,228.9 1295.4,226.4C1301.4,224.3 1306.8,220.3 1313,218.9C1321.6,216.9 1326.5,224.2 1334.3,225.9C1346.5,228.6 1358.8,215 1370.3,220.7C1373.5,222.3 1375.7,224.4 1379.5,224.1C1383,223.9 1386.2,222.2 1389.6,221.4C1399.1,219.2 1409,220.9 1417.5,225.6C1419.2,226.5 1420.7,223.9 1419,223C1413.6,220 1407.8,218.2 1401.7,217.6C1398.6,217.3 1395.4,217.4 1392.3,217.9C1388.6,218.4 1385.2,220 1381.6,220.7C1376.7,221.6 1374.6,219.2 1370.6,217.5C1368.6,216.7 1366.4,216.3 1364.3,216.4C1359.3,216.6 1354.5,218.7 1349.9,220.4C1344,222.6 1337.7,224.7 1331.7,221.7C1326.6,219.2 1322.6,215.4 1316.6,215.4C1304.2,215.5 1295.5,227.4 1282.4,223.8C1272.7,221.1 1257.1,211.6 1249.9,224.4C1248.8,226.2 1251.4,227.7 1252.3,226Z" style="fill:rgb(255,251,251);fill-rule:nonzero;"/>
            </g>
        </g>
        <g>
            <g>
                <path d="M1155.3,345.7C1162.4,340.1 1170.5,340.4 1178.3,344C1182.6,346 1187.2,347.9 1191.7,345.2C1194.3,343.6 1196,341.1 1199.1,340.2C1202.4,339.2 1205.9,339.9 1209.1,340.7C1214.8,342.1 1220.3,344.6 1226.2,345C1233.2,345.5 1239.6,342.5 1246.4,341.8C1253.7,341.1 1258.8,345.5 1265.6,346.5C1272.2,347.4 1277.3,342.1 1283.9,343.1C1291.9,344.3 1299.8,347 1307.7,349C1309.6,349.5 1310.4,346.6 1308.5,346.1C1300.2,344 1291.6,340.8 1283.1,339.9C1275.9,339.1 1270.7,345 1263.5,342.8C1256.8,340.8 1252,337.9 1244.8,338.9C1237.1,340 1230.1,343 1222.2,341.3C1216.1,340 1210.2,337.1 1203.9,336.7C1201.6,336.6 1199.2,336.8 1197,337.7C1194.2,338.8 1192.7,341.1 1190.1,342.6C1184.1,346.1 1176,338.7 1169.6,338.2C1163.5,337.7 1157.9,339.8 1153.1,343.5C1151.6,344.8 1153.8,346.9 1155.3,345.7Z" style="fill:rgb(255,251,251);fill-rule:nonzero;"/>
            </g>
        </g>
        <g>
            <g>
                <path d="M582,127.5C583.9,127.5 583.9,124.5 582,124.5C580.1,124.5 580.1,127.5 582,127.5Z" style="fill:rgb(255,251,251);fill-rule:nonzero;"/>
            </g>
        </g>
        <g>
            <g>
                <path d="M590.8,129.8C592.6,120.9 604.4,126.6 608.7,129.3C613.6,132.4 618.8,135.2 624.8,133.5C631.3,131.6 635.7,126 642.9,125.6C649.7,125.3 656.3,128.4 662.7,130.4C668.2,132.1 674,133.3 679.7,131.9C686.4,130.3 692.1,125.6 698.9,124.4C712.3,122.1 724.4,133 738,128.8C739.8,128.2 739.1,125.3 737.2,125.9C723,130.4 709.5,117.8 695.1,122.3C687.7,124.6 681.5,129.8 673.4,129.5C665.9,129.2 659.1,125.6 652,123.8C646.4,122.4 640.7,122 635.3,124.5C632.2,125.9 629.5,128.2 626.4,129.7C621.3,132.1 617,130.7 612.4,128.1C607.4,125.2 603.1,121.8 597,122.3C592.7,122.6 588.9,124.8 588.1,129.2C587.6,130.9 590.5,131.7 590.8,129.8Z" style="fill:rgb(255,251,251);fill-rule:nonzero;"/>
            </g>
        </g>
        <g>
            <g>
                <path d="M599.9,713.7C611.8,708.7 623.8,717.6 635.8,718.2C642,718.5 648,717 654.1,715.8C661.8,714.3 668.4,714.2 675.8,717.3C680.3,719.2 684.4,720.4 689,718.6C691.6,717.6 693.8,715.9 696.4,715C699.3,714 702.3,713.8 705.4,713.8C716.1,714 726.8,717.7 737,712.9C738.7,712.1 737.2,709.5 735.5,710.3C724.6,715.4 712.5,709.8 701,711C695.5,711.6 691.9,714.8 686.8,716.3C680.7,718.1 674.7,712.9 668.7,712C655.8,710 643.6,717.2 630.6,714.6C620.2,712.5 609.7,706.4 599.1,710.9C597.4,711.6 598.2,714.5 599.9,713.7Z" style="fill:rgb(255,251,251);fill-rule:nonzero;"/>
            </g>
        </g>
    </g>
    <g id="diamod">
        <path d="M606.9,248.4C598.2,266.1 589.4,283.8 580.7,301.5C616.7,349.8 652.7,398 688.7,446.3C698,432.2 707.2,417.8 716.5,403.3C738.4,368.9 759.3,334.9 779.3,301.2C772.5,283.9 765.6,266.5 758.8,249.2C754.4,246.9 750,244.7 745.6,242.4C703,242.5 660.4,242.6 617.9,242.7C614.1,244.7 610.5,246.6 606.9,248.4Z" style="fill:white;fill-rule:nonzero;"/>
        <g>
            <g>
                <path d="M581.9,302.3C589.5,285.6 597.3,269 605.3,252.5C606.1,250.8 603.6,249.2 602.7,251C594.7,267.5 586.9,284.1 579.3,300.8C578.5,302.5 581.1,304.1 581.9,302.3Z" style="fill-rule:nonzero;"/>
            </g>
        </g>
        <g>
            <g>
                <path d="M579.9,304.1C615.1,352.4 651,400.1 687.6,447.4C688.8,448.9 690.9,446.8 689.7,445.3C653.3,398.2 617.6,350.7 582.5,302.6C581.4,301.1 578.8,302.6 579.9,304.1Z" style="fill-rule:nonzero;"/>
            </g>
        </g>
        <g>
            <g>
                <path d="M606,250.8C610.2,248.6 614.3,246.3 618.5,244.1C620.2,243.2 618.7,240.6 617,241.5C612.8,243.7 608.7,246 604.5,248.2C602.7,249.2 604.3,251.7 606,250.8Z" style="fill-rule:nonzero;"/>
            </g>
        </g>
        <g>
            <g>
                <path d="M621,244.3L714.7,244.3C716.6,244.3 716.6,241.3 714.7,241.3L621,241.3C619.1,241.3 619.1,244.3 621,244.3Z" style="fill-rule:nonzero;"/>
            </g>
        </g>
        <g>
            <g>
                <path d="M780.7,300.9C774.4,284.2 767.9,267.7 761.2,251.1C760.5,249.3 757.6,250.1 758.3,251.9C765,268.4 771.5,285 777.8,301.7C778.5,303.5 781.4,302.7 780.7,300.9Z" style="fill-rule:nonzero;"/>
            </g>
        </g>
        <g>
            <g>
                <path d="M777.4,302.4C748.1,350.4 718.2,398.1 687.7,445.4C686.6,447 689.2,448.5 690.3,446.9C720.8,399.6 750.7,352 780,303.9C781,302.3 778.4,300.7 777.4,302.4Z" style="fill-rule:nonzero;"/>
            </g>
        </g>
        <g>
            <g>
                <path d="M759.4,248C755.9,245.8 752.4,243.5 748.9,241.3C747.3,240.3 745.8,242.8 747.4,243.9C750.9,246.1 754.4,248.4 757.9,250.6C759.6,251.7 761.1,249.1 759.4,248Z" style="fill-rule:nonzero;"/>
            </g>
        </g>
        <g>
            <g>
                <path d="M745.5,241L667.3,241C665.4,241 665.4,244 667.3,244L745.5,244C747.4,244 747.4,241 745.5,241Z" style="fill-rule:nonzero;"/>
            </g>
        </g>
        <g>
            <g>
                <path d="M583.1,303.8C601,296.1 618.9,288.4 636.8,280.7C638.6,279.9 637,277.4 635.3,278.1C617.4,285.8 599.5,293.5 581.6,301.2C579.9,302 581.4,304.6 583.1,303.8Z" style="fill-rule:nonzero;"/>
            </g>
        </g>
        <g>
            <g>
                <path d="M606.5,249.9C617.5,251.6 628.3,254 639,257C640.9,257.5 641.7,254.6 639.8,254.1C629.1,251 618.3,248.7 607.3,247C605.4,246.7 604.5,249.6 606.5,249.9Z" style="fill-rule:nonzero;"/>
            </g>
        </g>
        <g>
            <g>
                <path d="M638.2,256.5C640.6,264 642.7,271.5 644.5,279.2C644.9,281.1 647.8,280.3 647.4,278.4C645.6,270.7 643.5,263.2 641.1,255.7C640.5,253.9 637.6,254.6 638.2,256.5Z" style="fill-rule:nonzero;"/>
            </g>
        </g>
        <g>
            <g>
                <path d="M642.8,256.8L723.1,256.8C725,256.8 725,253.8 723.1,253.8L642.8,253.8C640.9,253.8 640.9,256.8 642.8,256.8Z" style="fill-rule:nonzero;"/>
            </g>
        </g>
        <g>
            <g>
                <path d="M721.8,257.4C720.8,262.9 719.8,268.5 718.8,274C718.5,275.9 721.4,276.7 721.7,274.8C722.7,269.3 723.7,263.7 724.7,258.2C725,256.3 722.1,255.5 721.8,257.4Z" style="fill-rule:nonzero;"/>
            </g>
        </g>
        <g>
            <g>
                <path d="M646.1,279.4L716.4,279.4C718.3,279.4 718.3,276.4 716.4,276.4L646.1,276.4C644.2,276.4 644.2,279.4 646.1,279.4Z" style="fill-rule:nonzero;"/>
            </g>
        </g>
        <g>
            <g>
                <path d="M726,256.8C736.9,254.5 747.7,252.2 758.6,249.9C760.5,249.5 759.7,246.6 757.8,247C746.9,249.3 736.1,251.6 725.2,253.9C723.3,254.3 724.1,257.2 726,256.8Z" style="fill-rule:nonzero;"/>
            </g>
        </g>
        <g>
            <g>
                <path d="M721,278.5C731.1,280.1 740.5,285.8 749.7,290.1C759.5,294.7 769.2,299.3 779,303.9C780.7,304.7 782.3,302.1 780.5,301.3C770.1,296.4 759.8,291.6 749.4,286.7C740.6,282.5 731.5,277.2 721.8,275.6C719.9,275.3 719.1,278.2 721,278.5Z" style="fill-rule:nonzero;"/>
            </g>
        </g>
        <g>
            <g>
                <path d="M647,284C660,337.6 672.9,391.3 685.9,444.9C686.4,446.8 689.2,446 688.8,444.1C675.8,390.5 662.9,336.8 649.9,283.2C649.4,281.3 646.5,282.1 647,284Z" style="fill-rule:nonzero;"/>
            </g>
        </g>
        <g>
            <g>
                <path d="M716.8,287.6C704.6,339.2 694.5,391.4 686.7,443.9C686.4,445.8 689.3,446.6 689.6,444.7C697.4,392.2 707.5,340.1 719.7,288.4C720.2,286.5 717.3,285.7 716.8,287.6Z" style="fill-rule:nonzero;"/>
            </g>
        </g>
        <g>
            <g>
                <path d="M717.8,187.5C722.3,176 724.8,163.9 725.2,151.5C725.3,149.6 722.3,149.6 722.2,151.5C721.8,163.6 719.3,175.4 714.9,186.7C714.2,188.5 717.1,189.2 717.8,187.5Z" style="fill-rule:nonzero;"/>
            </g>
        </g>
        <g>
            <g>
                <path d="M738.3,189.5C747.9,178.6 758.7,169 770.8,160.9C772.4,159.8 770.9,157.2 769.3,158.3C757,166.5 745.9,176.3 736.2,187.4C734.9,188.8 737,190.9 738.3,189.5Z" style="fill-rule:nonzero;"/>
            </g>
        </g>
        <g>
            <g>
                <path d="M758,208C770.4,204.3 783.2,202.9 796.1,203.9C798,204 798,201 796.1,200.9C782.9,199.9 769.9,201.3 757.2,205.1C755.4,205.7 756.1,208.6 758,208Z" style="fill-rule:nonzero;"/>
            </g>
        </g>
        <g>
            <g>
                <path d="M547.3,137.9C548.5,157.7 537.4,176.6 519.6,185.2C518.6,185.7 518.7,187.2 519.6,187.8C535.9,197.6 543.4,215.6 547.7,233.3C548.2,235.2 551,234.4 550.6,232.5C546.1,214 538.1,195.3 521.1,185.2L521.1,187.8C539.8,178.7 551.6,158.6 550.3,137.9C550.2,136 547.2,136 547.3,137.9Z" style="fill:rgb(232,232,232);fill-rule:nonzero;"/>
            </g>
        </g>
        <g>
            <g>
                <path d="M548.4,137.9C547.1,158.7 558.9,178.8 577.6,187.8L577.6,185.2C560.5,195.4 552.5,214.1 548,232.7C547.5,234.6 550.4,235.4 550.9,233.5C555.2,215.7 562.7,197.6 579.1,187.8C580,187.3 580.1,185.7 579.1,185.2C561.3,176.6 550.1,157.7 551.3,137.9C551.5,136 548.5,136 548.4,137.9Z" style="fill:rgb(232,232,232);fill-rule:nonzero;"/>
            </g>
        </g>
    </g>
    <g id="leg_right">
        <path d="M1035.3,888.6C1038.8,887.1 1043.6,884.9 1049.1,881.8C1058.3,876.7 1062.9,874.1 1065.7,870C1069.3,864.6 1067.9,861.7 1072.6,856.3C1073.3,855.4 1076.6,851.9 1080.9,850C1088.3,846.9 1095.2,850.6 1106.7,854.7C1117.3,858.5 1125.6,860.3 1142.2,864C1148.8,865.5 1156.8,867 1168.4,870.6C1171.7,871.6 1174.3,872.5 1176.1,873.1C1176.3,875.2 1176.4,880.6 1172.9,885.5C1171.3,887.7 1169.1,889.5 1165.6,891.1C1157.5,894.9 1149.8,894.2 1143.3,893.9C1129.3,893.3 1135.1,895.3 1102.1,895.9C1094.9,896 1089,896 1084.9,896C1079.8,899.5 1074.7,903.1 1069.5,906.8C1060.7,913.2 1052.3,919.6 1044.3,925.9C1041.3,913.5 1038.3,901 1035.3,888.6Z" style="fill-rule:nonzero;"/>
        <path d="M993.6,760.6C986.4,764.4 985.6,765.8 958.8,788.6C917,824.1 912.4,826 874.5,859.1C838.2,890.7 831.4,898.6 824.5,909C807.3,935.3 803.5,957.3 802.4,968C800.9,982.4 798.9,1002.4 811.6,1018.2C819.6,1028.1 830,1032.2 833.5,1033.5C844,1037.5 852.6,1037 868.1,1035.9C888.7,1034.4 904.4,1030.4 910.6,1028.7C917.4,1026.8 933.2,1022.1 953,1012.3C971.6,1003.1 979.6,996.3 1005,979.2C1016.3,971.6 1033,960.5 1054,947.7C1055.3,937.7 1054.2,929.9 1053.1,925C1050.5,913.4 1045.2,905.4 1039.3,896.6C1034.5,889.4 1029.9,883.9 1026.7,880.3C1034.2,874.6 1044,866.4 1054.3,855.4C1061.2,848 1072.1,836.2 1081.2,819.6C1092.4,799.2 1103.6,778.6 1096.4,764.4C1085.1,742.1 1031.3,741.1 993.6,760.6Z" style="fill:white;fill-rule:nonzero;"/>
        <path d="M1083.2,771.5C1077.5,784.7 1068.1,803.4 1053.1,823.4C1031.3,852.3 1009.3,868.3 976.1,892C882.2,959 857,974.3 859.8,980.7C863.6,989.4 916.5,973.8 924.2,971.5C980.4,954.9 1021.8,929.3 1047.7,910.6C1041.1,900.5 1034.5,890.4 1027.9,880.4C1036,874.6 1047.2,865.4 1057.7,851.7C1063.5,844.2 1072.3,832.6 1078,815.1C1083.8,797.7 1084,782.2 1083.2,771.5Z" style="fill:rgb(155,151,151);fill-opacity:0.18;fill-rule:nonzero;"/>
        <g>
            <g>
                <path d="M993.2,760.5C957.6,787 922.9,814.8 889.5,843.9C873.5,857.8 857.5,871.7 842.5,886.6C829.2,899.8 816.8,914.4 809.3,931.8C801.5,949.8 799.3,970.6 801.2,990.1C802.8,1006.2 808.7,1022.4 823.4,1030.8C838.8,1039.5 858.2,1038.6 875.2,1036.8C896.1,1034.7 916.7,1029.6 936.2,1021.7C979.7,1004 1013.8,970.9 1054.9,949C1056.6,948.1 1055.1,945.5 1053.4,946.4C1019.1,964.7 989.9,991.1 955.5,1009.4C937.5,1019 918.1,1026 898.1,1030.3C879.6,1034.2 858.8,1037.2 840,1033.6C831.2,1031.9 822.7,1028.3 816.4,1021.7C810.3,1015.2 807,1006.7 805.3,998C801.6,979.1 803.3,957.7 809.5,939.5C815.7,921.3 827.8,906 841,892.4C854.7,878.3 869.7,865.3 884.4,852.4C919.9,821.2 956.7,791.4 994.7,763.2C996.2,762 994.8,759.4 993.2,760.5Z" style="fill-rule:nonzero;"/>
            </g>
        </g>
        <g>
            <g>
                <path d="M895.2,965.5C928,952.8 957.7,933.8 985.9,913C999.8,902.8 1013.5,892.2 1027.1,881.6C1040.5,871.1 1053.3,860 1063.7,846.5C1064.9,845 1062.3,843.5 1061.1,845C1050.5,858.8 1037.2,869.9 1023.6,880.6C1010.2,891.1 996.7,901.5 982.9,911.6C955.3,931.8 926.4,950.4 894.4,962.7C892.6,963.3 893.4,966.2 895.2,965.5Z" style="fill-rule:nonzero;"/>
            </g>
        </g>
        <g>
            <g>
                <path d="M1025.6,881.3C1044.9,897.5 1055.1,922.6 1052.4,947.7C1052.2,949.6 1055.2,949.6 1055.4,947.7C1058.1,921.9 1047.5,895.9 1027.7,879.2C1026.3,877.9 1024.2,880 1025.6,881.3Z" style="fill-rule:nonzero;"/>
            </g>
        </g>
        <g>
            <g>
                <path d="M1052.2,919.8C1057.9,918.1 1062.9,913.3 1067.7,909.9C1073.7,905.7 1079.6,901.5 1085.6,897.3C1087.2,896.2 1085.7,893.6 1084.1,894.7C1078.7,898.5 1073.2,902.4 1067.8,906.2C1062.8,909.7 1057.3,915.1 1051.4,916.9C1049.5,917.4 1050.3,920.3 1052.2,919.8Z" style="fill-rule:nonzero;"/>
            </g>
        </g>
        <g>
            <g>
                <path d="M1035.7,890C1047,885.3 1057.4,878.9 1066.8,871C1068.3,869.7 1066.1,867.6 1064.7,868.9C1055.8,876.5 1045.8,882.6 1035,887.1C1033.2,887.9 1034,890.8 1035.7,890Z" style="fill-rule:nonzero;"/>
            </g>
        </g>
        <g>
            <g>
                <path d="M1065.7,869.7C1067.6,869.7 1067.6,866.7 1065.7,866.7C1063.8,866.7 1063.8,869.7 1065.7,869.7Z" style="fill-rule:nonzero;"/>
            </g>
        </g>
        <g>
            <g>
                <path d="M1069.3,866.1C1071,862.1 1072.8,857.7 1076,854.6C1080.3,850.4 1085.5,851 1091,852.2C1101.2,854.5 1111.2,857.7 1121.2,860.6C1130.5,863.2 1139.8,865.5 1149.4,866.6C1155,867.2 1159.7,867.9 1164.7,870.4C1168.4,872.2 1171.6,874 1175.7,874.4C1177.6,874.6 1177.6,871.6 1175.7,871.4C1170.2,870.9 1165.9,867.1 1160.7,865.4C1155.5,863.7 1149.7,863.8 1144.3,862.9C1132.5,861 1121,857.4 1109.6,854C1104,852.4 1098.4,850.8 1092.7,849.5C1088.5,848.6 1084.1,847.5 1079.9,848.8C1072.6,851 1069.1,858.8 1066.4,865.3C1065.7,867.1 1068.6,867.9 1069.3,866.1Z" style="fill-rule:nonzero;"/>
            </g>
        </g>
        <g>
            <g>
                <path d="M1085.2,899.5C1106.6,896.3 1127.8,895.8 1149.4,895.4C1156.9,895.3 1164.9,894.4 1170.9,889.5C1176,885.3 1178.9,879.2 1177.5,872.7C1177.1,870.8 1174.2,871.6 1174.6,873.5C1176.5,882.6 1168.3,889.3 1160.2,891.3C1151.9,893.3 1142.9,892.3 1134.4,892.5C1117.6,892.8 1101,894.2 1084.4,896.7C1082.5,896.9 1083.4,899.8 1085.2,899.5Z" style="fill-rule:nonzero;"/>
            </g>
        </g>
    </g>
    <g id="leg_left">
        <path d="M1161.1,879.6C1168.5,874.3 1176,869 1183.4,863.7C1183.9,860.3 1185.5,852.9 1191.6,846.6C1193.4,844.7 1197.6,840.3 1203.9,839.1C1210.5,837.8 1215.6,840.8 1221.3,843.4C1230.5,847.6 1239.4,849.2 1257,852.6C1270.9,855.2 1277.9,856.5 1287.9,856C1301.5,855.2 1311.2,851.6 1317,857.3C1317.6,857.9 1320.1,860.6 1319.9,863.9C1319.6,868.1 1315.1,870.8 1311.5,872.9C1295.8,881.9 1287,884.5 1287,884.5C1264.8,891 1253.6,894.3 1244,895.1C1236.2,895.7 1225.1,896 1211.7,893.9C1207.8,907.3 1196,915.9 1184.9,915.2C1170.6,914.3 1157.4,898.2 1161.1,879.6Z" style="fill-rule:nonzero;"/>
        <path d="M1017.5,791.2C1019.7,784.5 1023.8,776 1031.5,773.2C1036.5,771.4 1041.1,772.6 1042.6,773C1051.9,775.3 1071,772 1109.1,765.5C1128,762.3 1151.9,757.6 1179.4,750.6C1179.5,755.7 1179.4,762.4 1179.1,770.2C1178.4,787.7 1176.6,800.9 1176.2,804C1174.5,816.4 1171.5,837 1162.4,862C1160.1,868.4 1157.8,873.7 1156.2,877.3C1160.1,879.1 1164.3,881.5 1168.4,884.9C1185.3,898.4 1190.2,917.5 1191.8,925.6C1189.4,928.5 1185.8,932.8 1181.2,937.7C1162.6,957.5 1145.4,968.6 1112.6,988.9C1092.4,1001.4 1077.6,1010.5 1053.9,1024.5C1025.1,1041.5 1001.8,1054.7 972.8,1063C965.6,1065.1 954.2,1067.9 939.8,1066.4C932.8,1065.7 920.2,1064.4 908.1,1055.6C892.6,1044.4 887.7,1028 885.7,1020.8C881.2,1004.7 882.9,989.6 887.1,973.9C890,962.9 900.5,926.4 937,885.3C944.3,877.1 965.1,858.6 1006.5,821.6C1016.5,812.7 1024.7,805.4 1030.2,800.6C1026,797.4 1021.8,794.3 1017.5,791.2Z" style="fill:white;fill-rule:nonzero;"/>
        <path d="M1153.5,763.5C1151.2,772.3 1147.5,785 1141.9,799.9C1090.8,935.3 976.6,993.8 985.9,1008.4C992.7,1019.2 1057.9,992.3 1104.9,964C1140.1,942.8 1166.3,920.1 1183.8,903C1181,898.9 1176.7,893.3 1170.2,888C1163.9,882.9 1157.9,879.8 1153.4,877.9C1156.5,873.4 1160.6,866.6 1164.1,857.9C1166.4,852.3 1168.4,846.3 1171,834.1C1175.2,814.8 1176.9,799.5 1177.4,794.7C1178.6,783.2 1179.7,768.3 1179.5,750.7C1170.8,754.9 1162.2,759.2 1153.5,763.5Z" style="fill:rgb(155,151,151);fill-opacity:0.18;fill-rule:nonzero;"/>
        <g>
            <g>
                <path d="M1178,750.6C1178.1,769.5 1176.9,788.4 1174.3,807.2C1171.9,824.1 1168.9,841.5 1162.7,857.5C1156,874.8 1144.5,887.4 1130.6,899.3C1116.4,911.4 1102.1,923.3 1087.8,935.2C1071.4,948.9 1054.9,962.5 1038.5,976.2C1037,977.4 1039.1,979.5 1040.6,978.3C1070.7,953.3 1100.8,928.4 1130.7,903.1C1143.9,891.9 1155.9,880.3 1163.1,864.2C1170.1,848.6 1173.5,831.5 1176.2,814.7C1179.6,793.5 1181.2,772.1 1181,750.6C1181,748.6 1178,748.6 1178,750.6Z" style="fill-rule:nonzero;"/>
            </g>
        </g>
        <g>
            <g>
                <path d="M1019.2,794C1023.3,796.2 1027.4,798.4 1031.6,800.6C1033.3,801.5 1034.8,798.9 1033.1,798C1029,795.8 1024.9,793.6 1020.7,791.4C1019,790.5 1017.5,793.1 1019.2,794Z" style="fill-rule:nonzero;"/>
            </g>
        </g>
        <g>
            <g>
                <path d="M1031.6,799.4C996,828.4 958.6,857.1 928.9,892.3C903.3,922.6 882.2,961 882.3,1001.7C882.3,1019.6 887.2,1038.3 900.4,1051C913.6,1063.8 932.7,1068.8 950.7,1067.9C972.7,1066.8 993.6,1058.1 1013.2,1048.5C1034.2,1038.2 1054.1,1026 1074.1,1013.9C1115.3,988.9 1161.3,965.6 1192.2,927.5C1193.4,926 1191.3,923.9 1190.1,925.4C1164.2,957.4 1127.8,977.9 1093.1,998.9C1074,1010.5 1055.1,1022.3 1035.6,1033.3C1016.5,1044.1 996.6,1054.4 975.5,1060.5C955.7,1066.2 933.6,1067.4 914.9,1057.5C896.9,1048.1 887.7,1029.9 885.8,1010.1C882.1,970.1 902.2,930.3 926.5,899.9C956.8,862 996.4,831.8 1033.8,801.4C1035.2,800.3 1033.1,798.2 1031.6,799.4Z" style="fill-rule:nonzero;"/>
            </g>
        </g>
        <g>
            <g>
                <path d="M1155.5,878.5C1174.3,887.5 1187.4,905.3 1190.5,925.9C1190.8,927.8 1193.7,927 1193.4,925.1C1190.3,903.8 1176.5,885.1 1157.1,875.9C1155.3,875.1 1153.8,877.7 1155.5,878.5Z" style="fill-rule:nonzero;"/>
            </g>
        </g>
        <g>
            <g>
                <path d="M1161.5,881.1C1165.5,879.5 1168.7,876.8 1172.1,874.2C1176.1,871.1 1180.2,868.1 1184.2,865C1185.7,863.8 1184.2,861.2 1182.7,862.4C1179.1,865.1 1175.5,867.8 1171.9,870.6C1168.4,873.3 1164.9,876.6 1160.7,878.2C1159,878.9 1159.7,881.8 1161.5,881.1Z" style="fill-rule:nonzero;"/>
            </g>
        </g>
        <g>
            <g>
                <path d="M1185.7,863.8C1187.7,857.9 1190.1,852.1 1193.3,846.7C1197.7,839.3 1204.3,840.1 1211.7,842C1223.2,844.9 1234.2,849.3 1245.8,851.9C1268.3,856.9 1291.4,858.6 1314.4,857.1C1316.3,857 1316.3,854 1314.4,854.1C1287.3,855.9 1260,853.1 1233.8,845.7C1227.5,843.9 1221.4,841.6 1215.1,839.8C1210.3,838.4 1204.6,836.8 1199.6,837.8C1195.1,838.7 1192.5,842.1 1190.3,845.9C1187.2,851.3 1184.8,857.1 1182.8,863C1182.2,864.8 1185.1,865.6 1185.7,863.8Z" style="fill-rule:nonzero;"/>
            </g>
        </g>
        <g>
            <g>
                <path d="M1190,912.1C1197.5,906.4 1204.9,900.7 1212.4,895C1213.9,893.8 1212.4,891.2 1210.9,892.4C1203.4,898.1 1196,903.8 1188.5,909.5C1187,910.7 1188.5,913.3 1190,912.1Z" style="fill-rule:nonzero;"/>
            </g>
        </g>
        <g>
            <g>
                <path d="M1212.3,894.3C1236.7,899.6 1261.6,895.6 1284.7,886.8C1295.2,882.8 1307.2,878.3 1316.2,871.5C1322.5,866.8 1323.4,857.8 1315.1,854.6C1313.3,853.9 1312.5,856.8 1314.3,857.5C1318.8,859.2 1319.3,864.1 1316.2,867.5C1314.7,869.2 1312.6,870.3 1310.6,871.5C1306.5,873.8 1302.3,875.9 1298.1,877.9C1289.2,882.1 1280,885.7 1270.5,888.5C1251.8,893.9 1232.2,895.7 1213,891.5C1211.2,891 1210.4,893.9 1212.3,894.3Z" style="fill-rule:nonzero;"/>
            </g>
        </g>
    </g>
    <g id="torso">
        <path d="M951.314,466.339C966.514,453.739 989.6,434.6 1019.9,425.6C1034.1,421.4 1051.9,416.2 1075.5,418.2C1111.7,421.3 1136.6,439.1 1145.4,445.6C1159.2,455.7 1168.4,467.761 1174.2,475.261C1175.3,545.361 1177,614.2 1178.9,684.3C1179.5,705.9 1180.1,727.6 1180.8,749.2C1166.6,758 1146.7,767.9 1121.5,773.7C1062.5,787.2 1013.4,769.2 993.5,760.5C993.4,742.8 992.3,716.2 986.9,684.3C978.1,631.9 964.4,610.8 955.8,565.7C952.613,541.275 948.624,511.178 951.314,466.339Z" style="fill:rgb(255,242,137);fill-rule:nonzero;stroke:black;stroke-width:2px;"/>
    </g>
    <g id="hand_left">
        <path d="M1132.5,475.051C1127.6,480.451 1126.7,491.2 1127,514.6C1127.2,539.2 1128.5,556 1129.3,575.5C1129.9,589.6 1130.4,600.8 1130.1,615.4C1129.8,633.8 1128.6,648.9 1127.5,659C1117.7,670 1109,678.6 1102.5,684.8C1087.9,698.7 1072,713.7 1048.5,727.8C1039.2,733.3 1031.2,737.3 1025.8,739.8C1020.9,739 1015.4,737.8 1009.4,736.3C995.2,732.7 989.3,729.5 978.6,729.5C975.4,729.5 965.3,729.5 964.3,733.1C963.4,736.1 969,740.8 973.4,743.1C977.5,745.2 979.3,744.6 983.4,746.5C988,748.7 991,751.9 992.8,754.3C990.9,757 988,761.1 984.8,766.4C981.1,772.6 980.3,775 976,782.4C971.5,790.2 969.2,794.1 967.2,796.1C964.1,799 962.2,799.6 948.3,805.8C934.5,812 932.1,813.4 932.1,815.1C932.1,816.8 934.8,817.2 945.5,821.8C954.2,825.5 955,826.3 959.5,827.6C965.1,829.2 968.5,830.2 972.6,829.3C979.1,828 983.3,823.1 985.1,820.5C986,821.3 988.2,823 991.1,823.1C993.4,823.1 995.3,822.2 996.8,821C1003.1,816.5 1006.2,808.2 1012.4,798.9C1013.5,797.3 1017.4,791.4 1023.7,784.8C1027.6,780.6 1031.2,777.5 1033.8,775.4C1037.3,774.6 1042.5,773.4 1048.7,771.6C1072.8,764.7 1090.2,756.4 1104.8,749.4C1113.3,745.3 1122.9,739.9 1142,729.2C1158.6,719.9 1167.2,714.7 1174.8,704.5C1175.6,703.4 1179.7,697.9 1183.3,689.8C1184.4,687.3 1188.3,678.4 1190.4,662.8C1191.4,655.9 1191.4,652.1 1191.5,630.5C1191.7,603 1191.7,606.3 1191.7,603.5C1191.6,563.2 1189.5,566.8 1188.8,529.8C1188.7,526.3 1188.6,512.151 1185.7,500.151C1182.6,487.151 1178.7,481.351 1176.5,478.451C1173.7,474.751 1170.3,470.351 1164.5,467.851C1153.9,463.151 1139.8,466.951 1132.5,475.051Z" style="fill:white;fill-rule:nonzero;"/>
        <path d="M1164.6,467.751C1167,475.651 1169.9,487.051 1171.9,500.851C1174.3,517.551 1175.2,540.6 1169.8,588.7C1165.3,628.9 1163.1,649 1157.3,667.8C1149,694.6 1143,714.1 1124.7,729.5C1112.9,739.4 1100,744 1074.1,753.1C1055.1,759.8 1038.8,763.8 1027.6,766.3C1019.6,777.1 1007.7,790.8 990.8,803.8C977.6,814 964.9,821 954.4,825.8C955.9,826.8 962.1,830.8 970.5,829.7C980.3,828.4 985.6,821.4 986.5,820.1C988.4,821.5 991.2,823 994.3,822.5C1000.7,821.5 1004.1,812.4 1005.8,808.3C1009.5,799.8 1016.9,788.1 1033.5,775.3C1044.5,772.4 1059.4,768 1076.7,761.4C1100.8,752.1 1117,743.1 1134.4,733.4C1162.3,717.8 1168.6,711.4 1173.2,705.2C1181.6,693.9 1185.1,682.3 1186.6,677.2C1189.3,668.1 1189.8,657.9 1190.8,638C1191.5,623.2 1191.5,611.8 1191.5,603.2C1191.5,588.4 1191.2,577.4 1190.9,567.9C1190.5,554.1 1189.7,537.9 1187.7,518.5C1186.2,504.4 1185.1,494.151 1181.9,487.851C1177,477.851 1169.7,471.451 1164.6,467.751Z" style="fill:rgb(155,151,151);fill-opacity:0.25;fill-rule:nonzero;"/>
        <g>
            <g>
                <path d="M1129.97,476.276C1124.77,489.276 1125.2,506.3 1125.5,520.2C1125.8,535.5 1126.6,550.7 1127.3,566C1128.7,597 1129.7,628.1 1126,659C1125.8,660.9 1128.8,660.9 1129,659C1132.6,628.8 1131.8,598.3 1130.4,568C1129.7,553 1128.9,538 1128.5,522.9C1128.1,508.4 1127.37,490.776 1132.87,477.076C1133.57,475.276 1130.67,474.476 1129.97,476.276Z" style="fill-rule:nonzero;"/>
            </g>
        </g>
        <g>
            <g>
                <path d="M1131.8,656.4C1122.6,661.5 1115.2,668.9 1108.1,676.6C1100.4,684.9 1092.7,693 1084.1,700.4C1066.5,715.7 1046.7,728.3 1025.5,738.1C1023.7,738.9 1025.3,741.5 1027,740.7C1047.4,731.3 1066.5,719.3 1083.6,704.8C1092.1,697.7 1099.9,689.9 1107.4,681.8C1115.2,673.3 1123,664.7 1133.2,659.1C1135,658 1133.5,655.4 1131.8,656.4Z" style="fill-rule:nonzero;"/>
            </g>
        </g>
        <g>
            <g>
                <path d="M1026.2,738.3C1015.2,736 1004.1,733.6 993.1,731.1C987.6,729.9 982,728.4 976.4,727.4C972.9,726.8 969.2,726.5 966.1,728.5C961.3,731.6 961.3,737.3 965.6,740.7C968.7,743.2 972.7,744.3 976.4,745.5C982.4,747.4 987.5,749.8 991.4,754.9C992.6,756.4 995.2,754.9 994,753.4C990.5,748.9 986.3,745.7 980.9,743.8C977.2,742.5 973.1,741.7 969.7,739.8C967.3,738.5 964.2,736.5 966,732.9C967.7,729.5 972,729.8 975.1,730.3C983.4,731.5 991.7,733.9 1000,735.8C1008.5,737.7 1017,739.5 1025.5,741.3C1027.3,741.6 1028.1,738.7 1026.2,738.3Z" style="fill-rule:nonzero;"/>
            </g>
        </g>
        <g>
            <g>
                <path d="M989,755.4C984.6,763.5 980.1,771.5 975.7,779.6C973.5,783.5 971.6,787.7 969,791.5C966.3,795.4 962.7,797.4 958.5,799.4C950.6,803.1 942.1,806.1 934.5,810.4C931.1,812.4 928.9,816 931.8,819.5C935.4,823.8 942.5,822.1 947.3,821.3C953.9,820.2 960.2,818 966.2,815.2C978.7,809.2 989.3,799.8 996.9,788.2C998,786.6 995.4,785.1 994.3,786.7C987.6,797.1 978.3,805.5 967.4,811.3C962.2,814 956.6,816.2 950.9,817.5C947.7,818.3 944.3,819 940.9,819.1C937.8,819.3 937,819.7 935.5,816.6C933.6,814.8 933.8,813.6 936,813C936.7,812.7 937.3,812.4 938,812.1C944.4,809.1 950.9,806.2 957.3,803.2C962.3,800.9 967.2,798.9 970.6,794.4C974.6,789.1 977.4,782.8 980.6,777C984.3,770.3 988,763.6 991.6,757C992.5,755.2 989.9,753.7 989,755.4Z" style="fill-rule:nonzero;"/>
            </g>
        </g>
        <g>
            <g>
                <path d="M1034.7,777.3C1061.4,769.8 1087.3,759.8 1112.1,747.4C1124.4,741.2 1136.4,734.5 1148.1,727.1C1158.6,720.5 1169.7,713.8 1177.2,703.7C1178.3,702.1 1175.7,700.6 1174.6,702.2C1166.8,712.8 1154.6,719.7 1143.6,726.5C1132.4,733.4 1120.8,739.8 1109,745.7C1084.9,757.6 1059.8,767.2 1033.9,774.5C1032.1,774.9 1032.9,777.8 1034.7,777.3Z" style="fill-rule:nonzero;"/>
            </g>
        </g>
        <g>
            <g>
                <path d="M1133,477.188C1141.3,460.888 1162.6,464.588 1173.1,476.188C1185.7,490.188 1186.3,515.5 1187.7,533.3C1190.7,572.2 1191.3,611.4 1188.9,650.3C1187.7,669.2 1184.9,689.2 1172.3,704.2C1171.1,705.7 1173.2,707.8 1174.4,706.3C1185.7,692.7 1189.6,675.5 1191.2,658.3C1193.3,636.3 1193.3,614 1193.1,591.9C1192.9,568.8 1191.8,545.6 1189.7,522.6C1188.1,505.3 1185,481.388 1170.7,469.888C1158.5,460.088 1138.1,460.388 1130.3,475.688C1129.5,477.388 1132.1,478.888 1133,477.188Z" style="fill-rule:nonzero;"/>
            </g>
        </g>
        <g>
            <g>
                <path d="M944.6,823C951.9,826.3 960.7,831.3 969,831.3C977,831.2 982.9,824.6 988.3,819.6C1003.8,805.2 1019.3,790.8 1034.8,776.5C1036.2,775.2 1034.1,773.1 1032.7,774.4C1019.6,786.6 1006.5,798.7 993.4,810.9C987.6,816.2 981.6,823.8 974.3,827.1C965.7,831 953.9,824 946.2,820.5C944.4,819.6 942.9,822.2 944.6,823Z" style="fill-rule:nonzero;"/>
            </g>
        </g>
        <g>
            <g>
                <path d="M985.3,820.9C988.6,827.1 995.9,824.6 999.6,820.3C1006.9,811.7 1012.6,801.3 1018.8,792C1019.9,790.4 1017.3,788.9 1016.2,790.5C1012.3,796.3 1008.4,802.1 1004.5,807.9C1002.3,811.1 992.6,828.4 987.9,819.4C987,817.7 984.4,819.2 985.3,820.9Z" style="fill-rule:nonzero;"/>
            </g>
        </g>
        <g>
            <g>
                <path d="M962.1,816C965.1,817.6 968.8,819.2 972.1,817.6C973.8,816.7 974.5,815.3 975.3,813.7C976.7,811 978.1,808.9 980.7,807.2C982.3,806.1 980.8,803.5 979.2,804.6C976.8,806.2 974.8,808.2 973.4,810.8C972.4,812.7 971.8,815 969.2,815.2C967.3,815.4 965.2,814.2 963.6,813.4C962,812.6 960.4,815.1 962.1,816Z" style="fill-rule:nonzero;"/>
            </g>
        </g>
    </g>
    <g id="heda">
        <path d="M941.6,244.6C938.1,251.7 934.6,263.6 933.5,267.5C931.9,273.1 928.3,286.2 926.3,303.6C925.2,313.2 924,323.7 925,337.6C925.5,344.2 926.2,354.6 930.1,367.5C932.7,376.3 936.5,389 946.8,402C955.8,413.3 966.1,420.4 974.3,424.7C979.5,424.8 985.8,424.5 992.8,423.2C1005.4,420.8 1015.2,416.1 1021.8,412.3C1022.7,417.4 1023.9,422.8 1025.4,428.4C1028.5,440 1032.3,450.2 1036.1,459C1040.2,458.3 1045.1,457.1 1050.3,454.7C1066.8,447 1074.7,432.8 1077.5,426.9C1076,421.1 1074.8,414.8 1073.7,408.3C1069.9,384 1070.9,362.3 1073.3,344.7C1075.4,345.4 1078.8,346.3 1083,346.1C1091.2,345.6 1096.8,341.1 1099.6,338.7C1102,336.7 1112.9,327 1112.5,312.6C1112.4,309.2 1112.2,300.9 1106.3,296.4C1100.8,292.3 1093.4,293.8 1088,294.9C1081.8,296.2 1077.2,298.8 1074.4,300.6C1076.5,293.7 1080.9,276 1074.4,255.4C1073,251 1063.7,223 1036.3,210.9C999.1,194.3 954.4,218.9 941.6,244.6Z" style="fill:white;fill-rule:nonzero;"/>
        <path d="M1054.6,245.2C1055.4,254.5 1056,268 1054.6,284C1050.3,332.5 1031.1,366.2 1026.1,374.6C1018.5,387.4 1005.5,406 984.7,424.3C990.9,423.5 998,422.1 1005.6,419.4C1026.5,412 1040.5,399.3 1048.1,391C1048.7,402.1 1050.6,415.6 1055.1,430.4C1057.1,436.7 1059.3,442.5 1061.6,447.7C1066.9,440.8 1072.1,433.9 1077.4,426.9C1076.3,420.4 1075.3,413.5 1074.6,406.4C1072.3,384.9 1072.3,365.1 1073.5,347.5C1078,347.6 1084.5,347.2 1091.4,344.5C1121.6,332.5 1138.8,284.8 1122.5,258.8C1121.8,257.7 1118.2,252.1 1110.8,247.1C1087.9,231.7 1058.8,243.4 1054.6,245.2Z" style="fill:rgb(155,151,151);fill-opacity:0.24;fill-rule:nonzero;"/>
        <path d="M934.3,264.5C932.3,257.6 929.5,244.4 932.4,228.2C933.3,223.2 936.4,207.1 947.4,194.4C963.5,175.9 983.7,179.4 1009.9,170C1026.5,164.1 1049.3,151.7 1072.4,122.5C1070.3,133.3 1068.2,144.2 1066.1,155C1069.7,156 1081.8,158.6 1094.2,152.5C1114.8,142.4 1116.6,118 1116.7,116.9C1119.2,122.5 1123.7,134.9 1121.7,150.7C1120.3,161.5 1116.4,169.6 1113.6,174.5C1114.8,175.8 1121.2,182.4 1128.6,181.4C1137.6,180.2 1146,167.9 1143.6,152C1145.6,157.9 1148,167.6 1147.4,179.5C1146.6,194 1141.8,204.9 1138.6,210.8C1139.4,211.5 1144.5,216.1 1151.7,215.2C1158,214.4 1163.4,209.8 1165.5,203.3C1165,210 1163.8,219.7 1159.9,230.8C1154.6,245.8 1150.2,247 1148,257.7C1144.5,274.5 1153.5,280.2 1151.1,295.2C1149.1,307.8 1140.9,315.7 1130.5,325.8C1111.6,344.1 1089.9,354 1071.7,359.5C1072.5,353.9 1073.4,348.3 1074.2,342.7C1076.5,344.1 1080.5,346 1085.5,345.8C1095.7,345.4 1102.1,336.3 1105.5,331.4C1109.4,325.9 1115.9,316.5 1112.4,306.4C1109.5,298.2 1101.8,294.8 1101.1,294.5C1092.1,290.7 1080.5,294.1 1073,303.3C1068.8,286.8 1064.7,270.4 1060.5,253.9C1046.3,244.9 1032.2,236 1018,227C1011,225.7 991.9,223.1 970.5,232.6C948.9,242.2 937.9,258.5 934.3,264.5Z" style="fill:rgb(102,35,129);fill-rule:nonzero;"/>
        <g>
            <g>
                <path d="M932.8,264.1C924.3,295.9 919.2,329.7 927,362.2C933.4,388.6 949.6,418.7 977.2,427.3C979,427.9 979.8,425 978,424.4C950.3,415.8 934.8,384.5 929.1,358.1C922.4,327.1 927.5,295.1 935.6,264.9C936.2,263.1 933.3,262.3 932.8,264.1Z" style="fill-rule:nonzero;"/>
            </g>
        </g>
        <g>
            <g>
                <path d="M979.4,426.8C1025.5,422.1 1064,388.8 1074.8,343.6C1075.2,341.7 1072.4,340.9 1071.9,342.8C1061.4,386.5 1024.3,419.2 979.4,423.8C977.5,424 977.4,427 979.4,426.8Z" style="fill-rule:nonzero;"/>
            </g>
        </g>
        <g>
            <g>
                <path d="M1072.2,344.4C1092.8,357 1112.9,330.6 1114.2,312.1C1114.9,302.3 1110.4,294.8 1100.7,292C1091.7,289.4 1081.9,292.1 1075.5,298.9C1074.2,300.3 1076.3,302.4 1077.6,301C1082.9,295.3 1090.9,292.8 1098.6,294.5C1102.6,295.4 1107,297.6 1109.3,301.2C1111.8,305.1 1111.5,310.5 1110.9,314.8C1108.5,330.3 1091.3,352.5 1073.7,341.7C1072.1,340.8 1070.5,343.4 1072.2,344.4Z" style="fill-rule:nonzero;"/>
            </g>
        </g>
        <g>
            <g>
                <path d="M1072,344.2C1068.1,371.9 1069.5,400 1076.1,427.2C1076.6,429.1 1079.5,428.3 1079,426.4C1072.5,399.7 1071.1,372.1 1074.9,345C1075.1,343.1 1072.2,342.3 1072,344.2Z" style="fill-rule:nonzero;"/>
            </g>
        </g>
        <g>
            <g>
                <path d="M1020.3,412.7C1023.4,428.9 1028.2,444.6 1034.8,459.8C1035.6,461.6 1038.2,460 1037.4,458.3C1030.9,443.4 1026.2,427.9 1023.2,411.9C1022.8,410 1020,410.8 1020.3,412.7Z" style="fill-rule:nonzero;"/>
            </g>
        </g>
        <g>
            <g>
                <path d="M1036.9,460.2C1056.2,457.1 1072.5,443.8 1079.8,425.7C1080.5,423.9 1077.6,423.1 1076.9,424.9C1070,442.1 1054.3,454.4 1036.1,457.3C1034.2,457.6 1035,460.5 1036.9,460.2Z" style="fill-rule:nonzero;"/>
            </g>
        </g>
        <g>
            <g>
                <path d="M1022.7,416.2C1026.8,416.4 1029.6,413.6 1032.7,411.2C1036.8,408 1040.7,404.6 1044.3,401C1051,394.3 1056.4,386.6 1059.9,377.8C1060.6,376 1057.7,375.2 1057,377C1053.9,384.8 1049.1,391.7 1043.3,397.7C1040.7,400.5 1037.9,403 1035,405.5C1031.8,408.2 1027.2,413.4 1022.7,413.2C1020.8,413.1 1020.8,416.1 1022.7,416.2Z" style="fill-rule:nonzero;"/>
            </g>
        </g>
        <g>
            <g>
                <path d="M1022.9,414.6C1031.4,409.1 1039.3,402.8 1046.7,395.9C1048.1,394.6 1046,392.4 1044.6,393.8C1037.4,400.6 1029.7,406.7 1021.4,412.1C1019.7,413 1021.3,415.6 1022.9,414.6Z" style="fill-rule:nonzero;"/>
            </g>
        </g>
        <g>
            <g>
                <path d="M964.1,269.9C958.5,295.4 955.3,321.3 954.6,347.4C954.6,348.9 956.6,349.4 957.4,348.2C961.3,342 965.2,335.7 969.1,329.5C970.1,327.9 967.5,326.3 966.5,328C962.6,334.2 958.7,340.5 954.8,346.7C955.7,347 956.7,347.2 957.6,347.5C958.3,321.7 961.5,296 967,270.8C967.4,268.8 964.5,268 964.1,269.9Z" style="fill-rule:nonzero;"/>
            </g>
        </g>
        <g>
            <g>
                <path d="M968.1,385C965.7,380.5 964.1,375.7 963.7,370.6C963.4,367 964.2,352.4 971,358.2C974.6,361.3 974.1,368.1 974.2,372.6C974.2,374.7 974.2,376.9 974,379C973.9,380.5 973.7,382 973.4,383.4C970.8,385.2 968.8,385.1 967.5,383.2C966.2,381.8 964,383.9 965.4,385.3C969.7,389.7 975.3,389.9 976.5,383C977.4,378.1 977.4,372.9 977,368C976.7,364.1 976.7,358.5 973.8,355.5C969.5,351.1 963.4,355.2 961.7,359.9C958.6,368.3 961.6,378.9 965.6,386.5C966.4,388.2 969,386.7 968.1,385Z" style="fill-rule:nonzero;"/>
            </g>
        </g>
        <g>
            <g>
                <path d="M988.8,295C991.8,309.1 1010.3,310.2 1015.8,297.2C1016.5,295.4 1013.6,294.6 1012.9,296.4C1008.4,307 994,305 991.7,294.2C991.3,292.4 988.4,293.1 988.8,295Z" style="fill-rule:nonzero;"/>
            </g>
        </g>
        <g>
            <g>
                <path d="M982.9,260.3C986.7,251.8 996.5,247.7 1005.5,249.6C1014.8,251.6 1021.9,258.8 1026.5,266.7C1027.5,268.4 1030.1,266.9 1029.1,265.2C1023.8,256.1 1015.4,248 1004.6,246.4C994.9,245 984.5,249.6 980.3,258.7C979.5,260.6 982.1,262.1 982.9,260.3Z" style="fill-rule:nonzero;"/>
            </g>
        </g>
        <g>
            <g>
                <path d="M924.3,263.6C927,258 931.7,251.9 938.6,252C945.2,252.1 950,257.9 953.3,263C954.3,264.6 956.9,263.1 955.9,261.5C952.1,255.4 946.4,249.1 938.6,249C930.6,248.9 925,255.5 921.8,262.1C920.9,263.8 923.5,265.3 924.3,263.6Z" style="fill-rule:nonzero;"/>
            </g>
        </g>
        <ellipse cx="942" cy="294.2" rx="3.2" ry="14.7"/>
    </g>
    <g id="hand_right">
        <path d="M951.2,467.1C950.9,470.8 950.5,475.9 950.3,481.8C949.4,502 950.2,517.3 950.5,521.4C951.3,534.7 952.353,552.937 956.689,572.481C956.372,572.846 956.046,573.223 955.712,573.613C951.82,578.139 946.69,584.334 939.6,591.7C925,607 917.5,614.8 905.5,622.9C892.1,631.9 882.8,634.7 877.8,636C871.5,637.5 865.5,638.9 858.2,637.3C846.3,634.6 839.2,625.8 836.6,622.4C830,614 828.5,605.8 825.8,589.8C823.8,578.1 823.4,569.2 822.8,552C822.5,543.8 822.1,533.8 822.3,520.4C822.5,505.3 823.3,487.4 825.5,467.4C826.5,458.4 827.9,447.3 830.1,434.7C828.4,432.3 826.6,429.9 824.7,427.4C822.7,424.8 820.8,422.3 818.8,419.8C813.7,424.1 808.7,428.5 803.6,432.8C802.3,433.3 800,434.1 797.2,433.8C791.9,433.3 788.8,429.6 787.7,428.4C782.8,422.8 783.5,415.7 783.7,414.3C790.6,406.8 797.5,399.4 804.5,391.9C804.6,387.6 805.2,382 806.9,375.8C808.2,371.2 809.8,367.4 811.3,364.2C812.6,361.6 814.4,358.7 816.7,355.8C820.8,350.4 825.2,346.6 828.8,344C825.9,345.3 825.2,345.3 825,345.1C824.5,344.3 829.2,338.4 835.8,337.8C839.5,337.4 842.4,338.8 844.4,339.7C847.5,341.2 849.6,343.1 850.9,344.5C857.1,339.2 863.3,333.9 869.5,328.7C871.7,330 873.9,331.5 876.1,333C881.2,336.5 885.8,340 889.9,343.4C888.4,345.3 886.5,347.4 884.1,349.5C880.1,353 876.1,355.1 873,356.5C874.9,357.1 878.3,358.5 880,361.8C881.7,365 881,368.5 880,372.9C879.3,375.9 878.4,378.3 877.7,379.9C878.1,384.1 878.3,389.8 877.1,396.2C875.2,406.7 870.8,414.5 867.8,419C867.7,422.9 867.6,429 867.8,436.5C868.6,467.4 873.1,485.5 876,508.3C877.7,521.3 879.4,540.6 878.9,564.9C881.2,563.4 884.5,561 888.2,557.9C897.6,550 903.6,542.1 911.5,530.5C919.3,519.2 924.4,510.8 931.3,499.6C935.6,492.3 942.5,481.2 951.2,467.1Z" style="fill:white;fill-rule:nonzero;"/>
        <path d="M860.3,375.8C858.2,380.4 856.1,385.1 854,389.9C847.9,404.3 842.9,418.1 838.8,431.3C837.9,452.1 837.4,469.5 837,482.1C836.5,501.2 837.7,524 839.9,569.6C840.8,588.4 841.6,599.8 850.4,608.1C859.6,616.7 872.4,616.9 879.6,616.9C918,616.8 946.7,584.1 954.6,574.6C943.9,592.8 931.7,604.7 923.4,611.7C914,619.6 901.9,629.5 883.1,634.4C867.2,638.6 860,637.7 858.1,637.3C844.4,634 836.8,622.6 834.1,618.7C827.6,609 825.5,598.9 824.3,577.2C823.1,554.9 824.4,549 824.8,518.3C825.1,489 824,480.7 826.2,460.4C827.5,448.5 829.1,438.7 830.4,432.1C826.5,428 822.6,423.9 818.7,419.9C815.4,422.8 812,425.6 808.6,428.5C806.4,430.4 804.1,432.3 801.9,434.1C799.9,434.3 797,434.2 793.9,432.9C785.9,429.5 780.9,419.6 783.4,416.2C785,413.9 789.2,415.7 795,415.7C805,415.8 811.7,410.7 825,401.1C834.4,394.2 845.2,386.5 860.3,375.8Z" style="fill:rgb(155,151,151);fill-opacity:0.24;fill-rule:nonzero;"/>
        <g>
            <g>
                <path d="M949.9,466.3C926.8,498.2 909.7,534.8 880.5,562C879.1,563.3 881.2,565.4 882.6,564.1C912,536.7 928.76,500.368 952.06,468.268C951.532,466.32 951.1,464.8 949.9,466.3Z" style="fill-rule:nonzero;"/>
            </g>
        </g>
        <g>
            <g>
                <path d="M863.9,639.6C903.5,637 933.932,601.768 957.732,573.568C958.932,572.068 956.832,569.968 955.632,571.468C932.532,599.068 902.5,634.1 864,636.7C862,636.7 862,639.7 863.9,639.6Z" style="fill-rule:nonzero;"/>
            </g>
        </g>
        <g>
            <g>
                <path d="M845.1,357.9C845.3,365.8 850.5,372.6 858.1,374.8C860,375.3 860.8,372.4 858.9,371.9C852.6,370.1 848.3,364.4 848.1,357.9C848,356 845,356 845.1,357.9Z" style="fill-rule:nonzero;"/>
            </g>
        </g>
        <g>
            <g>
                <path d="M848.2,357C849.2,348.3 864.7,354.6 868.9,356.8C873,358.9 877.1,361 878,366C878.7,369.8 877.5,373.8 876.5,377.5C876,379.4 878.9,380.2 879.4,378.3C880.8,373.3 882.3,367.6 880.2,362.7C878.2,357.7 872.7,355.4 868.2,353.2C863.6,351 858.6,349.4 853.4,350C851.3,350.3 848.6,350.8 846.9,352.2C845.1,353.6 845.5,354.6 845.2,357.1C845,358.9 848,358.9 848.2,357Z" style="fill-rule:nonzero;"/>
            </g>
        </g>
        <g>
            <g>
                <path d="M875.5,376.9C875.2,384.5 876.9,391.9 875.1,399.5C873.4,406.5 870,413 866.6,419.3C865.7,421 868.3,422.5 869.2,420.8C872.7,414.2 876.2,407.5 878,400.3C879.9,392.5 878.2,384.8 878.5,376.9C878.6,374.9 875.6,374.9 875.5,376.9Z" style="fill-rule:nonzero;"/>
            </g>
        </g>
        <g>
            <g>
                <path d="M866.6,419.4C864.3,472.1 879.4,523.7 877,576.4C876.9,578.3 879.9,578.3 880,576.4C882.4,523.7 867.3,472.1 869.6,419.4C869.7,417.5 866.7,417.5 866.6,419.4Z" style="fill-rule:nonzero;"/>
            </g>
        </g>
        <g>
            <g>
                <path d="M817.5,420.5C820.5,424.7 823.7,428.7 827.3,432.4C828.6,433.8 830.7,431.7 829.4,430.3C826,426.7 822.9,423 820.1,419C818.9,417.4 816.3,418.9 817.5,420.5Z" style="fill-rule:nonzero;"/>
            </g>
        </g>
        <g>
            <g>
                <path d="M829,431.6C823.3,464.1 820.5,497.1 820.6,530.1C820.7,546.5 821.5,563 823.1,579.3C824.4,593.2 826,607.8 833.3,620C839.9,631.1 851.5,639.5 864.7,639.2C866.6,639.1 866.6,636.1 864.7,636.2C846.2,636.7 834.3,620.2 830,604C825.2,586.2 824.8,566.8 824.1,548.5C822.6,509.7 825.3,470.7 832,432.5C832.2,430.5 829.3,429.7 829,431.6Z" style="fill-rule:nonzero;"/>
            </g>
        </g>
        <g>
            <g>
                <path d="M810.1,386.7C800.7,394.6 791.6,402.9 783,411.6C781.6,413 783.8,415.1 785.1,413.7C793.8,405 802.8,396.7 812.2,388.8C813.7,387.6 811.6,385.5 810.1,386.7Z" style="fill-rule:nonzero;"/>
            </g>
        </g>
        <g>
            <g>
                <path d="M782.1,414.3C780.6,425.9 789.4,435.7 801.1,435.6C803,435.6 803,432.6 801.1,432.6C791,432.7 783.8,424.2 785.1,414.3C785.4,412.4 782.4,412.4 782.1,414.3Z" style="fill-rule:nonzero;"/>
            </g>
        </g>
        <g>
            <g>
                <path d="M784.9,413.6C795.4,413.9 802.7,423.3 800.5,433.5C800.1,435.4 803,436.2 803.4,434.3C806.1,422 797.5,411 784.9,410.6C783,410.6 783,413.6 784.9,413.6Z" style="fill-rule:nonzero;"/>
            </g>
        </g>
        <g>
            <g>
                <path d="M804.6,433.8C816,423.4 827.6,413.1 838.7,402.4C843.8,397.5 848.7,392.5 853.3,387.1C855.8,384.2 862.1,378.5 862.2,374.5C862.2,374 861.9,373.4 861.5,373.2C861.3,373.1 861.1,373 861,373C860.4,372.7 859.6,372.7 859.2,373.2C859.1,373.3 859,373.4 858.9,373.6C857.7,375.1 859.8,377.2 861,375.7C861.1,375.6 861.2,375.5 861.3,375.3C860.7,375.4 860.1,375.5 859.5,375.5C859.3,374.6 859,374.6 858.6,375.6C858.1,376.3 857.6,377 857,377.7C855.8,379.2 854.7,380.7 853.4,382.2C851.4,384.7 849.2,387.1 847.1,389.5C842.7,394.3 838.1,398.8 833.4,403.2C823.2,412.8 812.8,422.1 802.5,431.6C801,433 803.2,435.1 804.6,433.8Z" style="fill-rule:nonzero;"/>
            </g>
        </g>
        <g>
            <g>
                <path d="M805.9,392.3C806.6,387.5 807.3,382.7 808,377.9C808.5,374.3 808.9,370.3 810.9,367.1C815.5,359.7 822,365 825.5,370C827,372.1 828.4,374.4 829.9,376.5C830.7,377.7 834.6,382 834.1,383.5C834.6,383.1 835.1,382.8 835.5,382.4L835,382.4C833.1,382.3 833.1,385.3 835,385.4L835.5,385.4C836.2,385.4 836.8,384.9 836.9,384.3C837.6,381.8 835.9,380.3 834.6,378.3C832.1,374.6 829.7,370.8 827.1,367.2C824.4,363.5 820.9,359.9 815.9,360.4C811.1,360.9 808.2,364.6 806.7,368.9C804.2,376 804,384.1 802.9,391.5C802.7,393.4 805.6,394.2 805.9,392.3Z" style="fill-rule:nonzero;"/>
            </g>
        </g>
        <g>
            <g>
                <path d="M810.6,381C813.3,386.3 817.8,391.7 824.2,392.1C829.5,392.5 834.5,389.5 835.9,384.3C836.4,382.4 833.5,381.6 833,383.5C831.7,388.3 826.4,390.1 822,388.6C817.8,387.1 815.1,383.4 813.2,379.6C812.3,377.8 809.7,379.3 810.6,381Z" style="fill-rule:nonzero;"/>
            </g>
        </g>
        <g>
            <g>
                <path d="M814.3,361.5C814.8,356.6 820.4,355.3 824.2,356.6C828.2,357.9 831.3,361.5 834.1,364.4C836.3,366.7 840.6,369.9 841.2,373.1C842,377.4 836.6,380.3 833,381.4C831.2,381.9 831.9,384.8 833.8,384.3C838.2,383 844.6,379.1 845.3,373.9C845.6,371.8 844.3,370.7 842.9,369.2C840.1,366.2 837.4,363.3 834.5,360.4C830.6,356.4 825.6,352.1 819.6,353.1C815.1,353.8 811.8,356.8 811.3,361.4C811.1,363.4 814.1,363.4 814.3,361.5Z" style="fill-rule:nonzero;"/>
            </g>
        </g>
        <g>
            <g>
                <path d="M819.7,354.1C821.1,352.5 821.8,350.4 823.1,348.8C826.3,344.8 831.3,348.5 834.6,350.9C841,355.4 847.8,363.6 842,371.4C840.9,373 843.5,374.5 844.6,372.9C850.8,364.5 844.7,354.8 837.6,349.4C834.3,346.9 829.3,342.4 824.8,343.7C820.8,344.8 820.1,349.4 817.6,352.1C816.3,353.4 818.4,355.5 819.7,354.1Z" style="fill-rule:nonzero;"/>
            </g>
        </g>
        <g>
            <g>
                <path d="M829.8,345C833.3,340.7 837.9,336.2 843.3,340.7C846.9,343.6 849.2,347.7 850.5,352C851.1,353.8 853.9,353.1 853.4,351.2C851.7,345.4 847.8,338.7 842,336.3C836.1,333.9 831.2,338.6 827.7,342.9C826.5,344.3 828.6,346.5 829.8,345Z" style="fill-rule:nonzero;"/>
            </g>
        </g>
        <g>
            <g>
                <path d="M851.9,345.4C858.1,340.1 864.3,334.8 870.5,329.6C872,328.3 869.8,326.2 868.4,327.5C862.2,332.8 856,338.1 849.8,343.3C848.3,344.6 850.5,346.7 851.9,345.4Z" style="fill-rule:nonzero;"/>
            </g>
        </g>
        <g>
            <g>
                <path d="M874,358.2C879.9,353.9 885.6,349.3 890.9,344.3C892.3,343 890.2,340.9 888.8,342.2C883.6,347 878.2,351.5 872.5,355.6C870.9,356.7 872.4,359.3 874,358.2Z" style="fill-rule:nonzero;"/>
            </g>
        </g>
        <circle cx="918.9" cy="290.3" r="60.4" style="fill:none;stroke:black;stroke-width:3px;stroke-linejoin:miter;stroke-miterlimit:10;"/>
        <g>
            <g>
                <path d="M882.3,297.7C904.5,283.5 927.2,270.1 950.4,257.5C952.1,256.6 950.6,254 948.9,254.9C925.7,267.4 903,280.8 880.8,295.1C879.2,296.2 880.7,298.8 882.3,297.7Z" style="fill-rule:nonzero;"/>
            </g>
        </g>
        <g>
            <g>
                <path d="M884.8,323.9C903.1,310.5 921.6,297.6 940.5,285C942.1,283.9 940.6,281.3 939,282.4C920.2,295 901.6,308 883.3,321.3C881.7,322.4 883.2,325 884.8,323.9Z" style="fill-rule:nonzero;"/>
            </g>
        </g>
    </g>
</svg>
