<svg width="150" height="150" viewBox="0 0 150 150" fill="none" xmlns="http://www.w3.org/2000/svg">
<path d="M95.2959 35.6067H54.7051V24.2293C54.7051 19.1234 58.8441 14.9844 63.95 14.9844H86.0513C91.1571 14.9844 95.2962 19.1234 95.2962 24.2293V35.6067H95.2959Z" fill="#0C73FE" fill-opacity="0.5"/>
<path d="M93.3984 141.456L56.6016 141.544L63.7465 116.315L86.1322 116.248L93.3984 141.456Z" fill="#E1D3CE"/>
<path d="M86.1326 116.248L76.3311 116.277L83.5891 141.456H93.3988L86.1326 116.248Z" fill="#CDBFBA"/>
<path d="M2.19727 114.059V31.189C2.19727 28.3776 4.47627 26.0986 7.2876 26.0986H142.712C145.524 26.0986 147.803 28.3776 147.803 31.189V114.059C147.803 116.87 145.524 119.149 142.712 119.149H7.2876C4.47627 119.149 2.19727 116.87 2.19727 114.059Z" fill="#FFF5F5"/>
<path d="M15.7408 109.517C13.584 109.517 11.8291 107.762 11.8291 105.605V39.6419C11.8291 37.4854 13.5837 35.7305 15.7408 35.7305H134.259C136.416 35.7305 138.171 37.4851 138.171 39.6419V105.605C138.171 107.762 136.416 109.517 134.259 109.517H15.7408Z" fill="#D5F3F7"/>
<path d="M134.259 35.7305H75V73.2346H138.171C138.171 73.2346 138.171 73.2346 138.171 73.2349V39.6416C138.171 37.4851 136.416 35.7305 134.259 35.7305Z" fill="#D5F3F7"/>
<path d="M75 73.2344V109.516H134.259C136.416 109.516 138.171 107.762 138.171 105.605V73.2347C138.171 73.2347 138.171 73.2344 138.171 73.2344H75Z" fill="#0C73FE" fill-opacity="0.5"/>
<path d="M15.7408 35.7305C13.584 35.7305 11.8291 37.4851 11.8291 39.6419V73.2349H74.9999V35.7305H15.7408Z" fill="#0C73FE" fill-opacity="0.5"/>
<path d="M107.449 145.975L42.5511 146.131C41.6763 146.133 40.9656 145.426 40.9629 144.551C40.9474 138.89 45.525 134.289 51.1858 134.276L98.7569 134.161C104.415 134.148 109.014 138.722 109.029 144.381V144.386C109.031 145.261 108.324 145.972 107.449 145.975Z" fill="#FFF5F5"/>
<path d="M109.028 144.381C109.013 138.722 104.414 134.147 98.7562 134.161L94.2715 134.172C97.0389 134.402 99.2171 136.714 99.225 139.542L99.2426 145.971L107.448 145.975C108.323 145.973 109.031 145.261 109.029 144.386L109.028 144.381Z" fill="#EFE2DD"/>
<path d="M110.443 98.2012C107.731 98.2176 104.594 99.4255 102.283 100.533C100.223 101.521 98.7564 103.429 98.3434 105.677L98.2373 109.516H122.648L122.542 105.677C122.129 103.429 120.662 101.521 118.602 100.533C116.292 99.4255 113.154 98.2176 110.443 98.2012Z" fill="#6944B8"/>
<path d="M110.386 98.2018C106.972 98.2018 104.205 95.4344 104.205 92.0204V90.4987C104.205 87.0848 106.972 84.3174 110.386 84.3174C113.8 84.3174 116.568 87.0848 116.568 90.4987V92.0204C116.568 95.4344 113.8 98.2018 110.386 98.2018Z" fill="#FFE5C2"/>
<path d="M41.3021 98.2012C38.5903 98.2176 35.4529 99.4255 33.1429 100.533C31.0824 101.521 29.6158 103.429 29.2027 105.677L29.0967 109.516H53.5074L53.4014 105.677C52.9883 103.429 51.5217 101.521 49.4612 100.533C47.1512 99.4255 44.0138 98.2176 41.3021 98.2012Z" fill="#FFAB0D"/>
<path d="M41.2458 98.2018C37.8318 98.2018 35.0645 95.4344 35.0645 92.0204V90.4987C35.0645 87.0848 37.8318 84.3174 41.2458 84.3174C44.6598 84.3174 47.4271 87.0848 47.4271 90.4987V92.0204C47.4271 95.4344 44.6595 98.2018 41.2458 98.2018Z" fill="#FFE5C2"/>
<path d="M41.3021 61.9199C38.5903 61.9363 35.4529 63.1442 33.1429 64.2517C31.0824 65.2396 29.6158 67.1482 29.2027 69.3956L29.0967 73.235H53.5074L53.4014 69.3956C52.9883 67.1482 51.5217 65.2393 49.4612 64.2517C47.1512 63.1442 44.0138 61.9363 41.3021 61.9199Z" fill="#FF3C26"/>
<path d="M41.2458 61.9195C37.8318 61.9195 35.0645 59.1521 35.0645 55.7382V54.2165C35.0645 50.8025 37.8318 48.0352 41.2458 48.0352C44.6598 48.0352 47.4271 50.8025 47.4271 54.2165V55.7382C47.4271 59.1521 44.6595 61.9195 41.2458 61.9195Z" fill="#FFE5C2"/>
<path d="M116.957 44.4248H94.6633C91.3003 44.4248 88.5742 47.1512 88.5742 50.5139V54.9465C88.5742 58.3095 91.3006 61.0355 94.6633 61.0355L94.702 67.6909C94.7069 68.5285 95.764 68.8921 96.2831 68.235L101.971 61.0353H116.957C120.32 61.0353 123.046 58.3089 123.046 54.9462V50.5136C123.046 47.1509 120.32 44.4248 116.957 44.4248Z" fill="#FFAB0D"/>
<path d="M75.0001 26.0979C81.1384 26.0979 86.1145 21.1218 86.1145 14.9835C86.1145 8.84521 81.1384 3.86914 75.0001 3.86914C68.8618 3.86914 63.8857 8.84521 63.8857 14.9835C63.8857 21.1218 68.8618 26.0979 75.0001 26.0979Z" fill="#0C73FE" fill-opacity="0.5"/>
<path d="M74.9999 3.86914C73.2576 3.86914 71.6094 4.2708 70.1416 4.98564C73.845 6.78857 76.3977 10.5878 76.3977 14.9838C76.3977 19.3798 73.845 23.179 70.1416 24.9819C71.6094 25.6965 73.2576 26.0984 74.9999 26.0984C81.1382 26.0984 86.1145 21.1224 86.1145 14.9841C86.1145 8.8458 81.1382 3.86914 74.9999 3.86914Z" fill="#0C73FE" fill-opacity="0.5"/>
<path d="M134.259 35.7305H124.425C126.581 35.7308 128.336 37.4854 128.336 39.6416V73.2346H138.17C138.17 73.2346 138.17 73.2346 138.17 73.2349V39.6416C138.171 37.4851 136.416 35.7305 134.259 35.7305Z" fill="#A7E8F1"/>
<path d="M138.171 73.2344H128.337V105.605C128.337 107.761 126.582 109.516 124.425 109.516H134.259C136.416 109.516 138.171 107.762 138.171 105.605L138.171 73.2344C138.171 73.2344 138.171 73.2347 138.171 73.2344Z" fill="#0C73FE" fill-opacity="0.3"/>
<path d="M75 13.7621C75.6738 13.7621 76.2217 14.3103 76.2217 14.9841C76.2217 17.8886 80.6162 17.8936 80.6162 14.9841C80.6162 9.29261 72.8027 7.52893 72.8027 11.5649C72.8027 12.7783 73.7865 13.7621 75 13.7621Z" fill="black"/>
<path d="M142.712 23.9009H97.4845C97.3298 18.4748 93.3562 13.9651 88.1616 12.9872C87.1957 6.59082 81.6618 1.67188 75 1.67188C68.3382 1.67188 62.8043 6.59082 61.8384 12.9872C56.6437 13.9648 52.6702 18.4745 52.5155 23.9009H7.2876C3.26924 23.9009 0 27.1701 0 31.1885V114.058C0 118.077 3.26924 121.346 7.2876 121.346H60.0378L57.0023 132.063L51.1802 132.078C39.0167 132.107 35.0593 148.327 42.5461 148.327H42.5561L107.454 148.171C108.464 148.169 109.413 147.773 110.125 147.057C110.838 146.341 111.229 145.39 111.226 144.374C111.207 137.59 105.706 131.963 98.751 131.963L92.9528 131.977L89.8881 121.346H142.712C146.73 121.346 150 118.077 150 114.058V31.1885C150 27.1701 146.731 23.9009 142.712 23.9009ZM93.0899 23.9009H84.8742C86.4773 22.1272 87.6082 19.9209 88.0734 17.4811C90.8736 18.3251 92.9496 20.8704 93.0899 23.9009ZM75 6.06641C79.9169 6.06641 83.9174 10.0666 83.9174 14.9838C83.9174 19.901 79.9169 23.9009 75 23.9009C70.0831 23.9009 66.0826 19.9007 66.0826 14.9835C66.0826 10.0663 70.0831 6.06641 75 6.06641ZM61.9266 17.4811C62.3918 19.9209 63.5224 22.1272 65.1258 23.9009H56.9101C57.0504 20.8704 59.1264 18.3251 61.9266 17.4811ZM88.3828 131.988L74.1891 132.022C71.2837 132.029 71.2925 136.417 74.1943 136.417C74.6423 136.417 98.5236 136.358 98.7812 136.358C103.004 136.358 106.482 139.629 106.807 143.778L43.1812 143.931C43.4804 139.777 46.9383 136.482 51.191 136.472C51.6346 136.471 64.8199 136.44 65.3824 136.438C66.5959 136.435 67.5773 135.449 67.5744 134.236C67.5694 132.13 65.4012 132.056 65.3719 132.044L61.5732 132.053L64.6055 121.346H85.3151L88.3828 131.988ZM145.605 114.058C145.605 115.653 144.308 116.951 142.712 116.951C138.756 116.951 11.5811 116.951 7.2876 116.951C5.69238 116.951 4.39453 115.653 4.39453 114.058V31.1885C4.39453 29.5933 5.69238 28.2954 7.2876 28.2954H142.712C144.308 28.2954 145.605 29.5933 145.605 31.1885V114.058Z" fill="black"/>
<path d="M92.4771 62.9404C92.7757 65.421 91.3006 70.7691 95.5855 70.7691C96.5116 70.7691 97.4119 70.3514 98.0075 69.5976L103.036 63.2331H116.958C121.527 63.2331 125.244 59.5159 125.244 54.9468V50.5139C125.244 45.9447 121.527 42.2275 116.958 42.2275H94.6636C90.0944 42.2275 86.377 45.9447 86.377 50.5139V54.9468C86.3767 58.7595 88.965 61.9792 92.4771 62.9404ZM90.7712 50.5139C90.7712 48.3679 92.517 46.6221 94.6633 46.6221H116.957C119.103 46.6221 120.849 48.3679 120.849 50.5139V54.9468C120.849 57.0928 119.104 58.8386 116.957 58.8386C102.066 59.1195 101.41 58.2008 100.247 59.6738L96.8772 63.9389L96.8603 61.0232C96.8532 59.8147 95.8715 58.8389 94.663 58.8389C92.517 58.8389 90.7709 57.0931 90.7709 54.9471V50.5139H90.7712Z" fill="black"/>
<path d="M134.259 33.5332H45.6383C42.7332 33.5332 42.7291 37.9277 45.6383 37.9277H72.8026V71.0376H55.6449C55.6347 71.0074 56.288 65.0871 50.411 62.2702C49.4691 61.8185 48.5598 61.4285 47.682 61.0963C51.6954 56.2837 49.6499 45.8379 41.2464 45.8379C32.8593 45.8379 30.773 56.3021 34.838 61.1276C25.2664 64.7853 27.3207 70.2891 26.9595 71.0376H14.0264V39.6419C14.0264 38.6968 14.7954 37.9277 15.7408 37.9277H36.8489C39.754 37.9277 39.7581 33.5332 36.8489 33.5332H15.7408C12.3723 33.5332 9.63184 36.2736 9.63184 39.6419V105.605C9.63184 108.974 12.3723 111.714 15.7408 111.714H134.259C137.628 111.714 140.368 108.974 140.368 105.605V39.6419C140.368 36.2733 137.628 33.5332 134.259 33.5332ZM134.259 37.9277C135.204 37.9277 135.973 38.6968 135.973 39.6419V71.0376H77.1972V37.9277H134.259ZM37.262 54.2165C37.262 52.0198 39.0494 50.2324 41.2461 50.2324C43.4428 50.2324 45.2302 52.0198 45.2302 54.2165V55.7382C45.2302 57.9349 43.4428 59.7223 41.2461 59.7223C39.0494 59.7223 37.262 57.9349 37.262 55.7382V54.2165ZM34.093 66.2326C39.8855 63.4559 42.7092 63.4512 48.5114 66.2329C49.8893 66.8933 50.8889 68.1598 51.21 69.6416L51.2486 71.0376H31.3555C31.3918 70.9266 30.8832 67.7713 34.093 66.2326ZM14.0264 105.605V75.4321H72.8026V107.319H55.6449C55.6347 107.289 56.288 101.369 50.411 98.552C49.4691 98.1003 48.5598 97.7104 47.682 97.3781C51.6934 92.5679 49.6648 82.1197 41.2464 82.1197C32.8593 82.1197 30.7733 92.584 34.838 97.4095C25.3546 101.033 27.2609 106.908 26.9598 107.319H15.7408C14.7954 107.319 14.0264 106.55 14.0264 105.605ZM45.2305 92.02C45.2305 94.217 43.4431 96.0044 41.2464 96.0044C39.0497 96.0044 37.2623 94.217 37.2623 92.02V90.4983C37.2623 88.3017 39.0497 86.5143 41.2464 86.5143C43.4431 86.5143 45.2305 88.3017 45.2305 90.4983V92.02ZM48.5114 102.515C51.6837 104.035 51.2138 107.213 51.2486 107.319H31.3555C31.3918 107.208 30.8832 104.053 34.093 102.514C39.8735 99.743 42.6989 99.7274 48.5114 102.515ZM114.371 92.02C114.371 94.217 112.584 96.0044 110.387 96.0044C108.19 96.0044 106.403 94.217 106.403 92.02V90.4983C106.403 88.3017 108.19 86.5143 110.387 86.5143C112.584 86.5143 114.371 88.3017 114.371 90.4983V92.02ZM110.43 100.399C112.291 100.41 114.788 101.141 117.652 102.515C120.824 104.035 120.354 107.213 120.389 107.319H100.496C100.532 107.208 100.024 104.053 103.234 102.514C106.097 101.141 108.595 100.41 110.43 100.399ZM134.259 107.319H124.785C124.775 107.289 125.428 101.369 119.551 98.5518C118.609 98.1 117.7 97.7101 116.822 97.3778C120.834 92.5676 118.805 82.1194 110.387 82.1194C102 82.1194 99.9137 92.5837 103.978 97.4092C103.127 97.7344 102.246 98.1144 101.334 98.5515C95.4181 101.387 96.11 107.289 96.0998 107.319H77.1972V75.4321L135.973 75.4324V105.605C135.973 106.55 135.204 107.319 134.259 107.319Z" fill="black"/>
</svg>
