<svg width="150" height="150" viewBox="0 0 150 150" fill="none" xmlns="http://www.w3.org/2000/svg">
<g clip-path="url(#clip0_47_9098)">
<path d="M128.009 124.058H98.1682C94.047 124.058 90.5835 127.153 90.1227 131.249L88.5222 145.471C88.4029 146.532 89.2326 147.46 90.2999 147.46H135.877C136.944 147.46 137.774 146.532 137.654 145.471L136.054 131.249C135.593 127.153 132.13 124.058 128.009 124.058Z" fill="#FF3C26"/>
<path d="M137.654 145.471L136.054 131.249C135.593 127.153 132.13 124.058 128.008 124.058H118.3C122.421 124.058 125.884 127.153 126.074 131.249L127.898 147.46H135.877C136.944 147.46 137.774 146.532 137.654 145.471Z" fill="#FF3C26"/>
<path d="M9.92969 9.56348H124.439V97.3463H9.92969V9.56348Z" fill="#0C73FE" fill-opacity="0.5"/>
<path d="M114.734 9.56348H124.439V97.3463H114.734V9.56348Z" fill="#0C73FE" fill-opacity="0.5"/>
<path d="M134.791 74.8023V41.8204C134.791 37.6271 131.392 34.2275 127.198 34.2275H98.9776C94.7844 34.2275 91.3848 37.6269 91.3848 41.8204V74.8025H134.791V74.8023Z" fill="#FFAB0D"/>
<path d="M127.198 34.2275H125.086V74.8022H134.791V41.8204C134.791 37.6269 131.392 34.2275 127.198 34.2275Z" fill="#FFAB0D"/>
<path d="M120.819 65.0844V57.4795H105.357V65.0844C105.357 66.7839 104.165 68.2499 102.5 68.5956L93.4053 70.4855C93.4053 90.6544 102.463 92.6727 113.088 92.6727C123.712 92.6727 132.77 90.6541 132.77 70.4855L123.675 68.5956C122.012 68.2499 120.819 66.7839 120.819 65.0844Z" fill="#FFF3DE"/>
<path d="M128.997 103.428H5.37129C3.61816 103.428 2.19727 102.007 2.19727 100.254V96.9289C2.19727 95.1758 3.61846 93.7549 5.37129 93.7549H128.997C130.75 93.7549 132.171 95.1761 132.171 96.9289V100.254C132.171 102.008 130.75 103.428 128.997 103.428Z" fill="#E1D3CE"/>
<path d="M128.997 12.2139H5.37129C3.61846 12.2139 2.19727 10.7927 2.19727 9.03955V5.71406C2.19727 3.96094 3.61846 2.54004 5.37129 2.54004H128.997C130.75 2.54004 132.171 3.96123 132.171 5.71406V9.03955C132.171 10.7927 130.75 12.2139 128.997 12.2139Z" fill="#E1D3CE"/>
<path d="M147.798 115.421L146.868 82.1566C146.513 76.9148 142.711 72.5508 137.567 71.482L132.771 70.4854C132.369 79.5003 123.713 86.7041 113.088 86.7041C102.464 86.7041 93.808 79.5006 93.4058 70.4854L88.6096 71.482C83.4656 72.5508 79.6632 76.9146 79.3087 82.1563L78.9674 87.198C78.8355 89.146 76.6336 90.2098 75.0258 89.1023L62.3373 80.395C59.9836 78.7796 56.7659 79.379 55.1514 81.7333L54.2531 83.0435C52.6037 85.4487 53.2702 88.7414 55.7253 90.3158L74.2778 102.215C75.5736 103.008 77.0634 103.429 78.5827 103.429H90.9313V120.745C90.9313 124.943 94.335 128.347 98.5339 128.347H135.228C142.31 128.347 147.996 122.5 147.798 115.421Z" fill="#6944B8"/>
<path d="M147.798 115.421L146.868 82.1566C146.513 76.9148 142.711 72.5508 137.567 71.482L132.771 70.4854C132.655 73.0849 131.85 75.532 130.512 77.7009C134.302 79.4774 136.933 83.1961 137.225 87.5118L138.155 120.776C138.233 123.584 137.383 126.197 135.89 128.33C142.661 127.979 147.99 122.278 147.798 115.421Z" fill="#6944B8"/>
<path d="M99.3317 50.7434C99.4097 54.3759 100.936 57.8722 103.694 60.2467C105.914 62.1583 109.035 65.7319 113.157 65.7779C117.279 65.7319 120.4 62.1583 122.62 60.2467C125.378 57.8722 126.904 54.3759 126.982 50.7434L127.002 32.4551H99.1768L99.3317 50.7434Z" fill="#FFF3DE"/>
<path d="M117.298 32.4561L117.278 50.744C117.2 54.3766 115.673 57.8729 112.916 60.2474C111.669 61.3211 110.138 62.9187 108.305 64.1216C109.735 65.0603 111.35 65.7584 113.157 65.7786C117.28 65.7326 120.4 62.159 122.62 60.2474C125.378 57.8729 126.904 54.3766 126.982 50.744L127.002 32.4561H117.298Z" fill="#FFE5C2"/>
<path d="M134.791 43.9733C134.791 43.9733 127.259 43.3757 124.682 36.4479C124.682 36.4479 106.476 51.0239 91.3848 43.9733V40.2937C91.3848 29.2912 100.304 20.3721 111.306 20.3721H114.869C125.871 20.3721 134.79 29.2912 134.79 40.2937V43.9733H134.791Z" fill="#FFAB0D"/>
<path d="M60.184 83.6277L58.3553 86.3734C57.1676 88.1567 54.7594 88.6393 52.9761 87.4516L51.6032 86.5372C49.0617 84.8444 48.3738 81.412 50.0666 78.8708C51.7594 76.3293 55.1918 75.6414 57.733 77.3342L59.1059 78.2485C60.8889 79.4362 61.3717 81.8447 60.184 83.6277Z" fill="#FFF3DE"/>
<path d="M114.869 20.3721H111.307C110.262 20.3721 109.236 20.4532 108.235 20.6082C116.562 21.8967 123.18 28.342 124.734 36.5773C127.358 43.3801 134.791 43.9733 134.791 43.9733V40.2937C134.791 29.2915 125.871 20.3721 114.869 20.3721Z" fill="#FFAB0D"/>
<path d="M23.0137 27.3574H78.2184C79.4321 27.3574 80.4156 26.3739 80.4156 25.1602C80.4156 23.9464 79.4321 22.9629 78.2184 22.9629H23.0137C21.7999 22.9629 20.8164 23.9464 20.8164 25.1602C20.8164 26.3739 21.7999 27.3574 23.0137 27.3574Z" fill="black"/>
<path d="M23.0137 42.6104H78.2184C79.4321 42.6104 80.4156 41.6269 80.4156 40.4131C80.4156 39.1993 79.4321 38.2158 78.2184 38.2158H23.0137C21.7999 38.2158 20.8164 39.1993 20.8164 40.4131C20.8164 41.6269 21.7999 42.6104 23.0137 42.6104Z" fill="black"/>
<path d="M52.704 55.667C52.704 54.4532 51.7205 53.4697 50.5067 53.4697H23.0137C21.7999 53.4697 20.8164 54.4532 20.8164 55.667C20.8164 56.8808 21.7999 57.8643 23.0137 57.8643H50.507C51.7205 57.8643 52.704 56.8805 52.704 55.667Z" fill="black"/>
<path d="M149.994 115.359L149.064 82.0951C149.063 82.0661 149.062 82.0374 149.06 82.0081C148.64 75.808 144.098 70.5946 138.014 69.3311L136.988 69.1178V62.371C136.988 61.1572 136.005 60.1737 134.791 60.1737C133.577 60.1737 132.594 61.1572 132.594 62.371V68.2046L124.122 66.4444C123.481 66.3111 123.016 65.7393 123.016 65.0845V62.8482C124.849 61.1622 129.028 57.842 129.179 50.7905C129.179 50.7756 129.18 50.7606 129.18 50.746L129.186 44.5195C130.442 45.1611 131.641 45.5555 132.594 45.7972V53.5928C132.594 54.8065 133.577 55.79 134.791 55.79C136.005 55.79 136.988 54.8065 136.988 53.5928C136.988 51.1503 136.988 43.822 136.988 40.2938C136.988 32.4199 132.849 25.4985 126.636 21.578V14.4108H128.997C131.959 14.4108 134.369 12.0012 134.369 9.03955V5.71406C134.369 2.75244 131.959 0.342773 128.997 0.342773H5.37129C2.40967 0.342773 0 2.75215 0 5.71406V9.03984C0 12.0015 2.40967 14.4111 5.37129 14.4111H7.73232V91.5577H5.37129C2.40967 91.5577 0 93.9671 0 96.9287V100.254C0 103.216 2.40967 105.626 5.37129 105.626H88.7341V120.745C88.7341 122.571 89.238 124.282 90.1119 125.748C88.9146 127.249 88.1578 129.058 87.939 131.002L86.3385 145.225C86.073 147.583 87.9196 149.657 90.2997 149.657H135.877C138.253 149.657 140.104 147.586 139.838 145.225C138.124 130.261 138.124 130.261 138.124 130.261C141.035 129.687 143.699 128.249 145.818 126.071C148.623 123.186 150.106 119.382 149.994 115.359ZM123.229 70.7467L130.353 72.2268C128.993 79.2437 121.794 84.5068 113.088 84.5068C104.382 84.5068 97.183 79.2439 95.8236 72.2271L102.947 70.747C105.25 70.2686 107.005 68.4296 107.445 66.1837C109.076 67.198 110.96 67.9512 113.133 67.9755H113.157C113.157 67.9755 113.174 67.9755 113.182 67.9755C115.302 67.9518 117.145 67.234 118.748 66.2578C119.212 68.47 120.952 70.2738 123.229 70.7467ZM93.5824 68.2046V47.1328C94.7232 47.4656 95.9004 47.7094 97.1104 47.8655L97.1353 50.7902C97.2565 56.453 99.8701 59.6965 103.16 62.7208V65.0842C103.16 65.7387 102.695 66.3108 102.054 66.4441L93.5824 68.2046ZM124.785 50.7179C124.669 55.7089 121.869 57.9328 120.014 59.6385C118.126 61.3767 115.777 63.5385 113.157 63.5807C110.538 63.5382 108.189 61.3764 106.3 59.6382C104.467 57.951 101.637 55.7438 101.529 50.7249L101.507 48.0563C109.327 47.7448 117.428 44.1349 123.873 39.7477C124.162 40.2053 124.473 40.6271 124.796 41.0224L124.785 50.7179ZM132.594 40.2938V41.2157C130.631 40.517 127.971 38.9865 126.742 35.6813C126.221 34.28 124.478 33.7963 123.309 34.7323C123.143 34.8653 107.043 47.5649 93.5821 42.515V40.2935C93.5821 30.5203 101.534 22.5688 111.307 22.5688H114.869C124.642 22.5691 132.594 30.5206 132.594 40.2938ZM5.37129 10.0163C4.83281 10.0163 4.39453 9.57803 4.39453 9.03955V5.71406C4.39453 5.17559 4.83281 4.7373 5.37129 4.7373H128.998C129.536 4.7373 129.974 5.17559 129.974 5.71406V9.03984C129.974 9.57832 129.536 10.0166 128.998 10.0166H5.37129V10.0163ZM5.37129 101.231C4.83281 101.231 4.39453 100.793 4.39453 100.254V96.9287C4.39453 96.3902 4.83281 95.952 5.37129 95.952H17.5034C18.7172 95.952 19.7007 94.9685 19.7007 93.7547C19.7007 92.5409 18.7172 91.5574 17.5034 91.5574H12.1269V14.4108H122.242V19.4429C119.934 18.6243 117.454 18.1746 114.869 18.1746H111.307C99.1105 18.1746 89.1879 28.0972 89.1879 40.2938V69.1178L88.1625 69.3311C82.0781 70.5946 77.5359 75.8077 77.1164 82.0081L76.7748 87.0504C76.7596 87.2959 76.4856 87.4389 76.2688 87.2912L63.5801 78.583C62.99 78.1787 62.3522 77.8687 61.677 77.6519C60.8147 76.5861 59.9766 76.2393 58.9509 75.5054C56.1146 73.6163 52.4725 73.8571 49.9189 75.844L35.6063 65.9865C34.6069 65.2983 33.2388 65.5506 32.5503 66.5499C31.8618 67.5492 32.1144 68.9174 33.1137 69.6059L47.3613 79.4185C46.9163 80.7026 46.8182 82.0869 47.0924 83.4545C47.4981 85.478 48.6674 87.2224 50.3848 88.3664C51.9059 89.3722 51.6624 89.2301 52.0356 89.4516C52.4654 90.2561 53.0353 90.9671 53.7264 91.5577H26.2084C24.9946 91.5577 24.0111 92.5412 24.0111 93.755C24.0111 94.9687 24.9946 95.9522 26.2084 95.9522H60.4424L68.6736 101.232H5.37129V101.231ZM58.3556 82.4098L56.5269 85.1555C56.0127 85.9277 54.9659 86.1372 54.1945 85.623L52.8214 84.7087C52.0808 84.2153 51.5766 83.4633 51.4017 82.5908C51.2265 81.7181 51.402 80.8298 51.8953 80.0895C52.5363 79.1268 53.5954 78.6056 54.6735 78.6056C55.3078 78.6056 55.9488 78.786 56.5148 79.1631L57.8877 80.0774C58.1109 80.226 58.2855 80.4199 58.4109 80.6382C58.418 80.6511 58.4259 80.6634 58.4335 80.676C58.7197 81.2062 58.7121 81.8739 58.3556 82.4098ZM90.7562 145.263L92.3057 131.494C92.4085 130.581 92.7214 129.72 93.2083 128.965C94.7429 129.962 96.571 130.545 98.5336 130.545H133.679C133.679 130.545 133.752 130.727 135.42 145.263H90.7562ZM142.668 123.007C141.223 124.493 139.417 125.486 137.442 125.913V96.8985C137.442 95.6848 136.459 94.7013 135.245 94.7013C134.031 94.7013 133.048 95.6848 133.048 96.8985V126.15H98.5336C95.5532 126.15 93.1286 123.725 93.1286 120.745C93.1286 117.351 93.1286 99.9202 93.1286 96.8985C93.1286 95.6848 92.1451 94.7013 90.9314 94.7013C89.7176 94.7013 88.7341 95.6848 88.7341 96.8985V101.231H78.5827C77.475 101.231 76.3898 100.927 75.4433 100.352L58.3351 89.3795C59.0628 88.9271 59.695 88.3257 60.1843 87.5912L62.013 84.8455C62.332 84.3662 62.5685 83.8564 62.7363 83.3335L73.7792 90.912C76.7874 92.9848 80.9127 90.9978 81.1591 87.3466L81.5004 82.3046C81.7875 78.0633 84.8944 74.4978 89.0564 73.633L91.5158 73.1221C93.2997 82.1502 102.271 88.9011 113.088 88.9011C123.905 88.9011 132.877 82.1502 134.66 73.1221L137.12 73.633C141.268 74.4946 144.369 78.0401 144.673 82.2633L145.601 115.482C145.68 118.308 144.638 120.98 142.668 123.007Z" fill="black"/>
</g>
<defs>
<clipPath id="clip0_47_9098">
<rect width="150" height="150" fill="white"/>
</clipPath>
</defs>
</svg>
