<?xml version="1.0" encoding="UTF-8" standalone="no"?>
<!DOCTYPE svg PUBLIC "-//W3C//DTD SVG 1.1//EN" "http://www.w3.org/Graphics/SVG/1.1/DTD/svg11.dtd">
<svg width="100%" height="100%" viewBox="0 0 175 175" version="1.1" xmlns="http://www.w3.org/2000/svg" xmlns:xlink="http://www.w3.org/1999/xlink" xml:space="preserve" xmlns:serif="http://www.serif.com/" style="fill-rule:evenodd;clip-rule:evenodd;stroke-linejoin:round;stroke-miterlimit:2;">
    <g transform="matrix(1,0,0,1,10.5041,-5.71358)">
        <g transform="matrix(1,0,0,1,50,44.5455)">
            <path d="M43.286,28.62L43.94,66.069L32.189,66.304L30.064,66.287L17.082,66.304C15.815,66.301 14.555,66.18 13.315,65.927C12.068,65.682 10.863,65.325 9.691,64.837C8.513,64.356 7.397,63.757 6.342,63.054C5.288,62.351 4.303,61.55 3.4,60.653C2.505,59.763 1.699,58.782 0.99,57.732C0.281,56.681 -0.325,55.569 -0.813,54.393C-1.308,53.225 -1.678,52.014 -1.924,50.776C-2.184,49.537 -2.312,47.521 -2.322,46.255C-2.333,44.988 -2.235,44.973 -1.991,43.734C-1.89,43.22 -1.219,41.736 -0.744,40.565C-0.263,39.387 0.329,38.277 1.018,37.223C1.721,36.169 2.515,35.191 3.405,34.295C4.296,33.399 5.262,32.594 6.32,31.891C7.37,31.182 8.476,30.584 9.644,30.103C10.813,29.608 12.016,29.244 13.262,28.991C14.5,28.746 15.76,28.617 17.027,28.621L29.994,28.617L31.185,28.614L43.293,28.613L43.286,28.62ZM41.314,62.686L41.284,31.774L32.008,31.773L32.045,62.692L41.314,62.686Z" style="fill:rgb(17,112,238);"/>
        </g>
        <g transform="matrix(1.29976,0,0,1.29976,-6.32077,2.79467)">
            <path d="M31.95,41.425C31.883,41.772 31.868,104.984 31.868,104.984C31.868,104.984 0.414,103.61 0.32,103.61C0.32,103.61 0.402,35.786 0.373,30.084C0.297,15.315 10.488,3.3 31.832,3.288L97.999,3.288L85.19,3.314L118.9,18.379L85.34,32.175L43.2,32.145C42.44,32.147 41.693,32.223 40.953,32.371C40.212,32.52 39.49,32.736 38.794,33.026C38.097,33.316 37.435,33.669 36.812,34.09C36.179,34.511 35.605,34.991 35.075,35.524C34.54,36.062 34.063,36.639 33.651,37.269C33.228,37.9 32.879,38.564 32.593,39.262C32.307,39.961 32.095,40.683 31.95,41.425ZM80.971,11.072L86.761,17.769L81.031,22.793L86.822,26.93L108.105,19.637L108.08,17.416L86.694,8.062L80.971,11.072Z" style="fill:rgb(17,112,238);"/>
        </g>
        <g transform="matrix(1,0,0,1,50,44.5455)">
            <path d="M-5.034,98.422C-4.674,98.501 76.096,98.208 76.096,98.208C76.096,98.208 64.019,133.836 64.019,133.993C64.019,133.993 -7.343,134.107 -15.918,134.156C-38.13,134.284 -55.892,116.627 -55.905,91.918L-14.985,85.4C-14.983,86.281 -14.611,87.143 -14.457,88.001C-14.302,88.859 -14.077,89.694 -13.775,90.5C-13.474,91.307 -13.106,92.073 -12.668,92.795C-12.229,93.527 -11.73,94.192 -11.175,94.806C-10.615,95.425 -10.015,95.976 -9.359,96.454C-8.703,96.943 -8.012,97.348 -7.285,97.679C-6.558,98.009 -5.806,98.256 -5.034,98.422Z" style="fill:rgb(17,112,238);"/>
        </g>
        <g transform="matrix(1,0,0,1,50,44.5455)">
            <path d="M63.125,86.212C63.21,85.774 68.069,73.383 68.069,73.383C68.069,73.383 102.024,72.923 102.195,73.491C102.195,73.491 102.141,74.898 102.195,85.479C102.334,112.885 90.126,133.977 63.179,133.993L48.923,98.284C49.883,98.281 50.824,97.83 51.759,97.643C52.695,97.455 53.605,97.182 54.485,96.816C55.364,96.45 56.2,96.004 56.987,95.472C57.786,94.941 58.511,94.335 59.18,93.662C59.856,92.983 60.457,92.254 60.978,91.458C61.512,90.663 61.953,89.824 62.313,88.942C62.674,88.061 62.942,87.148 63.125,86.212Z" style="fill:rgb(17,112,238);"/>
        </g>
        <g transform="matrix(1,0,0,1,50,44.5455)">
            <path d="M51.381,66.304C50.935,66.217 41.325,66.088 41.325,66.088C41.325,66.088 41.284,28.798 41.285,28.613C41.285,28.613 51.958,28.669 62.523,28.614C89.89,28.473 102.179,50.564 102.195,77.984L63.177,88.902C63.174,87.924 63.217,78.835 63.026,77.883C62.835,76.93 62.556,76.002 62.184,75.106C61.811,74.21 61.357,73.358 60.815,72.557C60.273,71.743 59.656,71.004 58.971,70.322C58.278,69.634 57.537,69.022 56.726,68.491C55.915,67.947 55.06,67.498 54.162,67.13C53.264,66.763 52.335,66.49 51.381,66.304Z" style="fill:rgb(17,112,238);"/>
        </g>
        <g transform="matrix(2.16795,0,0,1.045,-118.447,-37.9585)">
            <rect x="92.462" y="106.335" width="9.229" height="3.476" style="fill:rgb(17,112,238);"/>
        </g>
    </g>
</svg>
