<?xml version="1.0" encoding="UTF-8" standalone="no"?>
<!DOCTYPE svg PUBLIC "-//W3C//DTD SVG 1.1//EN" "http://www.w3.org/Graphics/SVG/1.1/DTD/svg11.dtd">
<svg width="100%" height="100%" viewBox="0 0 1846 367" version="1.1" xmlns="http://www.w3.org/2000/svg" xmlns:xlink="http://www.w3.org/1999/xlink" xml:space="preserve" xmlns:serif="http://www.serif.com/" style="fill-rule:evenodd;clip-rule:evenodd;stroke-linejoin:round;stroke-miterlimit:2;">
    <path d="M323.965,168.287L386.365,168.287L386.365,202.287L323.965,202.287L323.965,168.287ZM327.165,220.687L397.165,220.687L397.165,256.287L280.765,256.287L280.765,116.287L394.565,116.287L394.565,151.887L327.165,151.887L327.165,220.687Z" style="fill:rgb(17,112,238);fill-rule:nonzero;"/>
    <path d="M417.965,247.087L431.765,214.487C437.631,216.887 443.665,218.753 449.865,220.087C456.065,221.42 462.031,222.253 467.765,222.587C473.498,222.92 478.598,222.687 483.065,221.887C487.531,221.087 491.098,219.753 493.765,217.887C496.431,216.02 497.765,213.553 497.765,210.487C497.765,207.287 496.431,205.087 493.765,203.887C491.098,202.687 487.831,202.087 483.965,202.087L446.165,202.087L446.165,168.087L479.965,168.087C483.965,168.087 486.998,167.32 489.065,165.787C491.131,164.253 492.165,162.22 492.165,159.687C492.165,156.887 490.998,154.687 488.665,153.087C486.331,151.487 483.198,150.387 479.265,149.787C475.331,149.187 470.898,149.12 465.965,149.587C461.031,150.053 455.931,151.053 450.665,152.587C445.398,154.12 440.298,156.087 435.365,158.487L421.565,124.087C431.431,119.553 441.798,116.453 452.665,114.787C463.531,113.12 474.131,112.787 484.465,113.787C494.798,114.787 504.131,117.02 512.465,120.487C520.798,123.953 527.431,128.52 532.365,134.187C537.298,139.853 539.765,146.553 539.765,154.287C539.765,160.953 537.965,166.92 534.365,172.187C530.765,177.453 525.865,181.553 519.665,184.487C513.465,187.42 506.431,188.887 498.565,188.887L499.565,179.487C508.765,179.487 516.798,181.12 523.665,184.387C530.531,187.653 535.865,192.087 539.665,197.687C543.465,203.287 545.365,209.687 545.365,216.887C545.365,223.553 543.565,229.52 539.965,234.787C536.365,240.053 531.398,244.52 525.065,248.187C518.731,251.853 511.398,254.62 503.065,256.487C494.731,258.353 485.798,259.32 476.265,259.387C466.731,259.453 456.998,258.453 447.065,256.387C437.131,254.32 427.431,251.22 417.965,247.087Z" style="fill:rgb(17,112,238);fill-rule:nonzero;"/>
    <path d="M562.365,256.287L562.365,116.287L697.765,116.287L697.765,256.287L651.365,256.287L651.365,142.887L661.565,152.887L598.565,152.887L608.765,142.887L608.765,256.287L562.365,256.287Z" style="fill:rgb(17,112,238);fill-rule:nonzero;"/>
    <path d="M772.165,168.287L834.565,168.287L834.565,202.287L772.165,202.287L772.165,168.287ZM775.365,220.687L845.365,220.687L845.365,256.287L728.965,256.287L728.965,116.287L842.765,116.287L842.765,151.887L775.365,151.887L775.365,220.687Z" style="fill:rgb(17,112,238);fill-rule:nonzero;"/>
    <path d="M867.965,256.287L867.965,116.287L935.365,116.287C948.431,116.287 959.731,118.42 969.265,122.687C978.798,126.953 986.165,133.053 991.365,140.987C996.565,148.92 999.165,158.287 999.165,169.087C999.165,179.887 996.565,189.22 991.365,197.087C986.165,204.953 978.798,211.053 969.265,215.387C959.731,219.72 948.431,221.887 935.365,221.887L894.165,221.887L915.165,201.687L915.165,256.287L867.965,256.287ZM915.165,206.887L894.165,185.487L932.365,185.487C938.898,185.487 943.731,184.02 946.865,181.087C949.998,178.153 951.565,174.153 951.565,169.087C951.565,164.02 949.998,160.02 946.865,157.087C943.731,154.153 938.898,152.687 932.365,152.687L894.165,152.687L915.165,131.287L915.165,206.887Z" style="fill:rgb(17,112,238);fill-rule:nonzero;"/>
    <path d="M1059.37,168.287L1121.77,168.287L1121.77,202.287L1059.37,202.287L1059.37,168.287ZM1062.57,220.687L1132.57,220.687L1132.57,256.287L1016.17,256.287L1016.17,116.287L1129.96,116.287L1129.96,151.887L1062.57,151.887L1062.57,220.687Z" style="fill:rgb(17,112,238);fill-rule:nonzero;"/>
    <path d="M1227.57,259.487C1216.37,259.487 1206,257.72 1196.46,254.187C1186.93,250.653 1178.66,245.62 1171.66,239.087C1164.66,232.553 1159.23,224.82 1155.37,215.887C1151.5,206.953 1149.57,197.087 1149.57,186.287C1149.57,175.487 1151.5,165.62 1155.37,156.687C1159.23,147.753 1164.66,140.02 1171.66,133.487C1178.66,126.953 1186.93,121.92 1196.46,118.387C1206,114.853 1216.37,113.087 1227.57,113.087C1241.3,113.087 1253.46,115.487 1264.07,120.287C1274.66,125.087 1283.43,132.02 1290.37,141.087L1260.57,167.687C1256.43,162.487 1251.87,158.453 1246.87,155.587C1241.87,152.72 1236.23,151.287 1229.96,151.287C1225.03,151.287 1220.57,152.087 1216.57,153.687C1212.57,155.287 1209.13,157.62 1206.27,160.687C1203.4,163.753 1201.16,167.453 1199.57,171.787C1197.96,176.12 1197.16,180.953 1197.16,186.287C1197.16,191.62 1197.96,196.453 1199.57,200.787C1201.16,205.12 1203.4,208.82 1206.27,211.887C1209.13,214.953 1212.57,217.287 1216.57,218.887C1220.57,220.487 1225.03,221.287 1229.96,221.287C1236.23,221.287 1241.87,219.853 1246.87,216.987C1251.87,214.12 1256.43,210.087 1260.57,204.887L1290.37,231.487C1283.43,240.42 1274.66,247.32 1264.07,252.187C1253.46,257.053 1241.3,259.487 1227.57,259.487Z" style="fill:rgb(17,112,238);fill-rule:nonzero;"/>
    <path d="M1402.77,236.287L1402.77,152.887L1370.57,152.887L1370.16,162.887C1369.9,170.22 1369.43,177.087 1368.77,183.487C1368.1,189.887 1367.2,195.753 1366.07,201.087C1364.93,206.42 1363.5,211.12 1361.77,215.187C1360.03,219.253 1357.9,222.62 1355.37,225.287L1305.57,219.687C1309.96,219.687 1313.6,218.187 1316.46,215.187C1319.33,212.187 1321.63,207.987 1323.37,202.587C1325.1,197.187 1326.4,190.787 1327.27,183.387C1328.13,175.987 1328.77,167.82 1329.16,158.887L1330.77,116.287L1449.16,116.287L1449.16,236.287L1402.77,236.287ZM1301.57,283.687L1301.57,219.687L1467.57,219.687L1467.57,283.687L1424.37,283.687L1424.37,256.287L1344.77,256.287L1344.77,283.687L1301.57,283.687Z" style="fill:rgb(17,112,238);fill-rule:nonzero;"/>
    <path d="M1483.57,256.287L1544.77,116.287L1591.16,116.287L1652.37,256.287L1603.57,256.287L1558.37,138.687L1576.77,138.687L1531.57,256.287L1483.57,256.287ZM1519.96,231.887L1531.97,197.887L1596.37,197.887L1608.37,231.887L1519.96,231.887Z" style="fill:rgb(17,112,238);fill-rule:nonzero;"/>
    <path d="M1736.57,209.287C1730.57,211.42 1725,213.02 1719.87,214.087C1714.73,215.153 1709.77,215.687 1704.97,215.687C1684.43,215.687 1668.8,210.82 1658.07,201.087C1647.33,191.353 1641.97,177.153 1641.97,158.487L1641.97,116.287L1688.37,116.287L1688.37,153.287C1688.37,161.82 1690.23,168.12 1693.97,172.187C1697.7,176.253 1703.37,178.287 1710.97,178.287C1716.16,178.287 1720.83,177.787 1724.97,176.787C1729.1,175.787 1732.57,174.353 1735.37,172.487L1736.57,209.287ZM1730.37,256.287L1730.37,116.287L1776.77,116.287L1776.77,256.287L1730.37,256.287Z" style="fill:rgb(17,112,238);fill-rule:nonzero;"/>
    <g id="logo_mini">
        <g>
            <rect x="168.366" y="162.393" width="17.46" height="39.819" style="fill:white;"/>
        </g>
        <g>
            <path d="M185.061,160.273L185.826,204.066L172.085,204.341L169.6,204.321L154.419,204.341C152.937,204.337 151.464,204.196 150.014,203.9C148.555,203.613 147.146,203.196 145.776,202.625C144.398,202.063 143.093,201.362 141.859,200.54C140.627,199.718 139.475,198.781 138.419,197.732C137.373,196.692 136.43,195.544 135.601,194.317C134.772,193.088 134.063,191.787 133.493,190.412C132.914,189.046 132.481,187.63 132.193,186.182C131.889,184.733 131.74,182.376 131.728,180.895C131.715,179.414 131.83,179.396 132.115,177.947C132.233,177.346 133.018,175.611 133.573,174.242C134.136,172.864 134.828,171.566 135.634,170.334C136.456,169.101 137.384,167.957 138.425,166.91C139.467,165.862 140.597,164.92 141.834,164.098C143.062,163.269 144.355,162.57 145.721,162.008C147.088,161.429 148.495,161.003 149.952,160.707C151.399,160.421 152.873,160.27 154.354,160.274L169.518,160.27L170.911,160.266L185.07,160.265L185.061,160.273ZM182.755,200.11L182.72,163.962L171.873,163.96L171.916,200.117L182.755,200.11Z" style="fill:rgb(17,112,238);"/>
        </g>
        <g>
            <path d="M211.978,93.227L211.96,89.597L190.786,89.597L190.786,120.181L211.96,120.181L237.545,105.492" style="fill:white;"/>
        </g>
        <g>
            <path d="M117.144,140.945C117.042,141.473 117.019,237.55 117.019,237.55C117.019,237.55 69.212,235.462 69.069,235.462C69.069,235.462 69.193,132.375 69.149,123.708C69.034,101.26 84.523,82.998 116.965,82.98L217.533,82.98L198.065,83.02L249.301,105.917L198.293,126.886L134.243,126.84C133.088,126.844 131.953,126.959 130.828,127.184C129.702,127.41 128.604,127.739 127.546,128.18C126.487,128.62 125.481,129.157 124.534,129.797C123.572,130.437 122.699,131.166 121.894,131.976C121.081,132.794 120.356,133.671 119.729,134.629C119.086,135.588 118.556,136.597 118.121,137.658C117.687,138.72 117.364,139.818 117.144,140.945ZM191.652,94.811L200.452,104.99L191.743,112.626L200.545,118.914L232.894,107.829L232.856,104.454L200.351,90.236L191.652,94.811Z" style="fill:rgb(17,112,238);"/>
        </g>
        <g>
            <path d="M128.557,241.899C128.978,241.991 223.429,241.649 223.429,241.649C223.429,241.649 209.306,283.312 209.306,283.495C209.306,283.495 125.856,283.629 115.829,283.686C89.854,283.836 69.084,263.188 69.069,234.293L116.92,226.671C116.922,227.701 117.357,228.709 117.537,229.713C117.719,230.716 117.982,231.693 118.335,232.635C118.687,233.579 119.117,234.474 119.629,235.319C120.143,236.175 120.726,236.952 121.375,237.67C122.03,238.394 122.732,239.039 123.499,239.598C124.266,240.169 125.074,240.643 125.924,241.03C126.774,241.416 127.654,241.705 128.557,241.899Z" style="fill:rgb(17,112,238);"/>
        </g>
        <g>
            <path d="M208.261,227.621C208.36,227.109 214.042,212.619 214.042,212.619C214.042,212.619 253.749,212.081 253.949,212.745C253.949,212.745 253.886,214.39 253.949,226.764C254.111,258.812 239.835,283.477 208.324,283.495L191.653,241.738C192.776,241.734 193.876,241.207 194.97,240.988C196.064,240.768 197.128,240.449 198.157,240.021C199.185,239.593 200.163,239.071 201.083,238.449C202.017,237.828 202.865,237.12 203.648,236.333C204.438,235.539 205.141,234.686 205.75,233.755C206.375,232.826 206.89,231.845 207.311,230.813C207.733,229.783 208.047,228.715 208.261,227.621Z" style="fill:rgb(17,112,238);"/>
        </g>
        <g>
            <path d="M194.528,204.341C194.006,204.239 182.768,204.088 182.768,204.088C182.768,204.088 182.72,160.481 182.721,160.265C182.721,160.265 195.202,160.331 207.557,160.266C239.559,160.101 253.93,185.934 253.949,217.999L208.322,230.766C208.318,229.623 208.368,218.994 208.145,217.881C207.922,216.766 207.595,215.681 207.16,214.633C206.724,213.586 206.193,212.589 205.56,211.653C204.926,210.701 204.204,209.837 203.403,209.039C202.593,208.235 201.726,207.519 200.778,206.898C199.83,206.262 198.83,205.737 197.78,205.306C196.729,204.877 195.643,204.558 194.528,204.341Z" style="fill:rgb(17,112,238);"/>
        </g>
        <g>
            <rect x="171.871" y="160.269" width="23.397" height="4.248" style="fill:rgb(17,112,238);"/>
        </g>
    </g>
</svg>
