<svg width="370" height="240" viewBox="0 0 370 240" fill="none" xmlns="http://www.w3.org/2000/svg">
<path d="M160.596 138.382C157.439 137.531 147.389 132.842 145.121 133.008C142.861 133.165 130.656 131.148 130.656 131.148C130.656 131.148 125.223 135.277 120.599 135.309C120.599 135.309 119.501 156.903 113.474 172.216C117.69 169.386 128.5 163.381 138.886 159.685C149.625 155.863 161.734 139.462 161.734 139.462C161.734 139.462 162.287 139.762 163.241 140.266C162.504 139.399 161.606 138.658 160.588 138.39L160.596 138.382Z" fill="#FFA27D"/>
<path d="M363.324 93.8706L176.111 174.052L142.244 80.1813L329.457 0L363.324 93.8706Z" fill="#FFE7D2"/>
<path d="M256.405 118.225C271.685 116.5 282.435 101.083 280.416 83.7905C278.397 66.4982 264.373 53.8787 249.093 55.604C233.814 57.3294 223.064 72.7462 225.082 90.0384C227.101 107.331 241.125 119.95 256.405 118.225Z" fill="#296D58"/>
<path d="M196.775 124.729C203.208 124.003 207.734 117.511 206.883 110.229C206.033 102.947 200.129 97.6327 193.696 98.3591C187.263 99.0855 182.738 105.577 183.588 112.859C184.438 120.141 190.342 125.455 196.775 124.729Z" fill="#296D58"/>
<path d="M311.786 75.4707C318.219 74.7444 322.745 68.2524 321.894 60.9706C321.044 53.6887 315.14 48.3744 308.707 49.1008C302.274 49.8272 297.749 56.3191 298.599 63.601C299.449 70.8828 305.353 76.1971 311.786 75.4707Z" fill="#296D58"/>
<path d="M263.327 89.418C261.74 85.0125 259.007 83.1999 253.237 83.1211C249.022 83.0422 247.523 82.3251 246.786 80.276C246.057 78.2427 246.521 76.5168 248.509 75.6656C250.833 74.6726 252.291 75.8627 253.221 78.156L257.973 76.1227C256.33 71.9064 253.59 69.7312 249.206 70.8109L248.357 68.4624L244.638 70.0544L245.472 72.3714C241.962 74.6175 240.487 78.5422 242.018 82.7822C243.717 87.4792 246.513 88.7638 252.628 88.8821C256.29 88.9688 257.709 89.7963 258.574 92.1921C259.416 94.517 258.703 96.3296 256.643 97.2123C253.918 98.3787 252.38 96.8182 251.354 94.3121L246.481 96.4005C248.22 100.877 251.218 103.423 256.17 102.028L257.34 105.275L261.059 103.683L259.873 100.396C263.936 97.8506 264.937 93.8865 263.327 89.4259V89.418Z" fill="#FFE7D2"/>
<path d="M303.677 18.4416L172.649 74.5622L150.747 83.9406L158.921 106.606L171.808 142.323L179.982 164.989L201.884 155.61L332.912 99.4898L354.814 90.1114L346.639 67.4457L333.753 31.729L325.579 9.06323L303.677 18.4416V18.4416ZM341.046 70.8108C334.458 76.0832 330.836 84.5474 331.525 93.0353L198.871 149.849C194.07 143.119 186.129 139.612 178.01 140.636L164.523 103.241C171.11 97.9688 174.733 89.4967 174.044 81.0167L306.69 24.2026C311.49 30.933 319.432 34.44 327.55 33.4155L341.038 70.8108H341.046Z" fill="#296D58"/>
<path d="M149.641 100.688C183.708 98.1264 323.928 87.5579 324.825 86.8644C325.531 86.3206 341.142 69.9518 350.967 59.6356L340.405 30.3577C320.754 36.6073 258.494 56.1679 237.57 59.9666C219.835 63.1899 179.22 70.07 157.158 73.7898L142.236 80.1813L149.633 100.688H149.641Z" fill="#D6A47E"/>
<path d="M370 129.808C304.35 153.522 236.015 169.142 166.462 176.369C158.809 144.081 151.156 111.792 143.502 79.5115C213.047 72.2216 281.366 56.5384 346.992 32.7615C354.661 65.113 362.331 97.4566 370 129.808Z" fill="#FFE7D2"/>
<path d="M286.222 103.84C289.845 119.137 281.999 137.397 265.45 141.188C248.91 144.979 233.715 131.928 230.021 116.725C226.31 101.436 234.917 84.1296 251.025 80.3309C267.261 76.5008 282.608 88.606 286.214 103.84H286.222Z" fill="#296D58"/>
<path d="M207.093 120.847C208.608 127.184 204.905 134.466 198.117 135.553C191.249 136.649 184.462 131.006 183.043 124.48C181.689 118.239 184.983 110.831 192.051 109.948C198.967 109.089 205.546 114.385 207.093 120.855V120.847Z" fill="#296D58"/>
<path d="M308.637 97.5666C310.08 103.659 316.619 108.963 323.287 106.866C329.914 104.786 333.216 96.684 331.806 90.3634C330.371 83.9246 323.832 79.33 317.204 81.2293C310.312 83.2075 307.147 91.2776 308.629 97.5666H308.637Z" fill="#296D58"/>
<path d="M268.856 114.913C267.734 110.169 263.88 107.82 259.24 107.15C256.891 106.811 253.542 105.976 252.933 103.304C252.452 101.216 253.205 99.6475 255.305 99.1194C257.621 98.5284 259.384 100.199 259.857 102.319C261.924 101.838 262.958 101.594 265.018 101.098C264.008 97.0546 261.107 94.115 256.643 94.5091C256.411 93.5397 256.298 93.0511 256.066 92.0896C254.447 92.4679 253.638 92.6492 252.011 93.0196C252.235 93.981 252.356 94.4539 252.58 95.4154C248.645 96.9758 246.73 100.916 247.659 104.92C248.821 109.932 253.045 111.847 257.861 112.667C260.498 113.108 262.942 114.101 263.583 116.867C264.136 119.263 263.166 120.91 260.947 121.431C258.182 122.085 256.515 120.138 255.85 117.719C253.726 118.191 252.66 118.428 250.536 118.893C251.658 123.354 254.928 126.585 259.849 126.033C260.169 127.373 260.329 128.043 260.642 129.39C262.261 129.02 263.078 128.839 264.697 128.46C264.376 127.105 264.216 126.419 263.896 125.064C268.247 123.393 269.874 119.2 268.864 114.921L268.856 114.913Z" fill="#FFE7D2"/>
<path d="M318.879 49.5793C272.382 64.4902 224.724 75.4369 176.311 82.3249C168.209 83.4518 160.099 84.4685 151.965 85.3906C153.816 93.1849 155.66 100.987 157.511 108.781C160.42 121.068 163.337 133.354 166.246 145.641C168.097 153.435 169.94 161.237 171.792 169.032C179.918 168.117 188.036 167.109 196.138 165.99C244.55 159.141 292.217 148.234 338.73 133.362C346.487 130.848 354.213 128.24 361.906 125.528C360.055 117.718 358.204 109.908 356.352 102.098C353.435 89.7882 350.518 77.4859 347.601 65.1758C345.75 57.3657 343.899 49.5557 342.047 41.7456C334.362 44.4645 326.637 47.0732 318.879 49.5951V49.5793ZM350.342 105.125C343.234 109.916 338.305 118.207 338.105 126.75C291.031 141.866 242.771 152.907 193.75 159.795C189.631 152.308 181.625 146.839 173.026 145.735C169.972 132.874 166.927 120.012 163.874 107.15C171.447 104.171 176.504 96.6683 176.905 88.7479C225.918 81.8284 274.17 70.7556 321.235 55.6083C325.066 62.6618 333.104 66.949 341.174 66.4683C344.227 79.3537 347.281 92.2392 350.334 105.125H350.342Z" fill="#296D58"/>
<path d="M312.236 107.71C327.686 106.528 357.851 102.705 360.592 102.035C361.289 101.862 362.234 101.633 363.26 101.389C361.016 91.9162 358.764 82.4354 356.521 72.9624C337.151 75.7523 254.728 87.6211 241.801 89.0002C228.426 90.4346 158.376 90.939 146.219 91.0099C149.809 106.165 153.408 121.32 156.998 136.483C197.148 128.618 299.83 108.663 312.228 107.71H312.236Z" fill="#D6A47E"/>
<path d="M361.706 179.75C292.265 173.989 222.824 168.22 153.384 162.459C154.498 135.395 155.595 108.332 156.709 81.2766C171.086 81.6391 183.949 85.0043 197.396 89.6462C208.551 93.4921 219.859 96.0377 231.744 96.0141C276.894 95.9353 320.851 81.0875 365.977 80.323C364.55 113.463 363.124 146.602 361.706 179.75V179.75Z" fill="#FFE7D2"/>
<path d="M278.16 126.616C278.681 141.866 262.998 154.507 247.74 153.49C232.176 152.458 221.582 138.895 221.141 124.394C221.021 120.319 219.146 113.857 221.029 109.798C222.888 105.787 228.346 106.449 231.96 106.701C240.952 107.331 250.392 109.231 259.119 111.879C266.148 114.006 277.864 118.049 278.16 126.608V126.616Z" fill="#296D58"/>
<path d="M199.904 123.535C199.576 129.177 194.663 134.536 188.693 134.237C182.915 133.945 178.307 128.247 178.7 122.676C179.076 117.443 182.795 112.02 188.637 112.501C193.99 112.943 200.233 117.75 199.904 123.542V123.535Z" fill="#296D58"/>
<path d="M303.108 127.578C303.22 134.379 308.998 140.416 316.05 140.684C322.99 140.952 330.01 135.679 330.403 128.626C330.836 120.792 321.756 116.229 314.984 116.599C308.397 116.97 302.996 120.39 303.116 127.57L303.108 127.578Z" fill="#296D58"/>
<path d="M258.013 131.668C258.222 126.75 254.519 124.299 250.216 122.873C247.9 122.1 244.79 121.257 243.404 119.019C242.522 117.6 242.779 116.804 244.935 116.867C247.09 116.93 249.302 117.797 250.536 119.626C252.676 119.681 253.758 119.712 255.922 119.752C253.606 116.237 248.741 114.968 244.782 114.527C244.141 113.975 243.813 113.707 243.132 113.187C241.545 113.124 240.751 113.084 239.197 113.006C239.854 113.534 240.166 113.802 240.775 114.353C237.626 114.109 236.833 116.812 238.267 119.106C240.527 122.699 243.949 125.221 248.06 127.002C250.232 127.94 252.572 129.414 252.412 132.03C252.275 134.205 250.889 135.372 248.677 135.325C246.161 135.277 244.702 133.236 244.814 130.888C242.691 130.793 241.633 130.746 239.509 130.651C239.381 135.033 241.905 138.351 246.409 139.021C246.361 140.258 246.329 140.873 246.281 142.11C247.924 142.205 248.741 142.244 250.384 142.339C250.44 141.086 250.464 140.455 250.512 139.202C254.84 138.895 257.821 135.916 258.005 131.676L258.013 131.668Z" fill="#FFE7D2"/>
<path d="M320.217 91.325C302.539 93.7051 284.892 96.3846 267.157 98.4179C254.632 99.8522 241.761 101.421 229.139 100.601C211.509 99.4503 195.561 92.5466 178.427 89.1262C172.898 88.0859 167.408 87.4081 161.79 87.022C161.622 93.5238 161.534 100.034 161.398 106.543C161.133 116.915 160.516 127.27 160.091 137.642C159.819 144.214 159.546 150.787 159.274 157.36C166.142 157.888 173.002 158.416 179.87 158.944C228.234 162.672 276.59 166.391 324.954 170.119C334.506 170.852 344.059 171.593 353.62 172.326C353.964 164.39 354.301 156.446 354.645 148.51C355.182 136.01 356.008 123.511 356.176 111.004C356.248 103.162 356.272 95.3128 356.585 87.4791C344.412 88.2672 332.302 89.7409 320.217 91.3408V91.325ZM346.728 148.935C338.04 150.401 329.514 155.571 326.26 163.933C277.279 160.441 228.298 156.95 179.317 153.459C177.754 146.571 172.2 140.983 165.525 138.682C165.974 127.798 166.743 116.922 166.735 106.023C172.809 104.754 177.562 100.175 178.379 94.0676C196.771 97.0466 214.354 103.202 233.074 104.368C262.645 106.212 293.154 100.191 322.421 96.8575C327.935 104.4 338.93 108.529 347.85 110.184C348.314 123.109 347.289 136.026 346.736 148.935H346.728Z" fill="#296D58"/>
<path d="M232.056 96.0141C231.952 96.0141 231.848 96.0141 231.752 96.0141C219.867 96.0377 208.559 93.4921 197.404 89.6462C186.706 85.9579 176.384 83.0735 165.372 81.8677C162.736 83.767 159.306 87.9833 156.269 92.1445C155.595 108.505 154.922 124.866 154.257 141.227L282.32 154.672L335.516 141.448C335.516 141.448 269.265 112.304 232.056 96.0141V96.0141Z" fill="#D6A47E"/>
<path d="M313.526 240C297.274 231.299 283.033 219.36 266.468 211.195C252.123 204.134 236.777 198.656 222.007 192.509C207.053 186.283 191.875 180.459 177.257 173.484C161.43 165.926 146.035 157.565 129.823 150.787C135.929 139.998 142.068 129.406 147.726 118.349C153.448 107.158 159.851 96.4082 165.717 85.3118C181.681 91.7584 197.749 97.9608 213.712 104.415C229.34 110.736 245.055 113.715 261.644 116.536C295.711 122.329 327.158 138.343 358.861 151.386C343.746 180.924 328.648 210.462 313.534 240H313.526Z" fill="#FFE7D2"/>
<path d="M267.919 167.692C264.465 174.525 258.078 181.436 250.48 183.809C243.452 186 235.366 184.36 228.731 181.673C222.624 179.198 216.053 175.108 213.576 168.764C210.827 161.718 212.631 152.821 216.004 146.327C223.618 131.652 239.269 125.907 255.04 130.643C271.525 135.593 274.963 153.75 267.919 167.692V167.692Z" fill="#296D58"/>
<path d="M195.032 137.689C191.987 143.332 184.51 147.572 178.091 144.947C171.695 142.331 170.445 134.3 173.178 128.689C176.103 122.699 183.837 118.853 190.119 121.431C196.346 123.984 198.133 131.936 195.032 137.689Z" fill="#296D58"/>
<path d="M288.883 176.321C286.15 181.933 287.4 189.963 293.796 192.58C300.215 195.204 307.7 190.964 310.737 185.322C313.838 179.568 312.043 171.617 305.824 169.063C299.542 166.486 291.8 170.332 288.883 176.321Z" fill="#296D58"/>
<path d="M247.443 166.257C249.631 162.025 248.357 157.959 245.087 154.735C243.46 153.128 241.465 150.551 242.715 148.186C243.709 146.295 245.327 145.475 247.291 146.224C249.495 147.067 249.711 149.447 248.717 151.291C250.633 152.079 251.586 152.474 253.494 153.262C255.297 149.652 255.128 145.609 251.338 143.355C251.795 142.465 252.027 142.008 252.468 141.141C250.961 140.534 250.216 140.226 248.709 139.62C248.285 140.463 248.06 140.904 247.611 141.787C243.476 140.81 239.469 142.882 237.578 146.531C235.254 151.008 237.153 154.861 240.439 158.282C242.234 160.15 243.404 162.333 242.122 164.792C240.984 166.967 239.133 167.66 237.105 166.888C234.573 165.926 234.477 163.2 235.574 161.127C233.611 160.323 232.633 159.913 230.678 159.109C228.682 163.089 228.955 167.55 233.242 169.883C232.609 171.112 232.281 171.774 231.68 172.925C233.178 173.539 233.932 173.847 235.43 174.462C236.039 173.295 236.376 172.633 237.009 171.388C241.521 172.531 245.44 170.143 247.451 166.25L247.443 166.257Z" fill="#FFE7D2"/>
<path d="M327.478 145.83C315.481 140.896 303.533 135.821 291.488 131.022C280.997 126.845 269.954 124.386 258.903 122.14C247.275 119.775 235.51 117.711 224.211 114.054C212.655 110.31 201.419 105.235 190.103 100.822C183.107 98.0947 176.111 95.3679 169.123 92.6174C166.951 96.5422 164.651 100.396 162.495 104.329C156.597 115.417 151.012 126.671 145.298 137.846C143.118 141.992 140.65 145.767 138.125 149.699C145.242 152.789 152.27 156.059 159.274 159.385C180.799 169.646 202.645 178.78 224.708 187.836C247.259 197.088 269.658 205.607 290.414 218.461C297.129 222.654 303.821 226.87 310.713 230.779C314.199 223.946 317.685 217.114 321.179 210.281C326.957 198.987 332.743 187.686 338.521 176.392C342.184 169.229 345.846 162.073 349.516 154.909C342.176 151.883 334.827 148.864 327.486 145.838L327.478 145.83ZM314.856 208.586C307.74 207.53 298.844 209.272 293.507 214.284C272.158 202.313 249.615 193.573 226.951 184.352C204.633 175.273 182.418 166.131 160.46 156.241C160.74 150.204 155.099 144.632 150.843 141.046C156.798 129.398 162.648 117.687 168.762 106.118C174.701 106.937 182.739 107.591 187.868 103.824C200.001 108.561 212.038 113.825 224.379 118.026C234.957 121.627 245.872 124.181 256.699 126.947C280.533 133.031 302.683 142.622 325.338 151.946C323.639 159.74 326.709 168.141 333 173.138C326.957 184.951 320.907 196.765 314.864 208.578L314.856 208.586Z" fill="#296D58"/>
<path d="M89.0719 186.646C102.095 183.722 109.179 175.187 113.066 172.491C113.194 172.405 113.33 172.31 113.482 172.208C119.517 156.895 120.607 135.301 120.607 135.301C125.223 135.277 130.664 131.14 130.664 131.14C130.664 131.14 142.861 133.165 145.129 133C147.389 132.842 157.447 137.531 160.604 138.375C161.622 138.65 162.512 139.383 163.257 140.25C168.722 143.15 187.587 153.041 194.199 154.956C201.964 157.202 205.851 150.464 205.851 150.464C205.851 150.464 219.787 160.355 224.587 153.837C229.388 147.319 220.701 136.98 220.701 136.98C220.701 136.98 228.698 139.226 233.266 135.632C237.834 132.038 234.869 124.173 232.353 118.554C229.836 112.935 230.293 107.316 227.553 101.925C224.812 96.5343 192.82 64.3956 192.82 64.3956C192.82 64.3956 226.415 69.1163 235.094 68.8878C243.781 68.6592 249.431 66.358 251.033 59.8404C252.636 53.3228 236.921 52.4795 225.269 48.208C213.616 43.9365 193.734 37.1983 183.22 37.8682C172.705 38.5459 144.6 39.4444 135.232 39.665C125.864 39.8936 117.177 44.835 117.177 44.835C117.177 44.835 110.782 44.6064 104.379 48.208C97.9834 51.8018 94.7778 68.4307 88.6151 80.796C82.4444 93.1534 70.7922 125.292 59.8211 131.132C48.8501 136.972 2.69787 140.124 2.69787 140.124C-6.47807 175.407 10.6958 215.853 10.6958 215.853C43.8333 214.056 89.0719 186.638 89.0719 186.638V186.646Z" fill="#FFA27D"/>
<path d="M127.17 48.4523C127.17 48.405 127.17 48.3578 127.178 48.3026C127.258 47.6564 127.859 47.1914 128.525 47.2702C129.286 47.3648 147.133 49.532 151.476 50.4305L152.334 50.6038C176.047 55.4428 189.959 59.801 193.678 63.5681C194.142 64.0331 194.126 64.7896 193.654 65.2467C193.173 65.7038 192.412 65.6881 191.947 65.2231C190.047 63.3001 182.314 59.139 151.845 52.9287L150.98 52.7475C146.74 51.8727 128.412 49.6424 128.228 49.6187C127.619 49.5478 127.17 49.0355 127.17 48.4445V48.4523Z" fill="#E06655"/>
<path d="M129.454 66.421C129.454 66.2398 129.494 66.0585 129.59 65.8851C129.895 65.3019 130.616 65.0734 131.209 65.3729C131.402 65.4674 150.859 75.2478 156.429 77.2259C162.648 79.4247 177.129 84.5552 182.37 91.8136C184.758 95.1315 188.573 98.9538 192.604 102.997C196.835 107.245 201.211 111.634 204.08 115.638C209.457 123.133 221.462 136.065 221.582 136.199C222.031 136.68 221.999 137.429 221.502 137.87C221.013 138.311 220.252 138.28 219.803 137.791C219.306 137.255 207.582 124.614 202.116 117.001C199.36 113.155 195.048 108.837 190.889 104.66C186.786 100.546 182.915 96.6525 180.415 93.1849C175.614 86.5333 161.117 81.4028 155.652 79.4641C149.906 77.4308 130.921 67.8869 130.119 67.485C129.703 67.2722 129.462 66.8624 129.462 66.4289L129.454 66.421Z" fill="#E06655"/>
<path d="M122.827 89.3468C122.827 89.071 122.923 88.7952 123.123 88.5666C123.556 88.0701 124.317 88.0228 124.822 88.4484C124.926 88.5351 135.328 97.3854 145.554 101.972C156.573 106.921 167.007 113.037 170.894 115.795C175.005 118.711 198.542 138.824 199.544 139.683L199.736 139.896L206.82 149.786C207.205 150.322 207.077 151.063 206.532 151.441C205.987 151.819 205.234 151.693 204.849 151.157L197.853 141.385C196.066 139.856 173.37 120.485 169.484 117.726C165.677 115.023 155.419 109.018 144.552 104.139C134.006 99.403 123.676 90.6157 123.235 90.2453C122.963 90.0088 122.819 89.6778 122.819 89.3468H122.827Z" fill="#E06655"/>
<path d="M114.075 167.006C114.075 166.849 114.107 166.683 114.18 166.533C119.725 154.105 119.413 135.514 119.405 135.332L119.381 134.04L120.695 134.127C125.143 134.426 129.807 130.312 129.855 130.273L130.288 129.887L130.865 129.981C136.667 130.935 150.226 133.165 150.931 133.394C151.645 133.63 160.484 137.594 162.247 138.382C162.856 138.65 163.121 139.36 162.84 139.951C162.56 140.55 161.846 140.81 161.245 140.534C157.262 138.745 150.731 135.837 150.162 135.632C149.425 135.443 138.518 133.63 131.025 132.401C129.743 133.433 125.96 136.199 121.825 136.475C121.809 140.889 121.376 156.296 116.391 167.479C116.127 168.078 115.414 168.354 114.805 168.086C114.356 167.889 114.083 167.455 114.083 166.998L114.075 167.006Z" fill="#E06655"/>
<path d="M249.911 56.3807C247.098 53.7249 239.87 52.3614 232.561 50.4385C231.455 52.2196 230.99 54.8834 232.465 56.1995C234.861 58.3352 241.833 62.1575 245.832 60.471C248.02 59.5489 249.246 57.7914 249.911 56.3807Z" fill="#FFCAB3"/>
<path d="M234.076 122.786C234.076 122.786 230.518 114.739 228.001 115.189C225.485 115.638 222.175 119.35 222.4 124.74C222.632 130.131 226.519 135.64 228.234 135.979C229.941 136.317 235.631 131.557 235.582 128.901C235.542 126.246 234.076 122.786 234.076 122.786V122.786Z" fill="#FFCAB3"/>
<path d="M216.75 135.238C215.868 134.986 214.866 134.986 214.41 135.987C213.496 137.989 211.324 144.057 212.238 146.193C213.152 148.328 220.124 154.507 220.693 154.617C221.262 154.728 226.294 153.041 226.519 146.863C226.519 146.863 217.679 135.49 216.75 135.23V135.238Z" fill="#FFCAB3"/>
<path d="M196.467 140.132C196.467 140.132 195.441 146.2 196.467 148.785C197.492 151.37 202.14 154.405 203.431 153.167C204.729 151.93 204.905 149.179 204.905 149.179L198.75 140.589L196.467 140.14V140.132Z" fill="#FFCAB3"/>
</svg>
