<svg width="370" height="240" viewBox="0 0 370 240" fill="none" xmlns="http://www.w3.org/2000/svg">
<path d="M328.834 0.00854492C328.834 0.00854492 371.899 104.902 369.935 106.394C367.97 107.886 344.791 113.862 328.67 133.92C312.55 153.979 290.271 193.644 281.823 199.105C273.374 204.566 275.075 206.51 271.472 209.583C267.869 212.646 265.71 211.376 260.142 213.996C254.575 216.615 251.236 224.021 244.814 225.663C238.4 227.306 222.093 229.02 218.241 212.167C218.241 212.167 208.993 239.64 190.201 239.995C171.409 240.359 171.945 219.838 171.945 219.838C171.945 219.838 161.586 238.104 147.71 233.744C133.834 229.393 132.599 213.143 132.599 213.143C132.599 213.143 122.644 222.342 113.473 223.159C104.302 223.976 95.4035 217.459 93.2137 210.533C91.0239 203.607 95.8461 187.775 100.202 182.349C104.559 176.924 153.215 99.5034 175.424 83.5735C197.632 67.6437 281.978 44.9388 293.502 37.4623C305.033 29.9857 328.841 0.00854492 328.841 0.00854492H328.834Z" fill="#FFA27D"/>
<path d="M1.87922 97.2128L7.81962 41.8757L248.681 83.9202C248.681 83.9202 251.073 173.355 256.772 196.903L17.5495 195.296C17.5495 195.296 16.3614 189.826 14.3346 181.879C14.1638 181.204 18.7297 180.147 18.7297 180.147C18.7297 180.147 13.5503 178.86 13.4261 178.38C11.8109 172.236 9.79196 165.034 7.50122 157.878C7.31486 157.3 12.1914 155.205 12.1914 155.205C12.1914 155.205 6.18117 153.864 5.79291 152.727C3.98362 147.435 2.03449 142.312 0 137.819L1.87144 97.2039L1.87922 97.2128Z" fill="#EAC1A2"/>
<path d="M7.81963 41.8757L248.673 83.9291L240.861 179.872L0.00778198 137.828L7.81963 41.8757Z" fill="#FFE7D2"/>
<path d="M157.058 120.361C160.586 104.228 148.822 86.9682 130.782 81.8096C112.742 76.651 95.2582 85.5473 91.7302 101.68C88.2021 117.813 99.9663 135.073 118.006 140.231C136.046 145.39 153.53 136.494 157.058 120.361Z" fill="#296D58"/>
<path d="M212.135 127.868C213.621 121.074 208.667 113.806 201.07 111.633C193.473 109.461 186.11 113.207 184.624 120.001C183.138 126.795 188.093 134.063 195.69 136.236C203.287 138.408 210.65 134.662 212.135 127.868Z" fill="#296D58"/>
<path d="M64.1745 102.038C65.6602 95.2443 60.706 87.9759 53.1089 85.8034C45.5119 83.631 38.1489 87.3773 36.6631 94.171C35.1774 100.965 40.1317 108.233 47.7287 110.406C55.3258 112.578 62.6888 108.832 64.1745 102.038Z" fill="#296D58"/>
<path d="M114.048 102.878C113.683 107.38 115.779 110.425 121.992 113.8C126.519 116.286 127.8 117.724 127.629 119.82C127.458 121.898 126.138 123.034 123.576 122.59C120.586 122.066 119.569 120.255 119.654 117.858L113.543 116.792C113.326 121.17 115.267 124.517 120.524 126.151L120.33 128.549L125.121 129.383L125.315 127.012C130.176 127.199 133.639 124.837 133.989 120.513C134.377 115.709 131.954 113.054 125.385 109.458C121.456 107.282 120.314 105.799 120.516 103.348C120.71 100.969 122.341 99.9033 124.989 100.365C128.499 100.978 129.415 103.127 129.345 105.764L135.612 106.856C135.852 102.212 133.81 98.4204 127.784 96.7066L128.056 93.3857L123.265 92.551L122.993 95.9164C117.387 95.6589 114.42 98.3227 114.055 102.878H114.048Z" fill="#FFE7D2"/>
<path d="M36.6829 137.579L205.258 167.006L233.43 171.925L235.317 148.758L238.291 112.255L240.178 89.0879L212.006 84.1687L43.4309 54.742L15.2587 49.8228L13.3718 72.9894L10.3976 109.493L8.51074 132.66L36.6829 137.579V137.579ZM21.0283 73.4511C30.6649 72.9272 38.6087 68.1057 41.8778 60.7889L212.534 90.5797C214.537 98.8199 221.487 106.243 230.767 110.061L227.653 148.279C218.016 148.803 210.072 153.624 206.803 160.941L36.1471 131.15C34.1437 122.91 27.1938 115.487 17.9144 111.669L21.0283 73.4511Z" fill="#296D58"/>
<path d="M7.50121 157.887C7.60216 158.206 7.70312 158.526 7.80407 158.837L244.123 183.717L12.1914 155.205C12.1914 155.205 7.31485 157.31 7.50121 157.878V157.887Z" fill="#FFE7D2"/>
<path d="M227.738 186.647C227.676 187.073 227.264 187.375 226.721 187.357L20.3138 179.934C19.6848 179.907 19.1257 179.463 19.0636 178.939C19.0015 178.416 19.4596 177.998 20.0886 178.025L226.496 185.448C227.125 185.475 227.684 185.919 227.746 186.443C227.754 186.514 227.746 186.585 227.746 186.647H227.738Z" fill="#D6A47E"/>
<path d="M82.3502 173.798C82.2881 174.233 81.8532 174.544 81.2941 174.509L19.0248 170.557C18.3958 170.522 17.8523 170.06 17.8135 169.527C17.7747 169.003 18.2484 168.604 18.8773 168.648L81.1465 172.6C81.7755 172.635 82.3191 173.097 82.358 173.63C82.358 173.692 82.358 173.745 82.358 173.807L82.3502 173.798Z" fill="#D6A47E"/>
<path d="M122.302 217.406C122.302 217.406 129.376 207.15 128.204 194.425C127.031 181.692 119.6 178.433 113.38 177.981C107.16 177.528 100.8 180.192 98.6571 184.631C96.5139 189.071 89.9523 203.758 95.3879 212.593C100.816 221.428 112.634 225.894 122.294 217.406H122.302Z" fill="#FFA27D"/>
<path d="M135.045 206.901C135.045 206.901 141.109 192.721 144.712 187.704C148.316 182.687 163.823 165.159 168.909 161.394C173.995 157.629 183.717 143.813 189.883 144.718C196.048 145.624 201.414 152.816 201.422 160.018C201.422 167.219 195.792 177.031 195.792 177.031C195.792 177.031 212.565 156.244 215.64 155.107C218.715 153.971 223.724 154.628 227.094 156.759C230.464 158.899 234.781 161.447 234.09 169.27C234.09 169.27 249.124 164.156 254.847 167.414C260.577 170.673 261.098 175.468 260.632 181.009C260.173 186.55 253.674 206.085 252.463 208.145C251.251 210.205 247.741 216.598 245.482 217.832C243.222 219.066 229.012 218.534 225.416 214.786C221.821 211.039 219.002 208.633 219.002 208.633C219.002 208.633 206.974 229.633 195.815 228.239C184.649 226.845 175.921 210.631 175.921 210.631C175.921 210.631 163.147 228.718 152.835 226.747C141.141 224.51 135.037 206.893 135.037 206.893L135.045 206.901Z" fill="#FFA27D"/>
<path d="M235.364 169.563C235.309 169.856 235.185 170.131 234.975 170.353C228.398 177.315 219.934 206.83 219.849 207.132C219.631 207.905 218.901 208.331 218.226 208.073C217.55 207.825 217.178 206.981 217.403 206.218C217.76 204.975 226.162 175.672 233.228 168.196C233.749 167.645 234.564 167.681 235.045 168.276C235.34 168.64 235.441 169.119 235.364 169.563V169.563Z" fill="#E06655"/>
<path d="M197.058 177.324C197.035 177.475 196.98 177.625 196.91 177.768C196.848 177.892 190.574 190.332 186.497 197.516C182.428 204.681 173.102 220.505 173.009 220.664C172.613 221.339 171.813 221.517 171.223 221.064C170.633 220.611 170.478 219.697 170.874 219.022C170.967 218.862 180.285 203.056 184.338 195.917C188.376 188.796 194.62 176.427 194.682 176.302C195.039 175.601 195.823 175.352 196.444 175.761C196.934 176.08 197.167 176.72 197.066 177.324H197.058Z" fill="#E06655"/>
<path d="M103.495 186.807C103.495 186.807 98.9366 200.171 103.782 204.593C108.628 209.015 114.521 207.443 118.187 202.053C121.86 196.663 122.45 191.353 120.19 190.634C117.93 189.915 107.851 183.326 106.252 182.767C104.644 182.208 103.503 186.807 103.503 186.807H103.495Z" fill="#FFCAB3"/>
<path d="M184.253 148.678C184.253 148.678 181.566 153.322 183.073 155.418C184.579 157.514 192.135 162.948 194.293 167.148C195.21 168.924 201.973 156.35 200.995 153.207C200.016 150.064 193.432 144.869 191.172 144.159C188.912 143.448 184.245 148.687 184.245 148.687L184.253 148.678Z" fill="#FFCAB3"/>
<path d="M215.966 161.998C215.966 161.998 223.498 163.729 227.552 167.769C227.552 167.769 232.18 163.338 232.382 161.243C232.576 159.147 228.903 153.766 222.877 153.163C216.851 152.559 215.966 161.989 215.966 161.989V161.998Z" fill="#FFCAB3"/>
<path d="M328.833 0.00887801C328.833 0.00887801 273.988 34.1506 267.566 35.7933C261.152 37.436 246.095 28.1391 228.088 31.7975C210.08 35.4559 183.694 28.6186 174.391 38.9455C165.088 49.2724 143.92 82.5705 135.666 94.6999C127.412 106.82 134.206 115.984 136.831 122.999C144.938 144.718 144.681 171.401 151.662 174.296C163.605 179.259 170.609 165.123 171.844 150.499C173.428 131.781 166.098 117.254 170.625 110.887C175.144 104.53 187.662 91.4322 187.662 91.4322C187.662 91.4322 225.797 89.2124 237.701 84.4796C289.052 64.0745 336.389 27.8195 336.389 27.8195L328.833 0V0.00887801Z" fill="#FFA27D"/>
<path d="M148.153 135.11C145.567 134.311 142.927 136.842 141.358 138.769C144.728 153.811 146.002 168.045 149.853 172.848C150.971 168.133 155.964 163.374 155.157 160.701C154.24 157.664 152.19 136.362 148.153 135.119V135.11Z" fill="#FFCAB3"/>
<path d="M261.261 186.709C259.133 198.848 253.076 209.743 252.789 210.267C252.408 210.95 251.608 211.146 251.01 210.711C250.413 210.275 250.234 209.361 250.622 208.677C250.7 208.535 258.589 194.31 259.366 180.902C259.607 176.738 258.846 173.479 257.098 171.206C254.761 168.16 251.352 167.885 251.321 167.885C250.614 167.831 250.071 167.139 250.11 166.331C250.149 165.523 250.754 164.901 251.461 164.946C251.639 164.954 255.934 165.265 259.001 169.226C261.237 172.102 262.223 176.098 261.936 181.097C261.827 182.971 261.594 184.853 261.268 186.709H261.261Z" fill="#E06655"/>
<path d="M128.623 205.259C126.837 215.435 121.471 219.839 121.145 220.105C120.563 220.567 119.755 220.407 119.351 219.741C118.948 219.075 119.087 218.161 119.67 217.69C120.112 217.335 129.997 209.024 125.408 187.802C125.237 187.011 125.657 186.212 126.348 186.017C127.039 185.821 127.738 186.301 127.909 187.091C129.516 194.506 129.462 200.508 128.631 205.259H128.623Z" fill="#E06655"/>
<path d="M170.431 115.913C170.361 116.304 170.159 116.659 169.841 116.881C169.235 117.307 168.443 117.094 168.07 116.393C164.335 109.449 155.91 106.918 155.825 106.892C155.133 106.687 154.722 105.879 154.893 105.098C155.071 104.308 155.77 103.837 156.454 104.032C156.842 104.148 165.974 106.874 170.26 114.848C170.439 115.176 170.485 115.558 170.423 115.904L170.431 115.913Z" fill="#E06655"/>
<path d="M188.92 91.7342C188.803 92.4002 188.291 92.9063 187.678 92.9152C186.963 92.924 186.381 92.2758 186.373 91.4678L186.078 69.8817C186.062 69.0648 186.637 68.3989 187.344 68.39C188.058 68.3811 188.64 69.0293 188.648 69.8373L188.943 91.4234C188.943 91.53 188.943 91.6365 188.92 91.7342V91.7342Z" fill="#E06655"/>
</svg>
