<svg width="120" height="216" viewBox="0 0 120 216" fill="none" xmlns="http://www.w3.org/2000/svg">
<path d="M120 148.005C120.001 161.453 116.014 174.599 108.543 185.781C101.072 196.963 90.4526 205.678 78.0284 210.824C65.6041 215.971 51.9328 217.317 38.7432 214.693C25.5537 212.07 13.4385 205.594 3.92969 196.084C2.81544 194.97 1.93158 193.647 1.32858 192.191C0.725581 190.735 0.415245 189.175 0.415291 187.599C0.415383 184.416 1.67973 181.364 3.93018 179.114C6.18064 176.863 9.23286 175.599 12.4154 175.599C13.9912 175.599 15.5516 175.91 17.0075 176.513C18.4633 177.116 19.7861 178 20.9004 179.114C26.0165 184.229 32.3151 188.004 39.2383 190.103C46.1616 192.203 53.4957 192.563 60.5912 191.151C67.6866 189.739 74.3244 186.599 79.9166 182.009C85.5088 177.419 89.8828 171.521 92.6512 164.837C95.4195 158.153 96.4969 150.89 95.7877 143.69C95.0785 136.491 92.6048 129.577 88.5855 123.561C84.5663 117.546 79.1256 112.615 72.7454 109.204C66.3652 105.794 59.2424 104.009 52.0078 104.009C49.8129 104.009 47.66 103.407 45.7833 102.269C43.9067 101.13 42.3783 99.4989 41.3645 97.5521C40.3506 95.6054 39.8902 93.4178 40.0332 91.2276C40.1763 89.0373 40.9174 86.9282 42.1758 85.1299L84.9453 24H12C8.8174 24 5.76515 22.7357 3.51472 20.4853C1.26428 18.2348 0 15.1826 0 12C0 8.8174 1.26428 5.76516 3.51472 3.51472C5.76515 1.26428 8.8174 2.42515e-08 12 2.42515e-08H107.987C110.182 -0.000139503 112.335 0.601783 114.212 1.74026C116.089 2.87874 117.617 4.51015 118.631 6.45694C119.645 8.40374 120.105 10.5913 119.962 12.7816C119.819 14.9719 119.078 17.081 117.819 18.8794L72.7959 83.2295C86.5017 87.6494 98.4538 96.2999 106.935 107.938C115.416 119.577 119.99 133.604 120 148.005V148.005Z" fill="#AD1581"/>
</svg>
