<svg width="377" height="743" viewBox="0 0 377 743" fill="none" xmlns="http://www.w3.org/2000/svg">
<path d="M164.824 643.4C171.524 638 180.624 636.9 188.024 640.6C196.724 645 201.424 655.3 199.224 665.6C197.424 679.3 195.624 693.1 193.824 706.8C230.324 723.5 247.724 734.4 246.224 739.4C244.424 745.5 214.824 742.9 157.324 731.8C159.824 702.3 162.324 672.9 164.824 643.4V643.4Z" fill="#191919"/>
<path d="M189.225 318.799C190.625 338.899 192.925 371.499 196.825 411.899C201.625 462.599 203.625 513.699 210.425 564.199C217.425 616.599 225.125 652.499 207.425 664.999C201.025 669.499 193.325 669.499 187.825 668.799C182.025 667.299 176.225 665.699 170.425 664.199C164.725 666.999 157.025 669.699 150.825 666.499C132.625 657.199 149.825 609.499 148.525 541.099C147.625 495.999 138.925 450.999 127.325 391.899C118.525 346.799 111.825 323.399 124.325 311.899C139.525 297.799 173.225 311.299 189.225 318.799V318.799Z" fill="white" stroke="#161616" stroke-width="2" stroke-miterlimit="10"/>
<path opacity="0.14" d="M160.524 309.399C156.724 327.099 152.424 353.899 152.724 386.499C153.224 439.099 165.524 472.299 174.424 511.799C182.524 547.599 190.324 599.799 186.824 667.099C181.524 666.099 176.124 664.999 170.824 663.999C169.624 664.899 164.724 668.199 157.924 667.599C156.924 667.499 150.324 666.799 146.024 661.899C140.724 655.899 141.824 646.999 142.424 642.699C144.724 623.999 145.224 605.099 147.124 586.299C149.124 566.499 148.824 551.099 148.724 541.799C148.624 534.799 148.124 521.699 145.624 500.399C141.224 463.299 137.224 456.999 128.524 403.099C121.924 362.499 124.824 369.899 122.324 360.699C120.024 352.499 116.124 340.599 118.224 325.499C119.224 318.399 121.024 314.399 123.924 311.499C129.924 305.599 138.824 305.699 144.124 305.799C151.224 305.899 157.024 307.899 160.524 309.399V309.399Z" fill="#6D6C6C"/>
<path opacity="0.1" d="M132.024 411.4C139.524 428 147.424 449.8 152.224 476.1C160.624 522.5 152.324 546.1 159.424 595.7C162.024 614 166.924 637 176.524 663C172.924 663.5 169.324 664 165.624 664.6C160.224 666.5 153.424 667.9 148.524 664.6C139.724 658.7 142.724 641.4 144.924 621.1C144.924 621.1 147.624 596.1 148.024 548.6C148.224 522.3 145.824 502.9 142.324 474.6C139.224 449.2 135.424 427.7 132.024 411.4V411.4Z" fill="#6D6C6C"/>
<path d="M38.624 635.801C45.324 630.401 54.424 629.301 61.824 633.001C70.524 637.401 75.224 647.701 73.024 658.001C71.224 671.701 69.424 685.501 67.624 699.201C104.124 715.901 121.524 726.801 120.024 731.801C118.224 737.901 88.624 735.301 31.124 724.201C33.724 694.701 36.224 665.301 38.624 635.801V635.801Z" fill="#191919"/>
<path d="M75.9242 315.701C70.1242 363.201 63.9242 412.201 57.3242 463.101C52.8242 498.101 51.7242 506.401 48.2242 520.001C42.2242 543.601 34.1242 563.701 27.1242 600.201C23.8242 617.201 22.1242 631.001 30.0242 641.401C35.9242 649.201 47.4242 655.401 50.0242 653.001C51.1242 651.901 50.4242 649.101 49.4242 646.601C51.8242 648.901 67.0242 663.201 79.1242 658.201C86.2242 655.301 89.1242 647.001 90.5242 642.501C104.724 599.001 107.024 555.401 107.024 555.401C107.924 538.601 110.124 521.401 114.424 486.901C117.624 461.601 123.624 425.001 136.524 380.501C138.424 379.301 157.024 366.901 158.224 344.001C158.324 342.301 159.024 325.001 148.124 313.301C133.724 297.801 102.924 296.701 75.9242 315.701V315.701Z" fill="white" stroke="#161616" stroke-width="2" stroke-miterlimit="10"/>
<path d="M156.624 327.7C160.224 338.1 161.224 349.8 155.524 359.7C150.624 368.2 142.724 377.5 133.124 380.5C131.324 381.1 130.524 378.2 132.324 377.6C141.124 374.9 148.524 366 152.924 358.2C158.224 349 157.024 338.2 153.724 328.5C153.024 326.7 155.924 325.9 156.624 327.7Z" fill="white"/>
<path d="M159.625 346.3C158.725 361.9 148.725 374.9 133.525 379.2C131.625 379.7 130.825 376.8 132.725 376.3C146.525 372.4 155.725 360.6 156.625 346.3C156.725 344.4 159.725 344.4 159.625 346.3Z" fill="white"/>
<path opacity="0.14" d="M115.324 302.699C112.724 310.499 108.724 323.099 104.324 338.699C91.5242 383.899 69.4242 462.199 68.0242 556.399C67.8242 572.099 67.2242 651.999 60.0242 652.399C58.3242 652.499 55.5242 648.099 51.7242 649.099C49.1242 649.799 49.0242 652.199 46.7242 653.099C41.7242 654.999 33.4243 646.399 29.4243 640.099C28.0243 637.899 24.8242 632.899 24.1242 625.799C23.7242 622.599 24.0242 620.299 25.1242 613.499C26.7242 602.999 27.5242 597.799 28.1242 595.199C32.4242 574.899 40.1243 555.399 46.4243 527.899C49.1243 516.299 50.9242 505.899 53.1242 493.899C53.8242 490.099 55.7242 478.999 57.8242 465.199C62.5242 433.599 64.0242 411.899 67.1242 384.199C68.8242 369.099 71.4243 347.799 75.4243 321.899C76.4243 319.699 78.2243 316.299 81.4243 313.199C82.5243 312.199 85.9242 309.099 95.1242 306.199C99.6242 304.599 106.524 302.899 115.324 302.699V302.699Z" fill="#6D6C6C"/>
<path opacity="0.2" d="M50.3247 513C44.8247 538.6 41.1247 560.5 38.6247 577.7C34.6247 605.7 34.4247 615.9 39.6247 626.7C47.4247 643 63.6247 652.7 62.6247 654C62.2247 654.5 59.6247 653.5 50.6247 647.7C50.3247 650.1 49.6247 652.8 47.6247 653.7C42.5247 655.9 31.2247 644.9 26.3247 634.4C19.6247 619.9 24.5247 605 29.0247 590.7C34.6247 572.6 42.1247 546.8 50.3247 513Z" fill="#6D6C6C"/>
<path d="M183.325 145.699C193.125 144.399 202.125 157.199 219.625 182.699C231.625 200.099 240.025 215.399 245.525 225.999C257.425 225.399 269.325 224.799 281.225 224.099C292.325 223.499 303.425 222.899 314.525 222.199C318.925 220.699 325.525 218.499 333.625 216.599C346.725 213.399 373.825 208.099 375.525 212.799C376.025 214.299 374.225 217.399 362.625 224.699C363.425 226.699 366.325 235.099 362.625 244.799C362.025 246.299 358.725 254.399 350.925 258.599C340.925 263.899 327.125 260.999 317.025 251.099C309.225 255.799 266.925 280.499 227.125 263.599C214.125 258.099 205.025 249.699 196.925 242.299C182.225 228.799 162.925 211.099 162.425 186.499C162.025 168.699 171.425 147.299 183.325 145.699V145.699Z" fill="white" stroke="#161616" stroke-width="2" stroke-miterlimit="10"/>
<path d="M376.324 214.001C372.424 217.901 368.624 222.101 364.224 225.401C359.924 228.601 355.024 230.401 350.024 232.101C348.624 232.601 348.024 230.401 349.424 229.901C354.724 228.101 359.824 226.101 364.224 222.501C368.024 219.401 371.324 215.801 374.724 212.401C375.724 211.401 377.324 213.001 376.324 214.001V214.001Z" fill="#161616"/>
<path d="M329.024 224.3C332.824 225.7 336.324 227.9 339.024 230.9C340.924 233 343.724 236.3 343.024 239.3C342.324 242.7 338.124 242.7 335.324 242.7C330.824 242.6 326.524 241.3 322.624 239C321.424 238.3 322.524 236.3 323.724 237.1C326.224 238.6 328.924 239.7 331.824 240.2C334.324 240.6 341.624 241.5 340.324 236.8C339.024 232 332.624 228.1 328.324 226.5C327.124 226 327.724 223.8 329.024 224.3V224.3Z" fill="#161616"/>
<path d="M363.924 226.5C366.024 233.2 366.024 239.7 358.824 242.9C353.524 245.3 345.824 244.1 343.124 238.4C342.524 237.1 344.424 236 345.024 237.3C347.224 242 353.524 242.8 357.924 240.8C364.024 238.1 363.424 232.6 361.724 227.1C361.324 225.7 363.424 225.1 363.924 226.5V226.5Z" fill="#161616"/>
<path d="M364.425 241.3C364.025 247 360.525 252.6 354.525 253.7C349.225 254.7 344.325 251.5 342.425 246.7C341.925 245.4 344.025 244.8 344.625 246.1C346.225 250.1 350.725 252.5 355.025 251.3C359.425 250 361.925 245.6 362.225 241.3C362.225 239.9 364.525 239.9 364.425 241.3V241.3Z" fill="#161616"/>
<path d="M342.824 247.801C335.024 246.401 337.624 260.301 343.324 259.801C344.724 259.701 344.724 261.901 343.324 262.101C338.524 262.501 335.924 256.601 335.624 252.601C335.324 248.201 339.124 245.001 343.424 245.801C344.824 245.901 344.224 248.001 342.824 247.801V247.801Z" fill="#161616"/>
<path d="M343.424 239.7C343.424 239.6 343.324 239.6 343.324 239.5C343.724 239.6 344.024 239.7 344.424 239.8C343.624 240 343.524 242.6 343.624 243.1C343.724 244.4 344.224 245.6 345.224 246.6C346.224 247.6 344.624 249.2 343.624 248.2C342.124 246.7 341.324 244.6 341.424 242.4C341.524 240.8 342.024 238 343.924 237.6C344.324 237.5 344.724 237.6 345.024 237.9C345.024 238 345.124 238 345.124 238.1C345.924 239.2 344.424 240.8 343.424 239.7V239.7Z" fill="#161616"/>
<path d="M348.825 232.301C346.425 232.401 344.925 234.701 345.525 237.001C345.925 238.401 343.725 239.001 343.325 237.601C342.325 233.901 344.825 230.201 348.725 230.101C350.325 230.001 350.325 232.301 348.825 232.301Z" fill="#161616"/>
<path opacity="0.12" d="M168.524 161.801C171.424 170.301 176.224 181.801 183.824 194.401C191.624 207.301 200.324 221.601 217.224 233.601C223.424 238.001 242.124 251.001 269.824 252.001C295.924 252.901 315.124 242.701 322.724 238.101C328.724 242.601 332.824 242.901 335.524 242.301C337.924 241.701 338.824 240.501 343.024 239.201C346.624 238.101 349.524 237.901 351.124 237.801C356.924 237.401 362.924 237.001 364.524 239.701C366.624 243.401 359.824 251.301 354.524 255.601C352.124 257.501 347.924 260.801 342.024 261.701C328.124 263.901 317.824 251.801 317.224 251.101C313.824 253.201 308.924 256.101 302.724 258.901C292.624 263.601 278.324 270.101 259.324 270.001C237.724 270.001 222.124 261.501 218.924 259.701C215.124 257.501 208.024 251.301 193.924 238.801C180.824 227.201 176.024 222.101 171.624 215.101C169.024 211.001 165.724 205.701 163.824 198.401C159.724 182.801 165.224 168.601 168.524 161.801V161.801Z" fill="#6D6C6C"/>
<path opacity="0.15" d="M163.225 173.801C165.125 180.401 168.425 189.701 174.125 200.001C179.425 209.601 193.425 234.301 223.125 249.501C231.925 254.001 247.125 261.601 268.225 261.201C291.625 260.701 308.425 250.701 315.525 245.901C319.525 248.401 325.525 251.601 333.325 253.701C343.725 256.401 351.225 255.501 351.425 257.001C351.625 258.501 344.425 261.701 336.925 261.501C326.425 261.201 319.025 254.301 316.325 251.501C309.425 256.501 283.625 274.101 249.825 269.601C223.725 266.101 207.225 251.401 192.725 238.401C181.925 228.701 169.425 217.201 164.625 198.001C162.125 188.201 162.525 179.601 163.225 173.801V173.801Z" fill="#6D6C6C"/>
<path d="M193.924 146.099C195.924 148.399 199.424 153.299 202.424 176.699C206.424 208.499 204.324 233.699 202.424 252.499C200.224 274.799 197.124 301.699 192.624 332.299C175.224 337.699 146.324 343.799 111.624 338.299C95.9244 335.799 82.5244 331.499 71.7244 326.999C74.0244 301.999 73.7244 281.799 73.0244 268.499C69.6244 199.799 66.5244 180.699 66.5244 180.699C64.2244 166.999 62.1244 158.499 67.2244 150.799C72.3244 142.899 82.0245 140.199 112.924 138.199C159.824 134.999 183.424 133.699 193.924 146.099V146.099Z" fill="#EC615B"/>
<path opacity="0.14" d="M126.425 138.4C123.325 149.4 120.725 161.1 118.525 173.5C107.125 238.7 115.125 296.5 126.425 339.6C120.625 339.2 114.525 338.5 108.025 337.4C94.2248 335.1 82.1248 331.5 72.1248 327.8C73.5248 307.9 73.9248 290.9 73.9248 277.4C73.8248 239.7 70.5248 210.9 69.1248 199.4C67.3248 185.4 65.4248 173.7 63.8248 165.2C63.4248 162.8 63.0248 158.4 65.1248 153.8C67.5248 148.5 72.0248 145.7 73.9248 144.6C80.4248 140.7 87.0248 140.7 90.6248 140.7C99.2248 140.4 110.625 139.9 126.425 138.4V138.4Z" fill="#6D6C6C"/>
<path opacity="0.16" d="M64.6246 162C82.3246 207.9 86.0246 240.7 85.6246 262.8C85.5246 271.1 84.6246 291 95.2246 311.9C101.725 324.6 110.225 333.5 116.725 339.1C110.725 338.3 104.125 337.1 97.0246 335.2C87.9246 332.8 80.0246 329.8 73.3246 326.9C74.2246 301.1 74.1246 273.1 72.4246 243.2C70.9246 214 68.1246 186.9 64.6246 162V162Z" fill="#6D6C6C"/>
<path d="M78.2243 146.4C65.9243 141 49.2243 156.8 38.4243 166.9C26.6243 178 2.72431 200.5 1.52431 237.3C0.524315 268 15.8243 290.2 23.4243 299.5C35.3243 314 48.8243 321.6 56.8243 325.3C56.9243 328.7 57.4243 334.1 59.7243 340C61.0243 343.2 67.6243 360 80.2243 360.7C81.9243 360.8 87.7243 360.8 94.4243 354.5C94.8243 354.5 96.8243 354.2 98.1243 352.4C99.3243 350.7 99.4243 348.2 98.2243 346.2C98.5243 346 101.124 344.7 101.724 341.6C102.424 338.2 100.124 335.7 99.9243 335.6C99.8243 333.9 99.4243 331.7 97.8243 330.6C96.0243 329.4 94.1243 330.4 91.2243 330.2C89.3243 330 86.6243 329.3 83.4243 326.5C87.0243 325.5 95.1243 322.9 94.9243 320C94.8243 316.6 83.1243 314.6 80.5243 314.1C74.1243 313 68.6243 313.2 64.9243 313.5C62.7243 309.5 59.5243 303.6 55.7243 296.5C49.3243 284.5 46.1243 278.5 44.2243 274.2C40.6243 266.2 36.6243 254.1 35.5243 237.2C40.0243 232.8 46.9243 226.5 55.7243 219.6C74.7243 204.8 81.1243 204.5 86.3243 196.1C96.1243 180.4 91.4243 152.2 78.2243 146.4V146.4Z" fill="white" stroke="#161616" stroke-width="2" stroke-miterlimit="10"/>
<path d="M100.924 334.401C99.3241 342.201 87.3241 340.401 82.5241 337.601C81.3241 336.901 82.4241 334.901 83.6241 335.701C87.1241 337.801 97.5241 340.101 98.7241 333.901C99.0241 332.401 101.224 333.001 100.924 334.401V334.401Z" fill="#161616"/>
<path d="M99.7246 346.901C93.7246 351.201 84.9245 349.201 78.6245 346.301C77.3245 345.701 78.4246 343.801 79.7246 344.401C85.3246 346.901 93.2246 348.701 98.5246 345.001C99.7246 344.101 100.825 346.101 99.7246 346.901Z" fill="#161616"/>
<path d="M95.2243 355.7C89.0243 358.7 81.8242 358.3 76.1242 354.3C74.9242 353.5 76.0243 351.5 77.2243 352.4C82.2243 355.9 88.5243 356.5 94.0243 353.8C95.3243 353.1 96.5243 355 95.2243 355.7Z" fill="#161616"/>
<path opacity="0.18" d="M82.524 150.199C84.524 156.999 61.124 163.499 40.624 185.499C33.524 193.099 19.024 208.599 15.624 231.599C11.324 260.099 26.224 282.899 31.724 291.099C42.324 307.199 55.224 316.699 63.024 321.599C63.024 324.399 63.424 334.599 71.224 343.199C72.824 344.999 79.124 351.899 88.324 352.899C93.624 353.499 98.424 351.999 98.624 352.599C98.724 353.199 95.024 353.999 90.224 357.299C87.124 359.399 87.024 360.299 85.524 360.999C79.324 363.899 69.524 355.099 68.424 354.199C58.224 344.899 57.024 331.099 56.824 325.999C54.524 324.699 51.424 322.899 47.824 320.499C44.124 317.999 33.224 310.799 24.624 301.299C22.324 298.799 10.624 285.499 4.92404 264.199C2.92404 256.699 -2.57597 234.999 6.22403 211.299C10.124 200.999 15.124 194.299 24.124 182.599C32.124 172.099 38.024 166.899 49.424 156.799C57.624 149.499 62.524 146.099 69.124 145.699C73.624 145.399 81.424 146.499 82.524 150.199V150.199Z" fill="#6D6C6C"/>
<path opacity="0.18" d="M14.0242 196C10.6242 204.4 5.72426 219.7 6.42426 239.2C7.12426 260.4 14.0242 275.8 16.7242 281.1C29.1242 306.1 48.7242 319.5 58.3242 325.1C50.5242 322.2 39.2242 316.7 28.5242 306.4C-2.77577 276.2 1.82424 233.6 2.22424 230.6C4.02424 215.6 9.42423 203.9 14.0242 196V196Z" fill="#6D6C6C"/>
<path d="M128.624 69.4008C122.624 89.5008 120.424 101.201 111.924 119.601C107.924 128.201 104.124 135.001 101.424 139.501C110.124 143.601 124.224 148.901 142.324 149.601C153.024 150.001 162.224 148.601 169.324 147.001C168.624 141.501 168.224 134.601 168.724 126.801C169.424 117.001 171.524 108.701 173.524 102.601C183.124 101.401 192.824 100.101 202.424 98.9008C204.324 94.7008 206.224 90.4008 208.124 86.2008C210.724 86.1008 213.424 86.0008 216.024 85.9008C214.024 80.1008 211.024 71.0008 207.524 59.7008C201.024 38.4008 201.124 35.4008 197.624 30.6008C187.924 17.5008 166.224 9.10082 151.924 16.2008C143.424 20.3008 138.424 36.7008 128.624 69.4008V69.4008Z" fill="white" stroke="#161616" stroke-width="2" stroke-miterlimit="10"/>
<path d="M215.824 87.4999C210.824 87.5999 205.924 87.1999 201.024 86.4999C199.124 86.1999 199.924 83.2999 201.824 83.5999C206.524 84.2999 211.124 84.5999 215.824 84.4999C217.724 84.4999 217.724 87.4999 215.824 87.4999Z" fill="#161616"/>
<path d="M217.725 49.2997C214.925 47.7997 211.225 48.5997 209.425 51.1997C208.325 52.7997 205.725 51.2997 206.825 49.6997C209.625 45.6997 214.925 44.3997 219.225 46.6997C220.925 47.5997 219.425 50.1997 217.725 49.2997Z" fill="#161616"/>
<path d="M194.125 52.8009C190.525 51.7009 186.625 52.901 184.525 56.101C183.425 57.701 180.825 56.201 181.925 54.601C184.825 50.401 190.025 48.401 194.925 50.001C196.725 50.501 196.025 53.4009 194.125 52.8009Z" fill="#161616"/>
<path d="M193.425 64.0001C193.525 62.9001 193.324 61.8001 192.724 60.8001C192.624 60.6001 192.424 60.3001 192.224 60.1001C192.624 59.6001 192.824 59.5001 192.724 60.0001C192.924 60.2001 192.825 61.2001 192.925 61.5001C193.025 62.0001 193.225 62.5001 193.425 63.0001C193.525 63.2001 193.624 63.4001 193.724 63.5001C193.224 64.4001 192.924 64.5001 192.724 63.8001C192.324 63.4001 192.124 62.5001 191.824 62.0001C191.524 61.4001 191.225 60.8001 190.925 60.2001C190.125 58.7001 192.024 57.2001 193.324 58.4001C194.024 59.1001 194.424 59.8001 194.724 60.7001C195.224 62.6001 192.324 63.4001 191.824 61.5001C191.724 61.0001 191.524 60.8001 191.224 60.5001C192.024 59.9001 192.824 59.3001 193.624 58.7001C194.324 60.1001 195.124 61.5001 195.724 63.0001C196.224 64.1001 196.124 65.4001 195.024 66.1001C192.324 67.8001 190.624 64.3001 190.124 62.2001C189.724 60.2001 189.724 56.0001 193.024 56.9001C195.624 57.7001 196.624 61.5001 196.524 63.8001C196.324 65.9001 193.325 65.9001 193.425 64.0001V64.0001Z" fill="#161616"/>
<path d="M201.124 35.8001C200.424 31.5001 198.724 24.3001 194.024 16.9001C192.324 14.3001 188.824 8.80008 183.124 5.10008C172.224 -1.99992 155.524 -1.39994 143.424 7.30006C131.524 15.8001 125.624 31.0001 128.224 46.2001C152.424 42.8001 176.824 39.3001 201.124 35.8001V35.8001Z" fill="#5222D0"/>
<path d="M240.925 36.0993C203.425 40.7993 166.025 45.4993 128.525 50.1993C122.825 50.8993 122.825 41.8993 128.525 41.1993C166.025 36.4993 203.425 31.7993 240.925 27.0993C246.725 26.3993 246.625 35.3993 240.925 36.0993Z" fill="#161616"/>
<path d="M152.424 45.199C159.024 47.599 162.924 52.199 167.324 57.499C176.724 68.899 173.924 73.099 180.524 80.199C191.024 91.499 201.724 84.799 211.124 95.899C219.124 105.299 218.024 117.999 217.724 120.899C217.424 123.699 216.024 134.999 206.724 142.799C198.624 149.499 187.824 150.999 187.124 149.499C186.924 148.999 187.724 147.599 193.724 143.599C192.024 144.799 189.224 146.299 185.724 146.999C181.624 147.699 177.724 146.999 177.724 146.399C177.724 145.899 179.924 145.999 181.624 144.199C182.624 143.099 183.024 141.899 183.324 140.799C180.024 142.899 175.924 144.799 172.024 143.599C161.324 140.399 159.424 116.699 158.824 108.799C156.824 83.399 164.124 69.499 155.224 60.499C154.524 59.699 150.924 56.099 146.924 56.899C141.924 57.799 138.124 65.499 139.724 70.599C141.124 74.999 146.124 76.199 145.824 77.099C145.324 78.099 136.924 76.499 129.824 70.899C127.224 68.899 125.124 67.199 124.024 64.199C122.124 58.899 124.324 52.899 127.324 49.299C133.524 42.099 145.224 42.599 152.424 45.199V45.199Z" fill="#161616" stroke="#161616" stroke-width="2" stroke-miterlimit="10"/>
<path opacity="0.22" d="M142.524 77.9996C144.124 78.1996 146.424 78.1996 146.524 77.6996C146.624 77.3996 146.024 76.9996 146.024 76.9996C146.024 76.9996 147.924 79.3996 150.324 79.6996C151.424 79.7996 152.424 79.4996 153.124 79.0996C148.924 87.9996 144.624 98.6996 140.924 111.1C136.924 124.7 134.624 137 133.324 147.6C129.024 147.6 122.924 147.1 115.924 144.9C110.224 143.1 105.724 140.7 102.324 138.6C111.324 124.5 115.924 113.2 118.524 105.5C119.724 101.9 122.324 93.3996 123.524 89.1996C125.824 81.5996 127.724 75.2996 128.924 71.0996C129.524 71.6996 130.624 72.5996 131.924 73.4996C133.824 74.8996 137.524 77.4996 142.524 77.9996V77.9996Z" fill="#6D6C6C"/>
<path d="M169.425 0.699183C159.725 2.59918 152.425 10.3992 151.225 19.4992C149.925 30.3992 157.925 37.8992 158.725 38.4992C148.325 39.7992 138.025 40.9992 127.625 42.2992C127.425 39.8992 127.325 36.5992 128.025 32.7992C130.025 20.5992 137.225 12.9992 138.725 11.4992C141.125 9.09917 149.625 0.999159 162.325 0.299159C165.225 0.199159 167.725 0.499183 169.425 0.699183Z" fill="#321693"/>
</svg>
