<svg width="575" height="1032" viewBox="0 0 575 1032" fill="none" xmlns="http://www.w3.org/2000/svg">
<path d="M287.054 948.114C287.054 959.435 287.054 970.657 287.054 981.979C207.143 1013.74 190.861 1025.06 192.06 1029.17C192.36 1030.17 194.457 1033.18 236.41 1028.27C277.964 1023.36 311.626 1016.24 335 1010.43C330.905 987.289 326.709 964.145 322.614 941C310.727 943.405 298.84 945.809 287.054 948.114Z" fill="#161616"/>
<path d="M323.428 470.263C321.138 474.562 320.341 478.061 320.142 478.861C305.898 539.646 287.272 575.537 275.12 646.019C251.912 781.786 271.933 936.047 273.825 950.544C280.2 953.343 292.451 957.542 308.089 956.942C321.835 956.342 332.493 952.243 338.569 949.344C336.278 905.055 338.568 850.369 353.808 790.084C372.434 716.202 396.041 691.708 417.257 605.33C432.994 541.345 451.222 466.864 419.747 444.769C395.642 427.574 339.166 440.171 323.428 470.263Z" fill="#EC615B"/>
<path opacity="0.2" d="M378.738 501.607C362.775 574.67 347.909 652.537 335.337 734.908C323.465 812.375 314.585 886.539 308 957C318.077 954.898 328.054 952.796 338.131 950.695C336.834 919.568 338.231 893.045 340.226 872.727C342.621 847.505 348.707 788.755 373.151 730.104C376.344 722.598 380.434 713.49 387.119 696.375C398.393 668.05 406.574 643.83 410.266 632.42C427.626 577.973 436.306 514.818 439 494C418.846 496.402 398.792 499.004 378.738 501.607Z" fill="#6D6C6C"/>
<path opacity="0.19" d="M411 629C371.842 680.006 353.561 726.221 344.371 757.264C335.98 785.512 332.284 810.466 327.489 842.806C320.696 888.722 318.099 927.451 317 955C323.593 953.403 330.086 951.706 336.679 950.109C335.58 911.48 338.277 878.441 341.574 852.688C345.57 822.145 350.165 786.71 366.148 744.088C371.942 728.617 374.739 724.225 387.925 690.786C398.114 664.634 405.905 643.174 411 629Z" fill="#6D6C6C"/>
<path d="M502.994 936.843C508.594 950.652 514.295 964.461 519.895 978.369C472.891 1008.07 450.69 1025.36 453.19 1030.43C456.29 1036.68 496.893 1024.27 575 993.37C566.699 966.547 558.399 939.823 550.098 913C534.397 920.948 518.695 928.895 502.994 936.843Z" fill="#161616"/>
<path d="M464.697 470.745C489.173 493.152 488.374 524.562 491.471 576.579C491.471 576.579 499.063 704.519 524.538 807.351C530.932 833.059 542.521 872.972 564 920.787C560.404 925.388 550.613 936.592 533.43 942.494C515.847 948.496 500.862 945.295 495.267 943.794C464.697 891.578 443.018 847.064 429.032 816.254C364.195 674.009 359 599.086 359 559.973C359 519.761 359.699 471.546 389.57 455.441C412.048 443.337 445.016 452.74 464.697 470.745Z" fill="#EC615B"/>
<path opacity="0.15" d="M395 486.409C406.054 529.127 418.004 572.546 430.75 616.564C464.011 730.812 500.159 838.757 538.1 940C541.785 938.099 546.266 935.498 550.847 931.997C555.527 928.395 559.212 924.794 562 921.592C556.822 909.487 549.652 891.98 542.083 870.471C530.632 837.557 512.01 777.032 502.35 696.398C493.089 618.965 488.409 580.249 488.807 555.839C489.106 535.73 490.898 494.813 465.007 472.804C459.629 468.302 454.351 465.601 450.667 464C432.045 471.503 413.522 479.006 395 486.409Z" fill="#6D6C6C"/>
<path opacity="0.22" d="M490.456 582C485.853 628.461 484.352 690.708 495.559 762.647C506.866 834.986 527.378 894.036 545.89 937C551.593 932.304 557.297 927.608 563 922.812C556.196 906.726 547.29 884.345 538.385 856.968C521.275 804.312 513.87 763.247 507.466 726.378C500.962 688.61 494.158 639.751 490.456 582Z" fill="#6D6C6C"/>
<path d="M23.5108 106C19.4788 107.965 13.9347 111.404 9.60024 117.3C7.28181 120.346 4.45938 124.375 4.05618 130.074C3.95538 132.334 3.65302 137.247 6.87866 140.49C7.78587 141.473 10.2051 143.339 22.0996 142.946C32.6837 142.553 38.0262 142.357 40.7478 139.606C45.9894 134.299 44.0742 124.277 40.7478 118.283C35.5061 108.751 25.2244 106.393 23.5108 106Z" fill="white" stroke="#161616" stroke-width="2" stroke-miterlimit="10"/>
<path d="M83.4534 130.704C97.5153 146.803 120.054 156.403 161.442 173.503C213.6 195.102 239.729 205.902 270.645 209.702C304.055 213.802 321.906 209.502 328.09 220.402C336.168 234.501 317.219 260.901 297.672 283C283.112 279.8 268.053 275.8 252.495 270.6C167.226 242.301 105.593 192.502 65.1033 151.103C60.0171 152.203 51.3406 153.303 41.4674 150.303C32.9904 147.803 21.0229 141.403 21.721 136.304C22.6186 130.104 44.2598 129.004 45.5563 128.904C38.9741 126.204 29.4999 121.604 19.2278 114.104C16.2359 111.904 -0.917606 99.2045 1.17671 95.2046C2.97184 91.7047 18.5297 96.5046 33.1899 101.004C46.5536 105.104 55.8284 108.004 66.0008 115.004C75.7743 121.604 81.4588 128.404 83.4534 130.704Z" fill="white" stroke="#161616" stroke-width="2" stroke-miterlimit="10"/>
<path d="M14.4452 106.799C16.8394 109.499 17.3382 113.099 19.4332 115.899C21.2289 118.399 23.8227 120.199 26.5162 121.699C34.5969 126.199 43.1763 129.899 51.4564 133.999C52.853 134.699 54.6487 132.799 53.2521 131.599C48.9624 127.899 44.3734 124.599 39.5849 121.599C37.9887 120.599 36.3925 123.199 38.0884 124.199C42.6774 127.099 47.0669 130.199 51.1571 133.699C51.7557 132.899 52.3542 132.099 52.9528 131.299C45.0717 127.499 37.1906 123.799 29.4093 119.699C25.7181 117.799 22.4261 115.599 20.5306 111.799C19.2337 109.199 18.5354 106.699 16.5402 104.499C15.2433 103.299 13.1483 105.399 14.4452 106.799Z" fill="white"/>
<path d="M22.2266 117.3C26.8156 119.3 31.2051 121.9 35.1955 125C36.6919 126.2 38.7868 124.1 37.2904 122.9C33.1005 119.6 28.6113 116.9 23.723 114.7C21.9273 113.9 20.4309 116.5 22.2266 117.3Z" fill="white"/>
<path d="M10.4548 105C14.2457 111.1 19.2338 116.1 25.1197 120.1C26.7158 121.2 28.2122 118.6 26.6161 117.5C21.1292 113.8 16.5403 109.1 13.0487 103.4C12.051 101.9 9.45724 103.4 10.4548 105Z" fill="white"/>
<path d="M14.9432 113.199C16.9384 115.899 19.1331 118.399 21.6271 120.599C23.4228 122.199 31.304 127.899 27.2138 130.799C26.4157 131.299 27.2138 132.599 28.0118 132.099C30.8051 130.199 29.7078 126.799 28.0118 124.499C26.715 122.799 24.9193 121.499 23.2233 119.999C20.6296 117.699 18.3351 115.199 16.2401 112.499C15.6415 111.599 14.3446 112.399 14.9432 113.199Z" fill="#161616"/>
<path d="M12.8494 123.6C15.8422 127.7 21.5286 133.5 27.1152 131.8C28.013 131.5 27.614 130.1 26.7162 130.4C21.9277 131.9 16.6403 126.4 14.1463 122.9C13.5477 122.1 12.2509 122.8 12.8494 123.6Z" fill="#161616"/>
<path d="M8.4588 130.6C11.7509 135.1 16.5394 137.7 22.126 138C23.1236 138.1 23.1236 136.6 22.126 136.5C17.138 136.2 12.7485 133.8 9.75573 129.8C9.15717 129 7.86023 129.8 8.4588 130.6Z" fill="#161616"/>
<path d="M5.26662 139.6C9.95537 144.5 17.7366 144.6 22.4254 139.6C23.1237 138.9 22.0264 137.8 21.328 138.5C17.2379 142.9 10.4541 142.8 6.36396 138.5C5.66564 137.8 4.5683 138.9 5.26662 139.6Z" fill="#161616"/>
<path d="M6.2645 104.8C17.3379 112.1 25.3188 124.4 39.1855 126.8C40.0833 127 40.5821 125.5 39.5845 125.4C25.9173 123.1 17.9365 110.8 7.06257 103.6C6.16473 102.9 5.46641 104.2 6.2645 104.8Z" fill="#161616"/>
<path opacity="0.2" d="M5.48737 137.285C1.89738 132.388 4.88902 121.894 13.5648 112C23.3376 117.697 33.0106 123.493 42.7834 129.19C40.9884 129.19 25.2324 129.39 24.1354 134.287C23.936 135.086 24.1354 136.285 25.6312 137.984C30.6173 140.383 38.994 143.581 49.7639 143.881C55.3484 143.981 60.2348 143.281 64.0242 142.382C84.3675 162.969 120.168 194.051 172.821 216.637C219.092 236.425 260.576 242.122 288 243.721C287.102 255.514 286.205 267.207 285.308 279C240.133 267.007 178.904 244.221 118.074 198.448C97.3314 182.858 79.5808 166.767 64.4231 151.276C50.462 153.575 41.7862 151.177 36.3015 148.378C31.6145 145.98 28.6229 142.981 22.4401 142.482C18.3515 142.182 14.8612 143.181 10.3737 140.983C9.87511 140.783 6.9832 139.284 5.48737 137.285Z" fill="#6D6C6C"/>
<path opacity="0.14" d="M134 208C147.963 215.49 164.121 223.079 182.573 229.57C222.768 243.85 259.173 248.344 287 249.343C286.601 259.528 286.302 269.814 285.903 280C256.979 273.209 220.673 261.326 182.174 239.756C163.722 229.47 147.764 218.585 134 208Z" fill="#6D6C6C"/>
<path d="M291.565 236.196C285.873 249.119 285.573 259.839 285.074 279.073C284.675 293.6 285.673 309.228 293.462 350.302C302.948 399.992 307.441 408.006 308.939 434.354C310.137 454.991 308.539 471.922 307.042 483.142C319.623 490.054 340.692 499.471 368.251 501.575C416.979 505.282 453.025 483.743 465.407 475.528C466.904 444.071 468.402 412.514 470 381.058C464.508 354.209 458.018 333.171 453.325 319.346C438.547 275.767 424.767 255.13 433.554 233.291C438.447 221.169 448.132 213.755 454.822 209.648C450.129 206.041 400.902 169.475 347.182 188.41C341.59 190.313 306.243 202.836 291.565 236.196Z" fill="white" stroke="#161616" stroke-width="2" stroke-miterlimit="10"/>
<path opacity="0.19" d="M347 189.18C361.876 213.152 370.207 234.327 374.967 249.11C374.967 249.11 398.273 320.428 381.215 416.118C377.545 436.494 371 465.461 358.108 498.623C363.066 499.721 369.017 500.62 375.76 500.92C375.76 500.92 386.174 501.42 397.876 499.921C412.157 498.023 436.653 490.332 465.512 475.549C466.008 442.088 466.504 408.726 467 375.265C459.661 346.998 452.223 324.324 446.669 308.442C433.281 270.586 423.86 252.806 431.595 234.028C436.653 221.742 446.967 214.151 455 209.756C444.488 202.764 425.05 191.876 398.471 187.681C376.554 184.285 358.504 186.682 347 189.18Z" fill="#6D6C6C"/>
<path opacity="0.11" d="M360 186C376.07 205.806 394.835 234.716 406.413 272.828C439.252 381.663 385.253 477.093 372.776 498C383.256 497.9 395.534 497 408.909 494.399C432.764 489.797 451.828 481.595 465.503 474.292C466.002 443.082 466.501 411.872 467 380.762C458.516 351.853 450.531 324.444 439.651 287.232C432.265 261.724 426.476 240.818 437.355 224.112C442.646 216.01 450.032 211.508 455.621 208.907C423.781 201.205 391.84 193.602 360 186Z" fill="#6D6C6C"/>
<path d="M352.798 391C352.498 369.57 352.299 348.241 352 326.811C403.139 324.207 454.278 321.604 505.517 319C507.312 338.828 509.106 358.655 511 378.483C458.266 382.688 405.532 386.794 352.798 391Z" fill="white" stroke="#161616" stroke-width="2" stroke-miterlimit="10"/>
<path d="M337 384C337 376.241 337 368.482 337 360.723C402.801 355.848 468.602 350.874 534.402 346C534.902 355.55 535.401 365.199 536 374.749C469.7 377.733 403.3 380.916 337 384Z" fill="white" stroke="#161616" stroke-width="2" stroke-miterlimit="10"/>
<path d="M343 348.675C343.797 360.15 344.593 371.525 345.29 383C406.029 378.111 466.668 373.121 527.407 368.232C527.905 357.855 528.403 347.477 529 337C466.967 340.892 404.934 344.783 343 348.675Z" fill="white" stroke="#161616" stroke-width="2" stroke-miterlimit="10"/>
<path d="M328 374.287C329.793 419.858 331.587 465.429 333.48 511C401.228 503.405 468.975 495.91 536.723 488.314C538.816 443.543 540.908 398.771 543 354C471.267 360.796 399.633 367.491 328 374.287Z" fill="white" stroke="#161616" stroke-width="2" stroke-miterlimit="10"/>
<path d="M339.565 392.2C370.391 388.1 401.217 385.2 432.243 383.4C433.639 383.3 433.639 381.1 432.243 381.1C401.217 382.9 370.291 385.8 339.565 389.9C338.168 390.1 338.168 392.4 339.565 392.2Z" fill="#161616"/>
<path d="M373.982 398.3C397.625 395.3 421.269 392.2 445.012 389.2C446.408 389 446.408 386.8 445.012 386.9C421.368 389.9 397.725 393 373.982 396C372.585 396.3 372.585 398.5 373.982 398.3Z" fill="#161616"/>
<path d="M487.608 462.3C487.209 468.6 487.209 475 487.808 481.3C487.907 482.7 490.202 482.7 490.102 481.3C489.504 475 489.404 468.6 489.903 462.3C490.002 460.9 487.708 460.9 487.608 462.3Z" fill="#161616"/>
<path d="M488.607 462.5C500.978 462.8 513.248 462.1 525.519 460.5C525.12 460.1 524.721 459.7 524.421 459.4C524.222 465.2 524.421 470.9 524.82 476.6C524.92 478 527.215 478 527.115 476.6C526.616 470.9 526.516 465.1 526.716 459.4C526.716 458.8 526.217 458.2 525.618 458.3C513.348 459.9 501.077 460.5 488.707 460.3C487.111 460.2 487.111 462.4 488.607 462.5Z" fill="#161616"/>
<path d="M489.505 483.1C501.775 483.3 513.846 482 525.817 479.3C527.214 479 526.615 476.8 525.219 477.1C513.447 479.7 501.576 481 489.505 480.8C488.108 480.8 488.108 483 489.505 483.1Z" fill="#161616"/>
<path d="M494.194 469.5C501.776 470 509.258 469.6 516.84 468.4C518.236 468.2 517.638 466 516.241 466.2C508.959 467.4 501.576 467.7 494.194 467.2C492.797 467.1 492.797 469.4 494.194 469.5Z" fill="#161616"/>
<path d="M498.982 475.8C506.863 475.6 514.445 474.1 521.927 471.4C523.224 470.9 522.725 468.7 521.328 469.2C514.145 471.9 506.663 473.3 498.982 473.6C497.585 473.5 497.485 475.8 498.982 475.8Z" fill="#161616"/>
<path opacity="0.2" d="M360 506C361.794 463.71 363.588 421.42 365.282 379.03C423.488 374.32 481.794 369.71 540 365C538.704 405.085 537.309 445.171 536.013 485.256C477.309 492.171 418.704 499.085 360 506Z" fill="#6D6C6C"/>
<path opacity="0.2" d="M518.93 338C519.233 349.593 518.628 363.384 515.604 378.675C508.145 416.252 490.202 443.335 478.005 458.626C486.271 469.519 494.536 480.412 502.903 491.305C477.602 494.204 452.301 497.102 427 500C431.032 454.228 435.064 408.457 439.096 362.785C437.786 356.788 436.374 350.792 435.064 344.796C462.986 342.397 491.008 340.199 518.93 338Z" fill="#6D6C6C"/>
<path d="M449.239 207.117C470.158 204.315 495.08 252.351 504.989 286.876C516.399 326.605 511.394 360.931 507.291 379.044C499.283 414.57 482.669 439.589 472.26 453.099C473.861 458.403 477.564 472.813 471.459 488.625C462.451 511.742 438.029 522.85 436.128 520.749C435.527 520.048 436.728 517.146 446.237 506.238C444.235 508.339 429.822 522.65 413.608 519.248C410.805 518.647 407.302 517.947 405.301 515.145C400.596 508.339 408.403 492.928 425.018 475.815C406.902 480.319 402.098 479.118 401.197 477.116C398.895 472.313 417.411 458.703 424.117 453.699C434.026 446.394 442.934 441.39 449.039 438.288C466.154 402.762 465.253 375.041 463.752 362.032C461.55 342.817 454.344 321.902 452.943 317.899C448.939 306.39 447.037 303.789 439.03 283.073C426.119 249.849 426.119 244.145 426.619 239.741C428.421 226.532 437.329 208.718 449.239 207.117Z" fill="white" stroke="#161616" stroke-width="2" stroke-miterlimit="10"/>
<path d="M405.606 512.4C416.679 506.1 426.356 498 434.437 488.2C435.634 486.7 433.539 484.6 432.342 486.1C424.461 495.7 414.983 503.7 404.109 509.9C402.413 510.7 403.91 513.3 405.606 512.4Z" fill="#161616"/>
<path d="M415.382 519.099C426.356 513.399 435.733 505.499 443.315 495.699C444.512 494.199 441.918 492.699 440.721 494.199C433.539 503.599 424.361 511.099 413.886 516.499C412.19 517.399 413.686 519.999 415.382 519.099Z" fill="#161616"/>
<path opacity="0.17" d="M440.903 211.976C421.006 229.307 502.193 305.343 488.295 391.697C478.797 450.903 439.403 489.572 439.403 489.572C428.405 500.591 407.708 514.116 410.207 518.824C412.007 522.23 424.505 519.125 429.005 517.722C437.503 515.117 443.402 510.71 446.702 507.804C441.703 513.414 436.004 520.327 437.203 521.729C438.903 523.532 453.101 516.119 462 505.701C477.397 487.668 475.198 462.624 473.698 452.405C477.297 447.697 481.996 441.085 486.796 432.67C491.195 425.157 503.893 401.715 509.392 369.858C519.091 313.457 499.194 268.978 491.195 251.547C483.996 236.019 471.798 210.273 453.301 209.171C450.901 208.871 444.802 208.57 440.903 211.976Z" fill="#6D6C6C"/>
<path opacity="0.22" d="M508 368C502.581 383.71 496.159 400.221 488.532 417.533C483.113 429.841 477.594 441.349 471.974 452.256C469.165 461.262 463.846 474.771 453.309 488.68C442.271 503.29 430.128 512.196 422 517.299C424.308 517.399 427.118 517.199 430.229 516.398C438.056 514.597 443.274 510.294 445.883 507.693C442.873 511.495 439.762 515.197 436.751 519C439.16 518.6 442.973 517.899 447.188 515.998C469.265 506.091 473.881 479.174 474.182 477.372C474.985 472.469 475.487 464.064 472.476 453.657C479.701 445.151 488.833 432.443 496.159 415.331C504.287 396.519 506.997 379.608 508 368Z" fill="#6D6C6C"/>
<path d="M268.516 141.162C252.615 159.598 263.577 185.348 265.059 188.855C270.59 201.881 284.91 220.417 303.082 218.914C316.316 217.712 324.711 206.39 326.785 203.384C341.402 182.042 336.562 141.262 311.872 130.742C298.243 124.93 279.478 128.337 268.516 141.162Z" fill="#5222D0"/>
<path d="M309.045 157.843C309.738 165.749 317.953 167.451 323.495 180.461C327.454 189.868 327.454 199.075 326.761 205.68C333.195 206.281 345.072 206.581 358.533 201.377C369.123 197.274 376.546 191.369 381 187.266C378.922 182.562 375.853 175.657 372.191 167.451C356.355 132.524 353.782 129.521 349.922 128.02C334.482 122.116 307.758 143.132 309.045 157.843Z" fill="white" stroke="#161616" stroke-width="2" stroke-miterlimit="10"/>
<path d="M251.777 55.0958C248.403 59.8921 246.319 65.7875 246.021 91.068C245.823 112.651 247.014 132.336 248.999 149.823C253.465 147.225 257.93 144.627 262.396 142.029C264.381 146.925 267.755 153.62 273.511 160.115C284.924 173.005 298.818 177.401 304.971 179C311.421 177.401 327.499 172.405 339.705 157.117C347.744 146.925 350.324 136.833 350.92 134.534C354.591 119.446 351.019 106.956 349.133 101.76C351.515 100.661 355.187 98.5622 357.966 94.7651C363.821 86.7713 365.409 72.4823 358.164 67.6861C352.805 64.0888 343.278 66.1872 336.133 73.5815C334.545 69.8843 332.064 64.7883 328.094 59.4924C327.102 58.1934 319.659 48.401 310.528 43.3049C292.963 33.1128 263.885 37.9091 251.777 55.0958Z" fill="white" stroke="#161616" stroke-width="2" stroke-miterlimit="10"/>
<path d="M243.95 85.9019C239.953 85.2022 232.557 83.103 229.059 77.0055C223.062 66.7098 231.857 51.0163 234.056 47.118C235.855 43.8193 240.652 35.9226 261.041 21.6285C276.532 10.733 284.328 5.33528 292.723 2.73636C322.507 -6.15995 349.792 9.23366 354.889 12.1325C365.583 18.2299 372.38 24.8272 377.777 30.025C386.072 38.0217 395.367 47.2179 405.761 57.8135C432.447 92.3992 441.841 123.986 445.639 142.878C449.937 164.269 454.335 186.06 441.542 198.855C428.749 211.65 405.362 209.051 391.069 202.953C371.18 194.457 362.685 176.464 356.089 162.57C344.895 138.78 344.195 115.989 345.295 101.196C355.289 98.2967 360.386 88.9006 358.088 81.8036C356.289 76.2059 349.592 70.6082 342.696 72.6074C337.399 74.1068 333.601 79.6045 333.901 86.0018C329.104 85.9019 316.311 84.8023 304.117 75.6061C295.222 68.9089 290.725 60.9122 288.626 56.514C283.129 57.2138 272.135 59.2129 261.041 67.2096C251.746 73.607 246.549 81.3038 243.95 85.9019Z" fill="#5222D0"/>
<path opacity="0.24" d="M309.865 105.401C321.956 119.871 325.784 135.139 325.784 135.139C329.714 152.304 324.071 166.873 321.553 172.761C327.9 167.971 334.349 163.181 340.697 158.391C345.13 172.96 349.463 187.43 353.896 202C357.221 201.701 364.073 200.503 370.924 195.713C376.164 192.021 379.287 187.73 381 185.035C372.839 177.551 357.221 160.985 350.067 134.94C346.641 122.366 346.138 111.189 346.541 102.807C355.71 99.1144 360.445 90.2329 358.531 82.8482C357.12 77.4595 351.579 70.973 344.425 71.9709C338.48 72.869 333.543 78.657 333.644 85.7422C329.109 85.7422 318.429 85.2432 307.245 78.5572C295.658 71.6715 290.116 62.0915 288 58C288.504 77.1601 294.448 88.237 299.789 94.8233C303.315 99.3139 304.927 99.5135 309.865 105.401Z" fill="#6D6C6C"/>
<path d="M263.746 101C262.649 105 262.748 109.1 264.245 113C264.744 114.4 266.639 114.5 267.138 113C268.335 109.4 268.335 105.6 267.238 102C266.639 100.2 263.746 100.9 264.345 102.8C265.342 106 265.242 109.1 264.245 112.3C265.242 112.3 266.14 112.3 267.138 112.3C265.841 108.9 265.641 105.4 266.639 101.9C267.138 99.9001 264.345 99.1001 263.746 101Z" fill="#161616"/>
<path d="M260.155 94.7998C262.749 93.1998 265.941 93.4998 268.136 95.5998C269.533 96.8998 271.628 94.7998 270.231 93.4998C267.139 90.4998 262.35 89.8998 258.659 92.1998C257.063 93.1998 258.559 95.7998 260.155 94.7998Z" fill="#161616"/>
<path d="M270.93 120.199C272.825 120.199 272.825 117.199 270.93 117.199C268.935 117.199 268.935 120.199 270.93 120.199Z" fill="#161616"/>
<path d="M277.514 111.5C277.514 111.6 277.514 111.7 277.514 111.8C277.514 112.6 278.212 113.3 279.01 113.3C279.808 113.3 280.506 112.6 280.506 111.8C280.506 111.7 280.506 111.6 280.506 111.5C280.506 110.7 279.808 110 279.01 110C278.212 110 277.514 110.6 277.514 111.5Z" fill="#161616"/>
<path d="M277.812 119C279.708 119 279.708 116 277.812 116C275.917 116 275.917 119 277.812 119Z" fill="#161616"/>
<path d="M236.711 105.6C235.514 109.6 235.613 113.7 237.01 117.6C237.509 119 239.404 119 239.903 117.6C241.1 114 241.2 110.2 240.202 106.6C239.703 104.7 236.81 105.5 237.309 107.4C238.207 110.6 238.107 113.7 237.01 116.8C238.007 116.8 238.905 116.8 239.903 116.8C238.706 113.4 238.506 109.9 239.604 106.4C240.103 104.5 237.209 103.7 236.711 105.6Z" fill="#161616"/>
<path d="M235.016 98.1C237.111 97 240.004 97.5 241.401 99.5C242.498 101 245.092 99.5 243.994 98C241.5 94.7 237.211 93.6 233.519 95.5C231.824 96.4 233.32 99 235.016 98.1Z" fill="#161616"/>
<path d="M268.634 152.499C276.315 151.099 282.999 146.999 287.987 140.899C288.885 139.799 287.289 138.199 286.391 139.299C281.702 145.099 275.417 148.899 268.035 150.299C266.639 150.599 267.237 152.799 268.634 152.499Z" fill="#161616"/>
<path d="M284.197 139.5C285.993 140.1 287.489 141 288.786 142.3C289.784 143.3 291.38 141.7 290.382 140.7C288.786 139.1 286.891 138 284.796 137.3C283.399 136.9 282.801 139.1 284.197 139.5Z" fill="#161616"/>
<path opacity="0.45" d="M346 9C358.681 26.5604 374.956 51.4044 390.433 83.1328C406.808 116.657 418.79 141.9 409.504 151.878C397.223 165.148 354.787 144.095 347.997 140.603C349.395 149.683 352.89 164.15 363.174 178.618C368.366 185.901 377.452 198.772 394.227 204.759C404.312 208.351 413.298 208.151 416.793 207.852C421.486 207.552 426.878 207.153 432.769 203.96C432.769 203.96 440.457 199.87 445.649 191.489C453.537 178.717 449.344 161.456 443.752 139.805C437.062 113.864 428.076 96.6025 419.289 79.5409C417.092 75.3504 414.496 70.4614 410.303 64.7742C406.109 58.9873 403.014 55.8943 390.033 43.4224C370.763 24.7645 367.767 22.0705 361.976 18.1793C355.586 13.7892 349.894 10.8957 346 9Z" fill="#371B9B"/>
<path opacity="0.43" d="M321.95 179C322.74 181.307 324.519 187.828 321.95 195.05C318.096 205.784 307.425 209.395 305.745 209.897C293.592 213.91 278.276 207.59 268 193.847C269.383 197.458 272.446 203.878 278.77 209.496C281.932 212.305 290.528 219.828 302.682 218.925C304.757 218.725 318.096 217.722 324.222 205.985C328.669 197.659 327.681 187.226 321.95 179Z" fill="#371B9B"/>
</svg>
