<svg width="86" height="88" viewBox="0 0 86 88" fill="none" xmlns="http://www.w3.org/2000/svg">
<path d="M72.38 87.1701H0V14.1401H72.38V87.1701ZM1.14 86.0001H71.21V15.3101H1.14V86.0101V86.0001Z" fill="#116FF7"/>
<path d="M78.93 79.7903H6.55005V6.76025H78.93V79.7903ZM7.71004 78.6203H77.77V7.93026H7.71004V78.6303V78.6203Z" fill="#116FF7"/>
<path d="M85.85 73.04H13.47V0H85.85V73.03V73.04ZM14.61 71.87H84.68V1.17H14.61V71.87Z" fill="#116FF7"/>
<path d="M27.976 61V27.4H57.112V35.944H39.112V39.832H47.128C51.224 39.832 54.36 40.712 56.536 42.472C58.744 44.2 59.848 46.712 59.848 50.008C59.848 53.432 58.6 56.12 56.104 58.072C53.608 60.024 50.136 61 45.688 61H27.976ZM39.112 53.08H44.92C46.04 53.08 46.904 52.84 47.512 52.36C48.152 51.88 48.472 51.192 48.472 50.296C48.472 48.568 47.288 47.704 44.92 47.704H39.112V53.08Z" fill="#116FF7"/>
</svg>
