<svg width="443" height="88" viewBox="0 0 443 88" fill="none" xmlns="http://www.w3.org/2000/svg">
<path d="M72.38 87.1701H0V14.1401H72.38V87.1701ZM1.14 86.0001H71.21V15.3101H1.14V86.0101V86.0001Z" fill="#116FF7"/>
<path d="M78.93 79.7903H6.55005V6.76025H78.93V79.7903ZM7.71004 78.6203H77.77V7.93026H7.71004V78.6303V78.6203Z" fill="#116FF7"/>
<path d="M85.85 73.04H13.47V0H85.85V73.03V73.04ZM14.61 71.87H84.68V1.17H14.61V71.87Z" fill="#116FF7"/>
<path d="M27.976 61V27.4H57.112V35.944H39.112V39.832H47.128C51.224 39.832 54.36 40.712 56.536 42.472C58.744 44.2 59.848 46.712 59.848 50.008C59.848 53.432 58.6 56.12 56.104 58.072C53.608 60.024 50.136 61 45.688 61H27.976ZM39.112 53.08H44.92C46.04 53.08 46.904 52.84 47.512 52.36C48.152 51.88 48.472 51.192 48.472 50.296C48.472 48.568 47.288 47.704 44.92 47.704H39.112V53.08Z" fill="#116FF7"/>
<path d="M101.344 39.88H116.32V48.04H101.344V39.88ZM102.112 52.456H118.912V61H90.976V27.4H118.288V35.944H102.112V52.456ZM121.155 58.792L124.467 50.968C125.875 51.544 127.315 51.992 128.787 52.312C130.291 52.632 131.731 52.84 133.107 52.936C134.483 53 135.699 52.936 136.755 52.744C137.843 52.552 138.707 52.232 139.347 51.784C139.987 51.336 140.307 50.744 140.307 50.008C140.307 49.24 139.987 48.712 139.347 48.424C138.707 48.136 137.923 47.992 136.995 47.992H127.923V39.832H136.035C136.995 39.832 137.715 39.656 138.195 39.304C138.707 38.92 138.963 38.424 138.963 37.816C138.963 37.144 138.675 36.616 138.099 36.232C137.555 35.848 136.803 35.592 135.843 35.464C134.915 35.304 133.859 35.288 132.675 35.416C131.491 35.512 130.259 35.752 128.979 36.136C127.731 36.488 126.515 36.952 125.331 37.528L122.019 29.272C124.387 28.184 126.867 27.448 129.459 27.064C132.083 26.648 134.627 26.568 137.091 26.824C139.587 27.048 141.827 27.576 143.811 28.408C145.827 29.24 147.427 30.344 148.611 31.72C149.795 33.064 150.387 34.664 150.387 36.52C150.387 38.12 149.955 39.56 149.091 40.84C148.227 42.088 147.043 43.064 145.539 43.768C144.067 44.472 142.387 44.824 140.499 44.824L140.739 42.568C142.947 42.568 144.867 42.968 146.499 43.768C148.163 44.536 149.443 45.592 150.339 46.936C151.267 48.28 151.731 49.816 151.731 51.544C151.731 53.144 151.299 54.584 150.435 55.864C149.571 57.112 148.371 58.184 146.835 59.08C145.331 59.944 143.571 60.6 141.555 61.048C139.571 61.496 137.427 61.72 135.123 61.72C132.851 61.752 130.515 61.512 128.115 61C125.747 60.52 123.427 59.784 121.155 58.792ZM155.757 61V27.4H188.253V61H177.117V33.784L179.565 36.184H164.445L166.893 33.784V61H155.757ZM204.563 39.88H219.539V48.04H204.563V39.88ZM205.331 52.456H222.131V61H194.195V27.4H221.507V35.944H205.331V52.456ZM226.726 61V27.4H242.902C246.038 27.4 248.742 27.912 251.014 28.936C253.318 29.96 255.094 31.432 256.342 33.352C257.59 35.24 258.214 37.48 258.214 40.072C258.214 42.664 257.59 44.904 256.342 46.792C255.094 48.68 253.318 50.152 251.014 51.208C248.742 52.232 246.038 52.744 242.902 52.744H233.014L238.054 47.896V61H226.726ZM238.054 49.144L233.014 44.008H242.182C243.75 44.008 244.902 43.656 245.638 42.952C246.406 42.248 246.79 41.288 246.79 40.072C246.79 38.856 246.406 37.896 245.638 37.192C244.902 36.488 243.75 36.136 242.182 36.136H233.014L238.054 31V49.144ZM272.016 39.88H286.992V48.04H272.016V39.88ZM272.784 52.456H289.584V61H261.648V27.4H288.96V35.944H272.784V52.456ZM311.075 61.768C308.387 61.768 305.891 61.352 303.587 60.52C301.315 59.656 299.331 58.44 297.635 56.872C295.971 55.304 294.675 53.448 293.747 51.304C292.819 49.16 292.355 46.792 292.355 44.2C292.355 41.608 292.819 39.24 293.747 37.096C294.675 34.952 295.971 33.096 297.635 31.528C299.331 29.96 301.315 28.76 303.587 27.928C305.891 27.064 308.387 26.632 311.075 26.632C314.371 26.632 317.283 27.208 319.811 28.36C322.371 29.512 324.483 31.176 326.147 33.352L318.995 39.736C318.003 38.488 316.899 37.528 315.683 36.856C314.499 36.152 313.155 35.8 311.651 35.8C310.467 35.8 309.395 35.992 308.435 36.376C307.475 36.76 306.643 37.32 305.939 38.056C305.267 38.792 304.739 39.688 304.355 40.744C303.971 41.768 303.779 42.92 303.779 44.2C303.779 45.48 303.971 46.648 304.355 47.704C304.739 48.728 305.267 49.608 305.939 50.344C306.643 51.08 307.475 51.64 308.435 52.024C309.395 52.408 310.467 52.6 311.651 52.6C313.155 52.6 314.499 52.264 315.683 51.592C316.899 50.888 318.003 49.912 318.995 48.664L326.147 55.048C324.483 57.192 322.371 58.856 319.811 60.04C317.283 61.192 314.371 61.768 311.075 61.768ZM350.948 56.2V36.184H343.22L343.124 38.584C343.06 40.344 342.948 41.992 342.788 43.528C342.628 45.064 342.404 46.472 342.116 47.752C341.86 49.032 341.524 50.168 341.108 51.16C340.692 52.12 340.18 52.92 339.572 53.56L327.62 52.216C328.676 52.216 329.54 51.864 330.212 51.16C330.916 50.424 331.476 49.416 331.892 48.136C332.308 46.824 332.612 45.288 332.804 43.528C333.028 41.736 333.188 39.768 333.284 37.624L333.668 27.4H362.084V56.2H350.948ZM326.66 67.576V52.216H366.5V67.576H356.132V61H337.028V67.576H326.66ZM367.941 61L382.629 27.4H393.765L408.453 61H396.741L385.893 32.776H390.309L379.461 61H367.941ZM376.677 55.144L379.557 46.984H395.013L397.893 55.144H376.677ZM429.815 49.72C428.375 50.232 427.031 50.616 425.783 50.872C424.567 51.128 423.383 51.256 422.231 51.256C417.303 51.256 413.543 50.088 410.951 47.752C408.391 45.416 407.111 42.008 407.111 37.528V27.4H418.247V36.28C418.247 38.328 418.695 39.848 419.591 40.84C420.487 41.8 421.847 42.28 423.671 42.28C424.919 42.28 426.039 42.168 427.031 41.944C428.023 41.688 428.855 41.336 429.527 40.888L429.815 49.72ZM428.327 61V27.4H439.463V61H428.327Z" fill="#116FF7"/>
</svg>
