<svg width="293" height="59" viewBox="0 0 293 59" fill="none" xmlns="http://www.w3.org/2000/svg">
<path d="M61.0759 31.1327V32.9H47.5332V13.46H60.6489V15.2272H49.5463V22.1413H59.4593V23.9086H49.5463V31.1327H61.0759Z" fill="#161616"/>
<path d="M79.2989 23.3493C80.5571 23.6594 81.5407 24.2407 82.2575 25.0856C82.9895 25.915 83.3556 26.9071 83.3556 28.0621C83.3556 29.2015 83.0048 30.1936 82.3185 31.0385C81.6246 31.8912 80.7019 32.5423 79.5429 32.9918C78.3991 33.4492 77.1485 33.6739 75.7912 33.6739C74.5254 33.6739 73.2748 33.4724 72.0395 33.0538C70.8194 32.643 69.7061 32.0229 68.7148 31.1936L69.4774 29.7053C70.3085 30.4339 71.2541 30.992 72.314 31.3796C73.3892 31.7516 74.4796 31.9377 75.5777 31.9377C76.6147 31.9377 77.5679 31.7749 78.4448 31.4416C79.3141 31.116 80.008 30.6355 80.5189 30.0154C81.0451 29.3953 81.312 28.6511 81.312 27.783C81.312 26.6668 80.8697 25.8142 80.0004 25.2096C79.1235 24.5895 77.8958 24.2795 76.3097 24.2795H72.2225V22.6052H76.2182C77.5603 22.6052 78.605 22.3184 79.3599 21.7371C80.13 21.1402 80.5189 20.3263 80.5189 19.2877C80.5189 18.156 80.0309 17.2569 79.0549 16.5902C78.0941 15.9314 76.8892 15.5981 75.4252 15.5981C74.5101 15.5981 73.5798 15.7376 72.6495 16.0012C71.7345 16.2724 70.8499 16.6755 69.9959 17.2103L69.3249 15.5051C71.216 14.3734 73.2672 13.7998 75.4862 13.7998C76.7672 13.7998 77.9416 14.0168 79.0244 14.4509C80.0995 14.8695 80.9536 15.4741 81.5865 16.2802C82.2118 17.0708 82.532 18.001 82.532 19.0706C82.532 20.1093 82.2423 21.0084 81.678 21.7681C81.1061 22.5122 80.313 23.0393 79.2989 23.3493Z" fill="#161616"/>
<path d="M109.912 13.46V32.9H107.93V15.2272H95.8205V32.9H93.8379V13.46H109.912Z" fill="#161616"/>
<path d="M135.381 31.1327V32.9H121.838V13.46H134.954V15.2272H123.851V22.1413H133.764V23.9086H123.851V31.1327H135.381Z" fill="#161616"/>
<path d="M152.469 13.46C154.909 13.46 156.815 14.0491 158.203 15.2272C159.583 16.4054 160.277 18.0409 160.277 20.126C160.277 22.1956 159.583 23.8156 158.203 24.9938C156.815 26.172 154.909 26.761 152.469 26.761H147.314V32.9H145.301V13.46H152.469ZM152.408 24.9628C154.299 24.9628 155.74 24.5442 156.739 23.6916C157.753 22.8467 158.264 21.6607 158.264 20.126C158.264 18.5603 157.753 17.3511 156.739 16.4984C155.74 15.6536 154.299 15.2272 152.408 15.2272H147.314V24.9628H152.408Z" fill="#161616"/>
<path d="M183.705 31.1327V32.9H170.162V13.46H183.278V15.2272H172.175V22.1413H182.088V23.9086H172.175V31.1327H183.705Z" fill="#161616"/>
<path d="M201.985 33.0536C200.071 33.0536 198.355 32.6351 196.83 31.7824C195.32 30.9375 194.131 29.7593 193.262 28.2479C192.407 26.7441 191.98 25.0466 191.98 23.163C191.98 21.3027 192.407 19.6207 193.262 18.1092C194.131 16.6055 195.336 15.4273 196.861 14.5747C198.386 13.7065 200.094 13.2725 201.985 13.2725C203.403 13.2725 204.715 13.5205 205.92 14.0166C207.14 14.4972 208.162 15.1948 209 16.1249L207.719 17.4271C206.209 15.9001 204.318 15.1328 202.046 15.1328C200.536 15.1328 199.164 15.4893 197.928 16.1869C196.685 16.8923 195.709 17.8534 195 19.0704C194.306 20.2951 193.963 21.6593 193.963 23.163C193.963 24.6978 194.306 26.0698 195 27.2867C195.709 28.5114 196.685 29.4725 197.928 30.1702C199.164 30.8755 200.536 31.2243 202.046 31.2243C204.341 31.2243 206.232 30.4492 207.719 28.899L209 30.2012C208.162 31.1313 207.14 31.8444 205.92 32.3405C204.7 32.8211 203.388 33.0536 201.985 33.0536Z" fill="#161616"/>
<path d="M236.222 31.1328V37.2717H234.331V32.9H217.646L217.616 37.2717H215.725L215.755 31.1328H216.701C217.959 31.0552 218.836 30.0398 219.324 28.0943C219.812 26.1332 220.117 23.3505 220.239 19.754L220.452 13.46H233.355V31.1328H236.222ZM222.038 19.94C221.932 22.9165 221.703 25.3658 221.337 27.2881C220.986 29.1949 220.399 30.4739 219.568 31.1328H231.341V15.2272H222.191L222.038 19.94Z" fill="#161616"/>
<path d="M258.035 27.6912H247.39L245.103 32.9H242.998L251.752 13.46H253.735L262.489 32.9H260.353L258.035 27.6912ZM257.303 26.0479L252.728 15.5993L248.122 26.0479H257.303Z" fill="#161616"/>
<path d="M285.075 13.46V32.9H283.123V24.8387C281.049 25.7534 279.036 26.203 277.083 26.203C274.842 26.203 273.095 25.6604 271.837 24.5597C270.594 23.4435 269.977 21.8855 269.977 19.878V13.46H271.959V19.6609C271.959 21.1492 272.424 22.3196 273.362 23.1645C274.293 23.9939 275.596 24.4047 277.266 24.4047C279.173 24.4047 281.125 23.9396 283.123 23.0095V13.46H285.075Z" fill="#161616"/>
<path d="M13.8398 13.46H27.8095V15.1962H15.8224V21.5522H22.0753C24.3324 21.5522 26.0481 22.0328 27.23 22.9785C28.4043 23.9319 28.9991 25.3038 28.9991 27.1021C28.9991 28.9624 28.3586 30.4041 27.0775 31.4118C25.8117 32.4039 24.0045 32.9 21.6482 32.9H13.8398V13.46ZM21.6177 31.2568C23.3868 31.2568 24.7136 30.9157 25.6134 30.2336C26.5285 29.5515 26.986 28.5283 26.986 27.1641C26.986 25.8464 26.5361 24.8542 25.6439 24.1876C24.767 23.5288 23.4249 23.1955 21.6177 23.1955H15.8224V31.2568H21.6177Z" fill="#0C73FE"/>
<path d="M37.0289 44.5933H0V7.23242H37.0289V44.5933ZM0.587155 43.9965H36.4341V7.82927H0.587155V43.9965Z" fill="#011D4C"/>
<path d="M40.3785 40.818H3.34961V3.45703H40.3785V40.818ZM3.94439 40.2211H39.7837V4.05388H3.94439V40.2211Z" fill="black"/>
<path d="M43.9234 37.3609H6.89453V0H43.9234V37.3609ZM7.48169 36.764H43.3286V0.596844H7.48169V36.764Z" fill="#011D4C"/>
<path d="M125.963 46.4902V47.1406H119.951V46.4902H125.963ZM120.188 46.4902V56H119.485V46.4902H120.188ZM126.481 46.4902V56H125.77V46.4902H126.481ZM128.758 51.4121V51.0781C128.758 50.3809 128.857 49.7422 129.057 49.1621C129.262 48.582 129.549 48.0811 129.918 47.6592C130.287 47.2314 130.727 46.9004 131.236 46.666C131.752 46.4316 132.323 46.3145 132.95 46.3145C133.577 46.3145 134.148 46.4316 134.664 46.666C135.18 46.9004 135.622 47.2314 135.991 47.6592C136.366 48.0811 136.653 48.582 136.853 49.1621C137.052 49.7422 137.151 50.3809 137.151 51.0781V51.4121C137.151 52.1094 137.052 52.748 136.853 53.3281C136.653 53.9082 136.369 54.4121 136 54.8398C135.631 55.2617 135.188 55.5898 134.673 55.8242C134.163 56.0586 133.595 56.1758 132.968 56.1758C132.335 56.1758 131.761 56.0586 131.245 55.8242C130.735 55.5898 130.293 55.2617 129.918 54.8398C129.549 54.4121 129.262 53.9082 129.057 53.3281C128.857 52.748 128.758 52.1094 128.758 51.4121ZM129.461 51.0781V51.4121C129.461 51.9629 129.537 52.4873 129.689 52.9854C129.848 53.4775 130.076 53.917 130.375 54.3037C130.674 54.6846 131.04 54.9863 131.474 55.209C131.907 55.4258 132.405 55.5342 132.968 55.5342C133.519 55.5342 134.011 55.4258 134.444 55.209C134.878 54.9863 135.241 54.6846 135.534 54.3037C135.833 53.917 136.059 53.4775 136.211 52.9854C136.369 52.4873 136.448 51.9629 136.448 51.4121V51.0781C136.448 50.5391 136.369 50.0234 136.211 49.5312C136.059 49.0391 135.833 48.5996 135.534 48.2129C135.235 47.8262 134.869 47.5215 134.436 47.2988C134.002 47.0703 133.507 46.9561 132.95 46.9561C132.394 46.9561 131.898 47.0703 131.465 47.2988C131.037 47.5215 130.671 47.8262 130.366 48.2129C130.067 48.5996 129.842 49.0391 129.689 49.5312C129.537 50.0234 129.461 50.5391 129.461 51.0781ZM144.543 54.998L148.656 46.4902H149.395L144.798 56H144.288L139.709 46.4902H140.438L144.543 54.998ZM140.201 46.4902V56H139.507V46.4902H140.201ZM148.806 56V46.4902H149.509V56H148.806ZM151.785 51.4121V51.0781C151.785 50.3809 151.885 49.7422 152.084 49.1621C152.289 48.582 152.576 48.0811 152.945 47.6592C153.314 47.2314 153.754 46.9004 154.264 46.666C154.779 46.4316 155.351 46.3145 155.978 46.3145C156.604 46.3145 157.176 46.4316 157.691 46.666C158.207 46.9004 158.649 47.2314 159.019 47.6592C159.394 48.0811 159.681 48.582 159.88 49.1621C160.079 49.7422 160.179 50.3809 160.179 51.0781V51.4121C160.179 52.1094 160.079 52.748 159.88 53.3281C159.681 53.9082 159.396 54.4121 159.027 54.8398C158.658 55.2617 158.216 55.5898 157.7 55.8242C157.19 56.0586 156.622 56.1758 155.995 56.1758C155.362 56.1758 154.788 56.0586 154.272 55.8242C153.763 55.5898 153.32 55.2617 152.945 54.8398C152.576 54.4121 152.289 53.9082 152.084 53.3281C151.885 52.748 151.785 52.1094 151.785 51.4121ZM152.488 51.0781V51.4121C152.488 51.9629 152.564 52.4873 152.717 52.9854C152.875 53.4775 153.104 53.917 153.402 54.3037C153.701 54.6846 154.067 54.9863 154.501 55.209C154.935 55.4258 155.433 55.5342 155.995 55.5342C156.546 55.5342 157.038 55.4258 157.472 55.209C157.905 54.9863 158.269 54.6846 158.562 54.3037C158.86 53.917 159.086 53.4775 159.238 52.9854C159.396 52.4873 159.476 51.9629 159.476 51.4121V51.0781C159.476 50.5391 159.396 50.0234 159.238 49.5312C159.086 49.0391 158.86 48.5996 158.562 48.2129C158.263 47.8262 157.896 47.5215 157.463 47.2988C157.029 47.0703 156.534 46.9561 155.978 46.9561C155.421 46.9561 154.926 47.0703 154.492 47.2988C154.064 47.5215 153.698 47.8262 153.394 48.2129C153.095 48.5996 152.869 49.0391 152.717 49.5312C152.564 50.0234 152.488 50.5391 152.488 51.0781ZM174.892 55.3584L174.856 58.8213H174.197V56H173.143V55.3584H174.892ZM162.446 46.4902H163.141V55.3584H167.834V46.4902H168.546V55.3584H173.169V46.4902H173.863V56H162.446V46.4902ZM177.062 50.041H180.306C181.05 50.041 181.677 50.1699 182.187 50.4277C182.696 50.6855 183.083 51.04 183.347 51.4912C183.61 51.9365 183.742 52.4434 183.742 53.0117C183.742 53.4453 183.666 53.8438 183.514 54.207C183.367 54.5645 183.147 54.8779 182.854 55.1475C182.567 55.417 182.21 55.6279 181.782 55.7803C181.354 55.9268 180.862 56 180.306 56H176.702V46.4902H177.396V55.3584H180.306C180.956 55.3584 181.48 55.2471 181.879 55.0244C182.283 54.8018 182.576 54.5117 182.758 54.1543C182.945 53.7969 183.039 53.416 183.039 53.0117C183.039 52.6191 182.945 52.2471 182.758 51.8955C182.576 51.5381 182.283 51.248 181.879 51.0254C181.48 50.7969 180.956 50.6826 180.306 50.6826H177.062V50.041ZM194.544 51.5H191.072L191.055 50.8584H194.087C194.696 50.8584 195.206 50.7881 195.616 50.6475C196.032 50.5068 196.346 50.2959 196.557 50.0146C196.773 49.7334 196.882 49.3877 196.882 48.9775C196.882 48.6553 196.817 48.3799 196.688 48.1514C196.565 47.917 196.378 47.7266 196.126 47.5801C195.88 47.4277 195.572 47.3164 195.203 47.2461C194.84 47.1699 194.418 47.1318 193.938 47.1318H191.283V56H190.589V46.4902H193.938C194.5 46.4902 195.004 46.54 195.449 46.6396C195.9 46.7393 196.284 46.8916 196.601 47.0967C196.917 47.2959 197.157 47.5537 197.321 47.8701C197.491 48.1865 197.576 48.5557 197.576 48.9775C197.576 49.2705 197.523 49.5459 197.418 49.8037C197.312 50.0557 197.157 50.2842 196.952 50.4893C196.747 50.6885 196.495 50.8525 196.196 50.9814C195.903 51.1045 195.563 51.1807 195.177 51.21L194.544 51.5ZM194.544 56H190.905L191.055 55.3584H194.544C195.112 55.3584 195.602 55.2852 196.012 55.1387C196.422 54.9863 196.735 54.7637 196.952 54.4707C197.175 54.1777 197.286 53.8203 197.286 53.3984C197.286 53.0176 197.175 52.6865 196.952 52.4053C196.735 52.1182 196.422 51.8955 196.012 51.7373C195.602 51.5791 195.112 51.5 194.544 51.5H192.145L192.162 50.8584H195.309L195.66 51.0957C196.117 51.1426 196.519 51.2744 196.864 51.4912C197.21 51.708 197.479 51.9834 197.673 52.3174C197.872 52.6455 197.972 53.0059 197.972 53.3984C197.972 53.832 197.89 54.21 197.726 54.5322C197.562 54.8545 197.327 55.127 197.022 55.3496C196.724 55.5664 196.363 55.7305 195.941 55.8418C195.525 55.9473 195.06 56 194.544 56ZM204.115 51.4121V51.0781C204.115 50.3809 204.215 49.7422 204.414 49.1621C204.619 48.582 204.906 48.0811 205.275 47.6592C205.645 47.2314 206.084 46.9004 206.594 46.666C207.109 46.4316 207.681 46.3145 208.308 46.3145C208.935 46.3145 209.506 46.4316 210.021 46.666C210.537 46.9004 210.979 47.2314 211.349 47.6592C211.724 48.0811 212.011 48.582 212.21 49.1621C212.409 49.7422 212.509 50.3809 212.509 51.0781V51.4121C212.509 52.1094 212.409 52.748 212.21 53.3281C212.011 53.9082 211.727 54.4121 211.357 54.8398C210.988 55.2617 210.546 55.5898 210.03 55.8242C209.521 56.0586 208.952 56.1758 208.325 56.1758C207.692 56.1758 207.118 56.0586 206.603 55.8242C206.093 55.5898 205.65 55.2617 205.275 54.8398C204.906 54.4121 204.619 53.9082 204.414 53.3281C204.215 52.748 204.115 52.1094 204.115 51.4121ZM204.818 51.0781V51.4121C204.818 51.9629 204.895 52.4873 205.047 52.9854C205.205 53.4775 205.434 53.917 205.732 54.3037C206.031 54.6846 206.397 54.9863 206.831 55.209C207.265 55.4258 207.763 55.5342 208.325 55.5342C208.876 55.5342 209.368 55.4258 209.802 55.209C210.235 54.9863 210.599 54.6846 210.892 54.3037C211.19 53.917 211.416 53.4775 211.568 52.9854C211.727 52.4873 211.806 51.9629 211.806 51.4121V51.0781C211.806 50.5391 211.727 50.0234 211.568 49.5312C211.416 49.0391 211.19 48.5996 210.892 48.2129C210.593 47.8262 210.227 47.5215 209.793 47.2988C209.359 47.0703 208.864 46.9561 208.308 46.9561C207.751 46.9561 207.256 47.0703 206.822 47.2988C206.395 47.5215 206.028 47.8262 205.724 48.2129C205.425 48.5996 205.199 49.0391 205.047 49.5312C204.895 50.0234 204.818 50.5391 204.818 51.0781ZM215.805 46.4902H216.508L216.332 49.8477C216.291 50.7617 216.191 51.5586 216.033 52.2383C215.881 52.918 215.696 53.498 215.479 53.9785C215.263 54.459 215.028 54.8633 214.776 55.1914C214.53 55.5137 214.281 55.7832 214.029 56H213.59L213.599 55.3584H213.827C213.979 55.165 214.149 54.9336 214.337 54.6641C214.524 54.3945 214.706 54.0547 214.882 53.6445C215.063 53.2344 215.222 52.7217 215.356 52.1064C215.491 51.4854 215.585 50.7324 215.638 49.8477L215.805 46.4902ZM216.112 46.4902H221.113V56H220.41V47.167H216.112V46.4902ZM213.177 55.3584H221.957V58.7949H221.263V56H213.801V58.7949H213.168L213.177 55.3584ZM224.84 54.8223L230.43 46.4902H231.142V56H230.43V47.668L224.84 56H224.146V46.4902H224.84V54.8223ZM240.59 50.8232V51.4648H234.587V50.8232H240.59ZM234.815 46.4902V56H234.112V46.4902H234.815ZM241.108 46.4902V56H240.396V46.4902H241.108ZM249.124 46.4902V56H248.412V46.4902H249.124ZM255.399 46.4902L251.119 51.4648H248.86L248.834 50.8145H250.803L254.459 46.4902H255.399ZM254.925 56L250.688 51.3857L251.119 50.7969L255.9 56H254.925ZM263.995 46.4902V47.1406H259.047V46.4902H263.995ZM264.505 46.4902V56H263.802V46.4902H264.505ZM258.827 46.4902H259.53L259.337 50.8672C259.308 51.5996 259.258 52.2471 259.188 52.8096C259.117 53.3721 259.018 53.8555 258.889 54.2598C258.766 54.6641 258.607 54.9951 258.414 55.2529C258.221 55.5107 257.986 55.7012 257.711 55.8242C257.436 55.9414 257.11 56 256.735 56H256.41V55.3496L256.727 55.3408C256.979 55.335 257.201 55.2881 257.395 55.2002C257.594 55.1064 257.764 54.957 257.904 54.752C258.051 54.541 258.174 54.2598 258.273 53.9082C258.373 53.5566 258.455 53.123 258.52 52.6074C258.584 52.0918 258.628 51.4766 258.651 50.7617L258.827 46.4902ZM268.17 54.8223L273.76 46.4902H274.472V56H273.76V47.668L268.17 56H267.476V46.4902H268.17V54.8223ZM278.146 46.4902V56H277.434V46.4902H278.146ZM284.421 46.4902L280.141 51.4648H277.882L277.855 50.8145H279.824L283.48 46.4902H284.421ZM283.946 56L279.71 51.3857L280.141 50.7969L284.922 56H283.946Z" fill="black" fill-opacity="0.8"/>
</svg>
