<?xml version="1.0" encoding="UTF-8"?>
<svg id="_Слой_1" data-name="Слой 1" xmlns="http://www.w3.org/2000/svg" viewBox="0 0 200 200">
  <defs>
    <style>
      .cls-1 {
        fill: #f8ad47;
      }

      .cls-2 {
        fill: #d47328;
      }

      .cls-3 {
        fill: #54629c;
      }
    </style>
  </defs>
  <g>
    <rect class="cls-3" x=".17" y="20.37" width="199.67" height="118.02" rx="32.63" ry="32.63"/>
    <polygon class="cls-3" points="117.58 131.02 168.54 180.78 154.95 131.02 117.58 131.02"/>
  </g>
  <g>
    <path class="cls-2" d="M86.5,85.75l32.76,12.34c1.32,.5,2.78-.17,3.28-1.48l.91-2.41,1.23,2.98c.8,1.94,3.01,2.88,4.96,2.11l2.84-1.11-1.28,3.39c-.18,.49,.06,1.04,.55,1.22l4.19,1.58c.49,.18,1.03-.06,1.22-.55l1.53-4.08,2.98,1.12-1.52,4.03c-.19,.52,.07,1.09,.58,1.28l4.83,1.82c.22,.08,.46,.09,.68,0l11.5-3.98c2.43-.84,4.36-2.72,5.26-5.12l1.73-4.59-71.34-26.87c-.5-9.34-6.39-17.95-15.69-21.47-12.47-4.72-26.54,1.57-31.33,14.01-4.86,12.62,1.5,26.77,14.13,31.53,9.32,3.51,19.45,.92,25.99-5.77Zm-24.64-26.58c3.31,1.25,4.99,4.95,3.74,8.26-1.25,3.31-4.95,4.99-8.26,3.74-3.31-1.25-4.99-4.95-3.74-8.26s4.95-4.99,8.26-3.74Z"/>
    <path class="cls-1" d="M87.99,81.88l32.76,12.34c1.31,.5,2.78-.17,3.28-1.48l.91-2.41,1.23,2.98c.8,1.94,3.01,2.88,4.96,2.11l2.84-1.11-1.28,3.39c-.18,.49,.06,1.04,.55,1.22l4.19,1.58c.49,.18,1.04-.06,1.22-.55l1.53-4.08,2.98,1.12-1.52,4.03c-.19,.52,.07,1.09,.58,1.28l4.83,1.82c.22,.08,.46,.09,.68,0l11.18-3.87c2.63-.91,4.71-2.94,5.69-5.54l.05-.13c.86-2.29-.29-4.85-2.59-5.71l-67.19-25.31c-.5-9.34-6.39-17.95-15.69-21.47-12.47-4.72-26.54,1.57-31.33,14.01-4.86,12.62,1.5,26.77,14.13,31.53,9.32,3.51,19.45,.92,25.99-5.77Zm-24.64-26.58c3.31,1.25,4.99,4.95,3.74,8.26-1.25,3.31-4.95,4.99-8.26,3.74-3.31-1.25-4.99-4.95-3.74-8.26,1.25-3.31,4.95-4.99,8.26-3.74Z"/>
    <path class="cls-2" d="M88.38,69.64c.28-.74-.22-1.62,.52-1.34l64.4,24.83c.74,.28,1.11,1.12,.82,1.86-.28,.74-1.12,1.11-1.86,.82l-63.98-24.67c-.74-.28-.19-.77,.09-1.5Z"/>
    <path class="cls-2" d="M63.58,82.84c-9.85-3.8-14.77-14.9-10.97-24.74,3.8-9.85,14.9-14.77,24.74-10.97,9.85,3.8,14.77,14.9,10.97,24.74-3.8,9.85-14.9,14.77-24.74,10.97Zm.54-1.39c9.08,3.5,19.31-1.04,22.81-10.12,3.5-9.08-1.04-19.31-10.12-22.81-9.08-3.5-19.31,1.04-22.81,10.12-3.5,9.08,1.04,19.31,10.12,22.81Z"/>
  </g>
</svg>