<svg width="39" height="39" viewBox="0 0 39 39" fill="none" xmlns="http://www.w3.org/2000/svg">
<path d="M19.24 38.48C29.8659 38.48 38.48 29.8659 38.48 19.24C38.48 8.61403 29.8659 0 19.24 0C8.61403 0 0 8.61403 0 19.24C0 29.8659 8.61403 38.48 19.24 38.48Z" fill="#AD1581"/>
<path d="M13.6102 14.9101C12.8102 16.1501 12.1402 17.19 11.3802 18.36C12.2602 18.36 12.9802 18.31 13.7002 18.36C15.7402 18.54 17.5502 19.13 18.4002 21.27C18.6302 21.84 19.7602 21.9 20.0002 21.34C21.1402 18.72 23.3702 18.32 25.8502 18.35C26.2002 18.35 26.5501 18.35 27.0701 18.35C26.3401 17.21 25.6602 16.1601 24.8602 14.9101C24.6302 15.4201 24.5401 15.8101 24.3001 16.0601C24.0701 16.3001 23.6902 16.4001 23.3802 16.5601C23.2702 16.2301 23.0001 15.87 23.0701 15.59C23.2801 14.8 23.6001 14.0301 23.9401 13.2801C24.2801 12.5201 24.8902 12.43 25.3402 13.11C27.0402 15.65 28.7302 18.1901 30.3602 20.7801C31.0102 21.8101 30.7001 23.2 29.8201 24.14C27.4801 26.62 21.6502 26.24 20.2402 23.35C19.8602 22.57 18.5701 22.57 18.1801 23.36C16.7801 26.27 10.8102 26.58 8.61019 24.11C7.60019 22.99 7.47015 21.6201 8.32015 20.3301C9.85015 18.0101 11.3701 15.68 12.9301 13.37C13.1401 13.06 13.5602 12.75 13.9002 12.73C14.1202 12.72 14.4402 13.19 14.6002 13.51C14.9002 14.14 15.1902 14.8 15.3502 15.48C15.4202 15.8 15.1701 16.1901 15.0601 16.5501C14.7401 16.3401 14.3702 16.1801 14.1102 15.9101C13.9102 15.7101 13.8502 15.37 13.6102 14.86V14.9101ZM25.2602 24.7801C26.4702 24.2601 27.6502 23.9301 28.6302 23.2901C29.5802 22.6701 29.5202 21.68 28.7202 20.88C27.1602 19.31 23.4302 19.31 21.9002 20.89C21.1502 21.66 21.0601 22.63 21.9401 23.22C22.9101 23.87 24.0702 24.2401 25.2602 24.7801V24.7801ZM13.0802 24.71C14.2102 24.29 15.3002 24.05 16.2102 23.51C17.4302 22.78 17.4202 21.62 16.3402 20.71C14.7402 19.35 11.4502 19.38 9.86019 20.76C8.90019 21.6 8.85014 22.7501 9.94014 23.4201C10.8801 24.0001 11.9902 24.28 13.0802 24.72V24.71Z" fill="white"/>
<path d="M25.26 24.78C24.07 24.24 22.9099 23.8799 21.9399 23.2199C21.0599 22.6299 21.15 21.66 21.9 20.89C23.43 19.31 27.16 19.31 28.72 20.88C29.51 21.68 29.58 22.67 28.63 23.29C27.65 23.93 26.47 24.26 25.26 24.78V24.78Z" fill="white"/>
<path d="M13.0805 24.71C12.0005 24.28 10.8805 23.9901 9.94048 23.4101C8.85048 22.7301 8.89052 21.5801 9.86052 20.7501C11.4505 19.3701 14.7505 19.3501 16.3405 20.7001C17.4205 21.6101 17.4305 22.7801 16.2105 23.5001C15.3005 24.0401 14.2005 24.2801 13.0805 24.7001V24.71Z" fill="white"/>
</svg>
