<svg width="778" height="541" viewBox="0 0 778 541" fill="none" xmlns="http://www.w3.org/2000/svg">
<path d="M63.0941 474.435C56.0671 468.682 48.7324 463.186 42.2183 456.869C39.1921 453.941 36.3711 450.756 34.2168 447.11C33.0884 445.26 32.1651 443.257 31.4983 441.203C30.9341 439.508 30.3699 436.888 32.8319 436.631C33.7552 436.529 34.7297 436.734 35.6017 436.991C36.5762 437.248 36.9866 435.758 36.012 435.501C33.0884 434.782 28.8825 434.988 29.3441 439.097C29.9083 443.72 32.9345 448.445 35.7043 451.989C42.8851 461.235 53.0409 468.169 62.017 475.514C62.7864 476.13 63.8635 475.051 63.0941 474.435Z" fill="#E8E8E8"/>
<path d="M36.2687 435.758C33.2938 432.214 30.9856 428.105 29.652 423.636C29.0365 421.633 28.7801 419.579 28.1646 417.627C27.7542 416.394 26.9849 415.264 28.1133 414.186C28.6262 413.723 29.3956 413.415 29.9598 413.004C31.7037 411.823 32.6783 410.436 30.524 408.946C29.293 408.125 27.7542 407.97 26.4206 407.303C24.6254 406.327 23.2405 404.735 22.2147 403.04C20.0605 399.547 18.8807 395.438 17.5984 391.585C16.0597 387.014 14.5722 382.34 13.2386 377.717C10.5715 368.369 8.3659 358.918 6.57069 349.416C6.41681 349.724 6.21165 350.032 6.05777 350.34C15.7006 347.156 25.2922 355.323 32.1653 361.127C39.2436 367.085 45.6038 373.916 51.1946 381.313C62.7353 396.722 70.7881 414.494 75.8147 433.036C78.8922 444.387 80.8413 456.047 81.9185 467.758C82.021 468.734 83.5598 468.734 83.4572 467.758C79.7129 427.335 64.8383 386.398 32.986 359.74C25.7026 353.679 15.8545 345.512 5.69873 348.851C5.28839 349.005 5.08323 349.364 5.18581 349.775C7.08361 359.945 9.49433 370.013 12.418 379.977C13.8028 384.651 15.239 389.274 16.8291 393.845C18.1114 397.544 19.2911 401.499 21.5479 404.735C22.4199 405.967 23.3944 407.097 24.6254 407.97C26.1129 409.049 27.8568 409.152 29.3443 410.076C31.2934 411.258 28.4723 412.182 27.4465 412.901C26.6771 413.466 25.959 414.134 25.8051 415.161C25.6 416.702 26.9336 418.5 27.2926 419.938C27.8055 422.147 28.2672 424.304 29.0878 426.461C30.5753 430.262 32.6783 433.755 35.2941 436.888C35.8071 437.607 36.8842 436.529 36.2687 435.758Z" fill="#E8E8E8"/>
<path d="M14.3157 357.685C35.7557 381.929 52.4256 410.23 63.2995 440.74C66.3257 449.215 68.839 457.844 70.942 466.576C71.1984 467.552 72.6346 467.141 72.4294 466.165C64.8382 434.525 51.1946 404.375 32.3192 377.82C27.0874 370.423 21.4453 363.335 15.4441 356.555C14.726 355.888 13.6489 356.966 14.3157 357.685Z" fill="#E8E8E8"/>
<path d="M17.8036 391.482C20.2656 392.098 22.6763 392.92 25.0358 393.896C25.959 394.256 26.3694 392.766 25.4461 392.407C23.0867 391.431 20.676 390.609 18.214 389.993C17.2907 389.736 16.8804 391.225 17.8036 391.482Z" fill="#E8E8E8"/>
<path d="M35.8585 425.589C39.1925 425.486 41.9623 427.232 44.6807 428.876C47.1428 430.365 49.5535 431.855 51.9129 433.499C56.7856 436.889 61.1967 440.895 64.1204 446.134C64.582 447.007 65.9156 446.237 65.454 445.364C62.3764 439.919 57.7602 435.707 52.6823 432.215C50.0151 430.365 47.1941 428.619 44.373 426.975C41.7058 425.383 38.9873 424.048 35.8073 424.099C34.884 424.048 34.884 425.589 35.8585 425.589Z" fill="#E8E8E8"/>
<path d="M56.2726 416.342C54.8877 408.021 54.939 399.598 56.4264 391.328C56.5803 390.352 55.0929 389.941 54.939 390.917C53.4002 399.495 53.3489 408.176 54.7851 416.753C54.939 417.729 56.4264 417.318 56.2726 416.342Z" fill="#E8E8E8"/>
<path d="M53.6565 381.158C54.7336 370.988 56.8879 360.818 60.4783 351.264C63.5045 343.2 68.0182 335.29 75.7633 330.975C75.3529 330.77 74.9939 330.513 74.5836 330.308C75.4042 344.587 83.7648 357.274 84.1238 371.604C84.329 371.347 84.4829 371.091 84.688 370.885C82.739 371.399 80.7899 371.912 78.8408 372.426C78.2766 372.58 78.0714 373.299 78.4817 373.71C80.8412 375.97 81.3028 379.155 81.4054 382.288C81.4567 383.931 82.3286 391.893 80.4308 392.406C79.9692 392.561 79.7127 393.126 79.9692 393.536C85.6626 402.679 83.0467 413.517 81.4567 423.379C79.8153 433.549 79.6102 443.822 80.7899 453.992C80.8925 454.967 82.4312 454.967 82.3286 453.992C80.995 442.537 81.6618 431.289 83.6109 419.989C85.201 410.846 86.4833 401.036 81.3541 392.715C81.2002 393.074 81.0463 393.485 80.8925 393.845C82.2773 393.485 82.739 392.406 82.9441 391.071C83.3032 388.606 83.0467 385.883 82.9954 383.418C82.9441 379.514 82.5338 375.456 79.5589 372.631C79.4563 373.042 79.3537 373.505 79.1998 373.916C81.1489 373.402 83.098 372.888 85.0471 372.375C85.3548 372.272 85.6113 371.964 85.6113 371.656C85.2523 357.274 76.943 344.638 76.071 330.359C76.0197 329.794 75.4555 329.383 74.8913 329.691C67.2488 333.955 62.6326 341.505 59.4525 349.466C55.4004 359.585 53.1436 370.423 52.0151 381.261C52.0151 382.134 53.5539 382.134 53.6565 381.158Z" fill="#E8E8E8"/>
<path d="M72.2756 338.013C66.7874 358.815 63.9663 380.285 63.915 401.807C63.915 402.783 65.4538 402.783 65.4538 401.807C65.5051 380.388 68.2748 359.124 73.7118 338.424C74.0195 337.448 72.5321 337.037 72.2756 338.013Z" fill="#E8E8E8"/>
<path d="M674.494 307.246C677.776 317.827 680.238 328.614 681.777 339.605C682.547 345.153 683.111 350.803 683.367 356.401C683.47 357.839 683.521 359.329 683.572 360.767C683.624 361.64 683.367 363.079 683.675 363.9C683.983 364.671 685.06 365.184 685.675 365.698C686.753 366.571 687.83 367.444 688.856 368.318C688.907 367.907 688.958 367.496 689.009 367.085C687.573 367.958 686.188 368.369 684.496 368.42C684.137 368.42 683.88 368.677 683.778 368.985C682.29 373.608 683.367 378.488 686.701 382.083C686.906 381.621 687.06 381.21 687.265 380.748C681.931 380.542 681.828 386.706 682.341 390.507C683.06 395.797 684.085 401.088 685.573 406.224C688.548 416.291 693.523 425.845 701.679 432.728C702.448 433.344 703.525 432.265 702.756 431.649C695.883 425.845 691.266 418.038 688.291 409.563C686.906 405.556 685.829 401.447 685.009 397.338C684.342 393.897 681.008 382.083 687.265 382.289C687.984 382.34 688.24 381.467 687.83 380.953C684.906 377.769 683.983 373.454 685.316 369.396C685.06 369.602 684.803 369.756 684.598 369.961C686.547 369.961 688.189 369.499 689.881 368.42C690.24 368.164 690.446 367.547 690.035 367.188C688.137 365.647 685.522 364.311 685.214 361.743C684.906 359.021 685.009 356.196 684.803 353.474C684.444 348.389 683.931 343.304 683.162 338.219C681.623 327.586 679.213 317.108 676.033 306.835C675.673 305.859 674.186 306.27 674.494 307.246Z" fill="#E8E8E8"/>
<path d="M677.007 309.556C674.904 306.783 678.854 304.728 681.162 305.293C683.47 305.909 685.368 307.759 686.958 309.402C689.881 312.381 692.189 315.874 694.19 319.521C698.344 327.02 701.832 335.033 704.91 342.994C711.219 359.379 715.579 376.535 717.887 393.895C719.169 403.757 719.836 413.671 719.836 423.584C719.836 424.56 721.374 424.56 721.374 423.584C721.374 402.935 718.553 382.339 713.014 362.512C710.295 352.856 706.961 343.405 703.012 334.159C699.37 325.633 695.472 316.49 689.215 309.505C686.701 306.68 682.444 302.314 678.238 303.804C675.673 304.677 673.981 307.964 675.725 310.327C676.289 311.097 677.623 310.378 677.007 309.556Z" fill="#E8E8E8"/>
<path d="M713.937 366.006C716.553 357.223 719.579 348.645 723.016 340.17C724.811 335.804 726.709 331.438 728.76 327.175C729.735 325.172 730.709 323.117 731.735 321.114C732.402 319.83 734.402 314.18 736.505 314.694C737.121 314.848 737.531 314.334 737.429 313.769C736.916 310.585 740.506 307.862 742.404 305.756C744.096 303.907 745.738 302.058 747.43 300.209C750.918 296.408 754.355 292.607 757.843 288.755C757.432 288.652 756.971 288.55 756.56 288.395C761.843 301.493 760.459 315.824 757.381 329.281C755.791 336.164 753.791 342.995 752.098 349.878C750.918 354.655 749.636 361.897 743.789 362.924C743.378 362.976 743.173 363.489 743.276 363.849C744.763 369.961 740.66 375.611 737.941 380.747C735.377 385.576 733.017 390.558 730.863 395.643C726.657 405.556 723.323 415.777 720.81 426.204C720.554 427.18 722.041 427.591 722.297 426.615C725.067 415.058 728.863 403.81 733.736 392.972C736.044 387.836 738.608 382.802 741.327 377.871C743.789 373.402 746.046 368.677 744.815 363.489C744.661 363.797 744.456 364.106 744.302 364.414C749.277 363.541 751.431 358.507 752.714 354.09C754.816 346.693 756.714 339.091 758.509 331.592C761.946 317.313 763.793 301.955 758.15 287.985C757.945 287.471 757.278 287.163 756.868 287.625C752.508 292.402 748.149 297.23 743.789 302.007C741.737 304.267 739.532 306.424 737.634 308.838C736.403 310.482 735.736 312.023 736.044 314.077C736.351 313.769 736.659 313.461 736.967 313.153C733.274 312.228 731.479 318.289 730.248 320.703C727.786 325.583 725.478 330.514 723.375 335.496C719.169 345.255 715.578 355.322 712.552 365.492C712.142 366.52 713.629 366.931 713.937 366.006Z" fill="#E8E8E8"/>
<path d="M754.048 302.058C738.045 331.952 721.734 362.77 717.887 396.927C717.784 397.903 719.323 397.903 719.426 396.927C723.272 363.027 739.532 332.414 755.381 302.828C755.894 301.955 754.561 301.185 754.048 302.058Z" fill="#E8E8E8"/>
<path d="M687.316 322.603C699.78 355.63 707.218 390.455 709.423 425.69C709.474 426.666 711.013 426.666 710.962 425.69C708.756 390.3 701.319 355.373 688.804 322.192C688.445 321.319 686.957 321.679 687.316 322.603Z" fill="#E8E8E8"/>
<path d="M39.1922 306.064C70.4802 300.465 102.794 300.773 133.98 306.988C149.418 310.07 164.55 314.539 179.116 320.394C194.35 326.507 208.968 333.852 223.894 340.632C280.213 366.211 340.481 382.955 401.877 390.249C436.704 394.409 471.891 395.488 506.872 393.536C507.846 393.485 507.846 391.944 506.872 391.995C444.09 395.539 380.847 389.119 320.015 373.145C289.497 365.132 259.593 354.705 230.716 342.019C215.739 335.444 201.121 328.048 186.092 321.627C171.73 315.515 156.907 310.584 141.725 307.091C108.026 299.387 72.8397 298.513 38.7818 304.626C37.8073 304.728 38.2176 306.218 39.1922 306.064Z" fill="#E8E8E8"/>
<path d="M318.22 372.016C347.405 373.506 375.564 362.976 403.005 354.552C431.729 345.769 460.555 337.243 489.432 328.922C518.156 320.652 546.879 311.972 576.064 305.346C605.147 298.771 634.793 295.638 664.594 294.765C697.78 293.738 730.966 295.227 764.1 296.768C765.075 296.82 765.075 295.279 764.1 295.227C705.576 292.556 646.283 289.937 588.426 301.185C559.087 306.887 530.363 315.619 501.64 323.786C472.762 332.055 443.936 340.53 415.162 349.211C399.21 354.039 383.309 359.278 367.255 363.695C351.252 368.112 334.838 371.297 318.169 370.475C317.245 370.424 317.245 371.965 318.22 372.016Z" fill="#E8E8E8"/>
<path d="M193.684 319.317C213.944 325.172 234.974 321.114 255.183 317.211C276.828 313.05 298.678 310.225 320.734 309.352C364.434 307.708 407.879 313.975 451.425 315.721C475.533 316.697 499.742 316.132 523.542 312.177C524.516 312.023 524.106 310.533 523.131 310.687C480.303 317.827 436.807 313.564 393.825 310.328C372.333 308.684 350.791 307.297 329.197 307.657C307.808 308.016 286.419 310.071 265.287 313.821C241.898 317.93 217.586 324.71 194.043 317.878C193.119 317.57 192.709 319.06 193.684 319.317Z" fill="#E8E8E8"/>
<path d="M284.47 418.294C291.036 415.571 298.114 414.185 305.244 414.39C311.86 414.596 317.81 416.753 324.222 418.088C328.992 419.116 333.762 419.116 337.609 415.726C339.096 414.441 340.378 413.106 342.533 413.774C344.123 414.236 345.456 415.315 346.944 415.982C348.688 416.804 350.483 417.112 352.329 416.753C356.741 415.88 360.075 412.233 363.921 410.127C370.435 406.634 376.693 411.308 383.053 413.003C396.287 416.547 410.443 415.469 423.984 415.315C440.654 415.161 457.375 415.263 473.942 413.209C474.917 413.106 474.917 411.565 473.942 411.668C459.068 413.466 444.039 413.568 429.062 413.722C414.803 413.876 399.723 415.212 385.669 412.027C382.386 411.308 379.309 410.23 376.18 408.946C373.462 407.816 370.641 406.737 367.666 407.148C362.998 407.764 359.51 411.462 355.561 413.722C353.509 414.904 351.252 415.726 348.893 415.058C346.328 414.287 344.225 412.027 341.404 411.925C338.737 411.873 337.455 414.031 335.506 415.417C332.787 417.318 329.351 417.369 326.171 416.856C319.4 415.777 313.091 413.157 306.167 412.849C298.627 412.49 291.087 413.876 284.06 416.804C283.137 417.164 283.547 418.653 284.47 418.294Z" fill="#E8E8E8"/>
<path d="M317.194 372.478C318.118 372.632 318.99 372.837 319.913 372.992C320.887 373.197 321.246 371.862 320.323 371.502C319.759 371.297 319.195 371.091 318.579 370.886C317.759 370.577 317.194 371.913 317.964 372.272C322.683 374.738 327.607 376.69 332.736 378.077C333.71 378.333 334.121 376.844 333.146 376.587C328.119 375.252 323.349 373.351 318.733 370.937C318.528 371.399 318.323 371.862 318.118 372.324C318.682 372.529 319.246 372.735 319.862 372.94C320.015 372.427 320.118 371.964 320.272 371.451C319.349 371.297 318.477 371.091 317.553 370.937C316.63 370.783 316.22 372.272 317.194 372.478Z" fill="#E8E8E8"/>
<path d="M248.258 443.667C247.13 442.332 246.104 440.945 245.232 439.404C244.821 438.633 244.309 437.812 244.052 436.938C243.693 436.373 243.642 435.706 243.847 435.038C243.693 434.319 243.898 433.754 244.411 433.343C245.18 431.237 244.257 429.028 243.744 426.871C242.975 423.481 242.206 420.091 241.436 416.701C241.026 414.903 240.616 413.157 240.256 411.359C240.051 410.537 239.897 409.767 239.692 408.945C239.385 407.507 239.077 406.839 240.154 405.658C240.667 404.579 241.436 404.374 242.462 405.196C242.924 405.658 243.385 406.12 243.847 406.582C244.36 407.25 244.719 408.021 245.129 408.74C245.847 410.075 246.565 411.411 247.232 412.746C248.822 415.931 250.207 419.218 251.387 422.557C253.644 428.823 255.182 435.295 256.106 441.921C256.362 441.613 256.619 441.253 256.824 440.945C256.926 441.047 256.978 441.202 257.08 441.304C257.337 440.328 255.849 439.918 255.593 440.893C255.388 441.818 255.849 442.486 256.824 442.486C257.388 442.486 257.644 442.023 257.542 441.51C256.362 433.035 254.157 424.765 250.771 416.907C249.181 413.208 247.489 409.099 245.129 405.812C243.847 404.014 241.539 402.371 239.333 403.655C236.82 405.093 238 408.637 238.513 410.846C239.538 415.366 240.564 419.886 241.539 424.406C242 426.563 242.975 428.977 243.078 431.186C243.129 432.983 241.641 433.805 241.898 435.603C242.411 438.942 244.924 442.332 247.027 444.797C247.796 445.465 248.874 444.386 248.258 443.667Z" fill="#E8E8E8"/>
<path d="M252.977 421.581C252.208 416.958 252.31 412.233 253.387 407.661C253.644 406.48 254.003 405.35 254.413 404.22C255.131 402.268 256.157 402.474 257.183 403.912C258.516 405.812 259.542 407.918 260.312 410.075C263.44 419.013 262.056 428.618 260.722 437.709C260.568 438.685 262.056 439.096 262.209 438.12C263.902 426.666 265.646 413.671 258.722 403.45C257.952 402.32 256.926 400.419 255.336 400.676C253.644 400.984 253.08 403.295 252.618 404.631C250.771 410.23 250.464 416.188 251.438 421.94C251.695 422.968 253.182 422.557 252.977 421.581Z" fill="#E8E8E8"/>
<path d="M255.747 409.768C257.285 417.78 257.85 425.844 257.593 433.96C257.542 434.936 259.081 434.936 259.132 433.96C259.44 425.69 258.773 417.472 257.234 409.357C257.029 408.381 255.593 408.792 255.747 409.768Z" fill="#E8E8E8"/>
<path d="M67.0952 300.26C65.6077 296.973 62.2737 294.662 60.1708 291.785C57.8626 288.601 55.9136 285.159 54.0158 281.769C53.8619 282.129 53.708 282.54 53.5541 282.899C63.8638 281.05 69.8137 291.22 71.814 299.798C72.0192 300.774 73.5067 300.363 73.3015 299.387C71.0959 289.885 64.3254 279.458 53.1438 281.41C52.6309 281.512 52.477 282.129 52.6822 282.54C54.58 285.981 56.4778 289.422 58.8372 292.556C60.9402 295.432 64.3254 297.846 65.7616 301.031C66.1719 301.955 67.5055 301.185 67.0952 300.26Z" fill="#E8E8E8"/>
<path d="M71.5573 291.99C72.3267 283.926 80.0205 278.892 82.9954 271.753C82.6364 271.907 82.226 272.061 81.867 272.215C85.3035 274.424 82.7389 282.436 81.7644 285.518C80.3282 290.038 77.9688 294.147 74.9426 297.743C74.3271 298.513 75.4042 299.592 76.0197 298.821C79.8153 294.353 82.5338 289.165 83.9187 283.464C84.7906 279.868 86.432 273.345 82.6364 270.879C82.1747 270.571 81.6618 270.931 81.5079 271.342C78.4304 278.738 70.8392 283.566 70.0186 291.99C69.916 292.966 71.4547 292.966 71.5573 291.99Z" fill="#E8E8E8"/>
<path d="M527.029 315.31C526.568 314.128 526.106 312.947 525.644 311.766C525.388 311.201 525.183 310.584 524.926 310.019C524.619 309.608 524.619 309.146 524.875 308.684C525.337 309.095 526.26 308.838 526.209 308.119C525.952 305.551 525.696 302.931 525.439 300.363C525.388 299.747 524.772 297.332 525.132 296.87C526.722 294.662 527.799 298.308 527.953 298.873C529.337 303.599 529.286 309.043 529.235 313.923C529.235 314.899 530.774 314.899 530.774 313.923C530.825 309.917 530.62 305.962 530.055 302.007C529.696 299.49 529.286 295.843 526.824 294.353C525.234 293.377 523.901 294.405 523.593 296.1C523.285 297.743 523.798 299.695 523.952 301.287C524.157 303.547 524.413 305.807 524.619 308.067C525.08 307.862 525.491 307.708 525.952 307.502C525.08 306.681 523.747 306.835 523.234 307.965C522.875 308.735 523.182 309.557 523.439 310.327C524.054 312.125 524.875 313.871 525.542 315.669C525.901 316.645 527.388 316.234 527.029 315.31Z" fill="#E8E8E8"/>
<path d="M530.466 306.938C530.261 299.747 531.748 292.71 534.877 286.187C534.467 286.238 534.056 286.289 533.646 286.341C536.98 289.114 534.775 296.613 534.21 300.209C533.441 305.037 532.466 309.865 531.235 314.591C530.979 315.567 532.466 315.978 532.723 315.002C534.21 309.249 535.339 303.394 536.159 297.487C536.672 293.686 538.16 288.087 534.723 285.211C534.364 284.903 533.749 284.903 533.492 285.365C530.261 292.093 528.671 299.387 528.876 306.886C528.979 307.913 530.517 307.913 530.466 306.938Z" fill="#E8E8E8"/>
<path d="M261.286 464.161C264.517 460.874 269.544 465.291 273.288 465.086C275.083 464.983 276.725 464.315 278.366 463.75C280.572 463.031 282.675 462.774 284.983 462.98C294.113 463.75 302.986 464.418 312.167 463.802C313.142 463.75 313.142 462.209 312.167 462.261C307.192 462.569 302.268 462.672 297.293 462.466C292.266 462.261 287.034 461.028 282.059 461.388C280.059 461.542 278.212 462.209 276.314 462.826C273.545 463.699 271.442 463.545 268.775 462.569C265.851 461.49 262.568 460.617 260.158 463.083C259.491 463.802 260.568 464.88 261.286 464.161Z" fill="#E8E8E8"/>
<path d="M164.396 476.644C167.986 472.74 174.295 472.483 178.091 476.182C178.142 475.771 178.193 475.36 178.245 474.949C175.577 476.233 172.859 476.798 169.935 476.644C168.961 476.593 168.961 478.133 169.935 478.185C173.167 478.339 176.142 477.723 179.065 476.284C179.527 476.079 179.578 475.411 179.219 475.052C174.808 470.789 167.473 470.994 163.319 475.514C162.652 476.284 163.729 477.363 164.396 476.644Z" fill="#E8E8E8"/>
<path d="M21.4456 490.511C18.8297 490.305 16.2138 491.076 14.2134 492.874C12.9824 494.004 11.2385 496.109 12.8285 497.599C14.6237 499.243 18.9323 498.164 21.0352 497.959C24.8821 497.548 28.6264 496.829 32.3707 495.853C33.3453 495.596 32.9349 494.106 31.9604 494.363C27.4467 495.544 22.8817 496.315 18.2142 496.623C17.2909 496.674 16.3164 496.777 15.3931 496.777C13.085 496.674 14.1621 494.928 15.2905 493.952C16.9832 492.411 19.1887 491.846 21.4456 492.052C22.4714 492.103 22.4201 490.562 21.4456 490.511Z" fill="#E8E8E8"/>
<path d="M94.7412 448.136C94.8438 447.725 95.1516 447.468 95.5619 447.468C95.9209 447.417 96.28 447.366 96.5877 447.314C97.4084 447.211 98.1778 447.263 98.9985 447.366C100.589 447.571 102.025 448.136 103.41 449.009C103.461 448.547 103.512 448.085 103.615 447.622C101.717 448.29 99.8191 448.444 97.8187 448.136C96.8442 447.982 96.4339 449.471 97.4084 449.625C99.6652 449.985 101.82 449.831 104.025 449.112C104.641 448.906 104.794 448.085 104.23 447.725C101.563 446.03 98.0752 445.208 94.9464 446.081C93.2538 446.544 91.9202 449.163 94.3309 449.677C95.3054 449.831 95.7158 448.341 94.7412 448.136Z" fill="#E8E8E8"/>
<path d="M137.211 94.9082C125.004 90.5936 116.284 78.7286 114.95 65.8877C113.566 52.6359 121.003 40.0004 132.184 33.2204C144.238 25.9267 161.37 25.8754 171.269 36.9186C176.347 42.5172 179.476 50.1704 181.322 57.4127C183.22 64.8604 183.528 73.13 179.27 79.8586C174.962 86.5873 167.268 90.3368 160.036 93.1618C152.393 96.1923 143.212 98.555 135.724 93.8295C134.903 93.3159 134.134 94.6513 134.954 95.165C141.673 99.3768 149.778 98.2982 156.958 95.9354C163.985 93.6241 171.423 90.3882 176.86 85.1491C189.016 73.4895 184.041 54.2281 176.449 41.4386C172.449 34.6586 166.447 29.6763 158.805 27.6217C151.522 25.6699 143.725 26.3377 136.801 29.1627C124.08 34.4018 114.13 46.6263 113.309 60.5972C112.386 76.0063 122.285 91.2614 136.801 96.3977C137.724 96.7573 138.134 95.2677 137.211 94.9082Z" fill="#E8E8E8"/>
<path d="M522.875 393.075C557.856 390.866 592.632 386.141 626.895 378.899C636.794 376.793 646.642 374.481 656.439 371.965C657.414 371.708 657.003 370.218 656.029 370.475C622.073 379.155 587.503 385.422 552.624 389.069C542.725 390.096 532.826 390.918 522.926 391.534C521.9 391.585 521.9 393.126 522.875 393.075Z" fill="#E8E8E8"/>
<path d="M442.706 430.159C447.219 430.929 451.836 430.878 456.298 429.799C459.068 429.131 461.068 428.053 463.94 428.977C465.736 429.542 467.428 429.748 469.275 429.388C471.326 428.977 473.224 427.95 474.968 426.82C476.866 425.536 478.764 423.738 481.072 423.276C483.739 422.762 486.15 424.868 488.714 425.433C490.561 425.844 492.459 425.793 494.305 425.485C495.28 425.33 494.869 423.841 493.895 423.995C490.663 424.56 488.15 423.738 485.226 422.454C483.995 421.889 482.816 421.581 481.431 421.684C477.276 422.146 474.404 426.05 470.557 427.436C468.095 428.31 466.095 428.001 463.684 427.231C461.837 426.666 460.504 426.974 458.709 427.539C453.631 429.131 448.45 429.594 443.219 428.72C442.193 428.515 441.731 430.005 442.706 430.159Z" fill="#E8E8E8"/>
<path d="M188.554 496.982C228.408 496.982 268.262 496.982 308.116 496.982C310.116 496.982 310.116 493.9 308.116 493.9C268.262 493.9 228.408 493.9 188.554 493.9C186.554 493.9 186.554 496.982 188.554 496.982Z" fill="#161616"/>
<path d="M316.681 496.059C321.349 496.059 326.017 496.059 330.684 496.059C332.685 496.059 332.685 492.977 330.684 492.977C326.017 492.977 321.349 492.977 316.681 492.977C314.681 492.977 314.681 496.059 316.681 496.059Z" fill="#161616"/>
<path d="M341.045 495.595C342.533 495.595 344.071 495.595 345.559 495.595C347.559 495.595 347.559 492.514 345.559 492.514C344.071 492.514 342.533 492.514 341.045 492.514C339.045 492.514 339.045 495.595 341.045 495.595Z" fill="#161616"/>
<path d="M59.9656 508.283C89.4584 508.283 118.9 508.283 148.393 508.283C150.393 508.283 150.393 505.201 148.393 505.201C118.9 505.201 89.4584 505.201 59.9656 505.201C58.0165 505.201 58.0165 508.283 59.9656 508.283Z" fill="#161616"/>
<path d="M156.958 508.283C164.652 508.283 172.295 508.283 179.988 508.283C181.989 508.283 181.989 505.201 179.988 505.201C172.295 505.201 164.652 505.201 156.958 505.201C155.009 505.201 155.009 508.283 156.958 508.283Z" fill="#161616"/>
<path d="M193.068 507.359C193.53 507.359 193.991 507.359 194.402 507.359C195.222 507.359 195.992 506.64 195.94 505.818C195.889 504.996 195.274 504.277 194.402 504.277C193.94 504.277 193.478 504.277 193.068 504.277C192.247 504.277 191.478 504.996 191.529 505.818C191.581 506.64 192.196 507.359 193.068 507.359Z" fill="#161616"/>
<path d="M43.7571 508.693C44.8342 508.693 45.8601 508.693 46.9372 508.693C48.9376 508.693 48.9376 505.611 46.9372 505.611C45.8601 505.611 44.8342 505.611 43.7571 505.611C41.7567 505.611 41.7567 508.693 43.7571 508.693Z" fill="#161616"/>
<path d="M450.194 452.246C491.535 452.246 532.877 452.246 574.269 452.246C576.269 452.246 576.269 449.164 574.269 449.164C532.928 449.164 491.587 449.164 450.194 449.164C448.194 449.164 448.194 452.246 450.194 452.246Z" fill="#161616"/>
<path d="M590.477 450.447C627.92 450.447 665.364 450.447 702.807 450.447C704.807 450.447 704.807 447.365 702.807 447.365C665.364 447.365 627.92 447.365 590.477 447.365C588.528 447.365 588.528 450.447 590.477 450.447Z" fill="#161616"/>
<path d="M712.757 449.523C715.783 449.523 718.758 449.523 721.784 449.523C723.785 449.523 723.785 446.441 721.784 446.441C718.758 446.441 715.783 446.441 712.757 446.441C710.757 446.441 710.757 449.523 712.757 449.523Z" fill="#161616"/>
<path d="M673.057 432.367C681.623 432.367 690.189 432.367 698.755 432.367C700.755 432.367 700.755 429.285 698.755 429.285C690.189 429.285 681.623 429.285 673.057 429.285C671.057 429.285 671.057 432.367 673.057 432.367Z" fill="#161616"/>
<path d="M707.32 431.906C709.423 431.906 711.526 431.906 713.629 431.906C715.629 431.906 715.629 428.824 713.629 428.824C711.526 428.824 709.423 428.824 707.32 428.824C705.371 428.824 705.371 431.906 707.32 431.906Z" fill="#161616"/>
<path d="M425.369 461.285C436.346 461.285 447.322 461.285 458.298 461.285C460.299 461.285 460.299 458.203 458.298 458.203C447.322 458.203 436.346 458.203 425.369 458.203C423.42 458.203 423.42 461.285 425.369 461.285Z" fill="#161616"/>
<path d="M470.044 460.824C474.712 460.824 479.379 460.824 484.047 460.824C486.047 460.824 486.047 457.742 484.047 457.742C479.379 457.742 474.712 457.742 470.044 457.742C468.044 457.742 468.044 460.824 470.044 460.824Z" fill="#161616"/>
<path d="M490.356 468.527C493.536 468.527 496.665 468.527 499.845 468.527C501.845 468.527 501.845 465.445 499.845 465.445C496.665 465.445 493.536 465.445 490.356 465.445C488.355 465.445 488.355 468.527 490.356 468.527Z" fill="#161616"/>
<path d="M271.904 210.989C270.057 208.678 277.033 207.24 278.161 206.778C280.367 205.802 281.752 204.004 282.265 201.641C282.778 199.227 282.265 196.659 282.983 194.296C284.06 190.803 288.061 191.009 291.036 191.163C293.036 191.266 292.985 188.184 291.036 188.081C287.65 187.876 283.752 187.978 281.393 190.752C279.29 193.218 279.7 196.556 279.444 199.587C279.238 202.309 278.213 203.644 275.545 204.415C274.007 204.877 272.468 205.134 271.186 206.11C268.826 207.805 267.852 210.784 269.749 213.147C270.929 214.739 273.135 212.53 271.904 210.989Z" fill="#0C73FE"/>
<path d="M282.829 213.558C281.444 211.915 284.624 210.271 285.65 209.655C287.035 208.833 288.214 208.062 289.24 206.83C291.343 204.313 292.728 199.536 296.524 199.331C298.473 199.228 298.524 196.146 296.524 196.249C290.215 196.557 289.702 203.132 285.393 206.213C283.547 207.497 281.341 208.217 280.162 210.271C279.084 212.12 279.29 214.123 280.623 215.716C281.905 217.257 284.111 215.048 282.829 213.558Z" fill="#0C73FE"/>
<path d="M523.183 47.2934C522.978 50.5807 520.413 54.5357 523.49 57.3093C526.158 59.672 529.492 57.9257 532.518 58.1311C535.852 58.388 534.416 61.4698 534.005 63.7298C533.697 65.4248 533.544 67.2739 534.313 68.9175C535.544 71.4857 538.878 73.1293 541.34 71.2802C542.879 70.0989 541.34 67.428 539.801 68.6093C537.288 70.5098 536.775 65.9384 537.031 64.5516C537.288 63.062 537.801 61.5725 537.852 60.0316C537.903 57.8743 536.775 56.1793 534.775 55.4602C532.313 54.587 530.107 55.563 527.645 55.5116C523.183 55.4089 526.158 49.9643 526.311 47.2934C526.414 45.2902 523.337 45.2902 523.183 47.2934Z" fill="#0C73FE"/>
<path d="M540.827 50.8381C539.545 53.6118 538.314 56.899 540.365 59.6727C541.135 60.6999 542.16 61.3163 543.391 61.5218C544.212 61.6245 545.289 61.2649 546.007 61.5731C547.187 62.0354 547.854 63.4222 547.29 64.6549C546.418 66.4527 549.085 67.9936 549.957 66.1959C551.034 63.8845 550.624 61.2136 548.572 59.5186C547.444 58.594 546.418 58.594 545.033 58.4399C541.289 58.0804 542.314 54.9472 543.494 52.4304C544.315 50.6327 541.648 49.0404 540.827 50.8381Z" fill="#0C73FE"/>
<path d="M704.294 157.366C703.166 154.438 705.884 150.226 709.321 151.305C711.937 152.178 713.116 156.082 711.372 158.239C710.141 159.78 712.296 161.937 713.527 160.396C716.707 156.544 715.117 149.815 710.141 148.326C704.653 146.682 699.37 152.949 701.37 158.136C702.037 160.037 705.012 159.215 704.294 157.366Z" fill="#0C73FE"/>
<path d="M105.513 279.305C105.205 275.658 109.821 273.603 111.77 277.045C113.412 280.024 110.18 282.643 107.359 281.667C105.513 281 104.692 283.979 106.539 284.646C112.232 286.701 117.618 280.229 114.181 275.093C110.488 269.597 101.922 272.833 102.487 279.305C102.589 281.256 105.667 281.308 105.513 279.305Z" fill="#0C73FE"/>
<path d="M123.362 135.331C122.183 137.283 122.08 139.799 123.619 141.597C124.388 142.47 125.465 143.035 126.594 143.241C128.184 143.498 129.363 142.624 130.748 143.292C132.133 144.011 131.825 144.884 131.979 146.323C132.031 147.196 132.082 148.018 132.184 148.891C132.287 149.815 132.39 150.74 133.056 151.459C133.672 152.127 134.441 152.384 135.313 152.538C135.929 152.64 136.544 152.589 137.211 152.589C137.724 152.589 138.288 152.589 138.801 152.692C139.776 152.949 140.186 153.616 140.083 154.592C139.314 155.157 140.032 156.493 140.853 155.928C142.392 154.798 141.879 153.051 140.545 151.921C139.93 151.408 139.263 151.151 138.442 151.048C135.775 150.689 134.236 151.716 133.621 147.966C133.313 146.117 133.98 142.265 132.082 141.032C131.21 140.467 130.441 140.724 129.569 141.084C128.184 141.649 127.055 142.111 125.619 141.238C123.67 140.056 123.619 137.745 124.696 135.999C125.209 135.279 123.875 134.509 123.362 135.331Z" fill="#FF3C26"/>
<path d="M144.084 141.443C143.058 143.24 141.827 145.963 143.417 147.812C144.443 149.045 146.187 148.89 147.521 149.661C149.624 150.842 150.598 153.308 150.188 155.619C150.034 156.595 151.522 157.006 151.675 156.03C152.086 153.719 151.573 151.459 149.983 149.712C149.316 148.942 148.444 148.377 147.521 147.966C146.444 147.504 144.597 146.939 144.238 145.603C143.982 144.627 145.007 142.984 145.418 142.213C145.879 141.34 144.546 140.57 144.084 141.443Z" fill="#FF3C26"/>
<path d="M432.806 303.651C431.062 300.055 434.345 295.843 438.243 297.23C442.295 298.668 442.141 304.216 438.295 305.757C437.371 306.116 437.782 307.606 438.705 307.246C443.68 305.243 444.347 298.103 439.167 295.946C433.832 293.686 429.113 299.49 431.524 304.473C431.934 305.346 433.268 304.524 432.806 303.651Z" fill="#FF3C26"/>
<path d="M243.898 291.477C240.615 290.809 245.898 287.265 246.463 286.905C247.283 286.34 248.053 285.724 248.463 284.748C249.848 281.615 247.335 275.348 252.874 275.04C253.849 274.989 253.849 273.448 252.874 273.499C250.72 273.602 249.13 274.783 248.155 276.632C246.565 279.612 248.463 283.669 245.385 285.724C243.642 286.905 241.795 287.676 241.59 289.987C241.487 291.374 242.052 292.606 243.488 292.915C244.462 293.171 244.873 291.682 243.898 291.477Z" fill="#FF3C26"/>
<path d="M253.746 287.009C252.31 285.006 253.131 282.181 255.542 281.41C257.183 280.897 258.414 281.153 259.337 279.458C260.261 277.712 260.107 275.657 261.132 273.86C262.415 271.548 264.569 269.956 267.031 269.186C267.954 268.877 267.595 267.388 266.621 267.696C264.313 268.415 262.312 269.699 260.825 271.6C260.055 272.576 259.389 273.706 258.978 274.938C258.414 276.582 258.67 278.791 256.824 279.664C255.696 280.229 254.567 279.921 253.49 280.742C252.772 281.256 252.259 282.027 251.951 282.797C251.233 284.492 251.387 286.29 252.464 287.779C252.977 288.601 254.311 287.831 253.746 287.009Z" fill="#FF3C26"/>
<path d="M201.582 50.7868C200.659 48.9378 204.609 49.6055 204.762 49.6568C205.327 49.8623 205.891 50.3246 206.404 50.6328C207.224 51.095 208.148 51.5573 209.122 51.6087C210.405 51.66 211.482 51.095 212.302 50.1705C214.662 47.2941 213.79 39.8464 219.329 42.055C220.971 42.7228 222.817 43.6987 224.612 42.8768C226.049 42.2091 226.356 40.7709 226.151 39.3328C226.049 38.6137 225.228 37.1755 225.433 36.4564C225.843 35.0696 227.126 34.9668 228.1 35.4291C228.562 35.6346 228.972 35.9428 229.485 36.0968C231.024 36.6618 232.511 36.5591 233.435 35.1209C233.948 34.2991 232.614 33.5287 232.101 34.3505C231.075 35.9941 226.972 32.6041 225.125 33.6314C223.638 34.4018 223.689 35.9428 224.048 37.3809C224.459 39.0759 225.484 41.5414 222.356 41.49C220.971 41.49 219.688 40.3087 218.355 40.0518C216.765 39.7437 215.329 40.1546 214.303 41.3873C211.738 44.4178 212.713 52.3278 206.763 49.0918C205.019 48.1673 203.583 47.2428 201.634 48.1159C200.146 48.7837 199.428 50.0678 200.197 51.5573C200.71 52.4305 201.993 51.66 201.582 50.7868Z" fill="#0C73FE"/>
<path d="M262.671 92.6987C260.363 92.1337 260.055 89.1546 261.184 87.4082C262.774 84.9427 266.518 85.0968 269.031 85.5591C273.237 86.3296 277.136 87.9732 281.393 86.3809C285.496 84.84 288.574 81.5014 293.19 81.3986C298.011 81.2959 302.576 83.4018 307.449 83.2477C315.963 82.9909 323.709 78.7791 331.864 76.8273C336.685 75.6459 341.404 75.5432 346.226 76.7759C350.842 77.9573 355.15 79.8577 359.767 80.9877C364.588 82.2205 369.358 82.015 374.231 81.6041C379.565 81.1932 385.054 80.7823 389.875 83.5559C389.773 83.2477 389.619 82.9909 389.516 82.6827C386.951 90.2332 378.642 93.315 371.307 93.7259C362.126 94.2396 353.201 90.9009 343.969 91.2605C334.634 91.62 326.735 97.3214 317.554 98.1946C308.167 99.1191 299.294 94.6505 289.958 94.9073C280.469 95.1641 268.108 100.352 260.62 91.8768C259.953 91.1577 258.876 92.2364 259.542 92.9555C265.441 99.5814 274.776 98.4 282.624 97.2187C288.42 96.3455 293.703 96.2941 299.499 97.4241C304.423 98.4 309.347 99.7355 314.373 99.8382C324.529 100.095 333.095 93.5205 343.097 92.8527C353.201 92.185 362.998 96.2428 373.103 95.1128C380.643 94.2909 388.49 90.7468 391.055 83.0423C391.157 82.7341 391.004 82.3232 390.696 82.1691C381.668 76.8786 370.794 81.8609 361.1 79.6523C355.766 78.4196 350.791 76.0568 345.405 74.9268C340.737 73.8995 336.121 74.1564 331.505 75.2864C326.581 76.4677 321.913 78.4196 317.092 79.9091C311.552 81.6041 306.269 82.1177 300.525 80.9364C295.96 79.9605 291.754 79.19 287.445 81.3473C285.445 82.3746 283.598 83.7614 281.547 84.6859C278.059 86.2268 274.725 85.3023 271.186 84.4291C267.441 83.5559 261.799 82.9396 259.696 87.1C258.363 89.7196 259.286 93.4691 262.363 94.1882C263.235 94.3937 263.646 92.9041 262.671 92.6987Z" fill="#E8E8E8"/>
<path d="M49.0917 171.851C56.0674 170.927 62.684 174.522 69.6084 173.649C72.4295 173.289 75.0454 172.057 77.6613 170.978C78.8923 170.464 80.1746 170.002 81.5082 169.694C84.0215 169.129 86.2783 169.797 88.7403 170.31C95.6134 171.8 103.307 170.156 110.18 169.18C113.566 168.718 116.9 168.204 120.285 167.639C124.132 166.972 127.979 165.944 131.825 165.533C135.878 165.123 140.648 166.92 139.006 171.903C137.621 176.166 132.441 177.398 128.543 177.707C121.772 178.22 115.053 176.269 108.283 177.553C101.974 178.734 96.3315 182.021 90.2278 183.819C86.8425 184.846 83.4573 185.257 79.9694 184.795C76.4816 184.281 73.1989 183.408 69.6084 183.665C62.325 184.127 54.5799 188.39 47.2965 186.695C42.8341 185.668 40.526 181.559 42.6802 177.296C44.7832 173.187 49.6046 172.108 53.8105 172.108C54.7851 172.108 54.7851 170.567 53.8105 170.567C47.912 170.567 40.9363 173.135 40.3208 179.915C39.7566 186.182 45.9116 188.75 51.1947 188.544C55.0416 188.39 58.8372 187.26 62.5815 186.387C67.4542 185.257 71.9166 184.846 76.8406 185.771C80.4823 186.439 83.8676 186.798 87.5606 186.079C91.3562 185.36 94.9466 183.819 98.4858 182.381C102.076 180.943 105.718 179.453 109.565 178.888C114.079 178.22 118.592 178.939 123.106 179.196C129.004 179.556 138.391 179.299 140.545 172.313C141.314 169.797 140.75 166.869 138.545 165.225C136.39 163.633 133.467 163.736 130.954 164.044C121.721 165.328 112.642 167.434 103.307 168.461C98.0754 169.026 93.0488 169.694 87.9196 168.461C83.765 167.434 80.4823 168.153 76.5841 169.745C74.5325 170.567 72.5321 171.492 70.3778 171.903C67.7106 172.416 64.9409 172.057 62.2737 171.594C57.9139 170.773 53.6567 169.643 49.2456 170.208C48.1172 170.413 48.1171 171.954 49.0917 171.851Z" fill="#E8E8E8"/>
<path d="M674.083 232.923C664.389 236.313 653.054 228.3 646.078 222.239C645.975 222.65 645.873 223.113 645.719 223.523C650.643 221.52 655.823 221.418 661.055 221.726C666.236 221.983 671.416 222.342 676.597 222.496C687.624 222.804 698.703 222.548 709.68 221.726C715.373 221.315 721.015 220.75 726.657 220.082C729.427 219.723 732.761 219.055 735.377 220.339C739.019 222.188 738.711 226.194 735.223 227.735C733.428 228.506 731.479 228.763 729.581 229.122C726.606 229.636 723.631 230.201 720.656 230.714C715.219 231.69 709.782 232.666 704.294 233.642C701.165 234.207 698.037 234.772 694.908 235.337C691.984 235.851 688.958 236.621 685.932 236.673C680.803 236.724 676.956 232.204 671.826 232.769C670.852 232.872 670.852 234.413 671.826 234.31C674.75 233.95 677.058 235.543 679.572 236.724C681.623 237.7 683.624 238.214 685.88 238.214C691.779 238.162 697.883 236.364 703.679 235.286C709.936 234.156 716.245 233.026 722.503 231.896C725.478 231.382 728.453 230.817 731.428 230.303C733.428 229.944 735.531 229.482 737.275 228.3C740.198 226.297 740.301 222.599 737.839 220.185C733.992 216.384 727.376 218.387 722.708 218.901C710.09 220.288 697.37 221.007 684.649 220.955C677.674 220.955 670.698 220.698 663.722 220.236C657.516 219.877 651.207 219.568 645.36 221.931C644.898 222.137 644.539 222.804 645.001 223.215C652.387 229.636 664.184 237.905 674.494 234.31C675.417 234.104 675.058 232.615 674.083 232.923Z" fill="#E8E8E8"/>
<path d="M438.859 504.276C438.397 501.349 442.552 501.811 444.193 502.376C445.475 502.787 446.706 503.301 448.04 503.455C451.22 503.866 454.349 502.787 457.324 501.811C460.196 500.835 463.222 499.756 466.3 500.065C469.993 500.424 472.968 503.455 472.404 507.358C471.788 511.416 467.633 513.316 463.94 512.186C461.427 511.416 459.222 509.824 456.606 509.413C451.066 508.591 445.27 513.419 439.936 510.851C439.064 510.44 438.243 511.724 439.166 512.186C442.347 513.727 445.527 513.008 448.758 512.084C450.81 511.519 452.964 510.8 455.118 510.851C457.632 510.902 459.683 512.135 461.889 513.06C465.018 514.395 468.3 514.652 471.07 512.392C473.429 510.491 474.455 507.461 473.737 504.533C471.583 496.058 461.837 498.678 455.99 500.63C453.22 501.554 450.297 502.427 447.322 501.811C445.424 501.4 443.629 500.219 441.577 500.27C439.115 500.321 436.91 502.119 437.32 504.687C437.525 505.663 439.013 505.252 438.859 504.276Z" fill="#E8E8E8"/>
<path d="M379.719 487.173C382.181 484.862 385.566 483.886 388.9 484.605C390.285 484.913 394.132 485.94 391.721 487.789C390.439 488.765 387.618 488.662 386.079 488.662C385.105 488.662 385.105 490.203 386.079 490.203C388.336 490.203 392.286 490.101 393.978 488.303C395.415 486.762 393.773 485.067 392.388 484.297C387.977 481.728 382.284 482.704 378.642 486.094C377.924 486.762 379.001 487.841 379.719 487.173Z" fill="#E8E8E8"/>
<path d="M351.201 521.227C350.791 521.073 350.432 520.919 350.021 520.765C349.97 521.176 349.919 521.587 349.867 521.998C352.996 519.738 356.535 521.381 359.869 522.152C362.69 522.82 365.152 522.511 367.922 521.844C371.359 521.022 374.847 520.508 378.386 520.303C380.027 520.2 381.668 520.149 383.31 520.097C384.848 520.046 388.695 519.275 387.362 521.895C385.772 525.028 381.155 525.131 378.334 524.206C375.924 523.436 373.667 522.306 371.102 522.922C368.435 523.539 366.178 525.234 363.408 525.799C359.715 526.569 356.074 526.21 352.535 524.925C351.611 524.617 351.201 526.055 352.124 526.415C355.612 527.648 359.254 528.059 362.947 527.442C367.101 526.723 370.794 523.487 375.103 524.669C378.18 525.542 380.694 526.929 383.976 525.953C386.079 525.336 389.054 523.487 389.465 521.125C389.978 518.351 386.541 518.454 384.746 518.505C380.591 518.608 376.385 518.813 372.231 519.43C369.974 519.789 367.82 520.405 365.614 520.816C362.896 521.33 360.69 520.816 358.074 520.097C354.997 519.224 351.816 518.71 349.047 520.662C348.636 520.97 348.534 521.484 348.893 521.895C349.662 522.768 350.483 522.974 351.56 522.768C352.586 522.563 352.176 521.073 351.201 521.227Z" fill="#E8E8E8"/>
<path d="M563.036 491.796C566.011 490.563 569.14 489.896 572.371 489.947C575.705 489.998 578.526 491.282 581.707 492.001C586.374 493.131 589.862 490.255 593.657 488.047C599.659 484.503 605.609 486.814 611.866 488.098C616.329 489.022 621.099 489.177 624.946 486.454C625.766 485.889 624.997 484.554 624.176 485.119C619.355 488.612 613.405 486.917 608.122 485.633C603.147 484.451 598.222 483.783 593.555 486.352C591.503 487.482 589.605 488.971 587.451 489.947C584.169 491.437 581.501 490.255 578.321 489.331C573.141 487.841 567.653 488.252 562.677 490.307C561.703 490.666 562.113 492.156 563.036 491.796Z" fill="#E8E8E8"/>
<path d="M206.404 238.881C210.969 237.134 218.97 246.534 222.92 252.698C228.972 261.994 229.947 270.11 232.922 288.909C234.05 296.203 235.897 307.759 238.41 322.347C242.924 326.764 244.616 331.078 245.283 333.749C246.206 337.191 246.463 341.608 245.283 342.019C244.001 342.481 241.744 338.167 240.821 338.578C239.59 339.143 243.59 346.077 241.18 349.261C238.718 352.497 229.485 351.983 224.664 347.207C220.15 342.738 221.945 337.037 221.227 323.425C220.971 318.803 220.253 306.218 216.406 293.788C211.687 278.636 206.763 277.866 203.993 264.46C202.044 255.009 201.48 240.781 206.404 238.881Z" fill="white" stroke="#161616" stroke-width="2" stroke-miterlimit="10"/>
<path opacity="0.15" d="M213.174 252.133C215.995 251.517 220.92 264.306 221.227 265.025C225.741 276.839 223.587 281.872 225.587 299.285C227.228 313.461 228.152 321.525 232.717 331.49C237.128 341.043 242.257 346.642 240.308 349.21C238.359 351.83 230.716 349.313 224.715 346.899C224.151 345.615 223.33 343.612 222.663 341.146C220.971 335.137 221.073 330.36 221.073 328.048C221.073 326.764 221.022 311.869 218.098 298.874C216.508 291.94 215.79 292.967 213.944 285.776C209.892 270.162 210.046 252.801 213.174 252.133Z" fill="#6D6C6C"/>
<path opacity="0.17" d="M220.099 276.992C220.663 282.334 221.381 290.295 221.689 300.003C222.15 314.95 221.432 327.38 221.022 327.38C220.663 327.38 221.124 318.443 219.175 306.218C217.893 298.103 215.995 291.528 214.559 287.162C215.534 286.186 216.713 284.851 217.79 283.002C219.124 280.639 219.791 278.482 220.099 276.992Z" fill="#6D6C6C"/>
<path d="M216.56 459.178C215.226 461.643 215.021 464.314 218.099 487.582C218.458 490.458 218.817 492.821 219.022 494.464C226.869 495.697 237.948 496.673 251.079 495.389C259.029 494.619 268.313 493.745 268.826 490.715C269.237 488.249 263.851 483.832 239.231 475.409C238.102 467.19 236.923 458.972 235.794 450.754C221.381 451.73 217.637 457.277 216.56 459.178Z" fill="#161616"/>
<path d="M185.631 312.741C190.452 319.315 197.325 328.766 205.378 340.323C224.459 367.648 233.999 381.311 237.333 390.454C247.181 417.522 244.616 443.821 243.642 452.758C243.078 457.894 242.359 462.106 241.795 464.983C237.897 466.472 232.306 468.116 225.484 468.681C219.381 469.194 214.149 468.629 210.302 467.962C209.122 460.976 208.148 453.117 207.686 444.591C207.019 431.904 207.635 420.553 208.815 410.845C195.633 400.727 187.118 390.3 181.938 383.057C168.089 363.488 164.396 346.538 162.19 335.649C159.061 320.548 161.216 316.439 163.216 314.281C169.884 307.347 184.348 312.33 185.631 312.741Z" fill="white" stroke="#161616" stroke-width="2" stroke-miterlimit="10"/>
<path opacity="0.19" d="M187.118 356.092C192.401 360.56 199.274 367.186 205.942 376.278C207.789 378.846 215.431 389.786 222.15 407.353C231.383 431.699 232.152 454.402 231.742 467.243C229.485 468.065 226.305 468.938 222.509 469.246C217.431 469.606 213.277 468.732 210.61 467.911C208.968 457.895 207.737 446.338 207.635 433.497C207.583 425.176 207.942 417.42 208.609 410.332C207.327 409.613 182.553 395.642 182.861 372.271C182.912 365.748 184.964 360.201 187.118 356.092Z" fill="#6D6C6C"/>
<path opacity="0.15" d="M193.735 395.436C194.863 393.895 208.968 398.21 214.559 408.688C218.765 416.547 215.38 422.607 215.534 433.805C215.636 442.177 217.791 454.093 227.074 468.527C221.689 468.424 216.303 468.321 210.866 468.218C209.379 458.665 208.199 447.776 207.891 435.808C207.635 426.357 207.943 417.625 208.558 409.664C206.558 408.637 203.993 407.044 201.275 404.682C198.248 402.011 192.914 396.566 193.735 395.436Z" fill="#6D6C6C"/>
<path d="M125.927 455.122C122.028 457.639 121.362 461.132 117.823 468.836C115.361 474.178 111.668 481.317 105.974 489.433C109.206 493.08 114.591 498.165 122.49 501.914C133.313 507.051 148.495 509.516 150.854 505.048C153.368 500.219 140.186 488.765 136.236 485.375C137.313 482.961 139.057 479.109 141.212 474.435C146.905 462.21 148.033 460.412 147.11 458.204C144.956 452.965 133.005 450.602 125.927 455.122Z" fill="#161616"/>
<path d="M142.391 301.133C139.314 309.608 136.185 318.083 133.107 326.506C128.03 341.197 130.235 351.366 131.876 356.246C133.672 361.639 136.8 366.262 143.007 375.456C147.828 382.544 152.188 388.246 155.368 392.201C149.008 398.827 141.776 407.404 134.954 418.191C125.773 432.778 120.336 446.492 117.002 457.227C120.028 459.538 124.593 462.466 130.594 464.675C137.313 467.14 143.263 467.705 147.315 467.757C154.445 462.261 164.19 453.683 173.269 441.099C180.399 431.288 189.99 418.088 193.068 399.597C198.299 368.111 181.219 342.481 175.116 333.338C164.088 316.747 150.854 306.68 142.391 301.133Z" fill="white" stroke="#161616" stroke-width="2" stroke-miterlimit="10"/>
<path d="M163.985 319.624C167.935 325.12 171.833 330.667 175.577 336.266C176.039 336.009 176.449 335.752 176.911 335.496C173.577 331.027 170.602 326.25 168.037 321.268C167.678 321.627 167.319 321.987 166.96 322.347C169.063 323.785 170.243 325.942 171.525 328.048C173.013 330.513 174.551 332.979 176.039 335.444C178.962 340.221 181.886 345.049 184.81 349.826C185.271 349.569 185.682 349.312 186.143 349.056C181.681 342.07 177.219 335.085 172.705 328.099C172.192 327.277 170.858 328.048 171.371 328.87C176.911 338.115 182.502 347.309 188.041 356.555C188.554 357.428 189.888 356.657 189.375 355.784C185.323 348.902 181.322 341.967 177.27 335.085C176.859 335.393 176.449 335.701 176.039 336.009C181.835 342.43 182.861 351.778 189.17 357.787C189.888 358.455 190.965 357.377 190.247 356.709C183.938 350.751 182.912 341.351 177.116 334.931C176.5 334.263 175.475 335.136 175.885 335.855C179.937 342.738 183.938 349.672 187.99 356.555C188.451 356.298 188.862 356.041 189.323 355.784C183.784 346.539 178.193 337.345 172.654 328.099C172.192 328.356 171.782 328.613 171.32 328.87C175.782 335.855 180.245 342.841 184.758 349.826C185.271 350.648 186.605 349.877 186.092 349.056C182.809 343.662 179.527 338.269 176.244 332.927C173.833 328.921 171.628 323.733 167.627 321.011C166.96 320.549 166.242 321.422 166.55 322.09C169.114 327.072 172.038 331.797 175.423 336.317C175.988 337.088 177.321 336.369 176.757 335.547C173.013 329.897 169.166 324.35 165.165 318.905C164.755 318.032 163.421 318.802 163.985 319.624Z" fill="white"/>
<path opacity="0.2" d="M167.217 321.884C164.549 325.736 160.856 332.106 159.266 340.478C154.394 365.852 174.91 377.1 170.345 399.341C167.935 411.052 161.831 409.973 148.187 434.319C141.263 446.698 136.852 457.587 134.236 464.983C130.902 463.956 127.26 462.621 123.413 460.874C121.157 459.847 119.054 458.82 117.156 457.741C120.182 448.29 124.747 436.888 131.62 424.663C139.416 410.846 147.982 400.06 155.214 392.098C153.214 389.53 150.239 385.627 146.802 380.747C137.313 367.29 132.492 360.407 130.902 352.497C129.107 343.765 130.594 336.317 131.62 331.284C133.159 323.682 135.775 317.724 137.878 313.666C147.623 316.388 157.42 319.162 167.217 321.884Z" fill="#6D6C6C"/>
<path opacity="0.17" d="M155.163 318.75C149.367 325.376 141.776 336.265 142.391 349.415C143.314 370.011 163.626 377.87 160.702 394.769C159.882 399.443 153.419 406.942 140.442 421.786C133.313 429.953 127.26 436.476 123.105 440.842C126.286 433.035 130.902 423.686 137.57 413.825C143.468 405.093 149.521 398.107 154.906 392.611C153.316 390.197 150.495 385.883 146.956 380.541C134.595 361.947 132.184 359.02 130.799 352.548C129.158 344.946 130.235 338.525 131.056 333.749C132.543 324.863 135.672 318.031 138.031 313.717C143.725 315.36 149.469 317.055 155.163 318.75Z" fill="#6D6C6C"/>
<path d="M181.681 229.378C174.398 233.692 160.549 243.194 149.983 260.658C136.544 282.898 136.544 304.625 137.006 313.049C139.519 313.871 142.084 314.693 144.7 315.463C162.19 320.702 179.117 324.246 195.12 326.506C196.453 321.935 197.889 317.312 199.428 312.535C201.736 305.498 204.147 298.77 206.609 292.349C215.123 287.932 218.098 282.231 219.073 279.868C223.022 270.623 219.278 260.966 215.226 250.539C212.969 244.684 211.789 241.705 208.968 238.52C200.146 228.504 185.579 229.121 181.681 229.378Z" fill="#FF3C26"/>
<path opacity="0.27" d="M198.966 241.55C184.964 243.399 177.475 249.769 174.449 252.748C157.369 269.646 163.267 298.153 164.857 305.858C166.294 312.792 168.448 318.339 170.14 322.089C159.318 319.161 148.547 316.182 137.724 313.254C137.057 305.395 136.39 285.21 148.034 263.688C158.856 243.759 174.398 233.538 181.322 229.531C182.297 229.583 183.271 229.685 184.246 229.737C185.733 231.483 187.528 233.332 189.734 235.233C193.017 238.109 196.248 240.112 198.966 241.55Z" fill="#6D6C6C"/>
<path opacity="0.2" d="M154.086 254.443C152.65 261.994 151.47 272.934 153.009 285.878C154.855 301.082 159.728 312.844 163.524 320.24C154.702 317.98 145.828 315.72 137.006 313.512C136.596 306.423 136.801 295.791 140.186 283.567C143.879 270.212 149.829 260.453 154.086 254.443Z" fill="#6D6C6C"/>
<path d="M587.708 424.149C584.476 431.391 585.092 438.171 585.605 441.356C595.709 445.825 604.685 447.879 611.558 448.906C613.815 449.266 641.718 453.221 644.436 445.568C645.103 443.667 644.026 441.715 642.949 439.815C636.948 429.285 621.765 428.669 619.714 428.618C619.149 417.677 612.122 409.562 604.942 408.997C594.786 408.226 588.426 422.557 587.708 424.149Z" fill="#161616"/>
<path d="M601.043 247.457C607.711 257.062 616.687 272.009 623.201 291.835C633.819 324.143 632.075 351.263 630.895 366.621C629.869 380.284 627.1 399.699 619.355 422.094C617.252 423.429 607.968 428.976 596.222 426.459C589.246 424.97 584.527 421.272 582.27 419.217C586.425 410.074 591.452 396.309 593.35 379.154C595.452 360.457 592.888 345.819 589.503 327.019C581.809 284.542 571.191 268.413 580.373 256.548C584.784 250.796 592.324 248.227 601.043 247.457Z" fill="white" stroke="#161616" stroke-width="2" stroke-miterlimit="10"/>
<path opacity="0.16" d="M604.685 270.93C608.173 287.931 610.943 307.449 612.02 329.125C613.866 367.596 609.712 400.777 604.326 426.613C602.018 426.921 596.427 427.281 590.477 424.302C586.938 422.504 584.527 420.141 583.143 418.498C589.554 403.705 591.862 391.121 592.785 382.646C594.222 369.342 593.042 358.659 590.836 338.73C589.554 327.07 588.067 317.517 586.989 310.993C592.888 297.69 598.787 284.284 604.685 270.93Z" fill="#6D6C6C"/>
<path opacity="0.22" d="M593.452 296.51C597.863 308.015 604.48 329.948 602.223 357.838C600.069 384.701 590.631 404.682 584.63 415.263C594.683 386.191 595.196 368.368 593.657 357.324C593.247 354.499 591.503 343.302 589.503 326.814C588.682 319.983 588.066 314.384 587.707 310.789C589.657 306.012 591.554 301.235 593.452 296.51Z" fill="#6D6C6C"/>
<path d="M513.488 401.909C509.231 404.015 507.949 407.456 502.101 418.602C498.203 425.998 494.92 431.905 492.766 435.706C499.331 440.432 509.744 446.647 523.644 449.934C531.851 451.886 548.931 454.608 550.88 449.934C553.034 444.746 535.492 432.778 528.106 427.95C535.698 420.554 536.057 409.819 530.927 404.323C526.568 399.649 518.669 399.341 513.488 401.909Z" fill="#161616"/>
<path d="M587.861 246.38C604.788 261.326 584.989 311.149 568.73 351.007C561.703 368.214 550.726 393.126 534.569 422.249C531.748 422.66 523.285 423.482 514.258 418.602C505.179 413.722 501.229 406.069 500.05 403.552C504.769 395.386 510.462 384.394 515.899 370.988C518.053 365.697 527.337 342.07 532.569 308.684C534.62 295.483 536.467 278.071 536.21 257.371C539.237 254.29 556.112 237.699 576.064 241.5C579.09 242.065 584.066 243.041 587.861 246.38Z" fill="white" stroke="#161616" stroke-width="2" stroke-miterlimit="10"/>
<path d="M593.35 266.925C593.298 268.723 593.247 270.521 593.247 272.318C593.76 272.318 594.273 272.318 594.786 272.318C594.529 269.442 594.683 266.72 595.247 263.895C594.734 263.843 594.222 263.741 593.76 263.689C594.068 269.75 592.683 276.119 591.606 282.077C590.528 288.087 589.092 294.045 587.4 299.901C587.913 300.055 588.374 300.157 588.887 300.312C591.708 289.628 594.068 278.893 596.017 268.004C596.171 267.028 594.683 266.617 594.529 267.593C592.58 278.431 590.221 289.217 587.4 299.901C587.143 300.877 588.631 301.287 588.887 300.312C590.682 294.148 592.119 287.83 593.247 281.512C594.273 275.76 595.606 269.545 595.299 263.689C595.247 262.867 593.965 262.611 593.811 263.484C593.196 266.411 593.042 269.339 593.298 272.318C593.401 273.294 594.837 273.346 594.837 272.318C594.888 270.521 594.94 268.723 594.94 266.925C594.94 265.949 593.401 265.949 593.35 266.925Z" fill="white"/>
<path d="M586.835 296.665C586.887 300.62 586.989 304.575 587.041 308.53C587.041 309.506 588.579 309.506 588.579 308.53C588.528 304.575 588.426 300.62 588.374 296.665C588.323 295.637 586.784 295.637 586.835 296.665Z" fill="white"/>
<path opacity="0.19" d="M565.498 262.354C565.652 272.678 565.088 286.751 562.062 303.085C558.83 320.394 553.906 333.8 546.725 353.986C540.878 370.525 538.057 375.456 532.107 393.793C528.465 404.939 525.901 414.287 524.259 420.554C521.438 420.194 515.591 419.013 509.744 414.647C504.307 410.589 501.537 405.761 500.306 403.244C509.744 386.654 515.745 372.118 519.541 361.537C531.286 328.818 534.056 300.363 535.646 282.848C536.313 275.554 536.672 269.493 536.826 265.538C546.366 264.459 555.958 263.432 565.498 262.354Z" fill="#6D6C6C"/>
<path opacity="0.24" d="M560.215 263.844C556.214 281.461 551.598 295.33 547.956 305.037C544.981 313.05 540.416 323.837 531.338 345.358C528.004 353.319 526.311 357.274 525.49 359.072C520.464 370.372 512.411 386.243 499.537 404.94C511.077 384.189 524.311 354.603 531.338 317.313C534.877 298.514 536.159 281.359 536.313 266.515C536.262 266.463 536.262 266.463 560.215 263.844Z" fill="#6D6C6C"/>
<path d="M576.424 137.539C577.244 139.542 578.68 142.47 581.296 145.449C583.194 147.606 585.605 150.38 589.195 151.458C596.171 153.616 602.941 148.068 603.865 147.298C610.635 151.304 617.406 155.311 624.125 159.317C624.74 167.689 624.792 180.325 621.509 195.066C618.38 209.088 615.354 210.783 612.892 224.395C609.148 244.838 611.917 263.072 610.994 263.123C610.84 263.123 610.635 262.712 610.225 260.503C583.81 262.507 557.394 264.51 530.979 266.513C530.21 250.642 530.312 237.287 530.62 227.425C531.03 212.016 532.261 193.371 537.39 171.747C541.032 156.287 543.904 151.047 548.264 146.938C557.702 137.95 570.628 137.385 576.424 137.539Z" fill="#6944B8"/>
<path opacity="0.3" d="M606.994 149.146C606.122 158.546 604.48 172.517 601.352 189.262C600.428 194.295 597.812 208.163 595.709 214.943C593.145 223.264 583.143 247.046 534.21 266.358C549.136 264.612 564.524 263.071 580.271 261.787C590.119 260.965 599.864 260.246 609.456 259.681C612.841 247.611 615.97 233.948 618.227 218.847C621.663 195.99 622.33 175.342 621.766 157.93C616.842 155.002 611.918 152.074 606.994 149.146Z" fill="#32198E"/>
<path d="M585.861 106.618C584.066 115.812 583.245 125.982 575.808 137.231C574.782 138.772 573.91 139.953 573.294 140.724C573.91 141.957 580.424 154.592 594.273 156.492C602.172 157.571 608.378 154.541 610.738 153.257C610.379 150.175 610.173 146.477 610.481 142.316C610.891 136.204 612.174 131.119 613.456 127.267C619.406 126.496 625.304 125.726 631.254 124.955C632.434 122.336 633.563 119.716 634.742 117.045C636.384 116.994 637.974 116.942 639.615 116.891C638.384 113.296 636.537 107.594 634.383 100.557C630.382 87.3056 630.434 85.4051 628.279 82.4261C622.33 74.2592 608.994 69.0715 600.223 73.4374C591.76 77.5979 589.195 89.4629 585.861 106.618Z" fill="white" stroke="#161616" stroke-width="2" stroke-miterlimit="10"/>
<path d="M639.359 116.172C636.435 116.223 633.563 116.018 630.69 115.607C629.716 115.453 629.305 116.942 630.28 117.096C633.306 117.559 636.281 117.764 639.359 117.713C640.384 117.713 640.384 116.172 639.359 116.172Z" fill="#161616"/>
<path d="M641.41 92.5963C638.794 91.1581 635.665 91.9799 633.973 94.394C633.409 95.2158 634.742 95.9863 635.306 95.1645C636.486 93.4695 638.846 92.9559 640.641 93.9318C641.513 94.394 642.282 93.0586 641.41 92.5963Z" fill="#161616"/>
<path d="M640.077 101.842C640.333 100.661 640.282 99.4795 639.718 98.4008C639.307 97.6304 638.435 96.7058 637.461 97.1167C636.435 97.5276 636.486 98.9658 636.691 99.839C636.897 100.918 637.461 101.894 638.281 102.613C638.743 103.024 639.615 102.767 639.615 102.048C639.615 100.764 639.307 99.6336 638.743 98.4522C638.333 97.579 636.999 98.3495 637.41 99.2226C637.82 100.096 638.025 101.02 638.076 101.996C638.538 101.791 638.948 101.637 639.41 101.431C638.538 100.712 638.23 99.7877 638.179 98.709C638.23 98.6063 638.179 98.5035 638.025 98.5035C638.128 98.5549 638.23 98.6576 638.281 98.7604C638.435 98.9658 638.589 99.274 638.641 99.5308C638.846 100.147 638.846 100.712 638.692 101.329C638.333 102.407 639.82 102.818 640.077 101.842Z" fill="#161616"/>
<path d="M626.536 94.6499C623.561 93.674 620.432 94.9067 618.688 97.4749C618.124 98.2967 619.457 99.0672 620.022 98.2454C621.355 96.2422 623.817 95.4204 626.125 96.1395C627.049 96.3963 627.459 94.9581 626.536 94.6499Z" fill="#161616"/>
<path d="M627.356 103.229C627.459 101.842 626.894 99.6847 625.458 99.1197C623.561 98.3492 623.561 101.02 623.766 102.15C624.022 103.28 624.945 105.386 626.484 104.513C627.1 104.153 627.202 103.486 626.997 102.869C626.638 101.893 626.074 101.02 625.663 100.096C625.253 100.404 624.843 100.712 624.432 101.02C624.638 101.226 624.792 101.431 624.843 101.739C625.099 102.715 626.587 102.304 626.33 101.328C626.176 100.763 625.92 100.352 625.51 99.9415C624.843 99.3251 623.92 100.096 624.279 100.866C624.484 101.226 624.638 101.585 624.843 101.996C624.997 102.304 625.151 102.869 625.407 103.126C625.51 103.486 625.612 103.486 625.766 103.126C625.715 103.023 625.612 102.869 625.561 102.767C625.407 102.458 625.304 102.15 625.253 101.791C625.202 101.482 625.253 101.072 625.151 100.763C625.202 100.558 625.151 100.507 625.099 100.763C625.202 100.917 625.356 101.072 625.407 101.226C625.766 101.842 625.869 102.561 625.817 103.28C625.715 104.205 627.254 104.205 627.356 103.229Z" fill="#161616"/>
<path d="M630.331 85.7136C629.921 82.9913 628.844 78.5741 625.971 74.0027C624.945 72.4104 622.74 68.9691 619.252 66.6577C612.584 62.2404 602.326 62.6 594.837 67.9931C587.554 73.2836 583.912 82.7859 585.502 92.1854C600.479 90.0282 615.405 87.8709 630.331 85.7136Z" fill="#FF3C26"/>
<path d="M654.849 80.7836C631.819 83.7113 608.84 86.639 585.81 89.5668C582.886 89.9263 582.886 94.5491 585.81 94.1895C608.84 91.2618 631.819 88.334 654.849 85.4063C657.721 85.0468 657.772 80.424 654.849 80.7836Z" fill="#161616"/>
<path d="M600.428 91.57C604.48 93.0595 606.84 95.8845 609.609 99.2745C615.405 106.363 613.661 108.982 617.765 113.4C624.227 120.436 630.793 116.276 636.589 123.159C641.513 129.014 640.846 136.924 640.641 138.67C640.436 140.417 639.564 147.454 633.87 152.282C628.946 156.442 622.227 157.418 621.817 156.494C621.663 156.134 622.227 155.312 625.869 152.847C624.792 153.617 623.15 154.542 620.945 154.953C618.432 155.415 616.072 154.953 616.021 154.593C616.021 154.336 617.354 154.336 618.38 153.206C618.996 152.539 619.252 151.768 619.406 151.101C617.406 152.436 614.841 153.566 612.43 152.847C605.865 150.844 604.685 136.102 604.275 131.223C603.044 115.403 607.558 106.774 602.069 101.226C601.608 100.764 599.402 98.5041 596.991 98.9664C593.914 99.5314 591.555 104.36 592.58 107.544C593.452 110.266 596.53 111.037 596.325 111.55C596.017 112.218 590.836 111.191 586.477 107.698C584.887 106.414 583.604 105.387 582.938 103.486C581.758 100.199 583.143 96.4495 584.989 94.2409C588.836 89.6182 596.017 89.9263 600.428 91.57Z" fill="#161616" stroke="#161616" stroke-width="2" stroke-miterlimit="10"/>
<path opacity="0.22" d="M594.324 111.96C595.299 112.063 596.684 112.115 596.786 111.755C596.838 111.601 596.478 111.344 596.478 111.344C596.478 111.344 597.658 112.834 599.094 113.039C599.812 113.142 600.377 112.885 600.787 112.68C598.171 118.175 595.504 124.853 593.298 132.557C590.99 140.519 589.708 147.812 589.041 154.027C586.784 153.308 582.681 151.665 578.885 147.966C576.116 145.295 574.526 142.47 573.602 140.57C576.68 135.947 578.475 131.89 579.552 129.116C580.527 126.548 580.886 124.853 582.63 118.997C584.066 114.272 585.194 110.368 585.964 107.697C586.374 108.057 586.99 108.622 587.81 109.187C588.99 110.009 591.298 111.601 594.324 111.96Z" fill="#6D6C6C"/>
<path d="M610.892 63.8841C604.89 65.0654 600.428 69.8936 599.761 75.595C598.94 82.375 603.916 86.9978 604.377 87.4087C598.017 88.1791 591.657 89.0009 585.297 89.7714C585.194 88.2818 585.143 86.2273 585.502 83.8646C586.733 76.2627 591.144 71.5886 592.067 70.6127C593.555 69.0718 598.787 64.0895 606.532 63.6273C608.327 63.5245 609.814 63.73 610.892 63.8841Z" fill="#B74949"/>
<path d="M622.586 158.805C626.689 158.189 630.895 165.328 632.844 168.616C644.128 187.826 639.41 210.015 637.973 216.486C636.845 221.571 634.742 230.56 628.177 240.473C621.919 250.027 614.533 255.934 609.814 259.17C601.915 262.2 587.553 266.361 570.268 263.536C564.267 262.56 559.035 260.916 554.675 259.17C547.289 259.632 539.903 260.043 532.517 260.505C531.337 260.3 529.696 259.992 527.747 259.272C525.388 258.399 523.131 257.526 523.131 256.704C523.131 255.78 525.695 254.342 538.211 252.39C537.595 252.492 529.388 254.085 523.9 248.332C518.771 242.99 518.463 233.847 522.361 230.252C525.644 227.221 530.978 228.557 540.724 231.176C550.367 233.745 558.112 237.237 563.754 240.217C565.908 241.192 582.681 248.435 598.017 239.6C609.711 232.872 613.61 220.801 614.533 217.462C618.226 204.211 611.507 199.536 613.917 180.378C614.225 177.091 616.431 159.678 622.586 158.805Z" fill="white" stroke="#161616" stroke-width="2" stroke-miterlimit="10"/>
<path d="M520.413 241.706C526.362 242.168 532.056 243.606 537.493 246.071C538.365 246.482 539.185 245.147 538.262 244.736C532.569 242.116 526.619 240.576 520.413 240.113C519.438 240.113 519.438 241.654 520.413 241.706Z" fill="#161616"/>
<path d="M520.053 235.439C526.875 235.233 532.671 239.394 539.032 241.346C539.955 241.654 540.365 240.164 539.442 239.856C532.979 237.853 527.081 233.693 520.053 233.898C519.079 233.949 519.028 235.49 520.053 235.439Z" fill="#161616"/>
<path d="M526.619 229.995C532.21 230.457 537.134 233.128 541.955 235.851C542.827 236.313 543.597 235.029 542.725 234.515C537.647 231.69 532.518 228.968 526.619 228.454C525.593 228.352 525.593 229.892 526.619 229.995Z" fill="#161616"/>
<path opacity="0.18" d="M616.328 168.257C613.302 180.43 621.355 188.648 624.073 202.568C624.535 205.033 628.177 225.014 617.508 239.19C605.608 255.01 582.014 255.575 577.398 255.729C565.344 256.037 560.779 252.493 541.904 253.469C540.109 253.572 523.695 254.496 523.541 256.808C523.49 258.04 528.055 259.427 531.492 259.89C536.005 260.506 538.365 259.479 544.109 259.016C546.571 258.811 550.111 258.657 554.47 259.016C559.702 261.174 566.473 263.28 574.577 264.101C576.782 264.307 583.655 264.923 592.478 263.639C592.478 263.639 599.864 262.612 605.711 260.557C620.227 255.524 634.588 234.31 638.64 211.197C643.205 185.155 633.05 165.534 627.356 161.169C626.587 160.552 624.381 158.857 622.073 159.422C618.329 160.244 616.79 166.356 616.328 168.257Z" fill="#6D6C6C"/>
<path opacity="0.17" d="M637.974 183.717C637.153 183.717 637.153 193.527 634.896 205.855C633.511 213.354 630.69 228.609 623.868 239.241C611.712 258.194 586.887 262.457 577.449 263.587C585.553 264.717 598.017 264.974 610.173 258.502C636.537 244.429 639.102 210.477 639.564 204.314C640.282 193.938 638.794 183.717 637.974 183.717Z" fill="#6D6C6C"/>
<path d="M195.068 378.076C216.303 359.174 237.641 340.375 259.081 321.73C299.499 286.546 340.276 251.824 381.463 217.513C378.232 207.908 374.077 191.267 376.539 171.029C377.308 164.609 383.874 117.303 427.164 92.8538C430.755 90.7992 480.456 63.8846 527.029 93.5729C557.753 113.142 573.654 148.84 569.909 183.716C564.37 235.542 518.412 258.502 515.745 259.786C482.611 275.606 442.757 270.932 413.059 247.818C368.435 284.594 323.914 321.422 279.443 358.353C259.953 374.532 240.513 390.712 221.073 406.943C217.021 404.991 210.302 401.087 204.25 393.948C199.172 387.99 196.505 382.031 195.068 378.076Z" fill="#161616"/>
<path d="M474.25 253.159C519.178 253.159 555.599 218.205 555.599 175.086C555.599 131.968 519.178 97.0137 474.25 97.0137C429.322 97.0137 392.901 131.968 392.901 175.086C392.901 218.205 429.322 253.159 474.25 253.159Z" fill="white" stroke="#161616" stroke-width="2" stroke-miterlimit="10"/>
<path d="M480.867 101.329C465.992 132.866 450.348 164.095 433.986 194.913C429.37 203.594 424.702 212.274 419.983 220.903C419.522 221.777 420.855 222.547 421.317 221.674C438.089 191.061 454.144 160.089 469.429 128.706C473.737 119.871 477.994 110.985 482.251 102.048C482.662 101.226 481.328 100.456 480.867 101.329Z" fill="#E8E8E8"/>
<path d="M505.948 108.982C489.638 134.767 474.147 161.013 459.427 187.722C458.965 188.596 460.299 189.366 460.76 188.493C475.481 161.784 490.971 135.537 507.282 109.752C507.795 108.931 506.461 108.16 505.948 108.982Z" fill="#E8E8E8"/>
<path d="M456.708 196.762C449.938 209.963 442.706 222.958 434.96 235.645C434.448 236.518 435.781 237.288 436.294 236.415C443.988 223.728 451.271 210.733 458.042 197.533C458.503 196.66 457.17 195.838 456.708 196.762Z" fill="#E8E8E8"/>
<path d="M485.175 158.24C476.558 174.471 467.992 190.702 459.375 206.932C458.914 207.806 460.247 208.576 460.709 207.703C469.326 191.472 477.892 175.241 486.509 159.01C486.97 158.137 485.637 157.367 485.175 158.24Z" fill="#E8E8E8"/>
<path opacity="0.08" d="M471.839 96.7578C466.146 98.8124 428.652 112.886 416.649 150.587C415.264 154.953 410.956 169.027 414.187 185.309C420.394 216.332 451.374 241.449 491.895 249.873C488.817 250.9 484.509 252.133 479.174 252.801C446.963 256.858 421.984 234.875 419.06 232.255C412.7 226.451 393.055 206.727 392.696 175.498C392.645 172.776 392.799 141.958 416.136 119.717C429.729 106.774 445.629 102.048 452.297 100.148C460.094 97.9392 466.915 97.1174 471.839 96.7578Z" fill="#6D6C6C"/>
<path d="M171.679 255.214C175.372 254.751 180.912 254.7 184.964 257.987C193.683 265.076 186.964 280.485 191.273 296.767C193.581 305.499 199.685 317.261 217.431 328.921C224.458 332.465 230.306 335.136 234.358 336.985C240.154 339.604 243.847 341.094 243.795 343.097C243.744 345.1 240.102 346.59 237.487 347.463C240.615 350.391 242.205 354.089 241.128 356.914C240.308 359.122 238.051 360.201 235.537 361.434C232.665 362.872 230.254 363.18 227.485 363.54C222.304 364.207 219.74 364.516 217.38 363.54C213.738 361.999 212.097 358.609 209.686 353.729C208.353 351.058 206.711 346.898 205.84 341.505C200.044 338.834 191.734 334.211 183.476 326.455C180.245 323.425 150.29 294.661 159.728 269.801C161.164 266.308 164.191 260.658 171.679 255.214Z" fill="white" stroke="#161616" stroke-width="2" stroke-miterlimit="10"/>
<path d="M217.534 357.17C218.816 359.995 220.766 362.358 223.279 364.258C224.048 364.875 224.818 363.539 224.048 362.923C221.791 361.228 220.047 358.968 218.868 356.4C218.457 355.527 217.124 356.297 217.534 357.17Z" fill="#161616"/>
<path d="M223.689 356.348C225.228 359.327 227.536 361.792 230.357 363.642C231.178 364.155 231.947 362.82 231.127 362.306C228.511 360.662 226.408 358.351 224.972 355.577C224.561 354.704 223.228 355.475 223.689 356.348Z" fill="#161616"/>
<path d="M230.152 352.856C231.588 355.887 234.05 358.301 237.076 359.739C237.948 360.15 238.769 358.814 237.846 358.403C235.025 357.068 232.819 354.911 231.485 352.086C231.024 351.161 229.742 351.931 230.152 352.856Z" fill="#161616"/>
<path opacity="0.2" d="M172.961 255.316C171.833 260.401 170.602 268.414 171.679 278.071C174.5 302.52 190.298 318.648 192.914 321.267C205.942 334.211 214.457 332.465 219.637 344.022C221.022 347.103 223.484 354.089 230.152 357.736C232.768 359.122 235.23 359.636 236.871 359.842C235.999 360.561 234.563 361.537 232.665 362.358C229.485 363.745 226.715 363.797 222.355 363.848C219.124 363.899 217.483 363.899 216.047 363.232C213.02 361.845 211.584 358.968 211.02 357.53C208.968 351.983 206.968 346.436 204.916 340.888C194.914 335.752 180.758 326.609 169.576 310.943C164.909 304.42 157.112 293.223 157.779 279.766C158.087 273.653 160.036 269.39 160.498 268.363C164.139 260.812 170.192 256.909 172.961 255.316Z" fill="#6D6C6C"/>
<path opacity="0.32" d="M158.446 282.9C158.754 282.797 160.703 288.961 164.55 296.152C173.936 313.923 187.477 324.813 197.171 332.414C201.582 335.856 205.327 338.424 207.686 340.016C210.559 344.844 212.2 349.005 213.174 352.035C213.995 354.552 214.457 356.812 216.355 359.175C218.304 361.743 220.817 363.181 222.663 364.003C221.279 364.054 219.176 363.952 216.97 362.924C212.764 360.973 210.918 356.915 208.968 352.6C207.84 350.135 206.506 346.437 205.788 341.66C179.014 328.1 168.961 310.996 165.165 302.88C161.267 294.559 158.036 283.105 158.446 282.9Z" fill="#6D6C6C"/>
<path d="M200.915 208.319C197.273 209.757 199.428 216.948 193.58 223.472C190.708 226.707 187.22 228.248 184.81 229.122C186.348 231.433 189.375 235.182 194.35 238.162C197.889 240.319 201.274 241.346 203.634 241.808C204.403 240.422 205.685 238.264 207.275 235.696C212.969 226.707 215.02 225.732 215.328 222.752C216.098 215.459 205.583 206.47 200.915 208.319Z" fill="white" stroke="#161616" stroke-width="2" stroke-miterlimit="10"/>
<path d="M200.249 222.188C202.352 226.4 204.557 230.56 208.045 233.796C208.763 234.464 209.84 233.385 209.122 232.717C205.737 229.584 203.634 225.475 201.582 221.417C201.12 220.544 199.787 221.315 200.249 222.188Z" fill="#161616"/>
<path d="M198.71 219.413C201.069 224.036 203.634 228.607 208.147 231.432C208.917 231.895 209.686 230.867 209.071 230.2C207.583 228.607 206.044 227.015 204.608 225.423C204.249 225.782 203.89 226.142 203.531 226.501C204.403 227.426 205.326 228.299 206.352 229.018C206.711 229.275 207.84 229.789 208.045 230.097C208.353 230.61 208.045 231.432 207.891 231.946C208.404 232.1 208.865 232.203 209.378 232.357C209.43 232.1 209.43 231.843 209.481 231.638C209.584 230.97 208.763 230.251 208.199 230.867C208.199 230.302 208.045 229.737 207.686 229.275C207.224 229.532 206.814 229.789 206.352 230.045C206.916 230.816 207.481 231.586 208.045 232.357C208.455 232.049 208.865 231.74 209.276 231.432C208.814 230.919 208.455 230.405 208.096 229.84C207.634 229.172 206.352 229.583 206.711 230.456C207.019 231.124 207.122 231.381 207.583 231.946C208.199 232.716 209.276 231.638 208.66 230.867C208.506 230.61 208.353 230.354 208.199 230.045C207.737 230.251 207.275 230.456 206.814 230.662C207.275 231.33 207.737 231.946 208.25 232.562C208.814 233.23 209.994 232.357 209.481 231.638C208.917 230.867 208.353 230.097 207.788 229.326C207.224 228.505 206.044 229.224 206.455 230.097C206.968 231.124 207.993 233.538 209.378 231.997C208.968 231.74 208.506 231.484 208.096 231.227C208.045 231.484 208.045 231.74 207.993 231.946C207.84 232.922 209.225 233.333 209.481 232.357C209.84 231.124 210.712 230.559 209.686 229.326C209.225 228.761 208.455 228.505 207.891 228.145C206.711 227.375 205.685 226.45 204.711 225.423C204.044 224.704 202.967 225.782 203.634 226.501C205.121 228.094 206.609 229.686 208.096 231.278C208.404 230.867 208.712 230.456 209.019 230.045C204.762 227.375 202.403 222.957 200.146 218.591C199.582 217.718 198.248 218.54 198.71 219.413Z" fill="#161616"/>
<path d="M248.104 194.709C247.078 199.28 244.975 206.06 240.154 213.045C231.69 225.321 220.201 230.509 215.277 232.41C212.456 231.331 208.763 229.431 205.275 226.195C195.735 217.309 195.017 205.135 194.914 202.002C193.888 201.745 192.401 201.18 191.119 199.948C187.836 196.763 187.067 190.445 190.093 187.826C193.529 184.847 200.095 188.494 200.813 188.853C202.403 189.726 203.531 190.805 204.249 191.627C207.07 183.1 213.841 176.68 221.894 175.345C232.87 173.547 244.872 181.56 248.104 194.709Z" fill="white" stroke="#161616" stroke-width="2" stroke-miterlimit="10"/>
<path d="M235.691 206.984C233.64 211.607 230.614 215.562 226.715 218.797C225.946 219.414 227.023 220.492 227.793 219.876C231.845 216.589 234.922 212.531 237.025 207.754C237.435 206.83 236.102 206.059 235.691 206.984Z" fill="#161616"/>
<path d="M224.766 215.357C224.561 217.103 225.176 218.798 226.356 220.082C227.023 220.802 228.1 219.723 227.433 219.004C226.51 217.977 226.151 216.744 226.305 215.357C226.407 214.381 224.869 214.381 224.766 215.357Z" fill="#161616"/>
<path d="M221.637 206.573C222.971 204.724 224.561 203.081 226.356 201.591C225.946 201.334 225.484 201.078 225.074 200.821C224.407 202.875 222.971 204.519 221.073 205.546C221.381 205.957 221.689 206.368 221.996 206.779C223.176 205.341 224.356 203.954 225.535 202.516C226.151 201.745 225.074 200.667 224.458 201.437C223.279 202.875 222.099 204.262 220.919 205.7C220.355 206.368 221.073 207.344 221.842 206.933C224.099 205.7 225.741 203.697 226.561 201.283C226.818 200.461 225.843 200.102 225.279 200.513C223.381 202.053 221.74 203.8 220.355 205.803C219.739 206.625 221.073 207.395 221.637 206.573Z" fill="#161616"/>
<path d="M238.666 211.094C239.333 209.964 240.205 208.988 241.179 208.115C240.769 207.858 240.307 207.601 239.897 207.344C239.436 208.885 238.512 210.272 237.179 211.248C237.538 211.556 237.948 211.813 238.307 212.121C238.615 211.299 239.076 210.529 239.641 209.861C240.256 209.091 239.179 208.012 238.564 208.782C237.845 209.707 237.281 210.631 236.871 211.71C236.614 212.326 237.486 212.994 237.999 212.583C239.641 211.351 240.82 209.758 241.385 207.806C241.641 207.036 240.667 206.574 240.102 207.036C239.025 207.961 238.102 209.091 237.333 210.323C236.768 211.145 238.102 211.916 238.666 211.094Z" fill="#161616"/>
<path d="M216.354 202.772C217.124 204.569 217.534 206.419 217.534 208.319C217.534 208.833 218.303 208.833 218.303 208.319C218.303 206.264 217.842 204.261 217.021 202.361C216.816 201.899 216.149 202.309 216.354 202.772Z" fill="#161616"/>
<path d="M214.2 201.437C214.713 202.258 215.072 203.08 215.38 203.953C215.533 204.416 216.251 204.21 216.098 203.748C215.79 202.772 215.38 201.899 214.867 201.026C214.61 200.615 213.943 201.026 214.2 201.437Z" fill="#161616"/>
<path d="M226.048 197.225C227.946 196.66 229.741 197.945 229.793 199.948C229.793 200.667 230.972 200.718 230.972 199.948C230.87 197.225 228.408 195.376 225.741 196.095C225.023 196.301 225.33 197.431 226.048 197.225Z" fill="#161616"/>
<path d="M239.795 204.775C240.615 204.262 241.59 204.21 242.462 204.724C243.077 205.135 243.693 204.107 243.026 203.748C241.846 203.029 240.359 203.029 239.23 203.799C238.615 204.21 239.179 205.186 239.795 204.775Z" fill="#161616"/>
<path d="M214.764 217.977C215.995 220.185 218.098 221.778 220.56 222.445C221.535 222.702 221.945 221.213 220.971 220.956C218.868 220.391 217.175 219.107 216.098 217.206C215.585 216.333 214.251 217.104 214.764 217.977Z" fill="#161616"/>
<path d="M204.198 193.681C205.326 191.729 208.045 187.569 213.277 184.693C216.867 182.689 220.252 182.124 222.304 181.919C223.432 183.408 225.279 185.36 227.997 186.593C234.409 189.521 239.589 185.668 243.385 188.237C245.385 189.572 247.386 192.808 246.616 201.643C250.002 205.135 252.258 205.341 253.489 205.084C258.619 204.057 262.312 192.5 259.08 184.076C258.106 181.559 256.823 180.121 245.95 171.441C230.613 159.216 228.716 158.497 226.715 158.035C216.149 155.569 206.814 160.911 205.224 161.836C203.172 163.017 202.711 163.582 190.965 175.961C181.835 185.566 180.963 186.439 180.142 188.802C177.988 194.76 178.398 203.389 183.886 209.707C189.067 215.613 196.043 216.487 197.838 216.692C197.068 214.946 196.248 212.48 195.837 209.45C195.325 205.546 195.837 202.31 196.299 200.204C195.94 199.948 193.888 198.253 193.734 195.376C193.632 193.27 194.606 190.599 196.863 189.726C199.377 188.75 202.813 190.24 204.198 193.681Z" fill="#6944B8"/>
<path d="M201.992 167.845C199.889 163.684 193.734 163.068 192.657 162.965C184.092 162.092 177.218 169.745 173.166 174.214C165.986 182.175 168.037 184.538 161.062 194.143C151.829 206.881 144.905 207.446 143.468 216.229C143.366 216.897 142.084 225.732 147.931 231.073C152.957 235.696 161.062 235.748 166.396 232.974C173.628 229.224 173.013 221.674 178.244 208.987C188.503 184.23 206.045 175.857 201.992 167.845Z" fill="#6944B8"/>
<path opacity="0.12" d="M210.251 186.541C208.609 190.65 206.66 197.173 206.763 205.34C206.917 218.386 212.251 227.94 214.918 232.049C211.994 230.816 207.122 228.197 202.865 223.061C201.121 220.955 197.017 215.972 195.94 208.319C195.427 204.878 195.735 202.001 196.043 200.05C195.735 199.793 193.632 197.892 193.735 194.913C193.786 192.961 194.812 190.342 197.017 189.571C199.479 188.698 202.865 190.291 204.198 193.732C204.711 192.705 205.429 191.421 206.506 190.085C207.84 188.493 209.173 187.363 210.251 186.541Z" fill="#6D6C6C"/>
<path opacity="0.13" d="M201.223 224.139C200.813 225.064 200.351 225.988 199.787 226.913C197.222 231.227 193.888 234.104 191.273 235.85C190.349 235.285 189.118 234.412 187.887 233.076C186.554 231.638 185.733 230.2 185.271 229.173C187.272 228.556 192.247 226.656 195.632 221.674C196.812 219.876 197.53 218.13 197.941 216.691C199.018 219.208 200.095 221.674 201.223 224.139Z" fill="#6D6C6C"/>
<path opacity="0.18" d="M196.709 199.178C196.966 202.722 197.633 207.345 199.377 212.532C201.787 219.569 205.275 224.757 207.942 228.044C205.275 225.887 202.095 222.651 199.53 218.131C197.838 215.1 195.324 210.735 195.632 204.776C195.735 202.465 196.248 200.513 196.709 199.178Z" fill="#6D6C6C"/>
<path opacity="0.32" d="M204.557 163.119C202.403 165.225 188.964 178.785 190.811 198.046C191.58 206.265 194.863 212.48 197.222 216.126C195.581 216.024 192.401 215.664 188.964 213.661C185.528 211.658 183.579 209.038 182.707 207.703C182.04 206.624 181.219 204.878 180.706 202.669C180.706 202.669 179.783 198.355 181.476 193.013C183.271 187.157 191.375 175.755 204.557 163.119Z" fill="#32198E"/>
<path opacity="0.33" d="M176.808 171.441C177.988 172.211 171.474 185.925 164.293 197.893C157.83 208.628 154.65 211.607 154.188 218.182C153.727 225.013 156.599 230.868 159.164 234.823C157.881 234.926 153.06 235.08 148.854 231.742C146.546 229.892 145.315 227.735 144.751 226.4C143.52 222.804 142.443 217.565 144.597 212.634C146.033 209.296 147.726 209.039 153.009 203.697C157.676 198.972 162.292 194.297 165.678 187.363C167.422 183.819 168.037 181.251 171.012 177.245C172.961 174.574 176.141 170.978 176.808 171.441Z" fill="#32198E"/>
</svg>
