<?xml version="1.0" encoding="UTF-8"?>
<svg id="_Слой_1" data-name="Слой 1" xmlns="http://www.w3.org/2000/svg" viewBox="0 0 200 200">
  <defs>
    <style>
      .cls-1 {
        fill: #ec6050;
      }

      .cls-2 {
        fill: #ce4a4a;
      }
    </style>
  </defs>
  <g>
    <path class="cls-1" d="M88.71,68.16c4.32-28.17,10.17-48.99,14.35-61.59-1.79-.35-3.8,.22-5.2,1.56-18.07,17.24-44.44,19.11-67.03,12.88-3.36-.93-7.34,2.05-7.8,5.95-3.28,27.73-3.55,56.93,3.21,84.31,6.85,27.7,20.83,54.08,42.55,70.18,7.44,5.52,16.3,10.55,25.34,11.84-6.57-31.86-11.24-87.29-5.43-125.14Z"/>
    <path class="cls-2" d="M167.7,26.67c-20.93,3.94-47.77,1.52-61.65-18.2-.74-1.06-1.82-1.67-2.98-1.89-4.19,12.6-10.03,33.41-14.35,61.59-5.8,37.85-1.14,93.27,5.43,125.14,.15,.02,.3,.05,.45,.07,8.39-.4,16.82-4.66,23.68-9.85,20.09-15.19,30.65-41.94,37.89-66.74,7.95-27.23,12.2-56.4,17.4-83.59,.74-3.85-2.51-7.15-5.86-6.52Z"/>
  </g>
  <g>
    <path class="cls-2" d="M102.05,200c-.12-.01-6.34-.27-6.46-.28-16.18-1.93-25.29-13.27-36.58-25.3-13.4-14.28-22.9-32.76-28.97-52.26-9.41-30.26-10.41-63.81-5.94-95.04,.55-3.82-.34-9.47,2.64-11.62,2.87-2.07,9.71-1.32,13.05-.31,20.26,6.08,44.44,4.4,61.56-11.29h0c1.69-1.48-.48-3.28,1.65-3.82,1.01-.26,6.3,.21,7.29,.32,2.89,.32,5.59,1.34,7.44,4.18,12.05,18.51,34.19,19.28,52.62,15.76,.33-.06,3.62,.48,3.95,.41,3.22-.65,6.77,.48,9.14,3,2.38,2.53,3.1,6.59,2.55,10.07-4.94,31.34-10.51,63.71-20.28,93.95-5.8,17.94-13.33,36.1-25.18,50.02-9.73,11.42-23.47,21.63-38.18,22.21-.12,0-.18,0-.3,0ZM35.51,27.42c-6.16,47.56-1.11,103.71,30.97,138.38,9.15,9.89,21.13,19.31,34.23,21.47,3.41-.33,6.72-1.36,9.9-2.63,8.4-3.34,15.75-9.67,21.85-16.9,10.41-12.33,17.17-28.49,22.4-44.38,9.58-29.09,14.74-59.86,19.8-90.21-10.61,1.98-21.52,2.45-31.97,.72-13.26-2.2-26.42-8.48-34.75-20.94-11.65,10.7-26.18,16.79-41.06,17.81-10.53,.72-21.11-.41-31.37-3.33Z"/>
    <path class="cls-1" d="M95.29,199.72c-.12-.01-.18-.02-.3-.03-16.18-1.93-31.45-13.53-42.74-25.56-13.4-14.28-22.9-32.76-28.97-52.26-9.41-30.26-10.41-63.81-5.94-95.04,.55-3.82,2.7-7.58,5.68-9.73,2.87-2.07,6.66-3.21,10.01-2.21,20.26,6.08,44.44,4.4,61.56-11.29h0c2.49-2.18,5.87-3.84,8.94-3.5,2.89,.32,5.59,1.34,7.44,4.18,12.27,18.84,38.06,19.92,56.58,16.17,3.22-.65,6.77,.48,9.14,3,2.38,2.53,3.1,6.59,2.55,10.07-4.94,31.34-10.51,63.71-20.28,93.95-5.8,17.94-13.33,36.1-25.18,50.02-9.73,11.42-23.47,21.63-38.18,22.21-.12,0-.18,0-.3,0ZM28.74,27.14c-6.16,47.56-1.11,103.71,30.97,138.38,9.15,9.89,21.13,19.31,34.23,21.47,3.41-.33,6.72-1.36,9.9-2.63,8.4-3.34,15.75-9.67,21.85-16.9,10.41-12.33,17.17-28.49,22.4-44.38,9.58-29.09,14.74-59.86,19.8-90.21-10.61,1.98-21.52,2.45-31.97,.72-13.26-2.2-26.42-8.48-34.75-20.94-11.65,10.7-26.18,16.79-41.06,17.81-10.53,.72-21.11-.41-31.37-3.33Z"/>
  </g>
</svg>