<svg width="653" height="416" viewBox="0 0 653 416" fill="none" xmlns="http://www.w3.org/2000/svg">
<path opacity="0.35" d="M620.585 313.855C615.009 336.263 606.294 358.377 606.658 381.462C606.823 392.05 609.607 403.09 614.732 412.429C615.035 412.993 615.356 413.548 615.686 414.094C615.686 414.103 615.694 414.12 615.703 414.129C614.853 414.129 613.995 414.146 613.11 414.155C611.731 414.172 610.326 414.181 608.887 414.198C607.976 414.198 607.057 414.216 606.112 414.225C603.97 414.242 601.767 414.268 599.495 414.285C595.072 414.32 590.398 414.363 585.498 414.398C578.717 414.45 571.493 414.493 563.853 414.537C554.062 414.597 543.595 414.649 532.521 414.701C488.615 414.91 435.169 415.048 376.573 415.1C360.139 415.109 343.307 415.118 326.162 415.118C323.188 415.118 320.213 415.118 317.256 415.118C236.485 415.109 163.033 414.927 107.195 414.641C90.7611 414.554 75.8453 414.467 62.7245 414.363C62.5945 414.277 62.473 414.198 62.343 414.112C61.4064 413.487 60.4698 412.863 59.5332 412.23C43.7329 401.537 28.8431 389.397 18.8529 373.319C6.25251 353.035 3.43411 324.816 18.2979 306.137C28.0105 293.935 43.3253 287.717 54.9718 277.354C99.7366 237.507 77.2935 152.868 124.322 115.726C147.762 97.2197 180.742 97.6533 210.279 102.076C239.815 106.499 270.133 114.009 299.08 106.672C320.482 101.244 339.006 88.1575 356.922 75.2449C374.838 62.3323 393.188 49.0815 414.487 43.2366C435.776 37.383 460.995 40.4615 476.04 56.6261C504.355 87.0301 481.79 140.666 504.398 175.519C528.844 213.208 591.907 208.672 615.894 246.656C628.225 266.176 626.161 291.438 620.585 313.846V313.855Z" fill="url(#paint0_linear_15_308)"/>
<path d="M652.333 413.279C652.333 413.548 642.265 413.8 624.167 414.025C622.337 414.051 620.429 414.068 618.435 414.094C617.88 414.094 617.316 414.103 616.744 414.112C616.397 414.112 616.05 414.112 615.703 414.12C614.853 414.12 613.995 414.138 613.11 414.146C611.731 414.164 610.326 414.172 608.887 414.19C607.976 414.19 607.057 414.207 606.112 414.216C603.97 414.233 601.767 414.259 599.495 414.277C595.072 414.311 590.398 414.355 585.498 414.389C578.717 414.441 571.493 414.485 563.853 414.528C554.062 414.589 543.595 414.641 532.521 414.693C488.615 414.901 435.169 415.04 376.573 415.092C360.139 415.1 343.307 415.109 326.162 415.109C323.188 415.109 320.213 415.109 317.256 415.109C236.485 415.1 163.034 414.918 107.195 414.632C90.7611 414.545 75.8453 414.459 62.7245 414.355C60.279 414.337 57.8856 414.311 55.5701 414.294C54.5208 414.294 53.4802 414.277 52.4656 414.268C51.8499 414.268 51.2428 414.259 50.6445 414.251C47.9128 414.225 45.2765 414.198 42.7356 414.172C40.8364 414.155 38.998 414.138 37.2115 414.12C35.7286 414.103 34.2891 414.086 32.8929 414.077C32.069 414.068 31.2625 414.06 30.4734 414.051C26.5797 414.008 23.0328 413.956 19.8329 413.904C19.7375 413.904 19.6421 413.904 19.5553 413.904C6.90291 413.713 0 413.496 0 413.279C0 413.062 6.2872 412.872 17.8643 412.681C19.3646 412.655 20.9515 412.629 22.6339 412.612C24.5504 412.585 26.5883 412.559 28.7303 412.525C29.6322 412.516 30.5514 412.499 31.488 412.49C32.9883 412.473 34.5406 412.455 36.1449 412.438C37.94 412.421 39.7871 412.395 41.7036 412.377C43.9757 412.351 46.3345 412.334 48.78 412.308C49.9767 412.299 51.1995 412.282 52.4309 412.273H52.4916C54.7723 412.256 57.1224 412.23 59.5332 412.213C73.5559 412.1 89.7291 411.996 107.732 411.9C163.146 411.623 235.792 411.441 315.695 411.432C319.173 411.432 322.659 411.432 326.162 411.432C342.899 411.432 359.341 411.432 375.393 411.449C434.718 411.501 488.806 411.64 533.12 411.848C544.541 411.9 555.311 411.961 565.353 412.022C572.36 412.065 579.012 412.109 585.282 412.152C589.808 412.187 594.127 412.221 598.246 412.256C600.761 412.273 603.207 412.299 605.565 412.317C607.395 412.334 609.173 412.351 610.907 412.369C611.549 412.369 612.191 412.386 612.824 412.386C613.466 412.386 614.107 412.395 614.732 412.403C615.746 412.412 616.744 412.429 617.724 412.438C618.209 412.438 618.686 412.447 619.163 412.455C621.435 412.481 623.594 412.507 625.65 412.533C642.82 412.759 652.333 413.002 652.333 413.262V413.279Z" fill="#FFCCE0"/>
<path d="M409.015 93.1179H457.11C457.777 91.1754 459.98 89.3543 460.856 87.4984C461.732 85.6426 462.174 83.3706 461.168 81.5841C459.902 79.3468 456.771 78.7744 454.352 79.6156C451.924 80.4568 450.042 82.3646 448.247 84.2031C451.161 79.4682 450.744 72.6954 447.752 68.0125C444.761 63.3296 438.499 60.8407 433.253 62.6619C429.082 64.1101 426.055 67.865 424.433 71.9669C422.812 76.0688 422.396 80.5262 421.997 84.9229C421.684 82.8936 419.17 81.5148 417.296 80.6736C415.423 79.8324 413.125 80.0145 411.399 81.1332C409.561 82.3299 408.468 84.4719 408.173 86.6486C407.879 88.8253 408.356 91.0193 409.023 93.1179H409.015Z" fill="white"/>
<path d="M138.128 145.566H174.784C175.911 144.179 176.952 142.739 177.611 141.083C178.27 139.426 178.383 137.449 177.481 135.905C176.397 134.067 174.047 133.235 171.94 133.521C169.824 133.807 167.942 135.038 166.416 136.521C169.095 132.255 167.76 125.985 163.892 122.75C160.024 119.515 153.763 119.637 150.034 123.028C146.349 126.375 145.499 131.838 145.75 136.807C145.056 134.509 142.073 133.469 139.741 134.032C137.408 134.587 135.647 136.738 135.196 139.088C134.745 141.438 136.801 143.563 138.128 145.557V145.566Z" fill="white"/>
<path d="M429.966 149.495L430.443 126.037L439.124 132.471L459.711 109.456L441.89 141.69L434.042 134.371L429.966 149.495Z" fill="white"/>
<path d="M433.131 173.264L455.08 164.939L452.34 175.398L481.382 185.9L444.821 181.407L448.689 171.391L433.131 173.264Z" fill="white"/>
<path d="M193.472 191.823L179.718 172.814L176.25 183.046L146.219 175.849L179.224 192.204L181.505 181.711L193.472 191.823Z" fill="white"/>
<path d="M204.399 213.164L181.626 218.827L189.83 225.86L171.931 251.026L199.43 226.519L190.55 220.484L204.399 213.164Z" fill="white"/>
<path d="M535.504 289.686C535.426 290.033 535.348 290.397 535.262 290.753C535.218 290.935 535.175 291.117 535.123 291.299C535.071 291.481 535.019 291.663 534.958 291.845C534.845 292.21 534.733 292.582 534.602 292.964C534.464 293.337 534.325 293.71 534.169 294.091C533.553 295.592 532.781 297.135 531.801 298.618C530.83 300.11 529.677 301.558 528.367 302.92L528.003 303.292C526.997 304.333 525.471 304.671 524.118 304.168C523.832 304.064 523.546 303.951 523.251 303.839C523.121 303.795 522.999 303.743 522.869 303.7C522.661 303.622 522.453 303.544 522.245 303.457C522.037 303.37 521.837 303.275 521.629 303.18C519.747 302.365 518.048 301.315 516.495 300.197C516.114 299.91 515.741 299.624 515.359 299.338C515.004 299.034 514.648 298.731 514.31 298.427C514.137 298.28 513.972 298.124 513.798 297.976C513.634 297.82 513.477 297.656 513.321 297.5C513.001 297.179 512.697 296.866 512.393 296.554C512.107 296.225 511.83 295.904 511.544 295.583C511.405 295.418 511.266 295.262 511.136 295.106C511.006 294.941 510.885 294.777 510.763 294.612C510.52 294.282 510.277 293.961 510.043 293.64C509.809 293.32 509.61 292.981 509.402 292.652C509.202 292.322 508.994 292.01 508.812 291.689C508.638 291.36 508.465 291.039 508.3 290.727C507.953 290.111 507.702 289.469 507.45 288.871C507.182 288.281 507.008 287.683 506.826 287.136C506.739 286.859 506.644 286.599 506.583 286.33C506.523 286.061 506.462 285.801 506.41 285.558C506.167 284.57 506.106 283.676 506.072 282.965C506.046 282.61 506.089 282.28 506.115 281.994C506.15 281.716 506.193 281.474 506.254 281.274C506.366 280.875 506.531 280.65 506.757 280.606C506.973 280.554 507.234 280.685 507.528 280.962C507.676 281.101 507.832 281.274 507.997 281.482C508.17 281.69 508.318 281.933 508.526 282.202C508.933 282.731 509.332 283.39 509.87 284.11C510 284.292 510.13 284.474 510.26 284.674C510.39 284.864 510.555 285.055 510.702 285.255C511.015 285.645 511.292 286.07 511.665 286.486C512.021 286.902 512.359 287.353 512.766 287.77C512.966 287.986 513.165 288.203 513.365 288.429C513.564 288.654 513.798 288.862 514.015 289.088C514.241 289.304 514.449 289.539 514.692 289.755C514.934 289.972 515.177 290.189 515.42 290.415C515.541 290.527 515.663 290.64 515.784 290.744C515.914 290.848 516.044 290.952 516.174 291.065C516.435 291.282 516.703 291.499 516.964 291.715C517.241 291.923 517.527 292.123 517.813 292.34C517.952 292.444 518.1 292.548 518.238 292.661C518.386 292.756 518.542 292.86 518.689 292.955C518.984 293.155 519.288 293.354 519.591 293.554C519.903 293.736 520.224 293.927 520.545 294.117C521.534 294.672 522.566 295.219 523.65 295.678C523.884 295.227 524.118 294.785 524.335 294.343C524.933 293.146 525.41 291.949 525.852 290.813C525.956 290.527 526.069 290.25 526.173 289.972C526.269 289.695 526.364 289.417 526.468 289.148C526.52 289.01 526.564 288.88 526.616 288.741C526.659 288.602 526.702 288.472 526.746 288.342C526.832 288.073 526.928 287.813 527.023 287.561C527.231 286.92 527.431 286.304 527.63 285.714C527.752 285.35 527.864 285.003 527.977 284.665C528.055 284.44 528.124 284.223 528.211 284.006C528.298 283.789 528.35 283.581 528.428 283.373C528.575 282.965 528.74 282.575 528.879 282.202C529.018 281.829 529.191 281.482 529.339 281.153C529.486 280.832 529.651 280.528 529.816 280.251C529.989 279.973 530.154 279.722 530.327 279.496C530.501 279.271 530.683 279.08 530.873 278.915C531.255 278.586 531.671 278.386 532.105 278.352C532.538 278.308 532.972 278.438 533.397 278.733C533.605 278.881 533.813 279.072 534.021 279.297C534.221 279.531 534.429 279.8 534.594 280.121C534.767 280.433 534.941 280.789 535.097 281.188C535.253 281.586 535.374 282.02 535.496 282.497C535.626 282.974 535.695 283.477 535.764 284.023C535.799 284.292 535.834 284.578 535.843 284.864C535.851 285.151 535.86 285.445 535.869 285.749C535.886 286.972 535.756 288.299 535.496 289.712L535.504 289.686Z" fill="#F68895"/>
<path d="M535.504 289.686C535.426 290.033 535.348 290.397 535.262 290.753C535.218 290.935 535.175 291.117 535.123 291.299C535.071 291.481 535.019 291.663 534.958 291.845C534.845 292.21 534.733 292.583 534.602 292.964C534.464 293.337 534.325 293.71 534.169 294.091C533.553 295.592 532.781 297.135 531.801 298.618C530.83 300.11 529.677 301.558 528.367 302.92L528.003 303.292C526.997 304.333 525.471 304.671 524.118 304.168C523.832 304.064 523.546 303.952 523.251 303.839C525.115 303.44 526.867 302.538 528.246 301.229C530.483 299.104 531.689 295.939 531.429 292.86C531.194 290.085 529.781 287.431 527.621 285.671C527.743 285.307 527.856 284.96 527.968 284.622C528.046 284.396 528.116 284.179 528.202 283.963C528.289 283.746 528.341 283.538 528.419 283.33C528.567 282.922 528.732 282.532 528.87 282.159C529.009 281.786 529.182 281.439 529.33 281.11C529.477 280.789 529.642 280.485 529.807 280.208C529.98 279.93 530.145 279.679 530.318 279.453C530.492 279.228 530.674 279.037 530.865 278.872C531.246 278.543 531.663 278.343 532.096 278.308C532.53 278.265 532.963 278.395 533.388 278.69C533.597 278.837 533.805 279.028 534.013 279.254C534.212 279.488 534.42 279.757 534.585 280.078C534.759 280.39 534.932 280.745 535.088 281.144C535.244 281.543 535.366 281.977 535.487 282.454C535.617 282.931 535.686 283.434 535.756 283.98C535.791 284.249 535.825 284.535 535.834 284.821C535.843 285.107 535.851 285.402 535.86 285.706C535.877 286.928 535.747 288.255 535.487 289.669L535.504 289.686Z" fill="#F17785"/>
<path d="M387.005 404.547C381.152 404.547 375.298 404.373 369.453 404.035C352.569 403.038 335.702 400.601 319.312 396.785L320.153 393.16C352.837 400.774 386.329 402.752 419.681 399.014C439.436 396.803 453.589 392.987 465.556 386.63C480.715 378.583 491.693 366.034 495.683 352.194C498.275 343.201 498.067 333.462 497.877 324.053C497.807 320.94 497.746 317.714 497.773 314.549C497.946 297.56 501.952 285.532 510.009 277.779L512.593 280.468C505.291 287.492 501.666 298.653 501.501 314.592C501.467 317.697 501.536 320.888 501.597 323.975C501.796 333.662 502.013 343.687 499.264 353.226C494.997 368.029 483.351 381.41 467.308 389.926C451.412 398.364 433.73 401.191 420.106 402.717C409.162 403.94 398.088 404.555 387.005 404.555V404.547Z" fill="#462261"/>
<path d="M561.13 403.055C562.995 405.986 563.948 409.49 563.827 412.958C560.332 413.271 556.794 413.392 553.291 413.071C552.848 411.441 553.542 409.758 554.132 408.18C554.721 406.602 555.346 404.911 554.999 403.263C556.976 403.142 559.144 402.994 561.121 403.064L561.13 403.055Z" fill="#311649"/>
<path d="M539.502 401.347C538.826 404.963 539.008 408.744 540.022 412.282C535.105 413.366 529.963 413.522 524.968 412.889C524.343 412.135 524.604 410.851 525.219 410.088C525.826 409.325 526.772 408.9 527.708 408.614C528.645 408.328 529.625 408.137 530.501 407.703C532.512 406.706 533.761 404.356 533.466 402.127C535.209 401.225 537.568 401.052 539.502 401.347Z" fill="#311649"/>
<path d="M560.974 403.61C559.274 403.784 557.557 403.931 555.814 404.044C554.826 404.104 553.924 403.489 553.638 402.535C550.967 393.672 547.194 376.814 544.567 346.991C544.194 342.724 543.838 338.197 543.517 333.384C542.841 337.443 542.173 342.013 541.601 347.034C539.858 362.132 538.912 381.202 540.872 401.91C540.968 402.864 540.413 403.705 539.615 404.052C539.329 404.182 539.008 404.243 538.661 404.234C536.857 404.156 535.088 404.052 533.328 403.914C532.339 403.836 531.533 403.09 531.385 402.101C529.79 391.261 527.786 371.871 528.94 347.84C529.078 344.909 529.269 341.917 529.512 338.856C529.737 336.021 530.006 333.133 530.327 330.193C530.379 329.751 530.423 329.3 530.475 328.857C530.622 327.574 530.778 326.291 530.943 324.99C531.082 323.871 531.238 322.752 531.394 321.625C531.637 319.873 531.906 318.113 532.192 316.344C532.322 315.537 532.452 314.739 532.591 313.933C532.608 313.838 532.625 313.734 532.634 313.638C532.712 313.205 532.781 312.78 532.859 312.346L543.422 312.121L559.647 311.774C559.5 312.892 559.309 314.445 559.118 316.439C559.084 316.864 559.04 317.315 559.005 317.775C559.005 317.861 558.988 317.948 558.988 318.035C558.927 318.781 558.867 319.578 558.806 320.42C558.797 320.61 558.78 320.801 558.771 320.992C558.641 322.978 558.537 325.233 558.45 327.756C558.433 328.363 558.416 328.979 558.398 329.621C558.32 332.552 558.286 335.83 558.312 339.463C558.329 341.978 558.381 344.658 558.459 347.511C558.858 361.221 560.081 378.964 562.873 401.199C563.021 402.379 562.171 403.463 560.983 403.575L560.974 403.61Z" fill="#703CD5"/>
<path d="M539.606 404.061C540.413 403.705 540.959 402.864 540.864 401.91C538.904 381.202 539.849 362.141 541.592 347.034C542.173 342.022 542.832 337.443 543.509 333.384L538.921 332.24C538.921 332.24 533.796 374.481 539.606 404.052V404.061Z" fill="#5229B7"/>
<path d="M559.639 311.782C559.491 312.901 559.3 314.453 559.11 316.448C559.075 316.873 559.031 317.324 558.997 317.783C558.997 317.87 558.979 317.957 558.979 318.043C558.919 318.789 558.858 319.587 558.797 320.428C558.789 320.619 558.771 320.81 558.763 321.001C558.633 322.987 558.528 325.241 558.442 327.765C558.424 328.372 558.407 328.988 558.39 329.629C550.039 325.224 540.803 322.466 531.394 321.625C531.637 319.873 531.905 318.113 532.192 316.344C532.322 315.537 532.452 314.739 532.591 313.933C532.608 313.838 532.625 313.734 532.634 313.638C532.712 313.205 532.781 312.78 532.859 312.346L543.422 312.121L559.647 311.774L559.639 311.782Z" fill="#5229B7"/>
<path d="M555.129 255.328C554.574 257.357 554.019 259.386 553.464 261.407C553.074 262.82 552.623 264.347 551.443 265.222C550.368 266.029 548.781 266.09 547.645 265.37C549.31 263.826 550.568 261.944 551.279 259.785C551.608 258.77 551.825 257.704 552.363 256.793C552.909 255.874 554.071 255.224 555.129 255.328V255.328Z" fill="#F23B6B"/>
<path d="M568.892 286.105C568.892 286.105 565.822 288.481 561.555 288.307C561.208 290.917 560.905 294.386 560.653 298.141C560.254 304.099 559.968 310.776 559.803 315.91C559.76 317.324 559.725 318.624 559.699 319.761C552.371 320.819 544.939 321.122 537.551 320.662C535.296 320.524 533.033 320.316 530.787 320.038C531.411 317.081 531.94 314.193 532.382 311.383C532.539 310.412 532.686 309.449 532.816 308.496C532.885 308.001 532.955 307.507 533.024 307.021C534.047 299.416 534.481 292.608 534.637 287.223C530.622 287.119 527.812 285.012 527.812 285.012L528.454 281.083C529.989 274.562 537.265 271.882 541.688 270.842C542.329 270.694 542.91 270.573 543.405 270.486C544.428 270.009 545.434 269.532 546.37 269.055C547.931 269.68 549.484 270.304 551.045 270.929C551.071 270.937 551.097 270.955 551.123 270.963C551.435 271.085 551.747 271.215 552.059 271.336C552.103 271.336 552.649 271.397 553.507 271.544C557.15 272.186 566.533 274.545 568.276 282.185L568.9 286.113L568.892 286.105Z" fill="#462261"/>
<path d="M550.984 266.974C551.053 268.613 551.435 270.243 552.129 271.761C549.171 272.498 546.058 272.576 543.04 272.013C543.283 271.267 543.465 270.512 543.604 269.749C543.751 268.899 543.838 268.049 543.856 267.2C543.856 266.896 543.856 266.593 543.856 266.289C543.838 265.595 543.769 264.91 543.665 264.225C545.243 261.511 549.059 260.097 552.553 260.227C551.773 261.65 551.279 263.202 551.071 264.789C550.984 265.491 550.949 266.202 550.975 266.913C550.975 266.939 550.975 266.957 550.975 266.983L550.984 266.974Z" fill="#F68895"/>
<path d="M542.607 250.688C541.87 252.683 542.06 254.989 543.101 256.837C543.335 255.354 543.578 253.931 543.812 252.448C543.925 251.763 543.994 250.957 543.491 250.471C543.335 250.324 543.118 250.22 542.919 250.272C542.711 250.324 542.494 250.515 542.607 250.697V250.688Z" fill="#D81D56"/>
<path d="M551.079 264.78C550.992 265.483 550.958 266.194 550.984 266.905C550.984 266.931 550.984 266.948 550.984 266.974C550.333 266.749 549.648 266.627 548.955 266.645C547.957 266.662 546.986 266.931 546.006 267.113C545.295 267.234 544.558 267.312 543.855 267.2C543.855 266.896 543.855 266.593 543.855 266.289C543.838 265.595 543.769 264.91 543.665 264.225C545.243 261.511 549.059 260.097 552.553 260.227C551.773 261.65 551.279 263.202 551.071 264.789L551.079 264.78Z" fill="#F17785"/>
<path d="M543.205 250.02C543.673 252.943 543.162 256.004 541.774 258.614C540.985 260.097 539.892 261.571 540.031 263.245C540.213 265.448 542.676 266.939 544.87 266.679C547.064 266.419 548.894 264.858 550.186 263.063C552.553 259.785 553.507 255.536 552.779 251.555C550.03 250.142 546.258 249.535 543.196 250.012L543.205 250.02Z" fill="#F68895"/>
<path d="M552.189 259.031C551.383 257.019 551.175 254.764 551.626 252.639C549.605 253.498 547.151 253.385 545.156 252.449C543.17 251.521 541.609 249.717 540.968 247.618C543.274 246.396 545.911 245.658 548.512 245.554C549.631 245.511 550.802 245.589 551.764 246.161C553.03 246.924 553.698 248.555 553.325 249.986C554.245 249.752 555.181 250.489 555.571 251.356C555.962 252.223 555.875 253.229 555.641 254.157C555.103 256.238 553.932 257.773 552.189 259.022V259.031Z" fill="#F23B6B"/>
<path d="M552.024 258.866C551.998 258.432 552.371 258.033 552.805 257.973C553.239 257.912 553.672 258.155 553.915 258.519C554.149 258.883 554.201 259.351 554.114 259.776C554.028 260.201 553.82 260.592 553.568 260.947C553.195 261.476 552.71 261.953 552.094 262.135C551.478 262.326 550.724 262.153 550.368 261.624C551.149 260.808 552.103 260.002 552.033 258.874L552.024 258.866Z" fill="#F68895"/>
<path d="M543.934 261.459C543.3 261.424 542.676 261.259 542.112 260.973C541.991 260.912 541.835 260.99 541.826 261.138C541.809 261.485 541.896 261.823 542.147 262.083C542.468 262.413 542.962 262.569 543.413 262.482C543.777 262.413 543.96 262.083 544.098 261.745C544.15 261.623 544.064 261.476 543.925 261.476L543.934 261.459Z" fill="#EFEFEF"/>
<path d="M553.499 271.527C553.074 272.255 552.432 272.871 551.704 273.305C550.516 274.007 549.111 274.285 547.732 274.406C546.605 274.51 545.451 274.519 544.376 274.181C543.301 273.842 542.303 273.105 541.87 272.056C541.714 271.666 541.644 271.241 541.679 270.824C542.321 270.677 542.902 270.556 543.396 270.469C544.419 269.992 545.425 269.515 546.362 269.038C547.923 269.662 549.475 270.287 551.036 270.911C551.062 270.92 551.088 270.937 551.114 270.946C551.426 271.067 551.738 271.197 552.051 271.319C552.094 271.319 552.64 271.379 553.499 271.527V271.527Z" fill="#F68895"/>
<path d="M526.347 272.091L521.213 279.627C520.771 280.277 520.259 280.849 519.695 281.344C516.643 284.023 512.055 284.413 508.543 282.02C504.381 279.184 503.314 273.513 506.15 269.35L511.283 261.814L526.347 272.091Z" fill="#462261"/>
<path d="M526.347 272.091L521.213 279.627C520.771 280.277 520.259 280.849 519.695 281.344C519.461 278.447 518.698 275.585 517.423 272.975C515.689 269.411 513.018 266.315 509.766 264.052L511.292 261.814L526.355 272.091H526.347Z" fill="#311649"/>
<path d="M528.787 271.446L510.946 259.28L508.748 262.505L526.588 274.67L528.787 271.446Z" fill="#462261"/>
<path d="M521.551 257.001L517.146 263.462L514.865 261.91L519.27 255.449C519.704 254.816 520.562 254.66 521.187 255.085C521.82 255.51 521.976 256.368 521.551 257.001V257.001Z" fill="#462261"/>
<path d="M529.356 262.326L524.951 268.787L522.67 267.234L527.075 260.774C527.509 260.141 528.359 259.985 528.992 260.409C529.625 260.834 529.781 261.693 529.356 262.326V262.326Z" fill="#462261"/>
<path d="M517.727 262.612L517.146 263.462L514.865 261.91L515.472 261.016C516.183 261.598 516.938 262.135 517.718 262.621L517.727 262.612Z" fill="#311649"/>
<path d="M526.91 265.916L524.959 268.787L522.678 267.234L523.971 265.335C524.933 265.595 525.922 265.795 526.91 265.925V265.916Z" fill="#311649"/>
<path d="M503.964 285.645C505.256 285.645 506.531 284.925 507.216 283.824C507.901 282.722 507.979 281.266 507.407 280.103C506.575 279.557 505.369 279.809 504.615 280.45C503.86 281.092 503.487 282.098 503.401 283.087C503.314 284.075 503.791 284.665 503.964 285.636V285.645Z" fill="#F68895"/>
<path d="M509.081 286.824C508.456 286.295 508.058 285.498 508.031 284.682C507.997 283.867 508.326 283.035 508.907 282.462C508.179 282.506 507.398 282.428 506.679 282.315C506.384 282.272 506.037 282.159 505.985 281.864C505.933 281.578 506.21 281.352 506.47 281.222C507.502 280.693 508.751 280.589 509.861 280.945C510.295 281.604 510.72 282.376 510.867 283.147C511.015 283.902 510.841 284.717 510.416 285.359C509.983 286 509.844 286.668 509.089 286.816L509.081 286.824Z" fill="#F68895"/>
<path d="M485.623 407.79C479.743 407.79 473.534 407.391 466.952 406.593C457.439 405.44 447.9 403.601 438.673 401.815C430.426 400.228 421.901 398.58 413.472 397.444C380.12 392.944 345.579 396.065 313.579 406.481L312.426 402.934C344.955 392.354 380.068 389.171 413.966 393.75C422.508 394.903 431.085 396.56 439.375 398.155C448.542 399.924 458.011 401.754 467.394 402.89C488.537 405.457 505.69 403.818 519.843 397.895C539.589 389.622 554.99 371.558 560.037 350.746C565.076 329.933 559.656 306.822 545.876 290.432L548.729 288.038C563.255 305.322 568.97 329.69 563.654 351.63C558.338 373.57 542.104 392.614 521.282 401.338C510.98 405.657 499.203 407.799 485.623 407.799V407.79Z" fill="#311649"/>
<path d="M569.663 292.86C569.637 294.274 569.525 295.765 569.273 297.291C569.247 297.474 569.212 297.656 569.178 297.838C568.935 299.191 568.614 300.561 568.198 301.931L568.016 302.625C567.582 304.324 566.134 305.46 564.538 305.46C564.313 305.46 564.096 305.443 563.87 305.391C563.55 305.33 563.229 305.261 562.908 305.2C561.312 304.853 559.786 304.385 558.372 303.778C556.959 303.18 555.649 302.512 554.461 301.757C554.314 301.662 554.166 301.575 554.019 301.48C553.872 301.385 553.733 301.289 553.594 301.194C553.317 301.003 553.039 300.804 552.77 300.621C552.501 300.422 552.25 300.223 551.99 300.023C551.738 299.824 551.487 299.633 551.253 299.425C550.784 299.017 550.333 298.636 549.926 298.219C549.718 298.02 549.518 297.82 549.328 297.63C549.137 297.43 548.955 297.231 548.781 297.04C548.608 296.849 548.434 296.658 548.27 296.468C548.113 296.277 547.957 296.086 547.81 295.895C547.732 295.791 547.645 295.696 547.576 295.592C547.515 295.514 547.446 295.427 547.385 295.349C547.246 295.175 547.125 294.993 547.003 294.82C546.769 294.473 546.544 294.161 546.362 293.849C546.18 293.536 546.015 293.25 545.876 292.99C545.755 292.773 545.668 292.557 545.59 292.366C546.422 292.192 547.281 292.114 548.148 292.071C548.382 292.201 548.634 292.331 548.894 292.478C549.059 292.565 549.215 292.661 549.388 292.756C549.562 292.843 549.744 292.938 549.926 293.033C550.108 293.129 550.29 293.224 550.49 293.328C550.68 293.415 550.88 293.51 551.079 293.606C551.279 293.701 551.487 293.805 551.704 293.901C551.92 293.996 552.137 294.091 552.363 294.187C552.805 294.386 553.273 294.56 553.759 294.751C553.993 294.846 554.245 294.933 554.496 295.019C554.747 295.106 554.999 295.193 555.259 295.288C555.519 295.366 555.779 295.444 556.048 295.522C556.178 295.566 556.317 295.609 556.447 295.644C556.586 295.678 556.725 295.713 556.855 295.748C557.947 296.051 559.101 296.277 560.28 296.476C560.306 296.476 560.341 296.476 560.367 296.485V296.433C560.367 295.193 560.315 294.005 560.289 292.877C560.272 291.75 560.228 290.683 560.237 289.677C560.237 289.495 560.237 289.322 560.237 289.148C560.237 288.819 560.237 288.489 560.254 288.177C564.573 288.94 568.406 286.417 568.848 286.122C569.082 286.954 569.273 287.874 569.421 288.845C569.585 290.085 569.689 291.438 569.663 292.851V292.86Z" fill="#F68895"/>
<path d="M569.663 292.86C569.637 294.274 569.525 295.765 569.273 297.291C569.247 297.474 569.212 297.656 569.178 297.838C569.022 296.866 568.735 295.921 568.311 295.037C566.81 291.906 563.662 289.651 560.237 289.157C560.237 288.828 560.237 288.498 560.254 288.186C564.573 288.949 568.406 286.425 568.848 286.131C569.082 286.963 569.273 287.882 569.421 288.854C569.585 290.094 569.689 291.446 569.663 292.86V292.86Z" fill="#F17785"/>
<path d="M557.67 276.331L560.983 283.616C562.336 286.599 561.017 290.12 558.034 291.472L543.968 297.864C540.985 299.217 537.464 297.898 536.111 294.915L532.799 287.631C532.348 286.642 532.339 285.558 532.695 284.613C533.05 283.668 533.761 282.861 534.759 282.41L552.449 274.363C554.435 273.461 556.768 274.337 557.67 276.323V276.331Z" fill="#0386E9"/>
<path d="M557.67 276.331C558.121 277.32 558.13 278.404 557.774 279.349C557.418 280.294 556.707 281.101 555.71 281.552L538.019 289.599C536.033 290.501 533.701 289.625 532.799 287.639C532.348 286.651 532.339 285.567 532.695 284.621C533.05 283.676 533.761 282.87 534.759 282.419L552.449 274.371C554.435 273.469 556.768 274.345 557.67 276.331Z" fill="#36B3FF"/>
<path d="M551.591 279.089C551.704 279.332 551.695 279.618 551.582 279.904C551.357 280.494 550.724 281.109 549.848 281.5C548.981 281.899 548.096 281.968 547.506 281.751C547.212 281.647 546.995 281.465 546.882 281.222C546.544 280.476 547.324 279.401 548.625 278.803C549.926 278.213 551.253 278.334 551.591 279.08V279.089Z" fill="#0386E9"/>
<path d="M543.587 282.731C543.699 282.974 543.691 283.26 543.578 283.546C543.353 284.136 542.719 284.752 541.844 285.142C540.976 285.541 540.092 285.61 539.502 285.393C539.207 285.289 538.99 285.107 538.878 284.864C538.54 284.119 539.32 283.043 540.621 282.445C541.922 281.855 543.248 281.977 543.587 282.722V282.731Z" fill="#0386E9"/>
<path d="M551.582 279.904C551.357 280.494 550.724 281.109 549.848 281.5C548.981 281.899 548.096 281.968 547.506 281.751C547.732 281.162 548.365 280.546 549.241 280.156C550.108 279.757 550.993 279.687 551.582 279.904Z" fill="#00609B"/>
<path d="M543.569 283.546C543.344 284.136 542.711 284.752 541.835 285.142C540.968 285.541 540.083 285.61 539.493 285.393C539.719 284.804 540.352 284.188 541.228 283.798C542.095 283.399 542.98 283.329 543.569 283.546Z" fill="#00609B"/>
<path d="M423.852 168.712C423.878 189.845 415.12 210.051 404.288 228.202C393.457 246.352 380.414 263.158 370.494 281.829C360.582 300.491 353.826 321.772 357 342.672C343.48 348.005 328.703 351.613 314.013 352.532C299.323 351.613 284.537 348.005 271.026 342.672C274.2 321.781 267.444 300.5 257.532 281.829C247.62 263.167 234.569 246.352 223.737 228.202C212.906 210.051 204.147 189.845 204.173 168.712C204.191 153.31 209.116 138.36 217.398 125.386C221.309 119.247 225.975 113.549 231.221 108.459C231.239 108.441 231.256 108.424 231.273 108.407C237.777 102.206 245.365 96.7427 253.803 92.2159C270.991 82.9889 291.709 77.6036 314.013 77.6036C336.317 77.6036 357.043 82.9889 374.223 92.2159C382.66 96.7514 390.248 102.206 396.752 108.407C396.77 108.424 396.787 108.441 396.804 108.459C402.051 113.558 406.717 119.247 410.628 125.386C418.909 138.368 423.835 153.319 423.852 168.712V168.712Z" fill="url(#paint1_radial_15_308)"/>
<path d="M352.161 387.758C345.935 403.142 331.192 413.964 314.004 413.964C296.816 413.964 282.074 403.15 275.848 387.758C287.494 394.131 300.407 397.678 314.004 397.678C327.602 397.678 340.506 394.131 352.161 387.758Z" fill="#311649"/>
<g style="mix-blend-mode:screen">
<path d="M291.405 267.867C289.376 256.342 286.809 245.485 284.095 235.729C282.655 230.872 281.328 226.242 279.837 221.992C279.108 219.859 278.449 217.786 277.721 215.827C276.984 213.875 276.281 212.002 275.596 210.207C270.046 195.933 265.502 187.599 264.903 187.868C264.149 188.189 267.436 197.026 272.006 211.465C272.569 213.277 273.159 215.168 273.775 217.136C274.391 219.105 274.946 221.186 275.57 223.319C276.862 227.577 278.015 232.191 279.299 237.012C281.718 246.708 284.095 257.435 286.098 268.786C288.032 280.155 289.402 291.056 290.39 300.994C290.807 305.972 291.266 310.707 291.483 315.147C291.613 317.367 291.787 319.509 291.873 321.573C291.96 323.628 292.038 325.614 292.116 327.513C292.671 342.646 292.541 352.072 293.365 352.124C294.024 352.176 295.498 342.802 295.923 327.487C295.958 325.562 295.993 323.559 296.027 321.477C296.053 319.388 295.975 317.211 295.949 314.965C295.923 310.455 295.62 305.651 295.342 300.595C294.614 290.492 293.382 279.401 291.414 267.867H291.405Z" fill="#FFF188"/>
<path d="M358.925 185.9C358.309 185.657 354.121 194.164 349.169 208.664C348.571 210.485 347.938 212.392 347.287 214.37C346.646 216.356 346.073 218.454 345.432 220.614C344.122 224.924 342.977 229.598 341.746 234.515C339.439 244.383 337.332 255.336 335.788 266.931C334.305 278.542 333.534 289.669 333.23 299.798C333.161 304.862 333.057 309.675 333.221 314.176C333.282 316.43 333.299 318.598 333.412 320.688C333.534 322.77 333.655 324.773 333.768 326.689C334.826 341.969 336.69 351.274 337.349 351.196C338.164 351.11 337.644 341.701 337.566 326.559C337.566 324.66 337.566 322.674 337.566 320.619C337.566 318.555 337.653 316.404 337.687 314.184C337.722 309.736 337.982 304.992 338.19 299.997C338.763 290.016 339.665 279.071 341.13 267.633C342.657 256.203 344.582 245.389 346.594 235.599C347.678 230.725 348.64 226.068 349.75 221.758C350.288 219.599 350.756 217.5 351.285 215.506C351.814 213.52 352.326 211.603 352.82 209.765C356.783 195.144 359.706 186.186 358.934 185.891L358.925 185.9Z" fill="#FFF188"/>
<path d="M347.773 189.733C351.233 190.686 353.167 191.12 353.288 190.799C353.418 190.487 351.71 189.438 348.432 187.92C345.171 186.376 340.306 184.46 334.427 181.893L333.065 181.303L332.224 182.665C328.495 188.701 324.428 196.41 321.063 205.568C319.485 199.35 317.629 192.924 315.409 186.385C312.799 178.71 309.902 171.417 306.85 164.644L304.916 160.343L302.34 164.246C294.015 176.872 288.075 188.917 284.311 198.552C281.762 194.901 279.125 192.343 277.088 190.686C274.512 188.623 272.864 187.859 272.682 188.102C272.474 188.371 273.732 189.62 275.813 192.005C277.868 194.398 280.756 197.997 283.21 203.087L284.754 206.287L286.28 202.931C290.2 194.311 296.053 183.15 303.962 171.131C306.173 176.534 308.315 182.205 310.319 188.111C313.527 197.572 316.129 206.79 318.21 215.419L320.586 225.262L323.119 215.514C326.206 203.616 330.654 193.548 334.661 185.717C340.142 187.591 344.616 188.839 347.773 189.724V189.733Z" fill="#FFF188"/>
</g>
<path d="M360.356 389.882C346.203 397.357 330.568 401.269 314.837 401.598C299.114 401.928 283.305 398.676 268.788 391.807C264.981 390.004 263.256 385.251 264.929 381.184C265.103 380.777 265.302 380.386 265.528 380.031C266.022 379.242 266.638 378.574 267.323 378.028C266.725 377.594 266.204 377.082 265.762 376.501C264.002 374.229 263.481 371.012 264.661 368.133C264.886 367.586 265.164 367.075 265.493 366.624C265.935 365.991 266.473 365.444 267.054 364.976C266.204 364.36 265.502 363.58 264.973 362.687C263.646 360.493 263.342 357.648 264.4 355.081C264.808 354.102 265.38 353.269 266.057 352.584C266.291 352.35 266.534 352.133 266.785 351.925C265.363 350.884 264.348 349.384 263.845 347.702C263.308 345.906 263.36 343.895 264.123 342.039C265.797 337.972 270.245 336.142 274.052 337.937C299.054 349.757 328.513 349.141 352.855 336.289C356.575 334.321 361.102 335.96 362.949 339.949C363.938 342.073 363.964 344.441 363.2 346.479C362.698 347.832 361.848 349.046 360.712 349.956C361.102 350.242 361.466 350.555 361.804 350.91C362.368 351.5 362.854 352.194 363.227 352.991C364.484 355.706 364.18 358.802 362.68 361.126C362.221 361.828 361.657 362.47 360.989 362.999C361.64 363.476 362.229 364.048 362.732 364.733C363.027 365.132 363.287 365.566 363.504 366.043C365.143 369.581 364.12 373.778 361.267 376.05C361.319 376.094 361.371 376.128 361.423 376.172C362.255 376.813 362.984 377.62 363.53 378.617C363.617 378.773 363.695 378.929 363.773 379.094C365.62 383.083 364.102 387.905 360.382 389.873L360.356 389.882Z" fill="#462261"/>
<path d="M361.787 350.919C361.059 351.335 360.295 351.743 359.498 352.15C358.162 352.809 356.749 353.486 355.24 354.093C354.494 354.414 353.722 354.691 352.942 354.995C352.152 355.281 351.355 355.558 350.539 355.827C348.909 356.356 347.305 356.825 345.735 357.223C344.955 357.423 344.183 357.614 343.42 357.77C342.665 357.935 341.919 358.099 341.191 358.229C339.743 358.516 338.347 358.724 337.054 358.923C335.754 359.088 334.54 359.253 333.43 359.339C332.875 359.391 332.346 359.435 331.843 359.478C331.34 359.504 330.871 359.53 330.429 359.556C329.987 359.574 329.579 359.6 329.198 359.617C328.816 359.626 328.469 359.626 328.157 359.626C326.908 359.626 326.223 359.574 326.206 359.444C326.197 359.313 326.865 359.123 328.07 358.863C328.374 358.802 328.712 358.732 329.076 358.654C329.44 358.576 329.839 358.49 330.264 358.394C330.689 358.307 331.149 358.212 331.634 358.117C332.12 358.013 332.632 357.891 333.161 357.77C334.236 357.544 335.398 357.241 336.647 356.946C337.896 356.616 339.222 356.27 340.601 355.862C341.295 355.671 341.997 355.446 342.717 355.22C343.437 355.003 344.165 354.761 344.911 354.509C346.394 354.024 347.912 353.46 349.464 352.87C350.236 352.567 350.99 352.272 351.736 351.96C352.473 351.639 353.21 351.344 353.921 351.023C355.352 350.407 356.696 349.757 357.989 349.141C359.263 348.508 360.477 347.901 361.596 347.303C362.143 347.017 362.663 346.73 363.166 346.453C362.663 347.806 361.813 349.02 360.677 349.93C361.067 350.217 361.431 350.529 361.77 350.884L361.787 350.919Z" fill="#311649"/>
<path d="M362.715 364.742C361.718 365.341 360.642 365.93 359.506 366.511C358.171 367.17 356.757 367.847 355.248 368.454C354.502 368.775 353.731 369.052 352.95 369.356C352.161 369.642 351.363 369.919 350.548 370.188C348.918 370.717 347.313 371.185 345.744 371.584C344.963 371.784 344.191 371.975 343.428 372.131C342.674 372.296 341.928 372.46 341.2 372.59C339.751 372.877 338.355 373.085 337.063 373.284C335.762 373.449 334.548 373.614 333.438 373.7C332.883 373.752 332.354 373.796 331.851 373.839C331.348 373.865 330.88 373.891 330.438 373.917C329.995 373.935 329.588 373.961 329.206 373.978C328.825 373.987 328.478 373.987 328.166 373.987C326.917 373.987 326.232 373.935 326.214 373.804C326.206 373.674 326.874 373.484 328.079 373.223C328.382 373.163 328.721 373.093 329.085 373.015C329.449 372.937 329.848 372.851 330.273 372.755C330.698 372.668 331.157 372.573 331.643 372.478C332.129 372.374 332.64 372.252 333.169 372.131C334.245 371.905 335.407 371.602 336.656 371.307C337.904 370.977 339.231 370.631 340.61 370.223C341.304 370.032 342.006 369.807 342.726 369.581C343.446 369.364 344.174 369.122 344.92 368.87C346.403 368.384 347.92 367.821 349.473 367.231C350.245 366.928 350.999 366.633 351.745 366.321C352.482 366 353.219 365.705 353.93 365.384C355.361 364.768 356.705 364.118 357.997 363.502C359.272 362.869 360.486 362.262 361.605 361.664C361.96 361.473 362.307 361.291 362.645 361.109C362.186 361.811 361.622 362.453 360.954 362.982C361.605 363.459 362.195 364.031 362.698 364.716L362.715 364.742Z" fill="#311649"/>
<path d="M363.513 378.617C363.409 378.687 363.305 378.747 363.2 378.808C362.073 379.511 360.824 380.187 359.506 380.872C358.171 381.531 356.757 382.207 355.248 382.815C354.502 383.135 353.731 383.413 352.95 383.716C352.161 384.003 351.363 384.28 350.548 384.549C348.918 385.078 347.313 385.546 345.744 385.945C344.963 386.145 344.191 386.335 343.428 386.491C342.674 386.656 341.928 386.821 341.2 386.951C339.751 387.237 338.355 387.445 337.063 387.645C335.762 387.81 334.548 387.974 333.438 388.061C332.883 388.113 332.354 388.156 331.851 388.2C331.348 388.226 330.88 388.252 330.438 388.278C329.995 388.295 329.588 388.321 329.206 388.339C328.825 388.347 328.478 388.347 328.166 388.347C326.917 388.347 326.232 388.295 326.214 388.165C326.206 388.035 326.874 387.844 328.079 387.584C328.382 387.523 328.721 387.454 329.085 387.376C329.449 387.298 329.848 387.211 330.273 387.116C330.698 387.029 331.157 386.934 331.643 386.838C332.129 386.734 332.64 386.613 333.169 386.491C334.245 386.266 335.407 385.962 336.656 385.668C337.904 385.338 339.231 384.991 340.61 384.584C341.304 384.393 342.006 384.167 342.726 383.942C343.446 383.725 344.174 383.482 344.92 383.231C346.403 382.745 347.92 382.181 349.473 381.592C350.245 381.288 350.999 380.993 351.745 380.681C352.482 380.36 353.219 380.066 353.93 379.745C355.361 379.129 356.705 378.479 357.997 377.863C359.194 377.264 360.33 376.701 361.379 376.137C362.212 376.779 362.94 377.585 363.487 378.583L363.513 378.617Z" fill="#311649"/>
<path d="M301.785 361.23C301.777 361.36 301.083 361.412 299.834 361.412C299.522 361.412 299.175 361.412 298.794 361.403C298.412 361.386 298.004 361.369 297.562 361.343C297.12 361.317 296.652 361.291 296.149 361.265C295.646 361.221 295.117 361.169 294.562 361.126C293.452 361.039 292.238 360.874 290.937 360.71C289.636 360.51 288.248 360.302 286.8 360.016C286.072 359.886 285.335 359.721 284.572 359.556C283.817 359.4 283.045 359.201 282.265 359.01C280.695 358.62 279.099 358.143 277.46 357.614C276.645 357.345 275.847 357.067 275.058 356.781C274.278 356.486 273.506 356.2 272.76 355.879C271.26 355.272 269.838 354.596 268.502 353.937C267.644 353.495 266.811 353.052 266.031 352.601C266.265 352.367 266.508 352.15 266.759 351.942C265.337 350.902 264.322 349.401 263.819 347.719C264.617 348.161 265.476 348.63 266.386 349.115C267.505 349.714 268.719 350.321 269.994 350.954C271.277 351.569 272.63 352.22 274.061 352.835C274.772 353.156 275.509 353.451 276.246 353.772C276.992 354.076 277.747 354.379 278.518 354.683C280.062 355.272 281.58 355.827 283.063 356.322C283.808 356.573 284.528 356.816 285.257 357.033C285.976 357.258 286.679 357.484 287.373 357.674C288.751 358.082 290.087 358.429 291.327 358.758C292.576 359.053 293.738 359.357 294.813 359.582C295.351 359.704 295.854 359.816 296.339 359.929C296.825 360.033 297.285 360.12 297.71 360.207C298.135 360.302 298.533 360.389 298.898 360.467C299.262 360.545 299.6 360.614 299.904 360.675C301.109 360.926 301.777 361.126 301.768 361.256L301.785 361.23Z" fill="#311649"/>
<path d="M301.785 375.591C301.777 375.721 301.083 375.773 299.834 375.773C299.522 375.773 299.175 375.773 298.794 375.764C298.412 375.747 298.004 375.73 297.562 375.704C297.12 375.678 296.652 375.652 296.149 375.626C295.646 375.582 295.117 375.53 294.562 375.487C293.452 375.4 292.238 375.235 290.937 375.071C289.636 374.871 288.248 374.663 286.8 374.377C286.072 374.247 285.335 374.082 284.572 373.917C283.817 373.761 283.045 373.562 282.265 373.371C280.695 372.981 279.099 372.504 277.46 371.975C276.645 371.706 275.847 371.428 275.058 371.142C274.278 370.847 273.506 370.561 272.76 370.24C271.26 369.633 269.838 368.957 268.502 368.298C267.436 367.743 266.421 367.196 265.476 366.633C265.918 366 266.456 365.453 267.037 364.985C266.187 364.369 265.484 363.589 264.955 362.696C265.415 362.947 265.892 363.207 266.395 363.467C267.514 364.066 268.728 364.673 270.003 365.306C271.286 365.922 272.639 366.572 274.07 367.188C274.781 367.509 275.518 367.803 276.255 368.124C277.001 368.428 277.755 368.731 278.527 369.035C280.071 369.624 281.588 370.179 283.071 370.674C283.817 370.925 284.537 371.168 285.265 371.385C285.985 371.61 286.687 371.836 287.381 372.027C288.76 372.434 290.096 372.781 291.336 373.111C292.584 373.405 293.746 373.709 294.822 373.934C295.359 374.056 295.862 374.169 296.348 374.281C296.834 374.385 297.293 374.472 297.718 374.559C298.143 374.654 298.542 374.741 298.906 374.819C299.271 374.897 299.609 374.966 299.912 375.027C301.118 375.279 301.785 375.478 301.777 375.608L301.785 375.591Z" fill="#311649"/>
<path d="M301.785 388.963C301.777 389.093 301.083 389.145 299.834 389.145C299.522 389.145 299.175 389.145 298.794 389.136C298.412 389.119 298.004 389.102 297.562 389.076C297.12 389.05 296.652 389.024 296.149 388.998C295.646 388.954 295.117 388.902 294.562 388.859C293.452 388.772 292.238 388.607 290.937 388.443C289.636 388.243 288.248 388.035 286.8 387.749C286.072 387.619 285.335 387.454 284.572 387.289C283.817 387.133 283.045 386.934 282.265 386.743C280.695 386.353 279.099 385.876 277.46 385.347C276.645 385.078 275.847 384.8 275.058 384.514C274.278 384.219 273.506 383.933 272.76 383.612C271.26 383.005 269.838 382.329 268.502 381.67C267.444 381.124 266.447 380.586 265.51 380.031C266.005 379.242 266.62 378.574 267.306 378.028C266.707 377.594 266.187 377.082 265.745 376.501C265.953 376.614 266.17 376.727 266.386 376.84C267.505 377.438 268.719 378.045 269.994 378.678C271.277 379.294 272.63 379.944 274.061 380.56C274.772 380.881 275.509 381.176 276.246 381.496C276.992 381.8 277.747 382.103 278.518 382.407C280.062 382.997 281.58 383.552 283.063 384.046C283.808 384.297 284.528 384.54 285.257 384.757C285.976 384.983 286.679 385.208 287.373 385.399C288.751 385.806 290.087 386.153 291.327 386.483C292.576 386.778 293.738 387.081 294.813 387.307C295.351 387.428 295.854 387.541 296.339 387.654C296.825 387.758 297.285 387.844 297.71 387.931C298.135 388.026 298.533 388.113 298.898 388.191C299.262 388.269 299.6 388.339 299.904 388.399C301.109 388.651 301.777 388.85 301.768 388.98L301.785 388.963Z" fill="#311649"/>
<path d="M324.549 123.669C323.543 126.167 322.538 128.673 321.54 131.171C320.82 132.974 320.092 135.038 320.942 136.79C321.688 138.325 323.465 139.123 325.165 139.279C326.813 139.435 328.521 139.105 329.943 138.256C332.267 136.868 333.62 134.223 334.08 131.552C334.54 128.881 334.227 126.141 333.915 123.453C330.819 123.218 327.611 123.175 324.541 123.661L324.549 123.669Z" fill="url(#paint2_linear_15_308)"/>
<path d="M331.678 127.103C331.331 126.887 330.897 126.679 330.394 126.496C329.891 126.323 329.319 126.176 328.703 126.08C328.088 125.993 327.498 125.976 326.969 126.011C326.431 126.045 325.954 126.124 325.564 126.245C324.784 126.47 324.35 126.783 324.385 127.025C324.428 127.277 324.922 127.407 325.659 127.52C325.833 127.546 326.024 127.572 326.223 127.598C325.85 127.641 325.512 127.71 325.217 127.789C324.437 128.014 324.003 128.326 324.038 128.569C324.081 128.82 324.575 128.951 325.313 129.063C325.486 129.089 325.677 129.115 325.876 129.141C325.503 129.185 325.165 129.254 324.87 129.332C324.09 129.558 323.656 129.87 323.691 130.113C323.734 130.364 324.229 130.494 324.966 130.607C325.139 130.633 325.33 130.659 325.529 130.685C325.156 130.728 324.818 130.798 324.523 130.876C323.743 131.101 323.309 131.413 323.344 131.656C323.387 131.908 323.882 132.038 324.619 132.151C324.983 132.203 325.417 132.255 325.894 132.307C326.362 132.367 326.882 132.428 327.42 132.497C327.958 132.575 328.469 132.662 328.937 132.732C329.406 132.81 329.831 132.879 330.204 132.931C330.941 133.035 331.452 133.035 331.556 132.81C331.66 132.593 331.331 132.168 330.637 131.734C330.377 131.57 330.065 131.413 329.709 131.266C330.013 131.318 330.29 131.361 330.542 131.396C331.279 131.5 331.791 131.5 331.895 131.275C331.999 131.058 331.669 130.633 330.975 130.199C330.715 130.035 330.403 129.878 330.047 129.731C330.351 129.783 330.628 129.826 330.88 129.861C331.617 129.965 332.129 129.965 332.233 129.74C332.337 129.523 332.007 129.098 331.314 128.664C331.053 128.5 330.741 128.344 330.386 128.196C330.689 128.248 330.967 128.292 331.218 128.326C331.955 128.43 332.467 128.43 332.571 128.205C332.675 127.988 332.346 127.563 331.652 127.129L331.678 127.103Z" fill="white"/>
<path d="M303.468 123.669C304.474 126.167 305.48 128.673 306.477 131.171C307.197 132.974 307.925 135.038 307.075 136.79C306.33 138.325 304.552 139.123 302.852 139.279C301.204 139.435 299.496 139.105 298.074 138.256C295.75 136.868 294.397 134.223 293.937 131.552C293.478 128.881 293.79 126.141 294.102 123.453C297.198 123.218 300.407 123.175 303.476 123.661L303.468 123.669Z" fill="url(#paint3_linear_15_308)"/>
<path d="M296.331 127.103C296.678 126.887 297.111 126.679 297.614 126.496C298.117 126.323 298.69 126.176 299.305 126.08C299.921 125.993 300.511 125.976 301.04 126.011C301.577 126.045 302.054 126.124 302.444 126.245C303.225 126.47 303.659 126.783 303.624 127.025C303.581 127.277 303.086 127.407 302.349 127.52C302.176 127.546 301.985 127.572 301.785 127.598C302.158 127.641 302.497 127.71 302.791 127.789C303.572 128.014 304.005 128.326 303.971 128.569C303.927 128.82 303.433 128.951 302.696 129.063C302.523 129.089 302.332 129.115 302.132 129.141C302.505 129.185 302.843 129.254 303.138 129.332C303.919 129.558 304.352 129.87 304.318 130.113C304.274 130.364 303.78 130.494 303.043 130.607C302.869 130.633 302.679 130.659 302.479 130.685C302.852 130.728 303.19 130.798 303.485 130.876C304.266 131.101 304.699 131.413 304.665 131.656C304.621 131.908 304.127 132.038 303.39 132.151C303.026 132.203 302.592 132.255 302.115 132.307C301.647 132.367 301.126 132.428 300.589 132.497C300.051 132.575 299.539 132.662 299.071 132.732C298.603 132.81 298.178 132.879 297.805 132.931C297.068 133.035 296.556 133.035 296.452 132.81C296.348 132.593 296.678 132.168 297.371 131.734C297.632 131.57 297.944 131.413 298.299 131.266C297.996 131.318 297.718 131.361 297.467 131.396C296.73 131.5 296.218 131.5 296.114 131.275C296.01 131.058 296.339 130.633 297.033 130.199C297.293 130.035 297.606 129.878 297.961 129.731C297.658 129.783 297.38 129.826 297.129 129.861C296.391 129.965 295.88 129.965 295.776 129.74C295.672 129.523 296.001 129.098 296.695 128.664C296.955 128.5 297.267 128.344 297.623 128.196C297.319 128.248 297.042 128.292 296.79 128.326C296.053 128.43 295.542 128.43 295.438 128.205C295.333 127.988 295.663 127.563 296.357 127.129L296.331 127.103Z" fill="white"/>
<path d="M343.194 59.3405C343.151 60.1036 343.038 60.9622 342.856 61.76C342.483 63.3816 341.026 64.5177 339.361 64.5177C338.182 64.4743 335.901 64.4656 333.178 64.4656C331.452 64.4656 329.544 64.4656 327.619 64.483C325.503 64.4917 323.361 64.509 321.436 64.5177C317.248 64.5524 314.022 64.587 314.022 64.587C314.022 64.587 312.452 64.5697 310.076 64.5524C309.053 64.5437 307.873 64.535 306.607 64.5177C300.155 64.4743 291.431 64.4223 288.673 64.5177C287.841 64.5177 287.06 64.2315 286.445 63.7459C285.82 63.2602 285.369 62.5665 285.179 61.7513C284.996 60.9535 284.875 60.0949 284.832 59.3318C284.806 58.9069 284.806 58.508 284.823 58.1611C284.962 55.6809 289.185 40.5049 290.477 38.1721C290.876 37.4524 291.301 36.7413 291.743 36.0388C293.616 33.0904 295.967 30.3847 298.924 28.5202C300.268 27.6704 301.716 27.0026 303.208 26.4736C302.722 25.7972 302.41 25.0081 302.418 24.1755C302.418 22.5972 303.528 21.1837 304.899 20.3772C306.26 19.5707 307.856 19.2672 309.408 18.9984C310.752 18.7642 312.556 18.5301 314.022 18.8076C315.478 18.5301 317.282 18.7642 318.635 18.9984C320.196 19.2672 321.783 19.5707 323.145 20.3772C324.506 21.1837 325.616 22.5972 325.625 24.1755C325.625 25.0167 325.321 25.7972 324.836 26.4736C326.336 27.0026 327.775 27.6617 329.12 28.5202C332.077 30.3847 334.418 33.0904 336.3 36.0388C336.742 36.7413 337.167 37.4437 337.566 38.1721C337.835 38.6578 338.216 39.6637 338.641 40.9472C340.246 45.7862 342.587 54.701 342.908 56.0538C343.073 56.7389 343.186 57.4413 343.22 58.1524C343.238 58.4993 343.238 58.8982 343.212 59.3231L343.194 59.3405Z" fill="#F23B6B"/>
<path d="M321.072 25.4069C320.768 25.6064 320.378 25.8319 319.919 26.0573C318.566 26.7251 316.502 27.3581 314.16 27.3928C311.819 27.4275 309.738 26.8465 308.367 26.2134C307.76 25.9359 307.283 25.6584 306.945 25.4243C307.049 25.2769 307.171 25.1381 307.301 25.008C308.749 23.4384 311.221 22.4064 314.022 22.4064C316.823 22.4064 319.207 23.4037 320.664 24.93C320.812 25.0861 320.951 25.2508 321.081 25.4156L321.072 25.4069Z" fill="#311649"/>
<path d="M345.059 85.9201C344.59 89.6837 344.035 93.4387 343.394 97.1763C341.347 109.178 338.425 113.627 334.67 125.213C331.253 126.626 326.778 126.557 323.318 125.248C327.203 107.834 328.556 97.1243 328.044 79.2947C323.465 78.2541 318.739 77.569 314.004 77.2828C309.269 77.569 304.543 78.2541 299.964 79.2947C299.461 97.1243 300.805 107.834 304.691 125.248C301.23 126.557 296.756 126.626 293.339 125.213C288.413 110.02 284.927 101.773 282.95 85.9201C282.386 81.376 281.97 76.6064 283.661 72.3484C284.875 69.2959 287.095 66.7463 289.697 64.7257C290.078 64.4309 290.468 64.1447 290.867 63.8672C293.963 61.7252 297.432 60.2076 300.884 58.6987C305.167 58.7421 309.616 58.6033 314.004 58.5339C318.392 58.6033 322.85 58.7421 327.125 58.6987C330.576 60.2076 334.045 61.7252 337.141 63.8672C340.237 66.0092 342.951 68.8536 344.339 72.3484C346.03 76.6064 345.614 81.3673 345.05 85.9201H345.059Z" fill="#462261"/>
<path d="M345.059 85.9201C344.59 89.6837 344.035 93.4387 343.394 97.1763C343.394 96.9595 343.394 96.7427 343.385 96.5259C343.177 88.5304 340.445 80.2399 334.357 75.0454C328.877 70.3625 321.488 68.7495 314.377 67.5788C306.199 66.2347 297.961 65.2807 289.697 64.7257C290.078 64.4309 290.468 64.1447 290.867 63.8672C293.963 61.7252 297.432 60.2076 300.884 58.6987C305.167 58.7421 309.616 58.6033 314.004 58.5339C318.392 58.6033 322.85 58.7421 327.125 58.6987C330.576 60.2076 334.045 61.7252 337.141 63.8672C340.237 66.0092 342.951 68.8536 344.339 72.3484C346.03 76.6064 345.614 81.3673 345.05 85.9201H345.059Z" fill="#311649"/>
<path d="M342.847 61.7686C342.474 63.3903 341.018 64.5263 339.352 64.5263C338.173 64.483 335.892 64.4743 333.169 64.4743C329.536 64.4743 325.104 64.5003 321.419 64.5263C317.23 64.561 314.004 64.5957 314.004 64.5957C314.004 64.5957 312.435 64.5783 310.058 64.561C310.041 63.0521 310.024 61.5431 310.024 60.0689C313.605 58.8808 317.187 57.6841 320.777 56.4961C324.801 55.1606 328.894 53.8077 333.135 53.6343C336.534 53.4955 340.09 54.2153 342.882 56.0711C343.047 56.7562 343.16 57.4586 343.194 58.1697C343.246 59.141 343.133 60.5199 342.839 61.7686H342.847Z" fill="#FF578B"/>
<path d="M285.17 61.7686C285.543 63.3903 287 64.5263 288.665 64.5263C289.844 64.483 292.125 64.4743 294.848 64.4743C298.481 64.4743 302.913 64.5003 306.598 64.5263C310.787 64.561 314.013 64.5957 314.013 64.5957C314.013 64.5957 315.583 64.5783 317.959 64.561C317.976 63.0521 317.993 61.5431 317.993 60.0689C314.412 58.8808 310.83 57.6841 307.24 56.4961C303.216 55.1606 299.123 53.8077 294.882 53.6343C291.483 53.4955 287.928 54.2153 285.135 56.0711C284.97 56.7562 284.858 57.4586 284.823 58.1697C284.771 59.141 284.884 60.5199 285.179 61.7686H285.17Z" fill="#FF578B"/>
<path d="M314.767 24.8519H313.484V41.6409H314.767V24.8519Z" fill="#D81D56"/>
<path d="M318.332 23.6639C318.384 24.4704 318.479 25.2769 318.609 26.0747C317.196 26.6124 315.643 26.9072 314.013 26.9072C312.383 26.9072 310.83 26.6124 309.417 26.0747C309.686 24.4097 309.79 22.71 309.738 21.0189C309.703 19.8395 309.59 18.6688 309.399 17.5068C310.943 17.8276 312.478 18.0444 314.013 18.2959C315.548 18.0444 317.083 17.8276 318.626 17.5068C318.288 19.536 318.193 21.6086 318.332 23.6639Z" fill="#F68895"/>
<path d="M318.332 23.6639C317.222 23.9327 316.068 23.9848 314.941 23.8113C312.955 23.5078 311.09 22.4932 309.738 21.0189C309.703 19.8395 309.59 18.6688 309.399 17.5068C310.943 17.8276 312.478 18.0444 314.013 18.2959C315.548 18.0444 317.083 17.8276 318.626 17.5068C318.288 19.536 318.193 21.6086 318.332 23.6639Z" fill="#F17785"/>
<path d="M309.287 7.22176C309.85 9.27703 309.365 11.4537 308.992 13.561C308.619 15.6683 308.393 17.9404 309.399 19.8308C310.388 21.6867 312.556 22.8227 314.646 22.5885C316.727 22.3544 318.592 20.7501 319.129 18.7208C319.632 16.8303 319.06 14.8444 318.809 12.9106C318.531 10.7946 318.652 8.6353 319.147 6.56269C316.068 4.78493 312.14 5.12314 309.287 7.23044V7.22176Z" fill="#F68895"/>
<path d="M319.554 14.7317C318.236 12.5464 317.95 9.31172 318.54 6.80551C315.808 8.141 312.591 8.40116 309.764 7.28247C309.746 7.28247 309.738 7.26513 309.72 7.26513C310.423 9.58922 310.084 12.1128 308.81 14.1594C308.81 14.1594 306.061 7.81147 308.55 4.51611C308.55 4.51611 311.68 -2.82907 320.82 2.721C320.82 2.721 320.959 4.0218 320.057 5.08846C320.057 5.08846 322.72 7.81146 319.554 14.7317V14.7317Z" fill="url(#paint4_linear_15_308)"/>
<path d="M318.678 13.7171C318.748 13.4049 318.835 13.084 319.025 12.8152C319.216 12.555 319.528 12.3556 319.849 12.3989C320.17 12.4423 320.413 12.7025 320.578 12.9886C320.968 13.6737 320.977 14.5583 320.595 15.2434C320.222 15.9285 319.468 16.4054 318.687 16.4488C318.661 15.5209 318.47 14.6103 318.678 13.7084V13.7171Z" fill="#F68895"/>
<path d="M309.339 13.7171C309.269 13.4049 309.183 13.084 308.992 12.8152C308.801 12.555 308.489 12.3556 308.168 12.3989C307.847 12.4423 307.604 12.7025 307.44 12.9886C307.049 13.6737 307.041 14.5583 307.422 15.2434C307.795 15.9285 308.55 16.4054 309.33 16.4488C309.356 15.5209 309.547 14.6103 309.339 13.7084V13.7171Z" fill="#F68895"/>
<path d="M315.019 17.9577C315.227 17.9577 315.383 18.1572 315.322 18.3653C315.149 18.929 314.629 19.3366 314.004 19.3366C313.38 19.3366 312.86 18.929 312.686 18.3653C312.625 18.1658 312.782 17.9577 312.99 17.9577H315.01H315.019Z" fill="#EFEFEF"/>
<path d="M325.859 40.3401H302.15C298.332 40.3401 295.238 43.4346 295.238 47.2517V57.6928C295.238 61.51 298.332 64.6044 302.15 64.6044H325.859C329.676 64.6044 332.77 61.51 332.77 57.6928V47.2517C332.77 43.4346 329.676 40.3401 325.859 40.3401Z" fill="#462261"/>
<path d="M317.126 51.1714H310.9V53.7817H317.126V51.1714Z" fill="white"/>
<path d="M321.401 25.1728C321.306 25.2422 321.193 25.3289 321.072 25.4069C320.768 25.6064 320.378 25.8319 319.919 26.0573C318.566 26.7251 316.502 27.3581 314.16 27.3928C311.819 27.4275 309.738 26.8465 308.367 26.2134C307.76 25.9359 307.283 25.6584 306.945 25.4243C306.815 25.3375 306.711 25.2595 306.624 25.1815C306.416 25.008 306.321 24.8779 306.356 24.8259C306.39 24.7652 306.538 24.7825 306.789 24.8519C306.928 24.8866 307.101 24.9386 307.301 25.008C307.665 25.1207 308.125 25.2682 308.671 25.4329C310.05 25.8405 311.992 26.2394 314.152 26.2134C316.311 26.1874 318.245 25.7278 319.615 25.2855C320.014 25.1554 320.369 25.034 320.664 24.93C320.864 24.8606 321.037 24.7999 321.193 24.7479C321.61 24.6091 321.861 24.5397 321.913 24.6264C321.956 24.6958 321.783 24.9039 321.419 25.1815L321.401 25.1728Z" fill="#311649"/>
<path d="M310.666 35.4664C310.431 35.4664 310.232 35.293 310.197 35.0589C309.772 32.1798 310.587 29.0925 312.365 26.7858C312.53 26.5777 312.825 26.543 313.033 26.6991C313.241 26.8638 313.276 27.1587 313.12 27.3668C311.489 29.4654 310.752 32.2838 311.134 34.9201C311.169 35.1803 310.995 35.4231 310.735 35.4578C310.709 35.4578 310.692 35.4578 310.666 35.4578V35.4664Z" fill="#E5E1F9"/>
<path d="M316.216 38.6317C316.164 38.6317 316.112 38.6317 316.06 38.6057C315.808 38.519 315.678 38.2501 315.765 38.0073C316.432 36.0475 316.979 34.2697 317.031 32.4052C317.091 30.3413 316.441 28.5028 315.244 27.3581C315.054 27.176 315.054 26.8725 315.227 26.6904C315.409 26.4996 315.713 26.4996 315.895 26.673C317.282 28.0085 318.037 30.1071 317.967 32.4312C317.915 34.4258 317.308 36.351 316.649 38.3108C316.58 38.5103 316.398 38.6317 316.198 38.6317H316.216Z" fill="#E5E1F9"/>
<path d="M254.974 331.008H246.978V413.583H254.974V331.008Z" fill="#0386E9"/>
<path d="M276.931 324.018H82.6528V331.008H276.931V324.018Z" fill="#47B2F4"/>
<path d="M271.624 331.008H263.629V413.583H271.624V331.008Z" fill="#0386E9"/>
<path d="M96.7014 331.008H88.7058V413.583H96.7014V331.008Z" fill="#0386E9"/>
<path d="M88.7058 331.008H96.7014V333.887C94.0391 333.913 91.3768 333.948 88.7058 333.991V331.008Z" fill="#025ECC"/>
<path d="M271.624 331.008V337.417C268.962 337.217 266.291 337.018 263.629 336.836V331.008H271.624V331.008Z" fill="#025ECC"/>
<path d="M254.974 331.008V336.575L246.978 336.341V331.008H254.974Z" fill="#025ECC"/>
<path d="M112.32 331.008H104.324V413.583H112.32V331.008Z" fill="#0386E9"/>
<path d="M104.324 331.008H112.32V334.364L104.324 334.121V331.008Z" fill="#025ECC"/>
<path d="M177.108 322.327V324.018H201.927V322.327H197.14V301.003H181.895V322.327H177.108Z" fill="#462261"/>
<path d="M197.14 301.003V317.697C192.527 314.887 187.28 313.109 181.904 312.563V301.003H197.14Z" fill="#210F33"/>
<path d="M146.678 311.704H232.357V259.083H146.678V311.704Z" fill="#57367A"/>
<path d="M150.338 308.504H228.698V262.274H150.338V308.504Z" fill="white"/>
<path d="M146.687 324.018H192.301V320.645H146.687V324.018Z" fill="#210F33"/>
<path d="M185.416 265.777H152.965V270.512H185.416V265.777Z" fill="#B6E7FF"/>
<path d="M156.634 272.455H152.965V276.123H156.634V272.455Z" fill="#FFE6F4"/>
<path d="M185.425 272.455H159.122V276.123H185.425V272.455Z" fill="#FFE6F4"/>
<path d="M156.634 278.343H152.965V282.011H156.634V278.343Z" fill="#FFE6F4"/>
<path d="M185.425 278.343H159.122V282.011H185.425V278.343Z" fill="#FFE6F4"/>
<path d="M156.634 284.24H152.965V287.908H156.634V284.24Z" fill="#FFE6F4"/>
<path d="M185.425 284.24H159.122V287.908H185.425V284.24Z" fill="#FFE6F4"/>
<path d="M224.535 265.777H192.744V267.989H224.535V265.777Z" fill="#FFE6F4"/>
<path d="M224.535 269.099H192.744V271.31H224.535V269.099Z" fill="#FFE6F4"/>
<path d="M224.535 272.42H192.744V274.631H224.535V272.42Z" fill="#FFE6F4"/>
<path d="M224.535 275.733H192.744V277.944H224.535V275.733Z" fill="#FFE6F4"/>
<path d="M224.535 279.054H192.744V281.265H224.535V279.054Z" fill="#FFE6F4"/>
<path d="M224.535 282.375H192.744V284.587H224.535V282.375Z" fill="#FFE6F4"/>
<path d="M224.535 285.697H192.744V287.908H224.535V285.697Z" fill="#FFE6F4"/>
<path d="M174.645 378.808C174.55 381.236 174.402 383.569 174.238 385.824C174.073 388.087 173.891 390.264 173.7 392.345C173.318 396.499 172.911 400.237 172.512 403.384C172.122 406.532 171.749 409.073 171.393 410.834C171.038 412.594 170.691 413.574 170.309 413.583C169.928 413.583 169.538 412.629 169.087 410.894C168.636 409.151 168.133 406.628 167.578 403.506C167.023 400.384 166.416 396.672 165.817 392.544C165.522 390.481 165.228 388.313 164.941 386.067C164.664 383.82 164.404 381.479 164.161 379.138C163.927 376.822 163.693 374.559 163.467 372.382C163.328 371.09 163.198 369.833 163.06 368.618C162.973 367.821 162.877 367.049 162.782 366.286C162.548 364.369 162.314 362.591 162.08 360.926C161.837 359.27 161.611 357.735 161.403 356.322C161.195 354.917 161.013 353.633 160.874 352.471C160.839 352.185 160.805 351.899 160.779 351.63C160.753 351.353 160.735 351.084 160.709 350.832C160.683 350.572 160.675 350.321 160.666 350.078C160.649 349.835 160.64 349.601 160.64 349.375C160.64 348.916 160.64 348.499 160.692 348.109C160.735 347.719 160.796 347.363 160.883 347.051C161.065 346.418 161.368 345.933 161.811 345.638C162.253 345.343 162.817 345.265 163.493 345.412C163.831 345.49 164.196 345.62 164.577 345.811C164.959 346.002 165.366 346.253 165.774 346.574C165.982 346.73 166.19 346.904 166.407 347.095C166.615 347.285 166.832 347.493 167.049 347.71C167.265 347.927 167.482 348.161 167.699 348.413C167.916 348.664 168.133 348.924 168.349 349.211C169.208 350.338 170.04 351.699 170.804 353.269C171.567 354.839 172.243 356.616 172.807 358.55C173.371 360.484 173.804 362.591 174.116 364.785C174.255 365.774 174.368 366.789 174.463 367.812C174.576 369.061 174.645 370.336 174.689 371.628C174.767 373.978 174.732 376.38 174.637 378.808H174.645Z" fill="#F68895"/>
<path d="M158.793 378.808C158.697 381.236 158.55 383.569 158.385 385.824C158.221 388.087 158.038 390.264 157.848 392.345C157.466 396.499 157.058 400.237 156.66 403.384C156.269 406.532 155.896 409.073 155.541 410.834C155.185 412.594 154.838 413.574 154.457 413.583C154.075 413.583 153.685 412.629 153.234 410.894C152.783 409.151 152.28 406.628 151.725 403.506C151.17 400.384 150.563 396.672 149.965 392.544C149.67 390.481 149.375 388.313 149.089 386.067C148.811 383.82 148.551 381.479 148.308 379.138C148.074 376.822 147.84 374.559 147.615 372.382C147.389 370.24 147.164 368.202 146.93 366.286C146.912 366.164 146.904 366.043 146.886 365.921C146.669 364.144 146.453 362.479 146.227 360.926C145.984 359.27 145.759 357.735 145.551 356.322C145.343 354.917 145.161 353.633 145.022 352.471C144.987 352.185 144.952 351.899 144.926 351.63C144.9 351.353 144.883 351.084 144.857 350.832C144.831 350.572 144.822 350.321 144.814 350.078C144.796 349.835 144.788 349.601 144.788 349.375C144.788 348.916 144.788 348.499 144.84 348.109C144.883 347.719 144.944 347.363 145.03 347.051C145.213 346.418 145.516 345.933 145.967 345.638C146.409 345.343 146.973 345.265 147.649 345.412C147.988 345.49 148.352 345.62 148.733 345.811C149.115 346.002 149.523 346.253 149.93 346.574C150.138 346.73 150.346 346.904 150.563 347.095C150.771 347.285 150.988 347.493 151.205 347.71C151.422 347.927 151.638 348.161 151.855 348.413C152.072 348.664 152.289 348.924 152.506 349.211C153.364 350.338 154.197 351.699 154.96 353.269C155.723 354.839 156.399 356.616 156.963 358.55C157.527 360.484 157.96 362.591 158.273 364.785C158.437 365.947 158.567 367.127 158.663 368.341C158.75 369.425 158.81 370.518 158.845 371.628C158.923 373.978 158.888 376.38 158.793 378.808V378.808Z" fill="#F68895"/>
<path d="M158.273 364.785C158.437 365.947 158.567 367.127 158.663 368.341C154.674 367.942 150.728 367.136 146.895 365.93C146.678 364.152 146.461 362.487 146.236 360.935C145.993 359.279 145.768 357.744 145.559 356.33C145.351 354.925 145.169 353.642 145.03 352.48C144.996 352.194 144.961 351.908 144.935 351.639C144.909 351.361 144.892 351.092 144.866 350.841C144.84 350.581 144.831 350.329 144.822 350.086C144.805 349.844 144.796 349.609 144.796 349.384C144.796 348.924 144.796 348.508 144.848 348.118C144.892 347.728 144.952 347.372 145.039 347.06C145.221 346.427 145.525 345.941 145.976 345.646C146.418 345.351 146.982 345.273 147.658 345.421C147.996 345.499 148.36 345.629 148.742 345.82C149.124 346.011 149.531 346.262 149.939 346.583C150.147 346.739 150.355 346.912 150.572 347.103C150.78 347.294 150.997 347.502 151.214 347.719C151.43 347.936 151.647 348.17 151.864 348.421C152.081 348.673 152.298 348.933 152.514 349.219C153.373 350.347 154.205 351.708 154.969 353.278C155.732 354.847 156.408 356.625 156.972 358.559C157.535 360.493 157.969 362.6 158.281 364.794L158.273 364.785Z" fill="#F17785"/>
<path d="M174.463 367.812C170.7 368.445 166.875 368.714 163.06 368.618C162.973 367.821 162.877 367.049 162.782 366.286C162.548 364.369 162.314 362.591 162.08 360.926C161.837 359.27 161.611 357.735 161.403 356.322C161.195 354.917 161.013 353.633 160.874 352.471C160.839 352.185 160.805 351.899 160.779 351.63C160.753 351.353 160.735 351.084 160.709 350.832C160.683 350.572 160.675 350.321 160.666 350.078C160.649 349.835 160.64 349.601 160.64 349.375C160.64 348.916 160.64 348.499 160.692 348.109C160.735 347.719 160.796 347.363 160.883 347.051C161.065 346.418 161.368 345.933 161.811 345.638C162.253 345.343 162.817 345.265 163.493 345.412C163.831 345.49 164.196 345.62 164.577 345.811C164.959 346.002 165.366 346.253 165.774 346.574C165.982 346.73 166.19 346.904 166.407 347.095C166.615 347.285 166.832 347.493 167.049 347.71C167.265 347.927 167.482 348.161 167.699 348.413C167.916 348.664 168.133 348.924 168.349 349.211C169.208 350.338 170.04 351.699 170.804 353.269C171.567 354.839 172.243 356.616 172.807 358.55C173.371 360.484 173.804 362.591 174.116 364.785C174.255 365.774 174.368 366.789 174.463 367.812V367.812Z" fill="#F17785"/>
<path d="M174.359 363.129C168.93 365.098 162.825 366.199 156.365 366.199C152.402 366.199 148.569 365.783 144.944 365.011C144.423 362.331 143.088 359.721 140.859 358.307C137.217 355.983 132.508 357.423 128.293 356.703C127.374 356.547 126.472 356.278 125.614 355.914C122.908 354.769 120.584 352.645 119.188 349.974C118.572 348.786 118.139 347.502 117.896 346.175C117.419 343.556 117.679 340.79 118.702 338.336C128.051 338.856 137.399 338.431 146.522 336.246C149.124 340.088 153.833 341.605 158.247 342.542C158.255 342.542 158.273 342.542 158.281 342.542C161.039 343.123 163.615 344.389 165.757 346.227C174.654 353.867 174.376 362.973 174.368 363.138L174.359 363.129Z" fill="#462261"/>
<path d="M188.269 320.966C190.142 319.492 192.692 318.919 195.024 319.448C197.349 319.977 200.34 321.876 201.39 324.018H188.269V320.966Z" fill="#F68895"/>
<path d="M129.906 296.476C133.176 296.077 136.463 296.017 139.741 296.329C139.081 294.117 138.683 291.724 138.613 289.426C140.035 290.146 141.874 289.374 142.758 288.047C143.643 286.72 143.73 285.012 143.504 283.442C143.279 281.864 142.758 280.346 142.507 278.777C142.264 277.198 142.325 275.499 143.157 274.146C138.96 273.062 134.537 273.608 130.592 275.386C130.921 277.788 131.112 280.208 131.164 282.627C131.216 284.916 131.138 287.206 130.938 289.487C130.73 291.837 130.383 294.169 129.898 296.485L129.906 296.476Z" fill="#F68895"/>
<path d="M126.143 408.249H131.598V359.79H136.463V408.249H142.091C145.169 408.249 147.667 410.747 147.667 413.826H120.575C120.575 410.747 123.073 408.249 126.152 408.249H126.143Z" fill="#36194F"/>
<path d="M142.117 350.98V364.378H157.397C157.492 364.378 157.587 364.378 157.674 364.378C158.533 364.343 159.365 364.152 160.111 363.727C162.158 362.557 162.947 359.964 162.921 357.605C162.886 355.186 161.976 352.523 159.799 351.465C159.122 351.136 158.411 350.997 157.674 350.98H142.117V350.98Z" fill="#32199B"/>
<path d="M189.388 320.012V324.027H161.49L147.875 311.878C147.875 311.878 146.583 331.329 149.349 339.186C144.753 340.825 139.723 341.735 134.459 341.735C128.432 341.735 122.717 340.547 117.618 338.431C117.375 331.762 117.15 325.068 116.82 318.512C116.569 313.439 116.326 308.27 116.881 303.249C116.89 303.136 116.907 303.015 116.924 302.902C117.445 299.234 120.177 296.259 123.749 295.288L128.051 294.109C132.742 292.825 137.685 292.721 142.429 293.805C145.655 294.551 148.473 296.519 150.242 299.321C158.524 312.381 166.017 317.922 166.017 317.922L189.388 320.029V320.012Z" fill="#FB446C"/>
<path d="M134.112 342.984H126.047V354.214H134.112V342.984Z" fill="#36194F"/>
<path d="M189.388 324.018H161.49L147.875 311.869L148.057 308.521L162.184 322.128L189.388 324.018Z" fill="#E2295A"/>
<path d="M110.36 357.605C110.334 359.964 111.036 362.565 112.866 363.727C113.976 364.438 115.338 364.499 116.595 364.248C117.852 363.996 119.049 363.441 120.255 362.982C120.281 362.973 120.307 362.964 120.333 362.956C125.64 360.952 131.398 360.952 136.697 362.956C136.723 362.964 136.749 362.973 136.775 362.982C137.989 363.441 139.177 363.988 140.434 364.248C141.692 364.499 143.053 364.438 144.163 363.727C145.993 362.557 146.695 359.964 146.669 357.605C146.643 355.185 145.828 352.523 143.886 351.465C141.883 350.373 139.524 351.361 137.39 352.09C134.52 353.07 131.511 353.546 128.51 353.512C125.51 353.546 122.501 353.07 119.63 352.09C117.497 351.361 115.147 350.373 113.135 351.465C111.192 352.523 110.377 355.185 110.351 357.605H110.36Z" fill="url(#paint5_linear_15_308)"/>
<path d="M155.792 300.231C149.08 314.973 147.736 331.39 146.652 347.554H142.359V346.219C139.81 345.62 137.191 345.325 134.572 345.351C133.141 345.343 131.702 345.421 130.279 345.594V295.383C138.891 294.594 147.667 296.181 155.593 300.136C155.654 300.17 155.723 300.205 155.792 300.24V300.231Z" fill="#32199B"/>
<path d="M151.508 300.231C144.796 314.973 143.452 331.39 142.368 347.554C138.535 346.045 134.407 345.317 130.288 345.351C126.169 345.317 122.041 346.054 118.208 347.554C117.124 331.39 115.78 314.973 109.068 300.231C109.137 300.196 109.198 300.162 109.267 300.136C122.492 293.536 138.093 293.536 151.318 300.136C151.387 300.17 151.448 300.205 151.517 300.231H151.508Z" fill="url(#paint6_linear_15_308)"/>
<path d="M138.622 280.147C138.483 279.678 137.911 279.427 137.442 279.557C136.974 279.687 136.636 280.129 136.532 280.606C136.41 281.187 136.619 281.829 137.052 282.228C137.494 282.627 138.154 282.774 138.717 282.592C139.723 283.217 140.027 284.708 139.983 285.896C139.949 287.076 139.671 288.272 139.897 289.426C140.339 291.698 142.516 293.163 143.678 295.175C145.473 298.289 144.467 302.477 142.004 305.096C139.541 307.715 135.934 308.964 132.369 309.432C130.262 309.71 128.077 309.736 126.047 309.103C124.018 308.469 122.145 307.108 121.252 305.174C120.203 302.902 120.645 300.196 121.677 297.916C122.709 295.635 124.278 293.658 125.588 291.524C126.897 289.391 127.981 286.989 127.851 284.491C127.747 282.532 126.915 280.693 126.594 278.759C126.082 275.637 127.027 272.273 129.23 270.001C131.433 267.728 134.876 266.679 137.928 267.512C140.981 268.344 143.452 271.111 143.773 274.258C143.86 275.091 142.576 275.629 141.822 275.984C141.067 276.34 140.252 276.591 139.602 277.112C138.735 277.805 138.5 279.028 138.639 280.129L138.622 280.147Z" fill="#462261"/>
<path d="M139.168 282.809C139.168 283.173 138.873 283.459 138.518 283.459C138.162 283.459 137.867 283.165 137.867 282.809C137.867 282.454 138.162 282.159 138.518 282.159C138.873 282.159 139.168 282.454 139.168 282.809Z" fill="white"/>
<path d="M168.289 407.278C168.289 407.278 166.632 408.466 166.32 413.826H173.873C173.873 413.826 173.735 410.383 171.992 407.278H168.289Z" fill="#36194F"/>
<path d="M152.445 407.278C152.445 407.278 150.789 408.466 150.476 413.826H158.03C158.03 413.826 157.891 410.383 156.148 407.278H152.445Z" fill="#36194F"/>
<path d="M451.117 201.24C450.51 202.446 449.903 203.677 449.669 205.013C449.443 206.348 449.652 207.814 450.536 208.837C451.377 206.799 452.002 204.605 452.843 202.567C452.956 202.298 453.068 202.004 453.016 201.709C452.947 201.353 452.617 201.093 452.271 200.989C451.924 200.885 451.481 201.214 451.117 201.24V201.24Z" fill="#311649"/>
<path d="M477.862 276.522C477.176 277.268 476.5 278.014 475.815 278.768C475.659 278.933 475.494 279.141 475.546 279.366C475.598 279.627 475.919 279.739 476.188 279.731C476.457 279.713 476.717 279.618 476.986 279.653C477.428 279.713 477.758 280.129 477.827 280.572C477.896 281.014 477.766 281.456 477.593 281.864C477.402 282.332 477.151 282.783 477.02 283.277C476.89 283.772 476.908 284.327 477.203 284.743C477.48 285.133 477.974 285.333 478.46 285.333C478.937 285.333 479.405 285.168 479.83 284.942C481.313 284.162 482.397 282.653 482.657 280.988C482.917 279.332 482.345 277.563 481.174 276.366C479.978 276.453 479.067 276.435 477.87 276.522H477.862Z" fill="#F68895"/>
<path d="M423.48 181.555C422.786 181.165 422.075 180.766 421.537 180.176C421.207 179.821 420.384 178.875 419.82 178.025C419.62 177.722 420.002 177.366 420.288 177.592C420.956 178.103 421.745 178.615 422.014 178.572C422.482 178.494 422.89 178.112 422.985 177.644C423.124 177.002 422.725 176.386 422.413 175.805C422.031 175.094 421.754 174.331 421.598 173.542C421.433 172.727 421.476 171.704 422.352 171.374C422.526 171.305 422.716 171.287 422.899 171.305C423.549 171.365 424.052 171.764 424.477 172.215C426.714 174.557 427.2 178.381 425.63 181.208C424.945 181.512 424.173 181.26 423.488 181.564L423.48 181.555Z" fill="#F68895"/>
<path d="M475.798 352.012C475.095 355.897 475.312 359.938 476.431 363.728C471.176 364.924 465.66 365.124 460.301 364.482C459.624 363.675 459.902 362.305 460.544 361.473C461.194 360.649 462.2 360.189 463.206 359.877C464.212 359.565 465.253 359.357 466.189 358.88C468.34 357.796 469.667 355.272 469.328 352.888C471.193 351.908 473.716 351.708 475.798 352.012V352.012Z" fill="#311649"/>
<path d="M449.01 328.918C448.672 332.847 449.253 336.862 450.71 340.521C445.584 342.195 440.112 342.897 434.718 342.75C433.973 342.013 434.12 340.617 434.684 339.732C435.256 338.848 436.219 338.301 437.181 337.894C438.153 337.486 439.176 337.183 440.06 336.628C442.107 335.353 443.191 332.716 442.636 330.375C444.396 329.23 446.894 328.797 448.993 328.909L449.01 328.918Z" fill="#311649"/>
<path d="M477.662 355.524H466.961C466.961 355.524 456.052 314.262 451.412 277.467C451.412 277.467 440.91 289.842 440.503 297.075C440.503 297.075 444.301 317.116 450.978 333.072C450.527 333.237 450.077 333.393 449.617 333.54C446.755 334.434 443.729 334.815 440.737 334.65C436.331 327.288 428.119 309.025 425.353 296.45C425.353 296.45 431.709 280.39 438.473 267.72C439.15 266.462 439.826 265.24 440.494 264.069H466.952C466.952 264.069 467.386 269.671 468.175 278.421C469.909 297.673 473.352 332.127 477.653 355.524H477.662Z" fill="#462261"/>
<path d="M468.184 278.421C466.059 276.383 463.579 274.727 460.873 273.573C453.753 270.556 445.402 270.972 438.482 267.729C439.159 266.471 439.835 265.248 440.503 264.078H466.961C466.961 264.078 467.395 269.68 468.184 278.43V278.421Z" fill="#311649"/>
<path d="M481.755 276.773H476.786C476.786 276.773 476.283 253.732 466.31 239.467L468.054 267.356C467.776 267.442 467.507 267.529 467.23 267.607C454.144 271.466 441.717 267.633 439.011 266.697C438.656 266.575 438.473 266.497 438.473 266.497L442.593 231.029L426.575 213.069C424.988 211.291 424.035 209.036 423.878 206.66L423.558 202.004L422.101 180.913L422.361 180.87L426.081 180.193L426.307 180.15L431.848 206.478L450.536 220.787C450.762 220.752 450.996 220.726 451.221 220.7C451.585 220.657 451.95 220.622 452.314 220.596C455.002 220.379 457.708 220.458 460.37 220.83C460.37 220.83 460.37 220.83 460.379 220.83C460.838 220.9 461.298 220.969 461.749 221.056C462.217 221.143 462.694 221.238 463.163 221.342C463.163 221.342 463.171 221.342 463.18 221.342C464.541 221.654 465.782 222.348 466.77 223.337C471.392 227.95 484.6 244.193 481.755 276.747V276.773Z" fill="url(#paint7_linear_15_308)"/>
<path d="M440.494 297.083C440.494 297.083 444.292 317.124 450.97 333.081C450.519 333.245 450.068 333.402 449.608 333.549C441.96 318.295 437.944 295.965 437.944 295.965C438.855 286.313 447.857 275.499 447.857 275.499L451.403 277.476C451.403 277.476 440.902 289.851 440.494 297.083V297.083Z" fill="#311649"/>
<path d="M469.406 358.958C469.285 358.715 469.12 358.464 468.903 358.23C468.687 358.004 468.444 357.822 468.21 357.683C467.976 357.553 467.741 357.466 467.542 357.423C467.134 357.345 466.874 357.423 466.84 357.544C466.814 357.64 466.9 357.753 467.03 357.883C466.892 357.822 466.753 357.779 466.631 357.753C466.224 357.675 465.964 357.753 465.929 357.874C465.894 358.004 466.059 358.16 466.293 358.36C466.12 358.273 465.955 358.221 465.799 358.186C465.417 358.108 465.166 358.186 465.131 358.308C465.096 358.42 465.209 358.559 465.383 358.724C465.183 358.637 464.992 358.585 464.836 358.568C464.472 358.524 464.247 358.602 464.212 358.733C464.177 358.871 464.333 359.036 464.567 359.227C464.802 359.426 465.105 359.652 465.409 359.929C465.712 360.207 465.946 360.476 466.128 360.701C466.311 360.918 466.449 361.083 466.597 361.065C466.727 361.048 466.848 360.822 466.796 360.441C466.779 360.311 466.744 360.163 466.675 360.007C466.701 360.042 466.727 360.077 466.753 360.103C466.866 360.259 466.978 360.398 467.065 360.528C467.247 360.779 467.386 360.961 467.525 360.953C467.655 360.935 467.767 360.701 467.733 360.302C467.715 360.103 467.655 359.877 467.551 359.643C467.525 359.591 467.499 359.539 467.473 359.487C467.551 359.582 467.629 359.669 467.698 359.756C467.828 359.921 467.941 360.077 468.036 360.215C468.236 360.484 468.392 360.675 468.531 360.658C468.661 360.632 468.756 360.38 468.704 359.964C468.678 359.764 468.609 359.53 468.496 359.288C468.531 359.331 468.565 359.374 468.6 359.418C468.73 359.582 468.843 359.738 468.938 359.877C469.138 360.146 469.294 360.337 469.432 360.319C469.563 360.293 469.658 360.042 469.606 359.626C469.58 359.418 469.51 359.183 469.389 358.941L469.406 358.958Z" fill="white"/>
<path d="M443.061 336.385C442.896 336.168 442.688 335.951 442.428 335.769C442.168 335.587 441.899 335.457 441.639 335.37C441.379 335.283 441.136 335.249 440.928 335.249C440.511 335.249 440.268 335.37 440.268 335.509C440.268 335.604 440.364 335.7 440.529 335.804C440.381 335.769 440.234 335.752 440.112 335.752C439.696 335.752 439.453 335.873 439.453 336.012C439.453 336.151 439.635 336.272 439.904 336.419C439.713 336.367 439.54 336.35 439.393 336.35C439.002 336.35 438.777 336.463 438.76 336.601C438.751 336.723 438.881 336.836 439.089 336.966C438.881 336.922 438.682 336.905 438.517 336.914C438.153 336.94 437.944 337.061 437.936 337.2C437.936 337.339 438.118 337.469 438.378 337.616C438.638 337.764 438.994 337.92 439.341 338.136C439.687 338.345 439.974 338.57 440.19 338.752C440.407 338.926 440.581 339.064 440.719 339.021C440.85 338.978 440.91 338.735 440.797 338.371C440.754 338.241 440.693 338.11 440.598 337.972C440.633 337.998 440.667 338.024 440.693 338.05C440.832 338.18 440.971 338.301 441.084 338.405C441.309 338.613 441.483 338.769 441.621 338.726C441.751 338.691 441.812 338.431 441.699 338.05C441.647 337.859 441.543 337.651 441.396 337.434C441.361 337.391 441.326 337.347 441.292 337.295C441.387 337.373 441.474 337.443 441.561 337.521C441.717 337.659 441.864 337.79 441.986 337.902C442.237 338.128 442.419 338.293 442.558 338.241C442.679 338.197 442.723 337.92 442.593 337.529C442.532 337.339 442.419 337.122 442.263 336.914C442.306 336.948 442.35 336.983 442.393 337.018C442.549 337.157 442.697 337.287 442.818 337.399C443.07 337.625 443.252 337.79 443.39 337.738C443.512 337.694 443.555 337.417 443.425 337.026C443.364 336.827 443.243 336.61 443.087 336.393L443.061 336.385Z" fill="white"/>
<path d="M460.422 210.086C460.422 212.514 460.405 214.994 460.388 217.457C460.379 219.07 460.37 220.683 460.37 222.27C457.543 222.123 454.759 222.287 451.95 222.652C452.192 221.307 452.427 219.963 452.669 218.619C452.912 217.24 453.164 215.861 453.407 214.491C455.739 213.346 458.428 211.76 460.422 210.094V210.086Z" fill="#F68895"/>
<path d="M461.749 221.073C461.133 221.923 460.448 222.721 459.65 223.397C458.523 224.351 457.136 225.045 455.661 225.106C454.187 225.175 452.643 224.542 451.837 223.311C451.334 222.547 451.152 221.628 451.221 220.709C454.265 220.362 457.352 220.405 460.379 220.839C460.838 220.908 461.298 220.978 461.749 221.065V221.073Z" fill="#F68895"/>
<path d="M460.422 210.086C460.422 212.514 460.405 214.994 460.388 217.457C458.046 218.706 455.271 219.139 452.669 218.619C452.912 217.24 453.164 215.861 453.407 214.491C455.739 213.346 458.428 211.76 460.422 210.094V210.086Z" fill="#F17785"/>
<path d="M462.053 207.085C462.053 208.282 461.853 209.461 461.515 210.589C461.237 211.543 460.865 212.471 460.431 213.329C460.127 213.945 459.781 214.535 459.408 215.09C458.575 216.312 457.56 217.344 456.372 217.951C456.078 218.099 455.774 218.211 455.47 218.298C454.612 218.541 453.701 218.524 452.869 218.237C452.236 218.021 451.646 217.639 451.152 217.084C450.059 215.844 449.6 213.936 449.504 212.098C449.374 209.67 449.834 207.198 450.744 205.039C451.924 202.238 453.615 199.723 456.312 199.966C459.642 200.26 462.07 202.706 462.053 207.094V207.085Z" fill="#F68895"/>
<path d="M457.708 203.955C455.809 204.458 453.701 204.154 452.028 203.131C450.345 202.108 449.114 200.382 448.689 198.457C450.944 197.017 453.493 196.341 456.156 196.662C457.248 196.792 458.358 197.104 459.2 197.815C460.032 198.526 460.526 199.723 460.179 200.763C460.899 200.113 462.417 200.443 463.215 200.998C464.012 201.553 464.455 202.515 464.559 203.478C464.672 204.44 464.481 205.412 464.238 206.348C463.501 209.184 462.122 213.147 460.414 215.523C460.318 214.613 460.093 212.479 459.538 211.751C460.127 211.456 460.821 211.109 461.211 210.58C461.602 210.051 461.688 209.245 461.229 208.776C460.743 208.291 459.928 208.395 459.295 208.646C458.254 207.363 457.595 205.602 457.734 203.955H457.708Z" fill="url(#paint8_linear_15_308)"/>
<path d="M453.45 212.748C453.658 212.774 453.779 212.991 453.693 213.182C453.45 213.702 452.895 214.04 452.288 213.953C451.69 213.875 451.23 213.407 451.134 212.843C451.1 212.644 451.282 212.462 451.481 212.488L453.441 212.748H453.45Z" fill="#EFEFEF"/>
<path d="M427.434 297.942L431.935 318.772C431.935 318.772 431.935 318.772 431.935 318.781L442.081 365.748C442.09 365.939 442.133 366.121 442.202 366.294L452.14 412.308C452.331 413.21 453.129 413.826 454.014 413.826C454.144 413.826 454.282 413.808 454.421 413.782C455.462 413.557 456.121 412.533 455.895 411.502L451.499 391.166H483.169L487.739 412.317C487.964 413.357 488.988 414.016 490.02 413.791C491.06 413.565 491.719 412.542 491.494 411.51L486.698 389.319L486.499 388.399L476.517 342.169C476.517 342.022 476.283 341.085 476.283 341.085L471.297 318.017C471.297 318.017 471.297 318.009 471.297 318L466.97 297.95H427.443L427.434 297.942ZM446.4 367.543H478.07L482.345 387.315H450.675L446.4 367.543ZM441.3 343.929H472.971L477.246 363.701H445.576L441.3 343.929V343.929ZM436.201 320.316H467.871L472.147 340.088H440.477L436.201 320.316V320.316ZM432.204 301.792H463.874L467.048 316.474H435.377L432.204 301.792V301.792Z" fill="#311649"/>
<path d="M427.434 297.942L423.107 317.991C423.107 317.991 423.107 318 423.107 318.009L418.12 341.076C418.12 341.076 417.877 342.004 417.886 342.16L407.905 388.391L407.705 389.31L402.91 411.502C402.684 412.542 403.343 413.557 404.384 413.782C405.424 414.008 406.439 413.349 406.665 412.308L411.235 391.157H442.905L438.508 411.493C438.283 412.534 438.942 413.548 439.982 413.774C440.121 413.8 440.251 413.817 440.39 413.817C441.274 413.817 442.072 413.201 442.263 412.299L452.201 366.286C452.262 366.112 452.305 365.93 452.323 365.739L462.469 318.772C462.469 318.772 462.469 318.772 462.469 318.763L466.97 297.933H427.443L427.434 297.942ZM443.729 387.315H412.059L416.334 367.543H448.004L443.729 387.315ZM448.828 363.702H417.158L421.433 343.929H453.103L448.828 363.702V363.702ZM453.927 340.088H422.257L426.532 320.316H458.202L453.927 340.088V340.088ZM459.026 316.474H427.356L430.53 301.792H462.2L459.026 316.474V316.474Z" fill="#5C337F"/>
<path d="M386.615 290.102C384.802 291.056 383.241 292.478 382.114 294.195C382.097 296.554 382.6 298.991 383.64 301.098C385.635 297.664 387.231 294.031 386.615 290.102Z" fill="#4625AC"/>
<path d="M382.175 279.227C381.628 278.568 381.576 277.588 381.915 276.799C382.253 276.01 382.912 275.403 383.658 274.978C384.404 274.553 385.227 274.302 386.051 274.05C386.519 273.903 387.014 273.755 387.499 273.834C387.985 273.903 388.471 274.258 388.514 274.753C388.557 275.247 388.167 275.672 387.768 275.967C387.369 276.262 386.901 276.513 386.676 276.955C386.407 277.476 386.537 278.126 386.303 278.664C385.938 279.514 384.863 279.756 383.944 279.887C383.372 279.618 382.582 279.713 382.175 279.227V279.227Z" fill="#F68895"/>
<path d="M396.267 404.321C396.648 405.717 395.764 407.183 394.61 408.05C393.457 408.917 392.044 409.368 390.769 410.045C389.494 410.721 388.263 411.753 387.976 413.175C392.547 414.034 397.342 414.112 401.86 412.984C402.233 410.244 401.496 406.004 400.516 403.419C398.938 402.934 397.914 404.347 396.267 404.33V404.321Z" fill="#311649"/>
<path d="M389.381 405.327C389.719 406.567 388.93 407.877 387.907 408.657C386.875 409.429 385.618 409.837 384.482 410.435C383.346 411.042 382.244 411.961 381.993 413.227C386.077 413.99 390.353 414.068 394.385 413.054C394.723 410.608 394.064 406.827 393.18 404.512C391.775 404.078 390.864 405.336 389.39 405.327H389.381Z" fill="#311649"/>
<path d="M398.756 333.271C398.487 353.521 396.9 385.616 394.689 406.888L394.446 406.914L392.295 407.044L389.104 407.174L388.228 407.261L383.606 322.041C383.727 322.041 383.84 322.041 383.961 322.041C387.812 322.041 395.044 321.694 398.704 321.009C398.73 321.703 398.738 322.431 398.756 323.212C398.808 326.039 398.799 329.447 398.756 333.271V333.271Z" fill="url(#paint9_linear_15_308)"/>
<path d="M405.667 334.988C405.398 354.769 403.811 386.118 401.6 406.897L401.357 406.923L399.207 407.044L396.015 407.174L395.139 407.261L390.517 324.018C390.639 324.018 390.751 324.018 390.873 324.018C394.723 324.018 401.956 323.671 405.615 323.012C405.641 323.689 405.65 324.409 405.667 325.172C405.719 327.938 405.711 331.259 405.667 334.997V334.988Z" fill="#462261"/>
<path d="M382.47 323.142C383.155 323.325 383.848 323.498 384.56 323.654C386.268 324.036 388.028 324.322 389.832 324.53C389.546 315.875 388.835 311.01 387.664 302.399C386.624 302.954 385.566 303.362 384.516 303.813C383.918 304.073 383.319 304.342 382.721 304.662C383.068 312.077 382.981 315.745 382.47 323.151V323.142Z" fill="#4625AC"/>
<path d="M397.333 276.626C395.348 277.953 392.833 278.49 390.465 278.126C390.587 276.921 390.509 275.689 390.248 274.51C390.032 273.521 389.685 272.559 389.208 271.657C390.604 269.836 392.486 268.847 394.741 268.414C394.957 270.573 395.538 272.671 396.388 274.657C396.674 275.325 396.987 275.984 397.333 276.626V276.626Z" fill="#F68895"/>
<path d="M396.388 274.657C394.394 274.094 392.26 274.024 390.248 274.51C390.032 273.521 389.685 272.559 389.208 271.657C390.604 269.836 392.486 268.847 394.741 268.414C394.957 270.573 395.538 272.671 396.388 274.657V274.657Z" fill="#F17785"/>
<path d="M390.743 273.886C390.361 274.137 389.945 274.354 389.503 274.527C388.323 274.996 387.022 275.1 386.025 274.38C385.097 273.703 384.776 272.559 384.733 271.379C384.716 270.859 384.75 270.33 384.811 269.827C385.236 266.445 386.337 263.15 388.046 260.201C390.205 259.169 394.368 258.276 395.183 260.522C396.917 265.283 394.975 271.111 390.743 273.886Z" fill="#F68895"/>
<path d="M406.136 323.906C402.901 324.539 399.493 324.868 395.955 324.868C393.865 324.868 391.818 324.747 389.823 324.521C388.02 324.313 386.259 324.018 384.551 323.645C384.802 318.885 384.898 316.647 384.837 312.788C384.828 311.938 384.802 311.002 384.776 309.952C384.724 308.097 384.655 306.249 384.551 304.402C384.542 304.203 384.534 304.003 384.516 303.804C384.508 303.535 384.49 303.275 384.473 303.015C384.403 301.818 384.325 300.604 384.256 299.39C383.927 293.415 383.927 287.319 386.684 282.107C387.205 281.118 387.82 280.181 388.523 279.306C389.607 277.944 390.899 276.739 392.33 275.741C393.804 274.727 395.564 274.753 397.325 275.412C397.498 275.481 397.672 275.551 397.845 275.629C398.331 275.958 399.12 276.808 400.022 278.959C400.967 281.205 402.042 284.162 403.048 289.356C404.34 296.051 405.511 306.475 406.127 323.914L406.136 323.906Z" fill="#703CD5"/>
<path d="M384.837 312.797C384.828 311.947 384.802 311.01 384.776 309.961C384.724 308.105 384.655 306.258 384.551 304.411L397.333 288.038L398.114 289.487C398.114 289.487 398.261 302.599 384.837 312.805V312.797Z" fill="#4625AC"/>
<path d="M398.808 283.902C398.825 284.535 398.773 285.203 398.704 285.914C398.66 286.269 398.634 286.633 398.565 287.006C398.504 287.379 398.435 287.752 398.357 288.142C398.218 288.923 397.993 289.721 397.758 290.553C397.698 290.761 397.637 290.969 397.576 291.177C397.507 291.386 397.429 291.594 397.359 291.811C397.212 292.235 397.065 292.669 396.9 293.103C396.206 294.828 395.391 296.65 394.324 298.453C393.275 300.266 392.061 302.104 390.63 303.882C390.283 304.333 389.91 304.767 389.529 305.209C389.338 305.426 389.147 305.642 388.956 305.868C388.766 306.093 388.557 306.293 388.358 306.51C388.158 306.726 387.95 306.935 387.751 307.151C387.551 307.368 387.343 307.585 387.127 307.784C386.693 308.192 386.259 308.608 385.826 309.024L385.409 309.423C384.707 310.091 383.84 310.403 382.99 310.403C381.455 310.403 379.955 309.397 379.547 307.698L379.495 307.472C379.348 306.882 379.209 306.284 379.062 305.703C378.931 305.113 378.836 304.524 378.732 303.951C378.619 303.37 378.55 302.789 378.472 302.217C378.437 301.931 378.394 301.645 378.359 301.358C378.316 301.072 378.307 300.786 378.281 300.509C378.056 298.254 378.064 296.077 378.151 294.031C378.238 291.975 378.524 290.05 378.819 288.264C378.905 287.813 379.001 287.379 379.096 286.954C379.192 286.529 379.261 286.104 379.382 285.705C379.495 285.298 379.599 284.908 379.703 284.517C379.755 284.327 379.807 284.127 379.859 283.945C379.92 283.763 379.981 283.572 380.041 283.39C380.284 282.662 380.501 281.968 380.77 281.335C380.9 281.014 381.03 280.71 381.152 280.407C381.212 280.259 381.273 280.112 381.334 279.965C381.403 279.826 381.472 279.687 381.533 279.548C381.628 279.358 381.724 279.167 381.811 278.985C382.747 279.141 383.649 279.514 384.43 280.069C384.395 280.216 384.369 280.364 384.334 280.511C384.195 281.049 384.117 281.647 383.987 282.263C383.848 282.878 383.779 283.546 383.675 284.231C383.649 284.405 383.623 284.578 383.597 284.752C383.58 284.925 383.562 285.107 383.545 285.289C383.51 285.653 383.476 286.018 383.441 286.399C383.398 286.772 383.389 287.162 383.363 287.553C383.346 287.943 383.319 288.342 383.311 288.749C383.311 289.157 383.311 289.573 383.311 289.989C383.311 290.198 383.311 290.406 383.311 290.623C383.319 290.831 383.337 291.047 383.346 291.264C383.363 291.689 383.389 292.131 383.406 292.574C383.45 293.016 383.493 293.458 383.545 293.909C383.58 294.36 383.649 294.811 383.718 295.271C383.753 295.496 383.788 295.73 383.822 295.956L383.875 296.303L383.944 296.65C384.039 297.109 384.126 297.569 384.221 298.037C384.95 296.736 385.6 295.444 386.19 294.187C386.372 293.796 386.554 293.406 386.736 293.025C386.901 292.634 387.066 292.253 387.231 291.88C387.404 291.507 387.551 291.134 387.708 290.761C387.864 290.397 388.011 290.033 388.158 289.677C388.722 288.238 389.251 286.894 389.737 285.671C389.858 285.359 389.98 285.064 390.11 284.769C390.24 284.474 390.335 284.188 390.457 283.91C390.691 283.355 390.942 282.826 391.168 282.332C391.393 281.838 391.653 281.378 391.879 280.953C392.104 280.528 392.356 280.138 392.607 279.791C392.867 279.444 393.11 279.132 393.362 278.863C393.622 278.594 393.882 278.369 394.151 278.196C394.688 277.84 395.252 277.667 395.799 277.727C396.345 277.779 396.856 278.057 397.299 278.542C397.524 278.785 397.724 279.089 397.906 279.436C398.088 279.783 398.253 280.19 398.374 280.641C398.504 281.092 398.6 281.595 398.678 282.141C398.721 282.419 398.73 282.696 398.756 282.991C398.773 283.286 398.782 283.59 398.782 283.91L398.808 283.902Z" fill="#703CD5"/>
<path d="M392.711 266.766C392.746 266.211 393.379 265.812 393.917 265.942C394.454 266.072 394.827 266.627 394.836 267.182C394.836 267.737 394.524 268.257 394.09 268.604C393.657 268.951 393.119 269.133 392.573 269.237C393.396 270.85 393.344 272.715 392.859 274.458C392.373 276.201 391.619 277.883 391.376 279.678C390.934 282.982 392.46 286.521 395.261 288.333C398.062 290.146 402.008 290.059 404.635 288.004C407.254 285.94 408.26 282.011 406.812 279.002C406.04 277.398 404.705 276.158 403.517 274.831C402.337 273.504 401.245 271.943 401.149 270.165C400.967 266.766 404.453 263.904 404.037 260.531C403.881 259.256 403.161 258.103 402.198 257.253C401.236 256.403 400.056 255.839 398.842 255.44C396.622 254.712 394.142 254.512 391.965 255.362C389.789 256.212 387.985 258.241 387.855 260.583C389.19 262.777 390.908 264.945 392.729 266.757L392.711 266.766Z" fill="#F23B6B"/>
<path d="M392.096 268.873C391.948 269.255 392.139 269.688 392.529 269.836C392.911 269.983 393.344 269.792 393.492 269.402C393.639 269.021 393.448 268.587 393.058 268.44C392.677 268.292 392.243 268.483 392.096 268.873Z" fill="white"/>
<path d="M378.064 297.395C377.301 298.497 376.946 299.858 377.076 301.194C377.206 302.529 377.813 303.795 378.767 304.732C379.695 303.656 380.388 302.104 380.267 300.682C380.146 299.26 379.166 298.297 378.064 297.395V297.395Z" fill="#F68895"/>
<defs>
<linearGradient id="paint0_linear_15_308" x1="106.137" y1="493.764" x2="561.824" y2="98.5032" gradientUnits="userSpaceOnUse">
<stop stop-color="#FBBAE2"/>
<stop offset="0.08" stop-color="#FBC0E3"/>
<stop offset="0.41" stop-color="#FCD7EA"/>
<stop offset="0.73" stop-color="#FCE5EE"/>
<stop offset="1" stop-color="#FDEAF0"/>
</linearGradient>
<radialGradient id="paint1_radial_15_308" cx="0" cy="0" r="1" gradientUnits="userSpaceOnUse" gradientTransform="translate(314.967 266.454) scale(172.087 172.087)">
<stop stop-color="#FFF188"/>
<stop offset="0.25" stop-color="#FEEF84"/>
<stop offset="0.44" stop-color="#FEEB7A"/>
<stop offset="0.63" stop-color="#FEE469"/>
<stop offset="0.8" stop-color="#FDD952"/>
<stop offset="0.96" stop-color="#FCCC33"/>
<stop offset="1" stop-color="#FCC92B"/>
</radialGradient>
<linearGradient id="paint2_linear_15_308" x1="320.552" y1="131.301" x2="334.314" y2="131.301" gradientUnits="userSpaceOnUse">
<stop stop-color="#703CD5"/>
<stop offset="0.54" stop-color="#6E3AD3"/>
<stop offset="0.73" stop-color="#6737CC"/>
<stop offset="0.87" stop-color="#5B30C1"/>
<stop offset="0.98" stop-color="#4A27B0"/>
<stop offset="1" stop-color="#4625AC"/>
</linearGradient>
<linearGradient id="paint3_linear_15_308" x1="293.703" y1="0.64844" x2="307.457" y2="0.64844" gradientUnits="userSpaceOnUse">
<stop stop-color="#703CD5"/>
<stop offset="0.54" stop-color="#6E3AD3"/>
<stop offset="0.73" stop-color="#6737CC"/>
<stop offset="0.87" stop-color="#5B30C1"/>
<stop offset="0.98" stop-color="#4A27B0"/>
<stop offset="1" stop-color="#4625AC"/>
</linearGradient>
<linearGradient id="paint4_linear_15_308" x1="316.498" y1="20.0479" x2="312.474" y2="-0.734104" gradientUnits="userSpaceOnUse">
<stop stop-color="#371A4F"/>
<stop offset="0.15" stop-color="#3D1D56"/>
<stop offset="0.45" stop-color="#44205E"/>
<stop offset="1" stop-color="#462261"/>
</linearGradient>
<linearGradient id="paint5_linear_15_308" x1="110.351" y1="357.674" x2="146.678" y2="357.674" gradientUnits="userSpaceOnUse">
<stop stop-color="#703CD5"/>
<stop offset="0.34" stop-color="#6C3AD1"/>
<stop offset="0.62" stop-color="#6234C7"/>
<stop offset="0.87" stop-color="#512BB7"/>
<stop offset="1" stop-color="#4625AC"/>
</linearGradient>
<linearGradient id="paint6_linear_15_308" x1="148.057" y1="345.594" x2="116.916" y2="294.43" gradientUnits="userSpaceOnUse">
<stop stop-color="#4625AC"/>
<stop offset="0.13" stop-color="#512BB7"/>
<stop offset="0.38" stop-color="#6234C7"/>
<stop offset="0.66" stop-color="#6C3AD1"/>
<stop offset="1" stop-color="#703CD5"/>
</linearGradient>
<linearGradient id="paint7_linear_15_308" x1="466.415" y1="273.547" x2="427.451" y2="181.104" gradientUnits="userSpaceOnUse">
<stop stop-color="#0386E9"/>
<stop offset="0.12" stop-color="#1F95ED"/>
<stop offset="0.28" stop-color="#41A6F2"/>
<stop offset="0.46" stop-color="#5CB5F6"/>
<stop offset="0.63" stop-color="#6EBFF9"/>
<stop offset="0.81" stop-color="#7AC5FB"/>
<stop offset="1" stop-color="#7EC7FC"/>
</linearGradient>
<linearGradient id="paint8_linear_15_308" x1="448.689" y1="206.053" x2="464.576" y2="206.053" gradientUnits="userSpaceOnUse">
<stop stop-color="#371A4F"/>
<stop offset="0.15" stop-color="#3D1D56"/>
<stop offset="0.45" stop-color="#44205E"/>
<stop offset="1" stop-color="#462261"/>
</linearGradient>
<linearGradient id="paint9_linear_15_308" x1="391.228" y1="322.978" x2="395.018" y2="406.905" gradientUnits="userSpaceOnUse">
<stop stop-color="#462261"/>
<stop offset="1" stop-color="#311649"/>
</linearGradient>
</defs>
</svg>
