<?xml version="1.0" standalone="no"?>
<!DOCTYPE svg PUBLIC "-//W3C//DTD SVG 20010904//EN"
 "http://www.w3.org/TR/2001/REC-SVG-20010904/DTD/svg10.dtd">
<svg version="1.0" xmlns="http://www.w3.org/2000/svg"
 width="512.000000pt" height="512.000000pt" viewBox="0 0 512.000000 512.000000"
 preserveAspectRatio="xMidYMid meet">
<metadata>
Created by potrace 1.14, written by Peter Selinger 2001-2017
</metadata>
<g transform="translate(0.000000,512.000000) scale(0.100000,-0.100000)"
fill="#000000" stroke="none">
<path d="M1165 5073 c-16 -2 -75 -10 -130 -19 -493 -77 -817 -377 -884 -819
-6 -34 -11 -718 -12 -1565 -3 -1680 -7 -1586 67 -1809 65 -195 164 -352 310
-491 126 -119 247 -193 409 -249 188 -64 156 -62 1570 -58 1393 4 1332 2 1509
61 154 52 277 129 388 244 183 189 289 425 345 767 20 125 29 607 14 772 -58
625 -328 1039 -770 1182 -172 56 -173 56 -1011 56 -844 0 -825 1 -947 -57
-146 -71 -243 -189 -303 -369 -19 -54 -21 -77 -15 -145 20 -245 178 -436 420
-511 55 -17 99 -18 568 -15 319 1 532 -2 573 -8 138 -22 250 -108 313 -240
l36 -75 0 -145 c0 -142 -1 -146 -31 -211 -57 -120 -141 -192 -274 -233 l-75
-24 -815 -3 -815 -4 -56 28 c-95 46 -167 142 -199 262 -11 40 -13 262 -11
1155 3 1070 4 1107 23 1158 38 102 137 200 246 244 l57 23 855 5 855 5 632
260 633 260 -33 16 c-17 9 -305 139 -639 288 l-608 271 -1082 -1 c-596 -1
-1096 -4 -1113 -6z m2665 -353 l401 -175 -3 -44 c-3 -42 -5 -45 -43 -58 -22
-8 -203 -70 -401 -138 l-362 -123 -103 74 c-57 41 -104 78 -104 83 0 5 29 35
65 66 36 32 82 73 103 92 l38 34 -106 122 c-58 67 -104 125 -102 130 3 10 199
117 209 114 4 -1 187 -81 408 -177z m-850 -2125 l0 -445 -135 0 -135 0 0 445
0 445 135 0 135 0 0 -445z"/>
</g>
</svg>
