<?xml version="1.0" standalone="no"?>
<!DOCTYPE svg PUBLIC "-//W3C//DTD SVG 20010904//EN"
 "http://www.w3.org/TR/2001/REC-SVG-20010904/DTD/svg10.dtd">
<svg version="1.0" xmlns="http://www.w3.org/2000/svg"
 width="512.000000pt" height="512.000000pt" viewBox="0 0 512.000000 512.000000"
 preserveAspectRatio="xMidYMid meet">
<metadata>
Created by potrace 1.14, written by Peter Selinger 2001-2017
</metadata>
<g transform="translate(0.000000,512.000000) scale(0.100000,-0.100000)"
fill="#000000" stroke="none">
<path d="M743 4542 l-33 -3 0 -2015 0 -2014 1154 0 c635 1 1168 5 1185 10 19
5 33 5 37 -1 3 -5 9 -7 14 -4 5 3 26 8 47 10 122 15 192 25 213 30 8 2 31 7
50 10 19 3 60 13 90 21 30 9 66 18 79 20 12 3 62 20 111 39 48 19 92 35 99 35
6 0 11 5 11 10 0 6 6 10 14 10 19 0 146 72 226 129 83 58 244 219 292 292 183
277 245 641 173 1004 -73 363 -296 624 -675 788 -34 15 -120 45 -150 53 -8 2
-42 11 -75 20 -33 9 -71 18 -85 20 -14 2 -36 5 -50 7 -206 35 -230 36 -877 37
l-543 1 0 233 0 232 1063 0 c584 -1 1069 0 1078 2 14 3 16 57 16 513 0 362 -3
509 -11 510 -45 2 -3428 3 -3453 1z m2137 -2446 c14 -2 37 -6 51 -9 47 -9 134
-56 167 -90 48 -50 75 -136 69 -222 -6 -84 -32 -147 -83 -199 -37 -38 -130
-88 -189 -102 -16 -4 -213 -9 -437 -11 l-407 -4 -3 316 c-2 174 0 319 4 323 8
8 786 6 828 -2z"/>
</g>
</svg>
