<?xml version="1.0" standalone="no"?>
<!DOCTYPE svg PUBLIC "-//W3C//DTD SVG 20010904//EN"
 "http://www.w3.org/TR/2001/REC-SVG-20010904/DTD/svg10.dtd">
<svg version="1.0" xmlns="http://www.w3.org/2000/svg"
 width="512.000000pt" height="512.000000pt" viewBox="0 0 512.000000 512.000000"
 preserveAspectRatio="xMidYMid meet">
<metadata>
Created by potrace 1.14, written by Peter Selinger 2001-2017
</metadata>
<g transform="translate(0.000000,512.000000) scale(0.100000,-0.100000)"
fill="#000000" stroke="none">
<path d="M720 4845 c0 -6 -31 -10 -76 -9 -59 0 -77 -3 -83 -15 -8 -15 -5 -60
4 -69 2 -2 0 -15 -5 -28 -6 -16 -6 -24 1 -24 6 0 6 -7 -1 -19 -7 -13 -7 -22 0
-26 7 -4 7 -13 0 -26 -8 -13 -7 -19 0 -19 6 0 8 -5 4 -11 -10 -17 -11 -51 -2
-77 4 -13 5 -21 0 -19 -9 6 -7 -116 2 -131 3 -6 3 -13 -2 -16 -8 -5 -7 -75 2
-83 3 -3 1 -16 -4 -29 -6 -16 -6 -24 1 -24 6 0 6 -7 -1 -19 -7 -13 -7 -22 0
-26 7 -4 7 -13 0 -26 -8 -13 -7 -19 0 -19 6 0 8 -5 4 -11 -10 -17 -11 -51 -2
-77 4 -13 5 -21 0 -19 -8 6 -8 -116 1 -130 4 -6 4 -13 0 -17 -9 -9 -9 -96 0
-96 5 0 5 -5 2 -11 -10 -15 -9 -134 0 -149 5 -7 4 -11 -1 -8 -5 4 -9 -28 -9
-73 0 -43 4 -79 8 -79 5 0 5 -5 2 -11 -10 -15 -9 -134 0 -149 5 -7 4 -11 -1
-7 -5 3 -9 -23 -9 -59 0 -35 4 -64 8 -64 5 0 5 -5 1 -11 -10 -17 -11 -51 -2
-77 4 -13 5 -21 0 -19 -9 6 -7 -116 2 -131 3 -6 3 -13 -2 -16 -8 -5 -7 -75 2
-83 3 -3 1 -16 -4 -29 -6 -16 -6 -24 1 -24 6 0 6 -7 -1 -19 -7 -13 -7 -22 0
-26 7 -4 7 -13 0 -26 -8 -13 -7 -19 0 -19 6 0 8 -5 4 -11 -10 -17 -11 -51 -2
-77 4 -13 5 -21 0 -19 -9 6 -7 -116 2 -131 3 -6 3 -13 -2 -16 -8 -5 -7 -75 2
-83 3 -3 1 -16 -4 -29 -6 -16 -6 -24 1 -24 6 0 6 -7 -1 -19 -7 -13 -7 -22 0
-26 7 -4 7 -13 0 -26 -8 -13 -7 -19 0 -19 6 0 8 -5 4 -11 -10 -17 -11 -51 -2
-77 4 -13 5 -21 0 -19 -8 6 -8 -116 1 -130 4 -6 4 -13 0 -17 -9 -9 -9 -96 0
-96 5 0 5 -5 2 -11 -10 -15 -9 -134 0 -149 5 -7 4 -11 -1 -8 -5 4 -9 -28 -9
-73 0 -43 4 -79 8 -79 5 0 5 -5 2 -11 -10 -15 -9 -134 0 -149 5 -7 4 -11 -1
-7 -5 3 -9 -23 -9 -59 0 -35 4 -64 8 -64 5 0 5 -5 1 -11 -10 -17 -11 -51 -2
-77 4 -13 5 -21 0 -19 -9 6 -7 -116 2 -131 3 -6 3 -13 -2 -16 -8 -5 -7 -75 2
-83 3 -3 1 -16 -4 -29 -6 -16 -6 -24 1 -24 6 0 6 -7 -1 -19 -7 -13 -7 -22 0
-26 7 -4 7 -13 0 -26 -8 -13 -7 -19 0 -19 6 0 8 -5 4 -11 -10 -17 -11 -51 -2
-77 4 -13 5 -21 0 -19 -9 6 -7 -116 2 -131 3 -6 3 -13 -2 -16 -9 -5 -7 -70 3
-86 3 -6 2 -10 -4 -10 -7 0 -7 -8 -1 -26 6 -14 6 -23 1 -20 -4 3 -6 -5 -4 -19
5 -25 33 -44 33 -22 0 7 3 8 8 2 4 -6 99 -10 250 -10 154 0 242 4 242 10 0 7
3 7 8 0 4 -6 55 -10 117 -10 62 0 113 4 117 10 5 7 8 7 8 0 0 -7 191 -10 553
-10 356 0 555 4 559 10 5 7 8 7 8 0 0 -6 91 -9 257 -8 226 2 518 9 518 13 0 1
20 3 45 5 25 2 65 6 90 10 25 3 56 8 70 9 14 2 39 6 55 9 39 8 96 19 115 21 8
2 25 6 37 10 12 4 30 9 40 11 10 2 33 8 51 14 17 5 32 7 32 4 0 -3 6 -1 13 4
11 10 74 32 100 37 12 2 31 10 132 57 28 12 56 24 64 25 8 2 17 6 20 11 3 4
26 19 51 32 25 14 60 35 78 49 17 13 32 21 32 17 0 -4 11 4 25 19 14 15 25 24
25 21 0 -4 6 0 14 7 7 7 37 33 66 58 86 73 172 169 235 263 14 21 25 40 25 43
0 3 9 19 21 35 11 16 17 29 12 29 -4 0 -3 4 2 8 15 10 79 161 91 215 1 4 2 8
4 10 1 1 3 9 5 17 25 113 38 185 40 221 1 19 4 39 6 45 7 12 3 266 -5 334 -6
55 -19 133 -30 180 -3 14 -8 34 -10 45 -3 11 -11 39 -20 63 -8 23 -12 42 -9
42 3 0 -2 9 -12 20 -10 11 -15 20 -11 20 6 0 -68 152 -86 175 -4 6 -25 34 -46
62 -61 84 -159 182 -232 233 -19 14 -37 28 -40 31 -19 22 -272 159 -293 159
-3 0 -18 5 -34 12 -15 6 -30 12 -33 12 -3 1 -11 5 -17 9 -7 5 -13 6 -13 2 0
-3 -9 -1 -21 5 -11 7 -33 14 -47 17 -41 8 -57 11 -57 13 0 4 -153 37 -210 44
-27 4 -64 9 -82 12 -17 3 -49 6 -71 8 -21 2 -44 6 -50 10 -7 4 -12 2 -12 -4 0
-6 -5 -8 -11 -5 -18 12 -151 14 -750 15 l-575 0 0 258 1 257 103 2 c57 0 106
3 109 6 3 3 16 2 29 -3 13 -5 25 -6 28 -2 3 5 30 5 61 2 30 -3 57 -4 60 -2 6
6 253 5 263 -2 5 -3 12 -3 15 0 7 7 293 7 305 0 5 -3 12 -3 15 0 7 7 293 7
305 0 5 -3 12 -3 15 0 7 8 294 7 306 0 5 -4 12 -3 14 1 3 5 80 6 172 3 92 -3
169 -2 171 2 3 4 16 3 29 -2 13 -5 26 -6 29 -2 3 5 30 5 61 2 30 -3 57 -4 59
-2 3 2 62 4 133 5 l128 2 2 571 2 570 -350 0 c-226 -1 -349 3 -349 9 0 7 -3 7
-8 0 -4 -6 -38 -10 -77 -10 -38 0 -73 4 -77 10 -5 7 -8 7 -8 0 0 -6 -138 -10
-395 -10 -257 0 -395 4 -395 10 0 7 -3 7 -8 0 -4 -6 -38 -10 -77 -10 -38 0
-73 4 -77 10 -5 7 -8 7 -8 0 0 -6 -138 -10 -395 -10 -257 0 -395 4 -395 10 0
7 -3 7 -8 0 -4 -6 -38 -10 -77 -10 -38 0 -73 4 -77 10 -5 7 -8 7 -8 0 0 -6
-138 -10 -395 -10 -257 0 -395 4 -395 10 0 7 -3 7 -8 0 -9 -13 -145 -13 -154
0 -5 7 -8 7 -8 0z m2227 -2739 c27 -3 58 -8 71 -11 12 -3 31 -7 43 -10 43 -9
125 -54 154 -83 51 -52 57 -62 77 -126 27 -84 18 -212 -20 -280 -22 -41 -93
-116 -109 -116 -7 0 -13 -4 -13 -9 0 -12 -70 -46 -92 -45 -10 1 -18 -2 -18 -6
0 -4 -6 -7 -12 -8 -7 0 -26 -4 -43 -8 -16 -5 -232 -9 -480 -9 l-450 0 -1 355
0 355 25 5 c35 7 810 3 868 -4z"/>
</g>
</svg>
