<?xml version="1.0" encoding="UTF-8"?>
<svg id="_Слой_2" data-name="Слой 2" xmlns="http://www.w3.org/2000/svg" xmlns:xlink="http://www.w3.org/1999/xlink" viewBox="0 0 846.56 414.29">
  <defs>
    <style>
      .cls-1 {
        fill: url(#_Ѕезым_нный_градиент_72);
      }

      .cls-2 {
        fill: #e89890;
      }

      .cls-3 {
        fill: #e8988c;
      }

      .cls-4 {
        fill: #e895a0;
      }

      .cls-5 {
        fill: #fff;
      }

      .cls-6 {
        fill: #fec1b5;
      }

      .cls-7 {
        fill: #662482;
      }

      .cls-8 {
        fill: #b5cfff;
      }

      .cls-9 {
        fill: #d68276;
      }

      .cls-10 {
        fill: #e08f86;
      }

      .cls-11 {
        fill: #c6c6c6;
      }

      .cls-12 {
        fill: #29235c;
      }

      .cls-13 {
        fill: #3c5685;
      }

      .cls-14 {
        fill: url(#_Ѕезым_нный_градиент_72-2);
      }

      .cls-15 {
        fill: url(#_Безымянный_градиент_11);
      }

      .cls-16 {
        fill: url(#_Безымянный_градиент_11-2);
      }
    </style>
    <linearGradient id="_Безымянный_градиент_11" data-name="Безымянный градиент 11" x1="111.75" y1="3.42" x2="84.42" y2="78.49" gradientUnits="userSpaceOnUse">
      <stop offset="0" stop-color="#6a99de"/>
      <stop offset=".19" stop-color="#5d94e2"/>
      <stop offset=".55" stop-color="#3d87ed"/>
      <stop offset="1" stop-color="#0c73fe"/>
    </linearGradient>
    <linearGradient id="_Ѕезым_нный_градиент_72" data-name="Ѕезым€нный градиент 72" x1="188.78" y1="71.58" x2="-26.69" y2="99.95" gradientUnits="userSpaceOnUse">
      <stop offset="0" stop-color="#3c5685"/>
      <stop offset=".34" stop-color="#344979"/>
      <stop offset=".96" stop-color="#1f2a5a"/>
      <stop offset="1" stop-color="#1e2859"/>
    </linearGradient>
    <linearGradient id="_Безымянный_градиент_11-2" data-name="Безымянный градиент 11" x1="748.46" y1="248.57" x2="765.05" y2="330.24" xlink:href="#_Безымянный_градиент_11"/>
    <linearGradient id="_Ѕезым_нный_градиент_72-2" data-name="Ѕезым€нный градиент 72" x1="461.26" y1="1341" x2="637.43" y2="1341" gradientTransform="translate(-66.04 -835.61) rotate(-12.43)" xlink:href="#_Ѕезым_нный_градиент_72"/>
  </defs>
  <g id="_Слой_1-2" data-name="Слой 1">
    <path class="cls-2" d="M440.96,155.36c-2.67-4.4-11.22-17.91-14.37-22.29-2.79-3.88-8.81-8.08-14.03-7.91-5.04,.16-8.89,1.77-11.19,6.46-2.13,4.34-2.59,9.65-1.72,14.57,1,5.64,2.96,10.59,5.23,15.46,2.26,4.87,4.57,9.18,6.74,13.67,1.02,2.11,1.46,3.94,3.36,3.61,2.73-.48,5.75-1.16,8.51-1.81,6.55-1.53,12.65-3.27,16.27-6.42,2.36-2.05,3.01-3.64,3.41-6.48,.44-3.1-.52-6.08-2.2-8.85Z"/>
    <path class="cls-9" d="M422.37,155.19c-1.3-2.89-6.45-12.43-9.15-15.49-3.24-3.68-9.29-4.07-13.38-4.59-.61-.08-1.09,.15-1.29,.88-1.19,4.31-.76,10.34,2.6,18.83,.88,2.22,1.7,3.13,5.62,5.09,2.41,1.2,5.11,2.4,7.69,3.57,1.81,.82,4.94,2.13,6.99,1.4,4.75-1.68,2.56-6.03,.91-9.68Z"/>
    <path class="cls-6" d="M457.75,164.12c-.22-1.81-1.62-13.1-2.16-16.93-.89-6.23-1.17-12.94-3-18.91-2.06-6.73-6.27-10.35-8.89-13.62-3.8-4.73-33.07-35.4-39.47-43.04-7.81-9.31-17.73-19.05-26.8-27.04-10.01-8.83-22.94-15.71-36.02-18.71-14.13-3.24-33.57-4.49-47.35-5.72C266.65,17.69,101.25,9.02,0,3.63V97.13c93.76-5.45,263.25-15.28,272.29-15.85,7.26-.46,32.06-1.89,39.3-1.22,15.3,1.41,27.1,17.45,32.42,31.27,2.85,7.39,6.62,14.33,9.82,21.56,3.34,7.56,7.94,14.45,13.41,20.64,5.89,6.66,12.72,12.42,18.9,18.81,6.25,6.45,12.07,14.3,15.85,20.57,4.14,6.87,6.43,10.78,9.35,18.79,.34,.94,2.55,9.17,3.2,9.86,.83,.9,1.97,1.03,2.67,.64,2.3-1.26,3.58-2.88,4.19-7,1.28-8.85,.79-16.98-1.98-25.54-2.69-8.32-6.87-15.93-10.89-23.64-3.7-7.1-7.44-14.69-8.03-22.81-.47-6.48,1.19-14.65,8.14-16.59,7.31-2.05,13.58,2.29,17.74,7.87,4.76,6.39,8.82,13.06,12.95,19.9,4.74,7.84,3.3,17.57,.19,26.04-3.37,9.19-7.07,15.59-10.95,24.58-1.4,3.26-2.16,6.97-1,10.64,1.74,5.48,5.69-.37,7.59-3.61,2.08-3.52,16.6-26.29,18.79-29.74,1.16-1.83,2.86-5.31,3.4-7.55,.61-2.53,.91-6.39,.39-10.62Z"/>
    <path class="cls-4" d="M438.22,206.08c-1.56-.86-3.47-1.35-4.94,.61-1.65,2.21-5.75,9.89-3.65,11.55,.18,.14,1.07-.43,1.38-.69,.72-.6,2.07-1.7,3.55-4.1,1.32-2.14,2.55-4.39,3.87-6.45,.21-.32,.23-.69-.21-.93Z"/>
    <path class="cls-2" d="M363.83,148.29c-2.44-7.26-8.08-14.4-11.04-23.85-2.49-7.96-3.93-16.27-5.81-24.47-4.64-20.32-15.22-29.66-28.78-28.91-17.73,.98-27.55,5.96-47.92,7.48-9.34,.7-28.61-.64-41.8-.27-14.97,.42-31.07,3.86-34.75,7.53,39.3-2.25,73.76-4.22,78.56-4.52,7.26-.46,32.06-1.89,39.3-1.23,15.3,1.41,27.1,17.45,32.42,31.27,2.85,7.39,6.62,14.33,9.82,21.56,2.67,6.03,6.13,11.64,10.2,16.8,.03-.41-.03-.88-.2-1.39Z"/>
    <path class="cls-7" d="M265.09,81.7c-.47,5.06-1.13,9.71-1.95,13.76-2.11,10.34-4.52,12.67-5.21,12.67s-3.1-2.33-5.21-12.67c-1.82-8.96-2.83-20.89-2.83-33.61s1-24.65,2.83-33.61c2.11-10.34,4.52-12.67,5.21-12.67,.33,0,1.05,.54,1.96,2.24,1.34,.08,2.66,.16,3.96,.24-1.55-3.68-3.5-5.97-5.91-5.97-9.11,0-11.52,32.55-11.52,49.76s2.41,49.76,11.52,49.76c6.2,0,9.29-15.06,10.64-30.12-1,.06-2.17,.13-3.48,.2Z"/>
    <path class="cls-4" d="M416.88,212.49c-.96-4.45-1.32-6.12-5.56-5.86-1.87,.11-2.04,.13-1.47,1.63,.74,1.98,1.85,5.42,2.48,7.65,.47,1.65,1.27,4.79,2.31,5.98,.3,.34,.97,.03,1.76-.91,1.62-1.93,.98-6.15,.48-8.49Z"/>
    <path class="cls-15" d="M193.73,11.21V88.61c-59.28,3.72-139.27,8.72-193.73,12.13V0C56.32,3.23,132.5,7.56,193.73,11.21Z"/>
    <path class="cls-1" d="M166.83,78.21c-7.35,.28-15.02,2.74-24.47,2.08-5.82-.41-13.11-3.06-20.57-2.57-11.72,.77-16.3,6.6-29.89,5.79-18.1-1.07-18.13-9.78-39.13-10.52-15.3-.54-26.79,7.47-43.47,7.09-3.17-.07-6.22-.58-9.3-1.33v22.01c54.46-3.41,134.46-8.42,193.73-12.13v-9.08c-13.29,.67-15.51-1.75-26.9-1.32Z"/>
    <path class="cls-5" d="M193.73,11.21V88.61c10.3-.65,19.98-1.25,28.79-1.81V12.95c-9.09-.56-18.74-1.14-28.79-1.74Z"/>
    <path class="cls-11" d="M206.75,78.87c-4.67-.29-8.72,.06-13.02,.63v9.11c10.3-.65,19.98-1.25,28.78-1.81v-8.22c-5.23,.51-10.52,.6-15.76,.28Z"/>
    <polygon class="cls-13" points="427.48 301.94 419.08 310.82 419.08 256.89 427.48 256.89 427.48 301.94"/>
    <polygon class="cls-8" points="421.91 256.89 421.91 307.83 421.17 308.61 421.17 256.89 421.91 256.89"/>
    <polygon class="cls-8" points="423.66 256.89 423.66 305.99 422.91 306.77 422.91 256.89 423.66 256.89"/>
    <path class="cls-12" d="M419.08,256.89v6.56l5.93,2.5c.79,.33,1.64,.43,2.47,.31v-9.37h-8.4Z"/>
    <path class="cls-13" d="M437.62,234.92l-8.21-2.44c-4.04-1.2-8.33-1.2-12.37,0l-8.21,2.44c-1.94,.58-3.27,2.36-3.27,4.39v10.66c0,1.84,1.1,3.5,2.8,4.22l13.09,5.52c1.14,.48,2.42,.48,3.56,0l13.09-5.52c1.7-.72,2.8-2.38,2.8-4.22v-10.66c0-2.03-1.33-3.81-3.27-4.39Zm-14.4,7.54c-1.69,0-3.07-1.37-3.07-3.07s1.37-3.07,3.07-3.07,3.07,1.37,3.07,3.07-1.37,3.07-3.07,3.07Z"/>
    <g>
      <path class="cls-12" d="M414.75,233.16c-2.35-2.24-3.82-5.4-3.82-8.89,0-2.54,.78-4.91,2.1-6.87-.24-.79-.48-1.6-.7-2.36-2.11,2.49-3.39,5.71-3.39,9.23s1.38,7,3.65,9.53l2.15-.64Z"/>
      <path class="cls-12" d="M423.23,209.99c-.43,0-.86,.02-1.29,.06-.04,.67-.1,1.34-.16,2.02,.48-.06,.96-.09,1.45-.09,6.78,0,12.29,5.52,12.29,12.29s-5.52,12.29-12.29,12.29c-.35,0-.7-.02-1.05-.05-.82,.3-1.48,.94-1.8,1.75,.92,.19,1.87,.29,2.85,.29,7.88,0,14.29-6.41,14.29-14.29s-6.41-14.28-14.29-14.28Z"/>
    </g>
    <path class="cls-6" d="M846.56,235.69v129.19c-89.34-7.79-268.24-23.44-282.79-23.77-7.89-.18-15.97,.52-23.34,3.6-7.12,2.99-13.14,7.94-19.65,11.98-6.67,4.13-46.6,27.39-61.4,36.11-9.51,5.6-20.71,12.74-25.22,13.88-7.81,1.96-15.07,.61-21.92-1.64-3.93-1.29-7.7-2.63-11.8-3.33-2.39-.4-3.78-.48-6.06,.24-2.07,.66-4.13,1.32-6.19,1.97-7.84,2.47-15.74,4.63-23.5,7.35-2.26,.79-8.64,4.02-10.81,2.7-1.81-1.1-1.5-5.78-1.4-7.4,.38-6.51,4.66-13.01,10.42-16.18-20.89-6.22-41.93-14.28-60.67-25.5-4.43-2.65-9.1-5.17-13.28-8.22-1.32-.96-4.01-2.85-3.62-4.34,.34-1.28,3.18-2.76,4.29-3.26,3.38-1.5,7.35-1.66,10.81-.5,2.29,.78,4.42,1.97,6.67,2.87,2.37,.95,4.87,1.51,7.24,2.46-6.64-4.49-13.34-9.07-19.63-14.06-1.33-1.06-2.63-2.16-3.83-3.37-1.4-1.4-1.63-2.39-.79-3.55,1.55-2.14,5.78-3.12,8.31-3.14,3.92-.02,5.71,1.17,8.72,2.52,3.9,1.75,7.81,3.45,11.74,5.11,7.53,3.18,15.16,6.42,23.23,7.91-6.19-3.79-12.73-7.95-19.46-12.41-1.94-1.28-6.1-4.18-5.95-5.56,.23-2.18,5.93-3.25,7.65-3.32,6.18-.26,12.44,3.11,18.09,5.23,7.12,2.67,14.26,5.4,21.69,7.12-3.75-2.21-7.17-4.97-10.33-7.95-1.18-1.12-1.86-1.63-1.56-2.85,.3-1.24,2.86-2.11,4.1-2.36,3.74-.76,6.18-.62,9.47,.91,17.44,8.12,38.61,13.8,51.59,16.42,3.04,.61,9.98,2.39,12.54,.77,2.55-1.61,5.32-4.73,7.43-6.93,2.7-2.83,19.06-20.88,24.57-27.02,10.11-11.27,20.66-22.02,33.79-29.78,11.68-6.9,32.56-12.09,41.51-12.61,18.43-1.09,36.67,.81,53.16,1.19,19.41,.45,35.87-1.23,68.88-5.64,56.65-7.57,137.42-18.23,187.33-24.84Z"/>
    <path class="cls-2" d="M468.81,369.76c-.3,0-.78,.34-.96,.46-10.71,7.62-21.9,14.26-33.99,19.22-4.66,1.91-24.47,8.35-36.27,11.64-.4,.11-2.23,.56-2.15,.61,.11,.08,.72-.38,2.56-.25,.28,.02,1.05,.05,1.87,.11,4.71,.31,14.4-.07,18.8-1.56,4.22-1.43,5.97-3.95,9.56-5.15,2.72-.91,7.41-.5,10.42-1.3,5.29-1.41,6.57-5.26,10.46-7.85,4.51-3,8.81-3.39,12.49-5.4,2.62-1.43,4.33-3.83,5.28-5.47,.79-1.37,1.42-2.84,1.98-4.32,.2-.52,.18-.75-.04-.75Z"/>
    <path class="cls-10" d="M422.05,341.17c-4.91,.85-9.27,3.38-12.32,7.15-17.89-2.31-35.14-8.62-45.47-12.4-.26-.09-.54,.04-.64,.3-.09,.26,.04,.54,.3,.64,10.25,3.75,27.3,9.99,45.08,12.37-2.55,3.24-5.76,6.65-9.12,9.72-22.06-3.44-40.91-8.04-57.64-14.07-.26-.1-.54,.04-.64,.3-.09,.26,.04,.54,.3,.64,16.58,5.98,35.25,10.55,57.03,13.99-.45,.4-.9,.79-1.35,1.17-1.61,1.36-3.34,2.74-5.02,4.07-2.73,2.17-5.55,4.41-8.04,6.74-19.91-3.26-43.37-7.65-70.02-18.33-.26-.1-.55,.02-.65,.28-.1,.26,.02,.54,.28,.65,26.41,10.58,49.69,15.01,69.49,18.27-3.19,3.16-7.58,8.38-9.39,11.6-.13,.24-.05,.54,.19,.68,.08,.04,.16,.06,.24,.06,.17,0,.34-.09,.43-.25,1.91-3.38,6.76-9.07,9.92-12.06,2.5-2.36,5.38-4.64,8.16-6.85,1.69-1.34,3.43-2.72,5.05-4.09,.71-.6,1.42-1.23,2.12-1.86,.02-.01,.04-.03,.05-.05,3.64-3.31,7.13-7.04,9.81-10.52,1.69-2.19,5.49-6.03,12-7.15,.27-.05,.45-.3,.41-.58-.05-.27-.3-.45-.57-.41Z"/>
    <path class="cls-10" d="M357.24,408.41s-.04,0-.05,0c-.27-.03-.47-.27-.44-.55,.11-1.05,1.07-2.47,2.28-3.37,1.3-.97,5.28-2.92,7.09-3.63,.16-.06,.33-.13,.52-.21,1.62-.65,3.84-1.54,5.34-1.17,.91,.23,1.76,1.14,2.53,2.7,.98,2,1.4,3.67,1.8,5.5,.06,.27-.11,.53-.38,.59-.27,.06-.53-.11-.59-.38-.39-1.76-.79-3.38-1.72-5.28-.62-1.25-1.28-2.02-1.88-2.17-1.18-.3-3.31,.56-4.72,1.13-.19,.07-.36,.15-.53,.21-1.72,.67-5.64,2.59-6.86,3.5-.97,.73-1.8,1.9-1.88,2.68-.03,.26-.24,.45-.49,.45Z"/>
    <path class="cls-2" d="M537.19,264.98c-8.95,.53-29.83,5.72-41.51,12.62-13.13,7.76-23.68,18.5-33.78,29.77-5.51,6.15-21.88,24.19-24.58,27.02-1.8,1.89-4.09,4.44-6.3,6.15-4.29,4.28-8.4,8.7-12.64,13.03-7.61,7.78-23.02,18.72-28.93,22.15-3.66,2.12-10.09,6-13.12,7.68-5.53,3.06-7.97,4.13-13.51,6.98,.02,0,.04,.01,.07,.02-5.67,3.12-9.91,9.49-10.39,15.89,.21,.04,.94-.35,1.42-1.22,3.3-5.92,6.52-9.22,12.42-12.58,5.87-3.33,18.79-8.65,29.03-12.55,19.76-7.51,47.92-23.21,60.89-40.89,11.87-16.17,29.85-39.28,39.83-46.52,9.55-6.93,24.66-14.61,34.99-17.88,7.71-2.45,20.27-4.9,28.58-5.49,7.42-.52,19.65-1.01,21.16-3.34-13.86-.65-28.67-1.73-43.62-.85Z"/>
    <path class="cls-5" d="M846.56,233.12v134.57c-57.09-4.98-145.17-12.67-209.85-18.12l-.22-88.64c5.56-.69,11.62-1.48,18.34-2.37,57.64-7.71,139.07-18.45,191.73-25.43Z"/>
    <path class="cls-16" d="M846.56,233.12v140.45c-48.78-4.26-117.39-10.25-177.06-15.35l-.25-101.6c56.77-7.56,128-16.97,177.31-23.5Z"/>
    <path class="cls-14" d="M838.89,341.56c-5.84-2.1-15.59-6.06-23.44-5.29-14.67,1.45-18.96,10.75-33.62,11.86-13.01,.99-24.46-6.32-36.47-9.97-15.21-4.61-29.1,.64-44.17,2.85-10.77,1.58-19.06-.97-31.74-2.87l.03,14.22,.02,5.88c59.68,5.1,128.29,11.08,177.06,15.34v-30.41c-2.53-.18-5.07-.66-7.67-1.6Z"/>
    <path class="cls-11" d="M669.48,352.35l-.03-14.21c-4.68-.7-9.94-1.31-16.15-1.6-4.86-.22-10.59,.12-16.62,.62l.03,9.62v2.79c4.91,.41,9.95,.84,15.11,1.28,1.93,.16,3.88,.33,5.84,.5,3.89,.33,7.83,.66,11.82,1.01h0Z"/>
    <path class="cls-2" d="M636.67,337.16c-11.2,.92-23.45,2.37-33.2,1.72-18.32-1.23-22.91-4.99-42.97-5.88-16.16-.72-27.19,6.56-38.77,17.07-5.18,4.71-13.96,12.53-19.42,16.24-4.13,2.8-12.08,5.42-13.75,7.73-.8,1.11-1.01,1.79-.84,2.16,14.61-8.56,29.24-17.14,33.05-19.49,6.52-4.03,12.53-8.99,19.65-11.98,7.36-3.09,15.44-3.78,23.34-3.6,5.49,.12,34.33,2.42,72.93,5.66l-.02-9.62Z"/>
    <path class="cls-3" d="M636.7,349.57v-1s0,1,0,1c1.37,.12,2.75,.23,4.15,.35-1.39-.12-2.77-.23-4.14-.35Z"/>
    <rect class="cls-7" x="585.67" y="263.68" width="22.9" height="81.28" transform="translate(-.75 1.47) rotate(-.14)"/>
    <path class="cls-12" d="M607.57,280.17h-20.99c-.78,0-1.42,.64-1.42,1.42v11.56c0,.07,.02,.14,.04,.2l2.47,5.15c.77,1.61,2.43,2.66,4.22,2.66h10.38c1.79,0,3.44-1.04,4.22-2.66l2.47-5.15c.03-.06,.04-.13,.04-.2v-11.56c0-.78-.64-1.42-1.42-1.42Zm-21.5,1.42c0-.28,.23-.51,.51-.51h20.99c.28,0,.51,.23,.51,.51v5.71c0,.28-.23,.51-.51,.51h-20.99c-.28,0-.51-.23-.51-.51v-5.71Zm19.58,16.52c-.62,1.3-1.95,2.14-3.39,2.14h-10.38c-1.44,0-2.77-.84-3.39-2.14l-2.42-5.06v-4.43c.16,.06,.33,.1,.51,.1h20.99c.18,0,.35-.04,.51-.1v4.43l-2.42,5.06Z"/>
  </g>
</svg>