<?xml version="1.0" encoding="UTF-8" standalone="no"?>
<!DOCTYPE svg PUBLIC "-//W3C//DTD SVG 1.1//EN" "http://www.w3.org/Graphics/SVG/1.1/DTD/svg11.dtd">
<svg width="100%" height="100%" viewBox="0 0 560 526" version="1.1" xmlns="http://www.w3.org/2000/svg" xmlns:xlink="http://www.w3.org/1999/xlink" xml:space="preserve" xmlns:serif="http://www.serif.com/" style="fill-rule:evenodd;clip-rule:evenodd;stroke-miterlimit:10;">
    <g id="details">
        <g id="details-2">
        </g>
        <g id="sling" transform="matrix(-1,0,0,1,559.202,0)">
            <g transform="matrix(1,0,0,1,-17.8,-33.9)">
                <path d="M265.58,107.56C265.58,101.37 254.45,96.36 240.72,96.36C226.99,96.36 215.85,101.36 215.85,107.56C215.855,108.037 215.925,108.512 216.06,108.97C215.924,109.658 215.853,110.358 215.85,111.06L215.85,297.13C215.849,298.646 216.155,300.146 216.75,301.54C193.25,308.168 168.413,308.489 144.75,302.47L144.75,112.23C144.746,110.758 144.468,109.3 143.93,107.93L143.93,107.56C143.93,101.37 132.44,96.36 118.26,96.36C104.08,96.36 92.58,101.36 92.58,107.56L92.58,107.93C92.042,109.3 91.764,110.758 91.76,112.23L91.76,318.45C94.784,321.967 98.07,325.25 101.59,328.27C119.39,343.55 140.04,349.27 156.65,351.41L156.65,502.61C156.65,508.644 161.616,513.61 167.65,513.61L196.65,513.61C202.684,513.61 207.65,508.644 207.65,502.61L207.65,351.25C224.41,349.08 242.87,343.4 256.33,328.25C260.287,323.8 263.596,318.815 266.16,313.44L266.16,111.06C266.152,109.87 265.956,108.689 265.58,107.56Z" style="fill:white;fill-rule:nonzero;stroke:black;stroke-width:1px;"/>
            </g>
            <g transform="matrix(1,0,0,1,-17.8,-33.9)">
                <path d="M143.93,107.56C130.081,108.814 116.467,111.942 103.46,116.86C104.07,129.25 104.76,148.36 104.62,171.71C104.11,256.01 93.41,280.83 112.12,301.03C126.52,316.57 155.57,326.42 167.55,330.48C174.366,332.794 181.307,334.72 188.34,336.25C181.507,394.625 187.152,453.791 204.9,509.82C203.604,511.175 202.036,512.242 200.3,512.95C198.18,513.8 196.3,513.84 192.75,513.88C190.506,513.897 188.263,513.797 186.03,513.58L165.66,513.4C158.82,510.74 157.53,507.14 157.22,506.03C156.906,504.499 156.739,502.942 156.72,501.38C156.589,499.266 156.573,497.146 156.67,495.03C156.84,491.74 156.88,453.24 156.67,351.27C131.667,348.979 108.454,337.24 91.79,318.46C92.063,248.16 92.33,177.86 92.59,107.56C93.216,105.616 94.238,103.821 95.59,102.29C100.29,97.09 107.59,97.08 117.9,97.23C126.96,97.36 133.02,97.53 138.68,101.85C140.747,103.436 142.523,105.368 143.93,107.56Z" style="fill:rgb(145,145,145);fill-opacity:0.13;fill-rule:nonzero;"/>
            </g>
            <g transform="matrix(1,0,0,1,-17.8,-33.9)">
                <path d="M216.64,104.76C216.42,110.29 216.11,118.59 215.85,128.67C214.85,166.49 215.96,172.33 215.54,207.59C215.11,243.81 213.72,258.51 215.85,289.95C216.18,294.81 216.51,298.83 216.75,301.54C219.673,303.299 222.947,304.395 226.34,304.75C230.772,305.181 235.238,304.353 239.22,302.36C239.973,273.693 240.307,244.27 240.22,214.09C240.047,178.197 239.25,143.363 237.83,109.59L265.62,107.59C263.771,104.39 261.216,101.654 258.15,99.59C247.48,92.53 231.21,94.83 216.64,104.76Z" style="fill:rgb(145,145,145);fill-opacity:0.13;fill-rule:nonzero;"/>
            </g>
        </g>
        <g transform="matrix(-1,0,0,1,577.002,-33.9)">
            <g id="puch_2">
                <path d="M215.85,191.14C220.937,194.474 226.65,196.737 232.64,197.79C249.29,200.67 262.39,192.94 266.14,190.54L504.43,328.85L479.66,357.23L266.14,223.33C249.022,223.641 232.113,219.505 217.07,211.33C216.67,204.597 216.263,197.867 215.85,191.14Z" style="fill:rgb(84,23,110);fill-rule:nonzero;"/>
            </g>
        </g>
    </g>
    <g id="character">
        <g id="leg_right" transform="matrix(-1,0,0,1,559.202,0)">
            <g transform="matrix(1,0,0,1,-17.8,-33.9)">
                <path d="M459.5,512.81L465.02,524.21C443.9,538.877 433.797,546.96 434.71,548.46C435.79,550.28 452.313,542.91 484.28,526.35L470.88,508.05L459.5,512.81Z" style="fill-rule:nonzero;"/>
            </g>
            <g transform="matrix(1,0,0,1,-17.8,-33.9)">
                <path d="M436.39,345C431.5,354.13 427.51,361.92 424.54,367.81C410.54,395.6 415.34,389.17 408.97,400.62C405.24,407.32 402.41,411.62 401.84,418.67C401.579,423.63 402.15,428.599 403.53,433.37C404.714,437.755 406.391,441.993 408.53,446C415.81,460.49 414.53,460.24 420.26,471.43C428.141,486.378 437.207,500.67 447.37,514.17C450.157,514.343 452.955,514.198 455.71,513.74C468.01,511.68 476.02,503.74 479.37,499.99C473.11,489.25 468.03,479.99 464.2,472.71C459.27,463.39 453.7,452.84 447.32,438.5C444.57,432.31 442.41,427.1 440.94,423.5C442.558,419.395 444.414,415.388 446.5,411.5C451.7,401.83 456.43,396.42 464.76,385.59C475.37,371.81 480.66,364.86 480.17,361.9C479.61,358.47 475.6,349.42 436.39,345Z" style="fill:white;fill-rule:nonzero;"/>
            </g>
            <g transform="matrix(1,0,0,1,-17.8,-33.9)">
                <path d="M470.39,358.29C464.76,365.29 456.98,375.14 447.99,387.23C427.84,414.35 425.86,420.09 425.26,425.81C424.14,436.5 429.44,446.41 440.07,465.81C448.39,480.936 457.798,495.438 468.22,509.2L479.38,500C475.43,494.28 471.5,488.17 467.65,481.66C456.287,462.379 447.04,441.927 440.07,420.66C444.817,412.421 450.204,404.567 456.18,397.17C475.07,373.81 493.03,363.6 490.71,358.65C489.82,356.74 485.78,355.23 470.39,358.29Z" style="fill:rgb(145,145,145);fill-opacity:0.25;fill-rule:nonzero;"/>
            </g>
            <g transform="matrix(1,0,0,1,-17.8,-33.9)">
                <path d="M428.93,357.9C421.737,371.133 415.117,384.653 409.07,398.46C406.33,404.75 403.12,411.18 401.29,417.8C399.57,424.03 401.22,429.35 403.45,435.23C413.594,461.845 426.717,487.227 442.57,510.89C443.1,511.69 444.4,510.94 443.86,510.13C428.758,487.58 416.131,463.467 406.2,438.21C403.33,430.88 400.68,424.33 403.3,416.42C405.64,409.42 408.88,402.54 411.89,395.77C417.503,383.163 423.617,370.793 430.23,358.66C430.69,357.81 429.4,357.05 428.93,357.9Z" style="fill-rule:nonzero;"/>
            </g>
            <g transform="matrix(1,0,0,1,-17.8,-33.9)">
                <path d="M467.22,381.14C461.987,387.807 456.953,394.647 452.12,401.66C447.55,408.28 442.85,414.89 440.38,422.66C440.08,423.58 441.53,423.97 441.82,423.05C444.25,415.46 448.93,408.95 453.41,402.46C458.163,395.567 463.12,388.827 468.28,382.24C468.87,381.49 467.81,380.42 467.22,381.18L467.22,381.14Z" style="fill-rule:nonzero;"/>
            </g>
            <g transform="matrix(1,0,0,1,-17.8,-33.9)">
                <path d="M440.59,423.51C449.601,450.795 462.447,476.661 478.74,500.33C479.28,501.12 480.58,500.33 480.03,499.58C463.805,476.019 451.01,450.271 442.03,423.11C441.73,422.2 440.28,422.59 440.58,423.51L440.59,423.51Z" style="fill-rule:nonzero;"/>
            </g>
            <g transform="matrix(1,0,0,1,-17.8,-33.9)">
                <path d="M447,514.78C451.3,516.7 458.25,514.09 462.38,512.72C468.285,510.853 473.663,507.611 478.07,503.26C478.76,502.58 477.7,501.52 477.01,502.2C472.988,506.18 468.111,509.19 462.75,511C458.96,512.34 451.56,515.16 447.75,513.46C446.88,513.07 446.11,514.36 447,514.76L447,514.78Z" style="fill-rule:nonzero;"/>
            </g>
        </g>
        <g id="leg_left" transform="matrix(-1,0,0,1,559.202,0)">
            <g transform="matrix(1,0,0,1,-17.8,-33.9)">
                <path d="M357.09,520.44L350.62,531.68C329.04,522.62 317.727,519.06 316.68,521C315.44,523.3 328.307,533.17 355.28,550.61C360.933,542.397 366.6,534.19 372.28,525.99L357.09,520.44Z" style="fill-rule:nonzero;"/>
            </g>
            <g transform="matrix(1,0,0,1,-17.8,-33.9)">
                <path d="M490.92,359.84C489.844,364.576 488.509,369.25 486.92,373.84C484.07,382.03 478.71,394.84 463.59,415.57C456.27,425.57 454.07,427.33 429.82,456.04C422.91,464.23 417.26,470.99 413.51,475.49C409.937,481.41 406.31,487.357 402.63,493.33C394.183,507.023 385.703,520.357 377.19,533.33C374.46,532.474 371.818,531.359 369.3,530C362.321,526.187 356.407,520.686 352.1,514C355.97,507.82 361.82,498.47 368.97,487.09C376.12,475.71 386.8,458.72 400.12,437.75C423.17,401.46 420.81,405.67 424.27,399.75C427.33,394.55 433.27,384.39 442.08,371.5C455.24,352.37 459.5,349.72 463.72,348.73C475.17,346.06 486.46,355.6 490.92,359.84Z" style="fill:white;fill-rule:nonzero;"/>
            </g>
            <g transform="matrix(1,0,0,1,-17.8,-33.9)">
                <path d="M466.42,365.63C466.619,368.4 466.619,371.18 466.42,373.95C465.2,390.95 456.72,403.41 446.79,416.21C426.53,442.3 423.58,439.57 409.52,459.13C398.69,474.21 398.75,478.18 386.52,494.74C378.792,505.236 370.299,515.146 361.11,524.39C365.767,528.459 371.214,531.523 377.11,533.39C386.59,517.89 396.48,502.25 406.78,486.47C410.18,481.27 413.583,476.12 416.99,471.02C428.41,457.33 437.68,446.55 444.06,439.22C450.06,432.32 455.89,425.71 463.41,415.73C468.009,409.777 472.25,403.556 476.11,397.1C480.79,389.1 484.47,382.86 486.84,373.86C488.587,367.178 489.309,360.269 488.98,353.37L466.42,365.63Z" style="fill:rgb(145,145,145);fill-opacity:0.1;fill-rule:nonzero;"/>
            </g>
            <g transform="matrix(1,0,0,1,-17.8,-33.9)">
                <path d="M488.69,364.38C483.9,385.77 471.82,404.19 458.31,421.08C443.81,439.21 428.31,456.59 413.31,474.25C412.69,474.98 413.75,476.05 414.37,475.31C430.15,456.81 446.49,438.65 461.49,419.52C474.32,403.15 485.58,385.3 490.17,364.78C490.38,363.84 488.94,363.44 488.73,364.38L488.69,364.38Z" style="fill-rule:nonzero;"/>
            </g>
            <g transform="matrix(1,0,0,1,-17.8,-33.9)">
                <path d="M412.85,475.08C401.103,494.593 388.997,513.9 376.53,533C376,533.81 377.3,534.56 377.83,533.76C390.283,514.68 402.39,495.387 414.15,475.88C414.217,475.765 414.253,475.634 414.253,475.5C414.253,475.087 413.913,474.747 413.5,474.747C413.233,474.747 412.985,474.889 412.85,475.12L412.85,475.08Z" style="fill-rule:nonzero;"/>
            </g>
            <g transform="matrix(1,0,0,1,-17.8,-33.9)">
                <path d="M437.91,377.07C408.837,422.403 380.017,467.91 351.45,513.59C350.94,514.41 352.24,515.17 352.75,514.35C381.323,468.683 410.14,423.177 439.2,377.83C439.72,377.01 438.43,376.26 437.91,377.07Z" style="fill-rule:nonzero;"/>
            </g>
            <g transform="matrix(1,0,0,1,-17.8,-33.9)">
                <path d="M351.61,515C357.997,523.597 366.621,530.281 376.54,534.32C377.44,534.68 377.82,533.23 376.94,532.87C367.397,528.961 359.098,522.522 352.94,514.25C352.36,513.48 351.06,514.25 351.64,515L351.61,515Z" style="fill-rule:nonzero;"/>
            </g>
        </g>
        <g id="hand_right" transform="matrix(-1,0,0,1,559.202,0)">
            <g transform="matrix(1,0,0,1,-17.8,-33.9)">
                <path d="M413.4,216.18C412.73,216.44 413.94,219.54 412.89,223.85C412.6,225.06 412.167,226.232 411.6,227.34C409.48,227.27 407.6,227.18 406.13,227.11C401.71,226.88 400.18,226.71 399.04,227.75C398.27,228.601 397.833,229.702 397.81,230.85C397.54,232.67 397.7,234.85 400.33,240.69C402.12,244.69 403.05,246.69 404.38,247.39C407.56,249.15 411.51,247.28 412.38,246.83C414.036,248.257 415.575,249.815 416.98,251.49C420.29,255.49 421.57,258.59 423.87,263.3C426.706,269.358 429.991,275.194 433.7,280.76C435.882,283.914 438.299,286.899 440.93,289.69C443.008,290.08 445.116,290.281 447.23,290.29C450.07,290.29 456.35,289.97 468.47,283.95C477.21,279.59 481.58,277.42 484,273.69C487.57,268.17 488.81,260.17 485.5,255.16C485.05,254.47 483.34,251.88 480.74,251.65C478.49,251.45 476.74,253.12 474.98,254.65C471.64,257.55 467.68,259.65 464.21,262.41C459.172,266.304 453.384,269.116 447.21,270.67C446.334,268.323 445.246,266.06 443.96,263.91C441.2,259.29 439.62,258.7 434.44,252.39C433.85,251.67 431.21,248.15 425.93,241.12C424.35,239.03 423.06,237.3 422.17,236.12C421.303,231.333 419.796,226.685 417.69,222.3C415.9,218.63 414.05,215.93 413.4,216.18Z" style="fill:white;fill-rule:nonzero;"/>
            </g>
            <g transform="matrix(1,0,0,1,-17.8,-33.9)">
                <path d="M399.06,236.44C400.617,238.284 402.597,239.725 404.83,240.64C408.249,241.978 412.034,242.063 415.51,240.88C416.78,242.75 418.87,245.88 421.33,249.88C432.16,267.33 433.23,273.57 440.51,278.04C445.132,280.751 450.462,282.019 455.81,281.68C471.98,280.95 481.22,266.17 482.26,264.45C482.453,268.566 481.351,272.642 479.11,276.1C477.06,279.1 474.62,280.56 469.84,283.27C464.16,286.49 456.93,290.47 447.25,290.27C444.994,290.232 442.746,289.974 440.54,289.5C435.737,284.109 431.647,278.123 428.37,271.69C425.46,265.91 423.45,260.17 417.94,252.52C416.423,250.416 414.801,248.39 413.08,246.45C411.885,247.325 410.475,247.86 409,248C406.78,248.137 404.59,247.422 402.88,246C398.7,242.72 399,237 399.06,236.44Z" style="fill:rgb(145,145,145);fill-opacity:0.14;fill-rule:nonzero;"/>
            </g>
            <g transform="matrix(1,0,0,1,-17.8,-33.9)">
                <path d="M481,251.72C475.61,251.93 471.41,256.81 467.16,259.66C461.098,263.695 454.638,267.097 447.88,269.81C447,270.17 447.38,271.62 448.28,271.26C453.524,269.159 458.599,266.659 463.46,263.78C465.98,262.273 468.433,260.66 470.82,258.94C473.91,256.7 476.93,253.38 481,253.22C482,253.22 482,251.69 481,251.72Z" style="fill-rule:nonzero;"/>
            </g>
            <g transform="matrix(1,0,0,1,-17.8,-33.9)">
                <path d="M447.5,272.79C447.16,266.79 443.73,262.4 440.14,257.88C434.62,250.933 429.087,243.993 423.54,237.06C422.94,236.3 421.88,237.37 422.48,238.12L435.39,254.31C439.74,259.77 445.58,265.42 446,272.79C446.06,273.79 447.56,273.79 447.5,272.79Z" style="fill-rule:nonzero;"/>
            </g>
            <g transform="matrix(1,0,0,1,-17.8,-33.9)">
                <path d="M423.62,236.56C422.29,232.21 420.8,227.92 419.08,223.71C418.13,221.4 417.08,217.12 414.72,215.81C413.87,215.33 413.35,215.21 412.67,215.97C411.99,216.73 412.17,218.64 412.17,219.52C412.17,222.78 412.52,225.52 411.17,228.64C410.78,229.52 412.08,230.28 412.46,229.4C413.232,227.743 413.706,225.962 413.86,224.14C413.94,222.92 413.43,221.42 413.73,220.29C414.23,218.37 414.91,218.12 415.84,219.97C418.44,225.444 420.564,231.132 422.19,236.97C422.47,237.89 423.92,237.5 423.64,236.57L423.62,236.56Z" style="fill-rule:nonzero;"/>
            </g>
            <g transform="matrix(1,0,0,1,-17.8,-33.9)">
                <path d="M412.06,228.32L412.32,227.53C412.63,226.62 411.18,226.22 410.88,227.14L410.61,227.92C410.31,228.84 411.75,229.24 412.06,228.32Z" style="fill-rule:nonzero;"/>
            </g>
            <g transform="matrix(1,0,0,1,-17.8,-33.9)">
                <path d="M411.53,227.77C408.05,227 402.24,225.43 398.84,227.03C396.33,228.21 396.89,230.2 397.45,232.51C398.84,238.28 399.37,250.62 408.02,248.94C408.96,248.76 408.56,247.31 407.62,247.5L402.48,245.4L401.73,243.4C401.39,242.32 401.17,241.19 400.9,240.1L399.26,233.52C399.11,232.92 398.34,231.18 398.53,230.6C399.11,228.85 401.14,228.33 402.59,228.09C405.24,227.66 408.53,228.59 411.13,229.16C412.07,229.37 412.47,227.93 411.53,227.72L411.53,227.77Z" style="fill-rule:nonzero;"/>
            </g>
            <g transform="matrix(1,0,0,1,-17.8,-33.9)">
                <path d="M398,229.6C399.486,234.16 403.445,237.497 408.19,238.19C409.13,238.32 409.54,236.88 408.59,236.74C404.356,236.185 400.794,233.25 399.44,229.2C399.14,228.29 397.69,228.68 398,229.6Z" style="fill-rule:nonzero;"/>
            </g>
            <g transform="matrix(1,0,0,1,-17.8,-33.9)">
                <path d="M403.21,231.55C405.641,232.556 407.566,234.5 408.55,236.94C408.9,237.83 410.35,237.44 410,236.54C408.931,233.724 406.765,231.457 404,230.26C403.12,229.88 402.36,231.17 403.25,231.55L403.21,231.55Z" style="fill-rule:nonzero;"/>
            </g>
            <g transform="matrix(1,0,0,1,-17.8,-33.9)">
                <path d="M398.41,236.82C400.204,239.961 403.131,242.301 406.59,243.36C407.51,243.65 407.91,242.2 406.99,241.91C403.906,240.963 401.299,238.868 399.71,236.06C399.575,235.829 399.327,235.687 399.06,235.687C398.647,235.687 398.307,236.027 398.307,236.44C398.307,236.574 398.343,236.705 398.41,236.82Z" style="fill-rule:nonzero;"/>
            </g>
            <g transform="matrix(1,0,0,1,-17.8,-33.9)">
                <path d="M399.61,240.89C400.58,243.993 403.159,246.338 406.34,247.01C407.28,247.2 407.68,245.76 406.74,245.56C404.066,245.038 401.881,243.095 401.05,240.5C400.76,239.58 399.31,239.97 399.61,240.89Z" style="fill-rule:nonzero;"/>
            </g>
            <g transform="matrix(1,0,0,1,-17.8,-33.9)">
                <path d="M404.06,248.47C406.518,250.109 409.827,249.753 411.88,247.63C412.55,246.93 411.49,245.87 410.82,246.57C409.251,248.22 406.685,248.477 404.82,247.17C404.02,246.63 403.27,247.92 404.06,248.47Z" style="fill-rule:nonzero;"/>
            </g>
            <g transform="matrix(1,0,0,1,-17.8,-33.9)">
                <path d="M412,247.48C416,249.91 418.39,254.99 420.65,258.98C422.7,262.61 424.65,266.32 426.58,269.98C430.4,277.11 434.51,283.98 439.99,290.03C440.64,290.75 441.69,289.68 441.05,288.97C434.52,281.8 430.05,273.3 425.53,264.8C422.28,258.68 418.95,249.89 412.76,246.17C412.654,246.116 412.538,246.088 412.419,246.088C412.008,246.088 411.669,246.427 411.669,246.838C411.669,247.087 411.793,247.321 412,247.46L412,247.48Z" style="fill-rule:nonzero;"/>
            </g>
            <g transform="matrix(1,0,0,1,-17.8,-33.9)">
                <path d="M440.75,290.42C446.52,292.47 454.08,290.15 459.66,288.36C466.339,286.17 472.633,282.944 478.31,278.8C479.08,278.24 478.31,276.94 477.55,277.51C472.433,281.251 466.806,284.239 460.84,286.38C455.1,288.38 447.07,291.08 441.14,288.97C440.23,288.64 439.84,290.09 440.75,290.42Z" style="fill-rule:nonzero;"/>
            </g>
        </g>
        <g transform="matrix(-1,0,0,1,577.002,-33.9)">
            <g id="torso">
                <path d="M488.35,250C484.707,250.389 481.158,251.404 477.86,253C463,260.4 458.39,278.2 455.69,287.34C450.93,303.45 442.4,325.55 425.59,354.54C430.509,357.905 435.818,360.662 441.4,362.75C461.79,370.36 480.45,366.9 489.4,364.54C492.5,354.95 496.94,340.6 501.6,322.92C516.01,268.21 512.32,258.28 507.26,253.74C504.63,251.41 499.4,248.51 488.35,250Z" style="fill:rgb(16,112,238);fill-rule:nonzero;stroke:black;stroke-width:1.5px;stroke-linejoin:round;stroke-miterlimit:2;"/>
            </g>
        </g>
        <g transform="matrix(-1,0,0,1,577.002,-33.9)">
            <g id="pouch">
                <path d="M91.78,200.3C97.668,206.508 104.939,211.24 113,214.11C123.445,217.752 134.748,218.163 145.43,215.29L489.43,364.58C492.62,359.07 495.84,353.16 499.01,346.87C502.37,340.18 505.35,333.7 508.01,327.51L144.73,187.16C125.107,192.274 104.221,185.174 91.78,169.16L91.78,200.3Z" style="fill:rgb(102,35,129);fill-rule:nonzero;"/>
            </g>
        </g>
        <g id="hand_left" transform="matrix(-1,0,0,1,559.202,0)">
            <g transform="matrix(1,0,0,1,-17.8,-33.9)">
                <path d="M501.07,251.52C499.68,251.38 495.87,251 493.07,253.37C490.27,255.74 489.99,259.37 489.82,262.04C489.647,266.315 490.465,270.573 492.21,274.48C493.9,278.9 495.51,285.41 498.71,298.43C500.209,304.53 501.361,310.71 502.16,316.94C498.318,317.982 494.336,318.41 490.36,318.21C483.97,317.87 479.2,315.93 470.25,312.21C464.4,309.77 460.09,307.55 452.51,305.74C445.93,304.16 445.25,304.89 445.12,305.18C444.54,306.38 448.77,309.62 452.42,312.18C444.9,316.91 439.07,318.18 435.06,318.51C431.052,318.677 427.177,319.997 423.9,322.31C423.21,322.83 421.85,323.88 422.08,324.56C422.49,325.71 427.36,325.07 431.84,324.24C432.61,325.451 433.538,326.554 434.6,327.52C437.778,330.268 441.801,331.849 446,332L439.38,336C440.47,336.07 442.02,336.15 443.89,336.15C448.35,336.15 450.58,336.15 452.62,335.41C454.66,334.67 454.73,334.07 460.17,330.32C461.99,329.07 463.51,328.09 464.52,327.44C466.29,328.44 468.92,329.82 472.15,331.44C481.07,335.95 486.52,338.71 493.86,340.92C499.668,342.789 505.767,343.585 511.86,343.27C514.554,343.235 517.19,342.486 519.5,341.1C522.12,339.336 524.104,336.776 525.16,333.8C526.72,329.7 526.02,326.48 524.92,319.49C523.22,308.64 524.72,315.23 522.78,303.83C519.11,282.32 518.46,286.32 516.96,275.02C516.238,269.736 514.742,264.588 512.52,259.74C511.376,257.291 509.567,255.211 507.3,253.74C505.431,252.513 503.294,251.752 501.07,251.52Z" style="fill:white;fill-rule:nonzero;"/>
            </g>
            <g transform="matrix(1,0,0,1,-17.8,-33.9)">
                <path d="M501.34,253.5C503.32,256.369 505.143,259.343 506.8,262.41C516.31,280.01 517.72,295.82 518.92,311.1C519.84,322.74 520.24,328.62 517.51,331.1C509.36,338.5 484.09,328.77 479.12,326.85C473.64,324.74 470.43,322.66 465.79,323.62C459.79,324.86 457.89,329.62 449.79,333.27C446.48,334.717 442.964,335.638 439.37,336C442.691,336.721 446.129,336.721 449.45,336C452.304,335.299 455.033,334.163 457.54,332.63C460.143,331.21 462.598,329.535 464.87,327.63C467.82,329.29 472.1,331.63 477.4,334.09C494.05,341.92 502.64,343.04 507.4,343.33C513.82,343.72 516.99,342.8 519.46,341.1C522.347,338.965 524.441,335.927 525.41,332.47C526.71,328.23 526.03,324.74 525.41,321.15C522.73,306.37 527.41,327.69 522.05,299.72C517.72,277.13 518.48,283.14 517.73,278.26C517.25,275.18 516,270.8 513.51,262.03C513.05,259.915 512.011,257.969 510.51,256.41C507.53,253.6 503.37,253.43 501.34,253.5Z" style="fill:rgb(145,145,145);fill-opacity:0.15;fill-rule:nonzero;"/>
            </g>
            <g transform="matrix(1,0,0,1,-17.8,-33.9)">
                <path d="M493.53,252.4C485.11,255.91 490.09,270.16 491.91,276.26C495.803,289.134 498.965,302.219 501.38,315.45C501.55,316.4 502.99,316 502.82,315.05C501.07,305.27 498.93,295.57 496.3,285.98C494.54,279.52 484.93,257.6 493.93,253.85C494.81,253.48 494.43,252.03 493.53,252.4Z" style="fill-rule:nonzero;"/>
            </g>
            <g transform="matrix(1,0,0,1,-17.8,-33.9)">
                <path d="M501.54,254.22C513.54,249.57 516.9,277.81 518.43,284.93C521.125,297.464 523.154,310.132 524.51,322.88C524.61,323.83 526.12,323.88 526.01,322.88C524.306,306.79 521.533,290.832 517.71,275.11C516,268.11 512.91,248.2 501.14,252.77C500.25,253.12 500.63,254.57 501.54,254.22Z" style="fill-rule:nonzero;"/>
            </g>
            <g transform="matrix(1,0,0,1,-17.8,-33.9)">
                <path d="M464.13,328.13C477.18,335.4 492.55,342.4 507.57,343.95C513.18,344.52 519.49,343.46 523.32,338.95C527.32,334.27 526.62,327.82 525.88,322.18C525.76,321.24 524.25,321.23 524.38,322.18C525.25,328.78 525.83,336.46 519.23,340.44C513.08,344.15 505.46,342.38 498.97,340.68C487.073,337.519 475.622,332.869 464.89,326.84C464.05,326.37 463.29,327.67 464.13,328.14L464.13,328.13Z" style="fill-rule:nonzero;"/>
            </g>
            <g transform="matrix(1,0,0,1,-17.8,-33.9)">
                <path d="M500.5,317.1C486.57,319.66 472.99,312.52 460.41,307.49C459.51,307.13 459.12,308.58 460.01,308.93C472.95,314.1 486.59,321.17 500.9,318.55C501.9,318.37 501.45,316.93 500.5,317.1Z" style="fill-rule:nonzero;"/>
            </g>
            <g transform="matrix(1,0,0,1,-17.8,-33.9)">
                <path d="M460.23,307.65C457.3,306.236 454.192,305.226 450.99,304.65C449.22,304.35 446.26,303.54 444.62,304.56C444.04,304.888 443.681,305.504 443.681,306.17C443.681,306.702 443.91,307.209 444.31,307.56C446.31,309.88 449.81,310.02 451.73,312.56C452.31,313.32 453.62,312.56 453.03,311.81C452.297,310.833 451.371,310.016 450.31,309.41C449.08,308.68 446.47,308.16 446.55,306.6C446.62,305.19 447.55,305.78 448.68,305.89C450.026,306.028 451.362,306.251 452.68,306.56C455.025,307.121 457.305,307.929 459.48,308.97C460.35,309.38 461.11,308.08 460.24,307.67L460.23,307.65Z" style="fill-rule:nonzero;"/>
            </g>
            <g transform="matrix(1,0,0,1,-17.8,-33.9)">
                <path d="M451.69,312.13C445.38,315.88 438.27,316.7 431.32,318.65C428.44,319.46 421.44,320.79 421.32,324.58C421.317,324.847 421.458,325.096 421.69,325.23C423.57,326.23 426.09,325.5 428.12,325.33C431.73,325.03 435.32,324.6 438.91,324.1C439.91,323.96 439.45,322.52 438.51,322.65C438.06,322.71 423.3,324.4 423.29,324.16C423.21,321.72 432.29,319.93 433.99,319.52C440.36,317.94 446.74,316.82 452.46,313.43C452.691,313.295 452.833,313.047 452.833,312.78C452.833,312.367 452.493,312.027 452.08,312.027C451.946,312.027 451.815,312.063 451.7,312.13L451.69,312.13Z" style="fill-rule:nonzero;"/>
            </g>
            <g transform="matrix(1,0,0,1,-17.8,-33.9)">
                <path d="M430.32,325.49C432.87,326.32 435.1,327.93 437.69,328.63C440.236,329.18 442.857,329.291 445.44,328.96C446.44,328.9 446.44,327.4 445.44,327.46C442.51,327.67 439.62,327.83 436.82,326.75C434.74,325.94 432.82,324.75 430.72,324.04C429.8,323.74 429.41,325.19 430.32,325.49Z" style="fill-rule:nonzero;"/>
            </g>
            <g transform="matrix(1,0,0,1,-17.8,-33.9)">
                <path d="M432.72,327C434.84,328.57 436.62,330.44 439.09,331.49C441.38,332.442 443.878,332.787 446.34,332.49C447.34,332.4 447.34,330.9 446.34,330.99C443.66,331.33 440.94,330.827 438.56,329.55C436.78,328.373 435.08,327.08 433.47,325.68C432.7,325.11 431.95,326.41 432.72,326.98L432.72,327Z" style="fill-rule:nonzero;"/>
            </g>
            <g transform="matrix(1,0,0,1,-17.8,-33.9)">
                <path d="M445.79,331.32C443.34,332.23 439.2,332.8 438.65,335.84C438.627,335.914 438.615,335.992 438.615,336.07C438.615,336.487 438.953,336.832 439.37,336.84C444.07,337.29 449.03,337.68 453.53,335.98C458.36,334.15 461.06,329.27 465.97,327.68C466.88,327.38 466.49,325.94 465.57,326.23C461.18,327.66 458.87,331.52 454.93,333.65C451.814,335.203 448.345,335.913 444.87,335.71C443.553,335.743 442.235,335.67 440.93,335.49C440.8,334.56 445.6,333.03 446.19,332.81C447.08,332.48 446.69,331.03 445.79,331.37L445.79,331.32Z" style="fill-rule:nonzero;"/>
            </g>
        </g>
        <g id="head" transform="matrix(-1,0,0,1,559.202,0)">
            <g transform="matrix(1,0,0,1,-17.8,-33.9)">
                <path d="M478,196C476.39,198.54 475.87,200.82 474.92,204.94C473.544,211.037 473.408,217.349 474.52,223.5C475.176,227.039 476.232,230.491 477.67,233.79C479.49,238.16 480.52,240.54 483.03,242.4C485.399,244.063 488.248,244.906 491.14,244.8L487.62,251.12C489.25,252.214 491.072,252.991 492.99,253.41C496.752,254.168 500.663,253.606 504.06,251.82C505.604,248.568 507.313,245.398 509.18,242.32C511.173,239.034 513.34,235.856 515.67,232.8C518.425,233.993 521.573,233.897 524.25,232.54C526.44,231.313 528.051,229.259 528.72,226.84C528.97,225.75 528.97,224.66 527.92,220.84C526.58,216 525.27,211.42 521.8,205.91C521.32,205.15 520.71,204.23 519.67,202.82C512.6,193.18 509.06,188.37 504.03,186.4C495.21,182.93 483,188.05 478,196Z" style="fill:white;fill-rule:nonzero;"/>
            </g>
            <g transform="matrix(1,0,0,1,-17.8,-33.9)">
                <path d="M478.67,193.08C470.97,207.54 470.61,227.96 481.15,241.32C485.7,247.09 494.67,245.78 500.86,243.7C508.244,241.206 514.515,236.182 518.56,229.52C519.07,228.7 517.78,227.94 517.27,228.76C513.551,234.87 507.866,239.539 501.15,242C498.017,243.158 494.71,243.773 491.37,243.82C485.32,243.82 482.29,241.02 479.61,235.92C472.808,222.689 472.943,206.923 479.97,193.81C480.42,192.96 479.13,192.2 478.67,193.05L478.67,193.08Z" style="fill-rule:nonzero;"/>
            </g>
            <g transform="matrix(1,0,0,1,-17.8,-33.9)">
                <path d="M516.17,232.71C520.82,235.97 526.59,233.28 528.88,228.53C530.99,224.15 529.64,218.29 523.88,218.47C523.469,218.47 523.13,218.809 523.13,219.22C523.13,219.631 523.469,219.97 523.88,219.97C529.31,219.8 529.05,225.75 526.88,229.08C524.71,232.41 520.38,233.81 516.96,231.41C516.17,230.86 515.41,232.16 516.2,232.71L516.17,232.71Z" style="fill-rule:nonzero;"/>
            </g>
            <g transform="matrix(1,0,0,1,-17.8,-33.9)">
                <path d="M515.89,230.6C510.977,237.54 506.629,244.863 502.89,252.5C502.47,253.36 503.76,254.12 504.18,253.25C507.926,245.617 512.273,238.294 517.18,231.35C517.74,230.56 516.44,229.81 515.88,230.6L515.89,230.6Z" style="fill-rule:nonzero;"/>
            </g>
            <g transform="matrix(1,0,0,1,-17.8,-33.9)">
                <path d="M490.54,244.38L487.7,249.59C487.24,250.43 488.54,251.19 489,250.34L491.83,245.14C492.29,244.29 491,243.54 490.54,244.38Z" style="fill-rule:nonzero;"/>
            </g>
            <g transform="matrix(1,0,0,1,-17.8,-33.9)">
                <path d="M497,201.63C493.147,207.958 490.622,215.005 489.58,222.34C489.51,222.83 489.9,223.51 490.5,223.26C492.211,222.591 493.771,221.588 495.09,220.31C495.79,219.65 494.73,218.59 494.03,219.25C492.955,220.421 491.604,221.304 490.1,221.82L491.02,222.74C492.036,215.532 494.514,208.607 498.3,202.39C498.367,202.275 498.403,202.144 498.403,202.01C498.403,201.597 498.063,201.257 497.65,201.257C497.383,201.257 497.135,201.399 497,201.63Z" style="fill-rule:nonzero;"/>
            </g>
            <g transform="matrix(1,0,0,1,-17.8,-33.9)">
                <path d="M488.27,231.15C485.05,226.15 492.85,226.74 495.27,226.15C496.94,225.77 497.53,225.08 498.7,223.95C500.28,222.42 502.49,220.02 504.7,223.09C506.26,225.24 504.85,228.38 503.3,230.09C500.68,232.94 496.03,234.68 492.3,233.69C492.254,233.681 492.208,233.677 492.162,233.677C491.75,233.677 491.412,234.016 491.412,234.427C491.412,234.74 491.607,235.021 491.9,235.13C496.5,236.36 502.31,234.13 505.13,230.24C507.2,227.42 507.79,221.83 503.7,220.36C502.067,219.903 500.31,220.307 499.04,221.43C497.66,222.51 497.34,223.43 495.63,224.18C493.63,225 492.01,224.57 490.01,224.96C487.809,225.23 486.136,227.12 486.136,229.337C486.136,230.252 486.421,231.144 486.95,231.89C487.46,232.7 488.76,231.95 488.24,231.13L488.27,231.15Z" style="fill-rule:nonzero;"/>
            </g>
            <g transform="matrix(1,0,0,1,-17.8,-33.9)">
                <path d="M488.64,207.1C488.65,206.468 488.913,205.866 489.37,205.43L488.09,204.9C488.182,206.092 487.825,207.277 487.09,208.22L488.46,208.4C488.427,207.405 488.666,206.42 489.15,205.55C489.53,204.67 488.24,203.91 487.85,204.79C487.198,206.017 486.91,207.405 487.02,208.79C487.12,209.52 488.02,209.4 488.39,208.97C489.285,207.806 489.726,206.355 489.63,204.89C489.617,204.482 489.278,204.154 488.87,204.154C488.677,204.154 488.491,204.228 488.35,204.36C487.617,205.081 487.197,206.062 487.18,207.09C487.18,207.501 487.519,207.84 487.93,207.84C488.341,207.84 488.68,207.501 488.68,207.09L488.64,207.1Z" style="fill-rule:nonzero;"/>
            </g>
            <g transform="matrix(1,0,0,1,-17.8,-33.9)">
                <path d="M504.08,211.35C504.179,210.485 504.596,209.686 505.25,209.11L503.97,208.58C503.945,209.076 503.854,209.567 503.7,210.04C503.64,210.26 503.38,211.18 503.15,211.28L503.9,211.28C504.03,211.41 504.07,211.37 504.04,211.16C504.081,211.033 504.149,210.917 504.24,210.82C504.82,210.05 503.52,209.3 502.94,210.06C502.536,210.598 502.416,211.299 502.62,211.94C502.725,212.357 503.102,212.651 503.532,212.651C503.7,212.651 503.865,212.606 504.01,212.52C504.493,212.076 504.84,211.504 505.01,210.87C505.286,210.136 505.444,209.363 505.48,208.58C505.467,208.172 505.128,207.844 504.72,207.844C504.527,207.844 504.341,207.918 504.2,208.05C503.276,208.914 502.702,210.09 502.59,211.35C502.49,212.35 503.99,212.35 504.09,211.35L504.08,211.35Z" style="fill-rule:nonzero;"/>
            </g>
            <g transform="matrix(1,0,0,1,-17.8,-33.9)">
                <path d="M488.25,198.52C489.17,197.23 491.1,195.71 492.51,197.3C493.15,198.02 494.21,196.96 493.57,196.24C491.46,193.86 488.42,195.71 486.96,197.77C486.4,198.55 487.7,199.3 488.25,198.52Z" style="fill-rule:nonzero;"/>
            </g>
            <g transform="matrix(1,0,0,1,-17.8,-33.9)">
                <path d="M506.63,202.71C508.31,200.71 510.38,203.07 510.84,204.78C510.93,205.105 511.228,205.332 511.565,205.332C511.978,205.332 512.317,204.993 512.317,204.58C512.317,204.512 512.308,204.445 512.29,204.38C511.97,202.824 510.946,201.5 509.52,200.8C508.16,200.213 506.568,200.556 505.57,201.65C504.95,202.38 506,203.45 506.63,202.71Z" style="fill-rule:nonzero;"/>
            </g>
            <g transform="matrix(1,0,0,1,-17.8,-33.9)">
                <path d="M475.41,203.1C470.3,202.85 465.75,200.26 464.05,196.32C461.57,190.58 465.2,182.04 473.68,179.03C474.42,170.66 477.93,168.1 478.98,167.44C485.72,163.18 499.7,168.57 511.21,183.75C526.71,186.009 537.904,200.145 536.55,215.75C538.14,216.62 543.81,219.99 545.4,226.36C547.4,234.36 542.17,244.09 532.03,248.57C529.725,251.427 526.43,253.319 522.8,253.87C516.89,254.61 510.8,251.17 507.55,245.18C509.13,239.992 512.274,235.416 516.55,232.08C517.135,232.498 517.774,232.835 518.45,233.08C520.852,233.898 523.499,233.581 525.64,232.22C529.97,229.42 529.32,223.83 529.27,223.48C529.12,222.36 528.87,220.48 527.27,219.39C526.112,218.707 524.724,218.526 523.43,218.89C516.613,206.843 507.059,196.566 495.54,188.89C489.89,190.447 484.699,193.347 480.41,197.34C478.539,199.073 476.862,201.004 475.41,203.1Z" style="fill:rgb(102,35,129);fill-rule:nonzero;"/>
            </g>
            <g transform="matrix(1,0,0,1,-17.8,-33.9)">
                <path d="M511.56,202.61C510.63,203.1 514.85,209.31 514.09,217.87C513.22,227.72 506.32,234.34 504.81,235.79C499.965,240.388 493.804,243.364 487.19,244.3C489.989,244.54 492.805,244.516 495.6,244.23C498.386,243.951 501.141,243.419 503.83,242.64C501.763,246.6 499.7,250.563 497.64,254.53C502.723,254.175 506.889,250.252 507.55,245.2C508.34,246.978 509.543,248.541 511.06,249.76C513.43,251.67 517.52,253.45 518.66,252.25C520.31,250.51 513.66,244.66 514.58,235.96C514.68,234.96 515.11,231.64 516.7,231.23C518.13,230.86 519.02,233.23 521.37,233.49C524.55,233.83 527.18,229.93 527.37,229.65C528.76,227.53 530.2,223.38 527.97,220.83C526.85,219.686 525.321,219.031 523.72,219.01C515.06,205.33 512.25,202.24 511.56,202.61Z" style="fill:rgb(145,145,145);fill-opacity:0.12;fill-rule:nonzero;"/>
            </g>
        </g>
    </g>
</svg>
